<svg xmlns="http://www.w3.org/2000/svg" viewBox="0 0 626 626"><path d="M459.99 544.25c.06-6.46.41-18.95.78-27.75.7-16.88.75-16.85 3.2 2 .72 5.54.72 11.84 0 20.5-1.22 14.64-1.65 17-3.05 17-.68 0-1.01-4.17-.93-11.75m-233.88 1.38c-1.51-1.82-.36-4.63 1.88-4.63 2.1 0 3.25 3.36 1.69 4.92-1.43 1.43-2.2 1.36-3.57-.29m167.91-14.38c.01-4.08.29-5.31.98-4.25 1.28 1.98 1.28 10 0 10-.55 0-.99-2.57-.98-5.75M346 534c0-1.33.67-2 2-2s2 .67 2 2-.67 2-2 2-2-.67-2-2m183.69-.64c-.8-.8.11-2.36 1.37-2.36.52 0 .94.67.94 1.5 0 1.55-1.18 1.99-2.31.86m-180-5.01c-1.38-1.37-.66-3.49 1.06-3.16.96.19 1.75.97 1.75 1.74 0 1.58-1.76 2.47-2.81 1.42m-7.58-18.72c-1.36-1.64-.56-4.24 1.56-5.06 2.28-.87 3.33.23 3.33 3.49 0 2.21-.47 2.94-1.88 2.94-1.03 0-2.39-.62-3.01-1.37m52.03-3.71c-.08-1.42-.44-2.89-.81-3.26-1.13-1.13-1.15-5.94-.03-10.16.58-2.2.93-4.45.78-5-.15-.55-.5-4.38-.77-8.5-.9-13.55-2.11-14.57-2.37-2l-.25 11.5-.79-9.5c-.44-5.23-1.25-11.52-1.8-14-.56-2.48-1.03-6.28-1.06-8.45-.02-2.29-.4-3.55-.91-3-.97 1.07.96 28.89 2.09 30.01.98.97-.03 2.44-1.66 2.44-.93 0-1.21-1.22-.95-4.25.2-2.34-.41-9.59-1.37-16.12-1.48-10.16-2.02-11.98-3.77-12.64-2.85-1.08-4.06-2.79-5.56-7.85-.83-2.81-2.12-4.73-3.62-5.42-1.59-.72-2.14-1.61-1.75-2.84.42-1.34-.44-2.3-3.45-3.83-2.2-1.13-4.79-2.05-5.73-2.05-4.12 0-11.07-4.9-21.34-15.03L328 405.11v19.79c0 21.7-.97 44.1-1.9 44.1-.33 0-.45-14.17-.27-31.49.32-31.05.28-31.66-2.39-44.19-2.19-10.29-2.59-14.19-2.1-20.51.41-5.35.25-7.81-.5-7.81-.68 0-.86-1.13-.49-3 .43-2.16.22-3-.77-3-1.97 0-2.85-4.66-1.36-7.27.69-1.23 1.56-6.28 1.93-11.23.36-4.95.95-10.79 1.3-12.98.36-2.2.3-5.12-.12-6.5-.6-1.98-.9-1.12-1.37 3.98-.6 6.38-.62 6.32-.79-2.81-.11-5.91-.54-9.08-1.17-8.69-.55.34-1 2.19-1 4.12 0 4.69-1.96 3.37-2.12-1.43-.1-3.2-.23-2.98-1.02 1.75-1.13 6.86-1.86 7.65-1.86 2.03 0-3.33-.28-4.09-1.16-3.21-.89.89-.88 3.48.02 10.85.65 5.32.99 9.88.74 10.12-.25.25-.72-1.73-1.06-4.39-.33-2.66-1.04-7.28-1.57-10.26-.53-2.98-.97-7.59-.97-10.25 0-3.25-.42-4.83-1.28-4.83-1.03 0-7.67-4.42-13.22-8.79-.55-.44-3.02-2.21-5.5-3.94-2.48-1.72-5.85-4.34-7.5-5.81-1.65-1.48-4.81-4.18-7.03-6.01-2.4-1.98-5.98-6.83-8.86-12.02-4.58-8.21-4.89-9.25-5.64-18.75-.67-8.57-.5-10.98 1.11-16.21 1.04-3.38 2.85-7 4.01-8.05 1.17-1.06 2.86-3.36 3.77-5.13 2.4-4.69 19.62-19.73 26.92-23.52 5.65-2.94 6.23-3.52 5.71-5.77-.32-1.38-1.51-3.78-2.64-5.35-2.14-2.97-1.72-4.21 1.63-4.81 1.42-.26 2.16-1.43 2.6-4.1 1.2-7.38 8-11.59 20.85-12.89 9.96-1.01 13.04-2.58 12.33-6.29-.33-1.72-1.14-2.56-2.47-2.56-1.14 0-2.2-.85-2.5-2-.29-1.1-.91-2-1.38-2-1.54 0-.18-8.87 1.9-12.41 2.21-3.73 5.63-5.91 11.19-7.1 1.93-.41 4.49-1.82 5.7-3.12 2.56-2.76 6.67-3.08 11.83-.92 3.03 1.26 3.47 1.26 3.47 0 0-.8.68-1.45 1.5-1.45s1.5-.45 1.5-1-.79-1.01-1.75-1.02c-.96 0-2.43-.5-3.25-1.09-1.23-.89-1.16-.97.41-.46 1.22.4 2.72-.14 4.19-1.53 1.37-1.28 2.95-1.9 3.92-1.53 2.38.91 4.96-.83 7.42-5 2.59-4.38 1.52-5.63-3.48-4.1-2.19.68-5.34.7-9.21.08-5.87-.95-12.25.37-12.25 2.53 0 .48-1.25 1.4-2.78 2.03-2.19.91-3.66.85-6.87-.29-6.15-2.17-8.22-3.77-8.91-6.89l-.62-2.83-3.47 2.65c-3.2 2.44-3.61 2.52-5.23 1.06-.96-.87-3.24-1.88-5.05-2.25-3.17-.63-3.25-.57-2.11 1.57 1.01 1.87.9 2.46-.63 3.62-1.68 1.27-1.57 1.39 1.42 1.42 4.4.04 4.31 2.61-.12 3.44-1.86.35-4.43 1.55-5.72 2.67-1.29 1.12-3.15 1.83-4.13 1.57-.98-.25-1.56-.11-1.29.33.68 1.1-2 3.18-2.92 2.26-.4-.41-.59-.29-.4.27.18.55-1.45 3.14-3.63 5.75-2.18 2.6-6 8.64-8.5 13.41-3.2 6.12-5.43 9.15-7.54 10.26-1.65.87-4.11 2.36-5.47 3.32-1.36.96-3.25 1.75-4.21 1.75-.95 0-3.39 1.13-5.42 2.5-2.02 1.38-4.46 2.5-5.42 2.5s-4.3 1.17-7.42 2.6c-6.25 2.86-8.6 2.61-3.68-.38 3.34-2.03 3.16-3.22-.46-3.22-1.23 0-4.76-.96-7.83-2.14-4.02-1.54-5.59-2.66-5.59-4 0-2.42 1.83-2.37 4.5.14 3.33 3.13 6.77.94 9.05-5.78 1.57-4.62 1.62-5.5.39-6.29-1.15-.74-.64-1.63 2.56-4.47 3.62-3.21 3.71-3.41 1-2.09-1.65.8-3.91 2.32-5.01 3.36-1.11 1.05-5.35 4.77-9.42 8.28l-7.4 6.37 4.31 3.71c4.62 3.98 4.88 6.29.87 7.77-3.04 1.12-1.19 1.97 5.82 2.68 6.24.62 12.71-1.09 16.75-4.45 1.06-.87 1.6-1.04 1.21-.36-.77 1.31.91 5.27 2.22 5.27.44 0 1.43-1.46 2.22-3.25 1.28-2.9 1.92-3.28 6.03-3.55 4.01-.26 4.82.03 6.29 2.28 1.66 2.53 1.62 2.65-2.51 7.54-4.65 5.52-6.16 5.9-11.88 2.98-6.32-3.23-8.53-2.44-5.75 2.04 1.03 1.67.99 2.19-.25 2.98-4.04 2.57-9-.6-9-5.74 0-1.26-.45-2.28-1-2.28s-1 .9-1 2c0 1.33-.67 2-2 2-2.28 0-2.72-2.84-.75-4.92 1.03-1.09.54-1.2-2.75-.65-6.21 1.05-7.5 1.59-7.5 3.16 0 1.07.69 1.27 2.65.78 2.63-.66 2.64-.64 2.11 4.08-.42 3.75-1.33 5.55-4.35 8.64-2.1 2.15-4.42 3.91-5.16 3.91-.74 0-2.63.66-4.19 1.47-1.57.81-4.72 1.89-7 2.41-3.63.81-4.41.66-6.11-1.16-2.03-2.19-2.61-6.19-1.04-7.17 1.28-.79 2.39-8.04 1.6-10.51-.35-1.12-1.21-2.04-1.9-2.04-1.71 0-12.82 6.88-16.56 10.26-2.72 2.46-3.05 2.55-3.05.83 0-1.38 3.36-3.97 11.93-9.21 6.56-4.01 11.71-7.66 11.43-8.11-.27-.44-.7-1.92-.95-3.29-.36-1.97-.03-2.48 1.57-2.48 1.13 0 2.02.66 2.02 1.5 0 .82.45 1.5 1 1.5s1-1.12 1-2.5c0-1.81.54-2.5 1.94-2.5 2.14 0 5.06-3.51 5.06-6.07 0-.89.86-2.4 1.92-3.36 1.84-1.66 1.93-1.64 2.25.52.3 2.07.78 1.83 5.83-2.98 5.03-4.8 5.26-5.2 2.65-4.63-1.57.33-4.02 1.37-5.45 2.31-1.42.93-3.37 1.56-4.33 1.4-2.94-.5-9.21 3.37-15.95 9.84-7.74 7.44-13.61 11.63-17.52 12.52-1.59.36-4.13 1.16-5.62 1.79-2.52 1.04-2.68 1.44-2.07 5.14 1.42 8.66.92 13.85-1.68 17.31-1.72 2.3-2.64 5.11-3.04 9.32-.56 5.87.16 8.54 1.43 5.24.34-.9.88-1.38 1.19-1.07.31.3-.26 2.28-1.27 4.39-1 2.11-1.83 5.74-1.83 8.08-.01 4.34-1.13 5.65-2.13 2.5-.31-.96-1.03-2.73-1.6-3.92-.69-1.45-.71-3.11-.05-5 .54-1.56.67-3.71.29-4.79-.57-1.61-1.33-.84-4.39 4.5-3.83 6.69-5.06 8.46-12.63 18.27-2.47 3.21-5.85 7.65-7.5 9.88-3.17 4.28-10.31 7.93-13.74 7.04-1.63-.43-1.51-.71.94-2.2 2.39-1.45 2.8-2.35 2.8-6.11v-4.42l5.18-.92c4.14-.74 5.3-1.38 5.75-3.16.31-1.23.82-2.91 1.14-3.74.36-.95-.18-1.74-1.5-2.16-1.14-.36-2.07-1.49-2.07-2.52 0-2.27 3.58-3.6 5.47-2.02 2.36 1.95 8.22.14 11.46-3.55 3.87-4.41 8.49-12.35 7.66-13.17-.36-.36-2.06.18-3.79 1.2-2.61 1.54-4.96 1.82-13.77 1.65-10.1-.2-10.77-.08-13.33 2.29-2.75 2.55-3.51 4.6-1.7 4.6.55 0 1 .45 1 1s-1.03 1-2.3 1c-1.72 0-2.62.88-3.56 3.48-.96 2.67-1.76 3.42-3.45 3.25-1.73-.18-2.19.29-2.19 2.27 0 1.79-1.37 3.59-4.83 6.34-5.8 4.6-7.79 3.87-2.34-.86 4.03-3.5 4.07-5.25.19-8.46-1.36-1.13-2-.93-4.36 1.33-3.74 3.58-8.75 3.65-10.34.15-1.52-3.33-2.98-3.15-7.24.86-2.6 2.45-4.23 3.24-5.99 2.9-1.79-.34-2.85.21-4.11 2.13-1.27 1.94-2.27 2.45-3.95 2.03-3.25-.82-5.61 1.91-4.87 5.62.51 2.54.29 2.96-1.53 2.96-3.52 0-2.7-4.32 1.62-8.52 3.05-2.97 3.33-3.53 1.5-3-1.36.4-2.25.22-2.25-.44 0-.64 1.48-1 3.5-.87 2.87.2 4.2-.45 7.39-3.56 3.36-3.28 4.17-3.65 5.98-2.68 2.78 1.49 5.61-.29 7.78-4.92 2.14-4.56 2.88-4.98 8.9-4.99 5.75-.02 7.45 1.17 7.45 5.21 0 1.56.62 3.07 1.38 3.36 2.26.87 8.56-2.31 9.52-4.79.49-1.27 2.11-3.35 3.6-4.64 1.9-1.63 2.4-2.66 1.67-3.39-.72-.72-1.49-.59-2.52.44-.81.81-2.87 2.05-4.56 2.75-1.7.71-3.1 1.79-3.12 2.41-.02.62-.47.38-1.01-.54-.53-.92-2.32-1.97-3.97-2.33-4.52-1-6.62-6.5-2.48-6.5.77 0 2.53-1.13 3.91-2.51 2.28-2.28 2.43-2.95 1.66-7.07-.74-3.97-.58-4.81 1.24-6.51 2.32-2.15 7.83-3.85 11.68-3.58 2 .14 2.55.77 2.77 3.17.77 8.34 3.23 10.61 3.23 2.96 0-2.49.69-5.58 1.52-6.85 1.38-2.11 1.36-2.46-.15-3.72-.96-.79-3.75-1.36-6.51-1.32-5.3.08-5.45-.09-6.34-7.19-.4-3.2-.04-4.72 1.59-6.8 1.95-2.48 2.27-2.56 4.36-1.19 1.59 1.04 2.57 1.17 3.32.42s2.44-.39 5.72 1.19c4.35 2.11 4.77 2.15 6.32.59 1.37-1.36 1.43-1.81.31-2.5-.85-.53-.97-1.07-.34-1.47 1.26-.77 4.2.27 4.2 1.49 0 .49.86.89 1.92.89 4.9 0 6.28 2.02 3.48 5.11-1.28 1.41-1.98 1.54-3.41.65-1.35-.84-3.2-.79-7.42.22-4.43 1.07-5.74 1.83-6.19 3.63-.79 3.15.24 4.39 3.62 4.39 1.59 0 3.16.45 3.5 1.01.84 1.34-3.26 6.99-5.07 6.99-.79 0-1.43.45-1.43 1s.68 1 1.5 1c2 0 1.89.94-.39 3.44-1.03 1.13-2.17 3.02-2.52 4.19-.53 1.72-.16 2.22 1.93 2.62 2.74.52 2.86.41 8.51-8.25 1.61-2.47 4.29-6.02 5.95-7.89 1.66-1.86 3.02-3.71 3.02-4.12 0-1.32-2.4-2.75-6.75-4.05-4.67-1.38-5.89-3.5-1.5-2.6 12.3 2.51 13.36 2.57 16.82.93 3.78-1.81 4.25-2.74 1.83-3.67-.89-.34-1.36-1.26-1.06-2.04.3-.78-.11-1.95-.9-2.61-1.92-1.6-1.81-2.89.4-4.83 1.02-.89 2.38-2.63 3.04-3.87 1.71-3.23 9.31-3.24 11.56-.03.86 1.22 1.56 3 1.56 3.94 0 .95.42 1.98.93 2.3 1.42.87 7.34-2.31 9.37-5.04 1.75-2.36 1.74-2.42-.27-2.42-1.13 0-2.92.54-3.97 1.19-1.47.92-2.51.93-4.49.03-3.52-1.61-3.23-3.74.68-4.86 4.85-1.4 4.24-3.86-.96-3.86-5.69 0-7.33-1.9-8-9.24-.51-5.64-.75-6.11-3.95-7.64-1.88-.89-3.89-1.62-4.48-1.62-.98 0-.89.54.79 4.62.26.62-.21 1.38-1.04 1.7-1.03.4-2.29-.85-4.05-4-1.41-2.51-2.56-5.18-2.56-5.92 0-.74-1.69-2.24-3.75-3.33-3.09-1.63-3.36-1.99-1.5-2.03 3-.05 2.86-1.8-.25-3.22-3.11-1.42-3.31-3.21-.25-2.25 6.22 1.94 6.75 2.36 6.75 5.41 0 3.61 2.51 4.16 3.57.77.68-2.2 2.17-3.7 3.68-3.73 1.13-.03.9 5.77-.25 6.48-2.3 1.42.53 4.41 5.59 5.91 1.75.52 2.27 0 3.25-3.28 1.51-5.03 3.31-6.48 7.04-5.66 4.83 1.06 5.2 5.97.53 7.14-2.3.58-2.25.71 2.03 4.99 4.43 4.43 6.99 5.68 5.92 2.9-.45-1.17.25-1.5 3.16-1.5 3.61 0 3.71.1 3.13 3-.67 3.33.85 4.15 1.85 1 1.38-4.34 7.37-.5 6.64 4.25-.18 1.17.39 1.75 1.73 1.75 4.16 0 6.85-2 11.95-8.85 2.88-3.88 6.36-7.93 7.71-9 3.28-2.58 3.12-3.15-.91-3.15-1.86 0-3.94-.67-4.62-1.5-1.05-1.27-.84-1.5 1.38-1.5 2.85 0 3.62-2.6 1.42-4.8-1.4-1.4-4.8-1.61-4.8-.3 0 .5-1.76.67-3.92.38-3.8-.51-3.95-.41-4.91 3.07-1.35 4.89-4.9 9.65-7.2 9.65-1.04 0-2.92-1.09-4.18-2.43-1.26-1.33-3.61-2.57-5.22-2.75-3.77-.41-5-4.31-3.56-11.21.57-2.69.75-6.36.41-8.16-.5-2.7-.23-3.48 1.58-4.45 1.2-.64 3.27-.9 4.59-.57 3.66.92 3.05-1.88-.84-3.84-1.79-.91-4.1-2.2-5.13-2.87-1.49-.96-1.97-.96-2.33.03-.74 2.04-3.13 1.42-3.47-.9-.61-4.1-3.25-4.56-9.14-1.57-2.96 1.49-6.51 2.72-7.9 2.72-1.38 0-3.66.9-5.06 2-2.31 1.82-5.72 1.86-5.72.06 0-1.03 3.72-2.67 9.25-4.1 3.51-.9 4.75-1.7 4.75-3.06 0-1.52.53-1.74 3-1.25 3.53.71 3.86-.66 1.5-6.3-1.76-4.23-1.78-4.35-.57-4.35.51 0 2.31 2.42 4 5.38 2.44 4.27 3.73 5.5 6.27 6.01 1.76.35 4.24 1.61 5.5 2.8l2.3 2.16v-3.18c0-2.39.44-3.17 1.81-3.17 2.28 0 6.08 2.96 4.62 3.59-3.6 1.54 3.49 13.41 8.02 13.41 1.13 0 4.75 1.8 8.05 4 3.3 2.2 6.71 4 7.59 4 1.08 0 2.11-1.89 3.25-6 .92-3.3 2.16-6 2.77-6 .61 0 2.44 1.12 4.07 2.5 2.95 2.48 8.6 3.58 7.26 1.4-.93-1.51 1.57-5.9 3.36-5.9 1.12 0 1.34-.88.93-3.75-.29-2.06-.85-4.54-1.24-5.5s-.27-1.75.26-1.75 1.38 1.46 1.89 3.25c.87 3.02 1.32 3.3 6.28 3.91 2.94.36 5.73 1.26 6.2 2 2.34 3.69-.58 9.84-4.68 9.84-1.34 0-2.44.48-2.44 1.06 0 .58-.45.78-1.01.44-1.11-.69-1.56.32-2.41 5.51-.38 2.29-1.34 3.86-2.77 4.5-4.14 1.88-3.19 3.28 1.9 2.81 8.72-.8 9.29-1.07 9.29-4.37 0-1.68-.63-3.25-1.42-3.56-1.16-.44-1.07-.9.47-2.44 1.05-1.05 2.56-1.65 3.35-1.35 1.09.42 1.31.01.88-1.62-.57-2.19.96-3.93 3.47-3.96 2.3-.03 5.39 3.95 4.72 6.08-.35 1.1-.04 2.71.69 3.6 1.2 1.44.87 1.53-3.41.89-4.08-.61-4.75-.47-4.75.99s.76 1.62 5.36 1.15c2.95-.31 7.76-1.77 10.68-3.25l5.32-2.7-2.43-1.89c-1.34-1.04-3.55-2.18-4.93-2.53-2.8-.72-12.35-7.34-11.63-8.07.26-.25 2.02.27 3.91 1.17 1.89.9 3.84 1.54 4.33 1.43.49-.11 3.09.82 5.79 2.07 4.49 2.07 4.97 2.12 5.83.6.71-1.28 1.25-1.4 2.29-.54.85.7 3.01.87 5.76.46 3.85-.58 4.36-.94 3.99-2.85-.62-3.26 3.51-3.36 4.32-.11.74 2.94 6.9 6.84 10.73 6.79 3.4-.05 7.68-2.19 7.68-3.84 0-.66.91-2.35 2.02-3.77 1.23-1.57 1.62-2.8 1-3.19-1.63-1.01-1.18-4.06.88-5.92 1.62-1.47 2.22-1.53 3.99-.42 1.87 1.16 2.41.95 5.14-2.04 2.53-2.77 3.53-3.23 5.76-2.68 1.49.37 3.88.91 5.31 1.2 1.98.41 2.8 1.39 3.5 4.19.83 3.38 1.19 3.67 4.64 3.73 2.05.04 4.04.38 4.41.75 1.22 1.21 2.13.72 1.99-1.07-.1-1.21.71-1.85 2.61-2.07 3-.34 3.63-1.63 1.25-2.54-1.82-.7-1.97-4.67-.25-6.82 2.52-3.17 4.67-3.54 10.01-1.73s7.74 4.01 7.74 7.1c0 2.16.68 2.21 4 .31 1.38-.79 4.15-1.45 6.18-1.46 3.99-.04 7.82-3.57 7.82-7.21 0-2.79 2.51-3.29 9.53-1.9 5.59 1.11 6.56 1.06 8.93-.5 2.3-1.5 3.45-1.59 8.35-.68 4.53.85 6.28.78 8.59-.34 1.6-.78 4.3-1.41 6-1.42 1.71 0 4.39-.67 5.96-1.5 3.61-1.88 5.07-1.88 6.64.01.68.83 2.23 1.5 3.44 1.5 2.32 0 10.92-2.51 13.7-4 1.08-.58 2.27-.38 3.5.6 1.74 1.38 1.75 1.54.15 2.66-1.57 1.09-1.42 1.72 1.95 7.71 3.22 5.74 3.67 7.37 3.71 13.53.04 5.52-.42 7.8-2.2 10.81-1.24 2.09-2.25 3.95-2.25 4.12 0 .17 2.23.61 4.96.97s5.23 1.1 5.56 1.64c.34.54-.32 2.16-1.46 3.61-1.33 1.7-1.74 3.03-1.15 3.75.51.61 1.08 2.68 1.26 4.6.27 2.86 1.14 4.03 4.84 6.49 2.48 1.66 6.66 5.12 9.29 7.7 2.62 2.58 5.66 4.98 6.75 5.33 1.09.34 1.68 1.11 1.31 1.71-.37.59-.25.82.26.5 1.2-.74 11.17 5.53 13.03 8.18.78 1.11 1.33 3.5 1.23 5.31-.11 1.8.97 6.92 2.4 11.37 3.35 10.48 3.94 16.97 2.99 33.21-.43 7.32-.47 14.12-.1 15.13 1.95 5.28-4.36 17.71-11.65 22.95-2.5 1.79-5.21 4.56-6.03 6.14-1.66 3.2-2 5.32-.49 2.98.82-1.27.97-1.21.98.35.02 1.67-6.52 8.57-8.17 8.63-.38.01-2.73 1.79-5.22 3.94-2.5 2.16-5.37 4.19-6.39 4.52-2.11.67-6.2 8.2-6.2 11.42 0 1.24-.63 2.14-1.5 2.14-1.01 0-1.5 1.01-1.5 3.06 0 1.78-.42 2.8-1 2.44-.55-.34-1-1.77-1-3.18 0-2.02-.28-2.33-1.32-1.47-.91.76-1.65.78-2.36.07-.57-.57-2.22-.73-3.68-.37-2.59.65-2.64.84-2.77 9.31l-.13 8.64-1.19-9c-.65-4.95-1.47-8.32-1.83-7.5-.35.82-.32 10.61.07 21.73.5 14.29.38 20.68-.4 21.75-1.26 1.73-2.86 2.1-1.83.42.42-.68-.03-.96-1.19-.74-1.32.25-1.97 1.39-2.2 3.85-.18 1.92-1 3.87-1.81 4.32-1.17.66-1.34 2-.81 6.25.47 3.73.33 5.42-.43 5.42-.69 0-1.12-2.08-1.12-5.33 0-2.94-.29-5.63-.65-5.98-.35-.36-.55-7.22-.43-15.26.26-17.68-.85-37.43-2.11-37.43-.51 0-.65 2.5-.31 5.75.93 8.86 1.22 30.08.47 34.13-.56 2.98-.7 2.48-.79-2.88-.06-3.57-.56-9.88-1.12-14-.55-4.12-1.01-10.99-1.03-15.25-.02-4.62-.45-7.75-1.06-7.75-.65 0-.84 2.31-.52 6.25.94 11.69 1.65 38.19 1.01 37.55-.68-.69-.98-4.66-1.95-25.8-.65-14.38-1.11-18-2.28-18-.4 0-.44 6.41-.09 14.25s.62 18.07.6 22.75l-.03 8.5-.72-9.5c-.4-5.23-1.05-15.12-1.45-22-.4-6.88-.93-12.71-1.18-12.97-.26-.26-.36 9.3-.24 21.24.13 11.95-.03 21.97-.34 22.28-.31.31-.88-6.09-1.27-14.24-1.19-24.72-2.3-32.38-1.98-13.56.16 9.25-.11 16.25-.62 16.25-.5 0-.94-4.39-.97-9.75-.03-5.36-.43-11.55-.88-13.75-.64-3.1-.87-1.42-.99 7.5-.09 6.32-.29 16.09-.44 21.7-.16 5.62-.03 10.1.29 9.96.32-.13 1.93 1.09 3.58 2.72 1.65 1.63 2.44 2.63 1.75 2.23-1.79-1.05-1.55-.26.75 2.39 1.1 1.27 2 1.76 2 1.09 0-.66.43-.94.96-.62.52.33.66 1.37.31 2.31-.55 1.48-.41 1.53.97.41 1.41-1.15 2.06-.62 5.13 4.18 4.48 6.99 5.85 12.18 5.79 21.87-.06 7.85-2.75 19.13-4.34 18.15-.47-.29-.59-.95-.28-1.46.32-.51.05-.93-.6-.93-.66 0-.96-.83-.68-1.89.47-1.78-2.54-4.11-5.31-4.11-1.76 0-.97 3 .8 3.03 1.67.03 1.67.1 0 1.36-2.3 1.75-2.21 2.61.25 2.61 1.1 0 2 .45 2 1s-.84 1-1.88 1c-1.03 0-2.32.56-2.86 1.25-1.34 1.7-2.4 11.75-1.24 11.75.5 0 .66.68.34 1.5-.31.82-.13 1.5.42 1.5.99 0 3.39-4.49 4.68-8.75.37-1.24 1.09-2.25 1.61-2.25.51 0 .93-.65.93-1.44 0-.79.5-1.75 1.11-2.13 1.6-.98.06 7.63-1.72 9.65-.77.87-1.09 1.88-.73 2.25.37.37.22.67-.33.67s-1 .68-1 1.5c0 2.14 1.21 1.85 2.28-.55.6-1.35.95 3.68 1.02 14.75l.1 16.8-.82-13.37c-.45-7.35-1.08-13.63-1.4-13.96-.69-.69-4.8 3.86-7.98 8.83-4.17 6.52-14.29 15.38-19.51 17.08-5.73 1.87-10.3 4.66-9.56 5.85.28.46-.15 1.4-.97 2.08-.82.68-1.49 1.85-1.49 2.61 0 .76-.43 1.38-.95 1.38-.53 0-1.71 1.58-2.62 3.51-.98 2.06-2.64 3.75-4.01 4.1-1.76.44-2.57 1.62-3.27 4.74l-.94 4.15-.1-4.25c-.1-4.02-2.03-6.23-2.18-2.5-.15 3.54-1.04 9.7-1.48 10.13-.25.25-.52-1.53-.6-3.96-.09-2.43-.26-4.87-.39-5.42-.12-.55-.29-1.45-.36-2-.33-2.51-1.75 2-1.97 6.23-.36 6.98-1.13 6.56-1.13-.62 0-4.38-.34-6.02-1.13-5.53-.81.5-.95 5.15-.48 16.31.41 9.92.29 16.16-.35 17.11-.7 1.04-1.01-3.67-1.02-15.19-.01-9.18-.39-16.92-.85-17.21-.97-.59-.66 35.71.36 42.47.52 3.45.32 4.94-.83 6.09-.83.83-1.72 2.6-1.97 3.93-.46 2.4-.46 2.4-.59-.17m45.13-105.58c-.68-.27-2.03-.29-3-.03-.97.25-.42.47 1.23.5 1.65.02 2.45-.19 1.77-.47m3.82-8.43c-.64-1.59-.98-1.85-1.03-.74-.08 2.21 1.21 5.51 1.65 4.19.19-.57-.09-2.12-.62-3.45M446 390c0-.55-.45-1-1-1s-1 .45-1 1 .45 1 1 1 1-.45 1-1m-30.98-1.51c.75-.47.7-1.12-.16-2.16-.95-1.14-.96-1.65-.04-2.22.65-.4 1.31-2.5 1.46-4.67.15-2.17.64-4.53 1.09-5.25.51-.81.19-2.02-.82-3.13-1.35-1.5-1.41-2.07-.35-3.19.72-.75 1.41-3.08 1.55-5.18.14-2.09.97-5.19 1.85-6.88 1.31-2.54 1.36-3.22.24-3.93-1.06-.67-1.02-.85.24-.86.87-.01 1.59-.67 1.59-1.47 0-1.09-.45-1.2-1.84-.46-1.14.61-1.83.62-1.83.03 0-.53.56-1.18 1.25-1.46.77-.31.6-.53-.44-.58-.93-.04-1.96.36-2.29.89-.33.53-2.34.82-4.47.64-3.14-.27-3.77-.04-3.29 1.19.42 1.11.19 1.3-.84.7-.78-.45-1.12-.49-.76-.09.36.41-.21 3.74-1.26 7.41-1.56 5.42-1.83 8.82-1.46 18.05.26 6.26.72 11.62 1.01 11.92.3.3.55-.21.55-1.12 0-.92.48-1.67 1.06-1.67.58 0 .81.41.5.91-.31.5-.3 1.6.02 2.44.59 1.53 5.06 1.61 7.44.14m-12.22-28.24c-.06-2.89-.49-5.25-.95-5.25-.47 0-.85.48-.85 1.07 0 1.59-2.64 3.94-3.52 3.13-1.19-1.09.22 5.1 2.22 9.73l1.8 4.17.7-3.8c.39-2.09.65-6.16.6-9.05m38.2 6.63c0-.55-.45-.72-1-.38-.55.34-1 1.07-1 1.62s.45.72 1 .38c.55-.34 1-1.07 1-1.62m-1-4.44c0-.86-.46-1.28-1.02-.93s-.75 1.05-.44 1.56c.86 1.39 1.46 1.13 1.46-.63m-113.4-23.86c-.16-6.93-.62-12.93-1.02-13.33-.4-.41-.62 5-.49 12.01s-.02 13.01-.34 13.32c-.31.32-1.05-1.82-1.63-4.75l-1.05-5.33.46 6.4c.26 3.51.49 8.01.52 10l.06 3.6 1.89-4.65c1.58-3.89 1.84-6.75 1.6-17.27M445 359c0-.55-.45-1-1-1s-1 .45-1 1 .45 1 1 1 1-.45 1-1m-4-.94c0-.52-.45-1.22-1-1.56-.55-.34-1 .08-1 .94s.45 1.56 1 1.56 1-.42 1-.94m-37.62-7.61c.34-.89.18-1.29-.39-.94-.55.33-.99 1.03-.99 1.55 0 1.44.72 1.12 1.38-.61m-50.94-30.02c4.43-4.44 9.7-10.09 11.7-12.55 3.58-4.39 3.61-4.5 1.88-6.92-3.29-4.59-3.3-6.38-.03-8.8 1.66-1.22 3.01-1.81 3.01-1.3 0 .5-1.23 1.71-2.73 2.7-4.3 2.82-1.19 2.75 5.05-.11 5.51-2.52 5.68-2.71 5.68-6.56v-3.96l-3.15 3.59c-1.73 1.97-3.72 3.36-4.42 3.09-.7-.27-4.79 2.63-9.1 6.44-4.31 3.81-8.26 6.93-8.78 6.94-.52 0-2.18 1.19-3.69 2.64-1.62 1.56-4.9 3.12-8.05 3.82l-5.31 1.2-.72 12.92c-1.01 18.2-1.69 19.51-1.39 2.68.13-7.84-.12-14.25-.57-14.25-.45 0-.86 3.26-.91 7.25-.05 3.99-.27 11.3-.5 16.25l-.4 9 7.19-8c3.95-4.4 10.81-11.63 15.24-16.07m-23.78 7.32c-.28-.69-.5-.13-.5 1.25s.22 1.94.5 1.25.28-1.81 0-2.5m146.78-23.22c-.46-12.97-1.08-20.29-1.67-19.7-.6.6-.54 7.51.14 18.59.6 9.71 1.09 18.83 1.09 20.28 0 1.45.26 2.37.58 2.05.32-.32.26-9.87-.14-21.22m-30.44-.07c0-12.43-.4-21.02-1.01-21.75-3.01-3.58-6.04-9.13-5.61-10.26.27-.71 1.5-1.44 2.73-1.62 1.23-.18 2.44-.96 2.7-1.74.32-.98-.05-1.21-1.23-.76-.92.36-1.45.28-1.17-.18.28-.45-1.07-1.57-2.99-2.49-4.27-2.04-5.58-2.09-2.98-.13 1.31.99 1.49 1.47.55 1.47-2.54 0-15.4-9.3-22.04-15.95-5.23-5.22-7.03-7.87-8.89-13.05-2.41-6.7-7.56-16.57-9.16-17.56-.49-.31-.9-1.39-.9-2.42 0-1.02-.49-2.02-1.08-2.21-1.57-.53-2.66-15.97-1.69-24.22.92-7.95 6.87-21.08 14.37-31.74 6.94-9.85 29.43-28.19 32.36-26.38.6.38.77-.01.41-.94-.48-1.26.05-1.52 2.66-1.3 2.78.23 3.39-.14 4.22-2.56 1.34-3.91-.84-11.67-3.27-11.67-1.96 0-3.7-3.26-2.04-3.81.58-.2.8-1.38.49-2.63-.4-1.59.2-3.15 2.02-5.17l2.6-2.89-2.16 3.81c-2.93 5.18-1.72 6.26 5.26 4.71 2.94-.66 12.21-1.45 20.6-1.75l15.25-.56 3-4.53c1.65-2.49 3.05-5.01 3.11-5.6.31-3.03-.41-6.48-2.1-10.08-1.04-2.2-2.43-5.49-3.09-7.31l-1.21-3.31-3.81 3.72c-2.1 2.05-4.09 4.99-4.43 6.55-.7 3.17-2.08 3.94-15.97 8.81-4.95 1.74-10.12 3.86-11.5 4.72-2.5 1.56-2.5 1.56-.5-.43 1.1-1.09 5.48-3.23 9.73-4.75 10.3-3.67 10.87-4.49 6.64-9.41-1.85-2.15-4.1-4.96-5-6.24l-1.63-2.33-4.87 1.74c-3.07 1.1-7.76 1.75-12.68 1.74-8.42 0-15.25 2.39-20.94 7.34-3.1 2.7-3.43 3.66-1.25 3.66 2.34 0 1.76 3.53-1.15 6.99-2.15 2.56-3.14 3.03-5.24 2.5-3.31-.83-5.11-2.33-5.11-4.25 0-1.64 3.91-5.54 6.08-6.06 1.9-.45 10.92-7.18 10.92-8.15 0-.44-1.1-1.01-2.44-1.26-1.87-.36-3.35.46-6.25 3.45-2.1 2.16-6.84 6.42-10.55 9.46-3.71 3.05-8.92 8.3-11.58 11.68-2.65 3.38-6.89 7.72-9.41 9.64-2.52 1.92-5.64 5.22-6.93 7.31-1.5 2.44-3.32 4.02-5.06 4.37-3.19.65-4.36 3.37-2.75 6.38 1.67 3.11.43 6.45-3.27 8.82l-3.26 2.09 2.93.01c4.03.03 9.57-2.11 9.57-3.68 0-.88 1.36-1.26 4.25-1.16 2.44.07 3.26.32 1.93.58-1.28.24-3.85 1.47-5.72 2.74-4.68 3.18-11.31 4.05-16 2.09-4.75-1.99-4.51-2.08-4.21 1.7.23 2.94-.04 3.28-2.75 3.58-1.65.19-3.68.93-4.5 1.66-.82.73-3.05 1.48-4.94 1.67-3.18.32-3.5.09-4.34-3.16l-.91-3.49-1.34 2.56c-2.29 4.38.27 11.86 4.09 11.91.59.01 2.39 1.48 4 3.27 2.3 2.53 2.39 2.78.44 1.12-4.96-4.2-6.96-4.75-9.34-2.56-2.45 2.24-4.91 2.87-15.94 4.11-8.47.94-13.73 3.61-15.71 7.96-1.65 3.62-.02 4.61 5.37 3.26 7.35-1.86 28.02-1.09 37.96 1.41 1.89.47 2.59.18 2.95-1.21.38-1.47.5-1.38.59.44.07 1.26.68 2.45 1.37 2.66 5 1.49 4.84 1.11 2.65 6.06-1.12 2.53-1.87 5.09-1.67 5.7.21.61 3.35 2.73 6.99 4.72 7.3 3.98 14.75 10.58 20.7 18.35 1.2 1.56 1.15 1.69-.42 1.09-1.26-.48-1.64-.27-1.3.73.29.86 1.51 1.29 3.14 1.09 1.83-.22 2.66.14 2.66 1.17 0 .81-.56 1.68-1.25 1.93-.73.26-.88.82-.36 1.33.51.52 1.07.37 1.33-.36.77-2.17 2.1-1.36 2.76 1.68 1.64 7.43 1.86 10.29 1.61 20.76l-.27 11.18 4.11 1.11c2.27.61 4.49.88 4.95.59.46-.28 2.01.04 3.43.71 1.94.91 2.67 2.09 2.89 4.69.28 3.2.67 3.58 4.91 4.77 2.54.71 5.38 2.14 6.31 3.17 1.43 1.58.94 1.5-3.03-.52-5.77-2.92-7.41-2.96-14.4-.33-3.02 1.14-7.65 2.79-10.29 3.67-6.33 2.12-9.91 6.32-9.5 11.16.24 2.94.67 3.57 2.3 3.37 1.1-.13 11.47-.25 23.05-.27 17.32-.03 21.62.25 24.25 1.56 3.1 1.55 4.29 3.45 2.15 3.45-1.42 0-3.95 6.25-3.95 9.75 0 2.15 1.69 4.5 7.25 10.07 7.15 7.15 9.53 9.13 11 9.16.41.01.75-9.22.75-20.52m-6.65 18c-.33-.85-.81-1.33-1.07-1.07-.27.26-.18.96.18 1.54.98 1.6 1.56 1.29.89-.47m34.15-.71c-.3-1.24-.69-6.2-.88-11.03-.38-9.74-1.62-13.21-1.62-4.53 0 8.22 1.16 17.81 2.16 17.81.48 0 .64-1.01.34-2.25M325.04 317l-.84-3.5-.1 4.45c-.06 2.77.25 4.09.83 3.5.55-.56.59-2.4.11-4.45m3.67-1.25c-.24-1.24-.44-.23-.44 2.25s.2 3.49.44 2.25c.23-1.24.23-3.26 0-4.5m66.06-43.32c6.18-1.79 7.64-3.63 3.4-4.25-1.32-.19-2.17-1.04-2.17-2.14 0-1.19-1.39-2.38-4.02-3.43-2.21-.89-4.22-1.61-4.45-1.61-.24 0-.73 1.54-1.08 3.43-.36 1.89-1.28 3.67-2.05 3.97-.77.3-1.4 1.36-1.4 2.37s-.4 2.26-.89 2.78-1.19 1.94-1.55 3.16l-.67 2.21 4.31-2.34c2.36-1.28 7.12-3.15 10.57-4.15m-52.75.11c0-.57.39-.44.85.29.48.74 2.08 1.18 3.64 1 2.41-.28 3.05-1.09 4.62-5.83 1.92-5.81 2.45-9.47 1.07-7.29-.96 1.51-5.2.53-5.2-1.2 0-.7.59-1.75 1.31-2.35.76-.63 1.22-2.79 1.1-5.14-.15-3.1.25-4.3 1.69-5.08 1.68-.89 1.9-.64 1.9 2.19 0 4.07.78 3.35 1.53-1.42.68-4.28-.61-7.19-3.21-7.2-1-.01-1.82-.69-1.82-1.51 0-.82-.45-1.83-1-2.23-1.61-1.19-5.29-.88-5.84.48-.28.69-.54.21-.58-1.06-.05-1.29-.53-2.03-1.1-1.68-.56.35-.77 1.02-.47 1.5.68 1.1-1.74 8.99-2.75 8.99-.42 0-.76-2.03-.76-4.5 0-5.19-1.39-5.71-7.47-2.81-3.27 1.56-4.03 2.83-3.6 6.08.09.69-.4 1.14-1.08 1-.92-.2-1.2 1.69-1.07 7.23.13 5.19-.09 6.88-.73 5.5-.9-1.98-.91-1.97-.98.07-.04 1.14.94 3.02 2.18 4.18 3.57 3.35 4.33 4.61 4.05 6.75-.15 1.1-.01 1.45.29.78.42-.93 1.16-.84 2.98.36 1.95 1.28 2.44 1.32 2.5.23.11-1.93.75-4.88 1.83-8.37l.93-3 .08 3.11c.23 8.04 1.27 11.96 3.2 11.96 1.04 0 1.9-.46 1.91-1.03m162.91-6.95c.85-1.03.87-1.6.05-2.1-.61-.38-1.38-.42-1.71-.09-.33.33.01.6.75.6.88 0 .68.52-.58 1.47-1.07.81-1.43 1.48-.81 1.5.62.02 1.65-.6 2.3-1.38M455 262.56c0-.24-.45-.72-1-1.06-.55-.34-1-.14-1 .44 0 .58.45 1.06 1 1.06s1-.2 1-.44m19.34-8.73c.65-2.5-.05-4.13-1.41-3.29-1.18.73-1.22 5.46-.05 5.46.49 0 1.14-.98 1.46-2.17m-.13-8.83c-.24-1.65 0-3 .54-3 .53 0 .74-1.22.45-2.72-.46-2.45-.6-2.52-1.29-.75-.69 1.77-.78 1.72-.92-.53-.08-1.38-.37-1.94-.65-1.25-.32.78-1.5 1.03-3.17.67l-2.67-.58 2.13 1.83c1.71 1.46 2.1 2.86 1.99 6.95-.14 4.96-.08 5.07 1.95 3.74 1.56-1.02 1.97-2.12 1.64-4.36m12.79 1.06c0-1.35-1.82-2.29-3.02-1.55-.56.35-.75 1.05-.44 1.56.75 1.21 3.46 1.21 3.46-.01M469.5 241c.34-.55.14-1-.44-1-.58 0-1.06.45-1.06 1s.2 1 .44 1 .72-.45 1.06-1m66.12-26.5c2.64-12.86 2.59-29.13-.09-34.5-.69-1.38-1.55-3.74-1.91-5.25-.44-1.85-1.3-2.75-2.64-2.75-2.07 0-2.35 1-1.35 4.74.33 1.23 1 1.99 1.48 1.69.49-.3.89-.07.89.51 0 .58-.45 1.06-1 1.06s-1 1.57-1 3.5c0 2.44-.45 3.5-1.5 3.5-1.22 0-1.5 1.64-1.5 8.76 0 4.81-.43 10.25-.96 12.09-.83 2.9-.63 3.68 1.52 5.99 1.36 1.46 3.03 4.17 3.7 6.01l1.21 3.35 1.37-3.35c.75-1.84 1.55-4.25 1.78-5.35m-12.92-17.12c.06-4.82-.32-6.47-1.8-7.73-1.75-1.51-1.97-1.42-3.41 1.37-.85 1.64-1.87 2.98-2.27 2.98-.39 0-.82 1.37-.93 3.04-.17 2.38.3 3.23 2.15 3.94 1.52.58 2.62 2.03 3.07 4.05l.69 3.14 1.21-2.33c.67-1.29 1.25-5.09 1.29-8.46m-345.81 6.28c4.12-1.24 4.48-1.64 6.08-6.8.94-3.02 2.51-6.86 3.5-8.54 1.33-2.24 1.62-4.03 1.11-6.74-.6-3.22-.96-3.59-2.88-2.98-5.66 1.79-15.37 9.62-19.96 16.09-5.2 7.33-5.08 8.71.76 8.71 1.93 0 3.5.36 3.5.8 0 1.16 2.86.96 7.89-.54M260 173c-.59-1.1-1.5-2-2.04-2-1.41 0-1.17 2.75.29 3.34 2.4.96 2.81.65 1.75-1.34m13.92-16.46c3.66-1.89 9.86-9.34 14.62-17.54 4.54-7.84 12.69-16.23 14.92-15.38.84.33 1.54.07 1.54-.57 0-.64-.45-.89-1-.55-.55.34-1 .16-1-.41 0-.56 1.19-1.65 2.64-2.41 1.77-.93 2.25-1.63 1.46-2.12-.65-.4-1.86-.17-2.69.51-1.07.89-1.8.94-2.57.17-.77-.77-.47-1.45 1.04-2.4 1.17-.73 2.12-1.74 2.12-2.25s.74-1.76 1.65-2.76c1.57-1.73 1.52-1.83-.93-1.83-1.71 0-3.28.98-4.64 2.89-2.68 3.76-16.1 12.11-19.46 12.11-1.55 0-3.11.83-3.86 2.05-.69 1.12-4.45 4.21-8.34 6.86-3.9 2.65-7.95 5.55-9 6.44-1.06.88-2.78 2.23-3.82 2.98-1.86 1.33-1.85 1.42.25 3.52 1.18 1.18 2.15 2.6 2.15 3.15 0 .55 1.3 1 2.89 1 2.22 0 3.03-.56 3.5-2.41.52-2.08.99-2.32 3.36-1.68 2.63.7 4.56 4.09 2.32 4.09-.59 0-1.07 1.8-1.07 4 0 4.52.05 4.54 3.92 2.54m64.24-11.79c2.39-2.89 4.68-5.4 5.09-5.58.41-.19.75-.8.75-1.36 0-1.21-4.05-.34-8.75 1.88-3.97 1.88-4.21 3.16-.5 2.68 2.38-.31 2.31-.21-.5.67-2.43.76-3.25 1.6-3.25 3.32 0 2.35.74 3.64 2.07 3.64.41 0 2.7-2.36 5.09-5.25m6.59.26c.72 0 1.25-1.28 1.25-3.01 0-3.95-1.16-3.78-4.56.66l-2.79 3.66 2.43-.64c1.33-.36 2.98-.66 3.67-.67M240 142.5c1.38-.79 4.13-1.45 6.12-1.46 1.98-.02 4.68-.88 6-1.9 1.31-1.03 4.18-2.79 6.38-3.93 2.2-1.14 6.21-4.03 8.91-6.43l4.91-4.37-3.91-.13c-2.6-.08-4.6.52-5.97 1.8-1.85 1.71-2.68 1.81-7.68.88-5.44-1-5.7-.95-8.44 1.77-5.22 5.2-12.32 13.48-12.32 14.38 0 1.33 3.17 1.01 6-.61m-7.25-28.49c2.34 0 4.25-.39 4.25-.85 0-.76-9.03-6.16-10.29-6.16-.57 0-2.71 5.73-2.71 7.27 0 .53 1.01.69 2.25.36 1.24-.33 4.16-.61 6.5-.62m134.71-3.46c7.31-1.9 7.4-1.98 6.63-5.78-.51-2.5-1.68-3.83-4.92-5.62-4.45-2.45-9.17-2.34-9.17.22 0 .73-.68 2.69-1.52 4.36-1.13 2.27-1.26 3.72-.52 5.66 1.15 3.02 1.98 3.12 9.5 1.16m13.04.45c.34-.55.14-1-.44-1-.58 0-1.06.45-1.06 1s.2 1 .44 1 .72-.45 1.06-1m3.41-5.05c1.87-.44 4.56-1.97 5.97-3.38 2.36-2.35 2.41-2.57.6-2.54-1.09.02-2.85.69-3.92 1.5-1.07.81-3.09 1.47-4.5 1.48-1.77 0-2.93.8-3.76 2.58-1.06 2.29-1 2.5.5 1.88.94-.38 3.23-1.07 5.11-1.52m-164.27-1.45c-.82-.83-2.03-1.5-2.69-1.5-.9 0-.89.37.05 1.5.68.83 1.9 1.5 2.69 1.5 1.25 0 1.24-.21-.05-1.5M399.6 92.85c1.89-2.13 1.88-2.13-.29-.99-2.44 1.27-3.93 3.14-2.52 3.14.49 0 1.76-.97 2.81-2.15M469 87c0-.55-.48-1-1.06-1-.58 0-.78.45-.44 1s.82 1 1.06 1c.24 0 .44-.45.44-1m-4.77-4.4c-.95-1.88-1.89-2.96-2.1-2.41-.45 1.25 1.92 5.81 3.02 5.81.44 0 .03-1.53-.92-3.4m14.08-1.53c2.84-2.71 4.92-5.17 4.62-5.47-.67-.67-16.12 2.34-17.23 3.36-.93.86 4.57 7.04 6.28 7.04.64 0 3.49-2.22 6.33-4.93m-47.06 419.27c-1.77-.72-1.55-4.84.33-6.41 1.15-.95 2.05-1.03 3.25-.26 2.39 1.5 2.68 4.48.59 6.01-1.92 1.4-2.21 1.45-4.17.66M402.32 481c0-3.57.18-5.04.4-3.25.23 1.79.23 4.71 0 6.5-.22 1.79-.4.32-.4-3.25m2.68-2.61c0-4.8.18-8.54.4-8.31.89.92 1.35 15.95.51 16.48-.52.32-.91-3.2-.91-8.17m3.68 7.9c-.3-.49-.18-1.47.26-2.19.62-1 .99-1.03 1.55-.12.4.66.29 1.64-.26 2.19-.56.56-1.25.61-1.55.12m51.34-5.04c-.01-3.51.42-6.25.98-6.25 1.28 0 1.28 9.02 0 11-.68 1.06-.97-.35-.98-4.75m-129.2 4.23c-.33-.33-.37-1.49-.08-2.59.7-2.7 4.76-2.18 4.76.61 0 1.93-3.33 3.34-4.68 1.98m51.14-6.73c-.03-3.44-.63-10.07-1.34-14.75-1.32-8.66-1.27-10.09.3-8.43 1.72 1.82 3.79 29.43 2.2 29.43-.7 0-1.14-2.33-1.16-6.25M378 480c0-.55.45-1 1-1s1 .45 1 1-.45 1-1 1-1-.45-1-1m31.16-1c0-1.38.22-1.94.5-1.25s.28 1.81 0 2.5-.5.13-.5-1.25m3.92.42c.05-1.17.28-1.41.6-.61.29.72.26 1.59-.08 1.92-.33.33-.56-.26-.52-1.31M376.6 459.7c-.46-2.08-.56-4.07-.22-4.41 1.19-1.2 1.75.54 1.4 4.36l-.35 3.85-.83-3.8m115.4-.14c0-.86.45-1.56 1-1.56s1 .42 1 .94-.45 1.22-1 1.56c-.55.34-1-.08-1-.94m-220.61-14.99c-1-2.59.4-4.74 2.86-4.39 1.65.23 2.25.99 2.25 2.82 0 1.83-.6 2.59-2.25 2.82-1.36.19-2.5-.31-2.86-1.25M211 442c0-1.11.67-2 1.5-2s1.5.89 1.5 2c0 1.11-.67 2-1.5 2s-1.5-.89-1.5-2m104.19.26c.5-2.61 3.81-2.9 3.81-.33 0 1.43-.64 2.07-2.07 2.07-1.43 0-1.97-.54-1.74-1.74m188.88-35.16c-1.14-1.6-2.07-3.93-2.07-5.18 0-1.24-.79-3.18-1.75-4.3-1.74-2.03-1.74-2.03 1.03-.29 3.12 1.97 4.72 1.49 4.72-1.39 0-1.07.56-1.95 1.25-1.95.69-.01 2.21-.27 3.38-.59 1.63-.44 2.78.27 4.85 2.99 2.49 3.26 2.58 3.69 1.12 5.15-.88.88-1.6 2.31-1.6 3.16 0 2.19-3.86 5.3-6.58 5.3-1.38 0-3.1-1.15-4.35-2.9m35.62-3.75c-1.38-1.37-.66-3.49 1.06-3.16.96.19 1.75.97 1.75 1.74 0 1.58-1.76 2.47-2.81 1.42M487 398.44c0-3.47.38-4.31 2.16-4.77 2.01-.53 2.05-.72.63-2.87-1.02-1.54-2.69-2.4-5.08-2.61-3.97-.34-6.24-2.36-5.33-4.73.46-1.2 1.42-1.4 4.21-.88 3.43.65 3.56.57 2.52-1.38-1.72-3.22-1.32-7.7.87-9.68 1.77-1.6 2.46-1.66 6.57-.5 2.53.7 5.22 2.23 5.97 3.38 2.15 3.3 3.91 11.07 2.99 13.2-.75 1.74-.85 1.76-1.24.15-.51-2.13-4.27-2.35-4.27-.25 0 .82.76 1.5 1.7 1.5 1.15 0 1.37.33.69 1.01-.69.69-2.07.65-4.25-.11-4.53-1.58-5.05-.39-1.31 2.95 1.74 1.55 3.17 3.51 3.17 4.33 0 2.24-3.06 4.52-6.75 5.03-3.22.44-3.25.41-3.25-3.77m32 2.06c0-.82.38-1.5.85-1.5.46 0 1.55-1.8 2.42-4 1.53-3.9 3.73-5.42 3.73-2.58 0 2.39-1.16 4.6-2.1 4.02-.5-.31-.9-.08-.9.5s.45 1.06 1 1.06c1.91 0 .99 1.68-1.55 2.84-3.25 1.48-3.45 1.46-3.45-.34m-62.82-7.72c-.65-.65-1.18-1.57-1.18-2.05 0-.48.73-.14 1.62.75.89.89 1.42 1.81 1.18 2.05-.24.24-.97-.1-1.62-.75m-172-22.02c.47-3.32 3.82-3.62 3.82-.33 0 1.93-.51 2.57-2.07 2.57-1.57 0-1.99-.54-1.75-2.24M317.16 350c-.14-.27-.5-5-.82-10.5-.42-7.53-.28-9.73.59-8.91.76.72 1.04 4.29.82 10.5-.19 5.18-.45 9.18-.59 8.91m144.34-20c.34-.55.82-1 1.06-1 .24 0 .44.45.44 1s-.48 1-1.06 1c-.58 0-.78-.45-.44-1m26.5-3c0-.55.45-1 1-1s1 .45 1 1-.45 1-1 1-1-.45-1-1m-2.92-1.58c.05-1.17.28-1.41.6-.61.29.72.26 1.59-.08 1.92-.33.33-.56-.26-.52-1.31m6.92.58c0-.55.45-1 1-1s1 .45 1 1-.45 1-1 1-1-.45-1-1m-42.5-3c-.34-.55-.14-1 .44-1 .58 0 1.06.45 1.06 1s-.2 1-.44 1-.72-.45-1.06-1m42.58-6.58c.05-1.17.28-1.41.6-.61.29.72.26 1.59-.08 1.92-.33.33-.56-.26-.52-1.31M163.2 281.8c-1.93-1.93-1.44-5.59.85-6.32 2.38-.75 4.95 1.03 4.95 3.44 0 1.91-1.86 4.08-3.5 4.08-.6 0-1.64-.54-2.3-1.2M141 262.08c0-1.05-.24-2.53-.52-3.28-.29-.76.44-2.41 1.62-3.68 1.94-2.08 2.3-2.15 3.69-.75 1.4 1.39 1.37 1.94-.27 5.59-1.9 4.21-4.52 5.44-4.52 2.12m29.7-108.74 1.75-2.67-2.67.67c-1.47.37-3.78.16-5.13-.45-2-.92-2.54-2-2.85-5.76-.24-2.91.1-5.12.91-5.95.71-.73 1.29-2.42 1.29-3.75 0-1.72.56-2.43 1.89-2.43 1.99 0 3.11 1.84 3.11 5.11 0 1.08.63 2.2 1.41 2.49.78.3 1.68 1.64 2.02 2.97.63 2.51 2.56 3.39 2.59 1.18.01-.86.3-.79.93.2.5.8.71 1.79.46 2.2-.25.41 1.24 1.94 3.31 3.4l3.78 2.66-4.32-.63c-3.1-.45-4.13-.31-3.63.51.88 1.41-1.31 2.87-4.32 2.89-2.24.02-2.24-.03-.53-2.64m-35.14-.76c2.55-1.86 1.53-2.7-4.04-3.33-3.46-.39-5.03-.09-6.48 1.22-1.79 1.61-2.24 1.62-6.73.13-8.46-2.82-19.31-11.8-19.31-15.98 0-3.53 3.01-1.49 8.7 5.9 2.26 2.92 4.28 4.33 7.47 5.18 6.5 1.74 14.83 2.68 14.83 1.68 0-.49 3.15-.98 7-1.09 5.64-.17 7 .08 7 1.28 0 .82-.79 1.78-1.75 2.12-.96.35-2.94 1.46-4.4 2.47-3.1 2.14-5.17 2.52-2.29.42m21.13-20.66c-.33-1.26.17-2.31 1.4-2.97 1.64-.87 1.91-.67 1.91 1.41 0 3.03-2.61 4.25-3.31 1.56m73.46.53c.19-.98.96-1.99 1.7-2.23.86-.29 1.22.19 1 1.33-.19.98-.96 1.99-1.7 2.23-.86.29-1.22-.19-1-1.33m-76.96-27.5c-2.51-1.01-2.06-3.18.57-2.73 1.12.2 1.84-.77 2.34-3.17.4-1.9 1.56-4.06 2.56-4.8 1.62-1.18 2.12-1.03 4.09 1.26 2.69 3.11 2.92 7.26.5 9.1-2.01 1.53-6.7 1.68-10.06.34m-38.38-9.63c.72-.29 1.59-.26 1.92.08.33.33-.26.56-1.31.52-1.17-.05-1.41-.28-.61-.6M195 95c1.96-1.27 3.28-1.27 2.5 0-.34.55-1.38.99-2.31.98-1.46-.01-1.48-.14-.19-.98m119-5c0-2.09.43-3.02 1.25-2.75.69.23 1.25 1.47 1.25 2.75s-.56 2.52-1.25 2.75c-.82.27-1.25-.66-1.25-2.75m28.36-7.5c-1.13-2.95.53-6.5 3.05-6.5 2.4 0 3.59 1.65 3.59 4.97 0 2.98-5.59 4.27-6.64 1.53M335 330c0-.55.45-1 1-1s1 .45 1 1-.45 1-1 1-1-.45-1-1m84.64-42.5c.31-.82.75-1.5.97-1.5.21 0 .39.68.39 1.5s-.44 1.5-.97 1.5-.71-.68-.39-1.5m-26.96-146.25c-1.25-1.25-1.96-1.42-2.47-.59-.4.65-1.9.93-3.42.64-2.39-.46-2.54-.69-1.24-1.99 1.87-1.87.87-3.58-1.63-2.78-1.36.43-1.92.13-1.92-1.03 0-2.72 1.96-5.5 3.88-5.5 2.63 0 5.12-3.21 5.12-6.58 0-3.86 3.38-12.62 5.34-13.87 2.46-1.55 3.18.21 1.07 2.61-1.8 2.05-1.81 2.14-.08 1.51 1.01-.37 2.25-.67 2.75-.67.51 0 .92-.61.92-1.37 0-1.97 7.99-.36 9.69 1.96 1.43 1.95 1.77 5.41.54 5.41-.63 0-3.19 9.91-4.81 18.63-.44 2.36-5.83 5.37-9.61 5.37-1.31 0-3.17-.79-4.13-1.75m13-7.44c-.32-.8-.55-.56-.6.61-.04 1.05.19 1.64.52 1.31.34-.33.37-1.2.08-1.92m.05-7.41c-.33-.34-1.2-.37-1.92-.08-.8.32-.56.55.61.6 1.05.04 1.64-.19 1.31-.52M408 123c0-.55-.45-1-1-1s-1 .45-1 1 .45 1 1 1 1-.45 1-1m-69 147c0-1.1.45-2 1-2s1 .9 1 2-.45 2-1 2-1-.9-1-2m4.51-5.99c-.35-.57.05-.73.94-.39 1.73.66 2.05 1.38.61 1.38-.52 0-1.22-.44-1.55-.99M344 251c0-.55.48-1 1.06-1 .58 0 .78.45.44 1s-.82 1-1.06 1c-.24 0-.44-.45-.44-1Z"/></svg>