<svg xmlns="http://www.w3.org/2000/svg" width="564" height="627" viewBox="0 0 564 627"><path d="m370 605-1-6-1-8c0-4-1-4-3-4l-2-1v-1h-2c-2-4-4-31-4-51 0-14 0-20-1-19-1 2-9 4-9 2h-6c-2 4-10 2-10-2 0-2-1-2-3-1l-1 35a3683 3683 0 0 0 0 44c0 9-2 9-3 1l-1-5-9-1-10-1-1-8c-1-7 0-8 6-9 5-1 7-3 2-3-3 0-5-2-5-4l-2-2c-2 0-2 1-1 4l-2 5-3 2a585 585 0 0 1-26 0c-4 1-4 1-6-1h-2l-7 1h-8v7c0 5-1 9-2 9l-7 1-8 2h-5c-5-2-6-2-6-8l-1-7v9c0 10 0 11-2 13-1 2-3 3-5 2-2 0-2-1-2-5l-2-63v-18l-6-2c-12-2-13-2-19-1h-15l-4 1c-2 0-2 0-2 6 0 4 0 6 1 5 1-4 2 4 3 35 0 30 0 36-2 34-1-1-2-10-2-29-1-43-2-51-4-53-2-1-2-1-2 41l-1 42a17693 17693 0 0 0-1-98l-1-29-4-1c-4-2-4-2-6 0s-5 1-8-3c-1-1-2-2-3-1l-4 1h-5l-3-1c-3-3-3-3-9-3-4 0-5 0-5-2s0-2-2-1-3 1-4-1c-2-1-3-2-4-1l-3-3c-2-2-2-2-5-2-3 1-5 0-7-1-4-2-5-3-3-5 1-1 1-1-1-2l-3-2-1-2c1-3-7-11-12-12-4 0-5-1-5-3-1-3-6-9-8-9-6 0-23-15-28-24-6-12-8-22-8-32-1-7 1-7 2-1 1 5 3 9 11 20 8 10 11 12 11 8 0-1 1-3 4-4s6 0 8 3c2 2 2 2 4 1 3-3 8-1 9 3l3 6 1 3h8c8 0 8-1 5-5l-2-6c0-2-1-4-3-5s-2-1 1-3c5-3 8-3 9 0l1 2 1-2c-1-3 3-7 5-6l1 5c-1 4 0 5 1 5l2 2c2 2 2 2 5-2 3-3 3-3 3-1l-1 6-1 4-1 1-1 1h2c2-1 3-2 4-7v-7l-1-5c-1-4-1-4 1-3 2 0 2 0 2-2s1-2 3-2l3-1c2-2 3-1 3 2-1 2-1 2 2 2s3 0 1 2c-2 1-2 2-1 4l4 3 4 2c2 2 3 1 4-3s0-7-3-8v-2c1-2 1-4-2-4-2 0-1-1 1-4 3-4 4-5 7-5s3-1-1-6c-3-3-6-9-6-11l13 12 3 2-5-8-5-6 4 4 5 4h1l1 3c2 3 4 8 4 11 0 2-2 1-6-2-3-3-3-3-5-1s-2 2 0 4c3 4 7 5 11 5 4-1 4-1 3 1 0 2 0 2 3-1l4-3 11-12c22-24 25-26 27-25 3 1 5 0 5-1l-3-1c-2 0-2 0-2-6 0-7 1-10 3-6l2 3 2 1c3 1 1-9-3-22-6-16-6-17-2-19 3-1 3-1 6 2 6 6 6 6 13 1 3-2 3-2 5-1 3 3 3 6 1 6v1c1 1 1 1-1 4l-2 5c0 2 1 1 2-2 4-8 15-11 25-6l8 2c5 2 8 9 7 15a285 285 0 0 0-1 11c-1 2 8 2 21 1l23-1c5 0 7 0 9 2l2 2v-15l-1-23v-8l-5-1-4-3-1-1-2-2c-1-2-3-1-3 2-1 2-1 2-3 1l-3-3v-2l-2-3h-3c-2 3-4 2-7-2-2-3-4-4-5-4l-3-1v-2l-1-1-4-1c-3-1-3-1-5 1h-1l-2-5c-2-3-3-3-6-3-2 1-3 0-4-1-1-2-2-2-4 0-2 1-2 1-4-2-3-8-3-8-6-8l-4 2c-2 2-4-1-3-4 0-2 0-3-2-4-2-2-3-2-5-1-1 2-2 2-4-1-3-4-6-5-8-4-3 2-6-1-4-4 0-3 0-4-2-3-2 0-3-3-1-4v-2c-4-1-7-4-8-5l3-1h4c2-2 1-4-2-4-3-1-7-5-5-7l4-2c3-1 3-2 0-3l-6-3-3-4c-1-1-2-3-1-4l-1-2-3 2-3 2c0 2-1 2-1 1-1-1 0-8 1-12 1-2 1-2-1-2l-7-2-5-1c-3 0-12-7-14-10-1-2-3-6-6-8l-6-9c-2-6-2-23 1-23l1 6 1 9c2 5 12 14 19 17 11 5 12 6 15 2 2-3 4-4 8-1h11c2 1 2 1 3-2l3-5c2-1 2-1 5 2s3 4 2 6l-1 4h16l-1-1-3-6-5-5c-2 0-1-2 2-4 3-3 3-3 5-2l3 4c0 3 4 7 5 6v-6c1-4 0-5-1-4-1 2-2-1-1-3 2-4 6-2 7 3 2 6 3 8 5 7 1-1 1-1 1 3 0 3 0 4 2 3 3 0 4-3 3-7 0-3-1-4-2-3-2 0-4-3-4-6 0-2 8-8 10-8l3-2 3-2c1 0 1 1-1 4-2 4-1 6 3 6l6 2c2 1 3 5 0 5l-1 1h3c2-1 3-1 2 1s3 2 11-2c8-3 9-4 11-6 2-1 2-1 1-2h-4l-2 2c-4 1-11 5-13 7l-2 2v-2c1-4-2-8-5-8-2 0-2-4 0-7l2-4 3-3c3-1 4-2 5-4 1-6 6-4 6 4 0 2 0 2-2 1-2-2-5-2-5 0l2 1c2 0 3 0 4 2 1 4 3 4 7 4s6-1 10-4l5-4 1-1 12-8 3-2c2-2 3-2 3-12V74h3c4 0 5-2 2-4v-3c1-2 1-4-2-20V37c1-1 2 0 3 3l2 6c-1 1-1 0-1-2l-3-4h-1c4 8 5 13 5 19 0 5 0 6 2 6 3 1 3 0 1-2l-2-15 1-5c0-3 0-5-1-4l-1-2-1-4 1-1 3 5c1 4 1 4 1 1 0-5 1-7 4-7l3 1h2c4 0 7 3 7 8 0 7 0 9-3 18s-4 15-2 15c2 2 14-8 12-10l1-1 1-2 2-5v-6c-3 0-5-6-5-12 0-4 0-5 3-8 4-4 7-6 12-6 6 0 18 4 22 8l3 3-2 7-2 8-2 7c-1 4-1 5 1 6l1 4c0 3-1 3-3 3l-2 1 10 1h32a3284 3284 0 0 1 68 2c-22 1-24 1-23 2v1c-1 1-1 1 1 1 2-1 2 0 1 2 0 3 0 3 3 3h4l-3 2c-6 0-4 0 10 2a321 321 0 0 0 57 3l5 3h-1c-3-1-4-1-5 1-2 3-3 3-3 0 1-2-1-3-6-3l-5 2c1 1 0 4-1 6-3 6-7 19-6 20l-1 5a1208 1208 0 0 0-5 14c1 3 1 3-1 4-2 0-4 5-4 9l-1 2-1 2v9c2 0 3-1 2-3-1-1-1-1 0 0h10l4-12a925 925 0 0 1 11-39v-3l1-4v-8l-1-3 3 4c3 6 3 7-6 33l-9 30c1-1 2-1 2 1v1l1 11v1c-2 1 0 3 3 3h3l-3-1c-2 0-2 0-1-4l1-4 7-18c5-14 6-17 4-19-3-2-5 0-9 10-2 5-2 3 0-3 3-7 3-8 5-8l1-2 4-4c2-2 2-2 3-1s1 1 1-2v-7l2-11c1-7 2-8 3-2s-3 24-12 50l-4 11h4c4 1 5 0 4-2v-5c3-7 4-10 4-15l2-6v-2l1-2c1 1 2 0 2-10 1-13 3-17 3-5l-2 18a17088 17088 0 0 0-13 62l-4 1h-2c-2 0-2 0 0 1h10l3-2 1 3c0 4-3 9-5 9l-2 1h3l3 1-3 1c-5 0-6 1-5 4l2 2 1-2c2-2 2-2 3-1 1 3 2 2 4 0 1-2 1-2 2 1 1 2 2 4 1 5v7c-2 2-2 6 0 8l1 3c-1 2 0 5 1 7 2 6 1 12-2 9l-3 1c-1 1-1 1 1 1 3 0 5 1 5 4 1 3 1 3-1 3-3-1-3-1-1 2l1 8c-1 5 0 7 1 8s2 3 1 4v10l-1 14c-1 5-1 6-6 7-3 2-7 2-16 2-10 0-11 1-11 2 0 2 1 3 9 3l12 1h-8c-6 0-11 0-10 1 2 0 2 1 2 2-1 3 0 3 3 2 3 0 3 0 4 2 0 2 1 3 2 3 1-1 2 4 0 4l-1 3c0 3-4 3-6 0-1-2-2 0-2 5 0 4 0 5-2 6l-2 5c0 3 0 3 3 3l17-1-3 1h3c3 1 4 2 5 4l1 2v8c1 4 2 6 1 8v3l-3 3c-5 2-7 3-5 1 4-3 6-11 3-10-1 1-2 0-1-1 0-1 2-1 4 1h1l-1-4h-6c-2 0-3 0-2 1h3l1 1-4 1-6 1c-3 1-4 2-4 4l1 3 1-1 1-4v1c-1 2-1 2 3 1 2-1 2-1 1-2h1l4 1v1h-1l-2 3v-1c0-1 0-2-1-1-2 0-2 1-1 2 1 2 0 5-2 5h-1c1 1-6 4-7 3v1c0 2 1 2 3 1l4-1v4h-1l-1 1c1 2 0 4-1 6l-2 5c1 2 3 1 3-3l3-6 2-3-1 3c-1 3 0 6 1 7v1l1 1v-2l1-1h4c1 0 2 0 2-2l-3-1c-4 1-4 1-1-2l1-2c-3 1-5-1-3-2v-4l3-1h2l1-1h1c0 2 2 1 4-2 2-5 3-5 3 0-1 5-2 6-7 6l-5 2v1l7-2c2 0 4 0 3 1-2 0-2 0 0 5 2 4 2 4 1 6h-2c1-3 0-2-1 0v1l1 1v2c2 0 4-2 4-5l1-2v2l-2 5v3c1 3 1 10-1 10l-3 3c0 2-2 3-4 3-3 0-5 2-2 2l5 2c0 2 2 3 3 3 2 0 2 1 2 26v26h-4c-4 1-5 0-5-3l-1-2-1 2c0 2 0 2-9 4l-10 1-2-1c-1-2-1-2-2 0-1 1-2 2-6 2h-27c-1-1-2-3-2-8 0-12 1-11-7-11l-11 1h-3v15l-1 15-1 2c0 2-1 2-7 3h-15a8122 8122 0 0 1-70 1l-4 1v23a732 732 0 0 1 0 71m-124-20c0-3 0-3-3-2l-6 3-4 2h13v-3m67-3c0-2-2-3-2-1l3 3-1-2m7-3c0-4 0-4-1-1l-1 5v1c1 0 2-1 2-5m48-11-1-12c0 4-1 4-1 3l-1-5v-4l2-2c2 1 1-2-1-4v-3l1-2v-12l-2 3-2 3a1415 1415 0 0 1 1 32l1 12c0 4 1 7 2 7l1-16m-128 7-1-7-1-2-1-2h-3a20 20 0 0 0-2-1l-1-2-1-1c-3 1-1 4 2 5 2 0 4 2 5 3v11c-1 1 0 1 1 1 2 0 2 0 2-5m5 1c0-5-1-5-1 0l1 4v-4m-11 0-1-1-2 1 2 1 1-1m-13-14 1-11v-11l-1-16c0-7-1-9-4-7-1 1-2 2-1 3v2c-1 1-1 2 1 3l1 3v19c0 16 1 28 2 27l1-12m11 10-1-1-1 1 2 1v-1m38-2-2-1-1 1h3m21-5c3-1 2-2-1-3-2 0-4 1-4 3h5m-45-1h-1c-1 1-1-1-1-2h-1l-1 2h4m12 0-3-1c-4 1-4 2 0 2l3-1m13 0h-3c-1 1 0 1 1 1 2 0 3 0 2-1m48-2c0-2-1-3-4-2-2 0-3 1-2 2h6m-28-6 4-1h-3c-5-1-6 0-6 3s0 3 1 1c0-2 1-3 4-3m-16 3-3-1-4 1h7m-36-4-1-1-1 2 1 1 1-2m61 1-2-1c-1 0-2 0-1 1l2 1 1-1m-45-6h-4c-1 1 0 1 2 1l2-1m8 0h-2l1 1c1 0 2 0 1-1m14 0h-8l4 1 4-1m12 0h-4l2 1c2 0 3 0 2-1m72-3-1-1-1 1v1l1-1m-116-1h-2v1l2-1m26-3h-33l5 1c6 1 28 0 28-1m90 1v-1l-1 1v1l1-1m-72-3-1-1v2c1 2 2 1 1-1m-8 0h-2v1l2-1m-44-7c-1-1-1 0-1 2 0 3 0 4 1 3v-5m34 0-1-1-1 1 2 1v-1m-24-1-1-1h-2l2 2 1-1m14-3c-1-1-1 0-1 2 0 1 0 2 1 1v-3m21-3-2-2v4c-1 2-1 2 1 1l1-3m-67-3c-1-1-1 0-1 1l1 1v-2m75 3-1-1h-2l2 1h1m78-5c-1-1-1 0-1 2 0 1 0 2 1 1v-3m-125 1 5-1h3c1-2 1-2-6-2l-7 2c0 2 1 2 5 1m27 0c1 0 2 0 1-1l-18-2 2 2c3 1 7 2 15 1m10-8v-1c1-1 0-1-3-1l-4 1h2l2 1 2 1 1-1m-8-1-9-1-11-1c-2 0-2 0-1 1l9 1a372 372 0 0 1 12 0m18 0c-1-1-6 0-6 1h3l3-1m-48-1-2-1c0-1-1-1 0 0l2 1m118-33 1-23 1 1h2l1 21c0 20 0 24 2 23a630 630 0 0 0-2-65c-2 0-2 0-2 2v5l1 4v4c1 1 1 2-1 3-1 1-1 1-1-1s0-3-1-2l-1-1-1-3 1-1h1l-1-1-1-2-2-3c-2 0-5 3-5 4v3h-1l-1-2-1-2c1-2 0-3-1-3v12l-1 6h-13v-5l-1-4 1 10 7 2 7 3 5 1c5 0 5 1 5 4a304 304 0 0 1 0 39c1 5 2-5 2-29m7 28c0-1 0-2-1-1l-1 2 1 2 1-3m-42 0-2-1c-2 0-3 1-2 2 2 1 4 1 4-1m-60-1-3-2-1-1-5-7-4-6h-7c-3 1-3 2 1 5l5 6c2 2 3 3 4 2l2 2 1 2h4c5 1 6 0 3-1m29 0h-4c-1 1-1 1 0 0 1-2 0-5-2-5l-2 2-3 1-2 1c1 2 4 3 9 3s5 0 4-2m22 1v-1l-1 1v1l1-1m1-3-11-12v1h-7l3 1 2 1c-1 2 3 5 6 5 1-1 2 0 2 1l2 3 3 2 1 1-1-3m-96 0h-1l1 2v-2m18 1-2-1-2 1 2 1 2-1m148 0h-2l1 1c1 0 2 0 1-1m44 0c-1-2-6-3-9-2s-1 3 4 3l5-1m-54-1h-2l1 1c1 0 2 0 1-1m86 0h-2l1 1c1 0 2 0 1-1m-175-4-3-2-1-1c1 1 0 2-1 3s-1 1 0 0c2 0 2 0 1 2h2l2-2m-8 0c1-2 1-2-1-1v2c0 1 1 1 1-1m108 1 2-3h-1l-9 1h-10c-2 3 15 4 18 2m-167-2-1-2c-1-1-1 0-1 1l1 3 1-2m233 1 3-1c1-1-1-1-3-1l-6-2c-1-1-1-1-1 1l-1 3h8m-50-1v-1l-1 1v1l1-1m18-5c-2-1-4 1-3 4 0 2 0 2 3-1 2-2 2-3 0-3m-146 3-1-1-1 1 2 1v-1m6-1-1-3c-1-1-2-2-3-1h-3c-3 0-3 1 0 3 2 1 6 2 7 1m96 1-2-2c-1-1-1-1 0 0 0 2 2 3 2 2m10-1c1-2-1-2-2-1v2l2-1m50 0c3-2 3-5 1-5l-3 1-2 1c-2 0-3 0-3 2s0 2 3 2l4-1m21-3-1-17c-1-1-1 1-2 7 0 7-1 9-2 9-1-1-4 3-3 3l4 1c4 0 4 0 4-3m-47 1c3-2-2-4-6-4s-5 1-5 3 0 2 5 2l6-1m-141-2-2-2 1 2c2 2 3 2 1 0m53 0-1-2c-2 0-2 1-1 3 2 1 2 1 2-1m54 0-2-1-1 1 2 1 1-1m11-1-1-3c-1-1-2-1-3 1-2 1-2 1-1 2h5m29-2-1-1-1 2 1 1 1-2m-196-3c-1-4-3-4-3 0 0 3 0 4 2 3l1-3m232 0c0-3 0-3-2-3l-3 1h-1c-2 0-2 0-2 2l3 3c4 1 4 1 5-3m40 0c-1-4-2-4-2-2 0 4 1 6 2 6v-4m-157 2-2-2c-1-1-1-1 0 0l2 2m62-3c6 0 7-1 7-2 0-2-2-3-4-3-5-2-5-2-5-8s-1-10-2-8c-1 1-2 2-1 3l-1 2v1l-1 3c0 2-1 2-5 2h-5l1 5c0 5 1 6 3 6l3 1c1 1 2 0 2-1l8-1m17-2-1-1-1 3c0 2 0 2 1 0l1-2m28 0c-1-2-1-2-3-1v4c3 1 3 1 3-3m114 3h-4l3 1c2 0 2 0 1-1m-122-2-2-3v2c0 2 0 3 2 3s2 0 0-2m69 1-5-1h-5l6 1h4m23-4c-1-1-1 0-1 1l1 1v-2m13 2h-7l3 1 4-1m-217-4c0-3 0-3-3-3h-3l-2-5-5-6c-2-4-3-4-7-4h-5l9 9 10 11c2 3 5 2 6-2m115 2-1-4c-2-1-2-1-2 1 0 3 1 5 2 5l1-2m86 1-1-1-1 1 1 1 1-1m13-1 5-1-6-1c-6 0-8 1-6 3h1l6-1m-318-2c-1-1-1 0-1 1l1 1v-2m298 2 6-2-1-11-1-8h-6c-8 0-10 1-10 4l1 5c0 2 1 2 4 2l4-1c1-1 0-1-1-1-2 0-4-5-2-6 2-2 8-1 8 1 2 3 1 11 0 13-2 1-3 2-10 2l-9-1-1-9-1-7v8l-1 10c0 2 0 2 7 2l13-1m-240-1-2-1-1 1 2 1 1-1m21-2a252 252 0 0 0-10-13l-6-5-8-1h-4l7 7 8 6 1 1c-1 4 4 6 14 8l-2-3m119 2-1-1-1 1v1l1-1m80-3-1-7v5c0 5 1 7 1 2m35-1c0-2-4-3-4-1l-1-2v-13c-2-5-3-4-3 2l2 10c0 6 0 6 3 6 2 0 3 0 3-2m-267 0h2c1 1 1 1 0 0s-2-2-3-1c-1 0-2 2 0 2l1-1m288-10v-26l-4 1c-4 0-4 3-1 3l4 1-1 1h-1l1 4c1 2 1 2-2 2-2 0-2 0-2 4l2 4 1 3-3 1c-3-1-3-1-4 2l-3 6-2 3h2l3 1 5 1h5v-11m-139 8-2 1c-1 1-1 1 0 0l2-1m27-1c0-2-1-3-3-1v3c2 2 3 1 3-2m10 0c-1-2-4 0-3 2h3v-2m106 1-1-4c-1-3-1-3-1 1l1 5 1-2m-146-5c1-2 0-3-3-2-3 0-3 1-3 4s2 5 3 2l3-4m14 3 4 1c2 1 2 1 2-1s-1-2-5-2-5 0-5 3c0 2 1 2 2 1l2-2m41 1c-1-1-1-1 0 0l1 2-1-2m37-1c-1-1-1 0-1 1l1 1v-2m-242-2c-1-1-1-1 0 0v3h1c1-1 1-1-1-3m154 0 2-1c2 0 2 1 1 2v2h1c0-4 1-5 2-5v-3c-1-3-1-5 1-5l2 2 1-4 1-6 1-2 1-1 1-1h-4v1h-1c-5-1-6-1-6 1l2 2v2l-1 7-2 5-2 1-2 3c-4 4-4 4 0 3l2-3m54 1-2-2c-1-2-3-2-6-2h-5l4 1 4 1 1 1 4 1m-86-2-1-1-1 1 1 1 1-1m61 0-1-2c0-1-2 0-2 2h2m9-1-2-1-2 2 2 1 2-2m88 0c1 0 1-1 0 0l-1 1c0 2 1 1 1-1m-195 0c1-2 0-2-5-4h-10c1 2 9 5 12 5l3-1m89 0c2-3 0-4-3-2l-2 2c0 2 4 1 5 0m-180-2h3l-2-3c-3-3-4-4-9-5h-5l2 2c1 2 3 3 3 2h2l1 1 1 2v-1h1v-3c2 1 3 2 2 4s0 3 1 1m176-1c2-1 2-1-3-1-4 0-5 1-3 2 1 2 5 1 6-1m84 0h-1l1 2v-2m-133-1-1-1-1 1v1l2-1m58-3 2-1v-2c-2-3-2-6 0-8 1-1 2-5 0-5-1 0-5 9-5 13 0 7 0 7 1 6l2-3m53-3-1-8c-1-1-1 1-1 4 0 5 0 6-2 8s-2 2 1 2l3 1v-7m-35 5 1-2-1-1c-3-2-4-2-4 0l-2 3c-1 1 0 1 2 1 3 0 4 0 4-2m19-1c-2-2-2-4-2-7 1-3 1-4 5-4 5 0 5-1 4-3s-2-3-8-3l-5 1v8l1 10 4 1h3l-2-3m-44-2 2-7v-2c0 2-2 3-2 1l-1-3-1 1v3l-1 6c-2 5-1 6 3 1m62 0-1-1v1l1 2v-2m8-7c2 0 3-1 3-2 0-2 4-3 7-3h7c4 0 4-1 4-3s0-2-1-1l-6 1-11 2-7 3c-1 0-2 6-1 9s2 3 2-2c0-4 0-5 3-4m2 2c2-1 1-1-1-1-3 0-3 0-3 2l1 4c0 2 0 1 1-1 0-3 1-4 2-4m-286 1c-1-2-2 0-1 3v2l1-2v-3m162 3c2-1 3-10 1-12l-6-1h-5v15h4l6-2m148-2-4-5 1 4 3 4 1 1-1-4m-295 2-3-1c-2 0-2 0-1 1h4m303-2 2-3-3 2-2 3c0 1 1 1 3-2m22 0c0-3 0-3-1-2v5l1-3m-115-1-1-3v4c1 3 2 2 1-1m68 1-2-2c-1 0-2 1-1 2 0 2 2 2 3 0m-100 0c1-2 1-2-1-2-3 0-4 1-3 2h4m-300-1-1-1-1 1 2 1v-1m348 0-2-3c-2-1-3-3-2-4l-2-1c-2 0-2 0-1 5 1 4 2 4 4 4l3-1m77-3c4-3 5-5 5-8 0-4 0-3-5-1-2 1-3 1-3 3 1 2-2 5-5 4h-2l2 3 3 3 5-4m-120-1c-1-2-1-2-1 1v2l1-3m68 2-2-1-2 2c0 1 3 1 4-1m-88-2h-1l1 2v-2m125 1-8-1 4 1h4m-215-1-1-1h-1l1 1h1m183-6c0-5-1-7-4-7l-2 2 1 2 2 4c0 4 1 5 2 4l1-5m22 5-2-1-2 1 2 1 2-1m-238-1-1-2c-1-1-3 1-2 2h3m-28-1v-1l-1 1v1l1-1m5-2c0-3-1-4-3-1-1 2 0 3 3 4v-3m278 2c1-2-1-6-2-6l-1 3c0 4 1 5 3 3m-69-2 1-1h1l-2-1-2 1v1l1 2 1-2m39 1-1-1-4-5c-1-5-1-6-4-6h-3l3 3c2 2 2 3 2 6l-1 4h4l4-1m-101-1v-1l-1 1v1l1-1m11 0-2-1c-2 0-2 0 0 1l2 1v-1m10-1 1-1 2 2c2 1 2 1 0-2-1-3-2-3-2-2l-2 2-2 2c0 2 2 1 3-1m48 1-2-1c-2 0-2 0 0 1l2 1v-1m90-3v-3c-1 0-2 5-1 6 0 1 1 1 1-3m-125-1-1-4v1l-2 4c-1 1-1 1 1 2l2 1v-4m8 1-1-1-1 2c0 2 0 2 1 1l1-2m15 2-2-1-1 1 2 1 1-1m-290-1h-2l1 1 1-1m225 0-1-1-1 1v1l1-1m-130-3c0-2 0-2-1-1v4l1-3m69 0c2-3 2-3 0-3l-2 1-1 2-1 3 4-3m-41-2 3-6 3-7c2-4 2-5 1-7l-2-3-5 5-4 5 3 3c3 2 4 6 2 6l-4-2-3-3-2 3c-2 3-2 3 0 4l3 4c0 3 2 3 5-2m172 3c2 0 2 0 1-1l-1-3c0-1 1-1 3 1l3 2-2-3c-2-2-3-2-5-2h-3c-1-3-2 0-1 3 0 3 1 4 2 4l3-1m-248-3h-1c0 2 1 3 2 2l-1-2m102 0-1-3c-1 0-2-6-1-7 1-2 0-6-1-6l-2 4-1 3c-1 1 0 2 2 4s2 3 2 5v3l2-3m101 1-4-1h-5l4 1c3 2 4 2 5 0m56-1c-1-3-3-5-3-3l3 6v-3m-239 1 1-2v-1h-3v-4l-7-4 2 3 3 1v1c-1-1-1 0-1 1l1 2 2 1c0 3 2 4 2 2m172-2-1 2c-1 1-1 1 0 0l1-2m113 0c0-2-1-2-11-2-3 0-6 1-5 3l8 1c7 0 8 0 8-2m16 0 1-2h-1l-2 1-4-1c-3 1-4 1-3 3 0 2 1 2 4 1l5-2m-284 2-1-1h-1l1 1h1m-46-2c-2-1-3-7-2-7v-2c-2-2-2-2 0-5s2-3 1-4h-3l-7 10 3 2 4 2v4l4 1c2 0 2 0 0-1m246-2h-1l1 1h1l-1-1m-288 0-2-1v1h2m31-1c-1-1-2-2-3-1s-1 1 1 2c3 1 4 0 2-1m66-7a1524 1524 0 0 0 1-6l-3 2-2-3c-2-2-2-2-2 0v2l-1 1h1c3-2 4 1 3 6l-1 6 4-8m43 8-2-1-1 1 3 1v-1m-177-3c0-2-2-3-2-1l3 3-1-2m23 0-1-1h-3c-4-1-4 0-1 2 3 1 4 1 5-1m187 0c1-1 1-1 0 0-2 1-2 2-1 2l1-2m182 0h-4l2 1c2 0 3 0 2-1m9 0h-3c-1 1 0 1 1 1 2 0 3 0 2-1m-304-1 1-2c0-2 0-2-2-2-3 1-5 3-3 4h4m18-3h-2l-1 3c0 1 1 1 1-1l2-2m93 3-1-1c-2-1-1-2 3-3 3 0 4-1 4-3 0-3-2-4-7-1-7 3-8 5-5 7s6 3 6 1m134 0c1-1 0-1-1-1l-4-2-2-1 3 4h4m44 0c0-1-4-2-5-1l-4 1h-5l7 1 7-1m-406-4v-2l-1 1-2 1c-2 0-2 0-1 1 1 2 4 2 4-1m170 2-1-2v-1l-2 1c0 1 2 3 4 3l-1-1m94-1-1-1v-1c2-2 1-5-1-7s-2-2-2 1l1 2c1-1 2 0 1 1l-1 1c-2-1-1 2 1 4 3 2 3 2 2 0m7 2-1-2-1 1 1 1h1m26-1c1-1 1-1-2-1l-6-1-2-3-1-1-1 4c1 3 2 3 5 3l7-1m-256-5-2 1-1 3c0 1 1 1 1-1l2-3m125 4-1-1-1 1v1l1-1m243-1c1-2 0-2-3-1s-3 1-1 2c4 1 4 1 4-1m18 1v-2c2 0 2 0 1-3-1-2-2-3-3-2v5c-1 0-1 1 1 2s3 1 1-1m-296-1c1-2 1-3-1-5l-3-3-1 1c-1 1-2 3-1 4l-1 1v1l2 1h1l1 1 2 1 1-2m20-1c0-2-2-2-2 0h1l1 2c-1 1-1 1 0 0v-2m51 2 2-3 2-2c0-2-6 3-6 5l1 1 1-1m162-8 1 1h8c2 0-1-5-2-5-8 0-8 0-9 3v9l1-3 1-5m20 5c0-3 2-6 4-6h2l-4-1c-3 1-4 1-4 5 0 5 1 6 2 6v-4m-294 0c2-3 2-3 0-2l-3 4c0 2 1 1 3-2m283 1c1-3 0-3-1-3-2 0-2 0-1 1l1 2h-5 2v-1c-1-2-2-2-2-1l-2 1c-2 0-1 2 1 2 5 2 7 1 7-1m5 1-2-1-1 1 2 1 1-1m-366-2c0-2 1-5 6-10l5-8c0-1-9 8-8 9l-2 1-2 2-1 1v4c2 4 2 4 2 1m25-1 4-3 1-1 1-2 1-2c0-2-7 4-9 8-3 4-1 4 2 0m37-1 1-3-2 1-2 2h-1l-1 2c-1 3 4 1 5-2m221 1c-1-1-2 1-1 2h1v-2m38-1v-3l-2 2c0 2-2 3-2 2l-1 1 2 1h2v1l1-4m56 2c-2-2-1-2 6-4l6-1-6 1-6 1h-3v4l2 1c2 0 2 0 1-2m5-1h-3v2h2l1-2m41 2-3-2c-1 0-2 0-1 1 0 2 4 3 4 1m-312-4c2-4 2-4 0-4-1 0-3 1-4 4-2 4-2 4 0 4l4-4m168 4-1-1h-1l1 1h1m132-1c-1-2 0-5 1-5v-1c-1-2-3-1-3 3 0 3 0 4 2 4v-1m-251-3c0-2-2-1-3 1s-1 2 1 1l2-2m167 2v-1l-1 1v1l1-1m71-1c0-3-12-7-15-5-3 1-2 2 1 1l5 1h4c1 0 2 1 2 3 0 1 1 2 2 1l1-1m-376-1c1-1 1-1 0 0-2 1-3 0-1-2h-1l-1 3c1 1 2 1 3-1m194 0c1-1 0-1 0 0-2 0-2 1-1 1l1-1m-11-6 3-5-3-3-3-2-8 12 2 1c1 0 4-2 6-5l5-4-4 5c-4 4-4 5-3 6s1 1 5-5m21 5 1-3c3-3 2-3-2 0-2 2-3 2-2 3h3m70 0-1-3-3-3-2-3 1 4c0 3 2 6 4 6l1-1m-131-5c2-4 2-6 0-5s-4 7-3 8c0 2 1 1 3-3m-180 0c4-5 1-6-4-1l-3 4h2l5-3m70 2-2-1c-1-1-1-1 0 0 1 2 2 2 2 1m74-7c1-1 1-2-2-4l-2-1v1c1 1 1 1-1 2s-4 1-2-1 1-7-2-6c-2 0-9 11-8 12h4c2 1 3 1 2-1l1 1 4 3h1v1l2-2 3-5m97 4 5-5v-1c1-2-1-1-6 3l-7 6c0 2 2 1 8-3m80-2c0-2-3 2-4 5l1-1 3-4m18 3-1-1-1 3 1 1 1-3m-258-2-2 2c-1 2-1 2 1 1l1-3m87-5c3-6 3-7 0-5l-7 13c0 3 4-1 7-8m23 5-2 2c-1 2-1 3 1 1l1-3m-82-2 4-5 1-1h2c1 1 1 1 0 0-2-3-5-2-9 3-5 8-5 8-3 8l5-5m69 0c4-5 4-6 3-8-1-1-2 0-4 5l-3 8 4-5m90 0-1-6-1-1h1l1-1v-7c-2-2-3 1-3 6l1 9v3c0-2-1-2-1-1-1 1 0 3 2 3l1-5m-192 0c2-3 2-4 0-5-1-2-4 0-6 3-2 2-2 2 0 4 3 2 3 2 6-2m31-4v-2l-6 8c-1 2-1 2 2-1l4-5m12 4c2-3 2-3 1-6-2-2-3-3-3 0 0 1 0 2-2 2l-4 2v2h2c0 2 2 4 4 4l2-4m84-1c5-9 4-11-3-3-3 4-4 5-3 6l2 2 4-5m36 0c5-4 6-6 2-6-3 0-5 2-7 7s-2 5 5-1m76 0c-2-3-4-1-3 2 1 2 1 2 3 1v-3m52 2c1-1 1-2-1-3v-7c0-4 0-4 2-4h3l-2-1v-1l-2-1c-2 1-2 1-2-3 0-6 1-7 5-7 2-1 2-1-1-1s-4 0-4-2l-1-2c-2-2-3 5-1 10v17l1 4c0 3 1 4 3 1m-349-3 2-3h-3l-1 1v1l1 1-2 1c0-1-1-1 0 0h-4l3 3 4-4m354 3 1-2c-1-2-2-1-4 1v2l3-1m-397-2h-1c0 1 1 2 2 1l-1-1m189-5c2-3 2-3 1-5-3-4-5-4-8 2s-3 6 1 8c2 2 2 2 4 0l2-5m-108-3 3-6c-1 0-10 13-10 15 0 1 4-3 7-9m-81 5h-2l-3 2h2l3-2m225-2 4-6c0-2-3-5-4-5l-4 7c-2 4-3 6-2 7s1 1 0 0l-2 1c2 2 3 1 8-4m109 3-1-3-1-1c-2 0-2 1-1 4 1 2 3 3 3 0m14-2c0-4 0-4-1 1v2l1-3m21 0c1-1 1-1-1-1-1 0-2 1-1 3 0 2 0 2 1 1l1-3m35 1v-3l-1-4h2c1-2 4-1 4 1h3l1-4c0-3 0-3-1-1s-2 2-5 2h-4v-5l1-6 3 2 4 2c1 0 1-1-1-2l-3-4c-2-2-6-3-6-1 0 3 0 4-1 3v2c2 3 2 4 2 14 0 4 0 7 1 6l1-2m8-1 1-3-2 1-2 2c-1 2-1 3 1 3l2-2m57 0-1-2-1 2 1 2 1-2m-258-3c3-5 3-6 0-2l-3 4c0 2 1 1 3-2m185 1h-1l1 1h1l-1-1m-144-2c5-7 5-8 2-10-5-5-7-5-9 2l-2 5c-1 1 0 2 2 4l4 2 3-3m25-2-3 4c0 1 1 1 2-1l1-3m30 3h-1v1c0 1 1 1 1-1m-316-4c-2-1-2-1-1 2 0 2 0 2 1 0v-2m336-1c-1-4 0-8 2-9l1-3c0-2-5 6-5 9 0 2 3 9 4 8l-2-5m-278 1-1 1 1 1v-2m60-2c3-6 4-7 2-7l-1 1-3 6-2 5 4-5m168-6c-3-2-6-2-6 0h2l-1 2c-1 1-2 0-2-1 0-2-1-1-4 3-2 4-2 5 2 5l3 1c0 1 2 0 4-3l4-4-2-3m118 10-1-2c-1-1-2 1-2 2h3m-416-2v-4l2-2-2-1-6-3c-1-2-4-4-7-5-4-1-6-2-10-7-9-12-9-12-4-1l10 15 5 6 1 1 3 1c2 3 7 2 8 0m197-3 2-6h-2v1c2 0 2 0 1 1l-2 2-1 2c1 1 0 2-1 2h-1v-2l-1 1-2-1h-3l2 2c2 0 3 1 3 2 2 2 3 1 5-4m131 3h-1l1 2v-2m23 0-1-2 1 4v-2m-328-1c0-2 0-2-1-1l-3 1c-3-1-2-3 1-3l4-1h-4c-4 0-7 2-4 3l1 2c0 2 5 1 6-1m137 1 5-4c0-3 3-6 5-5 2 0 1 3-1 4l-3 2c-2 1-2 1 2 3h4v-4l-1-1 2-1h1l1-1 1-2c0-2-4-5-5-5h-1c-1-3-4 0-7 6l-4 6c-1-1-1 0-2 1v1h3m74-4 4-7-4-4-4 7c-2 5-3 7-2 8 2 2 2 1 6-4m-203 1-1-3v4c1 3 2 2 1-1m428 2c2-2 0-2-3-1-2 1-2 2-1 2l4-1m-451-1c0-2-3-3-4-2l1 1 2 1v1l1-1m443-1 1-1c-1 0 1-3 4-5l4-5h-2l-2 1-1 1v1l-3 2-2 1-1 1v2c-1 1-2 2-1 3h1l2-1m-438-1v-1c-4-2-5-1-4 1l2 1 2-1m176-4c1-2 1-3 2-2l1-3-1-3c-2 0-5 3-7 8-3 4-3 5-1 5 2 1 4-1 6-5m278 4-3 1h2c2 0 2 0 1-1m-423-2c1-1 1-1-3-1l-7 1c-2 0-1 0 1 1 4 2 7 1 9-1m174-2 4-4-2 4c-2 3-2 4-1 4l3-4 2-4-2-2-2-3c0-1-4-3-5-2l-3 5c-2 4-2 5-1 7 1 1 1 1 0 0-2-2-3-1-2 1l3 1c2-1 2 0 2 1-2 3 2 1 4-4m261 2 1-3-1 1-2 2-2 1c0 2 2 1 4-1m-288 0-1-1-1 1 1 1 1-1m64-1v-1c1 1 4-2 3-3l-1 1-1-1-2-2-1-1 2-1 2-1v-1 2l1 3c1 0 2-1 1-2l1-2c2-1 2-2 1-3-1-2-7-6-7-4l1 1c1 1 1 1-1 1-1-1-2 0-2 1h1l1 1c0 2-2 3-2 2l-3 3-1 5 3 2c3 2 4 3 4 0m98 1-1-3c-1-2-1-2-1 2-1 2 0 3 2 1m12-2v-1c-1-2-3 0-3 2s0 2 1 1l2-2m5 2-2-3-1-6v-3l-1 3c-1 3 2 10 3 10l1-1m56-1v-1h-1c0 2 1 2 1 1m60-1h-1l-2 1c0 1 2 1 3-1m-476 0-3-1c-2 0-2 0 0 1h3m91-4-1-2h-3l-2 3c-1 1-1 1 0 0l2 1 1 1 1 1 2-4m11-1c4-5 3-7 0-3-3 2-4 2-2-1l1-2-3 3v2l1 2c-3 7-2 6 3-1m304 5c3-1 2-2-1-2l-2 2h3m-379-1h-3c-1 1 0 1 1 1 2 0 3 0 2-1m29-1h3l-1-2c-2-2-3-2-11 2-2 1 2 2 4 1l5-1m41-1-2 1c-1 2-1 2 1 1l1-2m198-1c3-4 3-9 1-10-1-1-3 0-3 2l-2 1-3 1v1c-1 1-1-2 1-3v-4c-2 0-4 3-5 9-1 2-1 2 1 2l5 2c3 3 3 3 5-1m-23 1 3-6 2-3-4-3c-7-6-7-6-11 3l-3 6 4 1 4 3c2 2 2 1 5-1m161 1-2-2c-2-1-3 0-1 2h3m9 0-1-1-1 1 1 1 1-1m-96-2c1-1 1-1 0 0-2 1-2 2-1 2l1-2m14-3c-1-1-1 0-1 2l1 2v-4m-9 2-1-1-1 2 1 1 1-2m-352-1c0-2-2-1-2 1v1l2-2m186 0h-2c-1 1 0 2 1 1l1-1m223 2-2-1c0-1-1-1 0 0l2 1m-80-4-1-1-1 2 1 2 1-3m-297 0c3-3 3-4 0-4l-3-1c0-2-4-1-4 1 0 1 0 2-1 1l-1 1c3 4 5 5 9 2m23 2-1-1h-1l1 1h1m181-8 1-4-3-2-3-3-3 7-3 6 3 1 2 2c0 2 4-3 6-7m114 6-1-2-3-3-1 3c-1 3 1 5 2 3l3-1m88-3c4-3 5-6 3-5l-7 9 4-4m-457-1c0-1-2 1-2 3l1-1 1-2m7 3c0-1-2-3-4-3l1 2c1 2 3 3 3 1m71 0-1-1v-4c2-1 2-2-1-5-1-2-2-4-1-5l-1-1c-1 1-2 0-2-1l-3-1v3l1 2 1 1 1-1 1 1v5c1 1 0 2-1 4s-1 2 1 3h5m72-3c2-5 2-9-1-8 0 1-1 1 0 0l-2-1-3 1 1 2c1 1 2 2 1 3v7l4-4m72 2h-1l-1 1 1 1 1-2m-126-1c0-3-1-4-6-1-2 1-3 1-2 2l5 1c3 0 3 0 3-2m114-1 2-4 1-2 1-1-1-2c-3-2-3-2-6-1-4 2-8 10-6 11 1 1 2 0 3-1h2c-1 1 0 3 2 3l2-3m218 2c0-2-3-3-4-2-1 2 0 3 2 3l2-1m-244-1h4c2 1 2 0 4-3 2-4 2-6 1-5l-1-1c1-1-2-5-4-5l-3 2-2 1v1l-2 4-1 3-1 1-1 1c0 2 2 2 5 1m55-4 2-4-3-3c-3-3-4-4-6-1l-3 1-3 3c-2 4-1 6 1 2 1-2 3-2 2 1l1 2h2l-1-1v-1l2 2 2 2 1 1c0 2 2 0 3-4m111 2c-2-1-2-1-1 1 0 2 1 2 1 1v-2m66-4c-1-1-1 0-1 2l1 2v-4m-42 4-2-1-1 1 2 1 1-1m-243-4c4-7 5-8 1-4a194 194 0 0 0-6 7l3-5 2-4-6 8c-1 1-1 2 1 2l5-4m88 1-1 2c-1 1-1 1 0 0l1-2m206-1c0-3 0-3-1-2-2 2-3 6-1 6l2-4m60 3c0-1-1-2-2-1l1 2 1-1m-443-3c0-1-3-2-4-1l1 1h1l-1 1v1c0 1 3 0 3-2m350 0-2-4c-2-1-2-1-1 1l4 6-1-3m37 2-1-2c-1 0-2 1-1 2l1 1 1-1m-152-3v-5c-1-1-1-1-1 1 1 3 1 3 0 0v-3h2c0 2 0 2 1 0 2-4 0-6-4-6l-5 1c-1 1-3 5-3 9-1 1 7 6 8 6l2-3m24-3 2-5c3-3 1-8-4-8-2 0-7 5-7 7h-3l-1 1h-1c-1 1 0 2 4 4l6 4c2 3 3 2 4-3m22-3c1-4 1-5-1-6-2-2-2-2-5 1l-2 2c2 0 2 0 1 2l-1 3h2c2 0 2 0 1 1s-1 2 1 3c2 2 2 2 4-6m46 7h-2c-1 1-1 1 1 1s2 0 1-1m-267-4 2-3v-3c0-2 0-2-2-2s-3 2 0 4c2 2 1 3-1 3l-3 2c-1 3 0 3 4-1m327 1-2-2v3l2 1v-2m-378-2-2-1-1 1 2 1 1-1m69-3c0-2-7-3-8-1-1 1 1 2 4 1v2c-1 2-1 2 1 1l3-3m141-2 2-5-3-2c-4-3-9-1-11 4-1 3-1 3 1 3h1l4 2 3 3c0 2 1 1 3-5m50 5c2 0 2 0 0-2-1-2-2-2-2 0l-1 3 1-1h2m-157-3v-1l2 1 5-11-3 2h-4l1 3h3c0 1-3 2-4 1l-2 2c-1 2-1 2 1 4 3 3 4 2 1-1m307 2-2-4-1 2c-1 1 0 2 1 2h2m10-1c2-2 1-3-1-3s-3 1-3 2c0 2 2 3 4 1m25-2-1-2c-2 0-3 3-1 4 1 1 2 0 2-2m-283 1h3c-2-1-2-1-1-3h2c1 0 2-1 2-3l2-3v-1l-2 1v-4c-2-1-7 3-10 9l-1 4h5m275-1c-1-2-5-2-6 0 0 1 1 2 3 1l3-1m-392-3 2-1-3-4c-4-3-6-4-5 0l2 1h1v1c-1 1-2 2-1 3l-1 1c-3-1-3 0-1 1h3l3-2m101 3h2a551 551 0 0 1 2-9c1-2 1-2-1-3-3-2-6-2-7 0l-2 1 1-2v-2l-3 6-3 7 3 1 4 1h4m49-8c1-3-4-6-8-5-3 0-4 1-5 5-2 5-3 7-1 5h5l6 3 3-8m152 8-3-1-2 1 3 1 2-1m53 0-2-1-1 1 2 1 1-1m-227-4-1 1c0 2 0 2 1 1v-2m7-2c0-2 0-1-2 2v1l2-3m103 1v-3c2-1 1-4-1-4s-2 0-1 1v1c-2 0-3 2-1 3v2c-1 1 0 3 1 3l2-3m-205-1c4-3 4-4 3-6s-3-3-4-1l-1 1c-1-1-2 0-2 1s1 1 3-1h2c0 1-1 2-3 2-3 1-5 4-4 6s2 1 6-2m180-2c-1-1-1-5 1-5s3 0 2 2c0 1 1 2 6 2l5-1 1-1 2 1c0 2 2-1 2-3l-1-2c-2 1-2 0-1-1 2-1 2-7 1-36v-36l-3-1c-3 1-4 0-4-1l-3-1-3 1-1 3-1-1v-1l-1 1c-1 1-6 0-8-2-2-1-2-1-5 1l-3 2h-8v19l1 18h1l-1 2-1 3-1 3v2l1 6-1-1s-1-1-1 1l-1 2h1c2 0 2 0 2 3l1 3v-1l1-1 1 4 1 8v6h6l9 1 1 2h-2l1 2c1 2 1 2 3 0s2-3 0-3m20 1-2-1v1c2 2 3 2 2 0m-207 0 1-1-2 1c-3 1-1 2 1 0m156-1-2-1 1 2c2 1 3 1 1-1m62-1c1-1 2-2 1-3v-1l20-1h19v-3c0-2-1-3-3-2l-3-2c-2-1-2-3-2-7 0-5-2-7-2-3 0 2-1 2-4 2l-5-1-3-1c-3 0-3-4 0-5 2 0 3-1 4-3s5-3 7-1c1 2 2 1 2-2l1-4c1-1-7-1-17-1h-19v9a371 371 0 0 1 2 31l2-2m-252-1c1-1 1-1 0 0-2 1-2 2-1 2l1-2m144 0v-1l-1 2c0 2 1 1 1-1m185 1c2-2 1-3-2-3s-3 0-1 1l3 1h-5l-4 1h9m-188-4 2-5c0-1-7-3-8-2v2l1 1h-5c-1 2 0 3 2 3l4 2 2 3 2-4m153 3h-4c-1 1-1 1 2 1 2 0 3 0 2-1m5 0h-2v1l2-1m12 0v-1l-3 1-1 1 4-1m42 0-10-1-10 1 9 1 11-1m-175-3c1-3 1-3-1-4-3-2-5-2-6-1l-2 3c-2 0-3 2 0 2l4 2c3 1 4 1 5-2m-109 0-1-1-1 1v2l2-2m327-1c0-3 0-3-2-3l-4-2c-2-3-6-2-9 1l-4 2-2 2c0 2 1 2 10 2l11 1v-3m-237-3c-2-1-4-2-5-1-2 0-2 0 1 2l4 3h2c1-2 1-3-2-4m113 4h-2v1l2-1m98-1c0-4-1-6-2-6l-4-2c-2-1-2-3-2-6l-1-6v1c0 2-3 5-4 4l-2-2c-1-2-1-2-2-1-2 1-5 0-5-2l1-3 3-3c1-2 5-4 6-2 2 2 3 1 3-2v-3h-13l-20-1h-7l1 3 2 6c0 3 0 3 1 1 1-3 6-3 7 0l2 2h2c2 1 3 6 1 6l-4 3c-3 2-4 2-6 1-3 0-3 0-3 2 1 2 0 2-1 3l-2 2-1 1v4a540 540 0 0 0 50 0m-249-5-2-2c-2-1-7 1-10 4-2 2-2 2 0 1l4 1h3c0-1 1-1 1 1 1 1 1 1 3-1l1-4m127-14-1-17-3-1-3-1c-1 1 1 27 1 33l3 5h3v-19m66 17c0-3-1-4-4-6l-4-2c-2 0-10 7-10 9l9 1 9 1v-3m-242 1v-1l-1 1v1l1-1m-17-5 3-4c-1-2-2-1-2 1 0 3-2 4-5 3-3-2-3-5 0-8l1-2-5 6-4 5 4 1 3 1v1l5-4m14 3h-2c-1 1-1 1 1 1l1-1m124-6v-7a1040 1040 0 0 0-2-58l-2-2-1 2v10l1 28c0 27 1 34 2 34s2-2 2-7m-99 3 1-1-3 1v1l2-1m228-3-1-1-2 2h1l2-1m-29 0h-2v1l2-1m-1-2h2l-2-2c-2-3-1-6 2-5l2 2c0 1 4 2 6 1l5-1c3 1 4 0 6-1 2-2 5-2 5 0l-2 2-1 3c1 1 4-4 4-9 1-8-1-9-12-8l-6-1h-4l-2 2-5 2-1 9c0 3 0 6-1 5h-1c-2 0 0 2 2 2l3-1m86 0c0-2 3-4 5-4l5 2c3 1 3 1 5-1 2-3 4-3 4 0l1 2v-13c0-3 0-3-4-3h-5l-2-1-4-2h-2a397 397 0 0 0-14 2l-1 8c0 7 0 8 2 9 3 1 5 0 3-2s-1-3 1-3 4 2 4 5l1 2 1-1m-71-3h-3c-1 1-1 1 2 1s3 0 1-1m-125-3-5-1-3-1c-1-2-6-2-36-1a620 620 0 0 1-22-3h18l1-1 1 1 41-1 1-3c0-2 1-2 8 0 2 0 2 0 2-2v-2l-18 1a462 462 0 0 1-27 2c1 1 0 2-1 2v-1l-1-1-2 1-2 1-1-1c1-1 0-1-1-1l-3 1h-2l-15 1-19-2c-7-1-16-1-17 1h-3c-2 0-4 3-1 4h11c10 1 11 1 13 3s3 2 5 2h6l28 1 34 2c8 1 13 0 10-2m134 0-3 2h2l1-2m-251 0 1-1c2 1 6-5 5-6-1-2-4-1-6 1-1 2-2 2-3 1v1c1 2 0 3-2 0l-1-1c0 2 4 6 5 6l1-1m17 0-4-1h-5l-1 1 5 1 5-1m106 0h-2l-1 1h1l2-1m89-1c0-1-3-3-4-2l2 2c2 2 2 2 2 0m4 0h-2l-1 2h1l2-2m46 0 1-3h-1c-2 2-3 4-1 4l1-1m9-2-1-1-1 1 1 1 1-1m-148-4-1-1-2 1 1 1 2-1m168 0v-1l-1 1v1l1-1m-289-4-2 1-2 2h2l2-3m327-3-1-1-2 1 2 1 1-1m-274-3c0-2 0-2-1-1v3l1-2m22 1-1-1-1 1v1l1-1m-30-4c0-2-1-3-5-3h-7c-2 0-2 0-3 2s-1 2 1 2l3-1c1-2 2-2 4-1l3 2v1h-2l1 1h2c1 2 2 0 2-3m17 3v-1l-2 1 1 1 1-1m61-1c-1-2-1-2-4-2l-2-2c0-2-1-2-6-3-6 0-9 1-3 3l8 3c7 4 7 4 7 1m102-3c2 0 3 0 4 2l5 1h5c2 3 4 2 4-1a358 358 0 0 0 61-2 990 990 0 0 0-27 0l-70-3c-29 0-32 0-25 3l3 3h17l19 1c0 1 1 1 1-1l3-3m29 4h-3c-1 1 0 1 2 1 1 0 2 0 1-1m75-2c0-2 0-2-4-2h-5l2 3c3 2 6 2 7-1m-15 0 1 1 2 1c4-1 4-2 0-2l-2-1-2-1-3 1c0 2 1 3 2 2l2-1m-257-4-2 1c-1 1-1 1 0 0l2-1m6 0c3 0 3 0 2-1-3-1-5 1-4 2h1l1-1m38 0c1-2 0-2-6-1l-4 1h3l4 1v1l3-2m-26 0h-3c-1 1 0 1 1 1 2 0 3 0 2-1m-54-3c1-1 0-1 0 0-2 0-3 1-1 1l1-1m177 0v-5l2-6 1-2c-1-1-5 4-5 6s-3 1-5-2c-1-2-1-2-3 2l-1 4 3-2h3c2 2 1 3-1 3h-2c0 2-4 2-7 1h-6l-1 1c1 1 22 2 22 0m4 0h-2v1l2-1m10 0h-4c-1 1-1 1 1 1 3 0 4 0 3-1m-177-5c3-3 2-6-1-8-2-1-3-3-4-6l-1-3-2 6-1 2c0-3 0-3-1-2-2 2-3 7-1 7l2 4c1 3 2 4 4 4h3l2-4m31 2v-16c-1-3-3-4-6-5l-5-2 3 6c3 5 3 5 2 10l-3 7c-1 2-1 3 4 3 3 0 3 0 5-3m157-1-1-2-1-4-1-2-1 2c1 3 0 4-5 2h-8c-3 0-4 1-2 4h1c0-3 3-2 4 0l2 2 1-1v-2c1-1 2-1 3 1 3 2 6 3 7 2l1-2m24 2c4 0 4-1 4-3v-3c2 0 3-3 1-3l-1 1-1 1-1-2-1-1c-1 1-1 0-1-1 0-2-1-3-3-1l1 2c2 1 3 4 1 4l-1 2-1 1-2-2c0-3-2-5-3-5l-1 2c0 2-1 3-3 4l-2 1 2 2c2 2 3 2 5 1h7m119-1-1-3h-5c-3 2-3 2-1 2l2 1c0 2 4 1 5 0m-345 0v-2h-5c-2 0-2 0-1 1 1 2 6 3 6 1m244-1c3-2 2-4 0-6-3-3-3-3-3 2l-1 4c-1 0-2-1-2-3v-2l-2-1c-2 0-2 0-2 3l1 4c1 2 8 1 9-1m13-2c0-2-1-3-2-3-3-1-4 0-4 4 0 2 0 3 3 2 3 0 3-1 3-3m17 4-1-1h-1l1 1h1m21-1h-3c-1 1-1 1 2 1s3 0 1-1m39 0c1-3 0-4-3-3-2 0-2 0-2-2 1-1 0-2-4-2h-5l2 3c2 2 2 3-1 3l-3-3c0-2 0-2-1 0l-3 2v-3c2-4 2-4 0-4 0 0-2 1-2 3l-1 3-1-4v-3l-5 1c-7 0-8 1-6 6 0 2 2 3 3 3v-1c-2 0-2 0 0-2l1-2c0-2 1-3 3-2 2 0 2 2 0 4h1l4 1c1 1 1 1-1 1l9 1a383 383 0 0 1 15 0m-310-1-1-1-1 1 1 1 1-1m239-1h-1l-2 1h2l1-1m9-1v-2c0-1 4-4 5-3l-1 2c-2 3-1 4 3 2h5c0 2 6 2 8 1 1-1 1-1-1-2l-2-1-2-1-3-1h-2c-1 1-2 1-3-1h-11c-2-2-4-1-4 2 0 2 1 3 2 2l1 2c-1 2-1 2 2 1l3-1m-280-6a395 395 0 0 1-1-20l-1 3v11l1 8 1-2m33 1h3c1 1 1 1 0 0l-3-2-5 1-2 1h7m223 0v-2l-2 2v1l2-1m-60-1v-1l-1 1v1l1-1m148 0-1-2-1 1c-1 2 0 3 2 1m-305-2c0-2 0-2-1-1-2 1-2 3 0 3l1-2m300 1-1-1-1 1v1l1-1m-95-1-1-2-1 2 1 1 1-1m-222-3c-2-4 1-10 5-10l3-2c-1-1-5 1-8 3-2 2-3 9-1 11s2 1 1-2m172 2v-1l-1 1v1l1-1m5-1h-1l1 2v-2m11 2-2-1h-1l1 1h2m29-8c0-2 0-2-1 1s-2 4-3 2h-4l-1-3c-2-1-2-1-1 3 1 5 2 5 3 3s2-2 4 0l1 2 1-3 1-5m58 4c0-4-1-4-1 1l1 3v-4m39 3-1-1-2 1h3m-88-2c-2-2-2-2-1-4v-2c-1-1-2 1-2 4s1 4 3 4 2 0 0-2m10 0h-1l1 2v-2m5 0-2-3v-1c-2 0-2 2 0 4 3 2 4 3 2 0m10 1c-1 0-2-1-2-3l-1-4v3c0 5 1 5 3 5s2 0 0-1m26-6h-1l1 5c0 2 0 2 1-1l-1-4m32-2c0-1-2 3-1 4v3l1-2v-5m-133 5 2 1c1 1 1 0 1-2l-1-5c-1-1-1-1-1 1 1 3-2 4-3 1-1-2-1-2-1 2 0 3 0 5 1 4l2-2m14 2-1-1-1 1 1 1 1-1m69-3-1-4v7c1 2 2 1 1-3m31 3-1-1h-1l1 2 1-1m-104-1v-3l-1 2c0 2 1 3 1 1m77-4-2-2v1c2 2 2 2 1 3l-1 2 2-1v-3m37 1-1-3c-1 1 0 7 1 7v-4m-45-2h-1l1 4 1-1-1-3m-247 1c-1-1-2 1-1 2h1v-2m311 0c0-2-1-1-1 1l1 2v-3m-336-4v-2c-1 1-2 4-1 5 0 4 1 4 1-3m252 4-1-2v2l1 2v-2m11 0h-1l1 2v-2m56-1c-1-1-1 0-1 1l1 1v-2m11 1c0-1-2-1-3 1l2 1c1 0 2-1 1-2m-103-1c-1-1-1-1 0 0l1 2-1-2m-43 0-3-1c-2 0-2 0-1 1h4m121-1h-2c-1 2-1 2 1 1l1-1m34 1-1-1-1 1 1 1 1-1m-350-5-2-4 1 5c2 5 3 5 1-1m46 1-3-1 1 1c3 2 4 1 2 0m196-1-1-1-1 1 2 1v-1m-221-5v-1c-1-1-4 0-4 1h4m-17-1-1-1-1 1v1l1-1m148 0-1-1-2-1c-2 0-2 0-1 1 0 2 4 2 4 1m168-1h-2l1 1c1 0 2 0 1-1m-78-2c2-1 2-1 3 1 2 1 2 1 4-1 3-3 4-8 2-8s-2 1-1 2c1 3-1 5-3 4l-2-4-1-3-4-1c-2 0-2 0-2 4 0 3 0 4 2 4l1-3 1-3c2 1 1 6 0 7-3 2-5 0-5-2l-1-3c-1-1-1 0-1 2 1 6 3 7 7 4m20 1c5 0 6-1 6-2l1-5c1-1 1-2-1-2-1-1-2-1-1-2 0-2-1-2-13-2l-13 1h12c6 0 10 0 9 1h1l2 1-2 1c-2 1-2 2-2 3 0 2 3 3 2 0l1-1c1-1 2 0 2 2 0 3-2 5-5 3h-2l-3-2-2-2c-1 1 1 7 2 7l6-1m78 0-2-3-1-1-1 2-1-2c-1-2-1-2-1 0l2 4h4m14-1-1-2-1 3c1 2 2 1 2-1m-40 0c1 0 1-1-1-2-2-2-2-2-2 0 0 3 1 4 3 2m6-1c0-2-1-2-2-1s-1 1-1-1l-1-2c-2 0 0 5 2 5 3 1 3 1 2-1m-17 0-2-1c-2 0-2-1-2-3l-1-3-1 3c0 2 0 3-2 3-2-1-3-5-1-7s0-3-3-3c-4 0-4 0-3 2l2 3 1 3v3h12m-20-1-2-2h-2l2 2 2 1v-1m27-2c-1-4 0-5 2-2h1c1-4 1-4-2-3-3 0-3 1-3 4l1 4 1-3m39 1h-1l-1 1 1 1 1-2m-71-2c-1-3-2-4-2-2l2 5v-3m9 1-2-4c-1 1 0 6 1 6l1-2m38-1c-1-2-2-1-2 2h2v-2m20-4-3 1c-2 0-3 5-1 5 1 1 4-5 4-6m7 4h1c2-2 3-2 3 0s1 1 1-1 0-2-4-3l-7 1c-2 2-1 3 1 3l2-1v-1l1 3v3l1-3c1-3 1-3 1-1m-103 1-1-2c-1-1-1 0-1 1l1 2 1-1m40-3c-1-1-1-1-1 1s1 4 2 2l-1-3m14 2c2-1 2-3 1-3-2-2-6 2-4 4 0 1 2 1 3-1m25 1v-2c-2-1-2-1-1 1 0 2 1 2 1 1m-159-6c-1-1-1 0-1 2l1 2v-4m127 5-1-1-1 1 1 1 1-1m43 0-1-3h-2c1 3 3 5 3 3m-82-1-2-2c-2-1-2-1-1 1l3 1m3-1c1-1 0-2-1-1v2c1 1 1 1 1-1m23 1v-5l-1 1-1 1c-2 0-3 1-1 3h3m36-4c-2-1-2 1-1 3v3l1-3v-3m-88 1c-2-2-3-1-2 1l1 1 1-2m6 0v-1l-1 1v1l1-1m-64-12c-2 0-2-1-2-2v-1l-1 2c0 2 0 3 2 3s2 0 0-2m75 0-2-3-2-3c-1-2-5-4-10-4-3 0-3 0-2 2l4 3h4-1c-1 0-2 0-1 2 0 2 1 3 2 3h8m20 0-4-5c-4-4-5-5-8-5l-3 1 3 5c2 5 3 5 7 5l5-1m-43-1-2-1-2 1c-1 1 0 1 2 1l2-1m62 0c1 0 0-2-3-5-3-5-4-5-8-5l-4 1 3 6c3 3 4 4 7 4l5-1m20 0-5-6c-4-4-5-5-8-5l-4 1 5 5c4 5 5 6 8 6l4-1m12-2c-4-3-5-6-3-8 3-2 2-3-1-1h-3l-3-1c-1 1 0 2 4 7l7 6c2 0 2 0-1-3m-135-2c-3-5-6-8-8-8l-2 1 2 1 2 1 1 3h2l2 3 2 2-1-3m159 3-4-6c-2-6-3-6-6-6h-4l5 6 7 7 2-1m-140-2-2-3-1 1 1 2 2 2v-2m131-1-2-3c0 2 4 6 5 6l-3-3m-114-1c1-1-1-4-6-5s-5 0-1 3l3 3c0 2 0 2 2 1l2-2m99-1-3-1 1 2c2 2 3 1 2-1m5 0-2-2-1 1c-1 0-1 1 1 2 2 2 3 1 2-1m-5-3 1-1h1c0-2-1-2-3-1v3l1-1m-213-4c-1-1-2-2-1-3l-1-1c-2 1-2 3 0 4h2m-35-2-8-5a421 421 0 0 1 8 5m41-5 2-1-2-2h-5c-4 3-1 5 5 3m-22-2 6-5c4-2 6-6 6-9-1-1-1-1-1 1 0 1-1 2-2 1l-4 1v2l-3 2c-2 0-3 1-2 2l-1 1h-2l-1 1c-3 0-3 2-2 4 2 2 3 1 6-1m82 0c2-1 2-1 0-3l-2-2v3c-1 3-1 3 2 2m57-4c-3-4-3-4-3-1l1 3h1c1-1 1 0 1 1h1l-1-3m20 1c-1-4-8-12-11-12-1 0-2 0-1 1l2 2c2 0 2 1 2 3 0 4 0 5 1 3 1-1 1-1 2 1l2 4 3 1v-3m24 2c0-1-13-15-15-15l-2-1-2-1c-3 0-3 0-2 2 1 3 9 9 10 8 2 0 4 2 3 4l2 3h6m12-6-6-6-1-2-1-2h-1l-1 1-3 1c0 1 1 2 3 1 1 0 2 0 1 1-2 0-1 3 1 3 1 0 2 0 2 2l1 4 1-1v-1l2 5c-1 1 1 1 4 1h4l-6-7m23 3-1-2-1-1c1-1-1-3-3-7-4-5-4-5-8-4-4 0-8 2-7 2h8c1 1 2 2 1 3-1 3 2 9 6 11 5 1 5 1 5-2m21 0c-13-16-14-17-17-17l-3 1c0 2 3 5 5 5 1 0 4 3 6 7v1h-1l3 2 3 2 4 2c2 0 2 0 0-3m16-2-3-3 1 3 2 3 1 1-1-4m10 3-1-2v2l1 1v-1m-92 0-2-3-2-1 2 2 2 2m-59-8-4-5c1-1-8-2-9-1-1 0 0 2 2 3 2 0 4 2 6 4l3 1 3 1c3 4 2 2-1-3m21 2-3-1-1-5-6-1-4 1h2l3 2 2 2c1-1 6 4 6 4-1 1 0 0 0 0l1-2m113 1-1-4v-1l-1-1-1-2-1-2c0-2-1-3-3-3-3 0-3 1 0 5a805 805 0 0 1 7 8m-262-3c5-4 5-5 5-7l1-1h2c1-1 0-1-2-1-4 0-10 3-10 5l-1 2-2 1-1 1v3l2 1 6-4m219-2-1-1v1h1m-262-1-1-1h-1l1 1h1m151-5c1-1-2-2-8-2-8 1-5 2 4 3l4-1m29 1c0-1-6-2-7-1l3 1h4m-195-2-1-1-1 1 1 1 1-1m27 0-2-1-1 1 2 1 1-1m4 0-2-1v1h2m77-1 3-1-3-2c-3-2-15-2-21 0h-5l-3-1c-2 2-12 2-12 1 1-1-2-2-24-3l-22 1c-4 1-4 1-7-1l-2-2-1 4v3h5l7-1h2l23-1 12 1a433 433 0 0 0 48 2m9 0c2-1 3-3 1-4-2-3-8 1-6 4h5m13-2-1-1-1 1v1l2-1m10 0-4-2c-2-1-3-1-4 1-1 1 0 2 4 2l4-1m-132-1c0-1-4-3-5-2l1 2h4m303 0-6-1h-5l4 1h7m17 1-2-1h-2l2 1h2m-328-5-3-1v2l3 1v-2m159-5 3-1 5-2 4-1h5l7 2 10 2c5 2 19-1 23-6 2-2 5-3 5-1l1 1 2 1 5 3c5 1 16 2 17 0l9-1h12c3-1 6-6 5-7l-1 1s-2 2-5 2c-4 2-7 1-8-1h-1c0 2-2 3-4 2h-9l-2-1h-15c-1 0-1-1 1-1 3-1 4-5 2-5v-1l-3-1c-4-1-5 0-6 2h4-1l-1 1c1 1 0 1-6 1l-6 1h-1v-1l-1-1h-3c-2-1-2-1 1-1s4 0 4-2h-7l-7 2-5 2c-1 2-2 2-5 0l-3-3-3-1h-12l-3 1v3c-1 1-1 1-4-1l-4-3h-1c0 2-9 4-11 2l-13-1-3-1c0-2-3-1-5 1-3 4-3 4-6 1-2-2-5-2-6 0h-13c-2 1-2 1-5-1l-2-2-3 1 2 1v1l-3-1c-1-1-2-1-3 1l-2 1h-3c-2 1-3 1-4-1s-5-2-7 0h-5l-3 1c-2 0-9-3-8-4v-2c-1-2-1-2-3 0l-6 3c-3 0-3 0-5-3-1-4-1-4-5-4s-3 0-3 2c0 3-2 4-4 2h-3c-2 1-3 1-5-2l-3-5h-3c-3 0-3 1-3 3l2 4v2l3 1c5 0 11 2 11 4l4 2 5 1c2 1 6-1 8-4h2c2 2 6 3 8 3 1-1 9 1 11 3 3 4 14 4 19 1 3-2 4-3 6-2l8 1 12 2c5 2 15 2 19 0 2-1 4-2 7-1l8 2c4 0 6 1 7 2 3 2 6 3 7 1m131-2h-2v1l2-1m11-2c8 0 10-3 3-4h-15l-2 2c1 2-3 2-7 0s-5-1-3 2l8 1c4-1 6-1 7 1h2l7-2m-303-1-1-1c-1-1-2 0-1 1 0 1 2 2 2 0m29-3c0-1-4-4-8-4-3-1-3-1-2 1 1 4 9 6 10 3m209 0-1-1s-2 0-1 1l1 1 1-1m5 0-1-1-2 1 1 1 1-1m-236 0-1-2h-2l2 2h1m249-1-1-1-1 1v1l2-1m-246-3c-1-3-3-3-4-2 0 2 2 5 4 4v-2m238-1c0-2-2-2-3 0-3 2-2 3 0 2l3-2m-163-1-1-2c-2 0-3 1-2 2 1 2 3 1 3 0m25 0v-1l-1 1v1l1-1m112 1-6-1 4 1h2m-150-3-2-1 2 3v-2m18 1-2-1c-1 0-2 0-1 1l1 1 2-1m12 0c-2-2-3-3-1-3 1 0 2-2 2-6 0-5-1-6-3-6s-2 0 0 4v6c-2 2-2 2 0 4l2 2v-1m56 0c3-2 2-3-1-2l-3 2h4m40 1c0-2-2-2-2-1v1h2m47-1v-2h-4l-3 2h7m-240-2-3-4h-1l5 6-1-2m-4-1-2-1 3 3-1-2m91 0c1-2 1-2-1-3s-3-1-4 3c-1 2 3 1 5 0m158-2-2-1v2c1 1 3 1 2-1m-184-2-2-2-3 3v1h3c3 2 3 1 2-2m12 1c1-2-1-2-4-1h-3v-7c-4 0-6 7-2 9 1 1 7 0 9-1m93 1-1-2c-1-1-1-1-1 1l1 2 1-1m4-2-1-3v3l1 3v-3m97 1 2-1h-6v2h1l3-1m-275 1-3-3-4-1 3 2 4 2m136-2c3-2 4-4 2-4s-7 4-7 5c0 2 2 1 5-1m19-1c0-3 0-3-2-2l-1 3 1 2c2 0 2-1 2-3m29 2 2-1c0-2-3-1-4 0-1 2 0 2 2 1m46-1c-1-2-2-3-3-2-2 2 0 4 3 4 2 0 2 0 0-2m32 1h-2v1l2-1m56 0-1-1-1 1 1 1 1-1m-302-4c-1-2-2-1-1 2 1 2 1 2 2 1l-1-3m97 2h-3c0 1 1 2 3 1v-1m228 0c1-1 1-1 0 0-2 1-2 2-1 2l1-2m-339 0-1-3v-2l2 2 1-2-1-4-4 3-3 3 2 2c2 2 3 2 4 1m62 0c3-1 3-4 0-3l-3 2-3 1c-1 1-1 1 1 1l5-1m32-1-1-1-1 2 1 1 1-2m2 1v-1l-1 1v1l1-1m114 0c0-2-3-3-4-1l1 1h3m69 0-1-1-1 1 2 1v-1m-139-2v-3h-1v5l1-2m82 0h-1v1c0 1 1 1 1-1m12-4c2 0 2-1 1-1-2-2-5 1-6 5v3l2-4 3-3m30 3-1-4c-1-1-1 0-1 3 0 5 2 5 2 1m-223 1c0-1-1-2-3-1v1h3m17 1-2-1h-1l1 1h2m56-2h-1l-2 1c0 2 2 1 3-1m55-3 1-6c1-2 1-3-1-4-4-3-7-3-10 2l-2 4 5 1 3-1h1v4l1 4h1l1-4m104 2c0-3 0-4 3-7a125 125 0 0 0 15-35c2-2 1-5-3-8-4-4-8-4-12 0-3 3-3 3-2 1v-2l-2 2-2 4-1 4c-2 3-2 4 0 2h11c3 1 7 7 6 9l-4-3c-3-3-8-4-11-2-2 1-6 12-6 14h4l4 1 2 3c3 3 1 4-3 1h-7c-2 1-5 3-5 5l-2 3 4-1c3 0 4 0 6 2l2 1 1-1 1 5v5l1-3m4 1v-4c0-3-1-3-2 0-1 2 0 6 1 6l1-2m53-2c-1-1-1 0-1 2 0 1 0 2 1 1v-3m-347 2-1-1-1 1 1 1 1-1m267-1v-4c0-3 0-4 3-7 8-8 9-10 9-11l2-5c3-4 3-8 0-8v1c1 1 1 1-1 1l-2 1c0 2-3 1-5-3-3-2-4-3-7-3s-3-1-1-2l4-2c4 0 10 3 10 5s2 1 3-2c2-4 2-8 1-8l-1-1-2-4c-1-2-3-2-6-2-4 0-5-1-2-3 4-2 11 0 13 3 1 3 3 1 5-6l2-6-1 1-2 1c-2 0-3-1-3-2 0-2-4-6-7-5h-3l-6 11-9 21-9 19-1 2 5-2c4-2 4-2 7 0 4 2 6 5 4 7-2 1-2 1-5-1-2-2-3-3-7-3s-8 2-8 5l-2 3-2 3c0 2 10-5 11-7s1-2 1 0l-1 2v1l1 2 2 2 4 2 1 1c1-1 3 2 3 3 0 2 2 2 2 0m6-1c0-3 0-3-1-2v5l1-3m71 2-1-2v2l1 1v-1m7 1-1-1h-1l1 1h1m-342-1-1-1h-1l1 1h1m41-2c0-2-1-3-4-3-2 0-3 1-3 2-1 1-1 1 1 1 1-1 3 0 4 1 2 2 3 1 2-1m25 1-1-1-1 1 2 1v-1m232-3-1 2c-1 2-1 2 1 1v-3m-172 2c1-1 1-1-1-1l-2 1h3m19-2c-3-2-5-3-5 0l2 1 3 1 1 1-1-3m-101 0c0-2 0-2-1-1-1 2 0 3 1 3v-2m6-1c-1-1-4 0-4 2h2l2-2m122 2-3-1c-2 0-2 0-1 1h4m34-1-1-3v-5c1-1 1-2-1-2-5-2-6-1-9 4-2 4-2 5-1 5h3c1 3 9 4 9 1m121 0-1-1v1l1 2v-2m-266-1-2-1c-2 0-3 1-1 2 1 1 2 1 3-1m91 0 1-4c1-4 2-3-3-5-5-1-5-1-6 2-1 4-1 4 1 4l4 2c3 3 3 4 3 1m-146-1-1-1-1 1 2 1v-1m11-1c0-2 6-7 8-6v-1h-3l-1-1c-2-2-5 0-5 3l-2 5-2 2 2-1 3-1m68 1 4-3-1-3c0-4-3-3-6 1-5 6-4 7 3 5m25-2v-4c1-1 0-2-1-4-4-2-6-1-8 3l-4 4-2 2h7l5 1c2 0 3 0 3-2m18 0c3-5 4-6 1-6-2 0-3 1-5 4-4 5-4 5-1 5 1 0 4-1 5-3m172 1-1-1v2c1 2 2 1 1-1m5 1c-1-1 1-8 2-7v-3l-4-3c-4-3-8-3-8 0l-3 4-2 2 4 1c5 0 7 1 8 5l2 2v-1m-82-2c3 0 6-3 4-4l-3-1c-2 0-3 1-5 4s-2 3 0 3l4-2m97 0v-1l-1 1v1l1-1m-286-1-2-1-1 1 2 1 1-1m12-5-3-1c-1-1-2-1-3 1-2 2-3 2-1-1v-1c-3 1-2 3 1 6l2 2 3-3c3-2 3-3 1-3m97 4c0-2 0-2-1-1l-1 2c1 1 2 1 2-1m-137-1-2-2c-2-1-3 0-1 2h3m-13-1-3-2 2 3 1-1m169-12c4-6 4-7 2-8h-6l-4 1-6 12 9 3 5-8m71 2 2-6-2 1-4 1c-2 1-3 2-4 5l-2 4 3 1c4 0 4 0 7-6m-94 0c3-5 4-6 2-7-2-2-5 0-8 5-4 6-4 6-1 6l3 1 4-5m50-4v-7c-2-2-3-2-6-2-3 1-4 1-7 8l-4 8 3 1h5c3 1 6-2 9-8m-115 5c2-4 2-5-1-5-2 0-4 3-5 6-1 2 0 2 1 2 2 0 3-1 5-3m20 2-1-2c-1-1-1-1 1-1l1-1-2-1c-1 0-4 3-4 5h5m117-4 2-6c0-1-4-3-6-2l-6 12 4 1c3 0 4 0 6-5m-237 3v-4c1 0 2 1 1 2l2 1 4 1c2 1 3 1 6-2l6-3 1-1-2-1-2-2-1-1v2c2 5-11 4-24-2l-14-10-6-4c-3 2 3 10 8 11l3 3c1 4 4 5 7 4 2-1 3-1 5 1l2 2 2 2 3 2-1-1m29-3-1-2-1 3c0 3 0 3 1 2l1-3m16 2c5-2 7-3 4-3h-13c0 3 1 5 3 5l6-2m44-3-5 1c-1 2 2 3 4 1l1-2m57-2c2-4 3-5 0-6-3-2-6 0-9 5l-4 5h5c5 0 6 0 8-4m-153 3-2-1v1h2m73-3 8-2 1-1h-9l-8 3c-6 0-7 1-5 2s6 0 13-2m272-4c2-4 2-5 0-6l-5-2c-3 0-3 1-4 3l-2 3-1 2c0 1 0 2-1 1l-1 2c0 1 1 2 4 2l5 1c3 1 4 1 5-6m-328-1c1-1 1-1-1-1l-3 2c0 2 3 1 4-1m70 0 6-2 2-1-1-1c-3 0-4-1-4-5l-1-4-1 2v3c-2 3-2 4 0 3l-3 2-4 3c0 1 3 2 5 1l1-1m26 1-3-1v1h3m156-1 6-8 3-8-4-1c-3 0-4 1-5 2l-7 17 2-1 5-1m-232-3h-1l-1 3 1-1 1-2m24-1-1-2-2-4c0-2-1-3-2-3-3 0-3 1-1 4l1 5c0 2 0 2 2 1 1-1 2-2 3-1m121-4c4-6 3-7-2-7-2 0-3 2-5 6l-3 5 3 1 3 1 4-6m71-1 2-7c-1-2-5-1-6 1l-4 6c-3 5-3 6 2 6 2 0 3-1 6-6m-150 3 1-1-4-2c-1 0-4 3-3 4h3l3-1m57 0 2-4 2-3c3-3 1-7-4-6-3 1-9 10-8 12l2 1 3 1c0 1 1 1 3-1m46-4 3-6-2-2-4-2c-2 0-6 3-6 5l-1 1c-1-1-1 0 0 0l-1 2-1 2-1 2c-2 2-1 3 4 3l5 1 4-6m23 2 2-6c0-3-4-5-8-5-3 1-5 4-9 12h4l6 1 3 2 2-4m-96-2c2-4 2-5 0-2-3 4-4 5-2 5l2-3m210-2 5-2c1 0 2-1 3-5s1-5-1-6c-3-2-6-1-8 3l-3 5v2l-1 1v1c0 2 0 2 5 1m38-5c-1-1-1-1-1 1l-1 4 2-1v-4m-302 1-2-2 1 3 1 3v-4m-103-2h-1l1 2v-2m168 1v-1l-1 1v1l1-1m-55-2-2-2-1-2v1l-1 2c-2 2-1 3 2 3 2 0 3-1 2-2m102-5c2-5 3-6 1-6-4-2-8 0-11 7l-2 4h3c6 1 6 1 9-5m-78 2h-2l1 1c2 1 2 1 1-1m22-2c6-4 8-6 7-7-1-2-3-1-9 3-7 5-8 6-6 7s1 1 8-3m102-1 2-4-2-2c-2-2-3-2-6-1-4 0-6 1-8 5s-2 4 3 4l7 1 2 2 2-5m48-3c3-9 3-9-3-9-2-1-3 0-4 1l-7 15 5 1h6l3-8m-135 2 2-2c-2 0-5 4-5 6h1l2-4m67-11h-6c-4 0-5 1-8 7-4 7-5 9-3 7 2-1 10 0 11 1l4-6c4-7 4-8 2-9m45 10 3-6h-7c-2 1-6 9-6 11l3 1c4 0 4 0 7-6m-140 4h-2l2 1v-1m51-5c2-4 2-4 0-6-3-2-4-1-8 4l-3 5 2 1 4 1c2 1 2 1 5-5m148 3c3-3 8-4 12-1 3 1 4 1 4-1l1-1v-1l1-1v-1c0-3-6-7-9-7-4 1-4-1-1-4l6-1c3 1 4-1 1-2l-1-2c1-2-4-2-8 1-2 2-5 9-4 11l-1 2-2 4-2 4-1-1-1 2c-1 3 2 2 5-1m25-4 4-1 4 1 1-5c2-6 4-7 4-2-1 4 0 4 1 1 2-3-1-10-3-10h-4c-3-1-5 1-7 7l-2 7v1l1 2v1l1-2m29-3h-1l1 2v-2m-224-4c3-2 4-5 3-6l-7 4c-5 4-6 5-4 6s3 0 8-4m-37 0c0-3-1-4-2-1v2c2 1 2 1 2-1m85-3c4-5 3-7 0-7s-10 6-11 9c-1 2 0 2 3 2l5 1 3-5m144-1v-1h2l-1-2-1-2-1-1-1 3-1 4v3l1 2 1-2 1-4m-100 2v-5c0-2-1-2-6-1-6 0-7 0-8 5l-1 3h7c6 0 6 0 8-2m24-1c3-3 5-8 4-8-2-2-7 0-11 4l-3 5 10-1m-87-1v-3c-2 0-4 2-3 4 0 1 3 1 3-1m34-1 5 2c2 1 2 1 3-3 2-7-1-9-6-5l-5 3c-1 0-4 3-4 5h2l5-2m-38 0-3-1c-3 0-3 3 0 3 2 0 3-1 3-2m111 0c3 1 3 1 4-2 1-5-3-8-6-5l-2 1-1 1v2l-2 3c-1 2-1 2 1 1l6-1m32 0v-1c-2 1-2 3-1 3l1-2m19 1-1-1-1 1 2 1v-1m-153-5h-1c-1 1-2 2-1 3 0 2 0 2 1 0l1-3m132 1h-2c1-4 0-5-5-5-6 0-10 2-10 4s2 3 3 1c0-2 6-1 8 1h4c2 2 4 1 2-1m-127 1-1-1-1 1v1l1-1m175-3-1-2-1-2v1h-6l4 2 3 3h1v-2m-41-3c-2 0-2 1-1 2h1v-2m30 1h-2l-2 1h2l2-1m-137-5c0-1-1-2-3-2-3-1-3-1-2 2 2 2 4 2 5 0m-34 0-1-1-1 1 1 1 1-1m5-4c0-2 1-4 3-5 3-3 4-4 1-4l-1-2c0-3-1-3-4 0l-1 2c3-1 4 1 1 2-2 1-3 5-2 7 1 3 3 2 3 0m14 1h2l2-3-1-3-4 4-2 1-3 1h6m35 0-1-1c-3 0-2-7 0-9 2-1 2-1-5-1-6 0-7 0-8 2l-2 2v5c1 2 1 2 5 2h3l4 1 4-1m70 0h-2v1l2-1m-88-2h1l-1-1-1-1c1-2 0-2-1-2l-2 1-1 3c0 2 0 2 2 1 1-2 2-2 3-1m44 0c0-3 4-6 8-6h4c1-2 3 4 2 6 0 2 0 2 4 2 9 0 19-1 19-3l2-4 3-3a137 137 0 0 0-32-1h-26c-5 0-6 1-4 1 3 1 4 4 2 4l-2 3-2 2v-8c-2 0-2 7-1 8l13 1h11l-1-2m9 0-1-1h1l1-1c0-2-3-2-5-1-1 3-1 4 3 4 1 0 2 0 1-1m-112-2 2-2c0-2-1-3-2-3-2 0-2 1-2 4 0 2 0 3 1 2l1-1m116 2-1-1h-1l1 1h1m-80-5h-2v1l2-1m-15-1v-1l-1 1v1l1-1m23 1-1-3c-1-2-2-3-3-2-3 1-2 2 0 4l4 1m-37-5-1-1-1 2c0 1 0 2 1 1l1-2m56-4c2 1 3 0 2-3 0-2 0-2-2-1-1 3-3 2-1-1l1-7a120 120 0 0 1 5-20c0-2 0-3-6-6l-6-4 2 5c2 3 2 5 1 10 0 5-1 10-3 13l-5 16h2l4 1c1 1 2 0 3-1l3-2m-52 1h-3c1-1-1-2-3-1-1 1-1 1 1 2 3 1 6 1 5-1m3-13c0-6 0-7-2-8h-3l1 1c2 0 3 4 3 10v4l1-7m3 0c-1-1-1 0-1 1 0 2 0 3 1 2v-3m1-3-1-1-1 1 2 1v-1m27-2c1-2 0-3-1-3h-1l-1 1c-1-1-3 3-2 4s4 0 5-2m-26-2-1-2-1 3 1 1 1-2m21-2c1-3 1-6-1-6-3-1-4 0-2 2s1 3-1 1c-1-1-2-3-1-5l-1-2 1-2c2-3 6-7 8-6l2-1h3l4 1 3 1c3 2 2-1-1-3-2-1-4-2-5-1l-2-1h-3c-8 2-12 7-12 15l2 6c1 2 5 2 6 1m-19-6-2-5-1 5c1 4 1 5 2 4l1-4m47 0c-1-1-1 0-1 1l1 1v-2m-23-2-1-1-1 1v1l1-1m-4-2v-3l2-1h1c-2-2-6 0-6 3 0 2 1 3 3 1M198 601h1l1 1h-1l-1-1m135-3-1-36a284 284 0 0 1 2-31v21l1 2-1 1h-1l2 2v9l-1 2h2l1 2-1 2v1l1 1 1 2c0 2 0 2 1 1l1-2c2 0 1 24 0 24h-3c-1 1-2 0-4-1m5-16-1-3v7h1v-4m24 10v-5l4 4c0 1-3 2-4 1m-23-21v-11c1-4 1-4 1 4l-1 8v-1m-7-49c0-2 0-2 1-1v2c-1 1-1 1-1-1m214-133 2-1h1c-1 2-3 2-3 1m6-1v-2l1 2v2l-1-2m8-29v-1l2 1-1 1-2-1M550 86l-1-2-1-1c-1-1-1-3 1-4 3-4 7 1 5 6-1 2-2 2-4 1m-42-1c-1-1-1-3 1-6 1-2 1-2 3 0 1 0 2 2 1 3l-5 3M366 569v-3l1 3c0 4-1 4-1 0m-1-7h1v1c0 1-1 1-1-1m-107-60h-3v-1c1-1 1-1-1-1-2-1-2-1-2 1h-1v-2c1 0 1-1-1-2-1-2 0-1 3 1l6 5-1-1m28 5 1-2v-1l1-1v3c-2 2-3 3-2 1m-7-11v-1l1 1h-1m-42-84 1-1 1 1-2 1v-1m-8 0 3-4 2-2-2 2v3l-1 1h-2m231-29h1v2l-1-2m-142 15 1-1 1-1c0-2 0-2 2 0l1 1-2 1h-3m26 4 2-2-1 3c-2 1-2 1-1-1m-298 0h2l-1 1c-1 0-2 0-1-1m310-15-1-1h1l1 1h-1m50-1 1-1c1-1 1 0 0 0 0 2-1 2-1 1m-295-17v-1l1 1v1l-1-1m200 6-2-1c-2 0-2-1-1-3l2-1h3v3l-1 2v1l-1-1m-18-12 1-2-1 2c-1 1-1 1 0 0m-63-2c2-3 2-4 2-2l-2 3v-1m127-19 1-5h2l2 2 1 3c0 3 0 3-2 2-2-2-2-2-3 0-1 1-1 1-1-2m-24-4c-2-1-1-2 1-2l2 1c-1 2-2 2-3 1m-85-3h2l-2 1v-1m242-71 1-1 1 1-1 1-1-1m-27-37 1-1 1 2h-1l-1-1m-7-8v-2c1-1 2 0 2 1v2l-2-1m-14-34-1-2c1-1 2 1 2 2h-1m-66-26 2-1-2 1c-1 1-1 1 0 0m116-56 2-1-2 1c-1 1-1 1 0 0Z" fill="currentColor"/></svg>