<svg xmlns="http://www.w3.org/2000/svg" viewBox="0 0 564 561"><path d="M308.6 503.5c-.4-2-.5-4-.2-4.4 1.6-2.5-.8-4-7.7-4.6-19-2-42-15-53.2-30.3-4.4-6-11.9-24-11.3-27 .3-1.5 3-1.8 22.8-2.3 12.4-.4 52.4-.7 89-.8h83.8l17.2-.1-2-4a13 13 0 0 0-4.5-5.2c-1.4-.6-2.5-1.4-2.5-1.9 0-1.4-6.1-3-7.9-2-.9.6-1.2 1-.7 1s.3.8-.4 1.6c-1.8 2.2-7 1.9-15.4-1-4.1-1.4-8.5-2.6-9.8-2.6-1.9-.1-1.8-.3.7-.8l3-.7-3-.7c-3.4-.7-10.2-6.4-10.5-8.7-.1-.8-.2-3.4-.1-5.6 0-3.2.6-4.3 2-4.7 1.4-.3 1.8-1 1.4-3.1-.5-2.5-.3-2.7 2-2 1.3.3 2.8.1 3-.4.4-.6-.5-1.3-1.9-1.6-1.7-.5-4 .1-7.4 2-4.3 2.3-4.9 3-5.4 6.8-1 6.2-2.9 8-7.7 7.9-4.5-.2-7.3-1.9-6.4-4 .3-1 0-1.3-1.4-.8-1 .3-3 0-4.5-.6-2.4-1.1-2.5-1.4-1.1-3.5s1.3-2.2-1-2c-3.2.4-5.3-2.8-3.4-5 1-1.2.6-1.4-2.2-1.5-2.4-.1-2.7-.3-1.1-.6 1.8-.4 2-.8 1.2-2.4-.6-1-1.8-2-2.8-2-1 0-1.2-.3-.4-.6.6-.2 1.2-1.8 1.2-3.5 0-3.4 5.9-9.9 8.8-9.7 1.4 0 1.4.2.2.6-1.2.5-5 4.1-5 4.8l3 .3c2.3 0 2.8-.3 2.3-1.6s0-1.2 1.8.5c2.3 2.1 2.6 2.2 4.2.6 2.4-2.4 2.3.3 0 3.1-1.4 1.6-1.5 1.8-.2.8 1-.7 2.5-1 3.5-.6 1.5.4 1.6.3.5-.4-.8-.6-1.1-1.7-.7-2.8.4-1 .1-2-.6-2.6-.8-.5.5-.7 3.2-.6 3.4.2 4.5 0 4.5-1.2 0-1-.8-1.4-2-1.2-1.4.2-2.6-.6-3.5-2.3-.7-1.4-2.1-2.5-3-2.5-3.1 0-4.5-2.8-3.2-6.2.6-1.7.9-3.5.6-4-.3-.4.4-.8 1.5-.8 1 0 2.2-.4 2.5-.8.6-1-3-4.3-3.8-3.4-.3.3-.6-.3-.6-1.4 0-2.2 1.7-4.9 6.6-10.2 3.3-3.6 3.4-3.7 6.1-2 1.6.9 3.2 2.5 3.8 3.6 1 2.3 3.7 2.4 7.3.3 1.3-.7 2.6-1 3-.7.3.3 0 .6-.5.6-1.7 0-2.3 4-.7 4.1l2.6.3c.8 0 1.3 1.6 1.3 3.8 0 3 .2 3.4 1.4 2.5 1.1-1 1.3-.8.7 1-.6 1.7-.3 2.3.8 2.3 2.2 0 3 4.2 1.7 8.3-1.3 3.8-4.7 7.4-5.8 6.3-.4-.4 0-1.1.7-1.6 1.3-.8 1.3-1-.1-1-1 0-2 .7-2.3 1.5-.3.8-.1 1.5.4 1.5.6 0 1 .4 1 1 0 1.7-4.8 1-5.5-.8-.6-1.5-.8-1.4-2 .8-1.5 3-2.7 21-1.3 21 .5 0 2.6-.9 4.8-2 2.2-1.1 4.6-2 5.4-2 2.1 0 3-2 1.5-3.2-1-.7-1.1-1-.1-1.5.6-.2 1.2-1.3 1.2-2.2 0-1 .9-2.6 2-3.6s2-2.6 2-3.5c0-1 1-3 2.2-4.5 1.8-2.3 2.3-4.5 2.6-12 .6-13 .6-13.5-.2-18.5-.6-3.5-.5-4.1.4-2.8.6 1 1.9 1.8 2.8 1.7 1 0 1.2-.3.5-.5-.7-.3-1-1.8-.6-4.2.6-3.3.5-3.6-1-2.4-2 1.6-3.8.8-3-1.3.3-.8 1-1.2 1.7-.8 1 .7-.7-1.9-3-4.4-1-1-1.3-1-1.7 0-.6 2-2.7-8.9-2.7-14.5v-5l2 2.3c1.7 2.2 2 2.2 2 .5a5 5 0 0 1 1.8-3.2c1.6-1.3 1.6-1.5-.2-2.8-1-.9-1.6-2.2-1.3-3 .4-1 .1-1.6-.6-1.6-.6 0-.4-.5.6-1 1-.7 1.4-1.6 1.1-2.2-.4-.5-1.4.3-2.5 1.9-1.3 1.9-1.9 2.3-1.9 1.1 0-1-.6-1.5-1.9-1.1-1 .3-3.8-.5-6-1.7-4-2-4.2-2.2-2.5-3.6 1.8-1.4 1.8-1.5-.3-.9-1.7.5-3.1-.2-5.7-2.7l-6.7-5.8c-4.7-3.8-6-5-5.8-6.3 0-.8.2-.8.6 0 .7 2 1.9 1.5 3.1-1.2 1-2 .9-2.5-.2-2.5-.8 0-1.6-1-2-2.3-1-3.8-.5-4.4 1-1.2l1.4 3-.6-3.5c-.9-5.5-1.5-7-2.6-7-.7 0-.6.6.2 1.5.7.9.8 1.5.2 1.5-1.2 0-2.4-2.9-1.7-4 .4-.6.1-1.8-.4-2.8-.7-1.3-.6-2.7.5-4.7 1.6-3 1.4-3.5-1.3-4-1.3-.1-2-1.5-2.7-4.7l-.9-4.5-8.8.1c-7.3.2-9.3.6-11.1 2.2a21.4 21.4 0 0 1-9.2 4.8c-1 .1-2.2.9-2.6 1.7-.7 1-1.2 1-2 .3-1.2-1.2-5.3-.7-4.6.5.2.3-.2 1.2-1 1.9s-1.4 1-1.4.5c0-1.5-11.5-1.2-16 .4-7.6 2.7-10 3.8-10 4.7 0 .4-.6.6-1.4.3-.8-.3-2.4.1-3.6 1-2 1.4-2.3 1.3-3.5-.3-.8-1-1.4-1.5-1.5-1 0 .5-1 0-2.4-1.3-1.5-1.4-2.6-1.8-3-1.2-.8 1.3-4.6-.8-4.6-2.5s-6.3-4.1-6.8-2.6c-.2.7-1 1.2-1.8 1.2-1 0-1.3.6-.9 2 .4 1.2.1 2.8-.5 3.6-1 1-1 1.4 0 1.4.9 0 1 .4.2 1.3-1.4 1.6-6.7 2-9.2.7-1.4-.8-2-.8-2 0 0 .6-1 .8-2.5.4-1.9-.5-2.5-.2-2.5 1 0 .9-.7 1.6-1.6 1.6-.8 0-1.3.4-1 1 .4.5-.4 1.2-1.8 1.6-1.3.3-3.7 2.3-5.2 4.5-2.9 4.2-4.8 4.6-2 .5 2-3.2 2-4.2 0-2.5-1.6 1.3-1.6 1.2-.4-1.1 1.2-2.3 1.2-2.4-.4-1-1 .7-1.5 1.8-1.3 2.4.3.7-.2 2-1 3.1-1.5 2-1.5 2-1-.2.3-1.5 0-2.3-1.4-2.6-1-.3-2 0-2.3.7-.3.7-.8.6-1.5-.4-.8-1.1-1-1.1-1-.2 0 .7-.5 1-1.1.7-.6-.3-1-.2-1 .4 0 1.5 2 2.4 2 1 .1-.8.6-.2 1.2 1.4 1.3 3.5 3 3.5 2.2 0-.4-1.6-.3-2.4.2-2 .4.4.9 1.4 1 2.1.1.8.5 2.3.9 3.5.7 2.2-1 3-1.8.9-.3-.7-.6 0-.6 1.7 0 2.3.2 2.6.9 1.5.9-1.4 1.4-.7 1.1 1.3 0 .4 1.4 1.4 3.3 2.2 4.4 1.8 5.2 1.9 3.8.2-1.3-1.5 1.7-8.2 4.6-10.4 1.7-1.4 5.6-1.8 4.8-.6-.5 1 4.5 1 5.9.2.6-.4 1.9-.5 3-.3 1 .1 3-.5 4-1.4 1.2-1 0 .4-2.7 2.9l-4.8 4.5h6.1c3.3 0 6.3.2 6.5.6.3.5-.8.8-2.3.8-4 0-4.8 1-5.2 6a13 13 0 0 1-2 6.3c-.8 1-1.1 1.8-.6 1.7 2.4-.5 2.7.1 1 1.6-2 1.5-2 1.5.2.5a6.6 6.6 0 0 0 2.7-2.3c.5-1 .7-1 1.2 0 .3.6 2 1.2 3.7 1.2 1.8 0 5.6.9 8.5 2 6 2.3 8.8 2.6 5.2.5-4-2.3-1.6-1.7 6.7 1.6 4.3 1.7 9.3 3.1 11.1 3 1.9 0 5.5 1 8 2.5 2.7 1.4 3.6 2.2 2.2 1.9-2.2-.5-2.3-.4-.7.5 1 .7 2.5 1 3.3.6.8-.3 1.4 0 1.4.5 0 .6.4.7 1 .4.6-.3 1-.2 1 .3s.6 1 1.3 1c.6 0 8.6 3 17.7 6.5 18 7 26 9 26 6.4 0-.9-.4-1.8-1-2.2-.5-.3-1.4-2.4-2-4.6-.6-2.1-2.2-5.6-3.6-7.7a96.6 96.6 0 0 1-7.5-13.7c-.4-2.8-1.3-4.4-2.2-3.8-.5.3-.7.2-.4-.4.4-.6-.2-2-1.3-3.3-1.1-1.3-2-3-2-3.7 0-.7-2.5-4.3-5.5-7.9-3-3.6-5.3-7-5-7.4 1.1-1.8-.4-1-2.5 1.3l-2.1 2.2 1-2.8c.7-1.7.7-2.7 0-2.7-.5 0-.9-.7-.9-1.5 0-2-1.4-2-3.3 0-1.3 1.3-1.6 1.2-2-.5-.3-1.3.1-2.1 1.4-2.5 1-.4 1.9-1 1.9-1.6 0-1.7 1.9-1 2.5 1 .3 1 1.3 2.2 2 2.5 1 .4 1.4.2 1-.5-.5-.7 0-.7 1.5 0 1.4.9 2 1.8 1.5 2.9-.3.9-.3 1.3.1 1 .7-.7 9.4 12.3 9.4 14 0 .5 1.4 2.1 3 3.8 4.2 4 11.4 14.9 14.6 22 4.4 10 5.8 12.4 9.3 15.7 2.9 2.7 3.3 2.9 2.9 1.1-.3-1.2 0-2 .7-2s1.2.7 1.1 1.5c0 1.3 1 1.6 4.6 1.6 2.7 0 4.9-.3 5-.7l.2-1.7c.2-1.8 1.4-2.2 2-.6.3.8 0 1.5-.5 1.5-.6 0-.6.6 0 1.8.4 1 .6 2.2.4 2.9-.4 1.1 4.6 4.4 7.5 5 2 .3 2.2.7 1.6 3-.5 1.6-1.6 2.4-4.3 2.9-5.5.9-6.4 1.3-5.7 3 .3.7.1 1.4-.4 1.4-.6 0-1-1-1-2.3 0-1.8-1.1-2.5-6.5-4.3-4.6-1.4-6.8-1.7-7.6-1-.7.8-.8.6-.3-.7.3-1 .3-1.7-.2-1.5-.5.2-5.4-1.2-10.9-3l-14.3-4.2c-2.7-.7-4-1.5-3.6-2.2.4-.6.3-.8-.3-.5-1 .6-9.2-2.1-13-4.3-4.2-2.2-11.5-5-20.8-7.8-10.5-3.1-17-6-17.2-7.7 0-1-13.3-5.5-20.2-7-2.8-.6-3.3-.5-2.8.8.9 2.3-.8 7.3-2.4 6.9-.8-.2-1 0-.7.4.4.4.3 1.3-.3 2a13 13 0 0 0-1.5 5.6c-.5 5.2-.9 5.6-3.6 3.2-2.3-1.9-2.3-1.9-.6.2 1 1.1 1.8 2.4 1.8 2.7 0 1.4-4.4.6-5.6-1-1.2-1.6-1.3-1.6-1.4-.2 0 2.4-3 3.2-5 1.3-1.7-1.4-1.9-1.4-2.9.3-.6 1-1 1.3-1 .7 0-.5.6-1.9 1.4-3 2-2.6 1.9-3-1.1-3.8-2.5-.7-2.5-.8-1-2.5.9-1 1.6-2.4 1.6-3.3 0-.8 1-2 2.3-2.6 1.9-.9 1.6-1-2.3-.9-4 .2-4.5 0-4.8-2.1-.3-1.9-.6-2-1.8-1.1-2.1 1.7-1.7-.5.7-3.5 2.3-2.9 6.5-5.2 8.9-5l2.7.3c.6 0 1 1.5 1 3.4-.4 5.4-3 7.7-4.2 3.7-.6-1.8-2.5-2-2.5-.2 0 1.2 5.6 4.2 7.9 4.2 1.2 0 2.1.6 2.1 1.5 0 1.7 3.7 2 6 .5 1.2-.8 1.1-1-.6-1-1.2 0-2.4-.7-2.8-1.5-.3-.8-1.4-1.5-2.5-1.5-1.5 0-1.8-.5-1.3-2.3a7 7 0 0 1 2-3.3c.8-.6 1.2-1.6.8-2.2-.5-.9-16-6.2-18-6.2-.3 0-.7 1.7-.7 3.8-.2 3.6-.2 3.6-.8.7-.8-3.8-2.9-4.3-3.7-1-.5 2-1.2 2.5-2.4 2.2-1.6-.4-1.7 0-1 2.6.8 2.4.7 2.8-.2 1.9-1.8-1.8-2.8-1.4-2.9 1 0 2.2 0 2.2-.8.3-.7-1.7-.9-1.5-1.3 1.3-.4 2.7-.2 3.2 1.1 2.6 5.7-2.4 8.5-1.3 9.5 3.7.3 1.7 1 2.8 1.6 2.4.5-.3 1 0 1 1 0 .8-.4 1.5-.9 1.5s0 1.7 1 3.7c3.8 7.6 1.2 13.1-5.4 11.2-4-1.2-3.9-1.2-3.5 1 .2 1-.9 3-2.4 4.4l-2.7 2.5.4-4.2.4-4.3-3.8-.1c-2.8-.1-4.3.4-6.1 2.3-1.3 1.4-2.8 2.5-3.3 2.5-.4 0 .5-1.1 2.2-2.6 1.6-1.3 3.7-3.8 4.5-5.4 1.5-3.1.7-4-1.3-1.6-1.8 2.1-5 2.6-6.6 1-2-2-2-6.8 0-8.4.8-.7 1.5-1.7 1.5-2.3 0-.6-.9-.2-1.9.7-1.3 1.2-2.1 1.4-2.6.6-.4-.6-1.3-1-2-.6-.8.3-1.1-.2-.8-1.5.7-2.5-1.9-3.4-4.9-1.8-2 1-2.1 1-1-.2.9-1.2.8-1.8-.7-2.8-1.5-1.1-1.7-1.8-.8-4.2a8.8 8.8 0 0 1 3.6-4c4.4-2.3 5.4-4.9 2-4.9-3.4 0-9.9-2.2-9.3-3.1.3-.5-.2-.6-1-.3-1 .3-2.2.2-2.9-.4-1.2-1-7-2.6-14-3.7-3.3-.5-3.6-.8-2.7-2.6 1.4-2.6 8.7-2.6 13.2 0 5.3 3 27.6 2.8 26.5-.3-.3-.6-1-1-1.5-.9-.6.2-2.4-1.3-4.1-3.3-3.8-4.3-7.5-4-8.5.7-.3 1.9-1.2 2.9-2.3 2.9-1.5 0-1.6-.2-.3-1s1.3-1-.1-1c-1 0-1.7-.9-1.7-2.5 0-1.4.5-2.5 1-2.5s.7-.4.3-1c-.3-.5-1.4-.2-2.6.8-1 1-1.5 1.8-1 2 .7.2.9.8.5 1.3-.3.5-1.2.5-2.3 0-1-.6-2.2-.7-2.7-.3-.5.4-.3 0 .4-1 1.7-2.1 0-3.3-4.3-3l-3 .1 3-1.1 3-1.2-2.5-.7c-2.3-.6-2.3-.7-.3-.8 2.3-.1 4.3-2.1 2.1-2.1-.7 0-1.9-.9-2.6-2-1-1.7-1-2 .3-2 .8 0 1.8-1.4 2.3-3.3l1-3.2 1 2.8c.6 1.5 1.4 2.7 1.6 2.7.3 0 .3-.7 0-1.5-.8-1.9 4.7-7 5.7-5.4.3.6 1 1 1.3 1 2-.3 2.6.1 2.6 1.8 0 1.1 1.6 3.2 3.5 4.6 1.9 1.5 3.7 3.5 4 4.6.8 2.6 2.1 2.4 5.2-.7 2.7-2.7 4.7-3.3 12.3-3.8 2.5-.1 6.5-.9 9-1.6a70.3 70.3 0 0 1 9-2.3l9.8-3.3c4.5-1.5 8.2-3 8.2-3.5s.6-.9 1.4-.9c1.3 0 3-2.7 2.8-4.3-.4-1.8 5-2.6 8.7-1.3 2.9 1 5.3 1 8.8.4 2.6-.5 8.4-1.2 12.8-1.5 6.1-.4 8.5-1 10.2-2.5 1.2-1.1 2.6-1.7 3.2-1.4.5.3 1.3-.3 1.6-1.4.4-1.2 1.1-1.8 1.8-1.4.7.4.2-.3-1-1.5-2.5-2.4-2.3-3.5.8-5.2 1.7-.9 2-.8 1.9.8-.4 3.6 0 6.3 1 6.3.6 0 1-.7 1-1.6 0-1 .5-1.4 1.6-1 .9.3 2.1.3 2.7-.1l2-1 1.4-.3 1.8-.4c2.4-.5 6.5-2.6 6.5-3.4 0-.5 1.7-1.4 3.8-2 6.5-2 11-2.1 14-.6s3.9.6 2.2-2.6c-.9-1.6-.8-2.4.4-3.6.9-.8 1.6-2 1.6-2.7 0-1.6 3.6-3.8 7.1-4.4 2-.3 3.2.1 4.1 1.6 1.5 2.5 2.4 2.6 3.2.5.3-.8.2-1.2-.4-.9-.6.3-1-.4-1-1.6 0-1.8.3-2 1.5-1 1.1 1 2.5.9 6.8-.8 5.8-2 9.7-1.9 9.7.6 0 .9 1.1 3.6 2.6 6.2 1.8 3.4 3.4 5 5.7 5.7 2.4.7 3.3 1.6 3.8 4.1.4 2.1.2 4-.7 5-.7 1-1.3 2.9-1.4 4.2 0 1.4-.9 4.3-1.9 6.5-4 8.8-4.8 13.5-3.5 21.7.8 4.6 3.6 6 12.1 6.5 7.4.4 14 2 16 4 .8.8 2.3 1.4 3.4 1.4s1.8.4 1.5.8c-.2.4.3.8 1.2.8 1 0 2.4.4 3.3.8 1.4.6 1.4.1.5-4.3-.7-3.9-.7-5.6.4-7.8 1.7-3.5 1.7-3.6 1.9-7.3 0-2 .6-3 1.7-3 1.4 0 1.4-.1 0-1.6-2-2-1.2-6 2-9.4l5-5.5c1.4-1.7 3-2.9 3.6-2.7.5.1.7-.6.3-1.7-.5-1.6.5-2.7 4.5-5.3 4.7-3 5-3.4 3.2-4.6-1.6-1-1.8-2-1.1-6 1.2-7.4 1.1-7.6-3.6-10.2-2.5-1.3-4.5-3-4.5-3.7 0-2-1.2-1.6-4.2 1.2-1.5 1.4-3.2 2.5-3.7 2.5-2.4 0-7-3.7-9-7.3-2-4-2-4.1-.4-7.6 1.6-3.1 2.2-3.5 4.8-3.3l3 .4-2.5-2.8-3.5-3.9c-3.4-3.2-4.2-5.6-3.1-8.8 2-5.6 2.4-6 7.2-5.2 3 .4 4.4.3 4.4-.5 0-.6.7-1.8 1.5-2.6 1.9-2 8.4-.8 9.3 1.5.3.9 1 1.9 1.5 2.3 1.6 1 1.6 7 0 10.6-1.3 3.2-1.3 3.3.6 2.7 1.2-.4 2.1-.2 2.1.4 0 2.5 2.8.8 4.4-2.5 1-2 2-3.4 2.3-3 1 .9-.7 9.6-1.9 9.6-.5 0-.8.7-.4 1.5.3.8 0 1.5-.5 1.5-.6 0-.8.7-.5 1.5.3 1 0 1.5-1 1.5-.7 0-1.4.4-1.4 1s.6 1 1.4 1c1.7 0 2.9 4.1 1.6 5.4-1.5 1.5-1.2 2.9.4 2.3.9-.4 1.7.1 1.9 1.1.2 1 .2.1 0-1.8-.2-2 0-4 .4-4.6 2.6-3.7 14.5-5.4 21.3-3 6.5 2.4 16.2 9 18.3 12.6 2 3.3 5.2 4.5 9.7 3.6 1.7-.3 3-.1 3 .4 0 .6.7 1 1.6 1 1.8 0 4.6-2.5 3.7-3.4-1.5-1.4 1.2-.4 3 1.1 1.6 1.5 2.6 1.6 8.8.5 9.2-1.6 13.7-1.5 15.5.2.8.8 3.5 1.8 6 2.2l4.5.7-.4 5c-.4 4.4-2.3 7.5-3.6 6-.3-.2 0-.8.8-1.2 3.1-2-3.9-6.3-9-5.7l-8.4.5c-3.9 0-5.6.7-7.8 2.6-1.5 1.4-2.7 2.1-2.7 1.6 0-.6-1.7-1.3-3.7-1.7-2.9-.6-4.6-.2-7.5 1.5-2.1 1.2-4.4 1.9-5 1.4-.7-.4.3 1.2 2.2 3.5 3.3 4 3.7 4.1 8 3.8l5-.7a17 17 0 0 1 3-.4c1.4-.1 3-.4 3.5-.6.5-.2 1 0 1 .6s1.4 1.3 3 1.6l3 .7h-2.8c-1.5.1-2.7.6-2.7 1.2 0 .5-1.6 1.7-3.6 2.5-4.4 1.8-5.8 1.9-2.5.1 1.3-.7 2-1.5 1.5-1.8-1.8-1-10.2-1.9-10.8-1-.6 1 7.5 9.2 12.3 12.4 4.1 2.8 4.8 4 5.6 10 .5 4.2 1 4.7 5.7 7.3 4.5 2.5 5.5 2.7 8.2 1.7 2-.8 3.4-.8 4-.2.7.7.4 1-.6 1-3.2 0-2.8 1.8.8 4 4.3 2.7 3.9 3.6-.7 1.6l-10-4c-8.2-3.3-9.4-4.7-11.2-11.6-1.1-4.5-2-5.9-4.8-7.5a55.6 55.6 0 0 1-8.9-8l-13.6-14c-7.1-7-11.4-13.2-11.4-16.3 0-1.2-3-3.6-6.4-5-2.6-1.2-2.8-1.1-1.6.3 1 1.3 1 1.4-.4 1-.9-.4-1.6-1.2-1.6-1.7 0-1.3-4-4.8-5.3-4.8-.6 0-.1 1 .9 2.2l1.9 2.2-2.5-1.6c-2.4-1.5-2.7-1.4-4.9.3-1.3 1-2.7 1.7-3.1 1.4-.4-.3-2.2.8-3.9 2.4-3.4 3.2-3.8 5.5-1.6 11.6.8 2.2 1.1 4.2.7 4.5-.4.3-.8 2.3-1 4.5-.3 5-1.9 8.2-5.6 11.5l-5.7 5.3c-1.5 1.5-3.2 2.7-3.8 2.7-1 0-1.6 3-1.2 5.4.1.5-.8 2-2 3.2-1.8 2-2.4 4.2-3 11.6-.6 5.1-1 10.2-1 11.3 0 1-.6 3-1.3 4-.8 1.2-1.4 4.6-1.5 7.6 0 6.1-1.4 11.5-2.7 11.2-.5 0-1.4 1-2 2.3-.7 1.3-.8 2.4-.3 2.4s.7 5.9.4 13.4c-.5 15.4-.8 15 10 16 5.9.6 6.2.6 7.3-2 1.6-3.3 1.5-3.7-.3-3-.8.3-1.5 0-1.5-.7 0-1-.2-1-.8 0-.5.8-1.3.9-2.2.3-1.4-1-1.3-1.1 1.2-1.4 2.1-.2 2-2.6 0-2.6-1.9 0-2-.3-1.2-2.6.9-2.2.8-2.5-.8-2-1 .3-3 0-4.4-.8-2.7-1.4-2.8-1.4-2.9 1.2 0 2.4-.1 2.5-.9.7-1.5-3.6-1-6 2.2-11 4-6.3 4-6.3 4.5-4.8.8 2.3 1.8 1.4 3.8-3.7 1.5-4 2.3-4.9 3.7-4.4 1 .3 2 0 2.4-1 .3-.7 1.3-1.2 2.3-1 1.3.4 2.2-.3 3-2.5.8-1.8 1.8-3.4 2.3-3.7.5-.4.2.8-.7 2.6-1.9 3.7-1.6 8.4.5 8.8.8.1 2.6-1.4 3.9-3.3 1.3-2 2.6-3.3 2.9-3 .2.2-1 2.1-2.7 4.2-1.7 2-3.1 4-3.1 4.5 0 1 3-.2 5.5-2.1 1.7-1.4 1.8-1.4.8 0-1.4 1.7 0 3.9 2.5 3.9.7 0 1 .4.8 1-.4.4-.2 1.9.3 3.2.6 1.6.5 3.4-.5 5.7l-1.4 3.6c0 .2 3.7 0 17.3-1 5.7-.5 7.7-1 7.7-2 0-2 3-1.9 3.6 0 .3.8 1.8 1.5 3.3 1.6 2.2 0 2.3.1.7.8-1.6.6.6 1.9 9.7 5.6 6.4 2.7 11.5 5 11.2 5.3-.5.6-14.7-5.3-20.2-8.3-4.2-2.3-4.7-2.3-18.2-1.5-12 .7-14.3 1-17 3-2.7 2.1-3 2.2-4.6.6-1.9-1.8-3.5-2.1-3.5-.5 0 .5.4.8 1 .4.4-.3 1.2 0 1.6.6.8 1.3-2.4 4.1-3.8 3.3-.4-.3-.8 0-.8.5 0 1.5 1.2 1.4 3.8-.5 3.3-2.3 3.5-1.3.8 2.8-1.8 2.5-3 3.4-4.8 3.2l-3.1-.3c-.4 0-.5-.7-.2-1.4.4-.6-.3-.1-1.4 1.2-2.6 2.9-2 4 2.2 3.9 1.7 0 4.6.4 6.2 1.1a57 57 0 0 0 25.1 6c14.4 1 17.4 2.4 17.4 7.8 0 1.9.4 4.2 1 5.2 1.2 2.3.2 6.1-1.6 6.1s-1.8.3.6 4.7c1.1 2 2 4.8 2 6.1 0 1.3.4 3.1 1 4 1.1 2.3-4.3 13.8-7 14.7-1.6.5-2 1.5-1.8 6.8 0 3.4-.2 7.2-.6 8.5-1 3-5.5 5.2-10.5 5.2-3.5 0-4.3.4-5.6 3-1 2-2.2 3-3 2.6-.9-.3-1.5-.1-1.5.4 0 .6.4 1 1 1 1.4 0 1.2 2-.4 5.2a7.9 7.9 0 0 0-1 4.6c.5 1.8 2 2 22.5 2.4 12.1.3 22.3.9 22.7 1.2.8.9-2.2 12.4-4.5 17.4-4 9-17.8 25.2-21.3 25.2-.8 0-3 1-5 2.2-2 1.2-4.2 2.3-5 2.4-.8.2-2 1-2.6 1.8-.6.9-1.6 1.6-2.3 1.6a109.5 109.5 0 0 1-31 10.7c-4.2.6-4.8 1.2-3.1 2.9.5.5.6 2.2.1 4l-.7 2.9-69.6.3-69.6.2-.6-3.5m157.9-94.8c-1.2-4.6 9-21.4 12.8-21 1 0 1.4-.3 1.1-.8-.3-.5 0-.9.5-.9.6 0 1.1.6 1.1 1.3 0 .8.3.8 1-.2.4-.8 1.5-1.1 2.3-.8 2 .8 4.5-6.6 2.8-8.6-1.5-2-.4-7.4 2.5-11.6 1.6-2.3 2-3.7 1.3-4.2-.8-.5-.8-.8 0-1.3 3.7-2.3-.3-4.2-14-6.7-6-1-12.8-2.9-15.1-4-2.4-1-5.8-1.9-7.7-1.9-3.9 0-10.2-2-11.3-3.5-1-1.5 0-2 1.6-.6 1 .8 1.6.8 2 .2.9-1.4-6.1-3.3-10.4-3-3 .3-3.6.8-3.8 3.1-.2 1.6.2 2.8.7 2.8.6 0 1.1 1.4 1.1 3s.4 3 1 3 1-.5 1-1.2c0-.6.3-.8.7-.5.3.4 1.3-.2 2-1.3.8-1.1 2.2-2 3.1-2 1.4 0 1.4.2-.3 1.2-2.8 1.6-4 3.8-4.1 8-.2 3.7 2 6 3 3.2.3-.8 1-1.4 1.4-1.4.9 0 .9 8 0 9.6-.3.5.3 1.6 1.3 2.6 1.5 1.4 2 1.4 3.6.3 1.2-1 1.4-1.4.4-1.5-.8 0-1-.6-.7-1.6.3-.8 0-2.2-.9-3-.8-.8-1.2-2.1-.9-3 .8-2 2.4-.7 1.8 1.4-.3 1 .4.1 1.5-1.8 2.5-4.3 2.5-5 .6-5-.8 0-1.4.5-1.3 1.1.2.6-.3 1.4-1 1.6-1.7.7-1.5-2 .4-4.3.8-1 1.3-1.3 1-.6-.5.7 0 1.2.8 1.2 1.3 0 1.4-.5.6-2.6-.7-1.6-.7-2.3 0-1.9.6.3 1 1.3 1 2 0 1 1 1.5 3.3 1.5 4 0 7.5 2 3.7 2-2.3.1-2.3.2-.5 1 1.6.7 1 .9-2.1 1-4.8 0-6.8 2.5-3.8 4.7 1.6 1.2 1.6 1.3-.7 1.4-1.3 0-1.9.3-1.3.5 1.6.7.2 6.5-1.9 7.8-1.2.8-2.2.8-3.7-.2-3-1.8-3.5-1.6-5.1 2.6-2.7 6.6-3.8 10.2-2.8 9.6 1-.6 1.2 1.6.1 3.2a18 18 0 0 1-8.9 4.4c-1.1 0-1.4.3-.7.8.7.4 1 2.5.9 4.7-.3 3.7-.2 3.8 1 2 .9-1 1.5-2.8 1.5-4 0-2 .1-2 1.2 0 .8 1.3.8 2.3-.2 3.8-1 1.8-1 1.9.6 1.2 1-.4 3.1-1 4.6-1.3 1.6-.2 2.5-.8 2.2-1.3-.3-.5 0-.9.5-.9.6 0 1.1.4 1.1 1s.9.6 2.4 0c1.4-.5 2.7-.5 3.3 0 .5.6 3.5 1.1 6.7 1.3 5.5.2 5.7.3 5.3 2.6-.6 2.9 1 4.7 4.7 5.7 1.4.3 2.9 1 3.2 1.5 1 1.6 1.4 1 .9-1.4m-79-4.6c.6-1-2.4-2-4.3-1.4-.6.3-1.2.9-1.2 1.4 0 1.2 4.7 1.2 5.4 0m38.3-6.3c-.3-.8-.6-.6-.6.6 0 1 .2 1.7.5 1.3.3-.3.4-1.2 0-1.9m-46.1.2c.3-.6-.1-1-1-1s-1.3.4-1 1c.3.6.8 1 1 1 .2 0 .7-.4 1-1m-8-3c.3-.6 0-.7-1-.4-1.7.7-2 1.4-.6 1.4.6 0 1.3-.4 1.6-1m9 0c-.3-.4 0-1 .7-1.2.8-.3.6-.7-.4-1-1.1-.5-1.5-.2-1.3 1 .5 2.3.4 2.2 1 2.2.4 0 .4-.4 0-1m-11.5-6.4c0-.2-1.3-.6-3-.8-1.6-.2-2.7 0-2.4.4.5.8 5.4 1.2 5.4.4m-3.5-3.6c-.3-.6-1-1-1.6-1-.6 0-.7.4-.4 1 .3.6 1 1 1.6 1 .6 0 .7-.4.4-1m70.5-3.2c0-1.3-2.3-.5-2.8 1-.2.7.2 1 1.2.6.9-.3 1.6-1 1.6-1.6m-64.2-1.3c-.3-.3-.9.2-1.2 1.2-.6 1.4-.5 1.6.5.6.7-.7 1-1.5.7-1.8m65.3-7.8c-1-1-1-.8-.5.6.3 1 .9 1.5 1.2 1.2.3-.3 0-1-.7-1.8m4.3-8.2c.3-.8.1-1.5-.4-1.5-.6 0-1 .7-1 1.5s.2 1.5.4 1.5.7-.7 1-1.5M398 347.1c0-.3-.4-1.1-.8-1.8-.9-1.4-2.3-.6-4 2.4-1 2-1 2.1 1.8 1.1 1.7-.5 3-1.3 3-1.7m2.3 2.2c-.7-.2-1.9-.2-2.6 0-.6.3 0 .5 1.3.5 1.4 0 2-.2 1.3-.5m76.6-.7c-1-1-7.9-3.4-7.9-2.7 0 .4 1.2 1.2 2.8 1.8 2.7 1 5.9 1.7 5.1 1m-24.6-3.4c-.7-.2-2-.3-3 0s-.4.5 1.2.5 2.4-.2 1.8-.5m.7-15.3c0-.6-.2-1-.4-1-.3 0-.8.4-1.1 1-.3.6-.1 1 .4 1 .6 0 1.1-.4 1.1-1m3-2c0-1.2-.4-1.8-1-1.5-.6.3-1 1.3-1 2 0 .9.4 1.5 1 1.5s1-1 1-2m-64.7-1c-1.3-1.4-8.6-2.2-7.7-1 .3.6 1 .8 1.5.5.5-.4.9-.2.9.2 0 .5 1.5 1 3.2 1.1 2.4.2 3 0 2.1-.9M448 321c.8-.5 1.1-1.2.8-1.6-1-.9-3.8.3-3.8 1.6 0 1.2 1 1.3 3 0m-184.4-6.8c-1.8-1.6-1.8-1.6-.6.6.6 1.3 1.4 2.1 1.8 1.8.3-.4-.2-1.4-1.2-2.4m106.5.1c-1.2-2-1.4-1.4-.5 1.2.4.9.9 1.4 1.1 1.1.3-.2 0-1.3-.6-2.3m-34.1.8c0-.5-.7-1.2-1.6-1.5-2.4-1-2.8-.7-1.4.9 1.4 1.7 3 2 3 .6m75-.1c0-.6-.2-1-.4-1-.3 0-.8.4-1.1 1-.3.6-.1 1 .4 1 .6 0 1.1-.4 1.1-1m-142.8-2.7c-.6-.3-1-.9-.6-1.4.3-.5 0-.9-.5-.9-.6 0-1.1.4-1.1.8 0 1.2 2.3 3.2 3 2.6.3-.4 0-.9-.8-1.1m62.8.3c0-.2-.7-.7-1.6-1-.8-.3-1.2-.2-.9.4.6 1 2.5 1.4 2.5.6m-103.5-4.4c1.4-1 3.7-5.2 2.8-5.2a20 20 0 0 0-6.3 5.4c0 .8 2.3.7 3.5-.2M219 305c.8-.5 1.2-1.1.9-1.4-.3-.3-1.4 0-2.5.9-2 1.6-.8 2 1.6.5m-7-2c.8-.5 1-1 .5-1a6 6 0 0 0-2.5 1c-.8.5-1 1-.5 1a6 6 0 0 0 2.5-1m13.4 0c-.6-1.2 2.4-3.3 3.6-2.5 1.7 1 1.1-.7-.8-2.1-2.4-1.8-3.4-1.7-3 .4.2 1-.6 2.5-1.7 3.4-2 1.7-2 1.7.2 1.5 1.2 0 2-.4 1.7-.8m-15.6-3c-.2-.6-.8-1-1.3-1s-1.1.4-1.3 1c-.2.6.4 1.1 1.3 1.1 1 0 1.5-.5 1.3-1m151.3-1.3c-1-1-1-.8-.5.6.3 1 .9 1.5 1.2 1.2.3-.3 0-1-.7-1.8m-147.4.7c-.3-.3-1.2-.4-1.9 0-.8.2-.6.5.6.5 1 0 1.7-.2 1.3-.5m4.6-2c-.9-.4-1-1.5-.6-3.2.5-2.3.4-2.5-.9-1.5-.8.7-1.9 1-2.3.5-.4-.4-.5-.2-.2.4.4.7-.3 1.5-1.6 1.8-2.1.7-2.1.7-.2 1.6 1.1.5 3.1.9 4.5.9s2-.3 1.3-.6m12.1-1.2c.3-.5-.1-1.2-1-1.5-1-.4-1.3-.2-.8.6.5.7.3.8-.6.3-1-.6-.7-1.3 1.1-2.7l2.4-2-2.5.8c-3.1.8-4.2 2.4-2.8 4.1 1.2 1.5 3.4 1.7 4.2.4m-6.4-1.7c0-.2-.7-.4-1.5-.4s-1.5.4-1.5 1c0 .5.7.7 1.5.4.8-.3 1.5-.8 1.5-1m10.5-2.2c0-1.8-2-1.5-2.3.4-.3 1 .1 1.5 1 1.2.7-.3 1.3-1 1.3-1.6m-10-.2c-.3-.6-1.2-1-1.8-1-.7 0-.6.4.3 1 2 1.2 2.3 1.2 1.5 0m8.3-4c.2-.5.8-1 1.3-1 .6 0 .8.4.5.9-.3.5.1 1.2 1 1.5 1.9.7 3-2.1 1.5-3.7-1.8-1.8-1.3-2.9 1.2-2.1 1.2.3 1.9.3 1.4-.1-.4-.5 0-1.6.8-2.5 1.7-1.9 1.2-4.5-1.1-5.4-.9-.3-1.2-.1-.9.4.6 1-.5 1.4-4.2 1.2-1.6 0-2.5.6-2.9 2.4-.8 3-5.3 6.4-8.5 6.4-1.2 0-1.9.3-1.5.7.4.4 1.5.8 2.4.8 1 0 1.6.5 1.5 1.1-.3 1.4 7 1 7.5-.5m163.2-.7c0-.3-.7-1.2-1.5-2-1.6-1.7-1.8-1.4-.9 1 .6 1.5 2.4 2.3 2.4 1M261.6 286c.4-.8.3-1-.5-.5-.6.4-1.1.2-1.1-.3 0-.6-1.2-1-2.8-1h-2.7l3 1.4 3.2 1.4c.1 0 .5-.4.9-1m9.4-5.9c0-.6-.4-1-1-1a1 1 0 0 0-1 1c0 .6.4 1 1 1s1-.4 1-1m115-3c0-.6-.2-1-.4-1-.3 0-.8.4-1.1 1-.3.6-.1 1 .4 1 .6 0 1.1-.4 1.1-1m-177-7c0-.6-.5-1-1-1-.6 0-.8.4-.5 1 .3.6.8 1 1 1 .3 0 .5-.4.5-1m-5.7-4c-.3-1.1-.7-2-1-2-.1 0-.3.9-.3 2s.4 2 1 2c.4 0 .6-.9.3-2m6.4-.4c-.7-1.7-5-1.8-4.4-.1.2.5.8 1 1.4 1a3 3 0 0 1 1.9.8c1 1 1.7 0 1-1.7m176.4-.7c0-.6-.4-.7-1-.4-.6.3-1 1-1 1.6 0 .6.4.7 1 .4.6-.3 1-1 1-1.6m-186.3-2.1c-.3-.7-.5-.2-.5 1.2s.2 2 .5 1.3c.2-.7.2-1.9 0-2.6m-3.7.3c-.6-1.1-1.6-1.8-2.2-1.4-.7.5-.5 1.2.7 2 2.5 1.9 2.8 1.8 1.5-.6m13-1c0-.6-.2-1-.4-1-.3 0-.8.4-1.1 1-.3.6-.1 1 .4 1 .6 0 1.1-.4 1.1-1m50-2c0-.6-.2-1-.4-1-.3 0-.8.4-1.1 1-.3.6-.1 1 .4 1 .6 0 1.1-.4 1.1-1m123.4-6.5c-.8-2.1-1.4-1.9-1.4.6 0 1 .4 1.8 1 1.4.5-.3.7-1.2.4-2M298 246c0-.6-.8-1-1.8-1-1.4 0-1.5.2-.2 1 1.9 1.2 2 1.2 2 0m69-8.6c0-.2-.7-.4-1.5-.4s-1.5.4-1.5 1c0 .5.7.7 1.5.4.8-.3 1.5-.8 1.5-1m5.6-.3c-.4-.5-1.5-.7-2.6-.4-2.8.7-2.5 1.3.6 1.3 1.4 0 2.3-.4 2-1m-1.9-22.6c-.3-.3-1.2-.4-1.9 0-.8.2-.6.5.6.5 1 0 1.7-.2 1.3-.5m84.7-11c.4-1.4.2-3.2-.4-3.9-.8-1-.7-2.4.4-5.4 1.3-3.8 1.2-4.1-.4-4.1-1.8 0-3.6 1.6-4 3.5-.6 2.5-1.3 3.4-2.2 2.9-.6-.4-.5.3.2 1.5.6 1.2 1 3.2 1 4.4-.3 3.4-.1 3.7 2.4 3.7 1.7 0 2.6-.7 3-2.6M443.5 192c.3-.6 0-1-1-1-.8 0-1.5.4-1.5 1s.4 1 1 1c.5 0 1.2-.4 1.5-1m6-10c1-1.6-1.4-4-4.1-4-1.8 0-2.4.6-2.4 2.3 0 1.8.6 2.3 3 2.5 1.6.1 3.2-.3 3.5-.8M316 427.4c2.8-8.8 4.5-13.2 8-20.3 1.7-3.6 3-6.6 2.7-6.8-.3-.4-4.7 5.2-11 14.1-2.2 3.1-4.2 5.4-4.4 5-.3-.2.9-2.2 2.6-4.3 1.8-2.2 3.2-4.3 3.2-4.7 0-1.6 8.6-11.3 9.8-10.9.6.3 1.2-.3 1.2-1 0-2 4.2-6.2 14.4-14.5l10.4-8.8c1.4-1.2 3-2.2 3.6-2.2.6 0-.3 1-1.9 2.4l-13 10.8c-9 7.6-10.4 9.2-14.7 17.3-2.6 5-6.2 13.3-7.9 18.5-3.4 10.4-6 15-3 5.4m-.9-8.8c0-.2.8-1 1.8-1.7 1.5-1.3 1.6-1.2.3.4s-2.1 2.1-2.1 1.3m-264.4-7.1c.4-2.8.8-5.2 1-5.4.9-1 .3 7.5-.6 8.9-.7 1-.8 0-.4-3.5m178.4-8c0-.8.2-1.5.4-1.5s.7.7 1 1.5c.3.8.1 1.5-.4 1.5-.6 0-1-.7-1-1.5m-147.8-.3c-4-.4-4.2-2.2-.2-2.2 2.7 0 3.5-.9 3.1-3.3 0-.4 1-.7 2.2-.7 2 0 2 .2.5 1.3a6 6 0 0 0-2 3.2c-.2 1.6-1 2-3.5 1.7m-43.7-8.4c-2.5-2.9-5.1-7-5.7-9-.5-2.1-1.5-3.8-2-3.8-1.6 0-3.4-2.6-6.9-9.6-3.4-7-3.6-8.4-1.5-8.4.8 0 1.5.4 1.5.9s.7 1.2 1.6 1.5c.8.3 1.3.2 1-.3a1 1 0 0 1 .3-1.5c.5-.3 1.1 0 1.4.8.6 1.4 2.4 1.2 8.4-.8 2.6-1 3.8-3.5 2.3-5-1.9-1.9-1.1-7.8 1.5-11.2 1.4-1.8 2.5-4.3 2.5-5.6 0-2.9.9-4.2 3.7-5.7 2.8-1.4 2.8-1.4 4.7.5 1.8 1.7 4 1 3.2-1.2-.8-2 1.5-3 2.8-1.2.6.8 2.2 1.9 3.6 2.3 3.6 1.1 5 2.5 5 5 0 3.2-2.5 8.7-5 11-1 1-2 2.6-2 3.4 0 3-1.9 4-5.7 3-2.8-.6-4.2-.4-6 1-2.5 1.8-3 3.3-.8 2.5.8-.3 1.5-.1 1.5.5s-1 1.6-2.3 2c-2.2.9-5.7 5-5.7 6.9 0 .5 1.4.6 3.1.4 3.6-.5 4.9.8 4.9 5.2 0 2 .4 2.7 1.4 2.3.7-.3 1.8-.1 2.3.4 1.1 1.1 5.4 0 4.7-1.3-.4-.6 0-1.4.6-1.8 1-.6 0-1-2.6-1.6-4.5-.8-6.3-2.7-6.4-6.7 0-3.2 2-4.3 5-2.7 1.4.7 2.6.8 4 0 1.5-.8 2-.6 2.5 1 .4 1.2 1.2 2 1.8 1.7 1.5-.5 4 2 3.3 3.2-.3.5.4 2 1.6 3.6l2 2.7-2.6 2.4c-1.4 1.4-4 3-5.6 3.5-2.6 1-2.8 1.3-2 3.6 1.8 4.6-1.4 9.4-6.5 10l-5 .9c-2.9.5-3.6 0-7.9-4.8m3.9-30.9c-.4-.5-1-.7-1.6-.3-.5.3-.7 1-.4 1.5.4.5 1 .7 1.6.3.5-.3.7-1 .4-1.5M52 348.1c0-.6-.5-1.3-1-1.6-.5-.3-1 0-1 1 0 .8.5 1.5 1 1.5s1-.4 1-1m279.5 50c-.6-1 1.3-2.5 2.2-1.6.4.3 0 .6-.6.6-.7 0-1 .4-.6 1 .3.6.4 1 .1 1-.3 0-.7-.4-1-1M224 395c0-.5.7-.7 1.5-.4.8.3 1.5.8 1.5 1 0 .2-.7.4-1.5.4s-1.5-.4-1.5-1m-162.5-4c-.4-1.2-.5-2.4-.2-2.7.9-.8 2.7.7 2.7 2.2 0 2.3-1.8 2.6-2.5.4m17 .7c-4.3-2-7.5-5.3-7.5-8 0-5.6 1.2-8.5 4.2-9.8 2.2-1 2.8-1.8 2.5-3.6-.8-4 1.3-5.4 6-4.4 3.1.7 4.5.6 5.3-.3.5-.6.7-1.5.3-1.8-.3-.4.6-.7 2.2-.7 1.5 0 4.2-1 6-2.3 2.9-2.1 12-6.8 15.8-8 1-.4 1.7-1.6 1.7-2.7 0-2.1 2.8-2.8 4.5-1 .6.5 1.7.4 2.8-.4 1.6-1.3 1.7-1.5 0-4.3-1.6-2.8-1.4-8 .5-11 .9-1.4 8.5 0 9 1.6.2.6 1.1 1 2 1 1 0 1.2-.3.4-.6-1.3-.5-1.7-4.3-.4-4.3 1.3 0 5.5 3.2 8.3 6.2 2.4 2.6 3 2.8 6.8 2.2 2.5-.4 4.1-.3 4.1.4 0 .9-2.6 2-6 2.6-8.1 1.4-13.4 3.2-14.6 5.1-.8 1.2-1.6 4.6-1.8 7.7-.3 3.7-1.3 6.7-3 9.1-2 3.2-3.5 10.7-2 10.7 1.1 0 12.3-12.6 12.4-13.8 0-.6.7-1.2 1.4-1.2 2.3 0 4.8-4 3.4-5.7-.8-1-.8-1.2.3-.9 1.3.5 8.8-8.5 11.4-13.5.5-1 1.5-1.9 2.2-1.9.7 0 1.3-.9 1.3-1.9 0-2 2.8-9.3 3.9-10.1 1.8-1.5 5.2-9.2 4.6-11-.4-1.3 0-2 1.4-2.5 1.2-.3 2-1 1.8-1.4-.3-1 5.9-7.1 7.2-7.1.6 0 1.1-.7 1.1-1.5s.4-1.5 1-1.5c1.4 0 1.2 4.5-.4 8.5-1.2 2.8-1.8 3.3-3.8 2.8-1.3-.4-2.6-1-3-1.6-.3-.6-.5.2-.5 1.6.2 2.2.6 2.5 2.7 2 2-.4 1.6.4-2.8 4.4a24.6 24.6 0 0 0-5.2 5.8 72.3 72.3 0 0 1-7 16.9c0 .6-1 1.6-2.2 2.1a41 41 0 0 0-8 9.4c-3 4.6-8 10.7-10.8 13.6-2.8 2.8-4.7 5.4-4.4 5.8.4.4-.2.7-1.2.7-1.1 0-3.8 1.8-6 4-4.6 4.8-9.6 8-5.5 3.7 3.2-3.5 2.3-7.2-2.3-9-3.8-1.7-7.6-6-7.6-8.9 0-1 .7-3.3 1.6-5 2-3.9 1-4.7-3-2.4a621 621 0 0 1-8.6 4.8c-3 1.7-6.2 3.7-7 4.4-1 .8-2.2 1.4-2.8 1.4-.6 0-1.4.5-1.8 1.1-.4.8 0 .9 1.4.5 1.7-.6 2-.3 1.5 1.4-.4 1.5 0 2 1.5 2 1.2 0 2.4.4 2.7 1 .3.6 0 1-1 1-1.6 0-1.9.9-.9 3.4.5 1.2 1 1.4 2 .6 1-.9 1.1-.6.7 1-.3 1.3-1.9 3-3.5 3.9-1.5.9-2.8 2.4-2.8 3.4 0 3.1-1.8 5.4-5.1 6.6-3.9 1.3-3.7 1.3-7.4-.3m9-17.7c1.1-1.7 0-2-2-.4-1.8 1.3-1.8 1.4-.3 1.5 1 0 2-.5 2.3-1m42.3-23.9c.4-2.7-2.9-2.8-7.8-.1-3.5 1.9-3.5 2-.8 2 1.5 0 3 .4 3.3 1 1 1.6 5-.6 5.3-2.9m10.8-8.7c2.7-.7 3-1.4 1.2-3.2-1.7-1.7-2.6-1.5-3.3.8-.3 1.1-1.3 2-2 2-.9 0-1.5.5-1.5 1.1 0 .6.7.8 1.6.5l4-1.2M26.5 386.9c-.5-1.3-.2-2.5.6-3 1.8-1.1 2.6-.3 2.6 2.6 0 3-2.3 3.3-3.2.4m67.7.9c-1.4-1.4-1.6-2.8-.3-2.8 1 0 2.4 3 1.8 3.6-.2.2-.9-.2-1.5-.8M52 380c0-.5.5-1.3 1-1.6.5-.3 1-.2 1 .4 0 .5-.5 1.3-1 1.6-.5.3-1 .2-1-.4m320-4.4c-.8-2.2-.6-3.7.4-3.7.6 0 1.2.9 1.2 2 0 1.6-1.3 3-1.7 1.8M226.2 373c0-1.4.2-2 .5-1.3.2.7.2 1.9 0 2.6-.3.6-.5 0-.5-1.3m120.8 0c0-.6.5-1 1-1 .6 0 .8.4.5 1-.3.6-.8 1-1 1-.3 0-.5-.4-.5-1m11-.5c0-.5 5-3.2 10.5-5.7 5.7-2.6 1.6.6-5 3.8-5.2 2.6-5.5 2.7-5.5 2m-290.6-4.4.5-3.7c0-.5.8 0 1.6 1.2 1.6 2.3 1 5.3-1 5.3-1 0-1.3-1-1-2.8m288.7-3.2c0-2 .2-2.7.5-1.8.2 1 .2 2.6 0 3.6-.3 1-.5.1-.5-1.8m-298-.7c-.6-.2-1.2-1.3-1.2-2.3 0-1.7.7-1.9 5.8-1.8 5.9.2 20.2-2 20.2-3.1 0-.4 2-.8 4.3-.9 2.3-.1 7-.8 10.5-1.5 4.3-1 6.2-1 6-.3a193 193 0 0 1-35 7.5c-2 0-4.1.8-4.8 1.6-1.2 1.5-3.4 1.8-5.8.8m-50.6-1.9c-.8-2 0-3.4 2-3.4 1.5 0 1.8 1 .8 3.4-.8 2-2 2-2.8 0M26 362c0-.6-.9-.9-2-.6-1.1.3-2 .1-2-.4s.7-.9 1.5-.9c1 0 1.8-1.2 2.1-3 .7-3.3 2.3-4 2.5-1.3 0 1.2.3.9.8-.7.4-1.4 1.5-2.6 2.5-2.9 1.6-.3 1.8.1 1.2 3-.9 4.6-6.6 10.4-6.6 6.8m8.3.4c-2.1-.8-1.5-2.2.7-1.6 1.1.3 2 1 2 1.4 0 1-.8 1-2.8.2m322.7-2.1c-1.7-2.2-2.2-2.4-3-1.2-.4.8-.9 1.2-.9.8 0-.4-1.4-.3-3 .2-3.5 1-4 .4-.8-1 2-.8 2-.9-1.2-1l-3.5-.2 2.7-1c2.4-.8 2.7-1.4 2.4-4.1l-.5-3.8c0-.4-1.1-1-2.4-1.3-2-.6-2-.7-.4-2 1-.7 1.7-1.8 1.7-2.3 0-1.1-6.4-5.7-12-8.5-2-1-2.8-1.7-1.8-1.8.9 0 4.7 2 8.5 4.6 3.7 2.5 7.7 4.8 8.7 5 1 .2 2.3.9 2.7 1.5.4.8 1 .6 1.6-.6.9-1.4 1.1-1.2 1.7 1.6.7 3.2.8 3.3 1.7 1.1.4-1.2 1.5-2.2 2.4-2.2.9 0 1.3.4 1 1-.9 1.4.8 1.2 2.4-.3 1.1-1 1.2-.8.3.8-.9 1.8-.6 2 2 2.2 2.4.2 2.9-.1 2.4-1.4-.4-.8-.2-2.1.4-2.8.8-1 .4-1.1-1.7-.9-1.6.2-2 0-1-.2 2.8-.9 2-3.2-.8-2.6-2.2.4-2.5.1-2.4-2.4 0-2.4.2-2.6.8-1 .4 1.1 1 1.5 1.4 1 .3-.5.3-1.4-.1-2-.9-1.1-7.3-1.4-6.6-.3.3.5-.4.9-1.5.9-1.2 0-2.1-.6-2.1-1.3 0-.6-1.1.6-2.5 2.8-3 4.9-3.2 4-.5-2 2.4-5.4 4.8-6.2 12.2-4.4 6.2 1.4 7.7 3 7.8 8.3 0 3 .3 3.7 1.5 3.2 1.3-.5 1.4-.2.4 1.7-.6 1.2-1.6 2.8-2.2 3.5-.6.8-1 3.3-.8 5.6.3 5.8-2 8.3-8.2 8.9-4.2.4-5 .2-6.8-2.1m6.1-.6c0-.3-.4-.8-1-1.1-.6-.3-1-.1-1 .4 0 .6.4 1.1 1 1.1s1-.2 1-.4m5.7-1.8c-.3-.8-.6-.6-.6.6 0 1 .2 1.7.5 1.3.3-.3.4-1.2 0-1.9m-9.6-3.2c0-.2-.7-.7-1.6-1-.8-.3-1.2-.2-.9.4.6 1 2.5 1.4 2.5.6M194 361c0-.6.4-1 1-1s1 .4 1 1-.4 1-1 1a1 1 0 0 1-1-1m-34.7-3.5c.6-1.6 2-4.3 3-5.8 2-2.7 2-2.8 0-4.2-1.5-1.2-1.5-1.4-.2-1.5.8 0 2.1 1 2.8 2.3 1 2 1 2.7-.8 4.8-1.1 1.3-3 3.5-4 4.9l-2 2.5 1.2-3m180.3.4c.3-.5 1.4-.9 2.5-.9 1 0 1.9.4 1.9.9s-1.1.9-2.5.9-2.2-.4-2-1M23 356.6c0-.8.4-1.5 1-1.5s1 .7 1 1.5-.4 1.5-1 1.5-1-.7-1-1.5m207.3-3c0-2.2.2-3 .4-1.7.3 1.2.2 3 0 4-.3 1-.5-.1-.4-2.3m-64.8 1.4c-1.1-1.7 0-2 2-.4 1.8 1.3 1.8 1.4.3 1.5-1 0-2-.5-2.3-1m167 0c.3-.6.8-1 1-1 .3 0 .5.4.5 1s-.5 1-1 1c-.6 0-.8-.4-.5-1m-246.8-1c-1-.6-1.7-2-1.7-3 0-1.4-.7-2-2.3-2-4 0-7.7-4.5-7.7-9.4 0-1.5-.6-2.6-1.3-2.6-.6 0 0-1 1.3-2 1.4-1 3.3-1.7 4.3-1.4 4 1.2 9.7-3.7 6.5-5.7-2.2-1.4-3-1-2.3 1.1.6 2-.9 2.8-2 1-.8-1.3-5.5-.6-6.6 1-.7 1.2-.9 1-.9-.7 0-1.2-.5-2.3-1.1-2.5-.8-.3-.6-1 .5-2 .9-1 1.6-2.1 1.6-2.7 0-.6.3-1.1.8-1.1.4 0 1.9-1 3.3-2.4 3.7-3.4 8.9-2.6 8.9 1.5 0 1 .5 1.9 1 1.9.7 0 .7.6 0 2-1.2 2.2 0 2.7 1.8.8.6-.6 1.5-.8 2-.4.4.5.1 1-.5 1.3-2 .7-1.5 2.4.5 2.3 3.7-.4 5.2 0 5.2 1.6 0 1.3.3 1.4 1.4.5 1.1-1 1.7-.8 3 1 .7 1 2 2.1 2.8 2.3.9 0 2.3 1 3.2 1.9 1.6 1.6 3 2.1 4.8 1.8 2-.3.6 6.8-1.7 9.3-3 3.2-9.5 3.8-9.5.9 0-1.2-.6-.8-2 1.3-2.6 4.4-9.3 6.6-13.3 4.3m10-15.2.8-3.2.7-3-1.7 2.3a4 4 0 0 1-6.7-.2c-1.1-1.7-1.7-.3-1 2.7.4 2.7.7 2.8 4 2.2l3.9-.8m96 15.6c-.4-.3-.7-1.1-.7-1.7 0-.6.5-.5 1.2.2.6.6 1 1.4.7 1.7-.3.3-.9.2-1.2-.2m1.3-4.3c0-.6.4-1 1-1s1 .4 1 1-.4 1-1 1a1 1 0 0 1-1-1m-170.4-6.6c-1-2.7-.7-4.4.9-4.4 1 0 1.5 1 1.5 3 0 3.2-1.4 4-2.4 1.4m46.7 0c-.3-.8.2-2.3 1-3.2 1.6-1.5 1.7-1.4 1.7 1.6 0 3.3-1.6 4.3-2.7 1.6m267.2.6c.3-.6.8-1 1-1 .3 0 .5.4.5 1s-.5 1-1 1c-.6 0-.8-.4-.5-1m-3.5-3.5c-4.6-1.8-2.8-1.8 3.5 0 2.9.8 4 1.4 2.5 1.4-1.4 0-4-.7-6-1.4m-138-1c.1-1.3.4-1.5.7-.7.3.7.2 1.6-.1 2-.3.3-.6-.3-.5-1.4m347.9.6c0-.6.7-1 1.5-1s1.5.2 1.5.4-.7.7-1.5 1c-.8.3-1.5.1-1.5-.4m-312.9-1c0-.8.4-2.4.9-3.5.5-1.3.9-1.4.9-.5 0 .8-.4 2.4-.9 3.5-.5 1.3-.9 1.4-.9.5m302.9-.6c0-.8.5-1.2 1-.9.5.3 1 1 1 1.6 0 .5-.5.9-1 .9s-1-.7-1-1.6m-419.6-.8c-.3-.9-.3-2 0-2.6 1.2-1.8 2.6-1 2.6 1.5 0 2.7-1.7 3.4-2.6 1m67.1.5c-.3-.6 0-1 1-1 .8 0 1.5.4 1.5 1s-.4 1-1 1c-.5 0-1.2-.4-1.5-1m7.5-.5c-.8-1-.8-1.5-.2-1.5 1.2 0 2.6 1.9 2 2.6-.3.2-1-.2-1.8-1m189-.2c.1-1.1.4-1.4.7-.6.3.7.2 1.6-.1 2-.3.3-.6-.3-.5-1.4M197 334.1c0-.6.4-1.3 1-1.6.6-.3.7 0 .4 1-.7 1.7-1.4 2-1.4.6m133-1c0-.5.4-1.3 1-1.6.6-.3 1-.2 1 .4 0 .5-.4 1.3-1 1.6-.6.3-1 .2-1-.4m198.2 0c-1.1-.7-1-1 .3-1.5 2.6-1 3.5-.7 2.9.9-.7 1.7-1.3 1.8-3.2.6M188.5 332c-.8-1.3.4-3.2 1.6-2.5 1.2.8 1.2 3.5 0 3.5-.6 0-1.3-.4-1.6-1m6-2.5c1.1-1 1.9-2 1.8-2.5-.2-.5.4-.7 1.2-.4 2.1.8 2 1.1-1.8 3-3 1.4-3 1.4-1.2-.1m-94.3-2c-1.8-1.4-4-2-5.2-1.8-1.5.4-2 0-2-1.5 0-1 .6-2.5 1.4-3.1 1.2-1 1.7-.8 2.6.8 1.6 3 3.2 2.7 2-.5-1.5-3.7-.1-10.6 2.4-12.6 1.1-1 3.4-1.8 5-1.8 2 0 2.7-.4 2.3-1.5-.6-1.5 1-3.2 2-2.1.3.3 1 2.9 1.4 5.7.6 3.5 1.6 5.8 3.4 7.4a7.3 7.3 0 0 1 2.5 6c0 2.9-.5 3.7-3.3 5.1-4.8 2.6-10.6 2.5-14.5-.2m26.5.6c-.6-2.3.3-3.2 2.1-2.1 1.3.8.6 4.1-.8 4.1-.4 0-1-.9-1.3-2m284.6.5c0-.8.4-1.2.9-.9.4.3.6 1 .3 1.5-.9 1.3-1.2 1.1-1.2-.6m-210.9-1c.1-.9 1.3-2.3 2.7-3.2l5.2-4.1c5-4.6 2.8-1.8-2.7 3.5-3 2.9-5.3 4.6-5.2 3.8m207.3.7c-1-.2-1.7-1.2-1.7-2.2 0-1-.3-2.6-.6-3.4-.3-.9-.1-1.6.5-1.6s1.1 1.1 1.1 2.4c0 1.4.8 3 1.7 3.5 2.1 1.1 1.5 1.9-1 1.3m137.8-1.3c-.4-.5-.4-1.3-.1-1.6.3-.4.6 0 .6.7 0 .9 1 1 3 .6 1.7-.3 3-.1 3 .4 0 1.4-5.7 1.3-6.5 0m-478-4c-.3-.6-.1-1 .4-1 .6 0 1.1.4 1.1 1s-.2 1-.4 1c-.3 0-.8-.4-1.1-1m69 0c.3-.6 1-1 1.6-1 .5 0 .9.4.9 1s-.7 1-1.6 1c-.8 0-1.2-.4-.9-1m-77-3.1c-5.3-2.8-5.6-3.2-4-4.7 1.3-1 1.5-1 1.5.7 0 1.2 1.4 2.6 4.3 4 2.3 1 3.7 2 3.2 2-.6 0-2.8-.8-5-2m326.5.6c-.8-.9-.8-1.5-.2-1.5.6 0 .8-.8.6-1.8-.3-1 .3-2 1.8-2.7 1.3-.6 2.2-1.8 2.2-2.8-.2-2 .6-2.1 3-.3 1.3.8 1.7 2 1.4 3.5-.4 1.2-.2 2.1.5 2.1.6 0 .7.3.4.6-.4.4-1.4 0-2.4-.7-1-.8-1.4-.9-1-.2.4.7-.5 2-2.2 3.2-2.5 1.8-3 1.9-4.1.6m153-1c0-.8.2-1.5.4-1.5s.6.7 1 1.5c.3.8.1 1.5-.4 1.5-.6 0-1-.7-1-1.5m-467.3-1.6c-.6-2.3 0-4.9 1.3-4.9 1.4 0 3 2.6 2.7 4.8-.2 2.8-3.3 3-4 .1m327.7 1.2c.4-.6 0-1.1-.8-1.1-2.5 0-1.9-1.6 1.9-5.4 2-2 3.5-3.2 3.5-2.9a17 17 0 0 1-3.2 4c-1.8 1.8-2.7 3.3-2.1 3.3.6 0 2.4-1.5 4.1-3.4 2.9-3.3 3-3.4 3.6-1.3.6 2.2-1.1 4.2-5.8 6.8-1.3.8-1.7.8-1.2 0m4.7-3.8 2.4-2.7-3.3 2.3c-3.2 2.3-3.9 3.1-2.4 3.1.5 0 2-1.2 3.3-2.7m104.9 4c.8-.3 1.8-1 2.3-1.7.5-.8 1-.8 1.4 0 .5.7 1.7 1.4 2.8 1.7 1.1.2-.3.5-3 .5-2.8 0-4.3-.2-3.5-.5m16-.3c0-.6.5-1 1-1s1 .4 1 1-.5 1-1 1a1 1 0 0 1-1-1m-276-6c0-.6.4-.8 1-.5.6.3 1 .8 1 1 0 .3-.4.5-1 .5s-1-.5-1-1m240-4c0-.6.5-1 1-1 .6 0 .8.4.5 1-.3.6-.8 1-1 1-.3 0-.5-.4-.5-1m-291-4c0-.6.4-1 1-1s1 .4 1 1-.4 1-1 1a1 1 0 0 1-1-1m198 0c0-.6.4-.8 1-.5.6.3 1 .8 1 1 0 .3-.4.5-1 .5s-1-.5-1-1m-220-7.8c0-1 .6-1.9 1.4-1.9.8 0 1.4.9 1.3 1.9 0 1-.7 1.8-1.4 1.8s-1.3-.8-1.3-1.8m23.5-.2c.3-.6.8-1 1-1 .3 0 .5.4.5 1s-.5 1-1 1c-.6 0-.8-.4-.5-1m257.6-1.6c0-1.1.3-1.4.6-.6.3.7.2 1.6-.1 2-.3.3-.6-.3-.5-1.4m-174.5-2.3c-.4-.5.3-.7 1.4-.4 2.3.6 2.6 1.3.6 1.3-.8 0-1.7-.4-2-1m167.4-1c0-.6.7-1 1.5-1s1.5.4 1.5 1-.7 1-1.5 1-1.5-.4-1.5-1m8 .7a29.8 29.8 0 0 1 5.1-10.7c1.3 0 1.1 1.8-.2 2.6-.6.3-2 2.5-3 4.8-1 2.2-1.8 3.7-1.8 3.3m9.4-3.7c-.3-.6-.1-1 .4-1 .6 0 1.1.4 1.1 1s-.2 1-.4 1c-.3 0-.8-.4-1.1-1M174 283c0-1 5-3.4 5.6-2.7.5.4-3 3.1-4.4 3.4-.7.2-1.2-.2-1.2-.7m98.5-7c-.3-.5.5-1.4 1.7-2 2-1 2.1-1 .6.3-1 .8-1.5 1.7-1.1 2 .3.4.4.7 0 .7-.3 0-.8-.4-1.2-1m52-1.3c.4-1 1-1.5 1.3-1.2.3.3 0 1-.7 1.8-1 1-1 .8-.5-.6m1.9-1.8c-.6-2.7-1-3-1.9-1.8-.6.8-2 1.5-3.1 1.7-1.6.3-1.5-.2 1-2.3 2.7-2.4 2.8-2.6.8-2.2-1.3.3-2.3.1-2.3-.4s-1.7-1-3.8-1c-3.3-.2-3.2-.3 1.3-.8 5-.6 9-.3 8 .7-.3.3.1 1.3.9 2.1 1.8 2 2.4 6.3 1 6.8-.7.2-1.5-1-2-2.8m-146.4-3c0-.5.4-.7 1-.4.6.3 1 .8 1 1 0 .3-.4.5-1 .5s-1-.5-1-1m4.8-.7c.6-.2 1.8-.2 2.4 0 .7.3.2.5-1.2.5s-2-.2-1.3-.5m-2.6-4.9c-3.5-1.3-14-4.7-23.5-7.5a681 681 0 0 1-19.6-6c-2.3-.8-2.2-.9.5-.3l8.5 1.4c4.7.7 41.5 13.2 42.9 14.5 1.1 1.2-3 .2-8.8-2M330 255c0-.6.4-1.3 1-1.6.6-.3.7 0 .4 1-.7 1.7-1.4 2-1.4.6m-247-.5 4.8-4 4.4-3.6-5.4-.2c-3.6 0-4.4-.3-2.3-.6l3-.5-2.5-.8c-1.6-.6-.3-.7 4-.4 3.5.3 6.5.7 6.7.9 1 1-1.1 3.5-3.2 4-1.5.4-2.2 1.1-1.9 2 .3.8 0 1.7-.5 2-.7.4-.8.1-.5-.8.9-2.2-1-2-3.1.4-1 1.1-2.3 2-2.8 2-.6 0-.9-.2-.6-.4m13-2.1c.1-1.7.3-2.2.6-1.2.3 1 .2 2.3 0 3-.3.6-.5-.2-.5-1.8m96.9 0c0-1.3.3-1.5.6-.7.3.7.2 1.6-.1 2-.3.3-.6-.3-.5-1.4m-68.6-4c-7.3-2.7-13-4-16.8-3.9-2 .1-3.7-.2-3.7-.7 0-.4-1-.8-2.3-.9-2 0-2-.1.4-1 2-.8 5.2-.2 14.5 2.7 6.5 2 12 3.7 12.3 4 1.2 1.2-.8 1-4.4-.3M101 246c0-.6.5-1 1-1 .6 0 .8.4.5 1-.3.6-.8 1-1 1-.3 0-.5-.4-.5-1m-11-6.7c0-.9 1.1-1.2 3.4-1 4 .3 3.8 1.3-.4 2-2 .2-3 0-3-1m432-.8c-.7-.9-1-1.8-.6-2.2.3-.3.6-.1.6.5s.8 1.2 1.8 1.4c1.1.2 1.3.6.6 1-.7.5-1.7.1-2.4-.7m-227-.5c-2.4-.6-2.4-.7.8-1.4 3.7-.9 5-.4 3 1.1-.7.5-2.4.7-3.8.3m11.5 0c.3-.6.8-1 1-1 .3 0 .5.4.5 1s-.5 1-1 1c-.6 0-.8-.4-.5-1m-16.7-.7c.7-.3 1.6-.2 2 .1.3.3-.3.6-1.4.5-1.1 0-1.4-.3-.6-.6m-218.8-2c-4.1-.8-8.1-1.8-9-2.2-2.2-1.2-2.3-2.8-.1-3.4 1.3-.3 1.8 0 1.5.8-.3.8 2.1 1.6 8 2.4 6 1 8.4 1.7 7.9 2.4-.4.8-.1.8.8 0 1.3-1 2-1 3.5.2 1.8 1.3 1.7 1.4-1.6 1.4-2 0-6.9-.8-11-1.6m218.4-1.9c-1-.8-1.3-1.2-.5-.8.8.4 2.8 1 4.5 1.5 2.9.6 2.9.7.5.8-1.4 0-3.4-.6-4.5-1.5m15.8-2.1c-.6-.3-1-1-.6-1.5.8-1.2-20.4-21.9-22-21.7-3.4.4-3.8-.2-3.2-4.1.5-4-.2-4.8-3.8-4-1.2.2-6.8-2.2-6.3-2.7.3-.2 1.6 0 3 .6 4.4 1.7-4-6.7-17.3-17.2-13-10.2-14.8-11.9-10.5-9.3 8.3 5 19.6 13.8 25.7 19.9 3.7 3.7 6.8 6.1 6.8 5.3 0-.8-.4-1.8-1-2.1-.6-.3-1-1.1-1-1.8 0-.6.7-.4 1.7.6 1.6 1.6 1.9 1.5 4-1 2-2.5 2.3-2.6 3.7-1.3 1.8 1.8 3 9.9 1.6 11.5-1.2 1.4 2.4 7.5 4.4 7.5.8 0 3.2 2 5.4 4.5s4.3 4.5 4.7 4.5c.6 0 2.2 1.2 9.8 7.2 1.5 1.2 2.7 2.8 2.7 3.5 0 1.5-1.6 1.7-2.5.3-.9-1.4-3.3-1.2-3.7.3-.2.8-.9 1.2-1.6 1M281.5 206c.3-.6.1-1-.4-1-.6 0-1.1.4-1.1 1s.2 1 .4 1c.3 0 .8-.4 1.1-1m1-3c-.3-.6-1.1-1-1.8-1s-.6.4.3 1c2 1.2 2.3 1.2 1.5 0M61.2 225.8c-1.7-1.7-1.5-4.8.3-5l2.8-.2c.6-.1 1.5.3 1.9.8.4.6 1.4.4 2.5-.5 1.6-1.2 1.6-1.1-.1.9-1 1.2-1.5 2.2-1 2.2 1.3 0-2.8 3-4 3-.7 0-1.7-.5-2.4-1.2m487.8-.3c-.7-.9-1-1.8-.7-2.1.3-.3 1 .4 1.7 1.5 1.3 2.5.8 2.7-1 .6m-237-2c.9-1 1-2.3.2-4.3-.6-1.7-.6-3.5-.1-4.3.5-.8.9-1 .9-.3 0 .6.8 2 1.8 3.2 1.5 1.7 2.1 1.9 3.2 1 1-1 1.2-1 .7.4-.4 1-.1 1.8.6 1.8.6 0-.5.9-2.6 2-4.5 2.4-6.5 2.6-4.7.5M62.2 216c0-1.4.2-2 .5-1.3.2.7.2 1.9 0 2.6-.3.6-.5 0-.5-1.3m11.9 1.6c.2-.2 1.5-.9 2.9-1.5 2.4-1.1 2.4-1.1.6.3-1.6 1.3-4.9 2.4-3.5 1.2m244-2.3c0-1.2.3-2.5.9-2.8.6-.3 1-1.5 1-2.5s.4-2.1 1-2.5c.9-.6 0 2.9-1.8 7.5-1 2.4-1 2.4-1.1.3m-10.1-3.6c-1.5-2-1.7-2.7-.6-1.8 1.6 1.3 4 5.1 3.3 5.1-.2 0-1.4-1.5-2.7-3.3m8.1 1.2c0-1.5-.4-4-.7-5.8-.5-2.5-.3-3.1 1.1-3.1 1.4 0 1.5.3.6 1.4-.7.8-.8 1.6-.3 1.8.6.2.7 2 .2 4.3-.6 3-.8 3.3-.9 1.4m-3.5-5c-.8-4.3-.8-5.9.2-5.9.5 0 1 2 1 4.5.2 5.2-.3 5.8-1.2 1.4m214.3-2.5a4 4 0 0 0-3.2-1.2c-1.1.2-2.2-.2-2.4-.9-.3-.7.3-1 1.5-.7 1.3.4 2.2-.3 3-2 1.6-3.6 1.5-5-.3-4.2-.8.3-1.5.3-1.5 0 0-.2 1-.8 2.3-1.3 1.8-.7 2.3-.4 2.8 1.3.6 2 .7 2 1.4.2.9-2 2.7-4 6-6.6 1-.8.5.4-1.3 2.6-2.5 3.3-2.8 4.2-1.5 4 1.4 0 1.8.8 1.9 4.2 0 2.3-.3 4.2-.8 4.2-.4 0-.8-.9-.8-2 0-3.2-2-3.3-2.6-.1-.7 3.5-2.7 4.6-4.5 2.5m-251.9-.2c0-1.2 1.9-2.6 2.6-2 .2.3-.2 1-1 1.8-1 .8-1.6.8-1.6.2m-5-1.1c0-.6.4-1.3 1-1.6.6-.3.7 0 .4 1-.7 1.7-1.4 2-1.4.6m154.5-5.1c-.3-.6-.2-1 .4-1 .5 0 1.3.4 1.6 1 .3.6.2 1-.4 1-.5 0-1.3-.4-1.6-1m111-3.9c.6-1.2 4.5-3.5 4.5-2.8 0 .3-1.2 1.2-2.6 2.2-1.5 1-2.3 1.2-2 .6M271 188.5c-1.3-1.4-2.1-2.7-2-2.9.3-.2 1.6 1 2.8 2.5 2.9 3.6 2.4 3.8-.8.4m257.9-1.3c-.4-2-.2-2.9.4-2.3.5.5.7 2 .5 3.2-.3 2-.5 1.9-1-.9m4.8.3c.7-3.8 2-5.1 2.8-3 .3.9.2 1.3-.3 1-.5-.3-1.4.7-2 2.2l-1.1 2.8.6-3M462 172.2c0-4.8-.5-6.6-2.1-8.2l-2-2h2.4c2.3 0 2.5.4 2.8 6.3.2 3.4 0 7.1-.3 8.2-.5 1.2-.8-.4-.8-4.3m-229.9-6.8c-1.2-.8-2.2-2-2.2-2.5 0-.6.5-.6 1.3 0 .6.7 2.1 1.8 3.2 2.6s1.5 1.4 1 1.5c-.6 0-2-.7-3.3-1.6m-8.6 0c.6-.5 1.4-1.6 1.7-2.4.5-1 .6-1 .4.4-.1 1-.9 2.1-1.7 2.3-1 .3-1.1.2-.4-.4m0-6.9c-.3-.9-1.3-1.4-2-1-.8.2-1.7-.2-2-1a2.4 2.4 0 0 0-2-1.4c-1 0-1.6-.4-1.6-1s-.7-1-1.5-1-1.5-.4-1.5-1c0-1.4.7-1.3 3.5.6 1.4 1 3.4 1.4 4.5 1.1 1.1-.3 1.8-.2 1.5.3-.3.4.4 2 1.6 3.4 1.1 1.4 1.6 2.6 1 2.6-.4 0-1.2-.7-1.5-1.6M211 155c0-.6.5-1 1-1 .6 0 .8.4.5 1-.3.6-.8 1-1 1-.3 0-.5-.4-.5-1m253 216c0-.6.4-.8 1-.5.6.3 1 .8 1 1 0 .3-.4.5-1 .5s-1-.5-1-1m-11.5-10c-.4-.6.6-.7 2.7-.3 4.4.8 4.8 1.3 1 1.3-1.7 0-3.4-.4-3.7-1m-10.5-4c0-.6.4-.8 1-.5.6.3 1 .8 1 1 0 .3-.4.5-1 .5s-1-.5-1-1m-206.8-70c-.8-1.3-1.1-2.4-1-2.6.8-.7 3 2.4 2.6 3.6-.2.6-.9 0-1.6-1M450 198c0-.6.5-1 1-1 .6 0 .8.4.5 1-.3.6-.8 1-1 1-.3 0-.5-.4-.5-1Z"/></svg>