<svg xmlns="http://www.w3.org/2000/svg" width="273.3829" height="598.966" viewBox="0 0 273 598" version="1.0"><path d="M346.61043 238.94342v60.01647h-1.14901v2.52782h1.14901v2.41292h-1.18731v1.22559h1.18731v1.14902h-1.18731v1.2256h1.18731v1.18731h-1.18731v1.22561h1.18731v1.2639h-1.18731v1.22562h1.18731v2.52781h-1.18731v1.22561h1.18731v1.22559h-1.18731v1.26392h1.18731v1.22561h-1.18731v2.37462h1.18731v1.2639h-1.18731v1.2639h1.18731v1.22562h-1.18731v1.22561h1.18731v1.149h-1.18731v1.22561h1.18731v1.149h-1.18731v1.22562h1.18731v2.56612h-3.67681v2.29801h2.5278v31.9807h-3.63852v3.71512h1.26392v1.0724c-3.88635 1.43334-6.62594 4.78288-6.62596 8.69416 0 3.47377 2.15616 6.48591 5.36204 8.11965v28.64858h-2.37462v2.52782h2.37462v16.0478c-11.93616 2.61808-20.91197 13.60743-20.91193 26.77185 0 9.37384 4.56553 17.66257 11.49008 22.59714v161.0142c-7.89327 4.1752-13.49306 11.72436-14.6307 20.56723h2.33632v7.27704h-2.25971c1.22582 7.96336 6.1086 14.79199 12.98378 18.99692l-32.1339 69.47663 1.915.8043c-16.19768-3.51611-12.35427 2.32028-15.32009 4.97903-10.45598.34472-15.57722 2.46764-20.33742 4.71093-21.03883-1.04662-28.37944 2.47284-38.41513 5.09394h246.92161c-18.92124-7.47203-43.50528-2.90839-61.28037-10.53257 1.52975-5.15583-2.95769-5.27197-7.04725-5.74503l-19.76292-32.55521.3447-6.28123-3.63852-3.25553-1.91501.4213-16.1627-28.15068c6.0288-4.24733 10.24645-10.63278 11.37517-17.9628h-2.33631v-7.27704h2.41291c-1.13764-8.84285-6.73743-16.39203-14.63069-20.56723V487.89496c7.67531-4.78695 12.8306-13.5098 12.83058-23.47805 0-12.71928-8.36185-23.39437-19.68632-26.46546v-16.35419h1.3022v-2.52782h-1.3022v-18.38412h.07659v-2.41292h-.07659v-1.37881h.07659v-4.74922h-1.2639v-1.72351c3.18362-1.63609 5.32375-4.65303 5.32373-8.11965 0-3.42565-2.11503-6.42139-5.24713-8.08136v-1.6852h1.22561v-3.71512h-3.83003v-31.9807h2.45122v-2.29801h-3.75342v-2.56612h1.3022v-1.22562h-1.3022v-1.149h1.3022v-1.22561h-1.3022v-1.149h1.3022v-1.22561h-1.3022v-1.22562h1.3022v-1.2639h-1.3022v-1.2639h1.3022v-2.37462h-1.3022v-1.22561h1.3022v-1.26392h-1.3022v-1.22559h1.3022v-1.22561h-1.3022v-2.52781h1.3022v-1.22562h-1.3022v-1.2639h1.3022v-1.22561h-1.3022v-1.18731h1.3022v-1.2256h-1.3022v-1.14902h1.3022v-1.22559h-1.3022v-2.41292h1.26391v-2.52782h-1.26391v-60.01647h-2.33632zm-1.18731 157.95017h1.34052v1.37881h-1.34052v-1.37881zm4.94074 0h1.3405v1.37881h-1.3405v-1.37881zm-4.94074 3.79173h1.34052v1.30221h-1.34052v-1.30221zm4.94074 0h1.3405v1.30221h-1.3405v-1.30221zm-4.94074 3.71512h1.34052v1.18732h-1.34052v-1.18732zm4.94074 0h1.3405v1.18732h-1.3405v-1.18732zm-4.94074 3.60023h1.34052v1.2639h-1.34052v-1.2639zm4.94074 0h1.3405v1.2639h-1.3405v-1.2639zm-4.94074 3.67681h1.34052v1.34052h-1.34052v-1.34052zm4.94074 0h1.3405v1.34052h-1.3405v-1.34052zm-4.94074 2.45122h1.34052v1.30221h-1.34052v-1.30221zm4.94074 0h1.3405v1.30221h-1.3405v-1.30221zm-4.94074 3.67682h1.34052v1.26392h-1.34052v-1.26392zm4.94074 0h1.3405v1.26392h-1.3405v-1.26392zm-7.81325 73.53646c1.10601.20889 2.22105.36074 3.37042.4213v12.86889h-3.37042v-13.29019zm0 29.52948h3.37042v8.08135h-3.37042v-8.08135zm0 24.32066h3.37042v11.49007h-3.37042v-11.49007zm0 27.69107h3.37042v8.11964h-3.37042v-8.11964zm0 24.35895h3.37042v8.77076h-3.37042v-8.77076zm0 25.01005h3.37042v10.11127h-3.37042v-10.11127zm18.92032 83.64773 10.99217 19.34161.5745 6.81744-11.56667 8.23455v-34.3936zm-29.721 9.03885v20.45233l-5.93652-8.19626 5.93652-12.25607zm46.0369 19.72462 14.17109 25.01005-.07661-.0383c-22.38578 1.38843-18.63533-5.6621-30.41038-4.78753V753.239l16.3159-18.57561zm-55.95665.8043 9.91975 13.51999v6.24293l-16.39249.38301-6.51103 6.89404-.07662.0383 13.06039-27.07827z" transform="translate(-213.30855 -209.95585)"/></svg>