<svg xmlns="http://www.w3.org/2000/svg" width="600" height="915" viewBox="0 0 600 915"><path d="M79 910c-3-6-6-9-8-9l-3-10-3-9 5 20c1 3 1 3 2 2s1 0 1 1c-1 6-3 3-6-7l-4-11 3 12 2 11s-2-3-2-8c-3-11-3-11-5-7-1 3-1 3-1 1l-1-2-1-6 1-4 1-3-1-3-1 3-1 3-1 2-1-1c-2-2-2-2-2 1s0 4 1 3l1 1-1 4-1 1-1 4v5l-2-5v-7l1-7c-1-4 0-8 1-14l2-9c-1 0-4 5-4 9l-2 3 4-14c2-2 11-17 12-21 0-3-1-2-4 4-6 11-9 16-10 15l4-9 5-9 2-3 2-5-1-4-1 3c0 3-1 5-3 8l-7 10-4 5 11-19 1-6v-7l6-6 11-10c4-4 4-4 3-7-1-4-1-4-3-2v-7a23658 23658 0 0 1 2-16l-3 2c-1 1-1 1-1-1l2-5-1-2c-1 1-5 13-6 23-1 4-1 4 1 4 2-1 2 0 3 2s0 3-8 11c-13 13-16 13-3 1 8-9 10-11 9-12s-2-1-4 3l-10 11-7 7 1 5c0 7 1 8 3 5l1-4c-1-3 1-4 10-13 5-6 11-11 12-11 3-2 0 1-10 12l-11 11v4c1 4 1 6-1 9-3 5-4 6-3 2 0-2 0-2-1-1l-5 6-3 4 4-8c4-7 5-8 3-8l-3 5-3 4v-2l3-6c3-4 3-5 2-10v-5l4-5 14-16-10 8c-5 6-10 10-10 9l8-8c9-10 11-13 2-4-9 8-11 8-3-1 4-3 7-7 6-7v-7l1 3c0 2 0 3 2 3l1-3v-4l3-9 2-7v3l-5 23 2-2c1-2 5-15 6-23 0-2 1-3 2-3l2-2c0-2 0-2-1-1l-3 1c-1-1 2-4 3-3l2-1 1-1 10-6c2-2 0-1-8 2-9 4-10 5-10 7 1 1 0 2-1 3v-2l1-4 10-5 11-6 3-2h2v-1l-2-1 2-3 1-1 2-3v-2c-1-1-1-1-2 1-3 8-8 12-23 19-7 3-7 3-8 7v5l-2 8-2 8v-7a111 111 0 0 0 3-19l7-3 6-4-7 2-6 2 8-4 8-5c0-2-1-1-9 3s-9 5-7 3l2-2 4-2 3-2 4-2 3-1 5-4 2-3c1-1 1-3-1-3l-2 2-5 6-4 2-4 2-3 2-2 1c-1-1 4-6 5-5 2 0 6-4 5-5-1 0-2 0-3 2l-3 1-3 2-4 2c-2 0-2 0-1-1l5-4c1-1 2-2 3-1 2 0 8-7 10-13 1-3 2-3 4-3 3 1 3 1 0-2-2-2-2-2-4 0l-3 6-8 10-4 1-4 2 4-7a382 382 0 0 0-1 4l8-4 5-9c3-7 4-8 5-7 1 2 4 3 4 1-1-3 0-2 3 0 4 3 5 2 2-2l5 3c3 3 7 5 7 4l-6-6-5-5 5 4a181 181 0 0 1 16 13c0-1-4-6-10-11l-10-10 14 12 13 11 1-1 2-4c6-6 9-12 6-12l-1 1-2 3-2 4-1 1-2 2c-1 3-1 3-6-2a502 502 0 0 0 2-1c2 3 4 2 5 0l1-2 1-1 1-2 1-2c0-1-1-1-3 2l-3 3-4-4-7-6c-3-2-6-5-5-6l8 7 8 7c3 0 0-3-6-9l-6-7 7 7c6 5 7 6 8 5s0-2-4-6c-6-5-6-6-7-11l1-5 1 5c0 4 0 5 5 9 6 6 9 7 4 1-5-4-4-6 0-1 3 3 5 2 3-1v-7l1-5v5l1 7c2 2 3-1 2-7l1-5 1 6v16l2-2 2-20v-3l5 4 5 4-6-8c-4-3-6-6-5-6l9 9c9 8 11 10 9 7l-9-11-8-10 19 20c1 2 4 3 4 1l-14-16-7-8 18 17c1 3 2 3 3 2s1-1-1-3a406 406 0 0 1 3 1l2 2 2-2c2-2 2-3 1-4-1-2-3-1-2 1h-3l1-2c1-1 1-2-2-5l-3-3c0 2 2 5 3 5l1 1-1 2-1-1-7-9c-7-6-8-8-6-9l1-2 5-7c3-4 5-8 4-9h1c2 0 2 0 2-4 0-2 0-3-1-2a216 216 0 0 0-14 21l10-18v-5l-2 3-1 2-4 6-8 12 6-11 6-12c0-2-2-1-3 1l-11 16 6-10a677 677 0 0 0 6-14v-3c1-1 1-1 1 1s1 3 2 1v-6c0-3 1-2 1 2 2 8 4 7 3-2v-7l2 6 1 9 1 2 1-4a232 232 0 0 1 0-4l1 5v4l-1 2c-1-1-1 0-1 2v4l2-3c2-3 3-4 3-7v-2c0 5 3 4 3-1l1 3v7l-2 3c0 2 0 2 1 1 3-2 3-1 0 3l-6 10c-3 5-3 5-1 6 2 2 3 1 1-1v-2c2-1 8-10 8-12l1-2c2 2 2-1 0-13l-1-13 2 8c2 13 2 15 3 14l1-8v-4l1 9 1 5c2 0 3-4 3-8 0-6 1-4 1 3l2 9-1 4c-1 1-1 0-1-4s0-5-1-4c-3 0-3 5-2 8l1 3c-1 1-2 0-2-3s-2-3-3 0l-1 2-3 4-2 3 5 5c6 6 7 7 3 1-6-6-5-7 0-2l5 5c2 0 2-4 0-6-1-2-1-3 2-7l3-8c0-1 0-2 2-1l1-9c-1-9-1-10-3-9v15c-1 2-2 1-2-5l-1-17c0-1-3 2-3 4-1 2-1 1-1-1l-2-5-1-2a569 569 0 0 1 15-6c-5 2-7 4-7 5 0 2 1 3 2 1l2-1 5-1 4-2-8 5-1 2c0 1 2 2 3 0l1-1 15-6c4-3 5-3 5-2l-10 6-10 6c1 2 0 4-2 3l-1 2c0 2 1 3 2 1l2-1 2-2c0-3 1-3 9-7 8-5 9-5 11-10s6-10 6-8l-4 7c-4 7-5 8-13 12l-8 6 1 1 15-8 4-2-10 7c-8 4-10 6-8 6s19-11 20-13l10-16-5 10c-5 9-3 10 2 1l6-8-7 13-3 6-11 8c-11 6-12 6-12 8h3l15-9c4-2 5-3 6-5l1-3 7-8 6-9-6 10-2 5h1a540 540 0 0 0 9-10l-12 20c1 1 4-3 11-14l8-11-9 15-9 14v16c0 14 1 15 2 13 2-3 2-4 1-4v-25a206 206 0 0 1 18-26 105 105 0 0 0-13 23l-2 2v5l1-2 2-4 2-3 14-19-4 7-5 8c0 2 2 1 6-6l5-6-3 5-3 6-2 3-2 3-3 5c-2 2-2 3-2 6v13l-1-7c-1-7-1-7-3 1v4l-1-6c-1-8-2-4-3 7 0 8 0 9-3 14-4 6-5 10-3 10l2-3 2-4 4-5 3-5 1-2 2-3c2 0 2 0 0 3a199 199 0 0 1-9 14c-2 1-3 14-1 14l1-3c0-5 0-12 1-10s2 1 2-2l2-4 5-6c2-4 2-5 2-15l1-11c2 0 3-2 3-5l1-1 6-6c4-8 7-10 2-2-2 4-4 11-2 11v2l-1 8-2 7c-1 2-1-1 1-8 0-2 0-2-1-1l-1-2 2-5v-4l-2 2c-2 2-2 3-2 12v9l-2-12v-3c-2 1-2 8-1 13s0 8-3 12c-4 5-6 10-6 12s0 2 1 1l1-4c0-1 0-2 1-1v5l-1 3c-1-2-3 0-3 2l1 2 3-2c2 0 2-1 2-6a80 80 0 0 1 1-10l1-1 4-4c3-7 4-8 2-1l-3 4c-1 0-3 5-3 10v5c-1 2 0 2 5-2 6-3 7-6 7-10l3-13c1-2 1-1 1 2l-2 7c-2 6 0 12 3 7 2-3 0-4-1-1-3 3-2 0 1-4 2-3 2-5 2-7v-3c2 1 2 4 0 10 0 2 0 2 1 1l2-5 1-4 2-5c1-5 3-6 3-2l-1 2c-1-1-3 6-2 7 0 1-2 6-5 9s-2 5 2 5c1-1 2 0 2 1h2l1-2h-2l-1-2c3-5 3-5 1-3l-2 4h-2l3-6c4-5 5-6 3-6v-2l2-3v-1c1 0 2 5 1 7l-2 4-1 5v2l3-2v-7l2-3 1-3 1-4 1-3v-5l-3-5c-2-3-2-5-1-10l1-8c1-1 1 0 1 3-1 4 0 5 1 8l5 8c1 3 3 5 4 5s2-3 1-4h1c3 1 2-3-1-8l-1-3 3 4c1 3 3 4 3 2l-3-6c-3-6-3-6 2 0 3 5 4 7 2 7l-1 1-3 5c-3 3-3 4-2 5h2l2-3 2-3v-1l5-5-1-3-5-7c-3-7-3-7 4 4 3 5 4 6 2 7l-1 3-1 1-3 3c-2 3-2 5-2 7 1 3 0 4-1 1-1-2-1-2-3 1l-2 2v-3c1 1 2-1 1-2h-1c-1 2-3 0-3-2h1l1-1-1-2c-2 0-4 4-2 6l-1 1c-2-1-2 2-1 5s3 2 3-2c-1-3 0-3 1 1v6l-3 7-3 5 2-2c1-2 2-3 3-2h1l3-1 2-1h-4l-1 1 1-3 3-4c0-2 4-3 6-2h1l1-1c1 1 2 3 2 7l1 6 1-2v-3l1-5 4-10c1 0 1 2-1 4l-1 4c1 2 3 0 3-2 0-1 1-4 3-5 3-4 3-5 0-5-2-1-3 0-5 2l-3 5-1 1v2l-1 2-1-4v-4l-3 5c0 2 0 2-1 1v-3l1-4c-1-1 1-6 2-6l1-1 1-2 2-3c2-4 2-4 1-7l-1-3 3 4c1 3 1 3-1 7l-3 4-1 1-2 2c-1 3-1 3 1 2l2-2 1-3c3-2 6-10 5-11l-8-17 5 9 5 7 6 2 5 1-5-2c-2-1-13-18-13-21l6 8 7 10 1 1a213 213 0 0 0-5-13c3 7 7 11 9 10l-12-20v-4l4 7 7 11 2 4c-1 1 2 4 6 6l5 2 2 2h1c1-2 1-2-6-6l-6-4-1-4-5-10c0-1 1-1 1 1l3 2v3c0 1 3 5 5 5l5 3 6 3c3 0 3 2 3 8l1 1 1-1 4-3 5-4 1-1c2 0 4-6 3-7h2l3-1 4-2 2-1-2-7c-2-7-7-16-8-16s-3-2-4-5c-2-4-2-5-1-8l2-7c1-3 2-5 3-4l-2 8c-2 6-2 7-1 10s6 5 7 3v1l1 2c1-2 2-5 1-7v-5c1-2 0-3-2-1s-2 0-1-4c1-3 2-4 4-3 1 0 3 0 4-2l3-2 1-1h5l2 2h3l4 1h2c2 0-1-3-4-3l-2-1-1-2c-2 0 0-2 3-2l3-2c0-2-3-2-8 0h-8c-4 0-5 0-9 3l-5 4 4-5c4-3 5-4 10-4h22c6 1 7 1 9 4l3 4v-4l-1-5c-1-2 0-2 3-2h5l-1-6c0-11-15-32-22-32l-4-1c-2-2-18-9-24-10l-14-1c-7-1-11-1-14-3-5-2-6-2-11-1-17 3-16 3-31-6l-12-7-4-2c0-2-2-3-2-3l-5-4-5-4-2-3c0-2-2-4-4-5l-5-5-3-3-7-4c-7-5-9-9-10-19 0-6 0-6 1-2 4 17 3 16 19 23l5 4-1 1h-1l3 3 5 6c1 2 3 3 6 4l6 2-4-3-5-4-2-3-1-2v-2h1l1 2v1c1-1 3 0 6 1l3 1-4-3-8-7c-4-6-5-9-2-7l3 1c1-1-1-6-3-6l-2-1 1-1c3 1 2 1 0-2l-3-3v3l-1 4c1 1 0 1-1 2-4 1-4 3-2 5l3 2c0 2-2 1-4-2-3-1-3-2-2-3 2-1-1-5-3-4-4 2-9-4-9-10l-1-3-2-3-2-3-1-5c1-4 2-6 5-9l5-4 4-5 4-6c2 0 10-8 9-9-1-2-12 1-16 3-1 2-6 4-10 6-7 4-7 4-15 3l-9-3c-1-2-2-1-4 3-3 5-5 7-9 9l-3 3-1 5c0 3 0 3 3 3 5 0 5 1 4 6 0 3-1 4-3 4l-5-2c-1-2-1-3 1-4h4l2-1-3-2c-5 0-11-1-12-3h-2c-3 1-2 2 3 3 3 1 4 2 5 4l2 6c2 3 1 5-1 2-2-1-2-1-2 1 0 3 0 3-1 2h-2c0 2-5 1-5 0v-4h-1l-1-2 2-3c0-2-3-4-4-2-1 1-2 2-3 1l-2 1c-3 4-3 2-1-1l3-4c0-2-6-1-12 1-5 1-5 1-8-1l-4-2-4 5c-3 2-5 6-5 7l-2 3v-2c1-2 1-2-1-2-4 2-8 1-10-1h-3l-5 4c-5 2-8 5-9 8l-3 3-2 1h2l2 3h-1c-2-1-3 0-2 2l-2 1-3-3c0-2-2-4-4-5-3-2-3-2-4-1l-6 6 3-4 1-3-6 8c0 3-1 4-3 2h-1v3c3-1 3 3 2 10l-2 7 4-12c0-4 2-6 10-6 7-1 8-1 12 2l5 6c1 3-1 7-3 7l-4 3c-2 4-2 4-4 3s-3 0-4 1c-1 2-2 2-4-1v-1l2-1c0-1-4-3-7-3l-5 3c-2 2-4 3-4 1h-1l-4 1-1 2c0 4-9 10-14 10l-2 1c0 4-2 2-3-2-1-5-3-6-4-3h-3l-2-1c-3 1-2-7 0-10 3-4 1-7-4-7l-3-1c0-2 2-4 3-2 0 2 3 1 3-1s-1-3-4-1c-2 1-5 0-3-1v-3c-3-4-3-9-1-8h7c9 0 9 0 8-2-1-1-1-1 1-2 1-1 2-2 1-3l1-2 2-2 2-1v-1l-1-2-2 2-3 2c-1 0-2 2-3 7-1 2-4 2-7 1l-3-6c0-5 1-7 3-4 2 2 3 1 1-3l-1-4 3 3c0 2 1 3 2 3 1-1-4-8-7-9-4-2-8-6-8-8s0-2 2 0 2 2 4 0v-3c-1-6-1-11 1-13 2-3 4-2 11 3 6 5 8 4 3-1l-4-4c0-2 2-2 4-1h1c0-2 3-1 4 1 1 1 3 2 4 1l4 2c4 3 6 3 6-2 0-4-3-9-5-9s-4-4-3-6c0-2 0-2-2-2l-4-1c-1-2 0-2 3-4l6-2c3-1 2-3-2-4s-6-3-5-4l3 1c2 1 4 1 6-1 2-1 2-1 6 2l3 4-1-3-4-6c-2-2-3-2-4-1l-2 2-10-3c0-1 2-1 6 1 3 1 6 1 3-1-3-1-3-3 0-2h3l4 2c3 2 3 2 5 1v-2l-1-1c0-1 1-2 3-2l2-1-4-1c-2 0-2 0-2-4 0-2 0-3-2-4l-2-1-2-1c-3 0-3-2 0-2 2 0 2-1-1-2-2-2-3-2-3 0h-3c-1-2-7 1-7 3v1l-1 1h4l3 1-2 3-3 3c0 1 0 2-1 1l-3 2c-2 3-1 3-3 2-2 0-2-1-1-3 0-2 0-2-1-1h-6l-2-1-2-2c-4-2 7-9 13-9h3l-2-3c-2-2-2-3-4-2H34c-3 1-3 1-3-1l1-2 2-1c3 0 5-1 4-3l2-1 1-1c0-2 1-2 4-2l5 1c1 1 2 2 3 1l1 1v3c1 1 6 6 6 4l-2-3c-3-3-3-4 1-7 2-2 3-4 1-4l-2 2-4 2c-1 1-2 0-3-2l-4-6c-3-2-3-2-2-3v-2l-2-2c0-1 2 0 4 3 4 4 5 4 2-1-2-3-2-3 0-4 1-2 2-2 3-1h1c-2-2-1-3 4-2 3 0 5 0 6 2l3 2 3 2 4 1c2 0 2 0 2-2l-2-4c0-2 0-2 2-2 5 0 7-3 3-5-3-2-3-1-2-3 0-2 1-2 3 1 5 3 7 3 4-1l-3-3-1-2c-1-3 0-4 1-2h5c3 2 5 1 5-1 1-2 1-2 3-1l3 8c1 6 3 8 4 7l-3-11c-1-2-1-2 1-2l3 2 3 1 2 3c0 4 1 4 3 0s2-4 0-4l-2-1 1-1 3-2c2-3 4-2 2 1s0 4 1 1c2-1 2-1 3 2 0 3 1 3 3 3h2c0 2 2 2 5 2l1 2 1 1c3-1 2-3-2-5s-7-6-6-7l3 2 3 3-2-4c-3-2-3-4-3-6 0-3 0-3 3-2 2 1 3 1 3-2v-5l1-3-3 2c-3 3-11 5-14 3l-1-3-2-2-3-6-2-6s4 1 5 3l4 1c0-2-5-5-9-5-5 0-9-4-10-10l1-4 1 3c0 2 5 4 7 4 1-1 1-1-1-4-5-5-6-10-4-13s4-2 4 1l2 4v-2l-2-8c-2-4-2-4-1-6 2-1 2-1 1 1l2 5c4 4 5 3 3-2-1-2-2-4-1-5v-5l2-5c1-1 1-1 1 1v2c1 0 2 1 1 3l1 2 2-3c0-2 1-3 2-3l2 1-1 1-1 1h2l2-1 1-1 1 2c-1 3 0 2 4-1 3-2 5-3 6-2l4 12c1 3 1 3 2 2h3v-1c-2-4-2-9-1-9l2 3c1 4 3 5 2 2l1-2c2 0 3-3 1-5l-1-2 4 3 3 4-2-4-2-5 2 2c2 4 8 6 13 5 2-1 3-4 2-8l1-4v-4l3 1h2c2 0 3 1 6 4l3 5 1 1c-1 1 0 1 1 1l3-2c0-2 1-3 3-4s2-1 1-3l-2-6-1-2-1 2c1 4 0 4-1 5l-2-1v-8h-5c-5-2-5-2-10 0-4 2-5 2-9 1l-4-3h3c5 3 8 2 4-1l-5-5-3-4-3 2-3 1c-1-1 1-7 3-10l2-4c0-1 5-3 7-2 2 0 2-1 1-3h-4l-5 3-5 5c-3 5-8 8-12 8-5 0-8-1-8-3l-4-5c-3-4-3-4-2-8 1-3 0-5-1-8-2-5-1-6 2-1 3 4 8 8 9 7l-2-4v-3l-1-4c-2-6-1-8 2-8 3 1 3 1 3-2 0-4 0-4 2-3 2 0 6 8 6 11 0 2 1 3 7 4 2 1 2 1 1-4l-2-7-2-5c1-1 1-1 2 1l3 3c2 0 2 0 0-5l-4-7c-3-2-2-3 0-2l2-1 2-1 1-1c0-1 1-1 2 1 2 2 3 1 1-3-3-4-2-6 0-3l4 2 2 2v2l1-2c2-3 3-2 2 2v4l1-3c2-4 1-4 3-3 1 0 2 1 2 4v4l2-4c2-5 3-5 3-1l1 10v1c2-2 3-1 3 1 1 2 2 2 4 2s3 0 3 3l1 5c1 1 2 1 2-1l1-2 1 2c1 3 3 1 3-4 1-3 1-3 3-3s2 1 2 2l1 1c2 0 2-2-2-8v-8l1-5 1 3c0 3 6 13 8 14 1 0 0-3-3-7-3-7-5-16-3-15l1 4 1 4c1 2 2 2 2-2l1-4 1 3c0 4 2 5 2 1 0-2 0-3 1-2l1 2c1-1 2 0 3 2 0 2 0 3 1 2 0-3 3-3 3-1l2 2v-2l-2-4c-1-4 1-5 2-1 2 5 4 6 3 2l-1-4v-4l2 2 2 2 1 1 4 6c5 4 5 4 2-2-2-4-2-5-1-5l3 4c2 2 2 4 2 7-1 3 1 4 3 1v-5c-1-4-1-5 1-2 1 2 3 2 3-1l1-3 1 4c-1 3-1 6 1 9 3 5 3 5 0 8l-3 4c0 2 0 2 1 0 1-3 3-3 4 1 0 2 1 3 2 2l2 1 2 3 3 2-1 2-1 8 2-4c1-4 3-8 7-13h1l-2 4c-2 4-2 4 0 5l6-1c4-2 5-2 2 1v1h2l-6 2c-4 1-5 2-3 2h9c3-2 2 0 0 2l-12 1v-1l-2 2-2 2-2 1 2 1 1 2-2 5c0 2 0 2 1 1 2-1 3 0 3 2s0 2-1 1-2-1-3 1h-1c0-2-5 1-5 3s-2 4-4 4l-3 3c0 3-2 3-2-1l1-3c1 1 2-2 1-4-1-1-1-1-1 1l-2 2-3 2h-4v-2l-2 5-2 5-1-7c0-3-1-4-3-5-4-2-6-6-6-11 0-7 2-6 2 0 1 6 2 8 3 8l-1-5c-1-7-1-7 2-7 3-1 3-1 2-3l-6-6-4-6c0-1-3-3-4-1-1 0-1 1 1 2v4l-3 1c-2 0-4 3-3 5v2c-2 1-1 2 5 7 2 2 3 3 2 4s-1 0-3-1c-3-4-5-4-2 0l2 3-2 1-5 1-1 4c0 3-1 5-3 7s-2 2 0 2c3 0 3 2 0 3-2 0-3 2 0 2l1 2 4 2c4 1 5 2 2 4-2 2-3 5-1 7v4c-3 3-10 2-10-1l-1-2c-1-1-1 0-1 2l-1 4c-2 2-2 2-4-1-7-8-9-10-10-6-1 2-1 3 1 3s3 0 3 2l2 3v4h-2l-4-6c-3-2-4-4-4-5v-2c0-2-3 1-3 3l-3 7h-1c-1 1-2 2-1 3 0 2-1 3-3 0h-1c1 1 0 3-1 4l-2 4-1 3-1 3c1 3-2 8-3 6-1-1-2 0-4 1l-2 2 2 5 3 5c0 2-2 1-4-1l-2-1 3 4c4 3 4 3 2 4v2l1 4c0 1 1 5 3 7 3 4 3 5 1 6-2 2-2 2-5-1l-5-4c-1-3-3-3-2 0 0 2 0 2-2 2s-3 0 0 4c1 2 2 4 1 5 0 2 0 3 4 4l7 5 3 4-2-4-1-5c0-1 4 3 4 5l2 1-1-4c-3-4-1-5 2-1l1 1v-9c2 0 3 3 3 5 0 1 2 2 3 1l3 1c2 3 4 4 4 2l-1-2-2-3c0-2 1-3 4-4h10l-4-3c-7-7-9-8-9-7l1 2c1 1 2 4 0 4l-2-1-2-2c-3 0-8-6-8-8l-1-7c-2-4-1-7 1-6l1-1c1-2 1-2 2 0l2 2c1-1 6 0 9 2 4 3 3 0-2-3-4-3-5-4-4-5h3c3 2 5 3 3 1l-5-4-7-3c-2-3 1-3 5-1s6 3 4 1c-3-3-3-10 0-10v-3c0-3 0-3 2-3 2 1 2 1 3-2 1-2 1-2 3-1 2 2 4 2 5 1 0-2 7-2 9 0l6 1 5 1c1 1 1 1 1-1l-1-4c-2-3 1-2 2 1 1 2 3 3 4 2 1 0 1-1-1-4-4-6-4-8-3-11 2-2 2-4 1-6l-1-4h2v-2c-2-2-2-4-1-4s2-1 2-4l2-4 3-1c2-2 3-1 3 1l1 2c1 0 2 10 1 11h-2c-1-1-1-1-1 1l-1 4c-1 1-2 2-1 4l6 12v-13c-1-2 1-4 3-3 2 0 2 0 1-3-1-4 0-5 1-2 3 7 3 8 4 7l-1-5c-2-5-2-7-1-6l1 2 5 8-1-5c-3-5-4-9-2-8l1 4 3 3 3 4c2 4 2 3 1-3-1-5-1-6 1-4h2l1 1 2 1c1-1 3 0 4 2l3 2-2-4c-2-2-2-4-2-9 0-7 0-7 4-9 2-2 4-2 5-1h2l2-2h1l2-1v-1l-1-3c0-2-2-3-2 0l-2 2v-12c2-4 3-4 3-1s0 3 2 3 3-1 3-2h2l2-1 1-1 2 4c0 4 2 6 2 2h1v9l2-4 2-6 1-3 1-2 5 11 2 3 1 2c-1 1 1 2 4 2 2 1 2 5-1 12-3 5-3 7 1 7l5-12c1-4 2-5 3-4v-2c-2-2 0-2 2 0l4 2c2 0 4 6 4 11 1 5 2 8 3 6s1-6-1-9v-3c1 0 4 4 4 7s1 5 2 4v-1l3-1c2 0 3 1 3 3 0 1 1 4 3 5l3 4c0 2 1 3 2 1l-4-9-2-5-2-4c-2-2-6-8-6-11s2-3 2 0v3l1-3v-5l1-3 2-1-2-1c-2 2-7 2-10 1-2-1-2-3-3-10-1-5 2-13 4-13l1 2 2 1 3 4 3 3-1-5-1-2-2-2c-2-1-2-1-1-5 0-6 2-7 2-3 1 4 3 5 4 1 1-6 2-7 2-1l1 6 1-5c0-4 0-6 2-7 2-2 2-2 4 4v3l1-3 2-3 3-1 3-2 1 4c-1 3-1 3 1 2 1-2 1-2 1 1-1 3 0 5 2 2 0-3 2-3 4 0 1 3 1 3 4 1 2 0 3-2 3-3l1-1 1 2c0 2 0 3 2 2v4l1 5 2 5c0 3 0 4 2 5l2 2c0 2 1 3 4 3l4 1c2 1 5 6 5 8 0 3 2 4 3 1 0-2 0-2 2 0h1l-3-4c-3-4-2-5 2-3 5 3 6 3 6-2l-1-6v-2l2 1 2 5c3 5 3 9 0 9-1 0-1 1 2 2l3 3 1 3c1 1 1 0 1-3-1-4-1-5 1-6l3-3 2-3c1 0 0 19-2 25l-1 7h-2l-3-2c-3 0-3 0-3 2l3 14 1 4v4c-1 3 0 11 1 13l2 3c1 1 1 1 2-1l-1-4v-4c0-4 2-4 2 0l1 4c1 1 1 2 4-4 2-4 3-8 1-5s-2 0 0-4l1-12 1-18c2-2 1-3-1-2-2 0-2 1-3 7l-3 3 1-6 1-7v-3l1-7c0-11 0-13 5-12 2 0 2-2 0-6 0-2 1-2 3-3s3-2 3-4 1-3 2 0l3 1 3 4c1 4 3 6 3 4s1-2 3 0c3 2 4 1 3-2v-7l3 7c2 7 3 6-2 15-2 2-2 3 1 5l2 4c0 2-2 5-3 5l-2 1-4 2c-2 0-3 0-4 3l-3 4-1 5c-1 4 0 4 3 1 1-3 3-4 3-1h2c2-3 4-2 4 2l-1 3-1-3c0-3-2-2-4 3-3 5-4 5-3 1v-3l-2 1c-2 3-3 8 0 9 1 0 2 8 0 13v4c0 1 5-10 5-15l2-3c2 1 0 7-3 15-3 6-4 7-2 8 2 2 3 0 8-10l4-7c2 0 4 3 3 6 0 3 0 3 1 1 2-4 3-2 3 3a754 754 0 0 0 0 16c2-2 5-3 5-1l-2 4c-2 2-3 2-3 1l-1 3v4l2 4 1 4v-4c0-3 1-5 3-7l3-3h-1l-2 1v-2l2-2 1-5c0-6-1-7-5-6-2 0-1-1 1-3l2-2h-1l-2 1v-7c-2 2-2-1 0-4 3-4 4-5 5-1l2 4c1 2 1 2 3-1l2-5c0-2-3-4-5-3-3 1-2-1 2-7 5-7 5-8 1-4l-4 3v-2l-1-3c-2 0-1-2 1-2 3-1 4-6 3-12 0-4 0-5 2-7 1-2 5-2 5 1h5l2 3c1 1 1 1 1-1l2-9v-10c-2-2-2-2-2 0s-2 4-3 2 3-10 5-10l1 4v5l2-3 2-3c0-2 2-3 3-3v6l1 5c2 0 2 1 1 4 0 4 1 4 2 0 2-6 5-3 6 6 0 4 1 6 3 6l2 4c0 3 0 3 2 3l4-2c2 0 2 0 2 5l-3 8c-2 4-2 7 1 7l1 1c0 3 5-5 11-17l2-3c2 0 1 2-2 6-3 5-3 6 2 3l3-1-3 3c-3 2-3 2-3 7v7c-1 2 0 3 2 1 2-3 3-1 2 2-2 2-2 2 0 2s2 0 2 3c-1 2-1 2 1 2h4c2 2 3 2 3 1 0-3 2-2 2 1l1 3v-3c0-4 2-4 2 0l3 6c1 1 3 3 2 4l2 1 2 3c0 3 5 2 6-1 2-5 3-3 2 2l1 7c2 1 0 2-3 2s-5 2-5 3h3c3 0 3 0 2 2 0 3 0 3 3 4 5 0 5 1 1 3-3 2-6 2-3 0 2-2 2-3-1-3l-2 2c-1 2 0 6 1 6 2 0 4 3 3 5 0 2 0 3 2 4v3l-2 3c1 1 4-2 6-7 1-3 1-3 2-1l-2 5c-3 4-3 5 0 4v1h2c3-3 4-1 1 2l-2 2 3-1c3-2 4-2 4-1l-3 3-4 2 4 2c3 2 4 5 1 4-2 0-2 0-1 2l4 5c3 3 2 5-2 3-2-1-3-1-3 3l-2 3-1-1c1-1 0-3-2-4-4-3-4-2 0 3 2 3 2 7 1 7l-1-3-3-5c-3-2-6-3-5 0 1 1 0 1-2 1-3-1-4-1-3 1l-1 1c-2 0-2-3-1-5s1-2 3 0l2 1-1-2-1-3-2-2c-4-1-12 0-14 2-1 1-1 1-3-1l-1-2 2-1-15 1c-1 2-4 2-6 2-4 0-4 0-5 3s0 4 2 2c0-1 1-1 1 1 2 3 1 4-3 4l-5-1 1-1c1 0 2-5 1-6h-2l-2 1-2 1-4 1-9 2c-5 3-7 3-11 3-5-1-5-1-5 1l-1 2-4 3c-3 2-3 2-4 1l1-4c2-1 3-7 1-8l-2 1h-2c-1-1-2 0-3 1-7 7-11 8-12 4 0-5-2-9-4-9l-4 2-6 1h-2l3 2c3 0 3 0 2 3v4l2-3c1-2 2-2 2-1v8c-2 0-1 2 1 1h4c2 1 2 1 1 3l-2 3-3 3c-3 3-3 3-1 3l2 1-5 4-1 2c1 2 0 3-1 4-2 2-1 3 2 2 2-1 3-2 4-1h3c2-1 3 0 0 2v3l-2 2c-1 1-1 1 1 2 1 2 1 2-1 3v2l2 3c0 1-5 3-6 2-2 0-2 0-1 1l-2 2-2 2 12 9c3 1 5 0 4-2v-1h1l1 1 1-1 1-2 1 1c-1 2 0 1 2-1h6c1 0 2-1 2-3 0-3 3-6 7-6l2-1-5-1-4 1v-5c0-4 0-6 3-9 4-3 5-4 5-1l3 1 1 2c0 2 0 2 1 1s2-2 4-1h3l-3 3c-3 4-3 6 1 3l4-2c1 1 0 1-2 2-3 2-3 2-1 4h7c0 1-1 2-2 1-3 0-5 2-3 4 1 2 2 2 4 1l5-1c4 1 6 4 3 7l-2 4-1 2h-1l1 1c1-1 3 0 4 1l3 2 1 1c0 2-3 3-5 2l-2 1h2l1 1-2 2c-3 1-6 0-8-3-1-2-2-2-5 3l-5 5-4-3c-1-2-2-3-1-5l2-4c1-2-1-4-6-6-3-2-5-2-8-1-2 1-2 1-1 3l3 7 3 4c1-1 3 0 4 1v1c-1-1-2 0-1 1l-2 3-1 2h3c3-2 3-1 0 3-3 3-4 4-1 4l1 1h-6c-1 1-1 1 1 1v2h-4l-2-2c0-3-3-6-7-6-4-1-4-1-4 2 1 2 1 2-1 2l-7-2-5-2 3-5c3-4 3-6 0-5-4 0-4-1 1-5s5-4 3 0c-1 4 0 5 4 5l4 1c2 0 2 0 2-2s-2-3-4-1c-1 2-2-1-3-5 0-4 0-4-3-6l-6-2-6-4c-8-8-15-10-15-6 0 1-1 2-2 1l-4 1c0 2-2 2-3 1-3 0-4-1-2-3l1-7c0-4 1-5 2-5v-2c-3-5-3-5-6-2s-10 5-10 2l-2-1-2-1 1-1 4-2 3-2c1 1 2 0 4-3l2-4v3l-1 3c1 1 4-2 4-4l1-4c1 0 1-1-1-1l-14-2 2-1 1-2c0-2-1-1-7 5l-5 3-1-4c-1-4-1-5-6-5l-4-1v6l3 8v2l-6-4c0-1-1-1-1 1h-3l-2-5-1-4-2-3c0-2-1-2-5 0-3 2-5 3-6 6-3 6-2 8 2 18 4 11 5 19 3 24-1 3-2 4-8 6l-11 6-7 5-4 6c-3 5-8 10-13 11h-11c-6 0-8 0-9 2-3 3-3 6 0 10 3 5 11 12 13 12s6 3 6 4h-5c0 2 4 2 5 1 1-2 2-2 6-1 15 3 36 4 44 2 6-1 12 0 18 5 5 4 9 5 15 5 5 0 23 3 26 5l12 12 10 11 3-1v-6c-1-5-1-5 2-7s8-1 15 2c6 3 6 3 6 7s0 4 4 4l6 2c2 1 5 7 4 8l3 1c3 0 4 1 7 4 3 4 3 4 8 4l8 1c3 1 3 7 1 18l-2 11-1 6-5 10 2 5c4 5 4 5 8 6 3 0 5 0 6-2 3-2 7-3 10-2s3 1 6-2c4-5 6-5 11-2 5 2 8 2 8-2l3-4c2-2 3-2 6-1h8l7-2c6 0 8-1 10-4s6-6 8-5c1 1-1 3-3 3l-4 1 2 1c6-1 6 0 4 3-4 6-4 7 0 3s7-5 3-2c-2 3-2 5 1 3 3-3 1 1-5 7-7 8-8 11 0 3l9-9-1 2-10 13 5-5 6-5c1 0-1 3-5 6-6 6-7 9-5 9l1-1 9-10-6 8-5 9 6-6a1356 1356 0 0 1 2 3l4-3c1-1 1-1 0 0l-6 9c-7 8-9 11-7 10 2 0 8-8 13-14h1l-5 7c-4 6-9 13-6 11a210 210 0 0 0 12-14l-5 8-6 7c0 2 4-1 6-3 3-4 4-3 1 1l-3 5-5 4-5 3c0 2 1 1 4-1l5-3 3-2c3-4 3-4 1 0l-3 3-2 1 2 1c1 0 2 0 2 2s0 2 2 0c1-1 1-1 1 2s0 4 2 4c1 0 1 1-1 2-2 0-4 2-5 4s-2 3-5 3c-2 0-3 1-5 3-3 5-4 9-2 10v3l-4 2-4 2c-1 1-2 2-3 1l-5 3c-3 3-3 4-9 4l-7 1h5c0 2-3 3-6 3l-4 2-3 1c-1 0 1-5 4-6 4-3 4-4-1-3-7 1-8 1-11 3-2 2-2 2-1 4l3 1 3 2c1 1 1 1-1 1h-4c-2 1-2 1 0 1l4 2c2 1 2 1 4-1l8-4-1 2-2 1 3-1 16-6c1 0 0 2-2 3l-4 6-1 3c-2 0-8 11-8 14l1 2 1 3c0 2 2 3 4 0 3-2 9-1 11 1l2 3-6 2-8 1-7-7-4-6 4 2-1-2-1-2c1-1 0-2-1-4v1c2 3 1 4-1 1-2-2-2-2-3 0-2 2-2 6-1 6v-1h2v4l4 3c3 5 4 5 1 4-1-1-6 1-15 6l-9 2-10 2-6 2c-1-2 1-4 4-5l3-1-3-7c-3-7-4-9-1-4 3 7 3 4 0-3l-3-6v4l1 6 2 9c-1-1-4 2-4 5-1 2-2 2-3 2-3-1-7 2-6 4 1 1 4 1 9-1 6-2 10 0 10 4l1 4-6-1c-5 0-6 0-7 2-3 3-5 3-5-1-1-4-2-4-6-2h-7v2l1 1-9 3c-8 1-9 1-10 4-2 4-2 4-4 1-2-2-7-2-12 0l-3 2v-3c0-2 0-2-1 0s-1 2-2 1h-3l-4-3c-3-3-3-4-1-2 2 1 2 1 2-2 1-2 1-3-1-5-3-3-2-3 3-1h5c-1-2 0-6 1-6 2 0-1-6-6-11-4-4-5-5-5-3l-4 3c-3 0-5 1-6 3-1 3-5 4-14 4l-6 1-3 3-4 2-2 1-3 7c-4 7-6 10-8 9h-1l-2 1c-1 0 0-2 2-3l2-5-2 2c-3 5-3 4-4 3-2-1-3-8-1-10l1-2c-1-1-1-1-2 1l-1 2h-4c0-2-1-2-2-1-2 0-2 0-2-2l2-4c0-2 0-2-1 0-2 2-2 2-3 1h-3v-4c0-3 0-3-1-2l-1 4-1 2-1-5c0-3 0-3 3-3 3 1 7-1 7-3 0-1 2-2 5-1 3 0 4 2 1 2-1 1-1 1 1 1s2 1 2 3l1 6 2 3v-5l2-7 1-4v-3l1 1 3 1c2 1 3 1 4-1 3-3 3-2 2 1-2 3-2 4-1 4l3-4 1-1-2 6-1 3 3-4 4-6 2 1a587 587 0 0 1 0-3c1-1-1-4-3-4l-4-1c-1-2-1-2 4-1l5-1-3-1c-2 0-3-2-1-4s7-2 8-1h3c3-2 3-2 2 0 0 2 0 2 1 1 2-2 5-1 6 1l5 2c3 0 4 0 4-3s-1-4-2-3h-1c0-3-3-2-5 0-1 1-1 1-1-1v-2h-1l-5-1c-3 0-2-2 0-2s2 0 1-3c-1-2 0-3 2-1l4 1c3 0 4 0 4-2s0-2-2-2c-1 1-2 0-3-1l-3-2-7-2c0-2-7-1-8 0l-2 2-4 5c-3 6-12 14-17 17l-7 5-4 3-3 1-3 1-3 1c-1 2-2 2-3 1s-2 0-5 2l-3 3-10 7-3 2c-1-1 2-6 4-7l9-7h-1l-3 1-4 1h-2c-1-2-2 0-2 3 1 1 0 2-3 2l-8 1c-6 0-10 1-10 2l3 3c3 2 3 4-1 4-4 1-6 0-4-2l-2-1c-3 0-4 0-3 2l-1 1c-6 1-7 1-6-1 2-3 7-6 15-9 2-1 2-1 1-3s-1-2 2-4c2-2 3-2 15-2h12l3-1c5 0 7-1 10-6l7-6c5-1 6-1 3-2h-12c-1-1-1-1 2-1 2 0 3 0 2-1l-2-1-4-2c-3-2-3-2-2-3l3-2 1-2c0-4 1-5 5-6 3-2 4-1 5 0 2 1 2 1 4-1l2-3-11-3c-5 1-5-1-1-1 6-1 16 3 16 7l2 2 2 1 5 1c4 0 5 0 5-2v-3l-2-1c-2-1-2-1 0-4 1-3 3-4 5-5l4-1c0-1 5-1 8 1 3 1 3 1 7-2l5-4 2-1 5-1 7-2c5 0 5 1 1 3-2 1-8 10-8 12l-1 1-1 1 4 1c3 1 7 2 9 4 6 3 6 4 6 2l-3-4c-5-4-1-3 13 3l17 6c3 0 4 1 4 2 0 2 2 3 2 1h1c1 2 1 2 3 0 1-1 1-1 1 1l1 2 1-1 1-1c1 1 3 0 5-1 4-2 6-4 4-4l-1-1 2-1 1-1h-2l-3 1c0 2-3 1-6-1l-2-4h-2l-5 2c-4 2-5 1-2-1l4-2h2l-2-2c-4-4-5-4-5-1l-1 4c-2 1-2 1-3-1l-1-1-1 1c-1 0-2 1-1 2l-1 1-9-8c-1-3-1-4 2-8l3-5 1 2v2l1 4c1 2 2 3 1 5-2 4-1 5 1 2 3-2 3-8 2-20-1-4-1-6 1-8l4-3c1 1 1 1 0 0-1-2-13 0-16 2l-2 2-4 2c-2 2-2 2-3 1 0-2-13-1-18 0-1 1-4 2-5 1l-1 1-1 2h-4c-1-1-3 0-5 2-4 4-9 5-12 2l-5-2-3-1 4-1 6-1c1-2 1-2-3-2a248 248 0 0 1-27 3h-2c0-1 1-2 4-2l12-4c1-2 1-2-2-4-2-3-7-4-7-2l-2 1-2-1 2-1c2 0 4-5 2-6l-1-2c0-2-1-3-3-1s-1 3 1 3l2 1c0 1-5 2-9 1v3l1 2c0 2-1 3-5 3l-7-1-3 2-7 8c-3 0-8 5-8 8-1 4-6 10-8 10l-1 2-3 5-5 6c-1 5-9 12-13 12l-4 3-3 2c-2 0-10 7-16 13-5 6-6 6-4 8s3 2 7 1c7-2 6 0-2 4-7 3-9 5-10 9 0 2 0 3 2 3l2 1 2 1 1 1-7 3c-3 0-7 2-8 3v1h1l-5 3-6 3-4 2-4 1h-6c0 2-5 8-6 8l-1-2-1-3c-2-2-2-2-2 0v2l-1 1c-2 2 1-13 4-19 1-3 0-2-3 1-2 2-3 2-5 1l-3-2 5-3c5-3 6-5 2-3l-3 1c0-1 5-5 10-7l4-1-2 2-2 2 2-1 3-2c1-2 2-2 2-1h3v-1l-4-1h-3l-2-1h-2l-2 2 1-2c1-1 1-2-1-2-1-1-2-1-2 1l-7 6 3-5c4-4 4-5 1-5-2-1-2-1 1-3l5-2c2 1 4 0 7-2 5-2 5-3 2-2-2 0-2 0-1-1 1-2 1-2-1-1l-2 2-3 1c-3-1-4-2-1-5 2-2 2-2 7-1l6 2-2 3c-1 2-1 2 2-1 3-2 5-3 6-2l3-1c1-1 0-4-2-4l-3-1c-1-2-4-3-4-1v2l-1 2-1-1 1-7c3-8 4-8 1-6l-9 5c-8 3-15 9-16 12l-2 3c-1 0-7 6-7 8l1 1h1l5 1c2 0 3 2 1 2l-5 4c-4 4-5 5-5 2 1-2 1-2-1-1l-3 1c-1 0-3 1-3 3l-3 1c-2 0-1 2 1 2l1 3 2 4c2 3 2 3 0 6l-3 9-2 5v5l-4 13-1 2-2 3-2 2-2 3c-1 0-4 3-6 7-1 4-4 8-6 9-3 3-4 6-2 6v3l-2 5 2-2 2-3v3l-2 5c0 1 0 2-1 1-2 0-2 1-2 5 0 6 0 7-2 8-2 3-2 6 1 15l2 7-3 4c-5 8-5 10-6 21 0 10-2 22-4 27-1 2-6 8-6 6 1-1 0-2-1-2v2c0 3 0 3-1 2-2-1-2-1-2 1s-1 3-3 0c-2-2-4-1-2 1 2 3-1 3-3 0l-3-1 1 2v1l-4-2-2-3v-1c-2-3-3-2-2 2l2 4c0 1-3 0-5-2l-2-2v2c1 3-3 3-6-1l-3-3c-1 1-2 0-3-1-1-3-5-4-6-3l8 7 3 3-4-2c-4-2-4-3-4 0 1 1 0 2-2 2s-3-1-4-5l-2-4v5l1 3c-1 1-1 0-2-2l-3-4-1-4-2-4c-2-2-1 5 1 10l2 5c-1 0-2-1-2-3l-3-3-1-5c-1-6-3-6-3-2-1 2 0 4 1 8l2 5-4-6-3-4c0 2-2 0-2-2 0-4-2-5-2-1 0 3-1 7-2 5l-2-6-2-6-1-4c0-3 0-3-1-1-1 3 0 11 5 19l2 6-3-4-3-5c-2 0-5-11-4-13 1-1 0-2-1-2-2 0-2 14 1 16l3 8-3-5m58-1c-3-4-6-6-6-4s6 7 7 6l-1-2m-20 1-5-6 4 7 1-1m14-1-2-1v2c1 1 3 1 2-1m18 1-7-5 6 6 1-1m6 0-3-3c-5-4-5-3-1 1 2 3 4 4 4 2m3-2-2-3-2-1 2 3c1 2 2 2 2 1m8-8h-2l-1 3-1 1h-2l1 1c2 1 5-3 5-5m-41 4-3-2 2 3 1-1m13-2c-2-1-3-1-1 1l2 1c1 0 1-1-1-2m6-1-3-1 2 2c2 2 3 1 1-1m8 2c0-1-4-5-6-5s-1 2 2 4c2 2 4 3 4 1m6-2c-2-2-2 0-1 2h2l-1-2m-45 1-1-2-1 2 1 1 1-1m6 0-2-1c-1 0-2 0-1 1l1 1 2-1m-22-6v-4l-2 3v5c0 3 1 2 2-4m30 5-1-3c-2-2-2 0-1 2 0 2 2 3 2 1m-53-7-2-3 1 6c2 5 3 3 1-3m48 5c0-2-3-5-4-4l3 5 1-1m32 0-3-3v2c1 2 3 3 3 1m8-2c-1-1-2 1-1 2h1v-2m-60-3v-5l1-5 1-4-2 2c-1 1-2 3-1 4l-1 3v8c2 3 2 2 2-3m4 0-2-2c-1 1-1 2 1 6 1 2 1 0 1-4m9 0-2-1v5c1 1 2 1 2-1v-3m43 2c-2-2-3-3-3-1s3 4 4 4l-1-3m-68 0-1-5c-1-2-1-2-1 2l1 5 1-2m53 1-3-2c-2-1-2-1-1 1 2 2 4 3 4 1m-33-1-1-2-1 2 1 1 1-1m21 0-3-1-1 1 2 1 2-1m-6-1-1-1c-1 0-2 0-1 1l1 1 1-1m10 0-2-2v2l2 1v-1m12-1c0-2-2-3-2-1l3 3-1-2m16 1v-2h-3l2 3 1-1m-69-5-1-3-1 4 1 4 1-5m26 3-1-1-1 1 1 1 1-1m-43-6v-3l-1 3-1 5v2l1-2 1-5m9 5v-1h-1c0 2 1 2 1 1m43 0-1-1-1 1 1 1 1-1m-67-4c0-1 0-2-1-1l-1 3c0 2 0 2 1 1l1-3m44-2c-1-2-1-2-1 0v4c1 2 1 2 2 0l-1-4m43 3c-1-1-2 1-1 2h1v-2m-38-3h-1v4h1v-4m12 5-1-2h-2l2 2h1m36-4c0-2 0-2-1 0v4l1-4m-61 0 1-7v-5l-2 6-1 7c0 2 2 1 2-1m19 1-1-1-1 1 1 1 1-1m8-2c-1-2-2-1-2 2h2v-2m40-4c-1-1-2 0-2 4l-1 4 2-4 1-4m-74 0a324 324 0 0 1 1-13l-3 17c0 4 2 2 2-4m45 6-1-1h-1l1 1h1m8 0-1-1h-1l1 1h1m-70-3h-1l1 2v-2m78 1-2-1-1 1 2 1 1-1m-70-4-1-2-1 3c0 3 0 3 1 2l1-3m-11 0c0-3-1-3-1 1l1 2v-3m-8-1c-1-1-1 0-1 1s0 2 1 1v-2m33-3-1-5-1 6c0 7 1 6 2-1m20 5-1-1-1 1v1l2-1m10 0-2-1-1 1 2 1 1-1m16 0v-1l-1 1v1l1-1m-3-3c-1-1-2 1-1 2h1v-2m22 0c-1-1-1 0-1 1s0 2 1 1v-2m-108-3c-1-1-1-1-1 2 0 2 0 3 1 2v-4m17-6v-4c-1 0-3 6-3 11v5l1-4 2-8m52 11-2-1v1h2m-43-25c2-5 1-8-1-5l-2 12-2 13 1 3 2-8 2-15m39 19c0-3 0-3-2-2v6l2-4m6 3c0-2-2-3-2-1l2 2v-1m21 0-1-1-1 1v1l2-1m-80-5 1-5c-2 1-3 8-2 9 0 2 1 1 1-4m66 2c-1-1-2 1-1 2h1v-2m26 2-1-1v1l1 1v-1m-67-10c0-2 0-2-1 1l-1 6v4l1-4 1-7m18 8h-1l1 2v-2m-33-16h-1c-1 1-3 14-2 16 0 1 3-10 3-16m7 5v-6c-2 0-4 12-3 17 0 2 2-3 3-11m1 10h-1l1 2v-2m3 0h-1l1 2v-2m19-2c0-2-2-1-2 1-1 2-1 4 1 2l1-3m8 2c0-1 0-2-1-1l-1 2 1 1 1-2m-51-7v-4l-2 7c0 7 2 4 2-3m39 3c0-1 0-2-1-1l-1 2 1 2 1-3m-46-3 1-3-1 3c-2 3-2 6-1 4l1-4m68 4-1-1v1l1 1v-1m-35-6v-2l-1 2-1 4v3l1-3 1-4m28 5-1-1-1 1 1 1 1-1m18 1-1-1h-1l1 1h1m-37-3h-1v1c0 1 1 1 1-1m-12-4c0-4-1-4-1 1v4l1-5m28 3c0-2-2-1-3 1l1 1 2-2m-8-1-1-1-1 2 1 1 1-2m12 0h-1v1c0 1 1 1 1-1m-49-8c0-4 0-5-1-4l-3 10c0 3 0 3 2 1l2-7m66 8-2-1-1 1 2 1 1-1m14 0v-1l-1 1v1l1-1m-54-2-1-2-1 2 1 2 1-2m-22-5c0-2 0-2-1-1l-2 4c0 3 1 2 3-3m43 3h-1l-1 1 1 1 1-2m-24-1h-1l1 2v-2m16 1-1-1-1 1 1 1 1-1m19 0-1-1-1 1 1 1 1-1m7 0-1-1v1l1 1v-1m-73-2c3-1 6-9 4-9l-3 4-2 4c-2 1-3 3-1 3l2-2m52 1-1-1-1 1v1l2-1m27 0v-1l-1 1v1l1-1m31-1-1-1v2c1 2 2 1 1-1m-75-3-1-2c-1 0-2-3-1-5v-1c-1 0-2 4-1 5l1 4 1 2 1-3m3 2v-1l-1 1v1l1-1m5-1h-1l1 2v-2m14 1-1-1-1 1 1 1 1-1m-57-6 4-8-5 6-3 8 4-6m26 4v-3h-1l-1 3 1 2 1-2m5-10 1-2 3-5 3-6 2-2 1-3c-1-1-5 4-8 11l-5 7-1 4 1 5 1-3 2-6m19 10-1-1-1 1 1 1 1-1m12 1-1-1h-1l1 1h1m-7-3h-1l-1 1 1 1 1-2m-14 0-1-1-1 1v1l2-1m-28-4 2-8c0-2-1-2-3 2l-2 6c0 5 0 5 3 0m4-1 4-6 1 4c0 3 1 5 2 4s0-7-1-8 0-2 2-7l2-7c-1 0-6 8-6 11l-2 3-2 3-1 3-2 3c-1 4 0 2 3-3m29 4-1-2-1 2 1 1 1-1m5-3c-1-1-2 1-1 3h1v-3m-14 1c0-2 0-2-1-1l-1 2c1 2 2 1 2-1m5-1v-1h-1c0 2 1 2 1 1m22 0-1-1v1l1 1v-1m-56-4c0-2 0-3-1-2l-1 3 1 3 1-4m46 1c-2-1-2-1-2 2h2v-2m33 2-1-1-1 1v1l2-1m-47-2-1-1-1 1 1 1 1-1m55 0-1-1-1 1v1l2-1m-50-2c0-1 0-2-1-1l-1 2 1 1 1-2m44 2-1-1h-1l1 1h1m-61-4h-1l-1 2h1l1-2m22 1h-1v1c0 1 1 1 1-1m30 1-1-1-1 1v1l2-1m-42-4h-1l-1 2-1 1h2l1-3m17 2h-1l-1 1 1 1 1-2m36 1 1-1-3 1h2m7 0-1-1-1 1v1l2-1m-87-4 2-3c1 1 1-1 1-4 0-4 0-6-1-5v4c0 3 0 4-2 5l-2 5c0 3 2 2 2-2m76 4-1-1h-1l1 1h1m-24-3h-1v1h1v-1m-55-4-1-1c-1 0-2 2-2 5h2l1-4m10 3v-15c0-2 0-2-1-1s-2 4-1 10c0 8 1 10 2 6m9-1c2-4 1-5-1-1-2 3-2 4-1 4l2-3m16 1h-1l1 2v-2m5 1-1-2-1 2 1 1 1-1m4-2h-1c-1 2 0 3 1 2v-2m7 2-1-1-1 1v1l2-1m37-1-1-1-2 2 1 1 2-2m-30-1-1-1-1 1 1 1 1-1m-31-9 7-9h2c2-3-1-3-3-2-3 2-13 20-11 20l5-9m5 8 1-2 2-4 3-4c2-1 1-2-1-2l-2 3-1 2-4 8h1l1-1m5-1v-1l-1 1v1l1-1m5 0-1-1-1 1 1 1 1-1m7-4c-1 0-5 3-4 4l2-1 2-3m2 3v-1l-1 1v1l1-1m5 1-1-1h-1l1 1h1m-58-11-1-6 9-9 7-9-4 4-9 8c-4 3-4 4-4 8l1 9c0 3 0 4 1 3v-8m4 3-1-5-1 4 1 5c0 2 0 2 1 1v-5m37 4h-1v1c0 1 1 1 1-1m6 0c3-3 3-3 0-2l-3 3c0 1 1 1 3-1m20 1-1-1-2 1 1 1 2-1m-49-4 2-6c-1-1-6 8-6 9 0 2 2 0 4-3m9-2c3-7 2-8-2 0-3 5-3 6-2 6l4-6m-39 3 1-3-1 1-2 3c0 2 2 1 2-1m66 0h-1l-1 1 1 1 1-2m46 1-1-1-1 1v1l2-1m-8-2-1-1-2 2 1 1 2-2m-48-1-1-1-2 2 1 1 2-2m13-1h-1l1 2v-2m20 0h-1l-1 1 1 1 1-2m4 1v-1l-1 1v1l1-1m-31-2 1-2c-2 0-5 2-5 3 0 2 2 1 4-1m-34-1h-1l-1 1 1 1 1-2m9-3 2-5-5 9c0 2 0 2 3-4m56 2v-1l-1 1v1l1-1m-85-3c0-2-1-1-1 1l1 2v-3m13 0 2-4-6 6c0 2 1 1 4-2m49 2c1-2-1-2-2-1v2l2-1m9 0v-1l-1 1v1l1-1m-12-3-2-1-4 3h2l4-2m9 1h-1l-1 1 1 1 1-2m-60-2 1-1c2 0 8-5 8-7l-1-2-10 11 1 2 1-3m15-1c3-5 2-6-1-1l-3 5c0 1 3-1 4-4m4 1h-1l-1 1 1 1 1-2m26 0 1-1-3 1v1l2-1m29 0-1-1-1 1v1l2-1m-55-13c0-2-4 2-8 7-5 7-3 7 3 1l5-8m9 11 1-3-4 4c0 2 2 1 3-1m26 1v-1l-1 1v1l1-1m10-1v-1l-1 1v1l1-1m-3-1-1-1-1 1v1l2-1m21-1c1-1 1-1 0 0l-2 2 2-2m-48-2h-2c-2 2-1 3 1 2l1-2m11 1v-2l-3 3c0 2 2 1 3-1m3-1h-1c-2 1-3 3-1 3l2-3m30 2-1-2-1 2 1 1 1-1m-57-1-1-1-1 1v1l2-1m53-1h-1l-1 1 1 1 1-2m19 0-1-1-1 1v1l2-1m-55-1v-1l-1 1v1l1-1m27 0-1-1-1 1 1 1 1-1m23-1c1-1 1-1 0 0l-2 2 2-2m-33-1-1-1-1 2 1 1 1-2m-32 0v-1l-2 1c-3 1-1 2 2 0m52 0-1-1-1 1 1 1 1-1m28 0-1-1-1 1v1l2-1m-90-2 3-3 1-3c0-2 0-2-4 2l-4 5c2 2 3 1 4-1m34 1 2-1-5 1h3m19-2c-1-1-3 1-2 2h1l1-2m12 0c0-2-1-1-2 2h1l1-2m-50 1c3-1 4-3 2-3l-5 4 3-1m34-3c0-1 0-2-1-1l-1 3 1 2 1-4m27 3-1-1-2 1 1 1 2-1m-67-3-2-4c-1-5-1-6-2-4-1 3 2 10 3 10l1-2m33 1v-1h-1c0 2 1 2 1 1m-30-1-1-1-1 1 1 1 1-1m11-1-1-1-2 1 1 1 2-1m30-2h-1l-1 1 1 1 1-2m-41-1h-1l-2 1c0 2 2 1 3-1m14 1v-1l-1 1v1l1-1m36-2c-1-1-2 1-1 2h1v-2m8 2-1-1-1 1 1 1 1-1m-40-2h-1l-1 1 1 1 1-2m13-1h-1l-1 2 1 1 1-3m-20 1-1-1-1 1v1l2-1m-21-1v-3c-2-2-3-6-1-12l1-5 1-2c1-2 0-3-2-2s-2 1-1 2v2l-1 4-2 6v-2l1-7v-6l-2 2-1 7v7l2 5 2 2 1 2h2m15 0-1-1-1 1v1l2-1m23-3c0-4-1-4-1 1v3l1-4m10 3-1-1-1 1 1 1 1-1m39 0-1-1-1 1 1 1 1-1m-77-2 3-2 2-1h-2l-4 2h-2l-1 1c0 3 2 2 4 0m8 1-1-1-1 1v1l2-1m16-1h-1v1h1v-1m17 0-1-2-1 2 1 1 1-1m-48-11 1-1v-3l1-2v-4c-2 0-3 1-3 6l-1 4v9l1-4 1-5m71 9-3-2 2 3 1-1m-67-2c0-4-1-6-2-5-2 1-1 7 1 7l1-2m13-2c0-2-3 0-3 2s0 2 1 1l2-3m6 3-1-1-1 1v1l2-1m9 0c1-2-1-2-3-1v2l3-1m57-1h-1l1 2v-2m-37 0-1-1-1 1v1l2-1m-43-2-1-2-2 2 1 2 2-2m33-1h-2v2h1l1-2m33 3-1-1h-1l1 1h1m-52-3 1-1c0-2-1-2-3-1l-3 2 1 1h1c1-1 2-2 3-1m13 1-1-1-1 1 1 1 1-1m24 0-1-1-1 1 1 1 1-1m38 0-1-1-1 1 1 1 1-1m-66-1 1-1h-3c-2 2 0 3 2 1m17 0-1-1-1 1 1 1 1-1m29 0-1-1v1l1 1v-1m-65-1-1-2-1 2 1 1 1-1m50 0-1-1-1 1 1 1 1-1m7 0-1-1-2 1 2 1 1-1m-62-3 2-1h2l2-2-1-2-1 1-4 2-4 3c0 2 0 2 1 1l3-2m9 0-1-1-2 2 1 1 2-2m12 1c0-3-2-3-2-1-1 1 0 2 1 2l1-1m25 0-1-1-1 1v1l2-1m36-2h-1c0 2 1 3 2 2l-1-2m-41 0-1-2-2 2 1 2 2-2m23 1-1-1v1l1 1v-1m24-1h-1c0 1 1 2 2 1l-1-1m-75 0 2-1 2-2c1-3-1-4-2-1l-2 1h-2l-1 2 1 2 2-1m-14-3h-3l-1 2 4-2m37 1c-1-2-2-2-3 0l2 2 1-2m18 1-1-1-1 1 1 1 1-1m20 0-2-1v1l1 1 1-1m5-1h-1l1 2v-2m-53-3-2 1c-2 2-1 4 1 2l1-3m32 2-3-2 2 3 1-1m-55-3c-1-1-3 1-2 2h1l1-2m7 1c1-1 0-1-1-1l-2 2c0 2 3 1 3-1m21 1-1-1-1 1 1 1 1-1m13 0-1-1-1 1 1 1 1-1m19 0-2-2v1c0 2 2 3 2 1m18-1h-1c0 1 1 2 2 1l-1-1m-82-1v-2c-2 0-4 2-4 3 1 1 1 1 4-1m23 1-1-1-1 1 1 1 1-1m51-1-2-2 1 2c2 3 2 2 1 0m-59 0-1-1-1 1v1l2-1m34 0-1-2-1 2 1 1 1-1m39-1-2-2 1 3 2 1-1-2m-80 0c1-2-1-2-2-1v2l2-1m22-1c0-2 0-4-2-3v5l2-2m14 1c1-2 0-3-2-3-1 1 0 4 1 4l1-1m22 0-1-1v1l1 1v-1m-54-3c1-1 1-1-1-1l-2 1v1c0 2 3 1 3-1m40 2-1-1h-1l1 2 1-1m5-1c-1-2-3-3-3-2l1 1 1 2 2 1-1-2m19 0h-1c0 1 1 2 2 1l-1-1m-71 0-1-1-2 1 1 1 2-1m16-1-1-1-2 2 1 1 2-2m18 1-1-1-1 1v1l2-1m30 0-1-1h-1l1 2 1-1m12-1c0-2-3-5-3-3s2 5 3 5v-2m9 0h-1c0 1 1 2 2 1l-1-1m-89 0 2-1 3-4 1-2c3-3 2-4-1-2l-3 4-2 3c-3 1-5 3-3 3l3-1m33 0-1-1-1 1 1 1 1-1m28 0-2-1v1l1 1 1-1m-66-1v-2l-3 2v1l3-1m13-1h-1c-2 1-3 2-1 2l2-2m9-2c-1-1-3 1-3 3h2l1-3m54 3-2-2v2l2 1v-1m-81-1 1-1h-3c-2 2 0 3 2 1m72-1h-1c0 1 1 2 2 1l-1-1m-76-2c0-1-2 0-2 2h1l1-2m64 2-1-2-1 2h2m25 0-1-3c-2-2-2 0-1 2 0 2 2 3 2 1m-75-1c1-2 1-2-1-1l-2 1h3m13-1h-1l-2 2h2l1-2m9-1 2-6 1-3c1 0 2-2 2-7v-2l-2 4-2 5c-4 9-6 16-1 9m5-2 2-6c2-3 3-9 2-9l-2 4-2 7c-2 4-3 9-2 9l2-5m18 4-1-1-1 1v1l2-1m-49-2h-1l-2 1c0 2 2 1 3-1m13 0 2-2-5 3c0 2 2 1 3-1m22 0-1-2c-1-1-1 0-1 1l1 3 1-2m9 1-1-3-1 2c0 2 1 3 2 1m14-1c0-2-1-3-2-1l1 3 1-2m4-1c-1-1-2 1-1 2h1v-2m7 2-1-2v2l1 1v-1m-82-2h-1l-2 1c0 2 2 1 3-1m9 1v-2l-4 2h4m26-2h-1l-1 2 1 1 1-3m70 1-2-1 2 3v-2m-40-2c0-3-2-3-2 0l1 3 1-3m21 1-2-1c-1 0 0 3 2 3v-2m-82 0 1-1 7-3a264 264 0 0 1 9-6c0-1-4 0-8 3l-4 2-3 2-3 1c-2 1-3 3 0 3l1-1m12-3 4-3-10 6 6-3m3 2c4-2 4-3 0-1l-4 2 1 1 3-2m14-2c-1-1-4 2-3 3 0 1 1 1 2-1l1-2m44 0c-4-9-5-10-3-2l4 6-1-4m16 2h-1c0 1 1 2 2 1l-1-1m-91-2c3-2 5-4 3-4l-2 1-3 2-2 2c0 1 1 1 4-1m67 1v-1h-1c0 2 1 2 1 1m11-3c-1-1-1-1-1 1s1 4 2 2l-1-3m-51 2v-2l-2 2v1l2-1m9-4 2-6c-1-1-1-1-2 1l-2 6-1 4 3-5m11 4-1-2-1 2 1 1 1-1m40 0-2-2v1c0 2 2 3 2 1m7 0-1-2v2l1 1v-1m7-2h-3l1 2h3l-1-2m-77-1h-1l-2 2h2l1-2m27-6c0-3 0-4-1-3-2 1-3 7-2 10v2l2-3 1-6m18 4-2-5v4l2 5 1 1-1-5m-36 1 1-6c0-2-1-1-3 3l-1 6 3-3m27-7c0-8-1-10-3-6v5l1 6c1 7 1 5 2-5m-61 8 2-2 6-3 6-3 4-5 1-1 2-4 2-3v-2l-1-1-1-1-1-1 1 3-2 4-3 5c1 2 0 3-10 8l-9 6c0 2 2 1 3 0m65-4c0-5-1-6-2-3-1 2 2 9 3 8l-1-5m16 1v-6c2 2 2 0 1-3l-1-8c0-4 0-4-2-3v7l1 3v3c-2 2-2 2 0 7l2 3-1-3m10 3-3-2 2 3 1-1m-78-4c7-4 9-6 10-11l1-3-2 3-2 4-11 8c-2 1-4 3-2 3l6-4m19-4 3-8c-1-1-3 1-5 7l-2 6v3l4-8m24-3v-12c-1-1 0-3 2-6a201 201 0 0 0 8-11l3-5c0-2 0-2-2 0l-2 3-2 3c-5 5-10 13-9 15v19l1 5 1-11m-28 2 2-6-5 10c-2 5 1 2 3-4m48 1-2-5h-2l1 3 1 2 1 4c1 2 1 2 2 1l-1-5m9 4-1-1c-1 1 0 3 1 3v-2m7 0h-1c0 1 1 2 2 1l-1-1m8 1-1-1-1 1 1 1 1-1m4-3c-3-2-4 0-1 2l2 1-1-3m-80-1h-1l-1 2h1l1-2m88 3-1-1h-1l1 1h1m-24-2c0-2-2-3-2-1l2 2v-1m10-3c-1-2-3-3-3-1l4 4-1-3m9 0c-1-1-2 1-1 2h1v-2m-16 0-1-1v2c1 2 2 1 1-1m-52-11-1-7v-3c-2-2-3-1-2 4v11c0 6 0 6 2 4l1-9m48 11-1-4c-2-3-2-3-2-1l2 5h1m16-1-2-2c-2-1-3 0-1 2h3m-89-3h-3c-2 2-1 3 1 2l2-2m13-2 1-4-4 8c0 2 1 1 3-4m16-5 1-10 2-3 1-1 2-2 1-2 1-1 2-3c4-5 7-10 7-12v-6l-1-4-1 5c0 7 0 9-4 13-4 3-11 13-13 16v19c1-1 2-4 2-9m22 7v-3c0-1-3 3-3 5s2 1 3-2m-18-4v-6c2-2 3-1 2 5l1 5c1 0 2-3 1-4v-7c-1-1-1-1 1-4 4-4 7-10 7-11l-10 13-2 2c-1 0-1-2 1-3l1-3 1-1 4-4 3-5 2-4 2-3c2 0 3-1 4-5 1-5 1-8-2-8l-1 4c1 3-1 9-3 9-1 0-2 1-2 3l-3 5-4 4-4 5c-2 3-3 6-1 6v7l1 6 1-6m23 3v-3c-1 0-3 3-2 5s2 1 2-2m19-1c-1-4-3-5-3-3l3 7v-4m17 2-2-1v1l1 1 1-1m6 1-1-1h-1l1 1h1m6-2h-1c0 1 1 2 2 1l-1-1m-113-2 4-2c2-1 2-2 1-2-2 0-9 4-10 6h2l3-2m91 0c-1-1-2 1-1 2h1v-2m-19-1c-1-1-2 1-1 2h1v-2m37 2-1-2v2l1 1v-1m-39-4 1-3v-3l-2 2-2 5c0 3 0 3 1 1l2-2m26 4-1-1h-1l1 1h1m-68-3v-12h-2v14l2-2m28-2c0-3 0-3-1-2-3 2-3 5-1 5l2-3m4 1 1-3c-1-1-4 3-4 4 0 2 2 1 3-1m6-4-2 1-2 4 2-1 2-4m22 1-1-3v7c1 2 2-1 1-4m16 2h-1c0 2 1 3 2 2l-1-2m-103 0 1-2-3 1c-2 2 0 3 2 1m23-4c0-1-1-1-2 1-3 3-3 5 0 3l2-4m76 2h-1c0 1 1 2 2 1l-1-1m-90-5 3-4c2 0 1-2-2-3s-4-4-2-4l1-1c0-3 1-2 4 0 2 2 3 2 3 1s-5-6-7-6l-2 3-2 3-1-1c-2-2-2-2-3 1-2 4-2 6 1 3 1-2 1-2 4 0l4 3-2 1-1 2c1 1 0 2-2 4-3 3-3 5 0 3l4-5m71 4h-1l-1 1 1 1 1-2m11 1v-3c0-2-1-3-2-3l-2 1 1 1 1 3 1 2 1-1m15-1c0-2 0-2-1-1l-1 2c1 2 2 1 2-1m-10 0-1-2c-1-1-1-1-1 1l1 2 1-1m-91-5-2 1-2 4 2-2 2-3m53-1 4-8v-2l-2 2-3 4-5 8c0 3 0 3 6-4m2 3 2-4c0-2-6 5-6 6 0 2 2 1 4-2m6-2v-4l-5 8c0 2 3-1 5-4m-71 2 2-3 1-1 1-1c0-3-2-2-4 2l-3 3 3-6c4-6 5-8 2-6-3 3-6 10-6 12 1 2 2 2 4 0m27-1v-3c-1 0-4 3-4 5s2 1 4-2m53-2v-3c-1 0-3 3-3 6 0 2 2 1 3-3m6 0v-3c-2 0-4 5-3 6 0 2 2 0 3-3m89 1-1 2c-1 1-1 1 0 0l1-2m-100 0c1-3 0-4-2-1v3l2-2m15-2c-1-3-2-3-2 1l1 3 1-4m-68 2-1-3c-2-1-4 1-2 3h3m156-2-1 1v1l1-2m-73 0-1-3v4c1 1 1 1 1-1m11-2c-1-1-2 2-1 3 0 1 1 1 1-1v-2m50 0-4 3 2-1 2-2m-154 1-1-1-1 1 1 1 1-1m12 0c0-2-8-8-9-7 0 1 2 4 4 4l2 2c1 2 3 3 3 1m70-4c0-3 0-3-1-2-2 3-3 7-1 7 1 0 2-2 2-5m4 4-1-2-1 2 1 1 1-1m-88-3h-2v2h1l1-2m28 2-3-3v3h3m34-5c0-1-1-1-2 1l-2 4c0 1 1 1 2-1l2-4m29 4h-1v1c0 1 1 1 1-1m-69 0c-1-2-3-2-3-1l2 1 2 1-1-1m43-2c0-1-2 0-2 2h1l1-2m4 2-1-1-1 1v1l2-1m-54-3-2-2c-2 0-1 3 1 4s3 0 1-2m59 1 1-2 2-3 1-1 2-2v-3l-4 3c-4 4-5 10-2 10v-2m31 0-1-3-1 3 1 2 1-2m5 1v-1l-1 1v1l1-1m74 0v-1l-1 1v1l1-1m114-1c2-3 1-4-1-1l-1 3 2-2m-217-4c0-1-1-1-2 1l-1 3c0 1 3-2 3-4m8-2-1-3c-1 0-3 5-3 8v3l2-3 2-5m4 4-1-2-1 2 1 2 1-2m7-2c-1-1-2 1-1 3h1v-3m-84 1-2-1 1 2h3l-2-1m96 1-1-1-1 1 1 1 1-1m-40-5c-1-1-4 2-4 4 0 1 1 1 2-1l2-3m23 1c-1-1-1-1-1 1s1 4 2 1l-1-2m13 3v-3h-1v4l1-1m-45-6 2-1 2-3 1-2c2 1 4-1 4-4 0-2 0-2-1-1l-2 3-1 1-3 2-4 4-2 5v3l2-3 2-4m117 4 1-6 1-3-4 10 1 1 1-2m181 1c0-2-2-4-3-4v4h3m6 0-1-1-1 1v1l2-1m-300-4h-2c-1 3-1 5 1 3l1-3m97 2c1-1 1-1 0 0-2 1-2 2-1 2l1-2m-112-1c2-3 0-4-2-2l-1 3c0 2 2 1 3-1m33-1-3 2h2l1-2m7 2 1-4 1-4c0-2 0-2-1-1-2 2-3 10-2 10l1-1m24 0c0-1-1-2-2-1l1 2 1-1m-115-1-2-2c-2-2-4-1-2 2 1 1 4 2 4 0m71-5c0-2 0-2-2 0l-2 3c0 2 0 2 2 1l2-4m6-1c-1-1-5 3-5 5l3-1 2-4m40 5-3-3c-2-4-3-2 0 2 1 2 3 3 3 1m56-3 1-3-4 7 3-4m218 2v-1l-2 2c0 2 1 1 2-1m-294 0-1-1-1 1v1l2-1m8-1 1-1 2-2 2-2 1-1 1-2v-2h-1l-1 2-1 2-1 1-1 1-2 2c-2 1-3 4-1 4l1-2m71 0c1-2 0-2-1 0v2l1-2m210-5c0-2-2-1-4 3l-2 5 3-4 3-4m-285 3-1-3s-2 4-1 5c1 2 2 1 2-2m11 2-1-1-1 1 1 1 1-1m264-3-2 2c-1 2-1 2 1 1l1-3m-292 0v-4c0-1-2 1-2 4-1 4 1 4 2 0m5-1-4 3 2-1 2-2m-28 1 1-4v-1h2c1 2 3-1 3-4v-3l-4 4-5 7c0 4 1 4 3 1m37-3 1-4 3-3v-4l-1-1 1-5c0-3 0-3 1-2 1 2 2 0 2-12l2-12 10-15c-1-1-8 7-11 13-4 7-7 11-7 9l1-3 3-3c7-13 9-17 12-17 1 0 2 0 2-2l-1-2c-2 0-7 6-10 11l-4 5 3-5 2-6v-1l2-2 2-1 6-4 13-7 8-11c0-2-3 1-4 4s-3 4-4 4c-4 0-26 15-26 17l-5 8c-5 8-5 8-4 10 2 1 2 1 4-1s2-2 0 2-3 4-3 2c-1-2-3-3-3-1v13c1 0-1 6-3 8v4l4-6 4-6v2l-2 3-1 2c-1 0-3 6-2 8l-1 2-6 8c0 2 2 1 5-3l3-5 1-5 3-4v3c-2 1-2 4-1 4l1 2h3l-3 3c-3 3-5 7-3 5l1 1-1 4 3-4m20 4-4-5 1 3c1 3 3 4 3 2m280-2 3-7-7 9c-1 2 2 1 4-2m-341-5v-5l-1-2-1 5-1 8h1l2-6m314 6-2-1v1l1 1 1-1m-296-2 2-4 1-2-2 2c-3 2-4 6-3 6l2-2m328-2h-2l-1 3h2l1-3m-322 1 5-6 5-6-13 13c0 2 2 1 3-1m39 1-4-6-1-2c-1-2-1-2-2-1v2l2 2c0 2 3 6 4 6l1-1m-15-3h1c0 2 1 1 3-2 2-4 2-5 1-5l-2 3-2 3-3 2c0 2 2 1 2-1m15-3c-3-4-4-3-1 1l3 3-2-4m264-1c0-3 0-5-2-6-2-4 0-6 3-5 2 0 2 0 1-1h-3l-6-2c-4-2-4-2-5-1h-1c0-2-1-2-2-2l-1 4c0 3-3 7-4 4 0-2-3-1-7 2-4 4-5 5-2 5l3 1 3 3c3 1 4 2 6 1 3-1 3-1 5 1 2 1 3 2 6 1 5-1 5-2 6-5m-289 1v-1l-3 3v1l3-3m74 2v-2l-2 2v2l2-2m-130 0-1-2-1 2 1 1 1-1m372-1h-1l-1 1 1 1 1-2m-251 0-1-1-1 1 1 1 1-1m-99-2c2-2 2-2 0-3-1-2-2-2-2 2l1 3 1-2m15-1 2-2c0 1 1 1 2-1l8-16 1-1c2-1 3-6 2-8-1-3-2-2-2 1v2l-1-2-2-2-2-2-2-2-3-2c-1-3-3-4-3-2l4 6 5 5 2 2 1 1-1 1c-1 0-2 1-2 3l-1 3v-3c0-2 0-2-1-1-2 3-3 6-1 6l-1 4c0 2-2 4-3 4s-5 5-5 7c0 3 1 2 3-1m10-5 1-1 1-1c-1-1-5 2-7 5-2 5-1 5 2 2l3-5m20 6 2-1c1-3 1-6-1-4v-1l1-3c-1-1-6 9-6 11l2-2c2-2 2-2 2 0m73-1-1 2c-1 1-1 1 0 0l1-2m135 2v-2l-1 2-1 1 2-1m-125-2c1-1 1-1 0 0l-2 2 2-2m112 1-1-1-1 1v1l2-1m-175-3c0-3-2-4-2-1 0 2 2 4 3 4l-1-3m298-1c-1-4-3-6-2-3l3 7-1-4m-351-1c2-3 2-3 0-4-2 0-5 3-5 6s3 2 5-2m334 0h-2c0 2 2 4 3 3l-1-3m-291 1-1-2v2l1 1v-1m13-2h-1c0 2 1 3 2 2l-1-2m189 0h-1v3l1-3m95 1h-1l1 2v-2m-359 0c0-2-2-4-3-4v4h3m64-2v1l1 2-1-3m66 1h-1l-2 2 2-1 1-1m4 1-1-1-1 1 1 1 1-1m-130-1-1-2c-1-1-1 0-1 1l1 2 1-1m47-3c0-2 0-2-1-1v4l1-3m10-2s-3 3-3 5l2-2 1-3m312 1-2-4 1 5 2 3-1-4m11 2c3 0 5-4 4-6-1-1-1-1-2 1 0 2 0 2-2-1l-2-3 1 3 1 4c0 1-2-1-3-5l-3-6 2 7c2 1 1 2-1 1s-2-1-2 1c0 3 2 5 3 5l4-1m9 0 2-1c2 0 2 0 1-1l-2-2-4 4h3m-398-3h-2c-1 1 0 3 1 2l1-2m22-1c-1-1-3 1-3 3h2l1-3m64 1 2-7c0-5 0-5-1-4-2 1-2 2-2 6v5l-1-1-1-2v4c2 3 3 3 3-1m188 0-1-4v-3h-1c-1 1-1 3 1 8 1 3 2 3 1-1m-244 1 1-3c0-2 0-2-1 0l-3 2h-1v1h4m40-1-1-8c0-6 0-7 2-10l3-4 2-3c2-2 4-8 2-8l-1 1-1 3-3 4-3 3 2-4 3-6c0-2-1-1-5 5l-5 10v5c-1 2-1 2-2 1l1-4v-1c-2 0-2 0-1-3l2-3 7-11 2-2v-2l-5 7-5 6 2-4 2-6 2-2 2-3 1-1 2-4c-1-1-6 4-6 5l-2 3-2 3-1 2-2 2-2 4c-2 2-2 3-3 14 0 7 0 11 1 10l1-4c1-5 2-4 3 1l1 5c1 0 3-3 3-5v-2l2 3c0 4 1 5 2 5v-2m3-6 1-9c1-1 1-1 1 1-1 5 0 10 1 10l1-5c0-5 2-8 4-6 1 1 2 0 4-3l3-5c0-2-2-1-3 2l-3 3 2-4c3-4 3-4 2-19l-1-16c-1-1-2 3-1 11 1 16 1 19-2 22l-2 3-2 4c-2 2-3 0 0-2l1-5c0-2 0-2-1-1l-3 4-3 5c-2 1-2 2-2 5l1 7c0 4 0 6 2 6v-8m4 4c-1-1-2 1-1 3h1v-3m56 2c1-2 1-2-1-1l-2 2c0 1 1 1 3-1m7 1v-1l-1 1v1l1-1m130-3-2-3 1 4c2 4 3 3 1-1m7 0c-1-1-1-1-1 1s1 4 2 1l-1-2m10 2h-1l-1-2c1-3 0-4-2-2 0 1 3 6 4 5v-1m-246-4 2-3-1-2-5 9c0 2 4-2 4-4m39 4-1-2v2l1 1v-1m51-2 2-3-6 5c0 2 1 1 4-2m-5 0h-2v-3c-2-1-4 0-4 2h1c2-1 2-1 2 1 1 2 1 2 3 0m191 1v-1l-1 1v1l1-1m-35-1-1-2c-1-2-2-1-2 1 1 2 3 3 3 1m67-3c2-3 3-4 4-3l2-1 2-1c1 1 2 0 3-1h2c1 1 2 1 5-1 5-2 7-5 7-7s6-7 9-9v-1l-2-1c0-2-5-1-9 1-4 3-4 4 0 5 3 2 3 3-1 3-2 0-4 1-5 3l-6 2-7 1-6 1c-3 1-4 2-6 5-2 5-1 8 1 5 2-2 3-1 3 1 0 3 1 3 4-2m-53-2h-1l-1 3h1l1-3m11 3v-2l-1 2-1 1 2-1m24-1-1-1c-2 0-2 1-1 2l2-1m-250-3c-1-7-2-7-2-1l1 5 1-4m213 0c0-2-2 0-2 2-1 2-1 2 1 1l1-3m81 1v1l1 2-1-3m-344 0-3-4-3-4-1-1c-2 0-1 4 2 6l3 4 1 1 1-2m63-3c0-3 0-4-1-3v8l1-5m34 4v-1l-1 1v1l1-1m13-3c-1-1-1 0-1 1s0 2 1 1v-2m198 1c1-2 1-2-1-1l-1-1c1-1-7-3-8-1v1l2 1 3 2 3 1 2-2m-255-1-1-3-1 3 1 2 1-2m41 0-1-1-1 1v1l2-1m253-1-1-3-1 1 1 3 1 1v-2m15-1-2-1 1 2 1 2v-3m-20 0-1-1v2c1 2 2 1 1-1m-233 0c1-2-1-2-2-1v2l2-1m249-2-2-2 2 5v-3m8 1-1-1-1 1v1l2-1m-366-1-1-2c-1-2-2-1-2 1 1 2 3 3 3 1m351-4-2-3 1 3c0 4 1 5 2 5l-1-5m-348 3-4-6-5-4c-1 0 0 2 2 3l2 3 1 1 2 2c1 2 2 3 2 1m203-1c2-1-1-1-4 1l-3 1 3-1 4-1m80 1-2-1v1h2m22-1c-2-2-3-3-3-1s1 3 3 3v-2m50-3c0-2-1-3-2-3l2 4c0 2 1 3 2 3l-2-4m-368-1c-1-2-3-3-3-1s3 5 4 4l-1-3m212 1c7-4 7-4-1-1l-7 3c0 2 3 1 8-2m11 2h-3v1l3-1m-231-7-4-4h-2c-1 1-1 2 4 6 3 4 5 5 5 4l-3-6m14 6-1-3c-2-3-3-1-2 2 1 2 3 3 3 1m109-2 2-5 2-2v-2c0-1-4 3-4 5l-2 3c-2 1-3 4-1 4l3-3m33 2-1-1-1 1v1l2-1m4-1-2-3-1-2v-1l-1-1v4l2 2c0 3 2 3 2 1m-8-1c1-2 0-5-1-5l-1 2v4c0 2 2 1 2-1m74 1-1-1-1 1v1l2-1m64 0-1-1-1 1 1 1 1-1m24-1-1-1-1 2 1 1 1-2m-4-2-3 2h2l1-2m-161-3v-4l-1 2v1l-1 3c0 4 2 3 2-2m14 5-1-1h-1l1 1h1m209-1-1-1-1 1 1 1 1-1m-68-1-1-1-1 1v1l2-1m-300-1-1-2-1-1 1-2v-3l2-7 4-7 2-2 1-3 2-2c2-1 3-5 1-5-1 0-8 11-7 12l-1 1c-1-1-8 9-8 10l2 3c1 0 2 3 0 3l-1 2 1 1 1 2 1 1 1-1m5-3c-1-1-2 1-1 3h1v-3m133 0v-4c-2 0-3 4-2 6 0 3 1 2 2-2m26 2-2 1c-1 1-1 1 0 0l2-1m120 0-1-1v1l1 1v-1m86 0-1-1v1l1 1v-1m-151-1-2-1-3 1 3 1 2-1m132 0-2-2v2l2 1v-1m-349-3c-1-1-1-1-1 1s0 2 1 1v-2m131 0 1-3-4 5c2 2 3 1 3-2m31 2-1-1-1 1v1l2-1m-99-2c1-3 0-22-1-21v23l1-2m85 0-1-1-1 2 1 1 1-2m-155-3-2-1v4c2 2 3 0 2-3m163 2v-2l-2 2-1 2 3-2m-125-7c4-7 5-11 3-11l-6 9c-4 6-5 8-4 9 2 1 1 2 7-7m-20 0 6-8 1-3c0-2-2-1-3 1l-2 2-1 2-3 6-4 6c0 2 2 1 6-6m109 4-1-2-1 1-2 2c-1 2-1 2 1 2 2-1 3-1 3-3m33 1-2-2-1 2 1 2 2-2m-149-9c0-2-1-1-3 2l-2 5 5-7m239 4c4-6 4-7 0-2l-4 6 4-4m16 3-2-1-2 1 2 1 2-1m-104-2-1-2-1 2 1 1 1-1m82-1c1-1 1-1 0 0h-2c1-2 1-2-1-1v2l2 1 1-2m105 1h-2c-1 1 0 1 1 1s2 0 1-1m-283-2v-15c-1-3-2 0-2 8s1 11 2 7m94-4c0-2-2-1-2 0 1 1 0 2-1 2l-1 3c0 1 1 1 2-1l2-4m187 5c1-1 1-1-1-1l-3 1h4m-7-1-1-1-1 1v1l2-1m16 0-1-1-1 1v1l2-1m-191-2-1-1-2 1 2 1 1-1m101-3 1-5-2 3a163 163 0 0 1-2 6l3-4m142 2h-2v1l2-1m-257-4 2-4 3 2c3 1 6 1 3-1s0-2 3-1c2 2 3 2 3 1l-4-3-5-3c-1-2-3 0-4 2l-5 8c-1 1-1 3 1 3l3-4m16 2-1-2-1 2 1 1 1-1m160 0v-1l-1 1v1l1-1m22 0-1-1-1 1v1l2-1m-335-3h-1l-1 2 1 1 1-3m160 2-1-1v1l1 1v-1m173-1 10-2 3-1c1-1-8 0-14 2l-6 3 7-2m-184 0-1-2-1 2 1 1 1-1m177-1v-1l-3 1-1 1c0 1 1 1 4-1m20 1h-2v1l2-1m-300-3c2-1 3-2 2-3h-1l-2 2c-2 0-3 3-2 3l3-2m109 1-1-1-1 1 1 1 1-1m11-3-1-2-1 3c0 3 0 3 1 2l1-3m-3 2-1-1-1 1 1 1 1-1m162 0-1-1-1 1v1l2-1m-293-1-1-3v-3l-1-2c-2 1-2 9 0 9l2-1m288-1v-2l-4 3c0 2 2 1 4-1m-205 0-2-6-4-4 2 6c2 4 4 6 4 4m40 0c2 0 3-2 1-2l-2 2h1m194-2h-1l-1 1 2-1m2 1v-2l-1 2v1l1-1m32 0-1-1-1 1 1 1 1-1m-356-1-1-2-1 2 1 1 1-1m45-1 1-3c0-2-2 0-2 3-1 2 0 3 1 0m81 1 2-2 2-2h-4l-1 2c-2 1-3 3-1 3l2-1m7-3c1-4 1-4-5-7-8-4-8-1-1 3 4 3 5 4 5 6 0 3 1 2 1-2m-104 1-1-2-1 2 1 2 1-2m94 0h-1l-1 1 1 1 1-2m225 0-1-1-1 2 1 1 1-2m-227-1-2-2-3-2-1 1 1 2 2 2c1 1 3 1 3-1m18 1v-1l-1 1v1l1-1m148-1c1-1 1-1 0 0l-2 2 2-2m-322-4-1-2-1 2-1 4c1 2 3 0 3-4m172 3-1-1-1 2 1 1 1-2m236-2c0-2-2-1-2 1-1 2-1 4 1 2l1-3m-361-1c1 0 14-7 15-9l1-3-23 13v2c1 1 1 1 4-1l3-2m132 1-1-4-13-6c0 1 3 4 8 6 3 2 4 3 4 5l1 2 1-3m-183-1-1-2-2 3 1 2 2-3m39 1-1-2-1 2 1 2 1-2m359-1h-1v3l1-3m-310-1c2-3 2-4 1-4l-3 6c0 2 1 1 2-2m269 1c2-2 3-2 2-5-2-3-1-5 1-3 2 1 2 1 1-2l-2-5v-3l-2 1c-3 4-2 0 2-7l6-7 2-2 2-3 4-4 3-4-2-2-2-4-4-2c-5-2-6-2-11 0l-7 1c-4 0-9 7-12 16-1 4-5 8-8 8l-5 5c-4 3-4 4-6 3-1-1-2-1-5 2-5 3-5 5 0 4 3 0 4 1 10 6 4 4 6 6 8 6 3 0 7-2 4-2l-1-2 2-1c1 1 3 0 4-1l1-1-2 1-2 1v-1c0-2-1-1-3 1-2 1-2 1-4-1-3-3-2-6 3-6h3l4 1c3 0 4 1 5 2l2 2 3 1-3 2c-2 2-2 2-3 1h-3c-2 1-2 2 1 2l6-1 3-2-1 2-3 3h2l3 1c0 1 1 1 4-1m-314-1-1-1-2 2c0 1 2 1 3-1m329 0v-1l-2 2c0 2 1 1 2-1m32-2-4 3 2-1 2-2m11 0c-1-1-2 1-1 3h1v-3m-153 2-1-1c-1 0-2 0-1 1l1 1 1-1m100 0h1c1 1 1 1 2-1v-2l-3 1-2 2 1 1 1-1m35-2h1l1 1-1-3h-2c-1 1-6 0-6-1l2-4 2-3-4 3-3 6 1 3c0 1 7 0 9-2m12-1c1-2 0-3-2-1v3l2-2m9 0v-1l-1 1v1l1-1m-44-3-1-6c0-2 1-1 1 2 1 6 3 8 2 2v-3l1 3c1 4 3 4 3 0l1-5h-1l-3 1c-1-1 5-4 6-3 2 0 2 0 1-1l-2-2c-4 2-4 2-1-1 5-4 2-4-3 1l-5 2 3-3 1-2c-2 0-5 5-6 8-1 1 0 4 1 6 2 5 3 5 2 1m10 1c1-1 2-3 1-5 0-4-1-4-2-2-2 1-2 2-2 4v5l3-2m-350-2-1-4-1 4 1 3 1-3m381 2-1-1-1 1v1l2-1m-51-5c-1-3-2-2-1 2l1 2v-4m-326 2-1-1c-2 1-2 3-1 3l2-2m381 1h2c-1-3-5-4-5-1 0 2 1 3 3 1m-16-3 7 1c3 1 4 1 4-1 1-1 0-2-8-2-7-1-10 0-11 3-1 1-1 1 1 1l7-2m-37-2-2-1 1 2 1 2v-3m4-8 8-5c5-2 10-5 7-5l-2 2-3 1-5 2c-5 3-9 9-8 14l1-2 2-7m-340 6c0-2 0-2-2-1-2 0-3 3-1 4 1 2 3 0 3-3m217 2h-1l-1 1 1 1 1-2m-14-1c1-1 1-1 0 0-2 1-2 2-1 2l1-2m33 0h-1l-1 1 1 1 1-2m-7-2-1 2c-1 1-1 1 0 0l1-2m-15-1 1-2-1-2-1 3v2l1-1m8-3c2-5 3-6 3-3-1 2-1 2 0 0 2-3 2 0 1 3-3 4-2 5 1 0 2-4 2-5 0-5l-3-1c-1-1-6 7-6 9s1 1 4-3m156 3h-2v1l2-1m5-1h-1l1 2v-2m-112 0-1-1-1 1v1l2-1m-82-2h-3v-1l-1 2c0 2 3 1 4-1m31-3v-3l-4 7h1l3-4m20 2 1-3-2 3-1 3 2-3m11-3-2 4-1 3 2-3 4-3 1-1-2-1h-2c-1-1-5 5-5 7l2-3 3-3m-17 1-3 2h2l1-2m-49-2-3 2h2l1-2m53 0-3 2h2l1-2m36 2-1-1-1 1v1l2-1m-29-1-1-1-1 1v1l2-1m154-2h-2l-3 2h2l3-2m-45 1-1-1-2 1v1l3-1m42-2 2-2-4 2-2 3 4-3m-216 0-1-2v2l1 1v-1m5-1c1-1 1-1 0 0l-2 2 2-2m94 1 1-4-1-1-1 6 1-1m124-1v-2l-2 2v1l2-1m-8-3-1 2c-1 1-1 1 0 0l1-2m-50 1 1-2c-3 0-6 1-5 2h4m-164-3c2-2 2-2 0-1l-2 1 2-2 1-2-3 1c-1 2-2 3-1 4 0 2 0 3 3-1m102 1-1-3c-1-1-1-1-1 2l1 3 1-2m95 0c1-1 1-1 0 0m-165-2h-1l-1 2h1l1-2m8 0-3 2h2l1-2m133 0-1-1-1 1v1l2-1m19 0-1-1-1 1v1l2-1m12-3-5 3 2-1c2 0 3-1 3-2m-93-3 5-6-5 4a355 355 0 0 1 0 2m-86 4-1-1-1 1 1 1 1-1m-27-1v-4c-1 0-3 2-3 4h3m44-2h-1l-2 2h2l1-2m-5 0v-1l-2 2c0 2 1 1 2-1m80 1-1-1h-1l1 1h1m50-1h-3v1l3-1m-133-2v-3h-2l1 1v4l1-2m170 1 1-2-5 2h4m-175-4c-2-2-4-3-4-1 0 1 5 4 6 3l-2-2m166 2-1-1v1l1 1v-1m-155-4-2 1c-1 1-1 1 0 0l2-1m63-1c3-3 2-4-1 0l-1 3s2-1 2-3m105 2-1-1-1 1 1 1 1-1m-178-1v-3h-1l-1 1v2l2 1v-1m5 1-2-2c-1-1-1-1 0 0l2 2m165-1-2-1c-2-1-2-1-1 1h3m17-2c-1-1-4 1-4 2h2l2-2m-149-6c2-4 3-5 5-4 4 0 4-2 1-3-4 0-4-2 0-2h3l-3-1c-4 0-5-2-2-4 2-1 3-3 1-3l-2 1-1 1v-2l-1-2-1-1h1l2-1c2-2-4-1-6 1v4c2 1 2 1 0 1l-2 6c0 4-2 7-3 9l-2 2 2 3c3 3 3 3 8-5m29 7-1-1-1 1v1l2-1m7-5-3 1-2 4 2-1 3-4m101 5c0-1-3-2-4-1l2 1h2m4-2h-2v1l2-1m-113-1-1-1-1 1v1l2-1m23 1-2-1c0-1-1-1 0 0l2 1m76-1h-2v1l2-1m5 0c0-1-3-2-4-1l1 1h3m14 0h-2v1l2-1m-129-1h-2v1l2-1m119-1-3-1v2l3 1v-2m-173 1-1-1h-1l1 1h1m40-3-1 2c-1 1-1 1 0 0l1-2m47 1h-1c0 1 1 2 2 1l-1-1m93 0c1-1 1-1 0 0-2 1-2 2-1 2l1-2m-114-1c3-2 4-2 2-4l-5 2h2l2-1-1 2-4 3 4-2m120 0h-1l-2 1c0 2 2 1 3-1m-23 0h-2v1l2-1m10-1-6-4 5 5 1-1m-150-4c0-2-3-7-5-6v-2c1-3 1-3-4-3-5-1-6 0-6 4l2 2 1 1 5 3c3 1 5 3 5 4l1 1 1-4m68-1-3 4 2-1 1-3m89 3-1-1-1 1v1l2-1m5 0c1-2-1-2-3-1v2l3-1m-210-4c-1-1-3 1-2 2h1l1-2m74 2v-1l-1 1v1l1-1m129 0-1-1-1 1v1l2-1m-124-3h-1l-2 2h2l1-2m8 2v-2l-1 1v2l1-1m39 0v-1l-1 1v1l1-1m69-1h1c2 2 4 1 4-1s0-2-2-1c-1 1-1 1-3-1-2-1-2-1-2 1l1 3 1-1m-74-2v-2l-2 2-1 2 3-2m86-1 8-12-4 4-6 8-2 3 4-3m-129-1h-1l-2 2h2l1-2m-60-1h-1l-1 1 1 1 1-2m38-5-3 2-3 4 3-2 3-4m34 5-1-1-2 2 1 1 2-2m92 0h-1l1 2v-2m21-4-2 1-2 3 2-1 2-3m-2-2c1-2 1-2-1-1l-2 1-1 1v3c-1 2-1 2 1 0l3-4m-126 3 1-2-2 2-1 2 2-2m10 1v-1l-1 1v1l1-1m-60-1v-1c-4-1-6-1-6 1l2 1 4-1m134-1v-1l-1 1v1l1-1m23 0v-1l-1 1v1l1-1m13-1 2-3 1-2c0-2-5 4-5 6l1 1 1-2m13 0h-1l-1 1 1 1 1-2m-19-1v-2l-1 2v2l1-2m18-2h-1l-2 3 1-1 2-2m-155 0 7-4h29c0-2-9-4-18-5-13 0-13 0-15 2-3 2-14 6-18 6-6 1-4 2 1 3l8 1 6-3m37 1v-1l-2 2c-1 2-1 1 2-1m29 1v-2l-2 2v1l2-1m74-3-1-1v1l1 1v-1m9-2c1 0 1-1 0 0l-1 1c0 2 1 1 1-1m10-2v-1l-2 2c0 2 1 1 2-1m-90 0-2-1-1 1 2 1 1-1m3-3-2-1 2 2v-1m-13 0-1-1h-1l1 1h1m5-2-1-1v1l1 1v-1m-4-1-1-1v1l1 1v-1m15-5c0-1-2 0-2 2l-2 3 2-3 2-2m-18 2-1-2v2l1 1v-1m10 1-1-1h-1l1 1h1m-40-5-1-1-1 1v1l2-1m-30-5-3 2h2l1-2m10 2-1-1-1 1v1l2-1m25 0-1-1-1 1v1l2-1m28-2h-1l-1 1 1 1 1-2m10-2-1 1v2l1-3m-76 0c2-2 1-2-1 0l-1 2 2-2m25-2c0-2 0-2-1-1v4l1-3m49 0 1-1c0-2-3-1-4 2h1l2-1m-75-3c-1-1-3 1-3 3h2l1-3m48 2-1-1-1 1v1l2-1m21-1-1-1-1 1v1l2-1m-58-2-1-1-1 1v1l2-1m16-1v-2l-1 2v1l1-1m29-2h-1l-1 1 1 1 1-2m-63 0-1-1-1 1v1l2-1m17-3-1-1-1 1v1l2-1m36-2h-1l-2 1h2l1-1m13-4-2 1-3 1-2 1c0 2 0 2 3 0l4-3m-23 3h-3c-3 1-4 1-1 1l4-1m-53-3-3 2h2l1-2m51 1h-6l-3 1 9-1m10 1v-1l-1 1v1l1-1m34-1c1-1 1-1 0 0l-2 2 2-2m-99-1c1-1 0-1 0 0-2 0-2 1-1 1l1-1m28 0-1-1h-1l-1-1 2 3 1-1m61-5c0-2-2 0-4 3l-2 4 3-3 3-4m-95 3 2-3-4 2c-4 3-2 4 2 1m61 0-1-1-6 1-3 1 10-1m-28-3c2 0 4-4 4-6l-4 3-5 6 2-1 3-2m12 3-1-1-1 1 1 1 1-1m-50-3 3-3-8 5c0 2 1 1 5-2m43 0 3-3c0-1-5 2-6 4-1 3 0 2 3-1m-40-6c1-2-6 2-8 5l-3 3 5-3 6-5m60 7c2-1 2-1-1-1-4 1-4 1-3-1 0-2 0-2-2-1-3 4-1 5 6 3m-52-3h-1l-1 1 1 1 1-2m39-3 1-3-1 3c-2 3-3 7-1 4l1-4m-56 3v-2l-2 2v1l2-1m45-5-3 2-3 3 3-1 3-4m24 4h-2v1l2-1m6 0-1-1-1 1 1 1 1-1m7-1v-1l-1 1v1l1-1m-70-2c0-3-1-3-2 0l1 2 1-2m32-5v-6c2-4 3-9 1-6h-1v2l-1 3c-1-1-1-1-1 1v3l-6 8 3-3 4-2-2 3-3 3 3-2 3-4m16 5h-1l-1 1 1 1 1-2m-58-1-2 1c-1 1-1 1 0 0l2-1m69 0h-1l1 2v-2m-82 0c1-1 0-2-1-2l-2 2 1 1 2-1m5 0h1v-2h-2l-3 2h4m42-4-3 1-2 1 2-2 1-2-3 1c-2 3-2 3 0 4 1 2 2 2 3 0l2-3m32 3h-4c-1 1 0 1 2 1s3 0 2-1m-128-4h-1c-2 1-3 2-1 2l2-2m46 0c2-3 1-3-2 0l-1 2 3-2m15 1v-2l-2 2v1l2-1m30-1c2-3 1-3-2 0l-1 2 3-2m-10-1h-1l-1 1 1 1 1-2m8-1 3-6-4 4c-3 4-3 6 1 2m10 1-1-1-1 1v1l2-1m-10-9-2-1-7 7c0 2 3 1 5-2l2-3c2 0 1 2-1 4l-2 2 3-2c2-3 3-4 2-5m-73 5 3-3-4 2-2 3 3-2m7-2v-6l-1-2-1 3c-1 3-1 3 1 2l1-1-3 5c-3 3-3 3-1 2l4-3m0 3 4-1 5-2c2-3 2-4 1-4-2 1-2 1-1-3l2-6v-1l-2 5-1 3-1 2c1 3-1 5-3 5v-2l1-3-2 1-3 5-1 2 1-1m75 0 1-3-2 1c-2 1-3 3-1 3l2-1m-61-5 1-4-5 7c0 2 2 0 4-3m44 2c3-4 3-5 1-5-1-1-2 0-4 2l-1 4c0 2 2 1 4-1m14 0c1-1 1-1 0 0l-2 2 2-2m-29-1c1 1 1 1 2-1v-1h-3l-2 2c-1 2-1 2 1 1 1-2 2-2 2-1m60 0-2-1v2c1 1 3 1 2-1m-65 0v-1l-1 1v1l1-1m13-1 2-3-2 2-3 1 1-2 1-1-4 4c0 2 4 0 5-1m-31-2v-3l-1 3-1 3 2-3m3 0 1-3c-1-1-1 0-2 2l-2 3 1 1 2-3m5 0 1-3-2 3c-2 4-2 4 1 0m-89 0c-2-3-8-6-9-5-1 0 4 6 7 6 4 1 4 1 2-1m59-3h-2l-1 3h2l1-3m35 2c2-2 2-2 2 0 0 1 1 1 2-1v-2l-2 1c0-1-2 0-3 2l-1 2 2-2m-62-4c0-2-2 0-2 3v1l2-4m70 1h-2l-1 3h2l1-3m37 2-1-2v2l1 2v-2m-4-2c1 0 1-1 0 0l-1 1c0 2 1 1 1-1m-68-3c1 1 2 0 2-1 1-1 1-1-1-1l-2 1-4 4 2-1 3-2m-301 2v-2l-1 2v1l1-1m356 0-1-1-1 1 1 1 1-1m46 0v-1l-1 1v1l1-1m-385-4-2-6c1 0 1-1 0 0l-1 2c0 3 3 8 4 8l-1-4m295 2h-1l-1 1 1 1 1-2m39 1v-1l-1 1v1l1-1m17-1c1-2-1-2-2 0v2l2-2m-146-1-2-1 2 3v-2m52 1v-1l-1 1v1l1-1m16-2h1c0 2 0 2 2 1l3-3 1-1c0 3 5 1 6-2 2-5 1-7-1-2l-2 2c0-2 0-2-2-1l-3 2-1 1c-1-1-5 1-5 3l-1 1v-1c0-1-1-2-3-1h-4l-1 1 3 1h2c-1 1 0 2 2 2l3-3m75 0-1 2c-1 1-1 1 0 0l1-2m-86 1-1-1-1 1v1l2-1m83 0c1-1-3-2-4-1l1 1h3m-96-3c3-3 2-4-1 0l-1 3s2-1 2-3m44 2-1-1-1 1v1l2-1m-308-2c0-3 2-4 2-2 1 1 1 0 1-1 0-3 1-4 3-1 2 2 3 1 1-2l-1-4-3 2c-2 3-4 4-5 4-2 0-3 1-3 3s0 3 2 3l3-2m275-2 3-5c0-1-1-1-2 1l-4 5-2 3 5-4m41 2c1 0 1-1 0 0l-1 1c0 2 1 1 1-1m4-3-2 4 2-1v-3m-50-3c0-1-3 3-3 5l2-1 1-4m35-1-2 1-1 5 2-1 1-5m20 4h-1v3l1-3m11-1h-1l-1 2 1 1 1-3m-80 1-1-1-1 1v1l2-1m25-1c2-2 1-2-1 0l-1 2 2-2m60 0-2-1v2c1 1 3 1 2-1m4 1-1-1-1 1v1l2-1m3-2c0-1 0-2-1-1l-1 2 1 2 1-3m2 0h-1l1 2v-2m-76-1h-1l-1 1 1 1 1-2m40 1-1-1-1 1 1 1 1-1m-272-7c0-4-2-1-2 4-1 3-1 3 1 1l1-5m2 4h-1l-1 3 1-1 1-2m243 1v-3l-2 3c-1 2 0 3 2 0m4-3-2 2c-1 2-1 2 1 1l1-3m-233 1c0-2 0-2-1-1v3l1-2m208 1v-1l-1 1v1l1-1m55 0-1-1-1 1v1l2-1m-322-3c2-2 1-2-2 0-2 1-2 2-1 2l3-2m275 1h-2c-1 1 0 1 1 1s2 0 1-1m-251-3c-1-1-1 0-1 1s0 2 1 1v-2m254 1-2-2v2c1 2 3 2 2 0m-45 0-1-1v1l1 1v-1m83-2-1-3 1 3 1 3-1-3m-296-1c-1-1-1 0-1 1s0 2 1 1v-2m287 1-1-3-1 1 1 3 1 1v-2m7-1-2-3v3c1 4 3 3 2 0m-276-1h-1c0 2 1 3 2 2l-1-2m282 1-1-2v2l1 1v-1m-19-1-1-2v2l1 1v-1m-49-1-1-1-1 1v1l2-1m-240-2v-2c-1-2-2-1-2 1-1 2 0 3 2 1m-4-2c1-1 0-3-2-3s-2 2-1 4c2 1 3 1 3-1m-13 0 3-2h-6c-7-1-8 0-6 2h9m252 0-1-1-1 1v1l2-1m4 0-1-1v1l1 1v-1m-223-4v-1l-1 1v1l1-1m213 0-1-1-1 1 1 1 1-1m-212-8-4 1-2 4 4-2 2-2v6l1-3-1-4m-17 2-3-2 2 3 1-1m-21-2h-1c0 1 1 2 2 1l-1-1m46 1-1-1-1 1v1l2-1m21-1 2-4 2-3-18 6c0 1 5 3 9 3s5-1 5-2m-33 0-1-1h-1l1 1h1m186-3-3-12c-2-5-1-8 1-6v-2c0-4-1-5-2-2v14l1 5 3 6v-3m-168-1c1-1 1-2 2-1s3 0 18-5l7-3c0-2-7-4-12-4-8 0-9 0-10 2l-3 6c-6 6-6 7-5 7l3-2m-5-1c1-1 1-1-1-3l-4-3-4-3c-1-1-3-2-3-4v-5c2-3 3-5 1-3s-3 1-2-1v-4l-3 6c-3 5-3 6-1 6s6 7 7 12c0 4 0 4 4 4l6-2m-24-4-3-4-2-1v2c2 4 4 7 5 6v-3m119 2c0-2 0-2-1-1l-1 2c1 2 2 1 2-1m69-6c1-7 1-8 4-13l8-10c4-3 5-5 6-9l1-6-9 6h-3v1l-4 8c-10 13-13 23-7 29 3 4 4 2 4-6m-134 4-1-1-4 2 5-1m-61-5c-1-3-1-3 1-3s3-1 3-2l-2-2-4-2c-3-4-4-4-4 1-1 4 2 13 5 12l1-4m8-1-2-2c-1 1 0 2 1 4 3 3 4 1 1-2m70 3c2-1 3-2 3-4 0-1 0-2 1-1 0 3 1 2 5-1 3-3 3-4 2-5-3 0-7 2-10 5l-6 3-4 2 6 3 3-2m102 1c0-2-2-3-2-1l2 2v-1m-145-5c5-4 3-5-2 0-2 1-3 3-2 3l4-3m33 1-1-1-1 1v1l2-1m62 0-2-2c-2 0-3 1-1 2 1 2 3 1 3 0m54-1-1-1h-1l1 1h1m43-2-2-2v1c0 2 2 3 2 1m-200-1v-1h-1c0 2 1 2 1 1m55-8c10-8 13-12 10-12-2 0-6 2-6 4s-5 6-8 6l-3-2c-2-1-7-1-18 1-6 1-6 2-8 6l-1 4 18 2c5 0 5 0 16-9m148 9-2-3c-2-1-2-1-1 1s3 3 3 2m-246-3-2-1 1 2c2 1 3 0 1-1m96-1-3 2h2l1-2m24 2 1-1-3-2-5-1c-4 1-5 2-2 4h9m82 0-1-3c-1-1-1-1-1 1l1 3 1-1m27-3v1l1 2-1-3m19 2-1-1v1l1 1v-1m15-3c-2-3-4-4-2-1l4 5-2-4m-260 0-2-1c-2 0-1 2 1 3s4 0 1-2m223 1h-1l1 2v-2m27-1-2-1 1 2 1 2v-3m-225-5v-3l-1 3-1 5h1l1-5m106 4c4-3 3-3-3-5l-5-3c0-2-1-2-6-2s-5 0-6 4c-2 5-2 5 1 5l4 2c2 2 10 1 15-1m125 0-1-2v2l1 2v-2m-200-2-2-2 1 3 2 2-1-3m90 1-2-1c-2 0-3 1-2 2s3 1 4-1m-107-1-2-1 1 2c2 1 3 0 1-1m66-1h-1l-2 2h2l1-2m-47-4c-4-4-5-3-1 2l4 3-3-5m51 2v-3c-1 0-3 2-3 5s1 2 3-2m129 1v-3h8c1 1 1 1 1-1v-2l1-1v-1l1 1h15v-2l1-1 2-2c0-2 2-4 4-3l1-1v-2c2 0 4-3 4-4-1-1-12 6-14 9-1 1-2 2-5 2l-3 1-1 1-1-1c0-1-1-2-5-2-6 0-11 2-17 6l-2 2 3 3c3 3 3 3 2 1 0-4 2-4 4 0l2 3-1-3m-188-5-5-8-1-2c0-2-1-2-5-2l-1-1c0-2-2-1-2 1-1 1 0 2 1 3 2 1 2 2 2 4l-2 2-1-1v-3c-1-2-1-2-3 1v4l1 3c0 2 2 3 3 1h4l2 3c2 2 1-1-1-5l-1-3v-3l1-1 6 9c0 3 3 5 4 4l-2-6m152 3-1-3v5c2 3 2 2 1-2m26 3-1-1-1 1v1l2-1m189 0-1-1-1 1v1l2-1m-420-4-2-1 1 3c1 2 2 2 2 1l-1-3m223-1-2 2-2 2 2-1 2-3m183 0-2 1-2 4 2-2 2-3m9 3-4-1c-1 0-2 0-1 1l3 1 2-1m-408-5-2-1 2 4 2 1-2-4m139 3c2 0 3-1 3-2h-5c-6 1-8 0-4-1 2-1 2-1 1-3v-2l2 2c1 2 7 4 8 2l1-4v-2l-2 2v1l-1 2-3-2c-2 0-5-6-5-8s5-2 6 0c1 1 1 1 1-1l1-3c1 0 6 6 6 9l1 3 3-4 3-4-3-3c-2-2-4-6-4-9-2-5-4-6-6-2-1 2-2 2-1-1h-3l-4 2-3 1-3 4c-1 3-3 4-3 1 0-1-1-1-4 2-2 3-3 4-2 6s0 4-2 3c-4-3 3 7 7 10l7 2 5 1 3-2m-75 0-1-1-2 1 2 1 1-1m338 0-1-1-1 1v1l2-1m11-4c1-5 0-6-2-10-3-4-4-5-5-2l-2 2c-3 0-3 2 2 5l4 4c-1 6 1 7 3 1m-358 1-3-2 1 2c3 2 4 2 2 0m148 2-1-1h-1l1 1h1m64-1-1-1-1 1 1 1 1-1m151 0-1-1-1 1 1 1 1-1m-325-2h-1l-2 1c0 2 2 1 3-1m178 0v-2l-1 2v2l1-2m-223-1h-1c0 1 1 2 2 1l-1-1m15-2c1-4 0-5-2-2-1 0-2 2-1 4 0 3 2 2 3-2m10 1c2-2 3-2 5-2h2c-1-2-4-2-7-1l-5 2c-2 0-4 2-4 3 0 2 7 0 9-2m5 2-2-1-1 1 2 1 1-1m-86-1-1-2v2l1 1v-1m213 0v-1l-1 1v1l1-1m227-1-2-1v2c1 1 3 1 2-1m-342 0-2-1c-3 0-4-1-6-4-3-5-4-5-2 0 3 4 9 7 10 5m24 0-3-1-1 1 2 1 2-1m153-1-2-1 2 3v-2m-209 0v-1l-1 1v1l1-1m144-1-2-2v2l2 2v-2m5 1-1-1v1l1 1v-1m-154-1v-1l-1 1v1l1-1m56-1v-1c-2 1-2 3-1 3l1-2m-60 0v-2l-3 2v1l3-1m55-1c1-1 0-2-1-3-3-2-2-5 1-6l2-2c0-1-1-2-2-1-2 0-2 0-1-1 0-2-2-2-5-1s-4 3-3 7c0 2 4 6 6 6l1 2c0 2 2 1 2-1m-35 0-1-1-1 1 1 1 1-1m136 1-1-1h-1l1 1h1m196-1v-1l-1 1v1l1-1m35-1-2-2c-2 0-2 0-1 2l2 2 1-2m-375 0h-3c-2 1-2 1 0 1l3-1m195-1 14-9 12-8 1-7-2-8-5-6-2-4-3 3-6 5c-2 1-3 1-2 3l-4 8-4 7-5 8c-7 9-7 10 1 10l5-2m-228 1-1-1h-1l1 1h1m17-2-1-1-1 1v1l2-1m30 0c1-1-1-2-5-2-3 0-3 2 0 2h5m371 0-1-2c-3-3-6-2-5 1l3 2 3-1m-393-2-1-2v-6l2-4 1-5 1-2 1-2h2l-1-2-2-5c0-2 1-1 6 4 3 4 6 6 6 5l-2-3c-4-4-6-8-5-9 0-2 1-2 3 0 1 1 1 1 1-1s0-2 2-1h1c-1-2 0-3 2 0l2 1c2 0-6-7-8-7l-4 1h-4c-3-3-4-2-3 1 0 4 1 5 3 3 3-3 3-1 1 2-2 2-2 3-2 7v4h-3c-5-1-7 1-5 4 3 2 2 3 0 4-2 0-2 1-1 2l1 7c0 6 0 6 3 6l3-2m4 1-1-1-1 1 1 1 1-1m33-5-3-4 5 10-2-6m86 4h-1l1 2v-2m-146-1c0-1 0-2-1-1l-1 2 1 1 1-2m77 0c-2-2-3-3-3-1-1 2 0 3 2 3s2 0 1-2m10 1c0-1-2-2-3-1v1h3m63-2h-1l-1 2 1 1 1-3m4 1h-1l-1 1 1 1 1-2m-98-3-2-2c-1 0-1 2 1 3 2 4 2 3 1-1m77 4-2-1v1h2m240-1v-1l-1 1v1l1-1m-188-3-1-1v3c1 1 2 0 1-2m-37 0 13-6 8-4 7-3 11-2c12 0 18-3 17-7l-11-7c-10-5-11-5-15-4l-7 3-6 2c-5 0-15 4-20 8l-6 9a974 974 0 0 1-5 12c2 2 6 1 14-1m54 0h-1l1 2v-2m205-2c0-1 0-2-1-1l-1 3 1 2 1-4m-407 0c0-2-2-1-2 1v1l2-2m83 0c0-1-3-3-4-2v2c1 2 4 2 4 0m49-6a24688 24688 0 0 0 13-19l4-2-8-3c-10-3-10-3-10 1 0 3 0 3-2 3s-3 1-3 3c-1 2-2 2-3 2-1-1-2 0-3 1 0 2 0 2-2 0l-2-1 1 2 1 1h-2l-1 1 2 1c2-1 6 7 6 10 0 2 4 8 5 8l4-8m131 8-3-3-2-1 1 2 4 2m138-5c3 0 2-3-1-5-2-2-4-2-4-1l-3 1c-3-1-5 1-5 4l4 4 5 2 1-3 3-2m-411 3-1-1-1 1 1 1 1-1m7-2-3 2h2l1-2m65-2c-1-1-2 1-1 3h1v-3m129-2h-1v4h1v-4m219 2c1-3 0-4-1-1v4l1-3m-407 0h-1l-1 1 1 1 1-2m87 0 3-3c4-1 4-2-1-3l-5-1c-1-1-2 0-1 4 1 5 2 6 4 3m118 1-1-1-1 1v1l2-1m-217-2 1-2-3 1c-3 2-1 3 2 1m75 0-2-1v1l1 1 1-1m129 0-1-2v2l1 1v-1m212 0-1-1-1 1v1l2-1m-330-1 2-1 5-2-1-2-1-2c-1-2-1-2-2 1l-4 5-1 2 2-1m338 0c1-1 0-1 0 0-2 0-2 1-1 1l1-1m-374-2h-2v1l2-1m35-3-1 2c-1 1-1 1 0 0l1-2m44 1c0-2-2-4-2-2l2 4v-2m78 0-1-1-1 2 1 1 1-2m-182 0c0-1-1-2-2-1l1 2 1-1m184-1h-1l1 2v-2m68-2c-1-2-1-2-1 1v2l1-3m84 1c0-3 0-4-2-6l-2-6c-1-4-2-5-4-3v4l1 5c0 2 5 9 7 9v-3m-305 0h-1l-1 1 1 1 1-2m58-1 1-3-4 5c0 2 2 1 3-2m-98-1-1-3c-1-1-1-1-1 1l1 4 1 1v-3m257-1c0-2 0-2-1 0v3l1-3m-262-3-3-4 2 5 3 4-2-5m207 3h-1v1c0 1 1 1 1-1m153 0-3-1v2l3 1v-2m-249-1-1-1h-1l1 2 1-1m99 0v-2l-1 2v1l1-1m50-1v-5c-1-2-1-1-1 1l-1 5v1l2-2m99-2h-3c-1 1-1 1 2 1 2 0 2 0 1-1m-279-4c3-4 3-7 1-8s1-3 3-3c3 0 2-1-1-3s-8-1-10 1-2 2 0 6l3 4c2 1 1 3-1 3-3 1-2 3 0 3s4-1 5-3m137 1h-1l1 2v-2m118 0-2-1v2c1 1 3 1 2-1m13 0v-2l-1 2v2l1-2m-347-1h-1l1 2v-2m252 2-1-1h-1l1 1h1m-152-2-1-1c-2-1-3 0-1 1h2m160-3v2c0 2 1 2 1 1l-1-3m79 3-2-1v1l1 1 1-1m-120-2v-2l-1 2v2l1-2m31-1h-1l-1 1 1 1 1-2m-130 0c0-2-2-3-2-1l2 2v-1m199-1-2-1c-1 0-2 0-1 2 0 1 2 1 3-1m41 1h-1l-2 1h2l1-1m-290-1-1-1-1 1 1 1 1-1m154-2h-1l-1 3 1-1 1-2m-214 1-2-1v1l1 1 1-1m218 0-1-1v1l1 1v-1m106-1-2-2v2l2 2v-2m-180-1h-1l-1 1 1 1 1-2m93-1c-2 0-2 1-1 2h1v-2m-157 1-2-1-5-1v1l5 2 2-1m22 0-1-2v2l1 1v-1m34 0-1-1c-1 0-2 0-1 1l1 1 1-1m16-3-2-1c-2 0-2 0-1 2l2 1 1-2m-160 0-3-1v2l3 1v-2m16 1-1-1v1l1 1v-1m89 0-1-1v1l1 1v-1m35-1c0-2-2-1-2 1v1l2-2m201 1c0-2 5-4 9-4h2l-2-3c-3-4-4-4-7-1-3 4-5 9-3 9l1-1m-305-3h3c2 0 2 0 1-1-1-2-2-2-7-2h-8c0 1 2 3 4 3l4 2h2l1-2m31 2-3-2 2 3 1-1m70-1-1-1-2 2 1 1 2-2m87 0h3l1-1c2-1 0-1-7-2h-7l7 5 3-2m-201-1c-1-2-3-4-3-2l3 4v-2m110 1-1-1-2 1 1 1 2-1m73 1-1-1h-1l1 1h1m125 0-1-1h-1l1 1h1m-204-2c1-1-2-3-3-2l-1 2h4m55 0-1-1-1 1v1l2-1m-187-1-1-2c-1-1-1-1-1 1l1 2 1-1m23-1c0-2 3-5 4-4l1-1h-2c-1 0-2-2-1-4 1-1 2 0 4 3l5 4-2-4c-3-3-4-5-1-4l1-2c-1-1 0-2 1-3s2 0 4 2c3 4 5 4 4 1 0-2 0-2 2 0 3 4 4 4 3 0 0-2-1-3-4-4h-4l-2-1c-1-2-5-3-6 0l-1 1-2 2c-1 1-1 1-2-1l-1-2-1 3-3 5-1 2c1 1 0 2-1 3-2 2-2 2-1 4h6m149-2c9-5 19-8 22-8s3 0 0-5c-4-9-17-16-24-14l-8 1c-3 1-7 2-10 5-5 3-6 3-12 2l-7 1c-1 2 0 10 2 11v-7l2 1c3 2 4 5 2 8-1 1-1 1 1 2l6 2 10 3 5 1c1 1 5 0 11-3m19 1v-6l-1 4c-1 4 0 5 1 2m66 1-1-1v1l1 1v-1m-166-1-3-4-3-5-3-2-4-2 5 1c5 1 5 1 7-1 3-3 2-5-2-5-2-1-3-1-2-2l2-1c2 1 7-1 7-2l-1-2c-2-2 0-2 2 0h2c-1-2 0-2 4-1 2 1 2 1 1-3-2-3-2-4-5-4-4 0-5 0-3 3s-1 3-3 0c-3-3-5-4-3-1s1 4-1 4c-2-1-2-1-2 1s0 2-5 2h-5v3c2 2 1 3-1 3s-3 1 0 3c2 2 1 3-1 3-3 0-2 3 2 5l5 1c2 0 3 1 3 2l2 3c3 2 5 3 5 1m13-2c-2-2-3-3-8-3-6 0-6 0-5 2l5 1c3-1 4-1 6 1 4 3 4 2 2-1m-99 0-2-1 2 3v-2m68 1v-1l-1 1v1l1-1m48 0c-1-2-4-4-5-3s2 4 4 4l1-1m7 0v-3h-1v4l1-1m107 0c1-2-1-2-2-1v2l2-1m6-6h3l-2-2c-2 0-3 1-3 2l-1 4c-3 3-2 4 1 1l2-5m12 1c0-2-2-1-3 3l-2 4 2-3 3-4m82 5-4-5 1 3c1 3 3 4 3 2m7 0-3-4v4h3m-297-1c0-2-2-4-4-3-1 0-3-1-5-4-2-4-3-5-3-3s7 9 8 8l2 1c0 2 2 3 2 1m62-2h-1c0 2 1 3 2 3l-1-3m74 2h-3v1l3-1m3 0-1-2v2l1 1v-1m11-5c-2-1-2 1-1 4v3l1-3v-4m24 5h-3c-1 1-1 1 2 1 2 0 2 0 1-1m9-6c0-2 0-2-2 1l-3 5 2-1 3-5m-16 5c1-1 0-2-1-1-3 0-4 2-1 2l2-1m19-1h-1l-1 1 1 1 1-2m17-3h-2l-1 4h2l1-4m38 1c-1-1-1 0-1 2 0 1 0 2 1 1v-3m-278 2-3-4c-2-2-2-2-4 0-2 1-2 3 0 2l3 1c2 2 4 2 4 1m49 0-1-2v2l1 1v-1m148-4c0-3-1-2-1 2v2l1-4m123 3h-1l1 2v-2m-109-4c0-2-1 0-3 4l1-1 2-3m3 2v-2c0-1-2 0-3 2-1 4 0 4 3 0m16-1c0-2-2-1-2 2-1 2-1 2 1 1l1-3m110 2h-1l-2 1h2l1-1m-331 1-1-1h-1l1 1h1m96-4-2-2c-1 0 1 5 3 5l-1-3m90 1h-1l1 2v-2m56 0c1-3 0-4-2-3v5l2-2m95-1c-1-1-2 1-1 2h1v-2m-374 0-1-2c0-2 0-2-2 0-2 3-2 4 1 3l2-1m110 2-1-1h-1l1 1h1m16-1h-2v1l2-1m104-1-1-3-1 3 1 2 1-2m115 1-1-1v1l1 1v-1m13 0-2-1h-1l3 1m-287-4-3-4c-2-3-2-2 0 3 3 5 5 5 3 1m166 2-1-1v1l1 1v-1m36-4 8-6 6-3-3-3-7-9c-4-7-5-8-7-5l-3 2v1h2c3 0 3 2 0 3l-2 4-1 1-2-5-1-3c-2-2-2-2-4-1s-3 2-5 1c-5-2-6-3-4-6 3-2 2-3-1-1s-3 2-4 1l-3-1-2-1 1-1 1-1-2-1c-2 0-3-1-2-3v-1c-1-1-2-2-1-3 0-3 1-3-6-1-5 1-6 2-4 4v1h-2c-1-1-1-1-1 2l-2 3v-4l-1-3-1 3c0 2-3 6-4 5-2-1 0-9 1-10 2 0 2-1 1-2l-5 2c-3 1-5 3-6 5v16l10 11c7 7 9 9 12 9l30 3c9 1 11 0 14-3m36 2c2-2 3-4 0-2h-1c1-2 0-3-1-4-2-1-3-3-3-5v-2l3 3 4 3 1-2v-4l-1 1-1 1v-6l-4-6c-3-5-4-3-2 3l2 4c-1 1-3-1-4-6l-3-4-1 2 2 5-1 4h-2l-4 1c-2 0-2-1-3-2l-2-2c-1 1-2 0-2-2l-2-3v-2c0-2 0-3-2-3l-2-2c0-2-2-3-5-2l-2 1 2 1 2 2c0 2 7 11 10 12l4 3c1 2 7 3 8 1l2-1v1l2 4 2 6c0 4 1 5 4 2m-168-3-2-2 3 6-1-4m10 2-1-2c-1-1-1 0-1 1l1 3 1-2m143-2-2-4v2l1 4 2 2-1-4m-203 0h-1v2l1-2m190 2-1-1v1l1 1v-1m3-2-2-2v2c3 3 4 3 2 0m16 1-4-7v2l1 4c1 4 3 4 3 1m53 1-1-1-1 1 1 1 1-1m-280-3-2-1 1 2 1 2v-3m11 0-2-2 1 3c2 3 3 2 1-1m39 2-2-1v1l1 1 1-1m198-1c1 0 1-1 0 0l-1 1c0 2 1 1 1-1m-313-1-2-2v2l2 2v-2m280-1-2-2 2 2c0 2 2 3 2 3l-2-3m29-3v-6l-1 2-2 6v3l3-5m11 2c0-2 0-1-2 2v1l2-3m-41 3-2-2c-1-1-1-1 0 0 0 2 2 3 2 2m-274-2c0-2-1-3-2-2l1 3 1-1m338 0h-3c-1 1 0 1 2 1 1 0 2 0 1-1m-199-3-1-1-2 1 1 1 2-1m172-1h-1l-1 1 1 1 1-2m-268 0-1-1v1l1 1v-1m290-2h-1l-1 2h1l1-2m-333-1-1-1-1 1v1l2-1m5-4-1-4-2 4c0 4 0 5 2 5l1-5m12 3-2-2v2c1 2 3 2 2 0m3 0h-1l1 2v-2m286-3c-2-2-3-2-1 1l2 3 1-1c0-1 0-3-2-3m56 1h-2v3h2v-3m-351 1-4-7v4c0 4 0 5 2 4l2-1m302 0h-1l-1 1 1 1 1-2m13 0h-1l-1 1 2-1m-297 1-1-1h-1l1 1h1m52-1-2-1c-1 0-2 0-1 1l1 1 2-1m68-1-1-5c-1-4-2-5-4-3h-2c-2 0-2 0-2 3 0 4 1 6 5 6 3 1 4 1 4-1m-82-2-6-6c0 2 6 9 7 9l-1-3m59 3-1-1h-1l1 1h1m6-2h-1c-2 0-2 0-2-3s-2-6-3-4c-1 1 1 7 3 8 1 1 2 1 3-1m-10 0-1-2-1 2 1 1 1-1m178-3c-1-1-1-1-1 1s1 4 2 1l-1-2m-315-2c-2-5-3-7-4-5-1 1 5 10 6 10l-2-5m152 3h-1l1 2v-2m28-1 6-3c4-2 5-2 8-1l6 1c2 0 2 0 2-4-1-6 1-14 3-16l6-4c4-4 5-5 2-5l-4-2-2-2-4 2-7 3-3 2-4 2-4 2c-1 3-2 5-4 4-3 0-3 1-3 7 1 6 1 8 2 5v-5c0-2 0-2 1-1l1 4c0 2-1 3-4 5-2 1-5 2-6 1-3 0-3-1-2-4l-1-7-1-3c2-2 1-3-2-4h-2v8c-1 5 0 6 1 8l4 6c3 3 3 4 6 3l5-2m148 2v-4c-1-5-2-5-2 0 1 2 1 3-1 3v1h3m21-8c0-3-3 2-3 6l-1 4 2-4 2-6m-297 6h-1l1 2v-2m291 0 1-4c-1-1-4 3-4 5s2 1 3-1m85 0c7-3 9-5 5-6l-4-2h-8c-3-2-3-1-2 3l2 5c0 2 1 3 7 0m-298 0-1-2-1 2 1 1 1-1m269-1c-1-2-3-3-5-3s-3 2 0 2l3 2c4 2 5 1 2-1m-308-1c0-2-2-4-2-2l3 4-1-2m248 0c0-1-4-8-5-7l3 8 2-1m70-3c-1-1-2-2-5-2s-3 0-2 2c2 2 7 4 8 3l-1-3m-260 0c0-2-1-3-2-3l3 6-1-3m369 2c0-2-5-6-7-6-3 1-2 3 2 5s5 2 5 1m-413-4-3-2 1 4 3 2-1-4m194-1c-2-1-2 1-1 3v3l1-3v-3m155 3c1-1-3-3-4-3l1 1 1 2c0 1 2 2 2 0m-425-3h-1c0 2 1 3 2 2l-1-2m411 1-2 1c-1 1-1 1 0 0l2-1m-436 0-1-2v2l1 1v-1m156 0-1-1-1 1v1l2-1m155-1-2-1 2 3v-2m98 1-2-1v1l1 1 1-1m-73-1-1-1v1l1 1v-1m147 0-1-1-2 1 2 1 1-1m4 0h-2v1l2-1m-360-4-4-7-3-3 3 4 3 7c0 2 1 3 2 3l-1-4m129 3c1-1-1-7-1-6v4c-1 3 0 4 1 2m9 0h-2v1l2-1m85-1h-1l-1 1 1 1 1-2m11 1 1-2-3 2c-2 0-2 1-1 1l3-1m-229-7-2-3v5l2 4v-6m167 6-1-2c-1-1-1 0-1 1l1 2 1-1m-205-3h-1c0 2 1 3 2 2l-1-2m-68 1-1-1-1 1 1 1 1-1m63-2h-1c0 2 1 3 2 2l-1-2m48-3-1-3c-1 2 1 10 2 9l-1-6m169 3c-1-2-4-4-4-2s3 5 4 5v-3m34 1c-1-2-2-1-2 1h2v-1m145 1-1-1-1 1 1 1 1-1m-343-3-1-4v5c1 3 1 2 1-1m28 2c0-2-4-7-4-5l1 2 1 2 1 2 1-1m191-8c-1-1-9 6-9 8 0 1 2 0 5-3l4-5m76 7c0-2 0-2-1-1v2c0 2 1 1 1-1m23 0c0-2 0-2-2-1s-3 3 0 3l2-2m-165-2c-1-1-1 0-1 1s0 2 1 1v-2m19 1-2-1 2 3v-2m-276 0-4-11c-1 1 2 12 3 12l1-1m253-5c0-4-1-6-2-6l-1 2 3 10v-6m52 4-1-1c-1 0-2 0-1 1l1 1 1-1m100-1-1-1-2 2 1 1 2-2m-145-4c0-1-3-2-3 0l1 3c0 2 0 2 2 0v-3m39 3v-2c-1-1-1-2 1-5l2-4-3 3c-3 4-5 4-2 0v-3l-3 3-4 5 2 1c2 0 2 1 2 2 0 2 0 2 2 1l3-1m131 1v-2l-4 2h4m21-3v-3l-3 4v3l3-4m-406 2c1-1 1-1-1-3l-2-3-2 2c-2 2-2 3 0 4h5m45 1a30 30 0 0 0-5-7l5 7m43-2-3-2c-1 0-1 1 1 2 3 2 4 2 2 0m115 0-4-6 1 3c1 2 1 2-1 1-4 0-4 1-1 3 2 1 5 0 5-1m109 0c2 0 3-2 3-6h-2c-2 3-2 2-1-2 1-5 1-5-4-5-4-1-5-1-6 1s0 3 2 1l2-1-3 5c-3 2-3 3-1 2l3-3c2-3 3-2 3 1 0 4 1 10 2 8 0-1 1-2 2-1m88-1c1-2-1-2-3 1-2 2-2 2 0 1l3-2m-231 1-6-6-1 2c0 2 1 2 3 2l2 2 1 1 1-1m18 0-2-5c-2-2-2-4-2-8 1-4 0-5-3-3-2 1-2 2-1 4l1 5c0 4-3 5-5 1-1-3-3-4-5-3s6 8 10 9h7m51 0-2-1v1l1 1 1-1m145-3 3-4c1-2 1-2-1-1l-7 8h1l4-3m-436 1-2-3c-3-3-4-1-1 2 1 2 3 3 3 1m98-1h-1c0 1 1 2 2 1l-1-1m213 1v-1l-1 1v1l1-1m-63-4c0-5-2-5-3-1l-1 4c-1 1-1 1 1 1s3 0 3-4m15 4-1-1h-1l1 1h1m171-6c0-2-4 2-5 4s0 2 2 0l3-4m-286 4c1-1-7-3-8-3l7 4 1-1m190-13v-2c0-2 0-2-2-1-3 2-10 14-9 15s2 0 3-3c1-4 4-8 6-8v14l2-7v-8m37 13h3l2 1c1-2-2-3-6-4-4 0-5 1-2 3h3m-101-3c1-3 1-3-1-2l-1 4c0 2 1 1 2-2m75-1c0-1 0-2-1-1l-1 3c0 2 0 2 1 1l1-3m-227 2-1-1-1 1 1 1 1-1m92 0c1-1 1-2-1-4-3-2-4-3-4 0 1 0 1 1 0 0-2-1-3 1-2 3s5 3 7 1m28-2-3-2 2 3 2 2-1-3m102-4c1-2 1-3-1-3-2-1-2-1-1 1v5c0 5 1 3 2-3m81 5v-2l-2 2-1 2 3-2m-298 1-1-1h-1l1 1h1m128-2h-1l1 1h1l-1-1m78-1c1-3 0-3-1 1v2l1-3m104-7c0-2-8 6-9 9l4-3 5-6m-21 5h-2l-1 3h2l1-3m32 3-1-1-1 1v1l2-1m-124-3-1 2c-1 1-1 1 0 0l1-2m95 1v-2l-1 2c-1 2 1 3 1 0m47 0h-1l-1 1 1 1 1-2m-336-1-3-2 1 2c3 3 4 3 2 0m65 0v-2l2 2c1 2 3 3 5 1 1-1 1-6-1-6v1l-1 1-1-1c-1-1-8 0-10 2v3c3 2 6 1 6-1m47 0-2-2 3 4-1-2m-143 0-2-1v1l1 1 1-1m121-3-2-1 4 5-2-4m44 2h-1l1 2v-2m114 0v-3l-1 5 1-2m-126 0-2-7-3-5-4-2-2-2v2l3 9v-3c-1-5 1-3 4 4l3 5 1-1m7-4c-2-5-2-3-1 2l2 2-1-4m39 3 3-11-1 1-2 3c-2 2-2 2-1 3v6l1-2m52-4c0-1-4 3-4 5 0 1 1 1 2-1l2-4m3 4 1-2c-1-1-3 1-3 3s2 1 2-1m-138-2c-1-1-3 1-2 2h1l1-2m29 1c-2-3-3-3-2-1l2 3v-2m85-1 2-3-3 2-2 4 3-3m112 0h-1l-2 2h2l1-2m-332 1-1-1v1l1 1v-1m146-5-2-2c0 2 2 9 3 7l-1-5m127 3v-3l-1 3v3l1-3m12 0h-1l-1 2h1l1-2m-105-1c0-2 1-3 4-4 4-2 3-4-1-3h-4c-1-1-1-1-1 1l-1 2-1-3-1-4c-1-1-1-1-1 1 0 3-1 3-3-1-2-2-3-3-5-3s-2 0-2 5c0 4 0 5-1 4-3 0-3-11-1-11 1 0 2-1 1-2 0-2 0-2 1-1 2 1 2 1 2-1l2 1c3 3 3 1 0-4-2-2-2-4-2-6h2c1 2 6 3 6 1s2-1 4 2c1 3 1 3 2 2 0-2-2-4-5-7-4-3-6-6-6-8l3 2 2 3v-3l-2-4-2-2c0-2 2-1 4 1 3 4 3 2 0-2l-3-6-1-4c0-2 0-2 2-2 2 1 2 1 2-3s0-5 3-5h4l2 1h2c1 2 2 2 3 1s0-2-4-5l-4-4-1-1-3-1-5-2c-3 0-3 0-4 5l-3 4-3-4-5-8c-3-2-3-2-4-1l-2 2-3 2v3c2 2 0 2-3 0l-3-4c0-3 0-4-2-4-3 0-3 4 1 8l2 5 1 1 1-2 1-1v4l1 6c1 2 1 3-1 0-2-1-2-1-2 2 0 2 1 6 5 13 2 3-1 2-3-1l-3-3c-1 0 1 5 3 5l2 4 2 5v3c0 1 0 2 2 3l2 3-7 4-2 2h-4c-2-2-2-1 0 2 1 2 1 2 4 1l2-1-3 3c-2 1-3 5-1 5l1-1c0-3 2-2 2 2l2 3 1-3c-1-4 0-4 2-1l4 4 4 3c1 4 4 4 7 1 2-2 2-2 4-1h3c1-1 2-1 3 1h1c0-3 2-2 2 1l1 3 1-3m6 2v-4l-2-1c-2 0-2 1-2 3s0 3 2 3l2-1m161-2h-1l-1 2h1l1-2m6-1 2-6-4 8c-2 4 0 2 2-2m-251 2-1-2-7-11c-2-6-5-10-5-9l3 8 3 8c-1 4 6 9 7 6m175-6c0-7-1-6-1 1v5l1-6m-206 5-2-1c-1-1-1-1 0 0 1 2 2 2 2 1m-126-3-2-2 1 3 2 2-1-3m116 2-1-1-1 1 1 1 1-1m26 0-1-1-1 1v1l2-1m153 0c5-3 5-4 1-4-3-1-4 0-6 1l-1 3h6m53-3-1-1-1 3c0 2 0 2 1 1l1-3m31 0v-3c-1 0-4 4-4 6s2 0 4-3m-120-2c0-2-2-1-3 2s-1 4 1 2l2-4m6 1-2 1c-2 2-1 4 1 2l1-3m91-2v-3l-1 3a406 406 0 0 1 1 0m-319 0-6-5c-1 0 2 4 6 7l5 3-5-5m9 4-1-1v1l1 1v-1m328-4 2-5v-2c-1-1-2 0-3 4-2 5-3 8-1 8l2-5m-62 2v-3c-1-1-4 2-4 4s2 1 4-1m50-1h-1v3l1-3m-319 1-2-2c-2-1-2-1-1 1l3 1m119 0-1-2-1 2 1 1 1-1m128-1h-1c-2 1-3 2-1 2l2-2m17-2 4-4-9 7c0 2 2 1 5-3m-315 1-2-2 3 4-1-2m54 0h-1c0 1 1 2 2 1l-1-1m109-1-2-1 1 2 1 2v-3m4 2-1-1v1l1 1v-1m180 0v-2l-1 2v1l1-1m-229-2c-2-1-4-1-3 1l3 1v-2m38 1c0-1-1-2-2-1l1 2 1-1m-168-1h-2c-4 0-5 1-2 1l4-1m14-5-3-2c0 2 4 9 5 7l-2-5m50 5-2-2v2l2 1v-1m7 1-1-1h-1l1 1h1m251-4c3-3 8-9 7-10l-5 5c-2 3-5 6-7 6l-2 2 7-3m82 1c0-1-2 0-2 2h1l1-2m-48-3c-1-1-1-1-1 2s0 3 1 1v-3m64 3-1-1-1 1v1l2-1m11 0v-1h-1c0 2 1 2 1 1m-363-1c0-1-2-3-4-3s-2 1 0 3h4m112 0-1-1-2 1 2 1 1-1m34 0v-3h-1l-1 2 1 2 1-1m91-3c3-5 3-6 0-2l-3 6 3-4m83 1c0-2 0-2-1-1v4l1-3m-281 1-4-4 1 3c2 2 3 2 3 1m58-1-1-1v2c1 2 2 1 1-1m184-3c-2-1-2 1-1 3v3l1-3v-3m-225 1c-1-2-1-2-2-1l3 4-1-3m216 0-1-2-1 3 1 2 1-3m4 2-1-2v2l1 1v-1m-344-1c-1-2-5-3-5-1 0 1 1 2 3 2l2-1m132-8 1-5 1-5 1 8c0 4 2 6 2 2l1-3c1 0 0-4-3-8-4-7-6-10-5-6l-2 4c-1 1-2 3-1 4 0 3-2 3-4 0l-9-18-1-1-1 2-1 1-3 2c-1 3-2 3-7-2l-5-4c-3 0-2 2 0 3 3 1 4 3 4 6l2 3c1 1 1 1-1 1s-3-1-5-3l-4-3c0 1 3 7 7 11 3 2 4 4 3 5 0 2 0 2 2 2l2 1 2 3 2 1h2c3 0 3 0 4 2l2 3v-4l1 1c0 2 2 1 3-1 0-2 2-3 2-1l3 5 3 3v-5c0-3 1-4 2-4m4 8-1-2v2l1 1v-1m152-3c0-3 0-3-1-1v5l1-4m97 1c1-2 1-2-1-1v4l1-3m-306 0-7-5-3-2 9 8c4 1 5 1 1-1m182 0-1-3v4c1 1 1 1 1-1m36 0v-2l-1 2v2l1-2m-277-1c-2-3-5-4-5-2l7 4-2-2m222 1v-1l-1 1v1l1-1m134 0 1-7c2-6 1-7-1-1-2 8-2 9-1 9l1-1m17-3h-1l-1 2c0 2 0 2 1 1l1-3m-320 2-2-1v1h2m100 1-2-2c-1-1-1-1 0 0l2 2m134-8 5-10-3 4-6 9c-3 3-3 5-1 5l5-8m20 0c1-3 0-2-3 2l-5 5c0 2 6-4 8-7m74 6-1-1-1 1v1l2-1m17-2c0-1-1-1-3 1-1 2-1 2 1 1l2-2m-161 1-2-1v1l1 1 1-1m-115-2-1-1v2c1 2 2 1 1-1m-63-1-4-4c-3-3-3-3 0 1 4 5 6 6 4 3m240 1c3-1 10-12 10-14s0-2-2 0l-2 4-5 7c-3 3-3 3-3 1 1-2 1-2-1-1l-2 2 2 2 3-1m-260-2c-1-3-3-4-3-2l4 4-1-2m346 1 1-3-2 1c-2 1-3 3-1 3l2-1m-124-2h-1l1 2v-2m66 1-1-1-1 1 1 1 1-1m43-2v-3l-3 6c0 1 2 0 3-3m-318 0-2-3 1 3c3 3 4 3 1 0m7-3-4-3-2-2-2-1 5 6c5 5 7 5 3 0m142 5-1-1h-1l1 1h1m178-1c1-2 1-2-1-1l-2 1h3m-110-2h-1l-1 1 1 1 1-2m-305-3c-1-1-1-1-1 2 0 2 0 2 1 1v-3m11 3v-1l-2 1h2m172-1-2-2 1 2 2 2-1-2m130 0c1-1 1-1 0 0-2 1-2 2-1 2l1-2m88-1h-1l-1 2 1 1 1-3m-403 1-3-1c-2-1-2-1-1 1 1 1 4 2 4 0m301-5v5c0 1 1 1 1-1l-1-4m38 1-4 3c-1 2-1 2 1 0l3-3m-329 3-4-3c-2 1-1 3 1 3h3m152-3c-1-2-1-3-2-2v3c2 4 3 2 2-1m172 1-1 1-1 2 2-3m30 1 1-4c0-3 2-4 4-1h2l1-2 12-11c0-3 0-3 2-2l2 2-1-2v-2h2l3-2c1-2 1-2 1 1v5c-2 2-3 6-2 8 1 3 2 2 3-2 0-4 1-5 2-3v-4c0-5 0-6 2-6l2-4 2-2c1 0 4-5 3-6l1-5c2-4 3-8 1-7l-1 3c0 3-5 10-6 9l-3 2c-1 3-3 4-4 4h-1l-1 1c-1-1 0-3 2-5 3-4 3-4 0-1l-10 11c-8 10-11 13-16 13-3 0-8 2-8 4l1 1 1 5c1 4 2 5 3 2m-261-3c-1-3-4-6-6-7l-3-3 2 3 9 11-2-4m306-2s-3 3-3 5l2-2 1-3m-218 4-1-1h-1l1 1h1m128-3h-1l-1 3 1-1 1-2m8 0 1-4-2 4c-2 4-2 4 1 0m114 1h-1l-1 1 1 1 1-2m-24-4c4-7 4-9 1-4-4 5-6 9-5 9l4-5m-232-6c0-4 0-5-1-4-1 3-3 12-2 13 1 2 2-2 3-9m96 5-1-3v3l1 3v-3m12 1c-1-1-1 0-1 1s0 2 1 1v-2m19 2v-1l-1 1v1l1-1m33-5h-3v1l-1 3c-1 2 0 2 1 0l3-4m85 2h-1l-1 3c0 2 2-2 2-3m-429-1-3-2 2 3 2 3-1-4m174 2v-2l-1 2v2l1-2m17 1-1-2-1 2 1 1 1-1m37-1h-1l1 2v-2m181-4-4 5 2-2c2-1 3-3 2-3m-403 2-1-2-1 1 1 2c1 3 2 2 1-1m86 0-1-1 3 4-2-3m62-1-4-7-2-5-1-2-2 1 11 17-2-4m83 1c0-3-2-4-2-2s2 5 3 5l-1-3m168-1v-3l-3 6c0 2 1 0 3-3m19-4-1-1c-1 0-4 7-3 8 0 1 4-4 4-7m-412 5-1-2h-2v2c1 2 3 3 3 0m8-1c0-4-2-6-2-3l3 6-1-3m265-2c0-4 0-4-1-3-1 2 0 8 1 8v-5m15 2c-1-1-1 0-1 1s0 2 1 1v-2m-299 0c-1-1-1-1 0 0l1 2-1-2m23-1c-1-1-1 0-1 1s0 2 1 1v-2m134 2-1-1v1l1 1v-1m34-5v-3l-1 2-1 4c0 2 0 2 1 1l1-4m106-6v-2l-3 12 3-10m99 10v-2l-1 2v1l1-1m29-1h-1l1 2v-2m12 1-1-1-1 1v1l2-1m-358-3h-1c0 2 1 3 2 3l-1-3m65 3-1-1h-1l1 1h1m-98-1-1-1h-1l1 1h1m340-3v-2c-2 1-2 5-1 5l1-3m-383 1-1-3c-2-1-2-1-2 1l1 2h2m184-8-2 3v5c1 2 2-6 2-8m41 6-6-13c-3-4-2-1 1 4l3 8 1 3 1-2m-179 0-1-2-1 2h2m154 1-1-1h-1l1 1h1m7-6c-1-1-1 0-1 2s0 3 1 2v-4m112 3-1-3c-1-1-1 0-1 3l1 3 1-3m47 1h-1v1h1v-1m-212-1-1-5c-2-3-2-3-1 6 0 2 2 1 2-1m186-1h-1l1 2v-2m-219-2c-2-8-4-11-3-5 1 7 1 8 3 7v-2m-80-2c-1-2-1-2-2-1l1 4c2 2 2 0 1-3m246 3v-4c-1-1-1-1-2 1l-1 3c0 2 2 1 3 0m-235-2h-1l1 2v-2m159-2-2-1c0 2 2 5 3 5l-1-4m159 2h-1l-1 1 1 1 1-2m-346-2-3-13c-2-2-3 0-1 3l2 8 1 5 1-3m144 0-2-1 1 3c2 2 2 1 1-2m-4 1-1-1h-1l1 2 1-1m103-1h-1c0 1 1 2 2 1l-1-1m147 0c1-1 1-1 0 0l-2 2 2-2m-397-2c-1-1-1 0-1 1s0 2 1 1v-2m208-1-9-11-1 2 1 2c1-1 5 4 8 8 0 2 1 3 2 3l-1-4m94 1v-7l-1 1-2 4c-1 1-2 2-1 3 1 3 3 2 4-1m-311 1-2-5-2-3v2l1 4c1 3 3 4 3 2m12-2c-1-1-1 0-1 1s0 2 1 1v-2m303 1c1 0 1-1 0 0l-1 1c0 2 1 1 1-1m-323-3c-1-1-1-1-1 1s1 4 2 2l-1-3m109 1-2-3c-1-1-1-1-1 1l1 4 1 1 1-3m87-1c-1-1-2 1-1 3h1v-3m4-3-1-14-1 11c0 9 1 12 2 3m15 6-2-3c-2-2-2-2-2 0s2 4 3 4l1-1m159-2-1-1-1 2 1 2 1-3m-210-1h-1l-1 2 1 1 1-3m39 1c2-6 2-15 1-15l-1 8-2 8 1 1 1-2m92 0-1-8c-1-9-2-11-3-8-2 4-4 4-3 0l-1-4-2 14 1 5c2 1 4-1 2-1-1-1 0-3 1-3l3 4 3 2v-1m-238-2c0-4-1-5-2-3-1 1 0 6 1 6l1-3m209 0h-1c0 2 1 3 2 3l-1-3m-112 0h-1l1 2v-2m127 1 1-2v-11l-1 4v10-1m-137-3-2-2 3 5-1-3m64-5v-5l-1 4-1 7c0 2 0 2 1 1l1-7m-190 4v1l1 2-1-3m175-7 2-10c3-6 1-5-2 1-3 4-4 11-3 18 0 3 2-2 3-9m175 6-2 1-2 2h2l2-3m9 2h-1v1c0 1 1 1 1-1m-154-3-3-3 3 4c2 3 2 2 0-1m-61-2h-1l1 2v-2m51-3-1-3c-2 0-2 1-2 4 0 5 2 4 3-1m-68 3-1-1v1l1 1v-1m268-2h-1v3l1-3m-325-2-1-1v4c1 1 2-1 1-3m299-1 2-3-2 2-3 4c0 2 0 2 3-3m-321 0c-1-3-3-5-4-5l1 4c2 5 5 5 3 1m83 2v-1h-1c0 2 1 2 1 1m35-4c-1-1-1 0-1 2s0 3 1 2v-4m35 2-1-4-1 1-1 4 1 2c2 0 2-1 2-3m95-3c-1-1-1 0-1 2 0 1 0 2 1 1v-3m83-3c0-2-2 1-4 4l-2 4 3-4 3-4m-21 1c-1-1-1-1-1 2 0 2 0 3 1 2v-4m-318 3-1-1h-1l1 2 1-1m27-1-1-1-1 1 1 1 1-1m303-4c3-4 3-7 1-4-2 2-5 9-4 9l3-5m-111 1h-1l1 2v-2m-24-2-1-3-1-2 1 5c1 2 1 3 2 2l-1-2m118 2v-1l-1 1v1l1-1m-185-5 2-8c0-2 0-2-2 1l-3 7c-2 3-2 5 0 5l3-5m20 2-1-3c-1-1-1-1-1 2l1 3 1-2m-37-1h-1l1 2v-2m121 1v-15c-1 0-4 7-4 11 0 5 1 6 4 4m-204-1h-2v1l2-1m196-1h-1l1 2v-2m98 1 2-3c3-3 2-3-1-1-3 3-4 5-2 5l1-1m-63-1v-3h-1l-1 2 1 2 1-1m-45-1 1-4 1-11-1 5-2 6c-1 2-1 5 1 5v-1m22-1h-1v1c0 1 1 1 1-1m-66-1c0-3-2-2-3 0l1 2 2-2m18 2-1-1h-1l1 1h1m-166-1-1-1h-1l1 1h1m105-7c0-3 0-3-1-2l-2 5c0 3 0 3 1 2l2-5m64 4-2-2c-2 0-3 1-2 2h4m36-2c1-4-2-4-3-1v3l3-2m-199 0-4-4-2-2v3l1 2 3 1 3 2-1-2m-28 0-1-1-3-1c-2 0-2 0-1 1 3 2 5 3 5 1m13-1c-3-2-5-3-6-1 0 2 2 3 5 3 2 0 2 0 1-2m165-1-2-3 3 5-1-2m-171-4c0-2-1-4-7-8l-4-2v2l-1 5c-2 4-2 4 2 5l6 2c2 1 4-1 4-4m13 4-1-1-1 1 1 1 1-1m258-1h-1l-1 1 1 1 1-2m50-4h-2l-1 4c0 2 3-3 3-4m-212 1c0-2 0-2-1 0v3l1-3m205-6c0-7-2-3-2 4v3l2-7m-237 2 2-2-4 2c-2 2-4 4-3 5 0 1 1 1 1-1l4-4m174 1-1-3-1 4 1 3 1-4m-147 2-1-1-1 1 1 1 1-1m-90-1-1-1-1 1 1 1 1-1m4 0-2-1v1l1 1 1-1m-42-3h-1l-1 1 1 1 1-2m49-4-3-6v5l5 7-2-6m-65 4-1-1-2 1 1 1 2-1m43-1c-3-2-6-2-3 0l4 2c1 0 1-1-1-2m9 2-1-1h-1l1 1h1m22 0-1-1h-1l1 1h1m-68-6c-1-1-4 2-3 3h2l1-3m19 0h-1l-2 2h2l1-2m193 1h-1c0 1 1 2 2 1l-1-1m-173 0-1-1-1 1 1 1 1-1m11 0-1-1-1 1v1l2-1m13-4-2-1c0 3 2 7 3 5l-1-4m223 2h-1l1 2v-2m-297-2-1-1-2 1 2 1 1-1m235-1h-1l1 2v-2m68-1c-1-1-1 0-1 1s0 2 1 1v-2m-97 1c0-2-1-2-4 0l-2 1h3l3-1m4-7 1-1 3 4 2 6-1-8c0-7 0-8 2-13l1-5v-2c0-2 0-3-2 0-2 1-3 6-1 6v2l-3 2-1 2c-1 2-3 3-5 1-2-3-3-2-2 2l1 5c0 2 2 1 2-2 1-1 1 0 1 3l1 5c1 1 2-5 1-7m105 7-1-1-1 1 1 1 1-1m-320-1-1-3h-2l1 1 1 2v1l1-1m229-1v-3c1-2 1-3-1-4l-1-5c0-5-2-2-2 5-1 4-1 5 1 7 1 2 4 2 3 0m-30-1c-1-2-3-2-2 0l3 2-1-2m33 0-1-2v2l1 2v-2m-223 0-1-1-1 1v1l2-1m15 0-2-1c0-1-1-1 0 0l2 1m214-1-1-1-1 1v1l2-1m-225-1-1-2v2l2 1-1-1m46-7-4-8v-3l2-4-7 7c-2 3-1 4 1 3s2-1 5 1c1 2 2 4 1 6 0 3 1 5 3 5s2 0-1-7m182 6v-1l-1 1v1l1-1m3-1v-1h-1c0 2 1 2 1 1m-216-2c-1-2-7-5-8-5l3 4c5 3 6 3 5 1m8-1c1-1 1-1 0 0-2 1-2 2-1 2l1-2m16-3c-1-2-1-2-1 0l1 2v-2m19-2-2-4-1-2 2 8c1 2 3 3 3 2l-2-4m167-2c-1-1-1 0-1 2 0 1 0 2 1 1v-3m-175 0h-1c0 2 1 3 2 3l-1-3m33-2-2-1 2 4 2 1-2-4m-59-2v5c0 1 1 1 1-1l-1-4m38 5-1-2c-1-2-2-1-2 1 1 2 3 3 3 1m31-5-4-7c-2 0-1 2 1 3l1 2 3 8-1-6m16 1c-2-1-2 1-1 3v3l1-3v-3m-117-1c-2-3-2-3-2-1s2 7 3 6l-1-5m96 3-1-2-1-5c0-3-1-4-3-6l-4-3c-2 0-1 2 2 4l2 5 4 8 1-1m130-1c0-2 0-2-1-1v3l1-2m-203-2-1-2c-2 0-2 1-1 2h2m51-2-1-1-2 1 2 1 1-1m-47-1-1-1-2 1 2 1 1-1m4 0-2-1v1l1 1 1-1m-9-1-1-1h-1l1 1h1m11-3-1-1-2-1h-1l-2 2c0 2 5 3 6 0m56 0-2-1-1 1 2 1 1-1m21-1-2-1-1 1 2 1 1-1m-88-5-2-6c-1-3-1-3-2-2 0 2 5 14 6 13l-2-5m84 2c-1-2-4-3-4 0l1 2c1 1 3 0 3-2m-64-3v-3l-1 3v2l1-2m37 1-2-3h-1l1 2c1 2 2 3 2 1m4-2c0-2-1-3-2-3l2 4c2 2 2 1 0-1m-59-1h-1l1 1h1l-1-1M92 912l-2-6 2 3c2 5 2 8 0 3m-40-5h1v2l-1-2m3-1-1-5v-4l3 12-2-3m7-2c0-1 0-2 1-1v2c-1 1-1 0-1-1m-26-1 1-2c1-1 1-1 1 1l-1 2-1-1m22-1c0-1 0-2 1-1v2c-1 1-1 0-1-1m20-1h1v2l-1-2m-37-2-1-7v-7l1 7v8-1m5-1v-2l1 2v2l-1-2m31-1c0-1 0-2 1-1v2c-1 1-1 0-1-1m-42-5h1v2l-1-2m9-4 1-4 1 4-1 3-1-3m4-2-1-3v-8l1 4 1 4v5c-1 1-1 1-1-2m-6-5 1-2 1 2-1 2-1-2m1-4 1-5c1-2 1-2 1 0l-1 4-1 1m-5 0 4-14-1 3-3 11m-4-3 1-3 1-1-1 4h-1m12-8 1-5c2-1 2 0 0 4l-2 5 1-4m-1-15 6-9-6 10v-1m157-3 1-2 1 1-1 2-1-1m-163-9a708 708 0 0 0 6-17v-7l2 7c0 7 0 7-3 12l-5 6v-1m165-1c-2-1-1-7 3-12 3-6 6-8 7-6l1 2c2 1 1 3-4 7-4 3-6 6-6 8l-1 1m8-14-2 1-2 2h2l2-3M37 838l2-6c2-4 2-6 1-10l-1-5 2 3 1 4v4c0 3-5 11-5 10m7-33 3-3c7-7 8-9 8-12v-3l2 3 1 3-4 5c-5 4-10 9-10 7m167-1v-3l1-2 1 2c0 2-1 5-2 3m14-4 2-4 2-3-4 3c-2 2-2 2-2 0s5-10 8-12l4-7c3-6 6-9 11-9 4-1 4-1 4 1l-1 2h-1l-3 4-4 5-1 2-3 3-5 7-7 9v-1m-179-1 1-2 1-2 2-2 1-3c0-3 0-3 1-1s0 5-4 9l-2 1m235-6c-2-1-1-8 0-9l3-5c0-4 1-5 3-2h2l-1-2c-2-1-2-5 0-7 1-2 1-2 1 0s0 2 2 2 3 0 4 3c2 4 2 4 1 7l-5 6-4 4c0 3-5 5-6 3m3-3h-1v1c0 1 1 1 1-1m1-4h-1v1c0 1 1 1 1-1m-73 5c0-3 10-14 12-14s2 1 1 3c-2 2 0 2 3 0 4-4 2 0-4 6l-5 5c1-3-2-3-5-1l-2 1m-139-5c0-6 1-8 2-8v4a962 962 0 0 0-2 4m320 0c1-1-1-6-2-6l-1 2c0 2-2 5-3 5v-2c0-2 0-2-2-1-2 2-2 2-2-2 0-3 0-3-2-2-1 1-1 1-1-2 1-4 1-4 5-4 2 0 3 0 3 3l1 3v-3l3-3c2 0 1-2-1-3l-5-5c-2-5-2-5 0-7h5l4-1-1-2c-3 0-7-2-7-4l2-1 3-1c2-4 14-1 15 4l1 3 1-3v-3l1 2 1 3v-3l1-4 1 3 3 11v-11l1-1 1 3 1 4 1-1v-4l1-1c1 1 14 3 16 2l2-1c1 2-2 4-7 5s-16 11-15 13l3-2c2-2 4-3 4-1l1 2-1 2-5 2h4l-3 2-3 2c0 1-8 6-15 8s-9 3-9 0m3-5c0-3 0-3-1-2l-1 3c1 3 2 2 2-1m3-3h-1l1 2v-2m1-6h-1l-1 2c0 2 0 2 1 1l1-3m16-4-1-1-2 2 1 1 2-2m-27-3h-1c0 1 1 2 2 1l-1-1m20-2c-1-1-1 0-1 2 0 1 0 2 1 1v-3m2-2h-1l1 2v-2m-6-6-1-2v3c1 3 2 2 1-1m-7-5h-2v1l2-1M53 784v-3l2-5 1-3-1 3c-1 10-2 11-2 8m204 1-1-3h1l1 3h-1m3-1c-1-2-1-2 1-1v3l-1-2m-211-2c0-2 0-3 1-2v4c-1 1-1 0-1-2m8 0c0-2 0-2 1-1v4l-1-3m205-1-1-4 2 1 2-1h4l2-1c2 0 1 3 0 3l-2 1h-2c-1-2-2-1-2 2l-1 4-2-5m90-1 4-11 4-2 4-3v-1c-1-1-2-1-4 1-4 4-5 0-2-9 2-6 6-11 5-6-1 2-1 2 2 1h4c1 3 8 4 13 3l3 1-10 4c-2 0-2 1-2 4s-1 5-3 7-4 5-5 9-1 4-1 1c0-6-1-6-3-1s-5 6-4 1c1-1 0-2-1-2l-2 1-1 5-1-3m9-8c2-4 3-6 1-6l-4 10 3-4m0-12-2 1c-2 2-1 4 1 2l1-3m15 20c-1-3 0-4 2-1v3l-2-2m-102-3 4-8 3-8c0-2 2-3 2-1 1 1 1 0 1-1-1-12 1-20 2-14h1l1-2 1 4v3l1-2 1-5c0-2 1-2 4-2h9c1-2 2-1 2 1l2 5h9l7-1c0 1 2 0 3-3 2-3 2-3 6-3l5 1c0 1-6 7-10 9-3 3-4 3-3 5 2 3 1 4-4 4-4 0-6 0-9 4-5 4-9 4-7 1l-1-3v-3l2-3 2-1c1 0 2-5 0-6l-6 2-5 2c-3 0-9 5-10 9l-2 5-1 4c1 1 0 2-2 3-2 0-4 1-5 3s-3 3-3 1m42-24c-2-1-2-1-1 1l2 2-1-3m-19-5h-1l-1 1 1 1 1-2m4-2h-1l1 2v-2m48 31 2-3-1 2c0 2-1 2-1 1m77-1 1-1 1 1-2 1v-1m-375-7c0-2 0-3 1-2v3c-1 1-1 0-1-1m5 1 1-4c1-2 1-2 1 0l-1 4h-1m386 0c0-1 3-3 4-2l-2 2h-2m-143-2c-1-3 1-5 3-2l1 2c0 2-3 1-4 0m27-2h1l1 1h-1l-1-1m-286-3 1-3v5c-1 1-1 1-1-2m194 2c-1-2 0-5 1-5v4l-1 1m-182-3 1-5c1-1 1-1 1 1l-1 5-1 3v-4m207 1v-3c0-1 4-1 5 1l-3 2c-2 2-2 2-2 0m-198-1 1-2v2h-1m-3-3 1-3v3h-1m221-2c-1 0 0-10 2-12 1-1 1 0 1 3 1 5 0 10-1 10l-2-1m19 0v-2l4 1v2l-4-1m54-3 3-7-2 7h-1m4-2 1-3h2l-1 3h-2m-293-4 1-1 1 1-1 1-1-1m245-5c1-3 3-2 3 0 1 2 0 2-2 2-1 0-2-1-1-2m-253 0 15-25-8 14a103 103 0 0 0-7 11m263-1c-2-1-1-4 0-4 1 1 2 0 3-1h3l1 3-2-1h-2l-3 3m47-3 1-3c1-1 1-1 1 1l-1 4-1-2m39-3 3-5c1-2 1-3 4-3s5 2 3 5c-1 2-8 6-11 6-1 0-1-1 1-3m-75 1h1l1 1h-1l-1-1m93 0c-3-2-4-3-1-3l5-1h4c2 1 2 1-1 3l-3 2-4-1m-82-2 1-2h3l-1 2h-3m-285-4 2-2-1 2-2 2 1-2m262 1 1-1 1 1-1 1-1-1m2-3h1c1 0 1 1-1 1v-1m-261-3 2-3c2-2 2-2 1 1l-3 4v-2m357-3 2-1 1 1-2 1-1-1m-189-2c1-3 6-7 7-6l-8 8 1-2m101-1c0-1 5-3 6-2l1 1-7 1m-264-1 1-2-1 2c-1 1-1 1 0 0m7-3 1-1c1-1 1 0 0 0 0 2-1 3-1 1m472-10v-1h1v1h-1m-441-2c0-1 0-2 1-1v2c-1 1-1 0-1-1m193 2 1-4c1-3 0-4-2-2h-1c0-1 2-3 10-5l9-4c5-4 5-1 0 3l-3 3c4-1 4 1 0 5-3 3-5 3-9 4h-5m12-10h-2l-5 3c-2 2-2 2 2 0l5-3m76 5c-1-3-1-3 1-3v6l-1-3m-276-2v-4l1 6v2l-1-4m5 1-1-2c1-1 2 1 2 2h-1m-11-2h1v2l-1-2m18-1c0-1 0-2 1-1v2c-1 1-1 0-1-1m225 0 1-2c2 0 1 2-1 3v-1m-254-3c0-1 0-2 1-1v2c-1 1-1 0-1-1m21 0-1-2 2 1v3l-1-2m134 0 2-1 1 1-2 1-1-1m-145-4c-1-5-1-7 1-6v11l-1-5m5-2c0-3 0-3 1-2v4c-1 1-1 0-1-2m-11-1c0-2 0-3 1-2v4c-1 1-1 0-1-2m24-1c0-2 0-3 1-2v4c-1 1-1 0-1-2m-4 2-1-4h1l1 3-1 1m209 0 2-1 1 1-2 1c-1 0-2 0-1-1m76-1 3-3c1 0 1 1-1 2 0 2-2 3-2 3v-2m-276-2-1-4c2-1 2 1 2 4l-1 3v-3m225-1v-2l-1-1 1-1 1-2-2 1-3 2 1-3c-1-1 2-7 3-7l1 3c0 2 0 2 1 0 1-5 2-4 2 2s-1 7-3 8h-1m-239-1v-1l1 1v1l-1-1m18-2h1v2l-1-2m120-2c0-3 1-4 3-6l3-6c2-4 5-19 5-26l2-13v2c0 2 0 2 1 1l2-3 1-1v7c0 7 0 7 1 6s2-3 2-9c0-9 1-11 1-2 0 6 0 7 2 6l1-5 1-6v7c0 10 0 10 3 15 2 4 3 5 2 7l-1 2v-2l-2-6-1-3-1 4c-1 6-2 1-2-6 1-5 1-6-1-5l-1 11c-1 12-2 13-2 2 0-9-1-9-2-1l-2 6v-22c-1 0-3 7-3 12 0 10-3 22-7 27l-3 6-1 5-1-4m94 0v-1l-1-1c-1-1 0-2 3-4 2-1 3 0 0 2v3l1 1h-3m65-1v-2c1-2 5-1 5 1s-3 2-5 1m-154-1c0-2 3-6 3-5l-1 4-2 1m98-10 4-5c3-3 5-4 5-2l-1 1-5 4-3 2m-65-1s1-2 3-2l2-4 1-2 1 1v3l-2 2-3 2-1 1-1-1m-49-3 1-3c1-1 1 0 1 2l-1 4-1-3m132 0c-3-1-1-2 3-1l2 1h-5m-232-5 3-7c8-12 9-15 7-22v-3l1 5 2 4-1 6-7 10-6 10 1-3m301 1c0-2 4-6 4-5 1 1 0 2-1 4-2 2-3 2-3 1m-306 0c0-2 13-24 14-23l-9 16-5 7m303-2c-1-1 1-4 3-4h2l-5 4m-127-2 1-1 1 1-1 1-1-1m35 0c0-1 4-5 9-8l3-3 3-5c2-2 3-3 5-3 4 0 6 1 6 5 1 2 1 3-3 4l-7 1-2 1-4 3-8 4-2 1m21-14 1-2-3 2c-3 3-1 3 2 0m-232 10 5-9 3-4-9 16c-2 1-1 0 1-3m240-4c1-2 6-3 6-1l-1 1-3 1-2-1m-84-3-3-6-3-6 3 4 3 5c2 2 2 3 0 3 0 1-1 1 0 0m-167-1c0-2 4-8 5-8l-2 4-3 4m6-1 1-1c1-1 1 0 0 0 0 2-1 3-1 1m317-1 1-1 1 1-2 1v-1m-101-5c0-2-2-3-7-6-4-2-6-4-6-5l-1-3-2-3 2 1 4 3c2 1 2 1 2-1l-3-4-4-3 5 2 4 4c-1 2 0 4 6 7 4 2 4 3 5 6l-1 3-1-4c-1-4-2-4-2 1 0 4-1 7-1 2m-1-6c-1-2-11-7-11-6s2 3 6 5c4 3 7 3 5 1m8 4-1-3c0-2-1-3-4-5-8-4-8-6-1-2 7 3 7 4 7 7 0 4-1 5-1 3m-51-6-3-5 3 5c4 6 3 7 0 0m-148 1c0-2 0-3 1-2v3c-1 1-1 0-1-1m15 0h1v2l-1-2m187 1 1-1h1l-1 2-1-1m-176-2v-2l1 2v2l-1-2m-12-4v-3l1 3v2l-1-2m161 0-3-3v-5l2 5 2 3c3 2 1 3-1 0m-177-2 2-2-1 2-2 2 1-2m200-4-11-7 20 11c5 4 0 2-9-4m-173 3 20-9c4-1 2 1-7 4a216 216 0 0 0-13 5m44 1 7-10-5 8-2 2m-15-4 2-1-2 1c-1 1-1 1 0 0m74-1 1-5c1-1 1-1 1 1l-1 5c-1 1-1 1-1-1m10 1v-2l1 2v1l-1-1m62-4-10-7 8 4 10 8-8-5m-143 3 2-1h1l-1 1h-2m63-4c0-2 0-3 1-2v4c-1 1-1 0-1-2m-95 1 3-2c2 0 1 0-2 2h-1m108-1h1v2l-1-2m68-3-8-6 16 11-8-5m-169 4 9-5v1l-9 4m135-3c0-3 0-3 1-2v4c-1 1-1 0-1-2m-42 0 1-1v1l-1 1v-1m47-1 1-4v3c-1 4-1 4-1 1m-10-2 1-3v3l-1 3v-3m-171-2 4-4-3 5-4 4 3-5m7 1 3-3-4 5 1-2m181-1h1v2l-1-2m23-1-1-2 3 2c2 3 1 3-2 0m-45-1h1v2l-1-2m11 0h1v2l-1-2m-185 0 7-10-5 8-2 2m7-3 3-3-4 5 1-2m217-7 2-3c1 1 0 4-1 4l-1-1M73 501v-8l4-4c2-1 3-1 4 1 2 2 2 3 1 3l-2 4-2 3-3 1h-2m4-6c0-2 0-3-1-2l-1 4v3l2-5m9-5v-2l2 2v1l-2-1m29-14-1-3-3-7c-4-3-4-6-1-4h1c0-3 2-3 4-1s2 4 2 13c0 3-1 4-2 2m19-15c-1-4 0-6 3-9 4-3 4-3 6-1v5c0 2 0 2-2 1l-2-2-1-1 1 5c3 4 2 5-1 1-2-3-2-2-1 2 1 1 0 2-1 2s-2-1-2-3m-16-3v-1l2 1-1 1-1-1m8-1 2-2v-3c1 0 3-1 3-3 2-2 2-2 3-1l2 1c1-1 1-1 1 1l-3 1c-2 0-2 0-2 3 0 4 0 4-3 4l-3-1m370-56c-2-1 0-3 3-3 1 0 2 0 1 1l-1 2h-3m-99-13 1-4c1-3 0-3-3 0s-3 1 0-4 5-6 6-1c0 7-2 13-4 9m54-3 1-1 2 1-1 1-2-1m0-8c0-5 2-8 2-3a282 282 0 0 0-1 7l-1-4m5 3v-10c1-4 3-4 2 0l-1 7c1 4 1 4-1 3m-11-16c-1-1 0-4 3-5s3-1 3 2-1 4-5 4l-1-1m-75-4v-7l1 1v4l-1 2m74-2c0-2 5-4 7-3s1 3-2 2l-2 1h-3m102-20v-7l1 4c0 4 0 5-1 3m-503-5c-6-4-5-6 1-2l5 4c0 2-1 1-6-2m474 1 2-2h1l-1 2h-2m11-1-1-1-1-4c-2-5-3-6-1-5 2 0 5 6 5 8s-2 3-2 2m3-5c-2-4-2-5-1-5s4 8 3 9l-2-4m-430-30-2-3 1-2h2l1-1v5l-1 2-1-1m-6-1-2-4c1-1 5 4 5 5l-3-1m12-1c-1-1 5-5 5-4l-4 5-1-1m460-7 3-1v2l-3 1v-2m-466-2h-3l-1-2c1-2 0-2-2-3s-4-4-4-6l5-1c4-1 5 0 5 1l1 1c2-2 2 1 0 4-4 3-4 3-1 3 1-1 2-1 2 1h3l-1 2h-4m-21-9h3c1 1 0 1-1 1-2 0-3 0-2-1m76-6c-2-1-3-4-1-4l3 2c3 4 2 5-2 2m-68-4-1-2c3 0 5 1 5 2h-4m-2-5c-1-1-1-1 1-1s2-1 2-3c0-3 0-3 1-2 3 3-1 8-4 6m76-10 4-5c3-4 7-5 7-3s-4 6-6 6l-2 2h-3m275-1 3-6c3-7 6-8 3-2-2 6-4 9-5 9l-1-1m-263-10-1-2-1-2c0-2 3 1 3 4v2l-1-2m242 0c0-2 0-3-1-2v-2l1-9c0-7 1-7 2-5 2 3 1 17-1 19-1 1-1 1-1-1m37-5v-6c0-6 2-10 4-8l2-1c2-3 2 0 2 6 0 4 0 4-3 4s-3 0-3 2c0 3-1 4-2 3m-40-2v-7c1-3 2-2 2 1 0 4-1 7-2 6m-4-6v-3l2 4c0 3-2 2-2-1m124-1 1-1 2 1-1 1-2-1m-20-2 3-4 2-6c0-3 1-4 2-1 1 2-4 10-6 11h-1m-57-19 1-6c0-1 2 2 1 4l-2 7v-5m-326 0 3-2-4 1-3-1c1 0 0-2-2-3l-2-3h6-1l-2 2 8 2h2l-6 6 1-2m334-2-1-2c1-1 2 1 2 2h-1m-13-7 2-5 4-5c0-3 1-3 3-1 1 1 1 1 2-1 2-4 3-4 3 0 0 2 0 2 1 1l1-5c0-4 2-7 4-7 1 0 2 1 2 3s2 3 3 0l1-2v2c-1 3-2 9-1 10 2 2 1 6-1 8-3 3-3 3-2-1 0-2 0-2-1-1h-3l-2 1c-2 2-3 1-2-1v-5l-2 4c0 4-2 5-3 2 0-2-2-3-2-1h-2c-1-1-1-1-2 2-2 3-3 4-3 2m20-15c0-2 0-4-1-3l-1 5 1 4 1-6m-260 3v-3c1 0 3 2 3 4s-2 1-3-1m-99 0h3c1 1 1 1-1 1l-2-1m341-9 2-3c1 1-1 6-2 6v-3m4 0c0-2 0-2 2 0h1l1-1c1 1-2 4-3 4s-2-1-1-3m-177 1 1-1 1 1-1 1-1-1m-26-14 2-1 1-3 1-2v5c-1 2-4 3-4 1m-3-4 2-2 2-3 1-2v2l-2 4c-1 2-3 3-3 1m-68-7 3-8 1 5-1 4-3-1m-44-7-1-4h1l2 4 1 3-3-3m91-15v-8 1l1 4c2 4 1 6-1 3m-40 562 2-3c1-1 2-2 2-6l1-5v6l-1 6-3 2h-1m-2-11h1v2l-1-2m-26 21 1-1c1-1 1 0 0 0 0 2-1 3-1 1m39-22h1v2l-1-2m7-3 2-2h1l-1 2h-2m276 12 3-6 1 1-4 5m-177-43c0-2 2-3 2-1 1 1 0 2-1 2-1 1-1 0-1-1m187-32 5-3-2 2-3 1m16-10 3-3c1 1 2 0 3-1 3-5 4-3 2 1s-4 4-7 4l-1 1-1 1 1-3m3-8c-1-2 0-7 3-8 3-2 4-1 1 2-1 2-2 4-1 5 0 2-1 3-3 1m6-2-1-1c-2 1-2 0 0-2 2-3 5-4 4-2v1c1 0 0 2-2 3l-1 1m2-2-1-1-1 1v1l2-1m-90-17v-2c1-1 4 2 3 3 0 1-2 1-3-1m-19-4 1-1h1l-1 2-1-1m-14-75c0-2 2-3 2-3l-1 3-3 2 2-2m-117-84c1-2 4-3 4-1l-2 1h-2m27-79 3-5 3-5 1-1c2 0 1 8-1 12l-3 1c-3 0-3 0-3-2m9-4c0-4 2-6 2-2v3l-1 2-1-3m-83-7c3-4 5-4 5-3 0 2-4 6-7 6l2-3m115-40c-2-2-3-5-2-5l6 6c0 2-2 1-4-1m3-7-2-3c1-1 5 3 5 5s-1 1-3-2m-2-13 1-2-2-4c-3-3-4-6-3-6l3 4c2 3 2 3 3 2 0-2 1-1 3 1 3 3 4 4 3 5h-8m2-12-2-4 2 1c1 1 1 0 1-2l1-3c1 0 3 3 3 6h-1c-2-1-2-1-1 2 1 4 0 5-3 0m-2-15c-5-4-6-6-4-9h2l1 4 1 4c2 0 1-7-1-12v-5c1-1 1-1 2 1l3 6c3 4 3 6 1 4h-2c-2 1-1 7 1 9 3 5 1 3-4-2m8 1v-2l1 2 1 1-2-1m-127 30-2-4-1-4c-1-2-1-3 1-5l3-2v2l2 3c2 0 10 8 10 10s-3 2-5-1l-3-4c0-2-2-2-4-1-2 2-1 5 1 6l2 1c0 2-3 1-4-1Z"/></svg>