<svg xmlns="http://www.w3.org/2000/svg" viewBox="0 0 1061.9 1024"><path d="M397 292v3-3z" /><path d="M396 299v5-5z" /><path d="M397 300v2-2z" /><path d="M397 302v3-3z" /><path d="M391 308v2-2z" /><path d="M561 309v2-2z" /><path d="M565 309v2-2z" /><path d="M553 311v3-3z" /><path d="M564 311v2-2z" /><path d="M390 314v3-3z" /><path d="M553 314v2-2z" /><path d="M559 314v2-2z" /><path d="M398 315v4-4z" /><path d="M563 315v2-2z" /><path d="M391 316v2-2z" /><path d="M553 317v3-4z" /><path d="M558 317v2-2z" /><path d="M551 318v3-3z" /><path d="M562 319v2-2z" /><path d="M572 319v2-2z" /><path d="M397 319v2-2z" /><path d="M555 320v5-5z" /><path d="M575 320v2-2z" /><path d="M572 321v2-2z" /><path d="M551 321v6-6z" /><path d="M557 321v2-2z" /><path d="M561 322v2-2z" /><path d="M392 323v2-2z" /><path d="M401 324v3-3z" /><path d="M561 324v2-2z" /><path d="M559 327v3-3z" /><path d="M569 327v2-2z" /><path d="M573 329v2-2z" /><path d="M569 329v3-3z" /><path d="M418 331v2-2z" /><path d="M546 332v3-3z" /><path d="M568 333v2-2z" /><path d="M568 335v2-2z" /><path d="M567 339v2-2z" /><path d="M443 343v2-2z" /><path d="M429 344v3-3zM547 345v2-2z" /><path d="M556 345v2-2z" /><path d="M423 346v2-2z" /><path d="M414 347v2-2z" /><path d="M547 347v2-2z" /><path d="M430 347v3-3z" /><path d="M447 349v2-2z" /><path d="M561 349v4-4z" /><path d="M424 350v3-3z" /><path d="M555 350v2-2z" /><path d="M425 352v2-2z" /><path d="M553 353v2-2z" /><path d="M410 353v6-6z" /><path d="M449 354v5-5z" /><path d="M553 355v3-3z" /><path d="M426 357v2-2z" /><path d="M545 357v2-2z" /><path d="M552 358v2-2z" /><path d="M410 359v3-3z" /><path d="M424 359v2-2z" /><path d="M552 360v4-4z" /><path d="M544 361v2-2z" /><path d="M559 361v2-2z" /><path d="M423 361v4-4z" /><path d="M429 362v3-3z" /><path d="M414 365v3-3z" /><path d="M479 371v2-2z" /><path d="M453 372v6-6z" /><path d="M493 372v2-2z" /><path d="M478 373v3-3z" /><path d="M479 373v2-2z" /><path d="M443 375v2-2z" /><path d="M540 376v4-4z" /><path d="M360 376v2-2z" /><path d="M419 378v6-6z" /><path d="M453 378v2-2z" /><path d="M426 382v12-12z" /><path d="M356 384v2-2z" /><path d="M419 384v4-4z" /><path d="M516 386v2-2z" /><path d="M420 388v3-3z" /><path d="M510 390v2-2z" /><path d="M437 391v5-5z" /><path d="M435 392v2-2z" /><path d="M535 394h5-5z" /><path d="M547 393v2-2z" /><path d="M421 396v2-2z" /><path d="M438 396v2-2z" /><path d="M435 398v2-2z" /><path d="M306 398v2-2z" /><path d="M421 398v3-3z" /><path d="M454 399v2-2z" /><path d="M423 401v8-8z" /><path d="M429 401v3-3z" /><path d="M453 402v2-2z" /><path d="M441 403v2-2z" /><path d="M317 404v2-2z" /><path d="M442 406v2-2z" /><path d="M430 407v3-3z" /><path d="M535 407v2-2z" /><path d="M272 409h4-4z" /><path d="M542 408v2-2z" /><path d="M352 410h4-4z" /><path d="M423 409v3-3z" /><path d="M430 410v2-2z" /><path d="M494 410v10-10z" /><path d="M311 410v2-2z" /><path d="M328 412v2-2z" /><path d="M541 412v2-2z" /><path d="M312 412v2-2z" /><path d="M430 412v7-7z" /><path d="M424 413v3-3z" /><path d="M493 413v12-12z" /><path d="M540 414v3-3z" /><path d="M329 414v3-3z" /><path d="M314 416v2-2z" /><path d="M424 417v7-8z" /><path d="M329 417v4-4z" /><path d="M322 418v7-7z" /><path d="M539 418v2-2z" /><path d="M386 419v2-2z" /><path d="M448 419v2-2z" /><path d="M315 419v2-2z" /><path d="M487 419v2-2z" /><path d="M494 420v7-7z" /><path d="M391 421v2-2z" /><path d="M329 421v5-5z" /><path d="M501 421v3-3z" /><path d="M316 422v2-2z" /><path d="M323 424v6-6z" /><path d="M390 424v2-2z" /><path d="M635 426h3-3z" /><path d="M329 426v8-8z" /><path d="M389 426v3-3z" /><path d="M452 427v2-2z" /><path d="M499 427v2-2z" /><path d="M318 429v2-2z" /><path d="M558 430h9-9z" /><path d="M453 430v3-3z" /><path d="M498 430v3-3z" /><path d="M356 431h17-17z" /><path d="M517 431v2-2z" /><path d="M390 431v2-2z" /><path d="M443 433v2-2z" /><path d="M442 435v2-2z" /><path d="M552 436v2-2z" /><path d="M442 437v3-3z" /><path d="M390 437v2-2z" /><path d="M460 437v8-8z" /><path d="M387 439v6-6z" /><path d="M391 441v2-2z" /><path d="M441 441v3-3z" /><path d="M380 441v2-2z" /><path d="M622 441v4-4z" /><path d="M379 443v2-2z" /><path d="M418 443v3-3z" /><path d="M483 443v6-6z" /><path d="M263 445v2-2z" /><path d="M402 445v2-2z" /><path d="M535 445v2-2z" /><path d="M622 445v2-2z" /><path d="M460 445v9-9z" /><path d="M433 446v5-5z" /><path d="M624 447v2-2z" /><path d="M484 448v2-2z" /><path d="M502 448v2-2z" /><path d="M534 448v3-3z" /><path d="M386 449v2-2zM426 451v2-2z" /><path d="M433 451v3-3z" /><path d="M476 451v2-2z" /><path d="M449 451v8-8z" /><path d="M522 454v3-3z" /><path d="M361 455v2-2z" /><path d="M501 456v2-2z" /><path d="M361 457v2-2z" /><path d="M522 457v2-2z" /><path d="M360 459v3-3z" /><path d="M522 459v2-2z" /><path d="M532 459v3-3z" /><path d="M449 461v8-8z" /><path d="M360 462v3-3z" /><path d="M507 462v2-2z" /><path d="M532 462v3-3z" /><path d="M504 463v2-2z" /><path d="M521 463v7-7z" /><path d="M358 465v3-3z" /><path d="M489 466h7-7z" /><path d="M509 465v2-2z" /><path d="M456 466v4-5z" /><path d="M358 468v8-8z" /><path d="M519 470v2-2z" /><path d="M507 472v2-2z" /><path d="M511 472v2-2z" /><path d="M529 473v2-2z" /><path d="M512 474v2-2z" /><path d="M509 475v3-3z" /><path d="M358 476v6-6z" /><path d="M455 476v3-3z" /><path d="M512 476v4-4z" /><path d="M505 477v2-2z" /><path d="M443 479v2-2z" /><path d="M528 479v2-2z" /><path d="M513 480v3-3z" /><path d="M517 481v2-2z" /><path d="M528 481v3-3z" /><path d="M441 484v4-4z" /><path d="M444 484v2-2z" /><path d="M527 484v2-2z" /><path d="M470 486v2-2z" /><path d="M527 486v3-3z" /><path d="M433 487v3-3z" /><path d="M678 487v2-2z" /><path d="M429 488v4-4z" /><path d="M441 488v6-6z" /><path d="M446 488v5-5z" /><path d="M538 488v2-2zM361 489v2-2z" /><path d="M435 490v8-8z" /><path d="M679 490v2-2z" /><path d="M429 492v2-2z" /><path d="M526 492v2-2z" /><path d="M430 494v4-4z" /><path d="M527 494v2-2z" /><path d="M404 495v2-2z" /><path d="M509 496v4-4z" /><path d="M425 497v4-4z" /><path d="M430 498v3-3z" /><path d="M435 498v4-4z" /><path d="M425 501v4-4z" /><path d="M431 501v5-5z" /><path d="M401 502v2-2z" /><path d="M435 502v5-5z" /><path d="M506 503v2-2z" /><path d="M524 504v4-4z" /><path d="M400 504v2-2z" /><path d="M506 505v2-2z" /><path d="M426 506v4-4z" /><path d="M431 506v2-2z" /><path d="M436 506v4-4z" /><path d="M523 508v2-2z" /><path d="M398 508v4-4z" /><path d="M505 509v2-2z" /><path d="M421 510v2-2z" /><path d="M436 510v5-5z" /><path d="M523 510v3-3z" /><path d="M432 510v4-4z" /><path d="M398 512v5-5z" /><path d="M522 513v4-4z" /><path d="M436 515v4-4z" /><path d="M522 517v5-5z" /><path d="M433 517v4-4z" /><path d="M501 517v7-7z" /><path d="M397 518v3-3z" /><path d="M437 519v8-8z" /><path d="M444 519v5-5z" /><path d="M427 520v2-2z" /><path d="M450 521v4-4z" /><path d="M522 522v7-7z" /><path d="M429 524v3-3z" /><path d="M435 524v2-2z" /><path d="M500 524v2-2z" /><path d="M436 525v5-5z" /><path d="M429 527v2-2z" /><path d="M437 527v3-3z" /><path d="M449 527v7-7z" /><path d="M522 529v4-4z" /><path d="M430 529v3-3z" /><path d="M430 532v5-5z" /><path d="M502 532v5-5z" /><path d="M448 535v5-5z" /><path d="M431 537v2-2z" /><path d="M546 539v3-3z" /><path d="M515 540v2-2z" /><path d="M550 540v2-2z" /><path d="M513 542v3-3z" /><path d="M546 542v2-2z" /><path d="M500 543v2-2z" /><path d="M512 545v2-2z" /><path d="M349 545v2-2z" /><path d="M433 546v2-2z" /><path d="M552 546v4-4z" /><path d="M499 548v2-2z" /><path d="M443 549v6-6z" /><path d="M435 549v12-12z" /><path d="M552 550v2-2z" /><path d="M510 551v3-3z" /><path d="M498 551v2-2zM346 553v2-2z" /><path d="M553 553v2-2z" /><path d="M498 553v2-2z" /><path d="M444 555v9-9z" /><path d="M553 555v6-6z" /><path d="M496 556v2-2z" /><path d="M345 557v2-2z" /><path d="M509 557v3-3z" /><path d="M541 557v7-7z" /><path d="M345 559v2-2z" /><path d="M495 559v2-2z" /><path d="M435 561v11-11z" /><path d="M553 561v5-5z" /><path d="M344 562v2-2z" /><path d="M507 563v2-2z" /><path d="M533 565v2-2z" /><path d="M327 566v2-2z" /><path d="M506 566v2-2z" /><path d="M552 566v2-2z" /><path d="M493 568v2-2z" /><path d="M524 569v2-2z" /><path d="M505 570v2-2z" /><path d="M436 572v8-8z" /><path d="M446 572v3-3z" /><path d="M323 574v4-4z" /><path d="M446 575v4-4z" /><path d="M517 577v3-3z" /><path d="M323 578v8-8z" /><path d="M527 580v2-2z" /><path d="M436 580v11-11z" /><path d="M450 580v3-3z" /><path d="M489 582v2-2z" /><path d="M448 583v5-5z" /><path d="M521 584v3-3z" /><path d="M447 584v5-5z" /><path d="M488 585v3-3z" /><path d="M499 586v2-2z" /><path d="M504 586v3-3z" /><path d="M499 588v2-2z" /><path d="M518 589v3-3z" /><path d="M328 590v3-3z" /><path d="M498 590v2-2z" /><path d="M486 591v2-2z" /><path d="M575 592h6-6z" /><path d="M580 593h4-4z" /><path d="M505 592v2-2z" /><path d="M435 593v2-2z" /><path d="M484 594v2-2z" /><path d="M506 596v3-3z" /><path d="M495 596v3-3z" /><path d="M446 597v3-3z" /><path d="M355 598v5-5z" /><path d="M350 599v3-3z" /><path d="M483 600v2-2z" /><path d="M494 600v2-2z" /><path d="M447 601v5-5z" /><path d="M334 602v2-2z" /><path d="M351 602v2-2z" /><path d="M431 602v2-2z" /><path d="M482 602v2-2z" /><path d="M334 604v4-4z" /><path d="M351 604v3-3z" /><path d="M493 604v2-2z" /><path d="M356 607v3-3z" /><path d="M433 607v5-5z" /><path d="M352 608v2-2z" /><path d="M444 610v2-2z" /><path d="M356 610v3-3z" /><path d="M443 614v2-2z" /><path d="M432 614v5-5z" /><path d="M347 615v3-3z" /><path d="M476 616v2-2z" /><path d="M442 617v9-9z" /><path d="M471 617v2-2z" /><path d="M677 617v4-4zM362 618v3-3z" /><path d="M432 619v5-5z" /><path d="M492 619v2-2z" /><path d="M472 621v4-4z" /><path d="M626 624h10-10z" /><path d="M364 624v2-2z" /><path d="M473 625v8-8z" /><path d="M442 626v3-3z" /><path d="M431 627v3-3z" /><path d="M441 629v3-3z" /><path d="M487 629v2-2z" /><path d="M430 630v6-6z" /><path d="M487 631v4-4z" /><path d="M441 632v4-4z" /><path d="M375 635v2-2z" /><path d="M430 636v2-2z" /><path d="M693 638v5-5z" /><path d="M460 639h18-18z" /><path d="M386 643v3-3z" /><path d="M486 643v4-4z" /><path d="M699 647v2-2z" /><path d="M406 649v4-4z" /><path d="M701 651v4-4z" /><path d="M409 651v4-4z" /><path d="M375 652v2-2z" /><path d="M385 652v3-3z" /><path d="M698 654v2-2z" /><path d="M714 654v3-3z" /><path d="M409 655v3-3z" /><path d="M475 655v4-4z" /><path d="M683 655v2-2z" /><path d="M701 655v2-2z" /><path d="M374 656v2-2z" /><path d="M373 658v2-2z" /><path d="M383 659v4-4z" /><path d="M384 659v2-2z" /><path d="M712 659v7-7z" /><path d="M461 660v3-3z" /><path d="M486 661v7-7z" /><path d="M723 661v2-2z" /><path d="M719 661v2-2z" /><path d="M372 662v2-2z" /><path d="M463 662v2-2z" /><path d="M706 663v2-2z" /><path d="M731 663v2-2z" /><path d="M297 665h7-7z" /><path d="M440 664v6-6z" /><path d="M705 664v3-3z" /><path d="M370 665v2-2z" /><path d="M389 665v4-4z" /><path d="M395 665v7-7z" /><path d="M369 669v3-3z" /><path d="M271 670v2-2z" /><path d="M410 671v6-6z" /><path d="M473 671v6-6z" /><path d="M395 672v5-5z" /><path d="M391 672v2-2z" /><path d="M350 674v2-2z" /><path d="M473 677v10-10z" /><path d="M412 678v7-7z" /><path d="M484 679v9-9z" /><path d="M400 680v2-2z" /><path d="M380 680v2-2z" /><path d="M386 680v2-2z" /><path d="M700 680v3-3z" /><path d="M696 681v2-2z" /><path d="M400 682v2-2z" /><path d="M431 682v2-2z" /><path d="M409 683v2-2z" /><path d="M400 684v2-2z" /><path d="M716 684v4-4z" /><path d="M341 684v3-3z" /><path d="M695 684v2-2z" /><path d="M366 686v2-2z" /><path d="M688 686v5-5z" /><path d="M400 686v3-3z" /><path d="M427 686v3-3z" /><path d="M472 688v12-12z" /><path d="M716 688v3-3z" /><path d="M401 690v2-2z" /><path d="M429 690v2-2z" /><path d="M696 690v2-2z" /><path d="M329 692v2-2z" /><path d="M526 692v4-4z" /><path d="M689 692v7-7z" /><path d="M717 692v6-6z" /><path d="M443 693v3-3z" /><path d="M328 694v11-11z" /><path d="M349 694v2-2z" /><path d="M430 694v2-2z" /><path d="M690 694v4-4z" /><path d="M442 696v8-8z" /><path d="M526 696v6-6z" /><path d="M430 696v8-8z" /><path d="M698 696v2-2z" /><path d="M338 697v3-3z" /><path d="M347 698v2-2z" /><path d="M716 698v4-4z" /><path d="M366 698v2-2z" /><path d="M398 699v3-3z" /><path d="M347 700v2-2zM484 700v7-7z" /><path d="M700 701v2-2z" /><path d="M349 702v4-4z" /><path d="M400 702v2-2z" /><path d="M277 702v6-6z" /><path d="M526 702v3-3z" /><path d="M534 703v2-2z" /><path d="M431 704v7-7z" /><path d="M442 704v7-7z" /><path d="M430 704v7-7z" /><path d="M678 704v3-3z" /><path d="M329 705v3-3z" /><path d="M472 705v3-3z" /><path d="M691 705v2-2z" /><path d="M349 706v9-9z" /><path d="M287 706v8-8z" /><path d="M408 706v2-2z" /><path d="M340 707v7-7z" /><path d="M665 707v7-7z" /><path d="M486 708v2-2z" /><path d="M286 708v6-6z" /><path d="M524 708v2-2z" /><path d="M403 709v2-2z" /><path d="M471 709v4-4z" /><path d="M330 710v2-2z" /><path d="M369 710v2-2z" /><path d="M486 710v4-4z" /><path d="M278 711v3-3z" /><path d="M536 711v4-4z" /><path d="M727 711v3-3z" /><path d="M330 712v2-2z" /><path d="M410 712v2-2z" /><path d="M734 712v8-8z" /><path d="M523 712v2-2zM332 713v3-3z" /><path d="M380 713v4-4z" /><path d="M471 713v2-2z" /><path d="M661 713v7-7z" /><path d="M406 714v2-2z" /><path d="M666 714v6-6z" /><path d="M682 714v2-2z" /><path d="M725 714v2-2z" /><path d="M742 714v2-2z" /><path d="M280 714v3-3z" /><path d="M332 716v2-2z" /><path d="M407 716v2-2z" /><path d="M538 716v3-3z" /><path d="M662 716v6-6z" /><path d="M725 716v7-7z" /><path d="M280 717v2-2z" /><path d="M413 717v2-2z" /><path d="M741 717v4-4z" /><path d="M469 718v2-2z" /><path d="M281 719v2-2z" /><path d="M333 719v2-2z" /><path d="M317 719v2-2z" /><path d="M760 719v4-4z" /><path d="M341 720v8-8z" /><path d="M414 720v2-2z" /><path d="M685 720v2-2z" /><path d="M347 721v3-3z" /><path d="M409 721v2-2z" /><path d="M741 721v3-3z" /><path d="M334 722v2-2z" /><path d="M632 722v2-2z" /><path d="M662 722v5-5z" /><path d="M410 723v2-2z" /><path d="M740 723v2-2z" /><path d="M762 723v3-3z" /><path d="M282 723v3-3z" /><path d="M318 723v2-2z" /><path d="M489 723v3-3zM469 724v2-2z" /><path d="M631 724v2-2z" /><path d="M335 725v2-2z" /><path d="M410 725v2-2z" /><path d="M735 725v2-2z" /><path d="M318 725v2-2z" /><path d="M442 725v4-4z" /><path d="M476 725h6-6z" /><path d="M740 725v3-3z" /><path d="M282 726v11-11z" /><path d="M346 726v3-3z" /><path d="M431 726v5-5z" /><path d="M527 729h13-13z" /><path d="M488 728v3-3z" /><path d="M740 728v3-3z" /><path d="M346 729v2-2z" /><path d="M690 730v2-2z" /><path d="M286 731v2-2z" /><path d="M338 731v2-2z" /><path d="M739 731v2-2z" /><path d="M286 733v2-2z" /><path d="M685 733v2-2z" /><path d="M705 733v8-8z" /><path d="M345 733v2-2z" /><path d="M406 733v4-4z" /><path d="M470 734h8-8z" /><path d="M556 734h8-8z" /><path d="M339 735v2-2z" /><path d="M432 736v9-9z" /><path d="M344 737v2-2zM406 737v2-2z" /><path d="M704 737v6-6z" /><path d="M727 737v3-3z" /><path d="M340 738v2-2z" /><path d="M420 738v4-4z" /><path d="M344 739v2-2z" /><path d="M340 740v2-2z" /><path d="M343 740v2-2z" /><path d="M505 740v3-3z" /><path d="M704 743v4-4z" /><path d="M506 744v3-3z" /><path d="M516 744v3-3z" /><path d="M660 745v2-2z" /><path d="M506 747v2-2z" /><path d="M659 747v2-2z" /><path d="M499 747v6-6z" /><path d="M500 747v3-3z" /><path d="M524 748v5-5z" /><path d="M486 749v4-4z" /><path d="M507 749v2-2z" /><path d="M500 751v6-6z" /><path d="M501 753v2-2z" /><path d="M484 753v5-5z" /><path d="M510 754v2-2z" /><path d="M483 755v8-8z" /><path d="M501 755v9-9z" /><path d="M432 756v2-2z" /><path d="M484 758v5-5z" /><path d="M427 761v3-3z" /><path d="M517 763v2-2z" /><path d="M552 763v7-7z" /><path d="M443 776v2-2z" /><path d="M517 777v2-2z" /><path d="M622 778v2-2z" /><path d="M420 778v5-5z" /><path d="M430 778v3-3z" /><path d="M579 780v2-2z" /><path d="M431 780v3-3z" /><path d="M648 780v4-4z" /><path d="M622 781v2-2z" /><path d="M431 783v7-7z" /><path d="M447 783v2-2z" /><path d="M484 783v4-4z" /><path d="M419 784v2-2z" /><path d="M511 784v2-2z" /><path d="M649 784v2-2z" /><path d="M620 785v2-2z" /><path d="M633 785v2-2z" /><path d="M649 786v2-2z" /><path d="M510 787v3-3z" /><path d="M620 787v3-3z" /><path d="M638 787v2-2z" /><path d="M418 788v4-4z" /><path d="M518 788v2-2z" /><path d="M637 788v3-3z" /><path d="M483 789v5-5z" /><path d="M650 789v3-3z" /><path d="M581 790v2-2z" /><path d="M615 790v3-3z" /><path d="M500 790v2-2z" /><path d="M416 791v2-2z" /><path d="M509 791v3-3z" /><path d="M637 791v2-2zM650 792v8-8z" /><path d="M416 793v2-2z" /><path d="M483 794v6-6z" /><path d="M628 794v4-4z" /><path d="M502 795v2-2z" /><path d="M615 795v5-5z" /><path d="M415 796v2-2z" /><path d="M493 796v11-11z" /><path d="M501 797v2-2z" /><path d="M635 797v2-2z" /><path d="M546 798v2-2z" /><path d="M471 800v3-3z" /><path d="M633 800v2-2z" /><path d="M414 800v2-2z" /><path d="M454 800v2-2z" /><path d="M650 800v3-3z" /><path d="M413 803v3-3z" /><path d="M471 803v3-3z" /><path d="M632 803v2-2z" /><path d="M649 803v2-2z" /><path d="M455 804v2-2z" /><path d="M549 804v2-2z" /><path d="M442 804v4-4z" /><path d="M396 805v2-2z" /><path d="M631 806v2-2z" /><path d="M449 806v2-2z" /><path d="M470 806v2-2z" /><path d="M620 806v2-2z" /><path d="M648 806v2-2z" /><path d="M493 807v5-5z" /><path d="M395 808v2-2z" /><path d="M412 808v2-2z" /><path d="M449 808v4-4zM630 809v2-2z" /><path d="M636 809v3-3z" /><path d="M469 810v2-2z" /><path d="M501 811v6-6z" /><path d="M410 812v3-3z" /><path d="M628 812v2-2z" /><path d="M393 812v2-2z" /><path d="M645 813v2-2z" /><path d="M427 814v2-2z" /><path d="M552 814v2-2z" /><path d="M627 815v2-2z" /><path d="M410 815v3-3z" /><path d="M492 815v2-2z" /><path d="M392 816v2-2z" /><path d="M427 816v4-4z" /><path d="M552 816v2-2z" /><path d="M613 817v3-3z" /><path d="M627 817v2-2z" /><path d="M466 817v3-3z" /><path d="M460 818v4-4z" /><path d="M552 818v2-2z" /><path d="M489 819v2-2z" /><path d="M391 819v3-3z" /><path d="M626 819v10-10z" /><path d="M633 820v4-4z" /><path d="M409 821v5-5zM490 821v2-2z" /><path d="M601 821v3-3z" /><path d="M461 822v2-2z" /><path d="M614 822v2-2z" /><path d="M487 823v3-3z" /><path d="M698 823h14-15z" /><path d="M426 823v2-2z" /><path d="M390 824v3-3z" /><path d="M442 824v6-6z" /><path d="M454 824v2-2z" /><path d="M492 824v2-2z" /><path d="M614 824v2-2z" /><path d="M425 825v2-2z" /><path d="M397 826v8-8z" /><path d="M455 826v3-3z" /><path d="M488 827v2-2z" /><path d="M615 827v2-2z" /><path d="M389 827v3-3z" /><path d="M425 827v2-2z" /><path d="M464 827v4-4z" /><path d="M502 828v2-2z" /><path d="M455 829v2-2z" /><path d="M605 829v2-2z" /><path d="M627 829v2-2z" /><path d="M442 830v5-5z" /><path d="M662 831h5-5z" /><path d="M464 831v2-2z" /><path d="M597 831v2-2z" /><path d="M501 831v2-2z" /><path d="M486 832v3-3z" /><path d="M464 833v2-2z" /><path d="M579 833v3-3z" /><path d="M596 833v2-2z" /><path d="M651 833h8-8z" /><path d="M603 833v2-2z" /><path d="M469 834v3-3z" /><path d="M582 834v2-2z" /><path d="M500 835v2-2z" /><path d="M443 835v4-4z" /><path d="M580 835v3-3z" /><path d="M602 835v2-2z" /><path d="M406 836v2-2z" /><path d="M470 837v6-6z" /><path d="M500 837v3-3z" /><path d="M614 838v2-2z" /><path d="M443 839v2-2z" /><path d="M459 839v2-2z" /><path d="M404 839v2-2z" /><path d="M410 839v3-3z" /><path d="M412 839v2-2z" /><path d="M500 840v4-4z" /><path d="M614 840v2-2z" /><path d="M444 842v3-3z" /><path d="M460 843v2-2z" /><path d="M467 843v3-3z" /><path d="M470 843v7-7z" /><path d="M585 843v7-7z" /><path d="M499 845v3-3z" /><path d="M444 846v2-2z" /><path d="M461 846v2-2z" /><path d="M471 846v5-5z" /><path d="M579 846v2-2z" /><path d="M492 847v4-4z" /><path d="M499 848v3-3z" /><path d="M446 849v2-2z" /><path d="M580 849v4-4z" /><path d="M463 850v3-3z" /><path d="M498 851v2-2z" /><path d="M418 851v2-2z" /><path d="M446 851v2-2z" /><path d="M490 853v3-3z" /><path d="M580 853v2-2z" /><path d="M419 853v4-4z" /><path d="M429 853v4-4z" /><path d="M464 853v2-2z" /><path d="M498 853v10-10z" /><path d="M580 855v2-2z" /><path d="M490 856v5-5z" /><path d="M590 857v2-2z" /><path d="M465 857v3-3z" /><path d="M486 857v3-3z" /><path d="M448 859v9-9z" /><path d="M486 860v5-5z" /><path d="M489 861v4-4z" /><path d="M592 861v2-2z" /><path d="M466 862v4-4z" /><path d="M498 863v3-3z" /><path d="M433 865v7-7z" /><path d="M574 866v2-2z" /><path d="M410 867v3-3z" /><path d="M573 869v2-2z" /><path d="M433 872v4-4z" /><path d="M401 874h6-6z" /><path d="M472 876v2-2z" /><path d="M570 876v2-2z" /><path d="M581 876v2-2z" /><path d="M495 880v2-2z" /><path d="M471 887v7-7z" /><path d="M565 887v2-2z" /><path d="M436 889v4-4z" /><path d="M437 891v5-5z" /><path d="M563 893v2-2z" /><path d="M573 894v2-2z" /><path d="M494 894v2-2z" /><path d="M573 896v2-2z" /><path d="M437 896v4-4z" /><path d="M470 896v2-2z" /><path d="M572 898v2-2z" /><path d="M498 899v3-3z" /><path d="M437 900v2-2z" /><path d="M620 0c-5 0-10 2-13 3-9 2-20 1-29 2-32 7-62 24-84 37-10 6-18 14-30 18-9 4-24 3-35 5l-29 8c-8 2-18 2-26 2 4-1 11-3 10-6-2-4-15-4-20-6-9-5-11-14-11-20l-7-5-2-15 7 4 2-10c1-5-3-16-17-9-7 3-9 9-12 13-1 2-4 6-9 5-12-2-11-16-18-21 1 5 7 13-8 10l25 17-78-11c8 11 32 15 49 18 4 0 21 2 21 5 0 2-11 6-15 7-12 5-29 10-36 18 17-2 37-11 51-17 6-2 13-7 21-7 9-1 19 9 21 13 1 2 3 5 0 6-5 3-17 4-23 5-17 3-42 7-51 16 21-1 41-5 62-7 5 0 18-2 21 0 2 2-2 4-3 5l-17 11c-19 12-28 25-37 40l-8 14c-1 2-1 5-5 6s-11-1-15-2c-12-3-24-6-38-6l-18 1c-4 1-7 4-11 4-7 0-15-3-22-4-15-1-29 1-43 4l-23 3c-2 1-7 1-7 3s14 2 17 2h54c-9 3-20 3-30 6-30 8-57 19-78 33-6 4-14 9-18 14l100-32c-4 5-8 9-14 13-16 10-40 18-48 31l88-25c-11 16-32 30-36 47l23-13 28-21 25-22 11 30 2 12-28 11 40-5h37l27-2-6 6-34-1v2l19 2c-32 11-55 24-78 40-12 8-26 19-28 30l40-22 77-37c-7 21-4 42-1 63 9-9 11-20 17-30 3-4 5-8 10-11 7-3 24-4 33-5 3 0 10-1 10 2 0 2-4 4-6 6l-24 12c-22 13-39 27-46 44l47-25 45-21-24 44-6 34c18-14 17-36 42-49l4 26-4-5-15-2 17 17 8 37 6 18 1 26 2 30-7 25 2 9-3 30-5 13-29-6-7-4 11-4 21-7c-25 0-46 4-68 9-7 2-10 5-11 9 0 0-1 2-3 2-7-1-11-12-13-16l-7-13c-1-3-5-6-7-9-4-8-5-20 5-27l-12 2-9-4 8 13 3 17-12-13-26-19 4-10 12-19 12-34 10-23-24 21-21 37v23l-62-45c1 5 6 10 10 14 13 16 36 30 56 43-34-10-68-19-106-22-15-2-32-1-47-1l58 13 59 12 30 4 14 2 8 11 14 7 6 13 24 25-62-13-114 7 48 2 56 4-34 7-22 4-21-4-45-6 34 12 7 7-17 9c23-3 39-7 57 4l-34-3c-9 0-18 2-27 0-10-2-19-6-28-9-23-7-55-16-81-17l45 23 53 21-119 1 32 5 87 9-26 8-33 11-28 10 106-15 34-4c-11 5-26 14-40 16-10 2-23-1-34 0-24 2-46 9-66 16-8 3-16 5-23 9l95-9-49 35 36-15 49-17-60 34-23 26-21 27 39-25 64-43 29-26 8 54 5-17-1-33 13 11 24 16 15 11-6-21-19-21 14-12 17-10 9-2 3 4-2 17 18 66 8-22 4-30-1-13 3-4 11 5 19 17c0-1-1-7 3-7 10 0 14 9 17 13 2 3 7 5 11 7 10 5 18 12 24 18 1 2 5 7 0 8-4 0-10-3-14-4l4 6c-12-2-23 0-32 5 16-2 32-5 47 0 5 2 16 7 10 10-5 4-17 6-25 8l-60 19c-8 3-17 5-21 10 11-1 20-4 30-6l66-11c9-2 30-9 30 1 1 5-7 9-12 12-10 7-24 16-29 25l19-6c-8 10-17 19-22 30l-9 24-4 15c0 1-1 3-4 4-4 1-8-1-11-2l-24-11c-21-10-46-14-72-18l-24-4 91 38c-28-4-63-3-91 0-9 1-19 1-27 4 31 1 61 5 91 5 16 0 32-1 40 8l-53-5-25 2c18 5 37 6 55 9 3 1 19 3 15 6-3 2-10 0-13-1-11-3-22-6-34-7l45 24 31 11c-14 0-31 2-44 4-7 2-13 5-21 6-39 7-78 13-113 25-9 3-19 6-26 10 17-1 33-5 51-6 28-3 57-5 85-9l34-8c7-2 14-6 22-7 9-2 20 0 29 0l24 1c14 3 30 12 39 19 6 5 5 12 5 18l2 29c0 2 5 12-1 14-3 1-9-3-11-4 2 6 10 11 13 17 2 3 2 8 5 11 3 2 14 2 17 0 2-2 1-6 2-8l4-7c1-6-6-11-8-16-3-10-5-22-5-32 9 9 11 19 18 29l13 20c3 4 4 11 9 14s33 3 35-1c1-5-1-11-2-16-2-12-7-26-4-38 2-6 6-10 2-17-1-1-2-3 0-3l-1-2 6 2 8 2 28 8 22 6 6 2 3 1 9 3 10 5 1 1 1 2c0 11-10 23-15 34-1 2-8 10-3 12 6 2 14 0 17-4 7-8 8-18 15-27 3-4 9-8 13-11l-9 1c12-27 11-55 35-80 2-2 4-4 4-7s-3-6 2-8c10-4 23-2 34-1l29 1-30-3-7-4 12-5-21 4 21-13 10-5 13 3 19 4 89 6-21-7c-24-8-54-13-81-13 8-4 18 0 28 1 24 2 48 1 72 1-19-9-54-10-78-10l19-1 30-1 82-7 54-5c-12-4-34-4-49-4-38 0-74 0-111 6l45-33-41 15-38 17c0-10 6-21 9-31 2-12 1-27-5-39l68 20c-8-10-28-18-44-25-6-2-19-6-21-11-4-9 18-9 29-9 33 0 65 3 98 3l-32-6-74-9c13-9 28-6 46-6v-2l-17-1 9-4-17 2c7-6 32-14 17-22-3 9-17 17-29 23-1 1-14 8-15 4-1-10 15-23 29-29 4-1 12-5 18-4 5 2 6 7 7 9l15 20 2-11 2-28 22-14 12-2-1 16 4 40c16-10 15-25 18-37l5-21 17 17c1 1 5 5 8 5 6-1-3-11 7-9 21 4 37 16 58 19-7-10-24-22-41-28-15-6-28-5-34-16l43 6-43-12-13-13 2-6 15 3 22 5 80 7c-12-7-33-12-49-15-11-2-23-3-31-7l80-9 47-2c-9-3-22-3-32-4-32-4-69-3-100 2l-31 8c-4 1-9 3-14 2-6 0-14-6-7-8 6-2 18-2 25-3 26-5 54-10 81-11-7-3-17-3-26-3-18-1-38-2-57 1-4 0-25 5-24-1 1-5 20-7 24-13l-22 5 7-9-15 7-8-8-15-19 63 18 22 4-15-12-60-28 74-7v-2c-30-1-62-5-91-1l26-11c-14 1-29 3-41 7-6 2-16 8-22 7-13-2-13-11-19-17-5-5-15-8-23-11-15-6-33-10-50-13-16-2-34-3-49-7-12-4-18-11-27-16-12-7-27-11-41-15l23-3-10-5-17 6c7-12 6-24 4-36 0-5-1-12-7-17l-8 52-21-12-30-8 1-12 17-28 1-25 3-15 3-5 11 2 26 9-24-18-11-9 14-7 50-16c-12 1-21 5-32 7-7 2-12 2-14-2l-15 9-2-8 6-25 5-12 12 3 28 10-22-18-18-12 5-13 5-4 29 19-17-29 27 2 24 15 51 22 28 12c-12-18-41-30-61-46l43 10 6 9 8 12 47 35 33 28c-2-22-23-49-45-67-5-5-12-9-18-13l27 4-21-9 57 20 68 18 39 10c-11-10-31-16-47-22-25-10-48-22-78-28-7-1-14-3-22-3-13-1-26 0-38-4l57-3 96-5a541 541 0 0 0-147-5l43-23c-16 2-32 5-45 10-6 3-16 10-24 10-7 0-14-6-18-8-2-1-6-3-5-5l9-2 25-1-48-4-43-17-23-7-3-4 11-3 32-2 28-2c-16-4-39-4-56-4l86-25c-24 0-47 5-71 6-8 0-19-2-21-7-2-4 5-10 7-14l9-10c5-5 13-8 20-12l-13 1 19-27 9-8 22 11 46 28c-5-14-21-26-34-38-11-10-22-20-36-29l62 5 59 4a374 374 0 0 0-104-23l-30 1c-20 0-3-12-13-16l-4-1zm-40 26-11 14-13 22 35-21 2 22-6 10 2 10-3 21-8 19-15-1-36-4-45 5-15-8-17-3-11-1-4-8-10-20 79 24-47-31 91 1-17-5-59-9c14-10 36-16 55-23 17-5 34-12 53-14zm41 8 6 5-2 16-15 43-13 18 8-33 7-9-3-9 2-11 5-15 5-5zm17 13c7 0 8 5 6 8-2 7-8 17-17 22 0-9 5-14 14-21-11 1-10-9-3-9zM387 83c9 8 9 19 13 28 1 2 5 9-1 9-5 0-4-7-6-9-8-9-18-18-6-28zm-18 15 5 5 1 11 3 11-21 8-40 21 50-10 17-2 4 14-1 4-20-2c6 4 17 6 22 10 3 3 3 7 3 10l3 24c0 3 1 7-1 10-3 4-9 5-14 8-7 2-13 6-19 9-3 1-9 4-13 2-11-6-4-17-2-24l-8 5c0-8-9-14-21-18l12 17-37-25-56-23 36 4 70 12-30-15-15-7 9-14 42-33 21-12zm92 31 5 1c4 2 0 6-2 9-5 6-8 14-16 20-4-7-9-18-5-25 1-3 11-5 18-5zm62 3c13 1 25 5 38 5 4 0 12 0 14 2 5 6-15 13-21 16-2 1-5 3-9 3-5-1-6-4-8-6l-14-20zm-115 5c10-1 13 11 15 15 11 13 30 27 2 38l-6-19-3-7-4 3c-17-2-11-13-11-20 0-4-1-9 7-10zm93 7 12 6c5 3 16 8 15 12-1 3-12 5-15 7-10 5-21 11-22 19-1 7 1 14 4 22 1 1 4 6 0 7-5 2-20-4-25-6-5-1-19-2-21-5s4-7 6-9c8-7 17-15 23-23 8-10 17-20 23-30zm-276 7c20 0 42 5 60 10 8 2 17 4 23 7l-49-11-34-6zm11 17c17 3 41 13 49 22l-30-12-11-2-8-8zm316 1c21 0 52 8 68 15l-36-8-32-7zm-349 1h4c4 1 4 4 4 6-1 5-10 10-18 11l-30 2c7-7 19-12 30-16 2-1 6-3 10-3zm206 3c4 1 6 8 7 9 4 9 3 17-10 23l-2-24c0-2-1-7 3-8h2zm145 5 14 5-3 8-9-8-2-5zm-323 5c4 5 8 17 3 22l-3-22zm-23 5c1 5-15 17-23 21l23-21zm387 0 30 9-32 7-13 2-3-4 6-13 12-1zm-345 1 15 2c24 1 44 9 54 21l-60-6 53 18c-13 0-25 0-38 2-6 0-16 2-21 1s-4-6-4-8v-19c-1-3-4-7-2-10l3-1zm273 2c10 5 18 12 24 19 2 2 6 5 5 8-2 3-8 5-11 7-3 3-5 10-12 10-9 0-16-7-16-11s2-8 4-12l6-21zm-92 5c7 0 4 9-1 11-18 5-14-7-3-11h4zm216 8c15 1 30 6 37 15l-64-9c8-4 17-6 27-6zm-226 16c8-1 5 5 4 7l-6 24c0 2 2 9-2 9-7 0-5-9-6-11-1-7-8-26 10-29zm-27 10c4 1 3 4 3 6 0 4-1 8-10 10-5-7-13 12-19 9-3-1-4-4-5-6s-3-4-2-6c0-3 12-6 17-8 4-2 11-6 16-5zm59 1c10 4 15 13 19 18 1 2 4 5 2 7-1 3-14 3-17 1-4-3-3-9-4-13v-13zm95 4c3 1 3 4 4 6v5c-4-1-7-3-9-5-1-2 0-7 5-6zm-54 6 7 2c7 3 9 7 1 10-12 4-17-9-10-12h2zm-145 7c7-1 12 9 11 11-1 4-19 7-25 8-6 0-2-5-1-6 3-5 5-12 15-13zm46 1 2 9h-17l15-9zm125 2 26 8 2 13-6 27-5 12-3-17-1-7 7-2c-10-6-15-11-16-20 0-2 4-4 4-6-2-3-7-4-8-8zm-10 12c8 1 13 10 7 12-9 3-25-8-10-11l3-1zm-50 15c10 0 23 4 13 8-5 1-17 0-22-2-3-1-3-4 0-5l9-1zm43 4 18 2c8 3 6 12 6 17l-11-12v3c-11 0-23-2-28-7l5 1c-3-3 3-4 10-4zm-57 12 14 11-5 10-13 20-13 23-4 12v-72l4 14 2 6 6-5 9-19zm-38 13 4 27 4 35-5-14-5-29 2-19zm64 2c6 1 1 7 0 8-5 7-8 16-20 20 2-7 8-15 13-22 1-1 3-7 7-6zm23 10c10-1 32 4 32 11 0 11-10 22-11 33-1 8 2 16 2 24-1 12-6 24-10 36-2 5-2 12-6 17-3 3-27 2-31-1-3-1-1-5-1-7l-15 11-25-13-1-9 4-28 4-21 10-20 56-20-44 10c3-9 19-21 36-23zm35 112c4 0 9 2 12 4 10 4 13 10 25 13l-19 8s-3-4-6-3c-2 2 4 8 4 10 0 8-6 14-17 18-2-5-1-11-4-16-1-3-8-3-8-6 0-4 7-8 7-12-1-3-3-15 6-16zm-101 9c5 3 15 6 18 9 4 4-4 11-9 13 0-2 0-8-7-6l-2-16zm38 10 9 1c7 1 17 5 19 9 3 4-1 10-3 14-4 8-5 17-9 25-1 4-3 17-14 14l1 18-3 8-21 2-21 2v-18l7-31 1-15 17-10c-11-1-4-7-1-11 5-5 10-8 18-8zm109 2h6c7 2 13 6 19 9 11 4 25 7 34 13h-10l29 7 14 5 50 17 28 12-88 5-21 2-5 2 7 2 26 1 110 9c-11 7-28 13-40 20-9 7-19 17-33 21-19 5-46 1-61 10l66 4 28 4c-40 8-79 20-110 37-7 4-16 7-22 12 48-10 98-23 149-29l-18 11-39 24 78-25c-6 8-18 14-26 21-15 13-26 27-31 42 12-5 21-13 32-19 3-1 9-6 14-6s5 12 5 14c1 8-7 12-15 18l-17 17 21-6 2 5-11 12-23-2-59-3-21 1-18 3-23-12a944 944 0 0 0 119 5l8-1c0-2-4-4-6-4l-25-7c-34-8-68-17-106-17 8-5 19-9 29-12l20-7 12-4c2 0 14-3 13-6-1-2-16 0-19 0-17 2-33 6-49 10-5 1-18 5-23 4-5-2-4-10-5-13-2-10-6-20-17-27l-2 25-5 7-6-3-14-13-19-13-15-10-2-21 34 13c-6-6-14-11-22-16-7-5-10-9-10-15 0-4 1-8 10-7 33 3 61 16 94 20-24-13-50-23-81-31-8-1-25-5-22-11 2-3 10-3 14-3l49-1c-10-5-29-7-43-9-6 0-16-1-18-5-3-4 3-9 5-14 5-11 9-21 22-30 3-3 10-4 13-6 2-2 1-4 2-6 5-6 11-10 15-16 2-4 2-8 7-11 3-2 10-3 16-3zm-59 14c5 0 4 7 5 9 2 10-2 20-18 27 0-9 4-19 8-28 0-1 2-9 5-8zm267 87-7 12-13 11h-48l49-20 19-3zm-487 2-19 12-18 13-13 7-13-4-28-17 91-11zm531 2c7 4 17 9 17 15 1 2-1 5-1 8 0 2 3 9-2 10-9 3-4-9-3-11-13 2-13-17-11-22zm-461 3 17 9c-11-2-10 2-14 6l-3-15zm445 0c3 1 4 3 5 5 4 5 6 9 7 14l-9-3-5-1c-16-4-4 8 8 6 2 2 7 6 6 8s-9 2-12 1c-6 0-25-4-26-9s13-12 18-16c1-2 4-5 8-5zm-495 7-5 24-4 7-16-5 14-15 11-11zm-173 13c26 4 48 13 77 13 4 0 21-1 19 3-3 6-23 1-30 1h-19c-20-1-40-6-47-17zm283 5c9 0 12 5 14 9 7 9 10 19 22 26l-2-26c12 2 11 7 11 13l-2 33c-8-4-13-9-19-15l-27-26c-2-2-7-16 3-14zm-49 6c8 4 12 10 18 15 3 2 8 6 9 9 1 4-3 7-3 10 0 13 3 26 4 38v20c0 2 1 5-3 7s-13 3-15 0c-5-5-6-12-8-18-3-7-8-15-10-23l21 7c-8-8-21-14-27-22-9-11-7-27-7-39l13 16 5 6 3-5v-21zm-89 23c11 2 20 8 11 15l-11-15zm541 6 13 19 7 5 3-6 1-17c5 7 21 15 21 22 0 2-5 3-8 3-8 2-26 8-34 7-5-1-6-6-7-9-3-9-6-16 4-24zm-615 4-7 8c-2 2-4 6-9 8-4 1-13 0-14-3-1-7 21-13 30-13zm212 5 30 14 13 10-5 22v10l-8 2-30-1-2-16 2-41zm-103 1 7 2c7 2 16 5 21 9 6 4 8 11 11 16 5 11 15 23 15 35-14-6-19-18-27-27l-13-8c-4-3-6-7-9-11l-7-11c-1-1-2-3 0-4l2-1zm-11 4c3 0 5 3 6 5l10 18c-9-4-19-9-23-15-1-2 0-9 7-8zm178 3c13 7 18 17 26 26 1 2 8 8 4 10s-15-3-18-4c-16-6-12-23-12-32zm299 7-6 22-9 10c0-12-8-25 15-32zm-288 30 8 3 30 13c3 1 6 3 3 4-3 2-8 2-12 3-19 2-35-3-33-14 0-2-2-7 1-8l3-1zm-103 24c10-1 12 12 5 15-12 5-16-10-9-13l4-2zm36 3 24 2c3 1 10 2 6 4-7 5-24 4-33 3-5-1-7-6-3-8l6-1zm68 14-2 12v7c0 2 1 10-4 9-6-1-6-6-6-8 0-7-1-17 12-20zm78 15c6 1 13 4 15 6 3 5-1 13-1 18l-49-8c6-5 19-13 29-16h6zm-117 2c7 0 5 7 1 9-6 3-22 5-30 4-8 0 1-4 3-5 7-3 17-8 26-8zm186 3 9 1 23 10 36 13 1 7-16 17 6-21-12 8-4-6c0 4 1 9-3 11l1 2v26l-6 7-11-6-32-22 33 10-25-17v-8l-3 5-9-6-13-20 38 14 13 4-3-6-19-17-4-6zm62 2h12l10 2-3 4-19-6zm-262 18c8 1 16 2 16 4 1 6-17 15-24 18-6 3-8-1-10-3-2-5-9-13-1-17l19-2zm-52 6 6 4 2 16-1 24-14 15-15 19 1-23 10-37 5-15 6-3zm331 4c6 7 0 17-3 24-4 13-11 25-14 38-2 6 1 13-1 19 0 4-5 8-8 11l-9-17-2-16 22-30 5-11 10-18zm-162 1 36 9 21 7 20 19-2-9 16 18 12 22-3 13-19 28 8-18-10 4-7-8v13l-14-11 14 29-8 13-9 29-19 45c-17-6-28-15-42-23l-34-14c-7-2-24-6-16-12 4-3 15-2 20-1l55 6c-11-8-33-14-49-19-7-2-20-3-24-6-5-6-1-17 0-23 2-8 2-17 3-25 1-7 5-13 7-20 0-3-3-4-5-7-1-4 0-9 2-13 4-6 9-13 16-18 3-2 7-6 12-6 7 1 11 10 14 13 9 11 21 25 37 33l-14-44-18-24zm-69 2 5 7v25l-1 18-3 11 3 13-1 32-6 28v-61l-5-16-1-26 2-24 7-7zm189 0 2 6c1-2 0-4-2-6zm-217 16-11 53h-4l-1-11 2-8-9-6-3-16 26-12zm-41 21c4-1 5 3 5 4 1 6-1 11 3 17 5 6 6 13 8 20l12 36c2 5 9 16-1 19-3 1-17 4-20 1-5-4 1-11-1-16-7-19-10-37-10-57v-18c0-2 0-5 4-6zm-27 13h4v54l-3 14 7 11v17l-8-9-12-15-4-10-6 1c-7-9 4-13 9-22 8-13 13-27 13-41zm279 29c6-2 10 9 10 11 1 7-8 12-16 17-3 2-7 5-11 5-6 1-2-6-1-7l12-20c1-2 2-6 6-6zm-316 31c4 1 8 5 10 6 9 9 20 20 26 30l-10-1c10 5 17 8 21 15-8-2-12-6-18-9-5-3-12-3-16-7-5-4-5-12-9-17-3-3-14-13-8-16l4-1zm-41 0 8 5 31 24c-18-3-24-13-36-20-3-2-13-7-7-9h4zm113 48 9 1 22 9-2 21 8 13 8 38-14-32-13-11-14-20-6-14 2-5z"/><path d="M570 902v2-2z" /><path d="M570 904v2-2z" /><path d="M558 905v3-3z" /><path d="M438 906v8-8z" /><path d="M450 906v4-4z" /><path d="M494 907v12-12z" /><path d="M557 907v3-3z" /><path d="M452 908v7-7z" /><path d="M569 908v2-2z" /><path d="M475 910v2-2z" /><path d="M568 912v4-4z" /><path d="M470 913v7-7z" /><path d="M556 913v2-2z" /><path d="M438 915v3-4z" /><path d="M452 915v5-5z" /><path d="M552 917v5-5z" /><path d="M477 917v2-2z" /><path d="M453 919v4-4z" /><path d="M477 919v2-2z" /><path d="M440 921v9-9z" /><path d="M478 921v3-3z" /><path d="M495 921v4-4z" /><path d="M453 923v2-2z" /><path d="M478 924v6-6z" /><path d="M438 925v5-5z" /><path d="M496 927v5-5z" /><path d="M562 927v2-2z" /><path d="M479 927v5-5z" /><path d="M561 929v2-2z" /><path d="M476 931v2-2z" /><path d="M459 931v3-3z" /><path d="M496 932v3-3z" /><path d="M498 935v4-4z" /><path d="M557 937v2-2z" /><path d="M441 937v2-2z" /><path d="M544 938v2-2z" /><path d="M455 939v6-6z" /><path d="M498 939v4-4z" /><path d="M442 941v4-4z" /></svg>