<svg xmlns="http://www.w3.org/2000/svg" viewBox="0 0 449 800"><path d="M151 789c-5-5-8-10-10-15 0-2-2-6-4-7l-2-3-3 4-3 5c-2 0-1-13 1-19l1-9-1-5-5 2-4-1c0-2 10-12 12-12l6-10-6-2c-9-3-8-4 5-6 7-1 9-2 14-5l5-4-4-5-4-4h5l10 3c4 1 5 1 11-2s6-4 3-8l-2-2h4l9 3c4 2 5 2 11 1h8v-5l-1-3c1-1 6 1 12 5 6 3 6 3 12 3l7-1v-3l-1-4 7 3c6 3 6 3 15 3h7l-7 1c-5 0-5 0-5 2 1 1 1 1 0 0l-2-1c-1 0-1 1 1 2 3 3 1 4-7 4-6 0-7-1-7-2v-2l1 2c2 1 2 1 1-1s-2-2-7-2-6 1-5 2l-1 1-4 1h-12l3 2c3 1 3 1 1 1-1 1-3 0-5-2l-3-4c1-1 0-1-1-1-5 0-9 1-10 3l-1 2v2c0 2-5 2-5 1l-2-1c-2 0-2 0 0 1h-2c-4 0-5-1-5-3 0-1-1-1-6 1-3 1-4 3-4 4l-1 2h-2c0-2 0-2-3 0l-5 2c-2 0-2 0 0 1 1 1 1 1-1 1-4 0-9 3-8 5l-1 1c-1-1-2 0-1 1 0 2 0 2-1 1 0-1-7 6-6 7l-2 2c-2 0-4 5-5 12-3 10-3 16-2 16l1 4c0 4 1 7 2 6l1 1c-1 1 3 8 7 12 3 2 12 7 16 7l4 1-3-2c-6-3-12-9-16-14l-3-6v-5l-2-8-1-6c-1-2 1-6 3-5v-1c-2-3 13-19 22-23l15-5c8-2 9-2 41-2a200 200 0 0 0 112-23l4-5 2-3-3 3-3 3-2 1-2 1h-2l-4 2c-2 1-2 1 0-1l1-2h2l2-2c0-2 2-3 2-3 2-1 3-4 2-4-2 0-7 4-6 4l-2 1-4-1-5-2c-4-1-5-3-2-4l1-1 4-1 7-1c5-3 10-2 9 2v3l-3 4c-3 4-2 4 4-1l6-5h2l2-2h-2c-4 2-4 0 0-6 2-5 5-8 8-11 8-5 11-3 6 6-3 4-2 5 0 2l2-1-6 6 1-2h-1l-2 2c-2 0-6 3-4 3l2-1h3c0-2 1-2 1-1s-3 4-4 3l-1 2-1 1c0-2-3 1-4 3a1511 1511 0 0 1 14-10c7-6 9-10 7-11l1-3v-4l5-10 4-3c2-1 2-1 4 1l2 2 1-3c2-2 2-4 1-7 0-6 1-10 2-9h1c-1-2 1-4 4-4s7-7 4-9l-1-3c0-2 0-2 1 0 1 3 2 3 1-1l2-6c4-5 4-6 1-3h-2l2-2c3-2 3-3 3-12 0-12-6-29-14-39l-3-4-7-5-9-6-24-8c-5-1-15 0-18 1-2 0-1 3 1 3 2 1 2 2 0 7 0 1 1 2 3 2 7 0 20 5 26 10s12 14 13 21c3 14 0 27-11 46l-5 10-13 17-5 7-12 14-11 10a94 94 0 0 1-15 13l8 1 4 1v2c2 0 1 1-1 2-3 3-3 4 0 3h1l-6 3c-4 0-3 1-11-9l-1 1-7 3c-2 1-2 2-1 3 2 2 1 5-2 5l-1 2c0 1-1 2-2 1-5 0-7-1-8-4l-3-6-3-3c0-1 7 0 10 2 3 1 17-5 16-7l2-1c3 0 12-7 11-9h1c1 1 12-11 11-12v-1c1 1 3-1 5-4 4-5 4-6 2-7h-2l-2-2-3-4c-2 0-3-3-3-8l-1-4-2-3-11-22c-3-4-4-5-10-7l-10-2c-4 1-5 2-3 6l1 3c-1 0-9-4-12-7-2-2-5-2-9-2v5l-1 4c-2 0-7-6-9-10l-5-5c-4-1-5-1-6 5l-1 4c-2 0-8-11-8-16l-3-5c-3-4-3-4-4-2s-2 1-3-5l-4-13c-2-7-2-9-2-20 0-10 0-15 2-21l2-10 2-6 2-10 2-6c1-4-8-23-12-26l-2-3 2 1 2 1-2-3c-1-4-4-6-3-2v1l-1-2-1-1-10 2a139 139 0 0 0-22 4c-3 1-4 2-7 9a164 164 0 0 1-20 32 618 618 0 0 0-59 51c-1 0 1-22 4-32 2-10 7-22 8-22l-1 4-2 3 4-5 13-21c3-3 15-11 22-14s24-8 29-8l12-2 17-5c8-2 9-3 9-5 0-4-12-24-15-22-2 1-29 2-30 1l-17-3-3-1-3-2c-7 0-18-8-26-17-4-5-11-19-11-23 0-2 0-2-2-1-2 0-2 0-2-3l2-7 1-8c0-3 0-3-3-2-2 0-2 0-1-3l3-8 3-9c0-3 0-3-2-3h-2l7-10 4-7c2-5 2-5 0-5-3 1-2 0 3-6 3-3 7-7 7-9l3-3 1-2c-1 0-1-1 0 0 2 1 4-3 3-6-2-5-11-19-12-18v-2h-2c1-1-1-5-2-5l-3-3-3-4v-1l-4-6-3-4-1-1-1-3-1-2-1-3v-1l-2-11c0-2 0-3-3-3-6-2-8-5-11-16l-4-16a228 228 0 0 0-21-43l-3-6c-5-4-14-18-17-24l-9-11c-8-8-8-9-8-13 2-16 20-32 41-36h11c3 2 8 9 9 13a222 222 0 0 0 18 50l6 14c6 12 9 16 10 13l2-4a301 301 0 0 0 24-34c0-6 15-37 22-47l2-2-1 3 1 4c2 1 2 0 4-4l3-8v-2l2 2v4c-1 0-2 1-2 3l-4 5c-2 2-2 2-3 1l-2-3c0-4-11 18-15 29-4 13-4 13 0 8l7-8c1-3 3-5 4-5l2-4 2-2 1-2 1-1c1 1 2 0 1-1l1-1c1 0 2 0 1-1l1-1 7-5 6-6 5-4 7-7-2 2-3 4 5-2c6-3 11-4 5-1l-2 2c1 1 0 1-2 1h-3l-5 4c-9 5-23 20-22 22l4-3 5-2-5 4c-10 7-25 25-23 28l-1 2c-2 0-6 7-5 7 1 1 10-1 13-4l4-1 1-1c-2-2 23-14 25-13l-8 5-16 11a132 132 0 0 1 23-4h-3l3 3 5 2v1c-1 1-2 1-4-1s-4-3-8-3-21 6-21 7l2 2 10 4 20 5c13 2 13 2 6 2l-13-1c-6-1-25-7-26-9-2-2-5-1-10 1-11 5-20 21-20 36v6l8 9c10 10 10 9 8 9h-1c1 2 2 10 1 11l-1-4c0-4-3-10-4-9l-2-1 1-1c2 2 1-1-1-3h-2c2 6-7-7-10-14l-1-4 1-2v-2l2-5c2-7 9-21 11-22l6-4c4-4 4-5-1-2-2 0-2 0-2-2l2-3 5-10a198 198 0 0 0-24 35l-3 4c0 2 0 2-2 2-2-1-2-1-1 2v2l-2-5-5-12a197 197 0 0 1-14-30 216 216 0 0 1-13-36c-2-12-8-16-21-13S11 69 9 80c0 3 2 6 15 21l7 9 7 11a263 263 0 0 1 29 52l2 9 3 11c0 5 2 10 3 11h3c4 4 9 5 10 2h-1l3-4c10-11 29-17 38-13l3 3c-1 1 1 2 3 2l1 3v7c0 2 0 2 1 1s1 0 4 14c0 3 5 12 12 24 5 9 5 9 7 7l5-4c2-1 3-4 1-6l1-3c1-4 3-15 1-14v-2l1-6-4 1c-3 1-4 0-1-2 4-1 3-3-2-6l-4-2h3l3-1-3-4c-3-3-4-5-2-4l4-2c3-3 1-5-3-5h-3l3-2 4-2c3 0 2 2 0 2l-2 1h2c2 1 2 0 3-1 1-2 0-3-2-4l-6-7h1c2 2 9 1 9-1v-4l-2-1h2c1 0 4-2 4-4l2-11a979 979 0 0 0 20-45l4-8 5-8 5-7h-4l-5-1c-1-1-23 1-26 2l1-1c4-2 28-4 27-2-1 1 0 1 3 1 5 0 5 0 9-6a140 140 0 0 1 67-46l-3 2c-4 1-19 14-25 21l-6 7c-2-1-12 12-17 21l-5 5-1 1-5 10-8 14c-2 5-3 5 11-1l9-4-1-1c-2-1-2-1 1-1h7c5 0 5 0 3-2-2-3-12-9-14-10l-2-2c1-1 13 7 18 11l4 5-5-1c-4 0-6 0-13 4l-14 6-6 2-3 8c-2 7-2 9-1 10v12l3-4c4-5 14-11 17-11h2l-2 2c-3 4-7 13-7 15 1 1 0 2-1 3l-2 1 7-4 4-5a274 274 0 0 0 21-23l15-16a168 168 0 0 1 41-30c5-4 30-12 41-13 12-2 16-2 16-1l-6 1-23 5-1 2-1 2-1 2 4-2 18-8a313 313 0 0 0-55 36 150 150 0 0 0-31 34l-8 13c-9 13-10 14-11 18 0 3 0 3 3 2 10-2 10-2 5 1l-5 4-1 2c-1 1-1 1 4 1s6 0 7-2v2c0 4-4 10-6 11v-2l2-3 1-2c1-1-2-1-7-1-7 0-8 1-9 3l-2 2 3-2 5-1c2 1 2 1-6 4-3 1-3 4 1 6s9 7 7 7l-2-2-8-4 3 2 4 3h-3l-4-2-2-1v2l4 2c2 2 0 3-3 0-2-1-3 0 0 2 1 2 0 3-2 1-1-1-1-1-1 1s1 4 3 5c3 3 2 4-2 1-2-2-3-2-3-1l-3 4-2 3 3 1 2 2v-3c-1-3-1-3 2-2l10 4c3 1-1-6-4-9-3-2-3-3-2-4h12l4 1c1-1-2-7-6-10l-3-4h3c4 1 4 0 0-1l-3-2 4-2c5-3 7-3 4 0-2 1-2 3 2 7 2 4 2 5-1 3-2-3-2-2 0 3 2 4 3 10 1 10l-3-2-6-2-3 1 3 1c3 2 3 2 1 2-3 0-3 0-2 3l1 7v5l-2-3c-1-3-3-5-4-5l-2 7c-4 12-12 28-24 43l-17 22c-8 7-8 7-1 16 7 10 8 11 9 16l2 7 1 2 1 2c1 2 2 2 3 1l19-7c2 0 2 2 0 4l-4 5c-2 3-2 3 0 2l5 1c1 1 3 0 8-3l8-3c2 0 2 0 1 5v6h3c5 0 18 6 28 14a144 144 0 0 1 15 11c7 6 13 13 17 22 10 19 10 19 9 32l-1 17a231 231 0 0 1-21 51l3 2c2 0 3 1 3 2l1 1 3 5c1 5 2 5 5 5s3 0 4 3l1 4 5-1c8-2 22 0 42 7 15 5 17 7 26 21l8 11 5 6 2 4-3-1c-2 0-2 0-1 2 1 1 2 2 1 3l1 1c2-1 6 13 6 19v4l-3-3c-1-2-3-3-3-2v11l-1 15-2 4-2-5c-1-4-2-4-2-2l-2 4a152 152 0 0 0-8 28l-1-3c0-5-1-4-4 1l-2 4 3 2 2 4 1 5c0 3 2 11 5 16a111 111 0 0 0 13 21l12 18c3 2 4 5 4 6v1l4 3a324 324 0 0 0 13 18c-6-8-9-11-9-9 1 3 1 2-3-2l-2-6-1-1a385 385 0 0 1-39-63c-3-9-5-11-8-7l-11 12-5 7h1l-3 1-1 1-2 4-2 2 1-3 2-2-2 2c-2 1-2 2-1 3 1 2 1 2 3-1l2-2-2 4c-1 1-2 3-1 5l-1 2-1 3c0 2 0 2 1 0l3-3v1l1 1-2 5v4c1 1 1 1 2-2 3-4 3-4 2 0l-3 6-1 3v-3l-1-4c-2-1-2-1-1 1l-1 2c-2-2-1 1 1 3l2 4h1c1-2 1-2 1 0l2 6 2 4 1 1c1-1 1 0 1 1 0 2 0 2 1 1 1-5 4-10 5-10l-2 5-2 8c0 2 0 2 1-1l6-12-2 6-3 10v5l1-5 5-12-1 5-3 13 1-4 3-6h1c-3 9-4 12-3 15v3l1-3c1-2 1-2 1 1-1 6 0 6 2-1l1-7 1-2c1 0 1 1-1 6-2 6-2 13 1 18l2 5v-8l3-9-1-1-2 4c0 4-3 7-3 3l3-14c2-4 2-1 1 3l-2 5c0 2 1 1 1-1 2-5 4-8 3-3 0 4 0 4 3 1 2-2 2-2 1 0v3c1 2 2 2 3 1v1c-1 2-1 5 1 5l2-2h1l-1 2-1 2-1 2c-1-1-2 1-1 3 0 2 0 2 2 1v-2l1-1 1-2c0-2 0-3 1-2l2 4c-1 0-6 5-6 7l-1 1v-1c0-1-1-5-2-4l-1 2c0 2 0 2-1 1l-1-2v-6c1-2 0-6-1-6l-3 11c-1 2 0 6 2 10 2 3 3 7 2 7l-5-10a464 464 0 0 0-37-76c-1-2-1-2-5 1a116 116 0 0 1-51 22l-2 1a122 122 0 0 1-41 4h-2l-7-1h-9c-6-2-23-2-36-1-12 1-14 1-20 4-12 5-22 17-25 27-1 7 1 18 6 28 3 5 15 13 17 11l1 1 2 1 7 2 9 1h2l-9 2h-9l2 3 2 3-12-7c-6-5-8-4-7 3v5l-3-3m-2-7c-2-5-4-7-5-6l7 11-2-5m-17-25c0-3 0-3-1-2l-1 7v2l2-7m253-10c0-1-1-1-1 1-1 2 0 4 1 2v-3m2-4c0-2 0-2-1-1-1 2 0 4 1 3v-2m-10-3h-1l1 2v-2m8-2c-2-3-2-2-1 1l1 2v-3m-256-2 4-4-4 2-4 4c-3 2 1 1 4-2m297-13-3-3 1 2c2 3 4 4 2 1m-280-10h-9c-3 1-3 1 2 1l7-1m102-6-6-1c-4 0-5 0-4 1h10m13 0-2-1a320 320 0 0 1-7 1h9m-37-1-4-1c-3 0-3 0-1 1h5m10 1-5-1h-3l8 1m40-2c1-1 1-1-2-1-6 0-9 1-8 2l10-1m13-3 4-1-6 1-7 1c-2 2 4 1 9-1m14-3 6-3c-3-1-16 3-15 4 0 1 2 1 9-1m-135-1-7-2c-3-1-3-1 0 1s7 3 7 1m154-6c3-3-1-3-7 0-5 2-6 3-4 3 2 1 8-1 11-3m31-3h-2c-1 1-1 1-1-1 1-2-1-7-3-7l-1-1v-2c-2 1-2 2-2 5l1 4 2-3c1-3 2-1 0 2-1 1 0 2 2 5s2 3 3 1l1-3m-156 4-12-6 11 6h1m28-2-2-2-4-3c-3-3-10-6-7-4 6 6 17 13 13 9m25-2c-5-4-5-4-3-1 3 3 4 4 5 3l-2-2m32-1-3-1c-2-1-2-1 0 1 1 2 4 2 3 0m46-1h-1l-1 1 1 1 1-2m28 0 1-2-2 2-1 2 2-2m-25-2c1-1 1-1 0 0l-2 2 2-2m22-5-1 2c-1 1-1 1 0 0l1-2m-46 0c-5-2-9-3-10-2l9 3c2 0 2 0 1-1m45-2h-1l-1 1 1 1 1-2m-10-1v-2l-1 2-1 1 2-1m-9-9h-2c-5 0-6 1-2 1l4-1m22-11 5-7c0-2 0-2-1-1l-4 5c-5 6-5 7-4 7l4-4m-28-10 1-2-3 5c1 0 2-1 2-3m51-13-1-1-2 6v6l2-5 1-6m-40-3c5-7 6-8 4-8l-3 3c0 2-4 6-6 10l-3 5 8-10m-10 8-1-3h-2l-1 1v-3l-2-6c-1-1-2-1-3 2s0 6 4 8c3 2 4 2 5 1m-13-9v1l1 2-1-3m22-4 2-2c1-2 1-5-1-5v-4c-2-2-2-4-1-5l1 1 1 3v3l1 3c1 1 1 1 3-3 4-6 5-7 4-9l1-1c1 1 2-1 1-3l1-2 2-4 2-7c1-3 1-2-10-17-5-5-9-12-18-31l-9-14-1-1h1l1-1h3c1 1 2 2 3 1 2-1 2-1 1-3l-3-5c0-4-1-5-4-5-4 0-7-1-7-2h3c2 0 3 0 3-2 0-4-1-4-5-3-4 2-4 2-3 4 1 1 1 1 0 0l-2-2c1-1 0-2-1-2-1-1-1-1 1-1s3-1 1-3h-2l-3 1h-2l3-3c2-1 3-3 2-4l-10-4-1 7-1 1-1 1-1 2v8l3-4 5-5-5 8c-3 5-4 7-3 10 0 2 0 3-1 2s-1-1-1 1v-34l-2-3-3-2-2 3-10 8c-14 11-14 11-10 5l5-5 3-2-5 2-3 1c0-2 8-5 9-4 1 0 9-5 9-7l6-9a178 178 0 0 0 20-43c3-11 5-30 2-40-2-10-3-11-11-19a133 133 0 0 0-31-23c-2-2-2-2-1 0v14l-3-1-5-2c-3 0-3-1-5-5-2-5-2-5 0-8v-1l-3 3-1 1c0-2-3-3-6-3s-8-3-11-6c-2-2-2-2-1 0h-1l-1-3-2-2-1 2v2h-3l-1 2c-1 2-1 2-1 0l2-3 1-1c0-1-6 2-7 4v1c1-1 1 0 1 1l1-1c1-2 1-2 1 1l-2 2v3l3 3 5 11 3 4v-3l1-7c1-1 1-1 1 1v7c1 3 2 6 7 10 7 8 10 12 15 21 3 5 3 8 4 14 0 10-1 14-10 30l-5 13-1 1-2 3-3 2c-1 0-6 7-6 9l-1 1-3 5-3 8c-3 4-2 6 1 3l1-1-1 2-3 7c-2 4-3 5-3 3l1-2 1-4-2 4c-2 3-2 4-1 4 2 1 12-10 12-11l3-3c3-1 3-1 4 1 1 3 1 3-1 2-1-1-1-1-1 5l-1 8-2 4-1 2h-5c-1 0-9 6-9 8l2-1h1c-1 2 1 3 1 1l2-2 1 1c-1 1 0 1 0 0 3-1 5 10 2 14l-1 2 3-4c2-4 3-3 1 1l-2 10v7l-1 1v12l2-3 2-2-2 4c-3 4-4 7-1 5h4c3 1 3 2-1 1-4 0-4 2 0 3 3 0 7 4 9 10l1 3 1-3c1-2 1-2 1 1s0 3 3 3l2 1c0 2 10 3 27 3l17-2-2-3h-2l-3-1h-2v1l-2 1-2-1v-2l-2-1c-2 0-2 0-1 1l-1 2h-2c-6 2-7 2-6 0h1c1 1 1 1 1-1s0-2 1 0h2l1-1 2-1c1-2-1-5-4-6-2-1-2-1-1-2 2 0 3 1 5 3 2 3 5 4 4 2-1-1 0-4 1-3 2 1 1-1-2-5-1-1-3-4-5-4-1-1-4-3-5-6-3-3-3-5-3-11l-1-7-1-2h1c1 2 5 0 9-4l4-6 1-2c2-2 6-10 7-15 0-4 2-7 3-7l1 2v1c-1-1-4 11-4 13v2c-2 1-1 2 0 3l1 2c-1 1-2 1-3-1h-1c0 3 1 5 4 6 2 1 2 1 1 2-2 1-2 1 0 2 2 0 4 2 4 3l2 1 3-4 7-5c3-3 16-9 15-7l1 1c1-1 2 0 1 1l-2 1c-2-1-10 2-14 6l-3 3h2l-1 1h-2c-2 0-3 2-2 4v2c-1 1-1 1 0 0 1-3-2-3-4-1-3 3-5 6-5 10-1 5-2 5-4 2s-4-15-3-18c1-2-1-6-3-5v8c-2 0-1 3 1 6l1 3v4c-2-2-1 1 2 6l5 11-1-1c-1-3-3-2-3 0l1 2c1-1 3 1 3 3l3 5c4 6 5 6 6 5 1-2 0-5-2-5l-1-1c1-1 0-2-1-1v-6c-1 1-4-3-3-5 0-2 1-2 2-1h1c0-4 4 6 4 10l3 8c2 3 2 4 0 4 0 1-1 1 0 0l-1-3h-1l-1 2 3 6c2 3 3 5 4 4l1 3 4 7 2 5 1 3c1 1 3 4 3 7l3 6 1 2c0 2 0 2 2 0 2-3 3-5 1-5l-1 2h-1v-4l1-4-1 1c-1 1-1 1-1-1 1-2 0-5-1-8l-1-5 1 1 1-1c1-2 1-2 1 1l1 7c1 2 1 2 2-2l3-5c1 0 1 1-1 3l-1 7v4l2-4 1-1-1 4-1 5v4h1l2-6c1-1 1-1 1 2v1c2-2 2-2 1 1 0 4 1 3 3-2l1-1-1 5c0 3 0 3 1 2v-3l1-1c2 1 2-3 1-6-1-2-2-3-3-2s-1 1 0 0v-4l-1-3c-1-2-1-2-2-1h-1l1-1-1-5-2-6h1a516 516 0 0 0 12 27l-2 3c-4 5-5 7-2 4l3-4m-11 1c-1-1-1 0-1 2 0 1 0 2 1 1v-3m67-12-1-2c-1 0-2 2-2 6v6l2-4 1-6m-44 1 4-6-2-1c-2 0-6 7-5 8l-2 3c-2 1-2 2-1 2s4-2 6-6m-28 1c-1-1-1 0-1 1s0 2 1 1v-2m36-13 5-10c2-4 3-5 1-5v1l-1 1-4 2-3 3v5c-3 2-4 5-3 6 2 1 2 1 5-3m45-11c-1-1-1-1-1 1l1 6c0 2 0 2 1-1l-1-6m-132-1-3-3 2 3c3 3 4 3 1 0m-20-2-2-3 1 2 1 1m114-2c2 0 4-5 4-8s-10 5-11 9c0 2 1 2 3 0l4-1m-133-7a170 170 0 0 0-3-10v4c0 4 3 12 4 12l-1-6m178 1c0-4-4-12-5-12l6 15-1-3m-50 0 4-3h3l1-3c1-2 1-2 1 0l1 2 1-5c0-3 0-4-2-4l-2 1-4 3-5 4-2 2h1l1 1c-1 1-3 1-3-1l10-10 3-2 2-1c2 1 0-6-2-12-3-5-4-6-6-3l-4 2-3 1-1 3 2-2c3-3 3-2 0 2-6 7-8 14-6 17 1 1 2 0 5-5l5-7c2-3 7-5 8-5 0 1-1 2-3 2l-11 13c-1 4-1 4 1 8l2 4 3-2m-10-22c2-5 7-11 10-12 2-1 2-1 0 1l-2 2 3-1c3-2 3-2 1-4l-3-1-2-1c-1-2 0-4 2-1l2 1c2 0-1-3-7-7l-7-4 1 2c4 1 3 2 0 1l-4-2c-1-2-1-2-2 0-6 8-7 18-3 26 1 4 2 4 2 2l1-4c0-3 4-13 5-12v-1c0-2 3-5 6-6 1-1 1 1-1 4-7 9-11 23-6 27 1 1 2 1 2-3l2-7m-126 5-1-1v2c2 3 2 2 1-1m67 1-1-1v2c1 2 2 1 1-1m-71-2c0-2 0-2-1-1v3c1 2 1 1 1-2m63-1h-1c-1 1-1 1-1-1l-1-5-1 2 1 4c1 2 3 2 3 0m-8-1-1-2v2l2 1-1-1m-54-9c1-7 0-9-1-5v13l1-8m57 4-2-2-1-3c0-1 0-2-1-1l3 8 1-2m127 1-2-1v1h2m-133-5c0-1-4 1-4 3l1 1c1 1 4-3 3-4m-55-3-1-6-1 2c-1 2 0 9 2 9v-5m55 0v-7c1-6 1-6-1-5l-4 1c-1 0-2 0-2 2l1 1 3 1 1 1c-5 0-5 0-5 5 0 2 0 2 3 2l4-1m63-2 1-4 1-4 1-4 1-3 1-1h1l-2-1c-1-1-2 0-2 1h-1c-1-2-1-2-3 0s-2 3-2 8l2 8c1 2 2 3 2 0m-51-6c-1-1-1 0-1 3 0 2 0 3 1 2v-5m-59 2-2-2c-2 0-1 2 1 2l2 1-1-1m-1-5 2-1v-1l1-1c-1-2-7 2-8 4s-1 2 1 1c1-2 2-2 4-2m-10-7v-10a1333 1333 0 0 1 0 10m114 6-2-2 1 2c2 3 2 2 1 0m-104-16v-1c-3 2-7 9-7 14l3-4 4-9m-120-1a560 560 0 0 1 28-22c6-5 13-10 13-12a396 396 0 0 1 18-33h-4c-3 1-5 2-7 6l-4 7v2h-1c-1-1 0-2 1-6 4-5 4-6 0-3l-2 3h-2c-3-1-12 8-16 15-3 6-3 5 0-1 1-3 0-2-4 2-7 7-10 11-15 22l-5 10 1-5 4-8c0-2 6-10 15-21l2-3-7 3-7 3 8-5 10-5 5-4a7218 7218 0 0 1 20-14c6-3 5-3-6 0l-7 2-9 4c-8 3-9 4-17 12a88 88 0 0 0-27 52l-2 12v4l8-8 9-9m227 9-1-1-1 3c0 3 0 3 1 2l1-4m-113-9-1-1-1 2c0 2 0 2 1 1l1-2m111 2v-1l1-1-1-2c-1 0-2 1-2 3l1 2 1-1m-107-16 7-9c4-4 5-7 1-3l-11 15c-2 4 0 2 3-3m-4-3h-1l-1 1 1 1 1-2m76-7 4-7 3-7-3-2-5-4c-2-1-2-1-4 3l-2 4 4 3 3 4-1 4v4l1-2m10-19c2-4 2-4 0-7l-6-6-3 4-2 4 3 3 6 6 2-4m-77-5 2-3 4-7c-1 0-4 3-4 5l-2 2-2 4c-1 4-1 4 1 3l1-4m-66-9 5-11-6 11c-4 6-6 11-5 11l6-11m65 4c0-3-4-11-5-9h-1c1-5 0-6-2-5v-4c0-2 0-2-1 0h-1c0-3 2-3 3-1l2 3v-1l-1-1 5 9 1 3c2 2 2 2 3 0s1-2-1-4v-5l1-1 1 2v2l2 2c0 2 1 2 3-1 3-5 4-8 2-8-1 1-2 0-1-2l1-1v-4c1 2 2 3 1 4 0 1 0 2 1 1l3 1-1 1h-2l-1 5-1 3c2-2 7-9 6-11l1-1 1-1 1-2c2 0 7-10 7-11l1-1c2-2 1-7-4-15l-12-18-8-15c-6-18-9-25-11-25l-4-4c-4-3-6-3-10 1a62 62 0 0 1-25 16l-5 2-3 1-2 1 1 1v9a184 184 0 0 1 5 8 136 136 0 0 1 20 29 1025 1025 0 0 1 11 15l1-1v1l-1 3v2l-1-1v-2c-2 0-3 0-3 3-1 2-1 2 2 2s4 1 5 4l3 5 4 7c1 3 3 6 4 5l1 1-1 1v3c1 2 2 3 3 2l2-3m82 1 1-2-2 2v-4l1-2v-1h2c1-1 1-1 0 0-2 2-1 3 1 1 1-2 0-3-3-6l-4-4-3 5-2 5 2 2 4 5 2 2 1-3m4-14v-1c1 1 1 1 1-2 1-3 1-4-2-6l-3-3-2 4c-1 4-1 4 1 8 4 4 5 4 5 0m5-9v1l-2 6v-1l2-6m-127-2c9-1 11-2 11-3 0-2-1-3-2-1l-6 1-12 4c-8 2-7 2 9-1m125 0 1-2c1 1 1 0 1-1h1c0 2 1 1 1-3l1-9c0-3 0-4-1-3s-1 1-1-1c0-3 0-3 1-2 2 3 1-1-1-5-3-4-4-3-5 2 0 3 0 4 2 6 3 4 4 7 0 4-2-3-4-2-4 3v1c1-2 1-2 1 0l-1 3c-3-1-2 3 1 7 2 3 5 3 3 0m-111-8-1-1h-1l1 2 1-1m113-6-2-2c-1-1-1-1 0 0l2 2m3-15c0-2 0-3-1-2l-1-5c-1-3-2-6-4-6v8l6 8v-3m-67-6-1-5-1-1h1v-1c-1-3-2-2-2 2s2 10 3 10v-5m-89 2h-1l-2 1h2l1-1m-17-3c-4-3-12-11-15-17-3-4-7-6-10-4l-2-1c-2-1-2-1-2 1l2 1v2l-1 2c1-1 2 0 3 1 2 2 3 3 1 2l2 3c2 1 3 3 2 3l-6-4-7-6c-2-1-5-7-4-7 1-1 1 0 1 2h2l3-1h7c4 0 4 0 3-2-3-2-6-9-6-10l3 3c0 2 2 5 4 6 2 2 15 5 17 3v1c-1 2-1 2 2 2 3 1 12 7 10 7l-3-1-15-6v4c-1 1 0 1 3 1l4-1-3 2c-1 1-3 2-4 1l1 3c5 5 8 5 13 0l2-1-3 4-4 3 4 3h5l2-2 9-11c3-6 2-2-2 5l-3 8v1h-1c-1 1 0 1 1 1l2-1 2-1 4 1c0 1 1 1 2-1 2-2 2-3 0-5h1l3-1-1-1-4-4h2c4 3 4 2 1-1-4-3-5-6-1-3l-2-2c-2-3-3-5-3-9l-1-6-1-2v2l-1 6v7c0 3-3 7-5 6l1-2c1-1 1-5-1-4-1 0-2-4-2-12l-1-7c0-2 1-1 2 1 3 4 4 8 2 6-2-1-2-1-1 1l1 1 1 3v4c1 1 1-1 2-5 0-7 0-7-2-10-4-3-4-5-7-15-2-7-3-8-1-8h1c-1-2-1-2-4 0-2 0-2 0-1-1v-2l3-1c3 0 4 1 7 3 3 3 5 4 4 2-1-1 0-3 2-4l1-3-3 1-2 2 1-2-1-3-4-3c-2-2-3-2-5-2l-3 1 3-1c1-1 4-2 7-1 4 0 7-1 5-4v-3c1-3 1-3-2-2l-2 3c0 2 0 2-1 0l-1-2h-2v-1l1-2c-1-1-2-1-4 1l-1 3c0 1-1 2-3 2-3 2-4 1-2-1l1-2c-1-1 0-3 1-5 3-5 3-7 0-7l-3-1c-3-2-4 1-1 4 1 2 1 2-1 1v1c1 1-1 11-3 12v1l-1 1-2 4v5l-1-5c0-4 0-6 2-7 2-3 2-3 1-6l-1-4c1 0-3-4-6-4l-5-3c-3-2-5-2-3 0v8l-1-3-1-3v2c-2 4-1 6 6 9l7 3c0 1-10-2-13-4-2-1-2-1-2 1l-1 7c0 4 0 4 5 6l8 3 6 2c2 2 5 16 5 17v9c-1 1 1 7 3 10s3 6 1 5c-2-2-6-10-6-14-1-4-1-6-6-9-4-5-5-5-9-4h-4l2-2 3-2-3-3c-3-2-4-2-9-2l-5 1 4-2 4-3-1-2c-2 0 1-23 5-33v-6c-1-1-1-1-2 1v4h-2l-1-2c-1 0-1-1 0 0 2 1 1-2-1-4l-1-2-2-1-2 2h2l-2 3c-2 0-1-3 1-6l1-5v-3l-2 3-2 5-2 3-6 12-1 5-4 13v22l1-3v-15c1-7 4-17 5-17l-3 18 1 1 1 2c0 3 1 3 2 3h3c0 1-2 2-5 2l-3 2 1 1c2-1 3 0 1 2-7 7-4 26 7 40l4 3 1 1c-2 3 16 13 27 15 8 3 10 2 6 0m34 1-1-1v1l1 1v-1m66-16-2-3-2 5v3c-1 1 0 3 2 6l3 5v-7c1-5 1-7-1-9m-68 12v-2h-1c-1 2-1 3 1 3v-1m137-5-1-2-2-3c-1-1-1-1-1 1l2 3c1 2 2 2 2 1m-75-9h-1l1 2v-2m-125-4-2-1 2 3v-2m123 0-1-3-1-2-1 1 4 5-1-1m-65-21c1-2 1-2-1 0l-3 4 4-4m-7 0c-2-3-7-7-6-5v1l-2-5a707 707 0 0 1-1 2c1 4 4 8 4 5 0-1 0-2 1-1l1 1c-1 1 3 4 4 4l-1-2m25-6 5-2a141 141 0 0 1 7-6c-1 0-13 4-15 6l-5 4-2 2 4-2 6-2m-3 3c1-1 0-1 0 0-2 0-2 1-1 1l1-1m-15-1h2c0 1 2 0 1-1-1-3-9-9-12-10-4 0-6-1-5-2l-2-2c-2-1-3-1 1 6l6 7 3-2c2-1 2-1 1 1-2 2-2 2 0 2 1 1 3 0 3-2h1v4l1-1m-32-1-2-1c-1-1-1-1 0 0 1 2 2 2 2 1m59-12c5-1 6-2 7-6 1-5 0-9-3-13l-2-3-1-1-2-1c0-2-5-8-6-7l-1-1h-2l-1-1h3l-2-3-4-5 3 5v1c0 1-4-3-4-5l-2-2c-1-2-2-2-2-1-1 1-1 0-1-2v-3l-3 3c-4 4-4 5-5 12v6l-2-3c-2-2-2-6-3-14 0-8-1-10-2-12-2-1-2-1-4 1l-2 2c-2-1-3 0-5 4-2 3-2 3 0 3 3-2 10-2 10-1l-2 1-3 2-3 3-1 1-1 8v4h8l2 1 3 1 7 2c4 2 12 9 12 10l-6-1c-6-2-12-2-14-1v2h-1l-2 1h-1l-1 1 4 1c3 1 5 5 4 7l2 4 2 2-1-3c-2-3-2-4 1-2l1 2 2 2v1l1 6 1 4 8-5 14-7m59 7c-2-5-3-6-4-4-1 1 1 3 3 5l4 3-3-4m-123 0-1-1-1 1 1 1 1-1m3-2-1-2v2c0 3 1 2 1 0m-6-1h2c1 1 1 1 1-1v-3c1 1 1 1 1-3s0-4-3-4l-8-2-6-2v4l2 5c3 0 8 3 6 3l2 2 3 1m115-3c1-1 0-1 0 0-2 0-2 1-1 1l1-1m-41-1h-2c-1 1 0 1 1 1s2 0 1-1m45-3c-2-1-3 0-2 2 0 2 0 2 2 0 2-1 2-1 0-2m-43-1c0-3 0-3-1-1v4l1-3m5 0h-1l1 2v-2m26-4 2-3c-2 0-8 5-8 6 0 2 3 0 6-3m-23-4 3-4-2 1-4 2-3 3c0 3 1 2 6-2m-39-8-10-4 4 2 6 3v-1m24-9c0-3-2-6-6-12-8-11-10-13-11-19 0-4-3-9-4-9v-1c2 0-3-6-6-6l-4-1-5-1-3-1-1-3 1-1h1l-2-1c-1 0-2 1-2 3l-2 5-2 2h3c3-1 5-1 6 1h4l3 1c1 1 0 1-2 2l-4 2-2 1-1 3h-2c0-2-4-4-6-3v3c3 0 4 4 3 7 0 3 0 3 2 1l2-4h4l4-2 3-2c2-1 2-1 2 2l-1 3c-1 0-1 1 1 2 1 1 1 1-1 1-3-1-6 2-4 3v2c-2 2-3 12-1 15 1 1 1 0 1-4l1-8 1-5v-1c2-1 3 1 3 5 0 3 0 3 2 2l1-6c0-3 3-9 4-9v3c-1 2 0 4 3 11 5 9 14 21 14 18l1-1 1 3 1 2v-3m-60-8-1-4v-1h5c2-1 3-2 3-8s3-17 6-18l6-1c4-1 5-1 4-2l-4-1c-3 0-4 0-6-2-1-1-2-1-6 1l-6 3 1-4c2-5 9-10 14-10l4-2-3-6-15-23-8-25-1-8c0-3 0-4-6-8-3-2-6-4-7-3-4 0-15 4-17 5-2 2-1 3 1 2h4l2-2 1-1c1 1 2 0 4-1 9-6 4-1-7 7-8 6-12 8-18 10l-4 2v6l2 8a756 756 0 0 0 18 26 303 303 0 0 0 19 31l3 10a184 184 0 0 1 10 22l2-3m-6 0-6-12c-1 0-1 1 3 9l1 4 1 1 1-2m-4-2c-2-2-5-4-5-2l6 5-1-3m18-3-2 1c-1 1-1 1 0 0l2-1m34-2-2-2 2 2c0 2 2 3 2 3l-2-3m-64-7c-2-3-2-1-2 3 1 2 1 2 2 1v-4m34-8c2-3 2-4 1-4-2 0-5 8-5 13v5l1-6 3-8m-29 8-2-2 1 2 2 2-1-2m45-9c-1 0-4 1-4 3 0 1 1 1 2-1l2-2m21 1 1-1c2 0 6-4 5-4l-7-4c-6-3-8-3-3 2 2 2 3 4 1 3s-1 0 1 2v3l-1 1h2l1-2m-69-1c-1-1-1-1 0 0l1 2-1-2m-3-4v-1l-1 1v1l1-1m82-5c3-3 3-4 2-6v-1l1 1h2l1-3 1-1v-2l1-1c1 2 15-24 13-26l1-1 1-2 2-6c2-6 1-7-1-1-1 3-2 4-3 3-2 0-2-2-1-2h1l1-1c1-3 1-5-2-5v1c2 1 2 1 0 1h-3c-2-2-4-1-4 1s0 3-2 3l-3 1 6 3 4 2c4 3 1 2-6-1l-6-3-4 4-3 4 2 2 8 4 3 1-9-3-5-2-4 3-3 4 7 4 8 5c2 1 2 1 0 1-3 0-15-7-16-9l-1-1-8 1-2-1c-2 1-2 1 0-1l11-5-4 3c-3 2-3 2-1 2l5-1a106 106 0 0 0 20-23l2-2 2-3 9-5c6-3 9-8 9-13 0-3-2-2-2 0-1 1-1 1-1-1l3-5c2-1 3-4 3-5 1-3-1-7-3-7-2 1-8 9-10 14-1 5-2 7-8 12-4 5-6 7-7 11-1 3-2 4-2 2 0-4 2-7 8-14 6-5 7-7 8-12 1-4 2-6 6-10l5-7c0-1-1-1-2 1l-2 1-1 1-1 1-1 1c1 1-6 12-7 11v2l-2 4-4 4c-3 4-5 4-2 0 2-3 1-3-3-1-4 3-5 5-1 5h2l-2 2-3 2-3 3c-2 4-3 3-1 0v-1l-2 3-2 3-2 1c-1-1-1 0-2 2 0 3-2 5-3 3l5-11 2-4 3-4 4-3-3 3-2 3c2 0 8-7 8-10 0-1 2-4 5-6 5-5 8-10 13-22l7-13c2-3 3-4 0-6-2-2-2-2-9 2l-3 2c-3 0-4 1-4 3v3c-2 2-4 10-3 10l-2 4c-2 1-4 5-4 7l-3 3v-3l1-3c1-3 1-3-1-2h-1l-1-3h1c2 3 5 2 6-1l1-5 1-4c2-3 1-5-1-3l-1 1c0-2 5-9 6-9l1-1h-2l-3 1 1-1c2-1 2-1 1-2-4-1-6 0-5 2v8l-1 2h-2c2-2-1-2-3 0l-4 1c-1-1-2 0-2 1l-1-1v-7l1-5-6 4h-2l-2 3-3 3v-3l1-4-1 1-3 2 1-2 2-3v-1h3l1 2h1l-1-4-3-2-2 2-3 5-1 6-1 3 2-3 2-1-1 1c-1 1-4 9-4 14l-2 3-1 4-3 6c-3 3-3 4-2 7l4 6c2 3 3 5 2 11l-1 3 1-3 2-2-1 2 1 2v3h-1l-1-2-1 5c0 6-2 13-3 14s2 7 6 10l1 3c0 1 15 15 19 16l2 2 2 1 2 2c0 2-11-5-18-12l-8-7-2 2v2l-1 2-1 1-1-2c-2 0-2 2 2 6 4 5 4 7-1 2l-4-1c-2 1 0 3 7 5l9 5c1 2 13 9 15 9l3-4m-45-12c3-1 3-1 2-2-3 0-10 4-12 8-1 2-1 2 2-1l8-5m66-14 3-6 3-4c1-3 2-4 1-6 0-3 0-3 1-2 1 2 2 0 3-6v-4l-1 3-2 5v-5l-2 4c0 4-3 11-11 26a115 115 0 0 1-7 11c0 2 7-9 12-16m-54 2-2-1c0-1-1-1 0 0l2 1m6-6c0-2-1-2-4 0-2 1-2 1-1-1 2-2 2-3 1-3-2 0-3 4-2 6s2 2 4 0l2-2m-24-10c-1-1-1-1 0 0l1 2-1-2m-57-8-2-2c-1-1-1-1 0 0l2 2m135-7v-2l-2 2v1l2-1m2-4-2-1-2 1h4m-91-13h-1l1 2v-2m29 0c0-2-2-3-2-1v1l2 1v-1m-2-6-1-2v2l1 1v-1m51-6a124 124 0 0 1 8-9l1-3 3-3 1-1 1-1c1 0 2-1 2-3 1-2 1-2 2-1v-10c-1-5-3-5-2 0l-1 4-3 4-2 3c-1 0-3 4-3 8l-2 1-1 1-3 7c-2 2-6 5-5 3l1-1-5 8c0 1 3-1 8-7m-116 3 3-3-4 2-3 3c0 2 0 1 4-2m62-1c-1-1-2 1-1 2h1v-2m80-17 3-4 2-4-8 8c-1 1-1 1-1-3v-2l-3 4v4c1 1 2 1 4-1l3-2m-74 2-1-1-1-1 2-1h1l-2-1c-3 0-3 0-2 3 1 2 3 3 3 1m83-3h-2c-1 1 0 1 1 1s2 0 1-1m-9-11 1-3v-1c-1-3-2-1-2 3 0 5 1 5 1 1m-43-13v-2l-3 9c0 3 0 3 1-1l2-6m42 4v-2l-1 4 1-2m9-6 2-2c0-3-2-10-4-10v-4c0-3 0-4-2-4l-4 2-4 3c-1 1-1 1 1 2l2 4 1 1c1-1 1 1 1 4s0 5 2 7l1 3 2-3 2-3m-15 2 1-3c2 0 3-4 2-7 0-2-1-3-2-2-3 2-6 8-5 9l2 3c3 4 3 4 2 0m-39-4h1l-1-2c-2-1-2 0-2 1 0 2 0 2 1 1h1m5-1c1-3 1-3-1 0v2l1-2m-9-1h-1l1 2v-2m22-3 5-5-5 3c-4 3-7 7-5 7l5-5m-26 1 1-2v-8l-2-1c-1 0-3 2-4 6l-3 6 4 1c3 0 4 0 4-2m68-2 4-6 2-4-3-2-3-6-1-5-5 3-4 3 3 2 2 7c0 4 2 10 3 10l2-2m-55-1c1-1 0-6-1-6l-1-3c0-9-2-8-4 1-1 4-1 5 1 7 1 1 1 1 1-2v-2l1 4c0 3 1 4 3 1m-9-9 1-3 2-3v-3c2-7-3-5-7 2-2 5-2 5 0 4l2 1v2h2m77-8v-4l-2-7c-1-6-3-6-8-1-4 3-4 3-2 4s2 2 2 5c0 6 1 8 3 8l1 1c0 2 4-2 6-6m-64-1c1-4 1-5-1-9l-2-3v2l-1 1v11l1 4 3-6m70-6 3-5c0-3-1-5-2-5v2c1 1 1 1 0 0s-2-1-3 1l-1 1c0-2 2-3 3-5 2-2 3-8 0-9l-5 3c-4 3-5 5-3 5s3 5 3 11c0 5 2 5 5 1m-81-1 3-1c2 1 2 0 3-4 2-6 1-7-3-3-3 3-6 9-5 9l2-1m18-14-1-2v-4l-1-5c-2 0-6 3-9 7-1 3-1 3 1 2l2 1 2-1 2-3 1-1-3 12v5c1 2 1 2 4-3l2-8m70 8c2 1 7-8 6-10 0-3-1-3-2-2h-1l2-2 1-4c-1-4-4-4-8 0-3 2-3 3-2 4l1 4v3l2-2 2-1-2 3c-2 1-2 2-1 3v4h2m13-13 3-4 1-5c2-4 2-4 0-6-2-1-2-1-6 1-3 2-4 3-3 4v8l1 6 4-4m-74-5c2-6 3-7 1-9l-3-4c0-3 0-3-2-2l-5 5c-2 3-2 4 0 4v3c0 2 0 2 1 1 2-3 2-2 1 3v6c1 1 2 1 3-1l4-6m87-5c7-7 9-15 4-13l-7 2c-4 2-4 2-3 4 2 2 3 5 1 5-1 0-2 4-1 5 1 2 2 1 6-3m-79-7c3-4 3-4 2-9l-1-6-5 3c-4 4-4 4-3 9 0 4 1 7 3 7l4-4m95-4 4-6h-6c-2-1-5 2-6 6l-1 5-1 2c0 1 4-1 10-7m-174-5c2-3 1-2-2 1l-1 2 3-3m88-5c2-3 5-12 3-12-1 0-6 3-7 5-2 2-2 4-1 9 1 4 2 3 5-2M15 66l1-2-2 2-1 2 2-2m54-1h-1l1 2v-2m182-10 2-2 8-6 6-5-6 3c-3 1-6 4-6 5l-3 1-6 2c-3 3-3 4-4 8v5l4-4 5-7M25 57l4-3-4 2c-3 2-6 4-4 4l4-3m367 713c-6-2-6-3 0-1h12l-7-1c-5-1-10-3-7-5l3 1v-1l1-1c3 1 4 0 3-2l-2-1v2c2 0 2 1 1 1l-2-1c-1-2 1-4 2-2h4l11-5c11-6 15-8 20-8h2l-8 6c-5 5-4 5 3 0l4-2-7 6-7 6-2 1h-1c0-1-10 1-11 3h6l-3 1-2 1c0 2 11-1 19-5 8-5 8-5 5-2-5 5-14 9-21 10s-11 1-16-1m22-15-2 1c-1 1-1 1 0 0l2-1m10-4 2-2c-3 1-9 6-7 6l5-4m-38 12c0-2 7-8 9-8h2l-1 1c-3 0-5 3-4 5h-1l-2 1-1 1h-2m-3-6-1-2h1v2m55-4 1-5 1-4c2-1 1 3-1 8l-1 1m-3-5 1-3v4c-1 1-1 1-1-1m-29-9-2-4 3 4c4 6 3 7-1 0m3-3-3-5 7 10-4-5m-273 2 1-4h1v4c-2 2-2 2-2 0m284 1 3-1h11c2 1 2 1-1 1a163 163 0 0 0-13 0m-283-8c0-1 2-4 3-3v2c-1 2-3 3-3 1m235-3c0-1 0-2 1-1v2c-1 1-1 0-1-1m2-5 1-3v2c-1 3-3 4-1 1m-218-12 2-3-1 2-2 3 1-2m206 0 6-14-1 4-4 8-1 2m-1-3-1-3-1-2-2-3c-1-1-1-2 1-6l3-6-2 5-1 6 1-2c1-3 3-5 3-3h1v3l-2 7 2-3 2-4a3087 3087 0 0 0-4 11l-1 3 1-3m1-12h-1l-1 3 1-1 1-2m-130 0 3-1v1l-3 1v-1m53 0 2-2h7l-6 2h-3m-87-3c0-1 0-2 1-1v2c-1 1-1 0-1-1m171-5-3-3-2-3v-3l7 12c-1 0-2-1-2-3m-70 1h2l-2 1v-1m17-5 2-2 1-2h3l-3 3-3 1m40-4 2-2c1-1 1-1 0 0l-2 2m-3-2 3-3 2-4c-1-1 0-2 1-2 1-1 2 2 1 4v1c1-1 2 0 3 1 1 2 1 3-1 3l-1-2h-1l-1-2c0-1-1-1-3 2l-3 2m11-7-1-3h1l1 3h-1m14-6-1-4 2 2c1 5 1 6-1 2m-39-2 1-2h1l-1 3-1-1m-6-7h1l4-3c3-2 3-2 1 0-3 4-6 5-6 3m-221-2 2-1-2 1c-1 1-1 1 0 0m263-1c0-1 0-2 1-1v2c-1 1-1 0-1-1m-34-12 1-2v4c-1 0-2-1-1-2m38-9-1-3c-1-1-1-1 1-1 3 0 3 1 1 4l-1 3v-3m-11-4h1v2l-1-2m-14-6 4-1c1 0 1 1-1 2-3 1-5 1-3-1m26 1v-2l1 2v1l-1-1m-29-1 2-2c1-1 1-1 0 0l-2 2m26-1 2-2 2-1-2 2-2 1m-20-7 1-3 1 1v2c1 1 0 2-1 2s-2-1-1-2m25-2 1-3 1 3c-2 3-3 3-2 0m-18-9c3-2 3-3 2-1l-2 2v-1m7-3c0-5 1-7 1-2 0 2 0 3 1 2l-1 2c0 2-1 3-2 3l1-5m17 4 2-3h1l-1 3-1 1-1-1m-2-2c0-1 0-2 1-1v2c-1 1-1 0-1-1m-9-18 1-2-1 2c-1 1-1 1 0 0m16-1 1-3h1l-1 2-1 1m-1-6c-1-1-1-1 0 0l1-2v-3c1-1 1 0 1 2-1 5-1 6-2 3m0-13c0-2 0-3 1-2v3c-1 1-1 0-1-1m-23-15-1-3 2 2c2 4 2 4-1 1m2-3h1v2l-1-2m4-1-5-5 4 3a456 456 0 0 0 1 2m-8-8-2-4c-1-2-2-5-4-6l-2-3c2 0 6 5 7 8l2 5c3 2 2 3-1 0m-38-15c0-2 1-3 2-3v-2c0-2 0-2 1 0 1 3 2 3 2 2 1-2 1-2 1 0l-1 1-2 2-1 3v-5l-1 2c-1 2-1 2-1 0m25 1v-2l1 1c1 2 0 3-1 1m-15-3 1-1v2l-1-1M81 201l3-6c4-6 2-5-3 1-4 4-5 5-3 1 1-1 1-2-1-3-1-1-1-1 1-4l1-5-3 5-3 4 1-3v-3l2-6v-7c-1-3-1-4 1-2l1 4 1 2 1 1 1 3v7l-1 2c-1 3 1 2 3-1 1-2 3-4 12-9 6-3 6-3 1 1l-8 7v3c-3 4-2 3 3-1 2-3 4-4 3-2l-2 4-4 6c-2 3-2 3-4 1-1-1-1-1-2 1-2 1-2 1-1-1m-3-20-1 1v1l1-2m54 12v-1l1 1v1l-1-1m106-4h2l-2 1v-1m-153-6c1-1 0-2-1-3l-1-3c1-1 1 0 2 1 1 2 1 3 2 2l1 1-1 3-1 1-1-2m-12 0a311 311 0 0 0 0-6c1 0 2 3 1 5l-1 1m26-10-1-2 2 2 1 2-2-2m-37-43v-2l1 1c1 2 0 3-1 1m-3-6c0-1 1-2 3-1v1h-3m8-1v-1l1 1v1l-1-1m-10-3c-1-1-1-1 0 0l1 2-1-2m4 0h1l1 1h-1l-1-1m87-9v-1l3 1h-3m30-3h2l-3 1 1-1m4-6h7c4 1 4 1-2 1s-7 0-5-1m41 0c-2-1-2-1 0-1l3 1h-3m-47-1h2l-2 1v-1m-41-2 9-5c22-9 29-13 42-30 9-10 13-17 18-27 4-7 8-15 10-16l2-3-2 3-8 15a186 186 0 0 1-27 39c-5 6-20 16-32 21l-8 3c0 2-4 1-4 0m47-1 1-1 1 1h-2M21 90l2-2c0-2 1-2 1-1l-2 2c0 2-1 2-1 1m121-1 3-2v1l-2 1h-1M17 85l-3-2 5-5 2-1 1-1c2 0 2 1-1 3l-3 2-1 1 1 1c2-1 4-1 4 1v2l-1-1v-1c-1-1-2 0-1 1h-3m31-6c-2-3-1-4 1-1l1 4-2-3m-33-2c0-2 3-5 4-6 3-1 3-1 2 1l-1 2-1 1-3 3-3 3 2-4m46-19h1l1 1-1 1-1-2m-3-1h1v2l-1-2m130-12h2l-2 1v-1m-24-6c1-5 7-9 22-18 10-6 39-14 36-10h-2c-2-1-22 6-24 8l-4 1-2 1h-1l-1 1-2 2a90 90 0 0 0-17 10c-1 0-4 4-4 6l-1 2v-3m54-24 2-2-1 2-3 2 2-2m100 619 1-3c2-1 2-1 1 1 0 2-2 4-2 2m7-17 2-3v1c-2 3-2 4-2 2m15-4h1v2l-1-2m-31-4h1v2l-1-2m8-3c0-5 1-9 2-7v5c-2 4-2 4-2 2m-6-5h1v2l-1-2m2-1v-7c1-4 2-5 2-2l-1 7c0 4-1 4-1 2m3-2h1v2l-1-2m-11-1c0-2 0-3 1-2v3c-1 1-1 0-1-1m35 1-2-6-2-6 5 12h-1m5-4c-1-1-1-1 0 0l2 2-2-2m-43-1v-4c0-2 1-2 1 1 1 4 0 5-1 3m19-2 1-1-1 2v-1m-21 0-1-1c-2 0-2-1-1-3s1-3-1-7c-3-5-3-8 0-4v1l1 2c1 2 1 2 1-1l1 5 1 9-1-1m-57-11-6-10 2 1 3 2 1 2 1 2 1 1v1l1-2-2-1-1-1v-4l2 2c2 3 6 3 4 1h-2c-1-1 0-2 1-1h2a1231 1231 0 0 0 3 6c-2-3-3-2-2 0v2h-3c-2-2-3-1-1 1v1l-4-3m7-1-2-2v1c0 2 2 3 2 1m9 2-2-3-4-3v-3h2v1c-1 1-1 1 1 2s5 6 5 7l-2-1m1-5-2-3-1-1-2-3v-2l3 3 3 3 3 2v1c-2-2-3-1-2 1 0 3-1 2-2-1m7 1 1-1c2 0 3 1 1 1h-2m6-5v-2c1-1 2 0 1 2h-1m13-1c-1-2-1-2 1-1v3l-1-2m-42-1-5-2c-1-2-1-2 1-1l5 2h4c0 1-2 2-5 1m15-1-1-2 1-1c1 0 2 4 1 5l-1-2m3-1c-2-1 1-2 4 0l3 1h-3l-4-1m7-1c-1-2 1-2 2-1v2l-2-1m-4-2c-1-1-1-1 0 0l1 2-1-2m-3 0v-1l1 1v1l-1-1m-26-1-2-4c1 0 2 1 2 3 2 2 2 3 0 1m-5-6 1-1c1-1 1 0 0 0 0 2-1 3-1 1m27 0 1-1 1 1-2 1v-1m-29-3v-2l1 1c1 2 0 3-1 1m-1-7h1l1 1h-1l-1-1m4-2c0-2 0-3 1-2v4c-1 1-1 0-1-2m21-2c0-2 0-3 1-2v4c-1 1-1 0-1-2m64-3-1-1c-1 1-1 0 0 0l-1-2v-1l2 1 1 4-1-1m-4-6 1-1v2l-1-1m-56-4v-7l4 3c5 4 5 7 0 7-2 0-3-1-4-3m9 0 1-2c1-1 1-1 0 0l1 1h2c0 1-3 2-4 1m26 0c0-1 3-2 4-1l-2 1h-2m18-2c-1-1-1-1 0 0l1 2-1-2m-30 0 2-1 1 1-2 1-1-1m-17-2-1-5c0-2 0-3 1-2l1 3v5l-1-1m5-2 1-3 2-1c2-2 3-1 2 1l-2 2-2 2c-2 1-2 1-1-1m28-4 1-1v1l-1 1v-1m-57-13-1-6 1-1c1 1 2 1 3-1h1l-1 2-2 5-1 5v-4m25 2 1-3h1l-1 2-1 1m-28-10c0-1 0-2 1-1v2c-1 1-1 0-1-1m61 0 3-1c1 0 1 1-1 1h-2m-70-16c0-2 8-12 12-15l5-5 1-1 1-1c-1-1 0-1 2-1l4 2v1l-2 6c-1 4-2 6-5 9-2 2-3 3-1 2v1l-6 2-8 1-3-1m14-12c7-5 8-7 6-7s-17 15-17 17l2-1 9-9m9-10-2 1c-1 1-1 1 0 0l2-1m26 16 1-2c1 0 2 1 1 2l-1 2-1-2m2-6 1-2-1-1h2l2-1 1-1 1-1 2-3c2-2 2-2 0 2l-3 4-1 1-1 2-1 1-2 2v-3m-46-1 1-5c0-1 0-2 2-1l1-1 1-1c1-1 2 0 2 1l-1 1-4 3 2 1-2 2h-2m32-9c0-3 0-3 1-1l1 2 1 1c-2 2-3 1-3-2m26 0 2-3-1 3c-3 4-3 4-1 0m-49-5 2-3 1-2 6-4 5-4 4-3c3-2 7-2 8 0h-1c-2-1-2-1-1 2s0 4-2 7l-5 5c-3 0-4 2-1 2 1 1 1 1-1 1l-3-1c0-1-7-1-10 1l-2-1m15-8c8-6 6-6-2-1-7 5-7 5-5 5l7-4m-8-4 3-3 2-2-2 3c-2 3-3 4-3 2m31-2 1-2v2h-1m-23-1v-6c-4 3 4-10 9-14l4-5 3-3h5v1c-2 0-2 0-1 2 2 1 1 8-1 12-1 1-3 3-5 3-3 1-2 2 2 1 2-1 2-1 1 1l-6 1c-6 0-7 0-6 2l-1 1c-1-1-2 0-3 2l-1 2m15-19 4-6-2 1-2 2-6 5c-4 5-2 4 6-2m24 11 1-1h1l-1 2-1-1m2-7a286 286 0 0 0 3-8v4l-2 4c-1 2-1 2-1 0m-7-3c0-1 0-2 1-1v2c-1 1-1 0-1-1m-34-7h1v2l-1-2m11-4v-3l6-17 3-3 3 1-1 1c-2-2-1 1 1 3s3 9 0 12l2-1c2-1 2-1 1 1-1 3-4 4-7 3-2 0-4 0-6 2l-2 1m6-11c5-8 5-10 1-5-3 3-7 12-6 12l5-7m17 6c0-4 1-5 1-3v6c0 2-1 1-1-3m11 1-1-2 1 1 1 3-1-2m-1-6 1-4 1 3c0 4-1 4-2 1m-43-7c-4-5-6-9-5-9l1 2 4 6c3 3 3 3 4 2h1l-1 2c0 1-2 0-4-3m42-5-3-6-2-3c3 2 6 8 6 9h-1m-31-3-3-7-2-6-1-4c1-3 2-3 4-2l2-1c0-2 4-1 5 1s1 2-1 1c-4-2-4-1-1 1s5 8 5 12v1c2-3 2-1 1 2-1 2-6 5-8 5l-1-3m1-9c0-8 0-8-1-7s0 13 1 13v-6m-22 8-3-4 4 3c4 5 4 5-1 1m7-1v-1l2 1-1 1-1-1m30-4-3-4-1-2 2 2 2 3 1 1h1c0 2 0 2-2 0m-41-10v-1l1 1v1l-1-1m39-2v-1h1c1-1 1 0 1 1 0 2 0 2-2 0m-36-4c-2-2-2-2 0-1l3 2-3-1m32 1v-1l1 1v1l-1-1m-56-16v-2l1 2v1l-1-1m142 212h1l1 1-1 1-1-2m-2-9-1-1v-1l2 1v2h-1v-1m-20-15 1-1c1-1 1 0 0 0 0 2-1 3-1 1m-10-2h1v2l-1-2m-183-71 1-4v3l-1 1m144 19c0-2 0-3 1-2v3c-1 1-1 0-1-1m6-8 1-1 1 1-2 1v-1m-79-10h1v2l-1-2m4-6c0-1 0-2 1-1v2c-1 1-1 0-1-1m-2-8v-2l1 2v1l-1-1m-11-7 1-2v2l-1 1v-1m-4-3v-3l1 1 1 2 1 1c0 2-2 1-3-1m39-17-4-7 7 10-3-3m-49-6h-1l-1-1h3v2l-1-1m-6-10-1-2-1-2h-1l-1 2-1-1c1-1-2-6-9-14l-6-10 1 1 1 1c1-1 5 2 5 3h-2c-3-3-2-2 1 2l5 7 3 3c0-1 3-1 4 1l4 9v1c-2 1-2 0-2-1m-3-9h-1l-1 3 1-1 1-2m-7-7-2-4c2 1 1-2-1-4-2-3-2-4 1-1h2v-2l1-1 3 3 1 3-2-2c-2-2-3-1-1 1v2-1l-1-1c-1 1 1 5 4 8l1 2-2-1v1c0 3 0 3-4-3m2-1-2-2 1 2c2 3 2 2 1 0m11-5-1-4 4 9-3-5m-4-1-2-4 3 4c3 4 2 5-1 0m27 1v-2l1 1c1 2 0 3-1 1m-6-3-1-4 2 4c2 4 2 4-1 0m2-6c-3-5-2-5 1 0l1 4-2-4m-44 2v-1l1 1v1l-1-1m3-1v-3l-1-2c1-1 3 0 3 2s2 3 5 1l9-2c-1 2-12 5-14 5s-3 0-2-1m37-2c-1-1-1-1 0 0l1 2-1-2m-4-3v-1l1 3-1-2m5-3v-1l1 3-1-2m88 89 1-1h1l-1 2-1-1m5-11 1-1h1l-1 2-1-1m-135-44 1-1 1 1-2 1v-1m-33-1v-1l2 1h-2m-4-1c-2-1-1-2 1-1l1 1h-2m16 0h3c1 1 1 1-1 1-3 0-3 0-2-1m-21-5-2-2 2 2 3 3-3-3m13 0v-1h4l-1 1-1 1-2-1m0-16-5-3h-5c-3 1-4 0-5-1-2-1-4-7-4-11 0-2 0-2 2 1l5 5 5 2c2 2 4 2 4 0l4 3c4 5 4 5-1 4m-2-3-2-1v1h2m-10-1h1l-1-1-2-1-2-1c0 2 2 5 3 3h1m3-2h-1c0 1 1 2 2 1l-1-1m-26 4-6-13 1 1c1 2 3 1 3-1l1 1c2 5 8 11 9 11l-2-3-3-5c0-2 0-2 1 0l5 5 3 4h-3c-1 1-3 0-5-2-4-4-6-5-5-2h1v2l1 1h1c1 1-1 2-2 1m43-10h1v2l-1-2m-17 0c-1-1 0-1 0 0 2 0 3 1 1 1l-1-1m-19-4c-1-1-1-1 0 0l1 2-1-2m21 0v-2l2 3-2-1m-26-6v-1l2 2-2-1m36-13-3-5-1-4c0-2 0-3 1-2l1 2c1 0 4 11 3 12l-1-3m-32-8 1-1v1l-1 1v-1m-7-1 1-2-1 2c-1 1-1 1 0 0m17-8c0-3 0-3 1-2v4c-1 1-1 0-1-2m-13-4c0-4 0-4 1-1l1 5v1c-2 0-2-1-2-5m3-1c0-2 1-2 1-1l-1 3v-2m-2-10 1-2 1 1-1 2-1-1m3-2v-4l1-3v-1h1v3l-1 3c0 2 0 2 1 1l2-1-1 2c-2 2-2 2-3 0m-3-5 2-4v1l-1 4-1 3v-4m134 87c1-4 1-4 2-1v2h-1c-1 1-1 0-1-1m-82-40-1-3h1l1-1v4c1-1 2 0 1 2-1 1-1 0-2-2m14-9 1-1c1-1 1 0 0 0 0 2-1 3-1 1m4 0c2-2 4-4 8-5 5-1 3 0-2 3a768 768 0 0 0-6 2m16 0 1-1v2l-1-1m-8-13-1-5 3 3v3l-2-1m6-10c-4-5-5-7-3-6l7 10-4-4m-7-6-5-9 4 6c4 7 5 8 1 3m-3-1c-1-1-1-1 0 0l1 2-1-2m-7-10c1-3 2-4 2-2l-1 2h-1m16 4-2-2 2 1h3v2l1 1-4-2m-6-9c-1-1-1-1 0 0 2 1 2 2 1 2l-1-2m-49 0v-1l-1-1-6-13 2 1 1 3 2 3h1v-1 2l1 4v3m1-5c-1-1-1-1 0 0l1 2-1-2m-8-26 1-2h1l-1 3-1-1m4-4 1-3h1v3h-2m-9-14c-1-1-1-1 0 0l1 2-1-2m-3-4-2-2-1-1c1-1 0-3-1-5l-1-4c1 0 7 13 6 14l-1-2m-14-5-4-8-6-9c-2-3-2-6 0-5l2-1h4l1-2 1 1c-2 1-2 5-1 5l3 4 4 9 2 5c-1 0-2-1-6-10l-5-8-2-2 2 4v5l2 2c1 0 2 1 2 3l1 4 1 3h-1m-9-20v-1l-1 1v1l1-1m25 16c-1-1-1-1 0 0l1 2-1-2m-24-1-1-3c1-2 3 0 2 2l1 1h1-3m21-4c-3-4-2-5 0-1l2 4c-1 0-2-1-2-3m-26-5c-4-7-4-9 0-4l4 8-4-4m12-7v-1l1 2-1-1m-14-4 2-1 2-1h1l3-1 1-1h3c6-3 5-2 0 1-6 4-12 5-12 3m30 0v-2l1 2v1l-1-1m3-4-2-6 2 5 2 6c-1 0-2-2-2-5m-37 3 1-4c1-1 2 0 2 2 0 3 0 3-3 2m4-2 2-1 1 1-1 1-2-1m104 63 2-1-1 2c-2 1-2 1-1-1m6-11 2-2v1c-1 2-2 3-2 1m8-11v-1l1-1 1-2v4h-2m-38-12-1-3h1l1 3h-1m21-5 2-5c0-2 6-8 8-8l-3 3-5 8-3 5 1-3m-9 0 3-2-1 1-2 1m-11-7 2-11c3-10 3-10 1-10-2 1-2 0-2-2h2l2-3c1-5 1-5 2 0 1 4 1 4 1 1l1-3v3c0 3 0 3 3 3l5 2h-2c-3 0-5 1-5 5l-1 6v4c-1 4-2 3-2-1 0-3 0-4-1-3-2 2-1-1 1-6l1-5-4 11-4 9m20-5 2-1 1 1-2 1-1-1m-8-10h1v2l-1-2m17 1 1-2-1 2c-1 1-1 1 0 0m25-10 1-1-1 2v-1m-43 0c-1-1-1-2 1-2l1 1-2 1m6-6c0-2 0-2-4 0-3 2-4 1-2-2 1-1 2-2 1-3h1c1 2 2 1 6-4 4-6 5-6 1 0l-1 5 1-2c1-1 1-2 2-1l3-2h2l-3 3c-2 1-4 3-4 5-2 4-3 4-3 1m-21-2-1-3 3 6-2-3m7 0c-2-2-4-10-2-10l1-11 1-2 2 10v12c0 2-1 2-2 1m4-5 1-13c2-10 6-19 8-19l1 6 2 9v5c-1 1-1 1-1-1v1l-5 6-4 4-1 3c-1 1-1 1-1-1m6-17 1-9c-1-1-4 10-4 15 0 7 2 4 3-6m20 13c0-1 0-2 1-1h1v2c-1 3-2 3-2-1m25 0h-1v-2l2-2v4h-1m-34-5 1-1c1-1 1 0 0 0 0 2-1 3-1 1m6-10 1-4 1-2-1 2c-1 2-2 2-2 1l1-4h3l-1 5-2 2m-25-1v-1l1-4 1-2v7h-2m46-13c1-4 3-6 3-3l-2 5c-1 1-1 1-1-2m4 12h1v2l-1-2m15-29 1-4v7c-1 1-1 1-1-3m19-23 1-1c1-1 1 0 0 0 0 2-1 3-1 1m-40-41 1-1c1-1 1 0 0 0 0 2-1 3-1 1Z"/></svg>