<svg xmlns="http://www.w3.org/2000/svg" viewBox="0 0 564 722"><path d="M241.3 583.5c-2-3.8-8.1-19.1-10.8-27-2.4-7.1-13.6-49.4-15.1-57-.3-1.6-1.1-3.9-1.8-5-.6-1.1-1.2-3.1-1.2-4.5a53.3 53.3 0 0 0-2.6-15.6c-.5-.4-.7 1.3-.4 4 .4 3 .2 4.6-.7 5-.8.3-.8.7-.2 1.3.6.4 1 4 1 7.8 0 3.9.3 8.8.7 11 .3 2.2.9 8.5 1.3 14a166.8 166.8 0 0 0 2 19c.2 2.8 1 6.9 1.9 9.2 1.3 3.6 1.3 4.3 0 5.3-3.4 2.9-6-1.9-7-13.3-.4-3.1-1-5.7-1.3-5.7-.4 0-.6-1.5-.4-3.3.1-1.7-.3-5.9-.9-9.2-1.4-7.7-1.8-11.2-3.1-25.2-.4-4.8-1.7-5.3-1.8-.7l-.1 3.9-.9-4.5c-.5-2.5-1.6-13.5-2.4-24.5-2-26.8-3.3-38.6-4-39.3-.2-.3-.6-.1-.6.4a430.9 430.9 0 0 0-.6 55.4c.9 7.2 1 8.3 1.8 10.5.5 1.6 3 11.8 3.5 14.5.3 1.4 1.1 3.9 1.9 5.5.7 1.7 1.6 4.1 1.8 5.5.4 2.4 1.7 6.1 3.6 10.5 2.2 4.8 2 6.2-.8 6.1-2.1 0-2.7-.7-3.2-3.6-.4-2-1.2-5-2-7a157 157 0 0 1-8.1-32c-1.4-8.5-1.6-11.4-2.6-45l-1-26.3c-.1 1.3-.6 2.3-1 2.3-2.2 0-4 29.6-2.7 45a234 234 0 0 0 6.2 37.9c3.3 12.1 3.4 14.6.9 14.6-1.5 0-2.3-1.3-3.6-6-1-3.5-2-5.4-2.4-4.7-.8 1.3-4.7 1.6-6.2.4-.5-.4-.8-.6-.7-.3.1.2-.2 1.1-.7 2.1-.5 1-.6 2-.2 2.5.4.3.8 1.6.8 2.8.4 7.5 1.7 15.3 2.8 17.6 1.8 3.6 4.6 16 4 17.7-.5 1-1.5.3-3.6-2.6-1.6-2.2-3.3-4-3.8-4-.9 0-3.4-8.5-3.2-10.9.2-2.9-2-14.1-2.8-14.1-.4 0-1-2.2-1.4-5-.4-2.7-1.1-5.2-1.7-5.5-.5-.4-.6-1.1-.3-1.7.4-.7.2-.8-.4-.4-.7.4-1.2 1.5-1.3 2.4-.2 4.3-2.8-6.4-3.8-15.8a1099 1099 0 0 0-3.7-28.7c-1.3-10-1.1-13.3.7-13.3.5 0 .9-.4.9-.9a12 12 0 0 1 2.8-3.8c2.3-2.5 3-2.8 5-2 1.5.7 2.3 2 2.4 4.1 0 1.7.4-1.8.8-7.9.6-11.8-.1-17.6-1-8.5-.6 5-.7 4.7-.7-2.5 0-4.4.2-7 .4-5.8.7 3.7 2.3 2.6 2.3-1.4 0-2.8-.3-3.4-1-2.3-.5.8-1 1.3-1 1l-.7-2.5a33.2 33.2 0 0 1 1.6-17.7c5.9-12.2 12.8-17 22-15.2 4.1.8 4.6 1.2 4.6 3.6v2.8l2.2-2.1c2.4-2.3 5.3-2 5.3.6 0 .8.6 1.4 1.2 1.3 1.3-.3 3.5 8 3.7 13.8 0 1.6.6 3.5 1.1 4 1.7 1.7 4 18.7 4.3 31.3 0 6.6.4 11.8.7 11.6.3-.2.6 2.4.6 5.8 0 7.5.9 17.1 2.3 25.2.6 3.3 1.3 8 1.5 10.5a138.1 138.1 0 0 0 5.6 26.7c0 3.8 5.1 22 11 39.3 3.4 10 6 18.6 5.7 19.3-.2.7-.8.4-1.4-.8M177 501.8l-1.5-12.1c-.2-2.1-.7-4.1-1.1-4.5-.8-.8-.1 7.3 1.6 18.6 1.6 9.9 2.4 8.3 1-2m-5.4-42.5c-.2-1.6-.4-.6-.4 2.2 0 2.8.2 4 .4 2.8.2-1.3.3-3.5 0-5m28-4c-.3-1-.5-.4-.5 1.2s.2 2.4.5 1.8c.2-.7.3-2 0-3m0-6.6c-.3-.6-.5 0-.5 1.3 0 1.4.2 2 .5 1.3.2-.7.2-1.9 0-2.6m-6-24c-.3-.6-.5 0-.5 1.3 0 1.4.2 2 .5 1.3.2-.7.2-1.9 0-2.6m-3.2-30.7c.3-.6-.1-1-1-1s-1.3.4-1 1c.3.6.8 1 1 1 .2 0 .7-.4 1-1m164 134.4c-.6-3.6.5-6.2 2.2-5 1 .6.5 7.4-.7 8.1-.4.3-1-1.1-1.5-3.1m-5.9-10.9a34 34 0 0 1 .2-13.9c.4-.3 1.4-.1 2.1.3 1 .7 1.2 2.4.6 6.8-.8 6.8-1.9 9.4-2.9 6.8m-47.2-18.2c-4.3-4.8-8.6-9.5-9.5-10.3-5-4.6-15.8-17.3-15.4-18 .7-1.1 4.5 0 4.6 1.4 0 .6.4 0 1-1.2 1-2.5-.3-4.3-8.5-12a291 291 0 0 1-7.7-7.7c-1.6-1.6-3-2.5-3-2 0 .6-.6-.2-1.5-1.8-1.6-3-3.7-3.7-2.8-1 .5 1.5.4 1.5-.4.4-.6-.9-.9-1.8-.6-2.2.4-.7-6.7-7.1-7.3-6.5-1 1 2.3 6.5 5.8 9.7a16 16 0 0 1 4.3 5.3c.3 2.3 4.6 6.5 6.1 6 1.4-.6 2.8 1 3.2 4 .4 2.3-.3 1.8-9.2-6.9a447.4 447.4 0 0 0-32.9-30.5c-4.8-3.4-5.7-5.8-3.2-8.3.8-.8 1.8-2.6 2.2-4.1a6.5 6.5 0 0 1 2.6-3.7c1.1-.6 2.9-3 4-5.5 2.2-5 4.2-5.6 9.4-2.3 5.8 3.6 6.8 1.7 1.1-2.2-5.6-3.8-5.9-4.7-3.4-11.3 1.5-4 3.3-5.7 5.2-5 1.2.5 4.8-5.6 4.3-7.3 0-.4.4-2.6 1-4.8 1-3.5 1-4.2-.8-6-2.3-2.4-2.5-3.6-.9-5.2.8-.8 2-.9 3.5-.3 2.8 1 3.4-.2 4.3-8.8 0-.6.7-1.2 1.4-1.2s1.4-1.1 1.5-2.5c0-1.4-.4-2.5-1-2.5-1.7 0-9.4-7.3-13.7-12.9a87.8 87.8 0 0 1-12.5-20.6c-4.9-13.4-7-18.5-7.8-18.5-1 0-1 3.5.2 8.5a13 13 0 0 1-.4 7.8l-1.3 3.8-1.1-4a28 28 0 0 1-1.2-6c0-2.2-1.4-2.8-2.5-1.1-1.3 2-3.2.9-4.8-2.8a52.5 52.5 0 0 1-5-20c.4-2.5.2-3.3-.6-2.8-.6.4-1.1 1.7-1.1 3v2.1l-2-2.3c-1-1.2-2-2.2-2.4-2.2-.3 0-2.1-1.7-4-3.7l-3.4-3.8.5 4.5c.6 5.5-1 12-3.6 14.4-1.9 1.7-1.8 2.6 1.2 14.6.4 1.5 0 1.1-1-1l-1.5-3.4-1.4 3.3c-.8 1.8-1.9 3.1-2.5 3-.6-.3-1-.8-1-1.2l.1-3.3c0-1.8.7-2.8 2-3.1 1.4-.4 2-1.4 2-3.5 0-1.6-.4-2.7-1-2.4-.4.4-1 0-1.3-.6-.2-.7-1 .4-1.7 2.4-.8 2.1-1.8 3.8-2.2 3.8-.5 0-.8.6-.6 1.3.1.6-.5 2.4-1.5 3.8-1.7 2.5-1.7 3.2.3 15.7 1 7.2 2 14.1 1.9 15.4-.1 2.3-.4 1-3.5-17.2-1.3-7.3-1.9-9-2.5-7.3-.5 1.3-1 2.3-1.2 2.3-.3 0-.3-3.7 0-8.3.3-8 .3-8.1-1.3-5.3-1.2 2.1-1.5 4.2-1 7.5l1 8.6c.3 2.2-.3.7-1.5-3.5-1-4.1-2-10-2-13.3 0-3.1-.5-5.7-1-5.7-.6 0-.7-.4-.4-1 .8-1.3 9.5-1.3 9.5 0 0 .6-.4.8-1 .5-1.1-.7-1.3 1-.4 4.3 1 3.2 3 2.7 3-.8s2-6 4.5-6c2.2 0 2.2-.3.8-5.3-.8-3.1-1.4-3.7-3.7-3.7-5.4 0-16-6.5-14-8.6.6-.5 8 2.3 8.7 3.3.3.6 1.7 1.6 3.1 2.3 2.4 1.2 2.4 1.1-.5-2-3-3.5-1.4-2.7 4 2 1.7 1.3 1 .4-1.4-2.2s-4.9-4.4-5.4-4.1c-.6.3-.7.1-.3-.5.4-.7 0-2.2-.8-3.4a10 10 0 0 1-1.6-4.9c0-2.2-.5-2.6-2.6-2.6-2.4 0-2.5.2-1.9 3.8.8 4.6-1 5.3-2.8 1.1-1.6-3.6-3-5-4.5-4.4-1.7.5-1.5-3.3.3-4.8 2-1.6 6.9-.4 6.1 1.5-.4 1 0 1.2 1.7.6 1.2-.5 2.8-.6 3.4-.4 1.8.6 1.6-2.9-.1-5.3-1.3-1.6-1.8-1.7-3.5-.6-2.4 1.4-2.6 1-1-2.1.7-1.2 1.3-5.6 1.3-9.7.1-5 .7-8.7 2-11 1.6-3.4 1.6-3.4-.1-1.4-1 1-2.6 3.1-3.5 4.5-1.7 2.4-1.7 2.4-1.7-2.6 0-2.8.4-6.8.9-9s.8-4 .6-4.2c-.6-.6-4 3.6-8.1 10.2-6.3 10-7.4 11.4-7.5 9.4a99 99 0 0 1 11.1-19.3c1.6-1.8 1.8-2 8.3-10.3 2.7-3.5 5.3-6.3 5.8-6.3.4 0 .8-1.4.8-3.1v-3.2l-3 4a257.8 257.8 0 0 0-19 27.6c-1.7 3.1-3.6 5.7-4.2 5.7-1.7 0 7-15 14.3-24.6 3.8-5 6.9-9.4 6.9-9.8 0-.8-7.9 3-10 5-2.2 1.9-6.4-.3-6.8-3.6-.1-1.4-.6-4-1.2-6a48.1 48.1 0 0 1-1-18.5c.6-.3 1-2.2 1-4 0-2 .7-5.2 1.6-7.3 1.3-3.1 1.4-4.6.3-9.5a31 31 0 0 1 2.6-21.3c3.1-5.3 7-8 13.1-8.9 4-.6 4.4-.9 4.4-3.6 0-9.3 13.6-9 26.2.4 4.9 3.7 5.2 3.8 6.4 2l2.3-3c.5-.6.8-1.3.5-1.6-1.3-1.2 1.8-4.7 4.1-4.7 3.4 0 3.1 1.6-1 7.8-3.5 5.2-4.2 8.2-2 8.9.7.2 3.6-3 6.6-7 3-4 9.6-12.1 14.8-18 5.1-6 8.8-10.7 8.2-10.3-1.6 1-1.4 0 .7-3.2 3.7-5.8 5.6-7.3 8-6.7 1.3.3 3.1 0 4-.7 1.6-1.2 1.6-1.1.2.7-.8 1.1-3.8 4.5-6.7 7.5-11.4 12.1-17.3 19.1-17.3 20.5 0 .6-.9 1.6-2 2.3-1.1.7-2 1.6-2 2.2 0 .5-1.6 2.6-3.5 4.7-2 2-3.8 4.8-4.1 6-.3 1.2-1.2 2.4-2 2.7-1.5.6-1.8 3.3-.8 6 .5 1.2 1.8.2 5.7-4.2l12-12.7a150 150 0 0 0 10.8-12.3c2.7-3.5 4.7-5.2 6.1-5.2 1.2 0 3.6-1.2 5.3-2.8l3-2.7-2.8 3a12.3 12.3 0 0 0-2.7 4c0 1.8-10.5 11.5-12.3 11.5-1 0-1.7.3-1.7.8 0 .4-2.8 3.6-6 7.2-12.6 13.4-16.3 18.5-15.5 21 .6 1.8 1.1 1.6 7.5-2.6a136.3 136.3 0 0 1 51.9-16.4 41 41 0 0 1 14.1-.6l-2 8.2c-2.7 11-2.7 11.1 2.4 7 2.7-2.3 2.8-2.5 1.2-4.7-.9-1.3-1.6-3-1.6-3.7 0-1.4.4-1.6 6.6-3.2 3.5-.8 4.3-1.5 4.8-4 .6-3.1 1.7-3.7 9.1-4.3 7.7-.7 27.6 4.5 31.5 8.2 1.3 1.3 1.6 1.2 1.9-.4 1-5.7 20.9-26.2 28.6-29.6 3-1.3 5-1.7 5.8-1.1.7.5 3.3 1.2 6 1.5 6.4.9 18.4 6.6 23.5 11.1 6.5 6 8.5 11 8 21l-.3 8.4 3.9 4.2c3.6 4 3.8 4.6 4.2 11.6.3 6 0 7.4-1.1 7.4-1.5 0-3.3 2.6-5 7.2-1.4 3.7-3 3.5-2.6-.3l.3-3.1-4.2 2.3c-5.2 3-5.7 4.1-3.4 7.6 3.4 5.4 11.4 21.5 10.3 21.1-.9-.3-7-10.3-9.6-15.8-.4-.8-1.5-2-2.5-2.8-1-.7-1.8-2-1.8-2.8 0-1.5-1.6-2-2.4-.6-.3.4 1.7 4.4 4.4 8.8 6.5 10.6 9 15.6 7.6 15.1-.6-.2-1.6-1.4-2.3-2.7a9.1 9.1 0 0 0-2.3-3 3.4 3.4 0 0 1-1.3-2.1c-.2-.8-1.4-3-2.8-5-1.5-1.8-3.2-4.4-3.8-5.7-1.6-3-3.3-2.8-2.5.2.3 1.3 0 2.7-.5 3-1.7 1.1-1.3 2.6.8 2.6 2.7 0 3.7 1.7 5.4 9.8 1.1 4.8 3 9.2 5.7 13.4a37 37 0 0 1 4.6 9.6 66.5 66.5 0 0 1-8.8 36.7c-2.8 4.6-3 5.5-2.5 12 .3 3.9.2 5.6-.2 4-.5-2.5-1.1-3-3.4-3-1.5 0-2.6-.4-2.4-1 .2-.5 1.4-1 2.7-1 2 .2 2.2-.2 1.7-3.7-.5-3.7-1.3-5.7-2-4.7l-7 10.6c-6.2 9.2-6.8 10.5-6.1 13.5a34 34 0 0 1-1.6 18.3c-1.9 4.4-1.6 5.7.8 3.3 1-1 1.2.1 1.1 4.8-.1 5.8-.1 5.8-1.1 2.2-.9-3.3-1.2-3.6-2.9-2.8-1.4.8-2 2.3-2 5.8-.2 3.7-.3 4-.6 1.4-.4-2.7-.8-3.2-2.4-2.7-1.4.5-1.7.3-1.3-1 .3-.8.1-1.5-.5-1.5-1.6 0-3 3.4-2.6 6 .3 1.4 0 1-.7-.8-.7-2-1.6-3.1-2.5-2.8-.7.3-1.3 0-1.3-.7 0-1.4 4.5-3.7 7.1-3.7 1.2 0 2.1-1.2 2.8-3.8 1.7-6 1.2-11.1-1.9-20.2-2.5-7.4-2.9-8-3-5a47 47 0 0 0 0 5.2c.2 2.5-2.7 7.6-4.8 8.2-1.3.5-1.7 1.4-1.5 3.9.3 3-2 7.7-3.2 6.5-.4-.3-.7-2.3-.9-4.4 0-2.2-.6-3.8-1.2-3.6-.9.3-4 8-5.1 13.2-.7 2.7-4.5 9.2-7.6 12.7a28 28 0 0 0-3.2 4.5c-.6 1.3-1.7 2.2-2.4 2-.8-.2-1.1.3-.8 1 .6 1.7-3.9 7.8-5.7 7.8-1.7 0-4.5 3.1-4.9 5.6-.1 1-.7 2.6-1.2 3.4-3 4.7-3.4 6-2 6.7 1.9.7 1.2 3.1-2.1 8-3.5 5.3-3.2 7.3 1.2 7.3 3 0 3.5.3 3 1.7-.4.9-1 4.3-1.3 7.5-.6 6.2-.7 6.3-10.2 13.6-2.3 1.8-2.3 2-.7 5 .9 1.7 1.6 4 1.6 5a42 42 0 0 0 8 15.6c1.6 2.2 3 4.4 3 5a106.7 106.7 0 0 0 9 21c0 .6 1.3 5.2 2.8 10.1 3.1 9.7 5.4 23.4 2.8 16.5l-3.9-11c-7.6-21.7-12-32-17.3-39.8a22.2 22.2 0 0 1-2.9-6c-.8-3.6-5-8.6-6.4-7.8-.6.4-1 2-1 3.4a66 66 0 0 0 10.6 20.6 103.5 103.5 0 0 1 13 31.6c.6 1.4 1.4 4.5 1.7 7a34 34 0 0 0 1.6 6.5 99 99 0 0 1 2.8 9.5c1 4.1 2.3 8.4 2.7 9.5.6 1.4.5 1.7-.2 1-1.3-1.2-8.3-22-8.3-24.5a115.7 115.7 0 0 0-12.6-31.6c-2-3.2-6-10.3-8.7-15.7-2.8-5.4-5.4-9.2-5.8-8.6-.4.8-3.5 0-9.9-2.5-9.4-3.8-11.5-4-8.8-.9 4.7 5.6 8.7 21.2 4.8 18.8-2.1-1.3-.8 1 4.3 8a117.2 117.2 0 0 1 18.7 33.8c1.4 5.3.7 7.6-1 3-3.4-9.2-8.7-17.9-12-19.7-1-.6-3.7-2.6-6-4.4-2.2-1.9-4-3-4-2.3 0 .5.4 1.3 1 1.6 1.5 1 1.2 2.2-.5 2.2-.8 0-1.1-.5-.8-1 .3-.6.1-.7-.5-.3-.6.3-1.3.2-1.7-.4-.3-.5-1.1-1-1.8-1a80 80 0 0 0 11.3 12.4c12.1 12.2 16.3 17.7 15.3 20.3-.4 1.1-.8 1.1-2 0-1.4-1-1.5-.9-.9 1 .6 1.8.3 2.3-.9 2.3-.9 0-2 1.4-2.7 3l-1 3.1-2.7-2.4c-2.1-2-3-2.3-4.4-1.3-1.4.9-2 .8-2.7-.4-.5-.8-1-1.1-1-.7 0 .5 2.8 4 6.1 7.8l6.1 6.8-3.3 3.6c-1.9 2-3.6 4.5-4 5.7-.2 1.2-1 2.3-1.5 2.5-.6.2-4.6-3.6-9-8.4m17.1-21c-.3-1.6-2.2-4.4-4-6.3-2-2-3.5-4.1-3.5-4.8 0-.7-.5-1.2-1.1-1.2-.8 0-.8-.4 0-1.5 1-1.2 1-1.4-.6-1-1.2.2-3.7-1.3-6.7-4a45 45 0 0 0-5.3-4.5c-1 0 2 4.3 5.4 7.5 2 2 3.2 3.5 2.8 3.5-.5 0 .6 1.6 2.4 3.4 1.9 2 3.7 3.5 4 3.4 2.7-.3 4.1 1.9 5 7.4 0 .5.6.8 1.2.8.7 0 .9-1 .4-2.8m-14.6-.1-5.5-7.8c-3.9-5.4-9.8-11.6-31.8-33.2-6.6-6.5-8.5-7.8-8.3-6 0 1.2 1.1 2.5 2.4 3 1.3.5 2.3 1.1 2.3 1.4 0 .4-.6.3-1.3 0-.6-.4.5.9 2.6 2.9s4.2 3.6 4.8 3.6c.5 0 .8.4.6.9A645 645 0 0 0 305 480c.2 0-.3-.9-1-2m-14.9-3c0-.6-.5-1-1-1-.6 0-.8.4-.5 1 .3.6.8 1 1 1 .3 0 .5-.4.5-1m-3-2c0-.6-.5-1-1-1-.6 0-.8.4-.5 1 .3.6.8 1 1 1 .3 0 .5-.4.5-1m-3.2-8.4c-.7-.8-1.5-1.3-1.7-1-.5.5 1 2.4 2 2.4.5 0 .4-.6-.3-1.4m-10.8-11c0-.3-.4-.8-1-1.1-.6-.3-1-.1-1 .4 0 .6.4 1.1 1 1.1s1-.2 1-.4m24 .1-2.5-1.7c-1.9-1.4-1.9-1.4-.6.3.7 1 1.8 1.7 2.4 1.7.6 0 .8-.1.6-.3m-3.4-16.6c-.3-.6-1.1-1.1-1.7-1.1-.6 0-.6.6.2 1.5 1.4 1.7 2.6 1.3 1.5-.4m16-35.6c-2.5-2-4.6-2-3.9 0 .3.8 1.8 1.5 3.3 1.5 2.5 0 2.5-.1.7-1.5m3.4-1.5c0-.6-.4-1-1-1a1 1 0 0 0-1 1c0 .6.4 1 1 1s1-.4 1-1m-15.5-1c-.9-1.4.8-1.3 2.3.2.8.8 1.5.8 2.7-.2 1.2-1 2.1-1 4.2-.1 1.4.6 2.8 1 3 .7.7-.6-10-5.6-12-5.6-.6 0-.2.7.9 1.5 1.8 1.4 1.7 1.4-1.5.8-3.3-.6-3.3-.6-1.5 1.6 2 2.2 3 2.8 1.9 1.1m-10.5-8c-2.4-1.5-3.6-1.1-1.4.4 1 .8 2.1 1.2 2.4 1 .2-.3-.2-1-1-1.4m18.9-37 13.1-6.3c6-2.8 9.4-5.3 17-12.8 17.3-17 19.6-20.5 26.7-41.3 3.7-10.8 7.7-29.9 6.3-30.4-1-.4-.1-4.2 1.3-6 .7-.9 2.1-1.2 3.9-.8 3.2.6 3.2.6 1.7-4.5-1.1-3.5-1.4-3.8-4.2-3.2-2.8.6-3 .4-2.4-1.8 1-3.7-2-12.9-4.3-12.9-3.2 0-5-1.1-5-3.1 0-1-.3-2-.8-2-6.5-.7-9.8-1.1-10-1.4-.3-.3-.5-1.5-.6-2.7 0-2-.8-2.4-4.5-2.8-3.2-.4-4.6-1-5.2-2.5-.6-1.6-.8-1.7-.8-.3-.1 2.8-3.7 4-9.4 3.3-2.9-.3-8.6-.7-12.7-.8l-7.5-.2-.4-3c-.1-1.7.2-5.4.9-8.3 1-4.8 1-5.6-1-8.8-1-2-2-5.2-2-7.3 0-2-.8-6.2-1.7-9.2l-1.7-5.4-1.2 5c-.7 2.8-1.3 7-1.3 9.6-.1 5.7-2 8.6-4.7 7.1a16 16 0 0 0-4.9-1.3c-4-.4-5.5-1.7-5.6-4.8 0-1.4-.7 0-1.4 3.4-.8 3.3-1 6.3-.7 6.7.4.4 2.6 1 4.8 1.4 3.6.5 4.2.4 4.7-1.5.5-2 1-2.2 6.9-1.5 3.4.3 6.8 1.1 7.4 1.8.8.8.8 3.2 0 9.1l-1.2 8-6.3.3c-3.5.2-6.9-.2-7.6-.8-1-.8-1.4-.5-1.8 1-.4 1.7-1.4 2-7.4 2.2-11 .2-11.6.2-17-.5-3.7-.5-6.4-.3-9.9.9-5 1.7-8.8 2.4-14.4 2.7-2 .1-4 .8-4.8 1.4-2.3 2.2-6.9 1.6-7.5-1-.4-1.1-1-1.8-1.3-1.4-.4.3.1 1.8 1 3.3 1.7 2.5 1.7 2.7-.3 4-1.2.9-2.1 2.1-2.1 2.9 0 1.8-1 2.4-5.1 3-1.9.2-4.7.8-6.2 1.2l-2.8.8 3 4.5a17 17 0 0 1 3 7.6c0 1.7.4 3.4.8 3.8 1.3 1.3 4.4 10 6.7 19.1 2.7 10 11 31.6 15 38.4 1.3 2.5 3.3 5 4.4 5.5a90 90 0 0 1 15.2 14.7c0 .5.7.9 1.5.9.9 0 3.5 1.8 5.8 4 5.3 5.2 18 12.5 25.7 15 4.5 1.5 7.1 1 12.9-2m67-74.8v-4.7l-1.6 3.2c-1.6 3.1-1.3 6.3.7 6.3.5 0 1-2.1 1-4.8m21.3-12.1c1.5-2.6 1.6-3 .3-2.5-.9.3-1.6.2-1.6-.2 0-1.7 1.5-3.2 3.5-3.5 1.3-.3 3.2-2.8 5.5-7.4 2.9-5.7 3.6-8.3 3.8-14.5.2-4.1 0-8.6-.6-10-.8-2.2-1-2-2.2 3-1.5 6.7-6 15.5-10.6 20.9-3 3.4-3.4 4.6-3.4 9.3 0 10.2 1.4 11.5 5.3 4.9m-12.4-7.3c1-4.8 1-6.1-.3-8.5-1.5-2.7-1.5-2.6-1.6 4.9 0 4.2-.3 8.5-.6 9.5-.5 1.2-.4 1.5.3.8.5-.6 1.5-3.6 2.2-6.7m-3.9 3c0-1-.4-1.6-1-1.3-.6.3-1 1.5-1 2.6s.4 1.7 1 1.4c.6-.3 1-1.5 1-2.6m-190-1c-.7-1.1-1.4-1.8-1.7-1.5-.3.3 0 1.2.7 2 1.8 2.2 2.3 2 1-.5m27-.3c0-.3-.4-.8-1-1.1-.6-.3-1-.1-1 .4 0 .6.4 1.1 1 1.1s1-.2 1-.4m163.8-16.7c-.7-2.1-1.4-2.7-2.1-2-.7.7-.5 1.7.8 3 2.4 2.8 2.6 2.7 1.3-1M178 234.7c0-.8 1.4-4.2 3.1-7.6a24 24 0 0 1 8-9.8c5.8-4.1 6.5-5.4 1.2-2.2-7.7 4.6-10.7 7.5-13 12.4-2.7 5.8-3 8.5-.8 8.5.8 0 1.5-.6 1.5-1.3m47-12.8c-.8-2.2-.9-2.2-1-.3 0 1.1.3 2.4.7 2.7 1.2 1.2 1.4 0 .4-2.4m12.9 1.3a6 6 0 0 0-1-2.2c-.7-1.2-.9-1-.7.8.1 2 1.7 3.3 1.7 1.4m-36.6-18.1c-.2-.3-.4.3-.4 1.1 0 1-1.3 2.8-3 4.2-1.7 1.3-2.6 2.8-2 3 .5.4 1.5 2.5 2.2 4.8l1.2 4.2 1.2-8.5c.7-4.6 1-8.6.8-8.8m143 3.9h3.3l-5.4-13.7c-5.4-13.7-8.3-19.3-8.3-16.2 0 .8.4 2 .8 2.5 1.3 1.5 3 7.4 5 16.7 1.6 7 1.7 8.7.6 9.9a10 10 0 0 0-1.8 4.3l-.6 3 1.5-3.3c1.3-2.7 2-3.2 4.8-3.2m-72.3-4c0-.3-1.4-1.4-3-2.3-2.6-1.5-3-2.4-3-5.9v-4l-3.4 4.8c-3.1 4.6-3.2 5-1.4 5.6 1 .5 1.7 1.1 1.5 1.6-.3.4 1.7.7 4.4.7s4.9-.2 4.9-.5m120.5-2c1.8-3.5 1.9-7 .1-9.3-2.2-2.8-2.6-2-2.6 5.3 0 3.8.2 7 .5 7 .2 0 1.1-1.3 2-3M180 200.9c0-1.3-.6-1-2.6 1.3-1.9 2.2-1.9 2.2.3.8 1.3-.8 2.3-1.7 2.3-2.1m145 1.2c0-2.5-4.4-15.8-5.1-15.4-.4.2-.3 1.9.2 3.7.5 1.7.9 4.2.9 5.4 0 3 1.7 7.3 3 7.3.5 0 1-.5 1-1m-140-5.1c0-.6-.4-.7-1-.4-.6.3-1 1-1 1.6 0 .6.4.7 1 .4.6-.3 1-1 1-1.6m10.8-2.4c.1-.1-.1-1.3-.6-2.5l-.9-2.3-1.6 2.4c-2.3 3.2-2.1 4.2.6 3.3 1.2-.3 2.3-.8 2.5-.9m196.7-12.9c.8-1.7 1.3-4 1-5.1l-.4-2.8c0-.4-.8-.7-1.6-.7s-1.8-.7-2.3-1.7c-.8-1.4-1.2-1.3-2.7 1-.9 1.4-1.4 3-1 3.6.3.7 0 .8-.9.5-1-.4-.5 1.5 1.7 5.9 2.7 5.4 3.3 6.1 4 4.4l2.2-5m-208.8-.4c-.3-1-.5-.5-.5 1.2s.2 2.4.5 1.8c.2-.7.3-2 0-3m184.3-3.4c-1.4-1-3.4-1.9-4.4-1.9-2.3 0-1.8.6 2.6 3 4 2.2 5.2 1.6 1.8-1m-34-2c0-.6-.5-1-1-1-.6 0-.8.4-.5 1 .3.6.8 1 1 1 .3 0 .5-.4.5-1m-23-9.5c1.4-5 1.4-5.2-1.4-5.7-1.6-.2-2.4.7-3.8 4.6-1.4 3.6-1.6 5.2-.7 6.2 1.8 2.2 4.5 0 5.9-5m-120 .3c0-.6-.4-.7-1-.4-.6.3-1 1-1 1.6 0 .6.4.7 1 .4.6-.3 1-1 1-1.6m205.5-4.9c1-1.1 1.4-2 .8-2-.5 0-1.8.9-2.8 2-1 1.1-1.4 2-.8 2 .5 0 1.8-.9 2.8-2m-55.5-3c-3.6-2.8-5-2.4-1.5.5 1.6 1.3 3.2 2.2 3.4 1.9.3-.3-.5-1.4-2-2.5m-5.4-2.9c-.3-.6-1.1-1-1.8-1s-.6.4.3 1c2 1.2 2.3 1.2 1.5 0m-169.1-4.2c2.3-1.5 3.3-3 3.3-4.7 0-2.8 2.5-5 6.5-5.8 5.7-1.2 6.2-5.7.5-4.8-5.5 1-7 1.7-9.2 4.3-3.1 4-6.7 13.2-5 13.2.3 0 2-1 3.9-2.2m207.1-6.4c-1.3-2-2-2.3-2.8-1.5-1 1-.6 1.7 1.3 3 3.1 2.5 3.7 1.9 1.5-1.5m-104 .6c1-1.1 1.3-2 .7-2-.6 0-1.6.9-2.2 2-.6 1.1-.9 2-.7 2 .2 0 1.2-.9 2.2-2m13.5 0c.9-1.6.8-2-.5-2-.9 0-1.3.4-1 1 .3.6.1 1-.5 1s-.8.4-.5 1c.9 1.4 1.3 1.3 2.5-1m134-18.7c-1-1.7-1.1-1.7-.6 0 .3 1 .7 3 .8 4.5l.1 2.7.4-2.7c.2-1.5 0-3.6-.7-4.5M207.5 130c-.9-1.5-4.5-3.2-4.5-2.2 0 .5 1 1.4 2.3 2 2.8 1.4 3 1.4 2.2.2m134.1 367.8c-.3-1.3-.6-5.1-.6-8.6 0-5.7.2-6.2 2.1-6.2 2.1 0 2.2.3 1.5 7.7-.6 8-1.9 11-3 7.1m19.9-37.8c-.3-.6-.1-1 .4-1 .6 0 1.1.4 1.1 1s-.2 1-.4 1c-.3 0-.8-.4-1.1-1m-2.2-7.2c-1.6-2.2-6.9-14-8.6-19.3-3.6-11-6.6-18.8-9-23.6-1.5-2.8-2.4-5.5-2.1-6 .3-.5.1-.9-.3-.9-1.1 0-8.7-16-8-16.7.4-.3 1.8.2 3.2 1 2.7 1.9 4.8 6 5.9 11.8a23 23 0 0 0 4.1 8c2 2.4 3.5 5.2 3.5 6.2 0 2 4.7 19.2 6.1 22.2l2.3 4.5a52.3 52.3 0 0 1 4.2 13.7c-.2.2-.8-.2-1.3-1m-161-61.4c-3.1-1.2-.8-2.3 5-2.3 3.7 0 8.4-.8 11.6-2 3-1 5.6-1.9 5.7-1.7.6.6-2.5 3.6-5.3 5-3 1.6-14 2.3-17 1m-29.9-41.7c-.7-3 .1-4.6 2.7-4.6 2.3 0 2.6 2.8.3 3.7-.8.3-1.3 1.2-1 2 .3.7.1 1.3-.4 1.3s-1.2-1.1-1.6-2.4m16-3c-.7-1.9 1.2-4.6 3.2-4.6 1.9 0 1.8.7-.6 3.7-1.7 2.2-2 2.3-2.6.9m199.6-6.2c0-3 .5-4.4 1.7-4.8 3-1.2 3.2.8.7 4.9l-2.4 4v-4.1M165 329c-.8-2 0-3.8 2.2-5 1.6-.9 1.9-.7 1.9 1 0 1-.6 2-1.4 2-.8 0-1.6.8-1.8 1.8-.3 1.4-.5 1.4-1 .2m30.4-1c0-1.4.2-2 .5-1.3.2.7.2 1.9 0 2.6-.3.6-.5 0-.5-1.3m178.8-2.8c0-3.7 2.6-6.3 3.7-3.6.4 1 .2 2-.5 2.2-.7.2-1.2 1-1.2 1.7 0 .8-.4 1.7-1 2-.6.4-1-.6-1-2.3m-209.3-11.9c-.4-.3-.7-2.4-.7-4.5 0-4.5-1.5-15-3.6-25.7-.8-4-1.3-7.5-1-7.8.5-.5 2.7 4.9 3.1 7.8a212.6 212.6 0 0 1 3 30.9c-.1 0-.5-.3-.8-.7m29.4-4.9c0-1.1.3-1.4.6-.6.3.7.2 1.6-.1 2-.3.3-.6-.3-.5-1.4m178-7.4c.3-1.4 1-2.4 1.8-2.2 2.1.4 5.1-.8 5.1-2.2 0-1.8 2-3.5 3.6-3 2 .8 1.7 2-.6 2.7-1.3.3-1.8 1-1.4 2 .4 1-.4 1.7-2.8 2.2a14 14 0 0 0-4.7 1.8c-1 .9-1.2.6-1-1.4m29.6-8.4-1.3-9.3c-.3-1.7 0-3.2.5-3.2 1.2 0 2.4 9 1.9 14.5-.3 3.7-.4 3.6-1.1-2m-5.7-6c-.7-5-1.8-9.3-2.4-9.7-.8-.5-.7-1 0-1.9 1-.8 2-.7 4.3.7 3.3 2 4 3.4 1.7 3.4-2.7 0-3.5 2.3-2.5 7.8.6 3 .8 6.1.6 7-.2 1-1-2.4-1.7-7.3m11.9.3c-.8-9.6-1.1-11.4-2.4-12.4-2.1-1.6-1.9-2.4.8-2.4 2 0 2.2.5 2.5 8 .1 4.4 0 8-.3 8s-.6-.6-.6-1.3m-228.2-1.3c-.3-.3-.3-1.3 0-2.3.5-1.3.3-1.4-.8-.4-.7.7-2.4 1.3-3.7 1.3-1.9 0-2.2-.4-1.7-2 .5-1.5 0-2.3-2-3.1-1.3-.7-2.5-1.6-2.5-2 0-1.2 0-1.2 7.1 1.5 3.5 1.3 7 2.1 7.6 2 .6-.3 1.4 0 1.7.5.7 1-4.8 5.4-5.7 4.5M398 272c0-1.5 1.6-2.2 3.5-1.5 1.3.5 1.4.8.3 1.5-1.8 1.2-3.8 1.1-3.8 0m-240.8-8.9c.2-2 1-2.8 2.6-3 2.7-.4 2.8.6.3 3.6s-3.3 2.8-3-.6m4-14c0-1.3 2.6-4.2 3.7-4.2 2 0 2.1 3 .2 4-2.2 1.2-4 1.3-4 .3m274-30.7a46 46 0 0 1-3.4-7.5c-1.5-4-1.5-4.1.9-4.1 1.8 0 2.6.8 3.5 3.5.7 2 1 4.2.7 4.8-.3.7.2 2.1 1 3.2 1.5 2.2 1.7 3.5.4 3.5-.5 0-1.9-1.5-3-3.4m-9-1.5c-3-4.3-5.4-11.2-4.1-12.5.6-.6.6-1.4-.1-2.3-1.6-2-.1-1.6 2 .4 1.5 1.5 6.1 14 6.1 16.7 0 1.5-2 .3-4-2.3m-6.4-18.7c-.5-1.4-.4-1.5.9-.4 1.7 1.4 1.9 2 .6 2-.5 0-1.2-.7-1.5-1.6M308.4 468.8l-2.9-3.3 3.3 3a24 24 0 0 1 3.2 3.2c0 .8-.8 0-3.6-3m-17.8-141.2c-1.6-1.2-1.8-1.9-.8-4 1.3-2.7 4.1-3.2 8.6-1.5 3.6 1.3 3.3 2.6-1.4 5-4.6 2.4-4 2.3-6.4.5M283 322c0-.6.4-1 1-1s1 .4 1 1-.4 1-1 1a1 1 0 0 1-1-1m14.4-3.5c-.6-2.5-2.4-3.5-2.4-1.4 0 .5-.4.8-1 .4-.4-.3-1.1 0-1.5.5-.3.5-1.7 1-3 1-2.9 0-3.2-1.8-1-6 1.7-3.2 3.2-4 6-3 1.1.4 2.5.3 3.2-.2 3.2-2.6 8.2 5.5 5.1 8.5-2.7 2.7-4.8 2.8-5.4.2m7.1 1.5c-.3-.6-.1-1 .4-1 .6 0 1.1.4 1.1 1s-.2 1-.4 1c-.3 0-.8-.4-1.1-1M288 293.6c0-2 2.3-2.6 4.3-1.1 2 1.4 1.2 2.5-2 2.5-1.3 0-2.3-.6-2.3-1.4m10.4-.3.6-1.9c0-1 2.9-.3 4 1.1 1 1.2 1 1.5-.1 1.6l-3.2.4c-1.3.2-1.7-.1-1.3-1.2M236.1 277c-.8-.4-1.2-1.3-1-2 .3-.7 1-.7 2.3.3 2 1.5.8 3-1.3 1.8m7.4-1.1c-.3-.6 0-1 .9-1 .8 0 1.8.4 2.1 1 .3.6 0 1-.9 1-.8 0-1.8-.4-2.1-1m10.5-2c0-.6.4-.8 1-.5.6.3 1 .8 1 1 0 .3-.4.5-1 .5s-1-.5-1-1m81 0c0-.6.4-1 1-1 .5 0 1.2.4 1.5 1 .3.6 0 1-1 1-.8 0-1.5-.4-1.5-1m-97.7-1.3c.3-.8.2-3-.3-4.8l-.8-3.4-.8 3.5-.9 3.5-.5-4c-.7-5-3-6-3-1 0 1.9-.5 3.5-1 3.5-.6 0-1-1.9-.7-4.5.4-5.1-.6-4.8-2.7 1l-1.5 4v-3.2c0-1.8.3-3.4.8-3.7.5-.3 1.2-1.8 1.5-3.2a10 10 0 0 1 2.9-4.5l2.2-1.8h-2.8c-1.7 0-3-.8-3.4-1.8-.3-1-1.7-2.7-3.1-3.9-1.6-1.3-2.2-2.5-1.7-3.4.7-1 1-1 1.9.1 1.4 1.9 5.8 4.9 7 4.9.5 0-.3-1.3-1.8-2.9-1.8-1.8-2.4-3.1-1.7-3.5.6-.4.8-2 .5-3.4-.6-2.6-.5-2.5 1.5.6 2 3.2 4.7 5 5.7 3.9.3-.3-1-2-2.8-3.6-3.3-3.1-3.3-3.1-.7-2.7 1.5.2 3.5 1 4.6 1.7 1.7 1 2.9.8 7.6-1.6 7.8-3.8 16.8-4 21.9-.6 4.3 3 8.2 9.2 9 14.4.8 4.1-.3 4.8-2.6 1.5l-1.5-2.1-2.8 3c-3.8 4-6.2 4.7-10.6 2.8-4-1.6-4.8-4.3-2.2-6.5 1.2-1 2-1 3.9.3 2.7 1.8 3.6 1.3 3.6-2 0-2-.4-2.2-2.8-1.8-3.8.8-6-.8-4.3-3 .8-.8 1.2-1.5 1-1.5a62.7 62.7 0 0 0-20 10c-.5 0-.9.4-.9.8 0 1 8 3.2 11.8 3.2 3.9 0 6 1.6 4.4 3.2-.6.6-1.2 2.2-1.2 3.5 0 2.4-1.4 3-2.5 1.3-1-1.5-2.5-1.2-2.5.5 0 1-1 1.5-3 1.5-2.8 0-3 .3-3 3.5 0 2-.5 3.5-1.1 3.5-.6 0-.9-.6-.6-1.3m-5.3-26c0-.2-1-1.3-2.3-2.3l-2.2-1.9 1.9 2.3c1.8 2 2.6 2.7 2.6 1.8m3-6c0-.2-.7-.7-1.6-1-.8-.3-1.2-.2-.9.4.6 1 2.5 1.4 2.5.6M344 272c0-1.3 2-1.3 4 0 1.2.8.9 1-1.3 1-1.5 0-2.7-.4-2.7-1m-6-5.7c0-.9-.7-2.4-1.6-3.4-1.4-1.5-1.1-2 2.7-5.3 6.4-5.5 11.9-4.5 11.9 2.2 0 2.5-1.4 3.6-7.8 6.1-4.7 1.9-5.2 1.9-5.2.4m17.7 1c-.3-.2-.1-1.6.4-3 1.8-4.7 1.1-7.4-2.1-8.6-1.7-.6-2.8-1.7-2.6-2.3.3-.7-1-2.5-2.6-4-2.4-2.2-3.2-2.6-3.6-1.5-.3.8-1.6 2.5-2.8 3.8-1.3 1.3-2.4 2.8-2.4 3.4 0 1.2-5.6 1.2-8-.1-1.1-.6-2-2-2-3 0-2.5 3-4.1 5.3-2.9 2 1.1 2.1.6.6-2.2-.7-1.4-1.4-1.7-2.5-1-2.5 1.3-6.4.2-5.7-1.8.7-1.9-7.8 6.5-9.4 9.3-.8 1.4-1.5 1.6-2.7 1-1.5-1-1.2-1.8 2.6-7.4 4.8-7.2 12.4-13.5 17.4-14.4 4.8-1 10.7.8 15.2 4.4 3.3 2.6 4.6 3.1 6.9 2.6 2.7-.7 2.7-.7 1 1.2-2.1 2.3-.5 4.1 1.8 2.2.9-.8 1.5-.8 1.5-.2 0 1.3-2.6 2.3-4.5 1.6-.8-.3-1.5-.2-1.5.4 0 1.6 4 2.6 5.3 1.3.6-.6 1.8-1.1 2.6-1.1 1 0 1 .5-.5 2.2-1.9 2-1.9 2 .4 1 1.2-.7 2.2-1 2.2-.5 0 1.5-7.2 4.8-9.6 4.5-2.3-.3-2.3-.2.7 2.8 2.6 2.5 3 3.6 2.5 6.1-.7 3.4-3 7.2-3.9 6.3m-25-3.4c-1.5-2.9-1.5-3 .8-3 2.5 0 3.8 2 2.9 4.5-1 2.3-2.1 1.8-3.8-1.5m-78.6-.9c0-1 .4-2.3 1-2.6.6-.3 1 0 1 1v2.2c.1.4-.3 1-1 1.1-.5.2-1-.5-1-1.7m19-1.4c-1.3-.6-2.5-1.8-2.8-2.4-.7-2.2 2.4-1.4 4.8 1.2 2.6 2.7 1.9 3.2-2 1.2m47-3.2c0-.8.4-1.5.9-1.5s1.4.7 2.1 1.5c1 1.3.9 1.5-.9 1.5-1.2 0-2.1-.6-2.1-1.5m5-20.9c0-.2.8-1 1.8-1.7 1.5-1.3 1.6-1.2.3.3-1.3 1.7-2.1 2.3-2.1 1.4Z"/></svg>