<svg xmlns="http://www.w3.org/2000/svg" version="1.0" viewBox="0 0 615 883">
  <path d="M210 110.5c0 73 .3 110.5 1 110.5s1-37.5 1-110.5S211.7 0 211 0s-1 37.5-1 110.5zM251.6 4c.8 4.7-.7 7-4.5 7a9 9 0 0 0-4 .9c-.8.5.5.7 3.5.4 2.7-.3 5.5-1 6.2-1.6 1.3-1 1.6-4.8.6-8.5-1.1-3.8-2.5-2.4-1.8 1.8z"/>
  <path d="M259.7 6.2c-.9 8.3-2.4 12.6-4.7 13.8-1 .6-5.4 1-9.8 1-5.9 0-8.3.4-9.2 1.5-1.7 2.1-.7 2.9 1.8 1.6a29 29 0 0 1 9-1.1c5.4 0 7.5-.4 9.5-2 3-2.4 5.1-10.1 4.5-17-.3-4.3-.3-4.2-1.1 2.2zM434 7c0 6.1.3 7.1 2.3 8.4 2.6 1.7 16 2.6 16.7 1.1.3-.6-2.4-1.1-7-1.3-4.1-.2-8-.8-8.7-1.4-.8-.6-1.3-3.4-1.3-7.4 0-3.6-.4-6.4-1-6.4s-1 3-1 7z"/>
  <path d="M443 5c0 2.7.5 5 1 5 .6 0 1-2.3 1-5 0-2.8-.4-5-1-5-.5 0-1 2.2-1 5zM468.6 57.5c-.9 67-.9 72.8-.1 124.5.6 37.1.2 45.9-2.4 51-.6 1.1-2.9 1.6-9 1.8-6.3.2-8.1.6-8.1 1.7 0 1.5 1 1.5 15.7 0l4.2-.4.1 33.9c0 18.7-.3 34-.7 34-1.6 0-18.1-14-18-15.2l-.1-10.1c-.2-11.5-2.2-10.7-2.2.9a24 24 0 0 1-.8 8.4c-.5 0-1.6-.8-2.5-1.8-1.5-1.6-1.7-4.9-1.7-26.1 0-15.9-.3-24-1-23.6-.6.4-1 9.4-1 23.6v23l-3-1.8c-3.5-2-3.8-3-4.2-13-.4-8.4-1.4-9.9-5.5-8.6l-2.8 1 2.8.6c2.6.7 2.7.9 2.7 8l-.1 7.2-3.9-4.3a47.4 47.4 0 0 1-6-8.8 20.8 20.8 0 0 0-2.6-4.4c-.5 0 1.1 4.2 3.1 8 2.7 5.1 2.1 6-2.7 4.2l-4.3-1.5-.1-9.1a128 128 0 0 0-6-36.1c-1.8-7.2-3.6-15.3-3.9-18-.4-2.8-1.6-9.2-2.6-14.4-2.4-11.8-2.4-11.4.9-12.8 4.1-1.9 12-9.1 13.9-12.7 3.6-6.8.7-22.1-5.9-31.1-1.5-2-2.4-5.1-2.8-9.5l-.6-6.5-1.2 5.3c-.7 2.9-1.2 7.1-1.2 9.2 0 2.2-.4 4-.9 4-.6 0-.8.9-.6 2 .2 1.2-.2 2.3-1 2.7-.8.3-1.5 1-1.5 1.7 0 1.6-7.9 17.3-8 15.9 0-.7 1.2-3.8 2.6-7 4.8-10.7 6.8-17.9 2.9-10.3-1.6 3.2-3.5 4-3.5 1.6 0-.8-.9-1.8-2-2.1-1.7-.5-1.9-1.3-1.5-4.8.3-2.5-.5-.7-1.9 4.5-2.9 9.9-5.4 16.3-6.1 15.6-.6-.6.1-4 2.9-14.2 2.2-8.1 1.3-8.2-1.4-.2-1.2 3.6-3 7.6-4.1 8.8-1.8 2.3-1.9 2.3-.4-2.7 1.7-5.7 2-14.9.5-14-.5.3-1.5 2.5-2.1 4.8a151 151 0 0 1-2.5 8c-1.6 4.4-1.8 6.5-.5 5.1.5-.5 1.8-3.8 3-7.4 1.1-3.6 2-5.8 2-4.9.1.8-.6 3.9-1.5 6.8a27 27 0 0 0-1.2 7.9c.3 2.5.4 2.5 2.1.8 1.6-1.7 1.7-1.6 1.7.4 0 1.2-.9 5.7-2 10a31.4 31.4 0 0 0-1.4 9.3c.3.8-.2 3-1.2 4.8-1.1 2.3-1.3 3.4-.5 3.7 2 .7 1.1 3.3-1.7 4.9a18 18 0 0 0-6.7 12.2c0 1.8-.5 2.5-1.5 2.4-.8-.2-2.1.6-2.8 1.7-1.1 1.9-1.1 1.9.7.8 1.1-.7 2.3-.9 2.7-.5.9.9-2.4 5.7-4 5.7-1.4 0-3.7 4.3-4.1 7.5l-1.9 12c-1.8 11.2-2.1 26.1-.6 27 .6.3 1 1 1 1.6 0 1.6-6.8-3.5-7.9-5.9a26 26 0 0 1-1.7-6.2c-.4-2.2-1-4-1.5-4s-.9-3.6-.9-7.9c0-7.4.2-8.2 2.8-10.8 1.5-1.5 3.9-4.1 5.2-5.8 3.3-3.9-.3-1.2-4.3 3.2-1.6 1.8-3.3 3-3.8 2.7-.5-.3-.9.2-.9 1 0 .9-.5 1.6-1.2 1.6-.6 0-2.1.9-3.2 1.9a82.7 82.7 0 0 1-16.1 9.4c-6.8 3.3-16.1 4.5-20.6 2.7-7.8-3.3-30.9-39.4-30.9-48.4 0-5.3-1.2-13.6-2-13.6-.4 0-1 2.8-1.4 6.2-.3 3.5-1.1 6.4-1.6 6.6-.6.2-1.1 2-1.2 4-.1 2-.4-1-.8-6.8-.5-8.2-.3-11 .9-12.9 1.8-3.2 3.2-9.1 2-9.1-.4 0-1.5 1.2-2.4 2.7-1.5 2.7-1.6 2.7-.9.3.3-1.4 1.2-4 2-5.8.7-1.8.9-3 .4-2.7-.5.3-1.4 2.1-2 4-.6 1.9-1.4 3.5-1.7 3.5-1 0-4.4-4.6-6-8-.9-1.9-1.9-5.8-2.3-8.5l-.8-5v4.5c-.1 2.5.5 6.3 1.3 8.5 1.7 4.6 1.9 6.8.4 4.2-.5-.9-1.6-1.7-2.3-1.7-.9 0-1.5 3.4-2.2 12.5-.5 6.9-.6 12.5-.2 12.5 1 0 2.7-5.8 3.7-12.5.8-5.4.9-4.8 1 6.3.1 8.5-.2 12.1-1 11.7-.7-.5-1 1.7-.8 6.7.1 4-.1 9.6-.5 12.4-.7 4.8-.6 5.4 2.3 8.6l3 3.5-.4 15.7c-.3 13.5-.6 16.1-2.2 17.9-1 1.1-1.2 1.7-.5 1.3 1-.6 1.1-.4.4 1a50.8 50.8 0 0 0-3.5 10.4c-.1.9.5 1.4 1.5 1.2 1.5-.2 1.7.2 1.2 2.8-.8 3.9 1.2 4 4.2.3l2.2-2.8 3.7 1.8c4.4 2.1 4.5 5.4.3 7.5-1.6.7-2.8 2.1-2.8 3.1 0 2 4.3 8.9 6.8 10.8 1.9 1.6 4.2 1.7 4.2.2 0-.5-.4-.8-.9-.5-1.1.7-7.1-4.7-7.1-6.3 0-.6.6-1 1.3-.8.7.1 1.2-.9 1.2-2.8 0-1.7.8-4.2 1.9-5.8a8.3 8.3 0 0 0-1.6-10.9c-1.9-1.4-2-1.9-.9-3.2.7-.9 1.7-1.4 2.1-1.1.4.3 1.1-.2 1.4-1.1.8-2.2.8-2.4-.8-2.4-2.2 0-2.7-4.2-3.1-31.5l-.4-26 1.9 12c2.1 13.3 3.1 17.9 5.5 24.5 1.4 3.8 1.5 5.8.5 14.9-1.2 11.3-1.4 12.1-3.4 12.1-2.1 0 2.7 9 6.9 13 5.5 5.2 5.9 6.5 3.8 11-1.9 4.2-3 4.5-4.7 1.6-.8-1.4-.8-2 .2-2.3 1.9-.7 1.5-6.8-.8-8.8-1.9-1.7-1.9-1.7-.7 1.4.9 2.5.9 3.5-.1 4.9-2.3 3.3-2.4 4.3-.6 6.4 4.6 5 15.4 10.6 15.4 8 0-.6-1-1.3-2.2-1.5-1.8-.3-1.6-.5.8-.6 1.6 0 3.5-.6 4-1.1.7-.7 4.2 1.7 11 7.6 14.2 12.4 13.9 11.3 7 22.2-5.5 8.8-8.7 11.5-10.8 9.4-.8-.8-.5-.9 1-.5 1.3.3 2.4-.1 3-1.4 1.5-2.9 2.3-9.7 1.3-11.3-.8-1.2-1.2-1.2-2.9.3-1 .9-2.6 1.7-3.6 1.7-2.4 0-3.3-3-1.2-4.5 1.5-1.2 1.5-1.5-.9-4.3-1.4-1.6-2.5-3.7-2.5-4.6 0-2.6 4.6-2 6.8.9 2.3 2.8 4.2 3.3 4.2.9 0-.9-.9-1.8-2-2.1-1-.3-2.8-2-3.9-3.9-2.4-4.1-6.2-5.3-9.6-3-3.2 2.1-3.2 3.9.1 7 1.5 1.3 2.3 2.9 2 3.5-1.2 1.9-5.2 1.2-8-1.4-1.4-1.3-2.6-2.1-2.6-1.6 0 1.3 4.5 5.1 6.1 5.1 2.3.1 6.6 4.2 8.9 8.7 2.3 4.5 3.5 4.7 5 .7.5-1.3 1.4-2.4 2-2.4 1.7 0 1.1 2.9-.9 4.9-4.6 4.6-5 8.5-1.2 9.9 1.4.5 1.7 1.2 1.2 2.1-.6.9-2.6-1.1-7.1-7.3a37.2 37.2 0 0 0-6.8-8.1c-.3.3-3.3-3.7-6.6-8.8-3.4-5.2-7.6-11-9.3-13.1a193.2 193.2 0 0 1-19.5-30.3c.2-.7-.1-1.3-.5-1.4-11.4-1.2-11-.7-10.1-11.1l2.4-23.8c.9-8 1.8-18.1 2.1-22.5l.4-8-3 8.5c-7.5 21.7-15.5 38.3-21 43.8-4.1 4.1-9.8 6.6-12.3 5.5-1.9-.8-1.8-1.1 1.3-5 16.7-20.6 18.7-23.6 25.4-37.7 5.1-10.7 10.1-24.3 9.3-25.1-.2-.3-1.2 2.1-2.3 5.3-2.9 9-15 32.1-20 38.2l-8 10c-1.9 2.5-5 5.6-7 7a14.3 14.3 0 0 0-4.1 4.3c-.5 1.6-1.4 1.7-8.9 1.1-7.8-.6-8.6-.5-13.3 2.1a174.2 174.2 0 0 0-31.9 28.5 392.4 392.4 0 0 0-35.8 44c-11.8 16.2-13.7 18.8-26 36.6-36.6 52.6-45.6 63.8-62.4 77.4-3.9 3.2-4.4 4.1-5.7 10.5-1.8 9.2-1.8 18.8-.1 18.3.7-.3 2-5.2 3.2-11.7 1.8-10.1 2.3-11.6 5-13.8 10.4-8.5 13-11.1 19.7-19.5A610 610 0 0 0 85 390c10.2-15.1 23.1-33.7 28.5-41.4l13.9-19.3c4.6-6.7 30.1-33.8 42.9-45.8 5-4.8 11.5-10 14.2-11.7 4.9-2.9 5.2-2.9 15.5-2.4 6.9.3 15.3 1.6 24 3.6a82.7 82.7 0 0 0 20.7 3.1l7.1-.2 5.7 9.3c3.2 5.1 9.1 14.1 13.1 20.1a76.6 76.6 0 0 1 7.4 12c0 .6 2 5.7 4.5 11.2 8 17.6 11.8 27.8 10.9 29.1l-6.4 8.5a390 390 0 0 0-24 37.9l-8.7 14.8-1.4 2.3-2-2.5c-1-1.3-5.7-4.3-10.3-6.5a61.9 61.9 0 0 1-17.1-12.2c-8.2-7.8-8.7-8.1-11.1-6.9-3.7 2.1-3.8 4.8-.5 15.6l6.5 21.6c2 6.4 3.6 12.4 3.7 13.5.1 2.2 2.2 5.7 7.2 11.6 2.9 3.4 3.8 5.3 3.5 7.4-.2 1.5-.7 2.8-1.3 2.8-1.3 0-9.2-14-13.3-23.5-4-9.3-9.2-25.3-9.2-28.3 0-1.3-.7-3.2-1.5-4.3-1.3-1.9-1.1-4 1.5-19 1.6-9.3 3.7-19.9 4.7-23.6.9-3.7 1.4-7.1 1-7.4-1.4-1.4-3.4 1.7-4.5 6.8-1.4 6.4-4.2 28.2-4.2 32 0 4.2-1.5 3.3-2.7-1.5-.5-2.3-.8-2.9-.7-1.2.3 2.4-.1 3.2-2 4.1-2.2 1-2.5.9-3-1.9-1.7-8.6-.1-33.6 3.5-55.1a69.4 69.4 0 0 0 1.5-12.3c-.5-.6-3.1 8.2-4.2 14-.9 5.6-2.9 6.1-2.1.5.3-2.4.3-5.7-.1-7.2l-.7-2.7-2.6 2a47.3 47.3 0 0 0-7.9 18c0 .7-.8 2.4-1.7 3.8-2 3.1-3 5.6-8 20.3-5.1 15.3-5.2 15.4-14.1 19.5-9.7 4.5-12.9 7.5-14.8 14.3-2.5 8.6-9.2 22.1-13.7 27.6a65 65 0 0 0-6.7 10.4c-1.4 2.9-2.9 5.2-3.3 5.2-.8 0-.6-1.5 1-9.3l.7-3.2.6 3c.5 2.6.8 2 2.4-4.4a811.8 811.8 0 0 1 31.1-89.1l11.2-27.5c2.4-6.1 5.2-12.9 6.3-15.3 2.1-4.5 2.7-13.2.9-13.2-2.6 0-4.9 2.3-5.5 5.4-.8 4.8.3 6.2 2.6 3.4 2.5-3 2.5-1.7 0 3.2-1.1 2.2-2 4.5-2 5.3 0 .8-.6 2.7-1.4 4.3l-4.1 9.6c-1.5 3.8-3.2 6.8-3.7 6.8s-.7.4-.4.9c.9 1.4-.5 4.2-1.6 3.5-.6-.4-.7.2-.3 1.6.4 1.3.3 2-.2 1.7-.9-.6-7.5 15.3-13.9 33.3a78.8 78.8 0 0 1-3 7.9c-.2.3-1-.4-1.7-1.3-2-2.7-5.2-1.2-8.9 4.2a231 231 0 0 1-10.1 13.2l-7 8.5.7-5a723 723 0 0 1 9.2-45.9 147 147 0 0 0 3.1-15.2c-.2-.2-2.2 6.7-4.5 15.3a852.4 852.4 0 0 0-15 76.9c-1.2 10.2-2.1 13.9-3 13.6-.6-.2-1.2-.8-1.2-1.4 0-.6-1.6-2.8-3.6-5-3.5-3.9-3.6-4.1-3.4-12.1.1-4.5.2-8.8.1-9.6-.2-2.1-8-.5-10.9 2.2-4.1 3.8-12.6 21.8-11.8 24.9.2 1 0 1.8-.4 1.8-1.9 0-8.9-11.3-11.1-18-.7-1.8-.7-1.4-.3 1.4.7 4.7 4.2 12.1 8 16.5 2.9 3.5 7.4 5.7 14.9 7.3a26 26 0 0 1 6 1.8c2.1 1.5 6.6 2 10.6 1.1 3.3-.7 4.5-.6 5.6.5.8.8 1.7 1.4 2.1 1.5l4.2.5a48.3 48.3 0 0 1 10 1.8c1.4.1 3 2.8 2.4 3.8-.3.4.2 2.1 1.1 3.8 1.7 3.4 1.7 3.4-2.2 1.9-1.5-.6-9.9-1.3-18.7-1.5-12.8-.4-16.1-.2-17 .9a32.6 32.6 0 0 1-14.9 4c-.5-.3-1.3 0-1.7.7-.6.9-4.4.9-17.3 0-11-.7-17.3-.8-18.5-.1-2.6 1.4-7 13.4-7.7 21.4-.4 3.7-1.4 11.1-2.4 16.5-2 11.6-1.3 16.7 5.9 39.7 2.7 8.9 2.8 9.2 1.9 24.5-.4 8.5-1.1 28.6-1.4 44.6l-.7 29.1 3.7 3.1 3.7 3 1.4 17.8c1.7 22.3 2.8 30.4 4.3 33.1 1 2 .8 2.3-2.6 3.2a31 31 0 0 1-4.9 1.1c-.9 0-4.4-13.2-6.9-25.6a935.4 935.4 0 0 1-8.7-80.9c-.8-10.5-1.3-37.2-1.3-70 0-53.9-.8-59.8-2.4-17.5-1.4 37.2-.1 93.5 3 126.5 3 33 8.8 64.7 13.5 73.7a38 38 0 0 1 2.4 8.6c1.1 6.4 3.5 8.9 11 11.8 2.5.9 5 2 5.5 2.5 1.9 1.5 8.9 2 13.5 1.1l15-3.2c12.4-2.5 26.8-8.1 39.1-15 4.9-2.8 9.1-5 9.3-5 3.3 0 44.8-33.5 58-46.8 9.3-9.5 10.1-10 12-8.6 1.1.8 3.3 1.4 4.8 1.4 3.2 0 3.4 1.4 1.8 11.5A2982.1 2982.1 0 0 0 194.1 834c-.4 4.7-.7 11.1-.6 14.2.1 3.2 0 5.8-.4 5.8-.3 0-.6 3-.6 6.7 0 3.8-.2 10.2-.4 14.3l-.4 7.5 14.5.3 14.5.3.7-12.8c1.2-20 2.7-22.6 2.1-3.6l-.6 16.3h5.6l-.7-9.7c-.4-5.4-.9-17.9-1.2-27.8l-.5-18L228 850c1.1 12.4 2.2 24.9 2.6 27.7l.5 5.3h24.6l.6-19.2c1-33.1 3-73.3 3.6-74 .3-.4.5 20.4.3 46.2l-.3 47H349.6l3.8-17.3c5.8-25.6 17-71.1 22.1-88.7 5.2-18.5 6.5-25.2 6.5-33.9 0-9.4-3.5-26.2-6.1-29.6a33 33 0 0 1-2-6c-.6-2.8-2-6.8-3-8.9a19 19 0 0 1-1.9-5.3c0-.7-.4-2.1-.9-3.1-1.2-2.3-3.4-9.7-6.1-21-1.8-7.6-2.5-9-3.6-8.1-.8.6-1.4 1.8-1.4 2.5 0 .8-.6 1.1-1.5.8-1.2-.5-1.5.2-1.6 3.2 0 2.8-.3 3.4-.8 2-.6-1.5-.9-1.1-1.9 2.1-.7 2.2-1.2 5.9-1.2 8.2 0 2.8-.4 4.1-1.4 4.1-1.5 0-2.7 2.2-3.3 6-.2 1.4-.8 3.6-1.3 5-.6 1.4-1.2 5.2-1.4 8.5a57 57 0 0 1-3.6 17.4c-.7 1.1-.9-.1-1-4 0-3-.5-8.1-1.1-11.2-.8-4.7-.6-7.6 1-16.5 2.7-14 5.7-34.1 7.2-47.2.6-5.8 1.7-13.2 2.4-16.5a141 141 0 0 0 4.3-36.9c-.2-6.1-.8-11.8-1.3-12.6-1.2-1.9-1.5-7.9-.4-10.7.5-1.3.4-2.5-.1-2.8-.5-.3.2-1.7 1.5-3.1 1.2-1.3 2.6-4 2.9-5.9.6-3.3.9-3.5 4.6-3.5 2.1 0 4.6-.3 5.5-.6 1.4-.6 1.4-.3.4 2-1 2.1-.9 3.8.4 8.8 1.3 4.9 3.7 23.8 3.7 29.1 0 .5.5.5 1 .2.6-.3 1-3.9 1-7.9 0-4.3.6-8.9 1.5-11 1.1-2.5 1.5-6.3 1.3-12.1-.1-4.7.2-8.9.7-9.4 1-.9 12.7-1.6 21.3-1.3l4.2.2v8.2a58 58 0 0 0 5.5 26.4c2 3.3 3.5 4.6 6.5 5.5 3.1.9 4 1.7 4 3.4 0 1.2-.3 2.4-.6 2.8-1.2 1.1-3.4-.6-3.4-2.7 0-1.5-.3-1.7-.9-.7-1.4 2.1 0 5.2 3 7 2.5 1.4 2.9 2.2 2.9 6.1 0 3.3-.3 4.1-1 3-.5-.8-1-3.1-1-5-.1-4.5-1.7-2-2 3-.3 5.8-.2 6.3 2 5.7 1.6-.4 2 0 2 1.9 0 1.3.4 2.4.9 2.4 2.3 0 2.5-16.5.2-17.9-1.6-1-.2-6.8 2.7-10.8A65 65 0 0 0 428 556c0-4.4 1.5-4.7 2.3-.5a126 126 0 0 1 3.6 23.5c.2 4.3 5.1 28.2 7.1 34.5.5 1.6 1.6 10.4 2.5 19.5 11.7 127.8 19 192.8 26.2 233.9 1.7 9.7 3.2 15.5 4.1 15.8.7.3 1.5.4 1.7.2.2-.3-1.2-9.4-3-20.5-3.3-19.5-7.3-49.5-11.5-85.9-3.8-33.7-3.8-33.5-2.3-33.5 1.1 0 1.3-3.9 1.1-20.2l-.3-20.3-3-.5c-2.5-.4-3-1-3.3-3.8-.3-3.1-.2-3.2 3.7-3.2h4.1l.2-6.3c.4-12.6-.2-14.2-4.6-13.1-3.3.8-3.4 2.4-.1 2.4 2.4 0 2.5.2 2.5 7 0 7.2-.2 7.6-4.5 8.2-1.8.3-2.1-.8-3.7-15.2-2.2-20-2.2-21-.2-21 .9 0 3.7-1.7 6.3-3.9 2.5-2.1 6.9-5.2 9.6-6.8l5.1-3 6.7 6.1 6.8 6.2v108.9c0 60 .4 111.2.8 114 1.7 11.5 2.2-23.5 1.9-120.3-.2-55.1-.2-100.2 0-100.2a339 339 0 0 1 26.6 23.8 50 50 0 0 0 7.9 6.9c1.7.8 7.6 5.6 13.1 10.7 24.4 22.2 30.5 26.5 37.4 26.6 4.8 0 6.9-1.5 9.7-7 3.4-6.8 3.1-7.6-.5-1.4-2.5 4.5-5.5 7.2-6.7 6.1-.2-.2 1-3 2.7-6.2a34 34 0 0 0 3-7c0-1.5-6.1-9.2-18.2-23.1a766.8 766.8 0 0 1-39.2-47.3c.3-.3 2 1 3.7 2.9 3.6 3.9 9.7 9 17.2 14 6.6 4.5 14.4 10.6 27.3 21.4 5.9 4.9 12.3 10 14.3 11.3 3.5 2.3 3.7 2.7 2.7 5.3-.5 1.6-.8 4.1-.6 5.7.7 5.2 8.2-12.4 11.6-27.2 3.9-17.2 7.9-38.9 9.2-50 .5-5 2.1-16.4 3.5-25.5 2.4-16 2.4-18 2.4-69.5 0-37.8-.3-52.3-1.1-50.5a155 155 0 0 0-.5 26.4c.6 23.8.6 23.9-1.7 27a97.9 97.9 0 0 0-7.1 17.1c-7.6 22.6-19.7 50-24.8 56.1a176 176 0 0 0-6.5 9.1c-4.6 6.8-6 8.1-6.6 6.1l-9.2-25.2c-.6-1.5-.4-1.7 1.3-1.2 2 .6 2 .5.7-5.1-1.7-7.3-1.7-7.4.2-6.6 1 .4 2.2 0 2.8-.9a6 6 0 0 1 3.1-2c1.5-.3 2-1.1 1.8-3.6-.1-2.7.2-3.2 1.7-2.7 1.2.4 2.2 0 2.8-1.1.5-.9 1.5-1.4 2.3-1.2 1.9.7 7.2-5 6.5-6.8-.4-1.1.3-.9 2.3.6 4.5 3.1 4.7.8.6-6-3.9-6.5-5.9-8.4-5.3-5.3.5 3.2-1.6 2.8-3.6-.6-1-1.8-1.7-3.4-1.5-3.5.4-.4 7.4.7 12.9 1.9 7.5 1.6 13.2 0 14.9-4.3a99.5 99.5 0 0 0 4-21c-.1-1.5-.7.5-1.4 4.4-1.8 9.9-5.9 18.2-9.3 19.1a88.8 88.8 0 0 1-29.2-6.3c0 .4-3.6-3-8-7.5-7.5-7.6-8.3-8.1-11.2-7.5-1.8.3-4.2 1.6-5.4 2.7l-2.3 2.1-2.4-4.8c-3-5.8-5.1-7.9-13.7-13.3-3.6-2.2-8.2-5.3-10.3-6.8l-3.8-2.8 6.8-1.1c5.2-.8 12.5-.8 30.3.2 12.9.7 25.1 1.5 27.1 1.8 4.5.7 7.1-1.1 7.4-5.2.2-2.7-.2-3.3-3.9-5a71.3 71.3 0 0 0-12.1-3.7l-8.8-2.2c-1.5-.9 2.4-4.2 6.9-5.9 6.8-2.6 35.1-.8 41.5 2.7 1.1.5 1.9.6 1.9.1 0-2-4-4.3-9.6-5.3-6.9-1.4-8.2-2.2-6.5-4.3.9-1.1.9-2 .2-3.4a314 314 0 0 0-32.1-28.5c-10.9-8.7-18.2-10.8-23-6.9l-2.2 1.8 3.5 10.4a208 208 0 0 0 5.2 14.5c1.4 3.3 1.5 3.7.2 2.6-1.4-1.1-7.8-13.6-12.3-23.6-2.4-5.4-17.2-43.9-18.5-48a27 27 0 0 0-2.5-6c-.8-1.2-2.2-5.5-3.3-9.8-1-4.2-2.5-8.3-3.3-9.1-.8-.8-2.1-3.5-2.8-6-.7-2.6-1.5-4.5-1.7-4.2-.3.2.9 4.7 2.6 10l3.1 9.6-2.1 14.2c-2.4 16.2-2.1 22.1 1.4 28.2 6.7 11.7 1.9 7.3-8.3-7.5a370.5 370.5 0 0 1-32.9-59.4 616.3 616.3 0 0 1-15.6-39.3c-.9-2.9-1.9-5.1-2.2-4.9-.6.7 6.4 21.5 12.8 37.7 2.9 7.4 8.8 20.5 13.1 29 4.3 8.5 7.8 15.8 7.8 16.1 0 .4-1 .9-2.2 1.2-2.9.8-5.2-1.3-13.9-12.8a236 236 0 0 0-10.9-13.3 22 22 0 0 1-4-5.2c0-.6-.5-1-1.1-1-.6 0-.8.9-.4 2.1.5 1.4.3 1.9-.3 1.5a37.4 37.4 0 0 1-4.2-13.1c0-.9-3.2-6.4-7.2-12.3s-8.4-13-10-15.7c-1.5-2.8-2.8-4.6-2.8-4.2 0 1.5 6.3 13.2 10.2 19a91.7 91.7 0 0 1 11.3 25.8c1.5 5.8 2.2 35.9.9 39.3-.3.9-1.5 1.6-2.5 1.6-1.1 0-3 1.6-4.5 3.7-12.6 18.8-14.6 21.2-16 19.8-1-.9-2.3-1.1-4.2-.6-1.5.5-4.1.6-5.7.4-5.7-.8-42.9 15.2-64.9 27.9-9.9 5.8-10.9 6.6-11.1 9.4-.2 2.5.3 3.4 2.2 4.3 1.3.6 3.4 1.1 4.6 1.1 1.2 0 3 .7 4.1 1.5 1.8 1.3 1.8 1.4-.5 1.3-6.3-.4-18 .3-17.5 1 1.1 1.9-12 0-15.4-2.2a58.7 58.7 0 0 0-12.2-4.7 31.6 31.6 0 0 1-8.8-3.1c0-1.8 6.9-2.5 12.1-1.2 10 2.6 20.1 1.4 21.4-2.6 1.4-4.4 12.5-13.8 25.2-21.4a155.8 155.8 0 0 1 29.9-14.6c.6 0 2.1-1.1 3.4-2.5 1.3-1.4 3.2-2.5 4.2-2.5 2.2 0 2.3-1.3.4-4.3-3.1-4.6-.1-12.6 6-16.4 1.6-1.1 1.5-1.1-1.4-.6-2.7.5-3.1.3-2.6-1.1.8-2 .9-2.1-7.1.8a94.5 94.5 0 0 0-22.1 12.3 10 10 0 0 1-5.1 2c-2 .1-5.1 1.4-6.9 2.8-1.9 1.4-3.8 2.4-4.3 2.1-.4-.3-8.8 2.9-18.7 7-17.7 7.5-27.2 10.9-28 10.1-.2-.2.4-1.5 1.4-2.8 1.1-1.3 7.9-12.5 15.2-24.9l23-39c25.6-43.4 36.1-64.1 42.9-85.1l2.2-6.7 7.2.5c4 .3 8.2 1.1 9.5 1.9 2 1.3 2.3 1.3 2.8-.1.8-1.9 4.4-2 7-.1 1.6 1.3 2.1 1.3 3.5 0 .9-.8 3.1-1.6 5-1.8l9.1-1.1c5.1-.6 5.8-.4 7 1.4.7 1.2 1.7 2.1 2.3 2.1.5.1 8.7 6.1 18 13.4 15.1 11.8 17.1 13.6 17.5 16.7.5 3.1.6 3.2 1.7 1.4 1-1.8 1.4-1.6 7 3 14.5 12.3 35.2 35 38.7 42.7 4 8.5 23.9 31.3 51.1 58.3 22 21.9 28.8 29.9 40.2 46.8 6.8 10.1 7.5 10.8 7 7.4-1.5-9.8-16.3-28.4-46.4-58.1-28-27.7-39.6-40.3-44.7-48.9-8.4-14-27.5-35.5-44.3-49.9l-8.3-7.2-.1-148.5c0-81.7-.4-150.9-.8-153.6a725 725 0 0 0-1.5 53zM408.3 150c-.3 1.1-1 2-1.5 2-.6 0-.7-.7-.4-1.6.3-.9.6-2 .6-2.5 0-.6.4-.8.9-.5.5.3.7 1.5.4 2.6zm.2 5.3c-.8 2.1-2 3.7-2.7 3.7-.6 0-.8.3-.5.7.4.3.2 1.2-.5 2-.6.7-.9 1.6-.6 1.8 1 1 3.4-.6 5.1-3.3 1.6-2.6 1.6-2.6 1.7-.5 0 1.4-1.7 4-4.2 6.5-3.3 3.3-4.3 3.8-4.7 2.5-.4-1.2-1-1.4-2.1-.7-1.3.9-1.3 1.1 0 2 .9.6 1 1 .3 1-.6 0-1.8-.9-2.7-2.1-1.3-1.9-1.4-.9-1.1 9.7.3 7 0 12.1-.5 12.4-.7.4-.2 5.3 1.2 13.1 1.9 10.5 2.3 15.9 2.3 34.9 0 13.8.4 22.8 1 23.2.6.5.5.8-.2.8s-1 .7-.6 1.6c.4 1.2.2 1.5-.8 1.2-1.1-.4-1.4-3-1.6-11.6-.2-13.7-6.3-55.3-8.4-57.6-.5-.6-.9.2-1 2-.1 1.6-.3 2.2-.6 1.1-1.2-4.4-2.3-.8-2.4 7.5-.1 8.2-.2 8.8-1.1 5.3-.5-2.2-.7-5.7-.5-7.8.4-2.7.1-3.9-1.1-4.6-1.3-.7-1-1.6 2.2-6.1a30.5 30.5 0 0 0 6.6-21.1c0-6.8.3-8 2-8.9 1.6-.8 2.2-.8 2.6.4.5 1.3 1 1.3 4-.1 1.8-.9 3.2-1.9 2.9-2.1-.2-.2.7-1.6 2-3s2.9-3.9 3.6-5.4c.6-1.6 1.3-2.7 1.5-2.5.3.2-.3 2-1.1 4zm7.5 7.2c-.6 2-2.3 4.9-3.7 6.6a38.9 38.9 0 0 1-12.2 8.9c-2.1 0-1.1-1.8 1.4-2.4 5.5-1.4 11.9-9.2 14-17.1.6-2.1.9-2.5 1.2-1.2.3.9-.1 3.3-.7 5.2zm-26.7 9.6c-.3 10.2-1.3 13.3-6.1 20.4-4.2 6.1-9.9 11.5-12.3 11.5-1.8 0-.8-2.9 1.7-4.9 2.5-2 2.5-2.1.6-2.1-3 0-1.8-2.4 2.4-4.9 4.1-2.5 5.1-4.5 3.5-7.4-1-1.8-.9-3 .3-5.7l1.5-3.5.1 3.2c0 1.8.4 3.3 1 3.3.5 0 .7.7.4 1.5-.4.8-.1 1.5.5 1.5 1.4 0 3-4 3.8-9.5.5-3.6.2-4.5-1.8-5.8l-2.3-1.6 2.5-1c3.8-1.5 4.4-.8 4.2 5zm-7.6 2.1c-.3.8-.6.5-.6-.6-.1-1.1.2-1.7.5-1.3.3.3.4 1.2.1 1.9zm-121.3 10.2c-.7 7.4-1.4 6.9-1.4-1 0-4.7.3-6.4 1-5.4.5.8.7 3.7.4 6.4zm-.4 21.1-.6 12-.3-9.3c-.5-16.2-.4-18.4.7-16.2.5.8.5 6.9.2 13.5zm143.7 9c.3 2.2.2 3.7-.2 3.3-.8-.8-3.5-16.1-3.4-18.8.1-1.6 2.5 8.9 3.6 15.5zm-23.4-11.8c-1 .3-1.3 5.4-1.4 20.1-.1 11.4-.4 18.7-.9 17.2-.4-1.4-.8-8.3-.9-15.4a74 74 0 0 0-.6-12.4 69 69 0 0 0-1.1 11.4c-.4 6-.8 11.1-1 11.3-.2.2.1 1 .7 1.8.6.7.7 1.3.2 1.3-1 0-.9 2.4 1.3 20.8.9 7.3 1.4 13.5 1.1 13.8-.8.8-3.1-4-5.6-11.5-2.4-7.3-4.6-19.9-5.6-31.5-1.2-14-2.4-12.8-2 1.9.3 8.5.1 13.2-.4 12-.5-1.2-1-7.5-1.2-14.2-.3-10.3-.1-12.4 1.3-13.9a32 32 0 0 0 3.2-4.9c1.5-2.9 9.5-8.2 12.6-8.3 1 0 1.1.1.3.5zm7.3 4c-1.1 1.1-1.7-.4-.9-2.3.7-1.8.8-1.8 1.1-.1.2 1 .1 2.1-.2 2.4zm-110.5 1.5c.7 1.2 1.4 3.8 1.6 5.8.7 7.4 1.5 11 2.4 10.4 1.4-.8 1.6 18.7.2 21-1.2 1.9-2.3-2.4-2.3-9.5 0-4.2-.7-11.4-1.5-16-2.4-13.2-2.5-13.9-2-13.9.2 0 1 1 1.6 2.2zm110.9 2.3c0 1.4-.4 2.5-.9 2.5s-.8-1.1-.7-2.5c.1-3.3 1.6-3.3 1.6 0zM264.9 253c-.7 4.6-1.9-9.8-1.9-23.1 0-20.1 1.5-20.1 2 .1.3 10.7.3 21.1-.1 23zm116.7-37.3c-1 1-1.9-.5-1-1.8.6-1.1.8-1.1 1.2 0 .2.7.1 1.5-.2 1.8zm.4 3.3c0 .5-.4 1-1 1a1 1 0 0 1-1-1c0-.6.5-1 1-1 .6 0 1 .4 1 1zm-94.1 8.4c2.3 3.6 6.5 8.8 9.2 11.5 4.8 4.8 6.1 5.6 11.9 6.5l3 .7 5.5.4c8.1.3 17.5 1.7 17.5 2.6 0 .7-4.2 2.1-14.5 4.8-3.4.9-4 1.5-4.1 3.8-.1 1.6-.7 4.1-1.4 5.8l-1.3 3-.7-2.7c-1.5-5.3-3.8-7.1-14.6-11.4a98.4 98.4 0 0 1-11.7-5.3c-.6-.6-1.3-5.4-1.8-10.8a121.4 121.4 0 0 0-1.7-15.3c.2 0 2.3 2.9 4.7 6.4zm72.2 5.8-.9 3.3-.1-4.1c-.1-2.3.2-5.7.7-7.5l.7-3.4.3 4.2a23 23 0 0 1-.7 7.5zM382 223c0 .5-.4 1-1 1a1 1 0 0 1-1-1c0-.6.5-1 1-1 .6 0 1 .4 1 1zm5.9 5.2c-.1 3.8-.3 4.6-.8 2.8-.7-2.4-.3-8 .5-8 .2 0 .4 2.4.3 5.2zm-144 4.7c-1.3 3.9-2.7 7.1-3.2 7.1s-.6-.8-.3-1.8c5.3-14.2 7.4-17.5 3.5-5.3zm138.1-6.5c0 .3-.4.8-1 1.1-.5.3-1 .1-1-.4 0-.6.5-1.1 1-1.1.6 0 1 .2 1 .4zm28.6 16.2c.5 3.7.3 5.4-.5 5.4-.6 0-1.1-1.9-1.2-4.8a54 54 0 0 0-.5-7.7c-.3-2.8-.3-2.8.6-.7.6 1.3 1.3 4.8 1.6 7.8zm-4.9 1.4c-.6 6.7-1.7 7.6-1.7 1.3 0-4.4.5-6.3 1.7-6.3.2 0 .2 2.3 0 5zm-45.7 0c0 1.6-.2 3-.4 3s-.6-1.4-.8-3c-.3-1.7-.1-3 .4-3 .4 0 .8 1.3.8 3zm27.9 9.7c0 2.9-.2 5.3-.6 5.3-.5 0-.8-3.7-.9-8.3 0-5.1.2-7.1.7-5.2.4 1.6.7 5.4.8 8.2zm-22.2-5.5c-.3.8-.6.5-.6-.6-.1-1.1.2-1.7.5-1.3.3.3.4 1.2.1 1.9zm-8 4.5c-.3 1-.5.4-.5-1.2 0-1.7.2-2.4.5-1.8.2.7.2 2.1 0 3zm9.2 13.2c1 1.7.9 2-.5 1.4-2-.7-3.4-4.5-3.3-8.6.1-3.2.1-3.2 1.4.9.7 2.3 1.8 5.1 2.4 6.3zm26.8-.7c.8 2.7-.7 11.2-1.8 10.1-.5-.5-1.1-5.1-1.4-10.3-.6-9.5-.6-9.5 1-5.5l2.2 5.7zm-128.5-5c.6 1.7-.3 5.8-1.1 5.8-.4 0-.7-1.6-.7-3.5.1-3.4 1.1-4.6 1.8-2.3zm90.1 2.8c1.3 2.2 1.5 3.5.8 4.7-1 1.9-1.5 1.2-3.5-5.5-1-3.2.7-2.7 2.7.8zm33.2.4c0 1.5-.3 3-.8 3.3-.4.2-.3 1.1.3 1.8 1.3 1.5.4 3.9-1 3-1.2-.7-.8-11.6.4-11.2.5.2 1 1.6 1.1 3.1zm-21.3 8.8c1.9-1.9 10.8 3.5 10.8 6.6 0 2.5-10.9 29-16.7 40.6a684 684 0 0 1-24 42.9l-11.6 19.2a413 413 0 0 1-8.7 14c-1.5 2.2-6.2 9.8-10.5 17-8.6 14.4-17 27-18.4 27.9-1.2.8-2.3-1-2.5-3.6-.1-1-1.2-2.4-2.6-3.1-2-1-2.5-2-2.4-4.7.1-1.9.5-4.5.9-5.8.6-1.9.4-2.2-1.8-2.2-1.3 0-3-.6-3.6-1.4-1.5-1.8-.2-2.7 7.3-5.5 3.3-1.2 7.2-3.3 8.8-4.6 3.7-3.1 4.8-3.1 4.8 0 0 1.4-.4 2.5-1 2.5-.5 0-1-.5-1-1.1 0-.5-.4-.7-1-.4-.5.3-1 1.3-1 2.1 0 .9-1 2.4-2.2 3.4l-2.3 1.9 2.4.9 2.4.9-3.4 2.1a79.1 79.1 0 0 1-6.4 3.3c-1.7.6-2.5 1.3-1.8 1.6 1.4.5 7.5-2 11.4-4.7 1.8-1.3 2.9-3 2.9-4.5 0-1.7.9-2.7 3.9-3.8 5.8-2.4 8.3-11.3 4-14-2.2-1.4-10.7 3.5-11.9 6.9-1.1 2.8-6.8 6.6-9.1 6.1-.8-.2-3.1.3-5 1.2-4.6 2.2-5.3 6.6-1.3 8.1l2.8 1.1-2.2 2.2c-2.1 2.1-2.3 2.1-5 .5-3-1.9-3.3-5.5-.6-9.6.9-1.3 1.3-2.6 1.1-2.9-.9-.8-4.6 4-5.2 6.8-.5 2.1-1.3 2.9-2.8 2.9-3.9.1-6.4 3.3-14.6 18.8-9.1 17.2-11.4 20.9-11.8 19.5-.5-1.5 3.7-10.3 4.9-10.3.5 0 .8-.7.4-1.5-1-2.8 26.7-55.9 41.3-78.8 3.4-5.3 4.6-6.5 5.6-5.7 1.1.9 2.5-.5 6.5-6.5a38 38 0 0 1 6.6-8.2c.8-.3 1.4-1.3 1.4-2.2 0-2.4 30.3-47.8 38.2-57.2a21 21 0 0 0 3.8-5.5c0-.5 2-3.8 4.4-7.4l5.9-9.2 1.6-2.7 3.6 3.6c2.6 2.6 3.9 3.3 4.7 2.5zM222 269c0 .5-.7.7-1.5.4-.8-.4-1.5-.8-1.5-1 0-.2.7-.4 1.5-.4s1.5.4 1.5 1zm11.5 2c.3.5-.1 1-1 1s-1.3-.5-1-1c.3-.6.8-1 1-1 .2 0 .7.4 1 1zm36.3 1.2c2.6 2.6 1.4 3.8-2.3 2.2-1.9-.7-4.5-1.4-5.7-1.5-2.2 0-2.2-.1-.3-.9 2.9-1.3 6.9-1.2 8.3.2zm132.8 4.6c-1.2 1.1-1.8-.7-1-3l.8-2.3.4 2.3c.2 1.3.1 2.6-.2 3zm18.9-2.7c3 1.3 2.9 1.3-3 1.9-3.3.4-6.1.6-6.2.5a9 9 0 0 1 .4-2.4c.6-2.5 2.8-2.5 8.8 0zm-31.5 1c0 .5-.4.9-1 .9-.5 0-1-.7-1-1.6 0-.8.5-1.2 1-.9.6.3 1 1 1 1.6zm-99.2 18c5.2 4.7 1.6 8.5-3.8 4.1-1.8-1.4-2.2-2.5-1.6-4.5.8-3.4 1.3-3.3 5.4.4zm7.3 16c1.1.5 1.7 1.4 1.4 2-.4.5-1 .7-1.5.4-.5-.3-1.8 0-2.9.7-2.4 1.5-4.7-.1-3.8-2.6.7-1.8 3.9-2.1 6.8-.5zm-1.3 11.7c.2.7-.6 1.2-1.7 1.2-2.1 0-2.7-1.1-1.4-2.4.9-.9 2.6-.2 3.1 1.2zm4.2 28.1c0 .5-.7 1.4-1.5 2.1-1.6 1.4-1.8 1-.9-1.4.6-1.7 2.4-2.2 2.4-.7zm148.5 37.3c2.1 4 4.7 8.5 5.7 10 1 1.4 1.8 3.1 1.8 3.8 0 .6.9 3 2.1 5.3a301 301 0 0 1 4.1 9.2l2 5-3.1-2.9a46.2 46.2 0 0 1-5.6-6.7 138 138 0 0 1-10.6-25.7c-.6-1.7-1.4-3.2-1.9-3.2a1 1 0 0 1-1-1c0-.6.6-1 1.3-1 .7 0 3 3.3 5.2 7.2zm-256.1 15.9c-2.4 2.7-3 1.5-.9-1.8 1.2-1.7 2-2.3 2.3-1.5.2.7-.4 2.2-1.4 3.3zm110.4 1.7c.4 2.4-2.2 7.2-3.8 7.2-.5 0-1-1.2-1.2-2.8-.3-2.3-.7-2.7-3.3-2.4-3 .2-3 .2 1-2.3 4.7-3 6.9-2.9 7.3.3zm-105.9 8.4c.2 3.7-15.3 28.5-22.7 36.5-5.9 6.4-6 5.4-.2-1.7 12.5-15.1 21.8-34.8 19-40.1-.6-1.1-.8-2.5-.4-3.1.8-1.3 4.2 5.4 4.3 8.4zm7.1-4.1c0 .5-.4.9-1 .9-.5 0-1-.7-1-1.6 0-.8.5-1.2 1-.9.6.3 1 1 1 1.6zm242.4 5.4c.3.8 1.2 1.5 2.1 1.5.8 0 1.5.4 1.5.9 0 1.6-5.5-.5-5.8-2.2-.4-2.1 1.4-2.3 2.2-.2zm-244.7 8.7c-.3.8-.6.5-.6-.6-.1-1.1.2-1.7.5-1.3.3.3.4 1.2.1 1.9zm260.1 11.2a32 32 0 0 1 6.3 13.3c1.3 6.5.7 16.8-1.2 22.8l-1.3 4-.7-7a44.7 44.7 0 0 0-4.4-17.5l-1.5-2.5.3 3.4c.1 1.9-.3 3.6-.9 3.8-.7.2-1.4-2.1-1.8-6.6-.6-5.8-2.7-16.3-5.2-25.6-.7-2.8 3.7 2.3 10.4 11.9zm-17.5-5.7c4.1 27.3 4.9 33.9 4.8 40.3-.1 6.9-2.2 16.3-4.1 18.3-.4.5-.6-3.9-.3-9.7.5-8.7.3-10.6-.8-10.6-.8 0-1.9-1-2.4-2.2-.6-1.2-1.6-2.4-2.3-2.6-1-.3-1.2 1.2-.7 7.1.4 4.9.2 7.7-.4 8.2-.7.4-1.1-.8-1.1-3.4 0-2.2-.5-5-1.1-6.3-.8-1.8-.4-4.6 1.6-12.3a172 172 0 0 0 3.7-20.7c1.2-11 2.1-12.7 3.1-6.1zM279 429c0 .5-.4 1-1 1a1 1 0 0 1-1-1c0-.6.5-1 1-1 .6 0 1 .4 1 1zm-67 5.5c0 2.5-.4 4.5-.9 4.5-.8 0-.8-1.2-.2-7.8.1-.6.3-1.2.6-1.2s.5 2 .5 4.5zm-8.4 6.6c-.7 4.1-1.8 8.6-2.5 9.9-1.1 2.3-1.1 2.4.3.6a28 28 0 0 0 3.2-6.5c2.6-7.1 3.1-6.8 2.6 1.6-.2 4.3-.4 9.2-.3 11 0 1.8-.4 3.5-.9 3.8-.6.3-1 2.6-1 5.1 0 5.9-1.6 4.8-2.5-1.7-.7-4.9-1.9-5.6-2.7-1.5a3 3 0 0 1-1.7 2.4c-1 .3-1.2-.4-.9-2.9.3-1.9.9-4.2 1.3-5.3.7-1.6.6-1.7-1.3-.7-1.1.6-2.3 1.1-2.5 1.1-.2 0 1.1-3.1 2.9-6.9 1.8-3.8 4-9.5 4.9-12.6a17 17 0 0 1 2-5.3c.2.2-.2 3.7-.9 7.9zm208.6 1.1c-9 12.2-19.6 28-19.7 29.3 0 1.3-6.5 2-6.5.7 0-.5 1-2.2 2.2-3.8 3.7-4.8 29.9-35.4 30.4-35.4.2 0-2.7 4.2-6.4 9.2zm-192.7 9.3c2.3 4.9 5.9 11.5 8 14.5 3.6 5.4 3.7 5.6 3.1 12.5-.8 8-1.4 10.5-2.6 10.5-.4 0-1.1-1.6-1.5-3.6-.9-5.3-5.3-14.6-6.4-13.9-1.1.6-2.6-4.3-3.7-12.5l-.8-5.5-.8 4.5c-.4 2.5-.6 8.5-.4 13.5.3 6.4.1 8.4-.6 7.1a53.5 53.5 0 0 1-1-22.1c1.2-9.1.8-10.9-.9-4.1-.6 2.5-1.5 4.6-2 4.6-1.2 0-1.1-.9.8-7.1.9-3 1.8-6.1 1.9-6.9.5-5.7.5-5.6 1.6-3l5.3 11.5zm-37.9 7.1c-5.3 15.5-6.2 20.4-4.7 25.9 2.5 9.3 11.7 19.1 18.7 20.1l3.9.5-4-1.9a22 22 0 0 1-10.4-10.5 40.1 40.1 0 0 1 .5-20c.9-2.5 3.3-6.6 5.4-8.9l3.8-4.3v6.6a55 55 0 0 0 15.9 36l5.4 5.7-1.1 6.3c-1.9 12.1-1.1 19.9 2.1 19.9 1.7 0 1.9-.9 1.9-11v-11h2.5c1.4 0 2.5-.6 2.5-1.3 0-.6 1.3-1.2 3-1.3 2.2-.1 3 .3 3 1.6 0 1-.9 2-2.1 2.3-1.4.4-1.9 1.1-1.5 2.4l1.2 6.8c.3 2.7 1.2 5.7 2 6.5 1.7 2 3.1 17 1.6 17-.6 0-2.4-1.6-3.9-3.5-1.8-2.2-3-3-3.4-2.3-.5.8-4.9-1.5-13.1-6.9a404.7 404.7 0 0 0-34.3-20.3c-.2 0-4.4-2.4-9.2-5.3a449 449 0 0 0-16.3-9.3 49.6 49.6 0 0 1-8.8-5.4 49 49 0 0 1-6-11.4c.2-.1 2.2-.8 4.5-1.4 9.2-2.7 32.3-22 41.3-34.6 3-4.2 3.5-4.6 3.8-2.6.2 1.2-1.7 8.2-4.2 15.6zm275.2-6.9c.9 3.9.9 7.4.1 13.4-2.3 16.6-.2 29.6 5.5 34.1 3.4 2.8 4 2.1 1.2-1.6-4.2-5.6-4.9-8.4-2.9-11.5a45.2 45.2 0 0 0 7.6-12.1c2.8-6 3.1-7.4 3.1-17.7l.2-11.3 4.5 4.1c6.7 6.1 17 10.7 46.8 20.5.9.3-.2 1.5-3 3.3-6.5 4.1-7.2 5.3-7.6 13.9-.6 11.9-2.6 13.7-12.9 11.1-4-1-4.9-.9-9.7 1.4-7.3 3.6-13.4 9.5-31.5 30.2a153.5 153.5 0 0 1-17.5 18.3c-1 .2-2.9 1.5-4.3 2.9-3 3-3.6 2.5-5.9-4.6-4.3-13.2 0-31.9 8.1-35.7 3.8-1.8 8.2-7.1 10.4-12.4 1.2-2.9 3-4.1 3-2 0 2 7.6 9.4 11.5 11.1 4.4 2 9 2.4 10 .9.4-.6-.6-1-2.4-1-4.4 0-7.5-1.5-12.1-5.6-6.2-5.6-7.3-8.4-6.1-14.7.6-2.9 1.2-13.4 1.3-23.4.2-10 .6-17.9.9-17.5.3.4 1.1 3.1 1.7 5.9zm7 13.6c.4 8 .1 10-1.6 14-3.5 8-4.6 6.2-3.8-6.6 1.2-20.4 4.4-24.9 5.4-7.4zm-294.8-10c0 .2-1 1.2-2.2 2.3l-2.3 1.9 1.9-2.3c1.8-2.1 2.6-2.7 2.6-1.9zm17.6 5.6c-.2 1.5-.6 3.3-1 3.9a56.6 56.6 0 0 0-3.7 17.8c-.2 5.3-1.1 6.9-2.3 3.8-.3-.9-.6-2.6-.6-3.9 0-2.1 5.5-22 6.6-23.7 1-1.5 1.4-.8 1 2.1zm49.7 6.6c-.3.9-.8 1.4-1 1.1-.3-.3-.2-.9.2-1.5.9-1.6 1.5-1.3.8.4zm-36 11 .7 3-1.5-2.7c-.8-1.5-1.7-4.9-2-7.5l-.5-4.8 1.3 4.5a72 72 0 0 1 2 7.5zm235.4-2.3c-.2 1.8-.4.4-.4-3.2s.2-5 .4-3.3c.2 1.8.2 4.8 0 6.5zm-27.1-3.6c-.5 1.2-1 1.3-1.9.6-.7-.6-2.4-.8-3.8-.5-1.3.3-2.1.3-1.7-.2.8-.8 7.1-2.4 7.7-1.9.2.2.1 1.1-.3 2zM126 474.9c4.1 1.7 4.8 2.5 9.5 11.6l5 9.8 20 11.2c41.1 23 57.2 33.1 63.9 40.2 2.8 3 4.9 4.3 6.8 4.3 1.5 0 3 .4 3.3 1 .9 1.4 2.5 1.2 2.5-.3 0-1.3 7.8-3.7 11.7-3.7.9 0 2.5-.7 3.5-1.6 1.7-1.6 1.7-1.8-.5-3.9-1.2-1.2-2.7-3-3.4-4.1-1-1.5-1.1-1.5-.7-.2.5 1.5 0 1.8-3.5 1.8-4.8 0-5-.5-1.5-3.3 2.2-1.7 2.5-2.6 2.1-5.9-.6-4.7.9-6 1.8-1.7.9 4 7.9 11.7 12.3 13.6 2.5 1 6.1 1.2 15.3.7 10.5-.6 12.5-1 14.8-2.9 2-1.8 3.1-2 5-1.3 1.4.5 4.1.8 6 .8 2-.1 5.8.2 8.5.6 3.9.5 6.5.1 13.2-2.1 7.1-2.4 8.4-3.1 8.4-5 0-2.4-5.3-7.9-9-9.3-4.5-1.6-8.2-2.3-7.6-1.4.3.5 2.3 1.2 4.5 1.6 4.9.8 10.1 4.9 10.1 8.2 0 2-.9 2.6-5.7 4.1a57.1 57.1 0 0 1-30.1-.7c-2-1.1-4.4-2-5.4-2-.9 0-2.8-1.2-4.1-2.6-2.1-2.3-2.8-2.4-5.8-1.6l-3.4 1 3.2.1c2.1.1 3.6.8 4.3 2.1.6 1.1 2.1 2 3.3 2 3.1 0 5.1 1.5 4.4 3.3-.7 1.8-8.1 4.1-10.3 3.3-2.4-.9-2.9-3.8-.9-5.2 2-1.5 1.6-1.8-.9-.8-.9.3-1.6 1.1-1.6 1.7 0 2.6-3.4 4.7-7.6 4.7-6.1 0-8.8-1.3-14.5-7-3.6-3.6-4.9-5.7-4.7-7.3.4-2.7 3.1-2.9 3.6-.2.9 4.6 9 10.5 14.4 10.5 2.2-.1 2.2-.1.4-1.5-1.1-.8-1.6-1.5-1.2-1.5.4 0-.9-1.9-2.8-4.2-3.4-3.9-4.1-6.2-2-6.4l7.7-.8c6.3-.7 6.9-.6 9.8 1.8 3.2 2.7 13.2 6.2 14.9 5.1.5-.3 2.7.3 4.9 1.5 5.5 2.7 14.1 2.8 16.6 0 1.8-2 1.7-2-2.1-2-2.2 0-5.1-.8-6.4-1.7-2.4-1.6-2.4-1.6-1 .1.8 1 2.6 2.3 4 2.9l2.5 1.1-3.3.4c-4.3.4-10.7-2.7-15.6-7.7l-3.9-4 2.9-1.2a61.4 61.4 0 0 1 18.4-2.4c3.3 2.1-1.5 6.4-5 4.5-1.7-.9-2-.8-2 .9 0 1.3.6 1.8 1.8 1.6 6.5-1.3 7-1.6 7.6-4 .6-2.4.8-2.4 6.9-1.9 7.7.8 10.7 2.5 10.7 6.2 0 2.1.8 3.1 3.8 4.7 4.7 2.5 5.1 5.7.8 6.5-1.6.3-3.1 1.1-3.4 1.7-.5 1.7.8 1.6 5-.1 2.1-.9 3.9-1.1 4.8-.6.8.5 5.4.9 10.3.9 8.3 0 8.8-.1 9.9-2.4 1.1-2.5 1.6-2.7 7.3-4 7.1-1.5 10.1-7 5.3-9.6a9.8 9.8 0 0 1-2.9-2.1c-.3-.4-1.9-.3-3.6.2-7.7 2.7-17.1-.6-13.1-4.6 1.5-1.5 1.7-1.5 3.7.5 1.6 1.6 3.3 2.1 7.7 2.1 3 0 6.5-.5 7.6-1.1 1.6-.9 3.5-.8 7.7.1 7.3 1.6 7.4 1.7 5.5 4.5a6.6 6.6 0 0 0-1 5c.9 3.5 2.5 3.1 2.4-.5-.1-1.7.4-3.6 1-4.2 2.7-2.7 1.3-4.6-4.3-5.8-3-.6-5.5-1.4-5.5-1.7 0-.8 30.9.3 31.7 1.1.3.3 0 1.2-.7 2.1-.8.9-1.1 3-.7 5.5.3 2.2.1 4-.4 4-.6 0-2.2 1.2-3.6 2.7-1.6 1.7-2.7 2.3-3 1.6-.2-.7-1-1-1.7-.7-.6.2-2.8-.2-4.8-1.1-2.1-.8-3.9-1.1-4.3-.6-.3.5-.1 1.2.4 1.5.5.3.7 1.5.4 2.6-.4 1.7-1.4 2-5.4 2-5.3 0-5.4-.1-3.9-3.1.7-1.3.8-2.5.1-3.7-1-1.6-1-1.6-1.1.2 0 1.1-.7 2.7-1.6 3.7-.9 1.1-1.4 2.6-1 3.5.6 1.4 1.8 1.6 9 1.2 11.8-.8 13.3-.4 12.8 3.3l-.4 2.9h-10c-6.3 0-9.7.4-9.3 1 .3.6-.4 1-1.7 1-1.9 0-2-.2-.8-1.1 1.2-.9 1.1-.9-.5-.4-1.1.4-3.7.7-5.7.6-2.3-.1-3.8.3-3.8 1 0 .8-1.8.9-6.1.4-4.7-.6-6.3-.4-7 .6-.7 1.2-.9 1.2-.9.1 0-1-1-1.2-3.7-.8l-7.8 1.2-6.5 1c-2.3.4-12 1-28 1.9l-25.6.9a329.6 329.6 0 0 0-31.8 2c-10.6.5-14.3 1.6-5.5 1.6 5.3 0 5.4.1 7.1 3.8.9 2 2.1 5 2.6 6.7.5 1.8 1.6 3.1 2.8 3.3 1.7.2 1.9 1.2 2 8 .7 55.1 1 67.9 1.7 68.9.5.7.5 1.3 0 1.3-.4 0-.9 19.4-1 43.2-.5 85.5-.5 85.5-2.3 44.3-1.5-37-4.4-58.4-8.1-62-1.5-1.3-2.3-1.6-2.6-.8-.2.7-1.1.9-1.9.6-.8-.3-2 .7-3.1 2.6-1 1.7-2.1 3.1-2.4 3.1-.9 0-1.7-4.8-2.9-17-.5-5.8-1.6-15.5-2.5-21.5-3-22.2-4.9-44.2-4.6-52.9.3-10.6 1.9-16.3 2-7.4.1 10 1.7 6.3 3-7 .8-8.5 1.7-13.3 2.8-14.4 1.3-1.5 1.2-1.6-1.9-1.5-2.8.2-3.8 1-7.2 6.2-6.4 9.5-15.2 21.9-25.8 36.3-8.7 11.6-10.2 13.2-12.1 12.6-1.2-.3-2.8-1.1-3.4-1.6-1.6-1.3-4.8.7-11.8 7.2a232 232 0 0 1-10.4 9c-6 4.9-6 4.9.9-7 9-15.6 24-46.3 24-49.2 0-8.2-10-16-28.5-22.3-23-7.8-73.5-28.2-73.5-29.7 0-1.2 10.9-4.8 17.8-5.8 5.8-.9 7.8-.8 14.7 1.1 11.4 3 13.2 2.8 12.1-1.5-.4-1.7-4.3-5.1-12.4-10.9-15.3-10.9-15.1-10.8-19.8-9.6-4.2 1.2-11.4 8-20.8 19.8-8 10-7.9 9.5-5.5 20.2 3.1 14.5 11.9 44.7 25.9 89.4a416 416 0 0 1 14 49l1.6 9.2c.2 1.3 1.8 3 3.5 3.9 2.6 1.3 2.9 1.8 1.8 2.9a261.1 261.1 0 0 1-28.4 13.3c-1.3-1.5-8.6-36.7-11.5-56.3a447.1 447.1 0 0 1-3.4-59.4l-.1-25.3-3-2.4a15.4 15.4 0 0 0-3.7-2.4c-.5 0-.8-7-.8-15.5 0-13.6-.2-15.5-1.6-15.5-1.9 0-1.7-1.4 2.7-13.4 3.6-10 8.4-18.2 12.2-21 2.2-1.6 4.2-2.1 8.5-1.9 5.3.1 5.5 0 2.3-.9-7.2-2-13.8 1.4-18.6 9.7a179.4 179.4 0 0 0-14 40.1 143 143 0 0 1-5 17.4c-.8 1.6-1.5 5.1-1.6 7.7 0 6.6-3.3 24.1-4.2 22.6a61 61 0 0 1-1.5-11.6c-.9-10.4-2.8-15.6-5.9-15.7-2.5 0-9.1-16.3-7.5-18.3.6-.7 1.6-3.1 2.3-5.5 1.2-4.2 2.2-5.1 3.4-3.2.4.6 1.4 1 2.3.9 1-.1 2.5.1 3.5.6 1 .4 2 .5 2.3.3.2-.3 1.6-4.4 3-9.2a95 95 0 0 1 7.8-19.8c1.8-4.2 5.4-10.8 7.9-14.7 4.9-7.4 5.9-8 16.5-9.7 3.1-.5 4.7-.3 6 .8.9.9 3.3 2.1 5.3 2.7 2 .6 6.3 2.8 9.5 4.7a87.2 87.2 0 0 0 26.2 11.9c4.9.6 4.3-.2-2-2.5-1.9-.6-2.6-1.4-2.2-2.4.7-1.7-2.1-10.9-4.2-14.4-1.1-1.6-2.4-2.2-5.2-2.2-2 0-4.4-.5-5.2-1-2.7-1.8 7.2-1 12 .9zm97.4 5.8c.9 2.5 1.4 4.8 1.2 5-.4.4-3-5.1-4.1-8.6-1.3-4.4 1.3-1.2 2.9 3.6zm186.8-2.4c2.5.3 5.5 1 6.5 1.5 2.7 1.5 3.5 1.5 4.3.1.5-.6 1.5-.9 2.4-.6 1.2.5 1.5 1.9 1.5 5.6-.1 2.7.1 5.3.5 5.9.3.5-.1 2.6-.9 4.6-.8 2-1.2 3.6-.9 3.6.4 0 .1.6-.5 1.4-.7.9-.8 1.7-.2 2 .5.3.7 1.6.4 2.7-.5 1.9-.7 2-1.5.4a9 9 0 0 1-1.2-2.8l-1-3.5c-.7-2.2-.9-2.2-2.1-.6-1 1.4-1 2.4.1 5.1.8 1.8 1.4 3.5 1.4 3.9 0 1-8.2-.5-9.7-1.8-.9-.7-1.7-.7-2.5 0-.7.5-7.1 1.2-14.3 1.6l-16.5 1.1a1025 1025 0 0 1-52.4 5.7c.2.3-2.6.7-6.4.7-14.6.3-32.2.9-41.7 1.5a500.2 500.2 0 0 0-28.9 2.2l-5.6 1c-1.9.4-4.3 1.1-5.2 1.5-1 .5-1.9.5-2.2 0-.3-.5-.9-7.4-1.2-15.3l-.7-14.5 4.8-.6c2.6-.4 6.4-.7 8.4-.7 4.9-.1 13.6-2.5 13.6-3.8 0-1.8 1.1-2.2 6.6-2.4 3.8-.2 6.4.4 8.6 1.7 3.1 1.8 3.3 1.8 17-.8 7.6-1.4 18.5-3.1 24.3-3.7l19-1.9c4.7-.4 15.2-.7 23.3-.6 8.1.1 15-.1 15.2-.6.5-.8 29.3-.5 37.7.4zm23.3 11.1a95 95 0 0 1-1.2 11c-.5 2.8-.6 2.9-1.9 1.1-1.6-2.2-1.8-10.1-.4-15.4l1.6-6.6.6-3 .9 2.4c.6 1.4.7 6.1.4 10.5zm6-10.4c.3.5.1 1-.4 1-.6 0-1.1-.5-1.1-1 0-.6.2-1 .4-1 .3 0 .8.4 1.1 1zM71 480.4c0 .3-.4.8-1 1.1-.5.3-1 .1-1-.4 0-.6.5-1.1 1-1.1.6 0 1 .2 1 .4zm159 12.2c0 .8-.4 1.2-1 .9-.5-.3-1-1.3-1-2.1s.5-1.2 1-.9c.6.3 1 1.3 1 2.1zm198.5 13.5c-.4 1.2-.8 3.3-.9 4.8-.1 1.4-1.4 3.8-2.9 5.3-2.5 2.5-2.6 3-1.4 5 1.5 2.4 2.3 12 1.2 13.8-1 1.5-5.6-4.5-4.9-6.4.3-.9.1-3-.5-4.8-1-2.8-.9-3.5.5-4.5 2.1-1.5 2.1-1.6-4-3.8-4.1-1.6-4.6-2-3.2-3 .9-.7 1.6-1.7 1.6-2.4 0-1.3 5.6-1.5 6.5-.1.9 1.5 2.9.2 4.9-3 2-3.5 4.1-4 3.1-.9zm4.5 2.9c-1 5.3-2 6.3-2 1.9 0-2.8 1.4-5.9 2.6-5.9l-.6 4zm-24.8 1.3c.4.7.8 1.5.8 1.8 0 .4-7.6.6-16.9.5-9.4 0-16.6-.5-16.2-.9.4-.4 5.2-1.1 10.7-1.5 16.2-1.2 20.8-1.1 21.6.1zm-37.4 2.4c-1 .2-2.6.2-3.5 0-1-.3-.2-.5 1.7-.5s2.7.2 1.8.5zm2.2 2.2c0 1.1-3.6 2.1-8.2 2.1-6.1 0-5.4-1.9.9-2.3l6.6-.5c.4-.1.7.2.7.7zm-32 1.9c0 .4-.5 1.3-1.2 2-2 2 .7 6.1 5.5 8.2a21.8 21.8 0 0 0 17.7 0c2.1-1.1 4.1-2.4 4.5-3 .9-1.5 4.1-1.2 5.5.6 2 2.4-1.6 5.4-7.6 6.2-3.8.6-5.1 1.3-6.1 3.2a5.1 5.1 0 0 1-8.8.6 8.2 8.2 0 0 0-3.8-3c-3.2-.8-8.6-6.3-9.6-10l-.9-3.1-.1 3.1c-.1 1.6.6 3.9 1.4 5 2.6 3.4 1.8 4.5-1.7 2.6-2.2-1.3-3.4-2.7-3.6-4.5-.4-2.9-3.5-5.7-6.4-5.7-1 0-1.8-.4-1.8-1 0-.5 3-1.1 6.8-1.3l8.5-.5c.9-.1 1.7.2 1.7.6zm10.1.6c-2.5 2.9 1.3 6.6 6.8 6.6 3.1 0 4.2 1.4 1.9 2.3-2.8 1-12.4-.7-15-2.6-4.9-3.7-3.1-7.7 3.5-7.7 3.2 0 3.7.2 2.8 1.4zm-78.6 3.7c-2.2.4-5.9.8-8.3.8-2.4.1-4.1.5-3.8.9.6 1-1.9.9-5.2-.2a4 4 0 0 0-4 .6c-1 .8-3.7 1.4-6.4 1.3-2.5 0-4.5.2-4.2.6.2.4-1.2.6-3.1.6-4.7-.2-3.9-1.8 1.6-3.5 4.7-1.5 26.8-3 33.4-2.3l4 .5-4 .7zm141.5 1.4c0 1.3-.4 2.7-1 3-1.1.7-2.5-3.9-1.5-5.5s2.5-.2 2.5 2.5zm3.3 5.2c.4.3.2 1.3-.5 2-1 1.2-.5 2.1 2.4 4.9 4.7 4.4 6.2 11.2 5.5 24.4-.6 11.8-2.2 18.9-5.1 23.2-3 4.6-6.5 4.8-10 .7l-2.7-3.2 3-1.3c1.7-.7 3.1-1.4 3.1-1.6l-1.5-8.1-1.5-8.3c0-1.3-3.1 0-4.5 1.8-2.7 3.9-3.7.5-3-10.7.9-16.1 3.1-21.5 8.7-21.5 1.6 0 3.1-.6 3.4-1.5.7-1.6 1.7-1.9 2.7-.8zm-174.6 1.9c.7 2-.8 6.6-2.4 7.1-1.3.5-2.7-1.8-3.7-6-.6-2.5-.4-2.7 2.4-2.7 1.9 0 3.3.6 3.7 1.6zm306.7 3c1.4 1.4 2.2 3.4 1.3 3.4-.2 0-1.4-1.1-2.7-2.5-2.5-2.7-1.2-3.5 1.4-.9zm-4.3 1.7c-1.3 1.3-2.6.3-1.6-1.2.3-.6 1.1-.8 1.7-.5.6.4.6 1-.1 1.7zm-306.7 6.8c-.8 1.4-2.4 1-2.4-.6 0-.9.6-1.2 1.5-.9.8.4 1.2 1 .9 1.5zm277 3.9c1.9 2.5 7.3 10.1 11.9 17 4.6 6.9 10.2 14.7 12.5 17.3 3.4 3.9 4.8 6.8 7.7 16.5 4.8 15.9 8.4 25.1 11.2 28.9 3.9 5.4.7 8.1-5.6 4.8-2.1-1.1-3.1-2.6-4-6.2-3.7-14.8-9.3-24.3-32.7-56.5a299.3 299.3 0 0 1-14.4-20.7c0-1.1 8.1-6.2 9.1-5.8.4.1 2.3 2.2 4.3 4.7zm-129.7.6c-.3.3-1.2.4-1.9.1-.8-.3-.5-.6.6-.6 1.1-.1 1.7.2 1.3.5zm-34.7 7.6c-.1 1.3-.7 3.4-1.5 4.8-.9 1.6-1.4 5.6-1.5 11.3 0 4.8-.4 9.5-1 10.5-.8 1.4-2.5 7.1-3.6 11.7-4.1 18.2-11.4 40.2-11.4 34.4 0-.8.4-1.9.9-2.5a14 14 0 0 0 1.5-4.9c.5-3.8.4-3.7-1.4 1.4a18.4 18.4 0 0 0-1.4 7.7 9 9 0 0 1-.9 5.1 25 25 0 0 0-2.1 4.6c-.3 1.1-1.1 1.5-1.7 1.1-.8-.4-.9-.3-.5.4.8 1.4-1.3 9.2-2.6 9.2-.4 0-.8.5-.8 1 0 1-2.3 6.5-6 14.5l-5.3 11.5-5.2 11.5c-1 2.2-2 3.4-2.2 2.7-.6-1.5-3.3-1.6-3.3-.1 0 .6-.7.9-1.5.5-.8-.3-1.9.2-2.4 1.2-1.2 2-1.2 2.2-1.7-4.8-1.2-16.7-1.7-20-2.6-20-.6 0-.7 1.3-.2 3.2.9 4.5 1.3 26.2 1.9 100.8.3 34.9.7 66 .9 69 .5 6.1 1.4 9.2 2.6 8.5.4-.3 1.1 1 1.5 2.8.6 2.8.8 3 1.5 1.2.7-1.7.9-1.7.9-.3.1 2.5-.2 3.3-1.6 3.3-.6 0-2 .8-3 1.8-2.7 2.4-3.1 2.2-4.3-2.1-2.7-9.8-10.1-86.5-12-125.2-.6-10.7-1.7-24.5-2.5-30.5-.8-6.1-2.1-18.7-3-28-1.9-20.1-4.7-42.9-8-65-1.3-8.8-2.7-19.8-3-24.5a117 117 0 0 0-3-17.2c-1.4-5.2-2-9-1.4-9.4.5-.3 2.5 0 4.4.6 2.9 1 3.4 1.5 2.9 3.3-.3 1.4.9 5.2 3 10 3 6.4 3.9 7.7 5.9 7.7a31 31 0 0 0 14.2-7.7 31.8 31.8 0 0 1 15.4-9.3c1.9 0 3.4-.7 4-1.8 1.1-2.1 6.7-4 13.2-4.6 5.2-.5 5.2-.5-8.3 7.8a266.1 266.1 0 0 0-27.8 20.2c0 .8 3.4-1.4 14-9 14-10 29.8-19.4 33.5-19.8l9.8-.6c6.4-.3 6.7-.2 6.7 2zm-41.7 1c-.2.5-7.3.7-15.6.6-13.9-.2-14.4-.2-5.7-.7 13.2-.8 21.9-.7 21.3.1zm-10.3 4.5c0 .5-2.1 2.1-4.6 3.7l-4.5 2.9-3.2-2.9-4.1-3.6c-.6-.5 2.9-.8 7.7-.8 4.8 0 8.7.3 8.7.7zm-67.5 7c-1.4 3.5-5.8 18.9-8 28.3l-3.8 15.5c-.8 3.3-2 10-2.7 14.9-.8 4.8-1.9 9.3-2.5 10-.7.6-1 2.7-.8 4.6.3 2.8.2 3.2-.7 2-.9-1.3-1.1-1.2-.9.5.2 1.1-.3 3.8-.9 6-.6 2.1-.8 4.2-.4 4.5.4.3.6 1.8.6 3.5-.4 9-.1 8.5-3.9 8.5-5 0-5.5-2.2-1.6-7.1 1.8-2.1 3-3.9 2.7-3.9-.3 0-5.3 4.7-11.1 10.5L186.9 674l-3.6-3.7a34 34 0 0 1-5.5-9c-1.6-4.3-2.4-5.3-4.9-5.8-3.1-.7-5.8.7-16.9 9.2l-3.5 2.7 2.6-2.9 5.5-6.4a310 310 0 0 1 6.5-7.5l8.3-10.1c2.6-3.3 8.1-9.5 12.2-13.7 4.1-4.2 7.4-8.5 7.5-9.5 0-1 1.6-3.8 3.4-6.3a829.5 829.5 0 0 0 28.7-41.3c3.1-5.3 5.9-7.8 4.3-4zm-4.2 34.7c-.4 5-.9 6.4-1.5 5.1-.9-1.5-.5-6.2.8-10.8 1.1-3.5 1.4-1 .7 5.7zm228.2 24.7 6.7 8-3.6 3.5c-3.4 3.3-4.7 6.4-2.7 6.4.5 0 2.4-1.8 4.1-4 1.7-2.2 3.6-3.8 4.1-3.4.5.3.7 1 .4 1.5-.4.5.5 1.3 1.9 1.9 3.6 1.3 3.3 2.6-1.6 5.6a56.7 56.7 0 0 0-8.5 6.7c-3.4 3.3-4.5 3.8-5.6 2.8-2.1-1.6-3.4-7.7-4.8-21.8-.9-9.8-.9-12.6.1-13.8.7-.8 1.6-1.5 2-1.5.5 0 3.8 3.6 7.5 8.1zm67.3 13.5c-.8.7-5.7-4.5-5.8-6.1 0-.5 1.4.5 3.2 2.2 1.8 1.8 2.9 3.5 2.6 3.9zm-295.6 45.6c-.9.9-1.2.7-1.2-1.2s.3-2.1 1.2-1.2c.9.9.9 1.5 0 2.4zm.8 11c.9 29.7 1.1 35.1 1 45.7-.1 6-.4 8.1-1.2 7.3-1.4-1.4-2.5-61.2-1.1-61.2.6 0 1.1 3.6 1.3 8.2zM457.8 723a208 208 0 0 1-.2 17.9c-.5-.5-3.6-29.3-3.6-33.8 0-2.6.4-3.2 1.8-2.9 1.5.3 1.7 2.1 2 18.8zm-229.1 34.7c-.2 1.6-.4.3-.4-2.7s.2-4.3.4-2.8c.2 1.6.2 4 0 5.5zm32 12c-.3 1-.5.4-.5-1.2 0-1.7.2-2.4.5-1.8.2.7.2 2.1 0 3zm0 6.5c-.3.8-.6.5-.6-.6-.1-1.1.2-1.7.5-1.3.3.3.4 1.2.1 1.9zm0 7c-.3.7-.5.2-.5-1.2s.2-1.9.5-1.3c.2.7.2 1.9 0 2.5zm-31.2 5.7c.3.5.1 1.2-.5 1.6-.5.3-1-.1-1-.9 0-1.8.6-2.1 1.5-.7zm.5 6.1c0 .5-.5 1-1.1 1-.5 0-.7-.5-.4-1 .3-.6.8-1 1.1-1 .2 0 .4.4.4 1z"/>
  <path d="M360.5 275a9.2 9.2 0 0 0-1.9 5c-.1 2.1-.6 3-1.8 3-2 0-5.1 4.2-6.8 9.4-1 3.1-1 4.3.1 6.3 1.2 2.2 1 2.7-2.4 5.8-3.1 2.8-3.7 4.1-3.7 7.4 0 5 1.3 5.2 5.8 1 3.3-3.1 4-5.3 2.2-6.4-.8-.5-.7-1.2.1-2.2.7-.8 1.3-2.9 1.3-4.6.1-2.8.4-3.2 2.6-3 5.8.5 9-2.3 9-7.6 0-1 .7-2.4 1.5-3.1 2.4-2 3-7.6 1.1-10.5-2-3-4.7-3.2-7.1-.5zm5.3.2c1.4 1.4 1.6 7.4.3 8.2-.5.3-1.1 0-1.4-.8-.3-.8-1.6-1.6-2.9-1.8-1.7-.2-2.2-.8-2-2.3.8-4.1 3.6-5.7 6-3.3zm-3.8 11.6-5.8 4.6c-1.8 1.6-3.5 2.6-3.9 2.3-.3-.4.2-2.7 1.2-5.3 1.3-3.3 2.2-4.5 3.4-4.1.9.2 2.3-.3 3-1 1.2-1.3 1.6-1.3 3 .2 1.5 1.6 1.4 1.8-.9 3.3zm-.4 3.1c-.4.5 0 1.1.6 1.4 1 .3 1 .7-.1 2-1.5 1.9-2 2-4.1.7-1.2-.7-1.2-1.2.4-2.9 1.9-2.1 4.2-2.9 3.2-1.2zm-11 17.3c.4.6 0 1.6-.9 2.3-1 .7-1.7 1.7-1.7 2.4 0 .6-.4 1.1-1 1.1-1.1 0-1.4-5.3-.3-6.3 1-1.1 3.1-.8 3.9.5z"/>
  <path d="M370.1 285.4c-.3 4.4-10.9 18.6-13.8 18.6-.7 0-1.3.4-1.3 1 0 2 3.1.9 6.5-2.2 4.8-4.3 9.7-13.3 9.2-16.6-.2-1.6-.5-1.9-.6-.8zM344.5 296c-1 1.1-2 4.1-2.3 6.8-.3 3.7-1.2 5.7-4.3 9.2-5.4 6.1-4.9 7.5.7 1.9 4.2-4.2 4.7-5.2 4.9-9.8a20 20 0 0 1 1.9-7.6c2-3 1.6-3.2-.9-.5zM355.2 314.8l-2.9 5.4c-1 1.5-1.4 3-1 3.5 1 .9 5.5-4.4 6.3-7.5 1-3.5-1-4.7-2.4-1.4zM344.1 320.1c-4.5 4-9 5-8.3 1.9.3-1.1.1-1.2-.8-.3-1.8 1.7-.3 3.3 2.9 3.3 1.9 0 4.3-1.3 7.2-3.9 2.4-2.1 4.2-4.1 3.9-4.4-.3-.3-2.5 1.3-4.9 3.4z"/>
  <path d="M345.4 324.5c-2.6 3-5.1 5.2-5.7 4.8-1.2-.8-2.8 1.8-2.2 3.7.6 1.9-3.1 4.5-4 2.9-1.3-2 1.6-6.8 4.8-7.9 1.8-.7 2.6-1.4 1.9-1.7-3.2-1.2-11.2 7.8-9.1 10.3a14 14 0 0 0 3.9 2.4c1.6.7 3.6 2.3 4.5 3.6 1.6 2.4 1.5 2.5-1.9 3.9-1.9.8-6 1.8-9.1 2.1-5.8.7-7.5 1.8-5.6 3.7.8.8.6 1.6-.6 2.9-.9 1-1.1 1.8-.5 1.8.6 0 1.9-.9 2.9-2 1.3-1.3 2.6-1.7 4.1-1.3 2.9.7 2.8 1.6-.9 4.7-2.4 2.1-3.4 2.4-5 1.6-1.5-.9-1.9-.7-1.9.5 0 2.5 3 3 6.4 1l3.1-1.8-2.1 2.4c-14 16.4-14.4 16.7-17.2 16-2.3-.7-2.7-1.3-2.7-4.7 0-4.3-1.7-5.4-5-3-1.9 1.3-1.8 1.4.8.9 3-.6 3.4.4 1.2 3.3-2.1 2.8-1.8 4.4.8 4.4 4.3 0 5.1 1.5 2 3.8-2.9 2.2-1.7 3 1.8 1.2 4.8-2.6 23.9-24.5 23.9-27.5 0-2.2-2.9-4.5-5.8-4.5-2.1 0-2.4-.2-1.2-1 .8-.5 3-1 4.7-1 3.9 0 12.3-3.9 12.3-5.6 0-.7-.9-1.6-2-1.9-1.1-.3-2-1.4-2-2.4 0-.9-.4-2.1-1-2.7-.6-.6.4-2.5 2.6-5.4a72 72 0 0 0 9-13c-.3 0-2.6 2.5-5.2 5.5zM320.2 332.5c-2.4 4.9-2.8 8-1.2 9 .6.4 1-.5 1-2 0-3.1 2.6-9.6 4.3-10.7.9-.5.8-.8-.4-.8-.8 0-2.5 2-3.7 4.5z"/>
  <path d="M325.4 334.4c-1.1 2.8.1 5.1 2.6 5.4l2.5.2-2.2-1.6c-1.8-1.3-2-2-1.2-3.5.7-1.3.6-1.9-.1-1.9-.6 0-1.3.6-1.6 1.4zM326.8 342.1c-2.8 1.6-2.2 3.9 1 3.9 2.6-.1 7-2.5 6.1-3.4-1.1-1.1-5.6-1.5-7.1-.5zm3.2 1.9c0 .5-.5 1-1.1 1-.5 0-.7-.5-.4-1 .3-.6.8-1 1.1-1 .2 0 .4.4.4 1zM313.9 349.2a20.6 20.6 0 0 1-4.3 6c-1.7 1.4-1.9 2.1-1 3.5.9 1.5 11.5 7.8 11.9 7a36 36 0 0 0-3.3-5.2c-2.8-4-3.3-4.5-2.8-2.2.7 2.8.7 2.8-1.9 1.1-2-1.3-2.3-1.9-1.4-3 .6-.8 2-1.4 3-1.4 2.1 0 2.6-1.6.7-2.3-1-.3-.9-1.3.4-4 2.5-5.2 1.3-4.6-1.3.5zM308 366c-1.2.8-1.1 1 .8 1 1.9 0 2.2.5 2.2 4.5 0 2.5.5 4.5 1.1 4.5.6 0 .9-2 .7-5.2-.3-5.5-1.7-6.9-4.8-4.8zM297.8 369.8c-.8.9-3.6 5.6-6.2 10.4-3.4 6.2-4.5 9.3-4.1 11.1.5 1.9-.1 2.9-2.9 5.1-3.1 2.3-6.6 7.2-6.6 9.1 0 .3 1.3.5 2.9.5 1.9 0 4.1-1.2 6.8-3.8 2.2-2 3-3 1.9-2.1-3.1 2.4-6.7 4.1-7.3 3.5-.4-.3 1.7-3 4.6-6.1 4.2-4.4 5-5.9 4.5-7.9a45.4 45.4 0 0 1 8.2-19.3c.8-.6 1.1-1.4.6-1.7-.5-.3-1.6.2-2.4 1.2zM309.6 386.9c-9 8.2-12.4 9.1-9.3 2.6 2.1-4.4 2.2-6.5.3-6.5-2.3 0-4.6 1.1-4.6 2.2 0 .6.7.8 1.5.4.9-.3 1.5 0 1.5.9 0 .8-.6 1.5-1.3 1.5-1.1 0-3.7 5.1-3.7 7.3 0 .4 1.7.7 3.8.7 4 0 13.3-5.4 15.1-8.9.6-1 2.2-2.2 3.6-2.5 1.4-.4 2.3-1.1 2-1.6-1.2-2-3.6-.9-8.9 3.9zM203 511.4c0 9.1.4 14.6 1 14.6s1-5.3 1-13.9c0-8.3-.4-14.2-1-14.6-.6-.4-1 4.5-1 13.9zM397 520.9c0 .5.5 1.3 1.1 1.6.6.4 1.5 1.7 2 2.9.9 2.1 1 2.1.5-.2-.3-1.7.1-2.2 1.6-2.2 1.1 0 1.8-.5 1.6-1.3-.5-1.5-6.8-2.3-6.8-.8zM269.6 533.6c-.6 1.5-.4 1.5 1.1.3l2.2-1.6c.2-.2-.3-.3-1.1-.3-.9 0-1.9.7-2.2 1.6zM391.7 497.6l-20.2.8c-11 .3-22.2.8-25 1l-13.5 1.1c-4.7.3-9.8.7-11.5 1l-11.5 1c-4.7.3-9.8.7-11.5 1l-9 1a242.8 242.8 0 0 0-26.2 3.5c-4 1.2-.4 1.2 8.2-.1a1679.7 1679.7 0 0 1 95.5-7.4l25.5-.5c16-.2 21.3-.5 17.5-1-5.8-.8-17.9-1.8-18.3-1.4zM256 509l-3.5.7 3.8.2c2 0 3.7-.4 3.7-.9 0-.6-.1-.9-.2-.9l-3.8.9zM247.3 510.7c.9.2 2.5.2 3.5 0 .9-.3.1-.5-1.8-.5-1.9 0-2.7.2-1.7.5zM240.3 511.7c.9.2 2.3.2 3 0 .6-.3-.1-.5-1.8-.5-1.6 0-2.2.2-1.2.5zM413.2 538.3c-2.2 5.3-.9 31.4 1.7 34 .7.7 1.7.5 3.1-.8 1.7-1.5 2-3 2-8.9 0-9.6-1.6-19.5-3.3-21.5a9 9 0 0 1-1.9-3.6c-.4-1.8-.6-1.7-1.6.8zm3.6 10.3c.2 3.8 0 8.5-.4 10.4-.7 3.4-.7 3.4-1.4 1-.5-1.4-.8-6.3-.9-10.8-.1-6.3.2-8.3 1.2-8 .7.3 1.3 3 1.5 7.4zM288.3 583.3c-1.9 2.1-4.1 7-3.2 7.3.2.1-.5 1.2-1.6 2.4-1.8 1.9-1.8 2.3-.3 3.1 1 .5 1.8 2.9 2.3 6.4 1 8.6 2 7.2 2.1-3.3.1-6.6.6-10.9 1.8-13.6 2-4.7 1.6-5.4-1.1-2.3zM336.1 609.7l-.7 3c-.5 1.7-.5 1.7.6 0 .6-1 .9-2.3.6-3-.3-.9-.5-.9-.5 0zM287.7 617c.3 4.1.9 9.1 1.4 11 .6 2.4.7 1 .3-4.7-.3-4.4-.9-9.4-1.4-11-.6-1.9-.7-.4-.3 4.7zM290.6 643c.3 5.8.8 10.7 1 10.9 1.4 1.5 1.5-2.2.1-11.1l-1.6-10.3.5 10.5zM292 660.3c0 2.6.4 4.7.9 4.7.9 0 .7-7.7-.3-8.7-.3-.3-.6 1.5-.6 4zM488 160.6c0 106.7.3 160.3 1 159.9.7-.4 1-55 1-160.6C490 54 489.7 0 489 0s-1 54.2-1 160.6zM459.7 1.6c-.4.4-.7 1.6-.7 2.6s-.5 1.8-1.1 1.8c-1.6 0-.5 2.5 1.2 2.5.8 0 2 .4 2.7.8.8.6 1.2 0 1.2-2 0-3.2-2.1-6.8-3.3-5.7zM407.6 8.1c-2.7 2.1-8.2 10.6-7.4 11.5.3.2 2-1.8 3.9-4.6 3.7-5.5 7.6-7.8 10.6-6.2 3.3 1.9 7.1 6.6 10.3 13 1.7 3.5 3.5 6 4.1 5.6 1.6-1 6.5 4.3 8.8 9.5 1.1 2.6 2.4 8.8 2.9 13.8.8 7.8 1.3 9.6 4 12.9a29 29 0 0 1 3.6 6c.6 1.9 0 2.4-4 3.8-2.6.9-6.8 1.6-9.4 1.6-4.1 0-4.8.3-6.4 3.2a40.6 40.6 0 0 1-9.7 11.8c-.5 0-.9-1.1-.9-2.4 0-5.9-5-13-10-14.1a22 22 0 0 1-6.9-4.1c-2.8-2.5-4.1-3.1-4.1-2 0 2.9 8.3 8.6 12.4 8.6 3.6 0 7.1 9.7 5.5 15.5-1 3.6-3.4 4.6-5.7 2.3-1.7-1.7-2.5-.3-1.2 2.1 1.5 3 5.6 2.7 9-.7l6.8-6.5c2.2-2.1 4.8-5.6 5.7-7.8 1.8-3.9 1.9-3.9 7.4-3.9 7.4-.1 14.1-3 14.1-6.2 0-2.5-1.8-5.6-5.5-9.8-1.9-2.1-2.3-4-2.7-11.5-.7-11.1-3.1-16.8-9.9-22.9a20.3 20.3 0 0 1-4.9-5.4c0-2.5-9-13-12-14.1-4.5-1.5-5.3-1.4-8.4 1zM226.2 110.8c.2 67.3.6 102.2 1.3 102.2 1.1 0 1.1 1.6.2-50.3a486 486 0 0 1 .2-37.7c1.1 0 2.1 7.7 2.1 16.1 0 3.9.4 6.9 1 6.9 1.1 0 1.4-22.9.4-26.7a4.1 4.1 0 0 0-2.4-2.6c-1.6-.4-1.7-3.8-1.9-54.8a1443 1443 0 0 0-.7-54.8c-.2-.2-.3 45.5-.2 101.7zM281.7 11.2c-3.2 3.1-7.2 12.7-5.8 14.1.7.7 1.2.5 1.6-.9 4.5-14.1 9.1-16.5 17.2-9.2a89 89 0 0 1 7.5 8.2c1.5 2.1 2.8 3.6 2.8 3.2 0-2.8-9.2-14.2-13.2-16.2-3.9-2-7.3-1.7-10.1.8zM315.6 15a13.4 13.4 0 0 0-8.6 8.9c-1.3 4.6-1.3 7.4 0 6.6.6-.3 1-1.5 1-2.7 0-7.8 9.8-14.1 17.4-11.2 3.7 1.4.5 14.3-3.9 16-2.8 1.1-1.5 2.4 1.8 1.7 5.2-.9 6.2-2.5 6-10-.1-3.9-.7-7.1-1.5-7.9-1.7-1.7-8.6-2.5-12.2-1.4zM379.2 16.2a22.5 22.5 0 0 0-3.1 5.1c-1.4 3.6-1.4 11.4-.1 12.2.7.4.9-.2.5-1.8-.8-3 1.1-10.6 3.2-13 3.4-3.7 11.6-.7 15.4 5.8 1.2 1.9 2.6 3.5 3.1 3.5 1.7 0-.2-5.3-3-8.3-5.6-6-12.3-7.4-16-3.5zM455.5 25.5c.2 2.2.5 15.1.5 28.7 0 17 .3 24.8 1.1 24.8 1.6 0 .7-51.7-.9-55-1.2-2.3-1.2-2.2-.7 1.5zM264.7 28a28.6 28.6 0 0 0-5.8 8.2c-2.1 4.6-2.4 6.8-2.4 16.5 0 7.7-.3 11.3-1.1 11.3-2.3 0-6.7 4.5-8.5 8.7-2.3 5.3-2.4 7.6-.5 9.2a33.7 33.7 0 0 0 15.5.7c1.4-.9 6.1 3 6.1 5.1 0 .7.5 1.3 1.1 1.3.7 0 .8-.7.4-1.8a20 20 0 0 1-1-4.2c-.3-3.6-.3-3.7-2.1-4.4-.8-.3-2.8.1-4.4.9-3.3 1.7-13.6 2-14.5.4-2-3.1 7.7-17.1 10.6-15.3.6.3.7-2.9.3-8.8-.5-7.3-.3-10.6 1-15.1 2-6.9 7.6-13.7 11.2-13.7 1.3 0 2.4-.5 2.4-1 0-2.1-5.1-.9-8.3 2z"/>
  <path d="M287.3 25.7c-.7.3-1.3.9-1.3 1.4 0 .4.6.6 1.4.3 1.5-.6 8.8 11.7 10 16.8.9 3.9 3.6 3.7 3.6-.2 0-4.2-2.4-9.6-4.9-10.9a13 13 0 0 1-3.6-4c-1.5-3-3.2-4.1-5.2-3.4zM412 26.9c-1.3 2.5-1.3 4.2.1 1.8 1.4-2.3 3.7-2.1 6 .5 1.4 1.8 1.8 1.9 1.9.7 0-2-3.1-4.9-5.3-4.9-.9 0-2.1.9-2.7 1.9zM236.5 38.4c.3 6 .5 20.8.5 32.8v21.9l9-.2c10.8-.2 12 .5 12 7 0 3.3.3 4.2 1 3.1 1.7-2.7 1.2-8.5-1-10.5-1.7-1.6-3.5-1.8-10.5-1.6l-8.5.2V73.3a280 280 0 0 0-2.1-39.8c-.6-4.7-.7-3.7-.4 4.9zM277.4 31.9a23.7 23.7 0 0 0-5.7 5.3c-4.2 5.5-7.4 17.8-4.7 17.8.6 0 1-1.9 1-4.3 0-7.8 6.7-16.7 14.5-19.5 2.9-1 2.9-1 .5-1.1-1.4-.1-3.9.8-5.6 1.8zM421 32.8c0 .5 1.2 1.9 2.6 3.3 3.6 3.2 5.4 7.9 5.4 13.6 0 2.6 1 7.1 2.1 9.9 1.2 2.9 1.9 5.9 1.6 6.8a22 22 0 0 1-6.9 4.7c-6.9 3.4-10 5.8-9.3 6.9.5.8 13.7-6.3 17-9 2-1.7 1.9-3.8-.5-8.5-1.4-2.7-2-5.9-2-10.1 0-7.6-1.1-10.9-5.3-15.2-3-3.1-4.7-4-4.7-2.4zM379.5 36c-.4 1.1 0 2.9 1 4.2l1.6 2.3-.3-2.5c-.3-2.7 1.7-3.6 5.8-2.6 3 .8 6.4 6 6.4 9.8 0 1.6.5 2.8 1 2.8 1.4 0 1.2-4.5-.4-8.4a11.8 11.8 0 0 0-10.7-7.6c-2.9 0-3.9.5-4.4 2zM335.2 37.1c-5.6.9-13.3 5.4-16.5 9.5-2 2.6-4.7 3.2-4.7 1.1 0-1.8 3.8-5.3 7.5-6.8l3-1.3-2.7-.4c-3.5-.4-8.6 2.3-10 5.4-.9 2-.8 3 .5 5.3l1.6 2.7-5.2 3.5c-2.9 2-6.5 4.3-8.2 5.3l-3 1.8 3-2.7c1.7-1.4 5.3-3.9 8-5.6 2.8-1.6 4.6-2.9 4.2-2.9-3.1 0-18.7 11.2-25.3 18.2a93.5 93.5 0 0 0-26.7 57.1l-.5 6.8 2.2-2c2.2-2.1 2.3-2.1 3.9-.3.9 1 2.2 3.3 2.8 5.2 1.1 3.1 1.3 3.2 2.6 1.5 1.8-2.5 1.7-.9-.2 9.2-1.7 8.8-2 13.7-.6 11.3.5-.8 1.1-4.4 1.5-8 1-9.7 6-29.9 7.2-28.7.2.2.8 2.8 1.4 5.7 1 5.1 3.2 9 5.2 9 .5 0 .2-1-.6-2.3a18.3 18.3 0 0 1-2-14.9 56 56 0 0 1 9.1-15.5c.2.3-1 3.2-2.7 6.6a45 45 0 0 0-3.4 7.6c-.1.8-.7 2-1.2 2.5-1.2 1.2-.6 9 .7 9 .5 0 .9-.9.9-1.9 0-1.1.4-2.3 1-2.6.6-.4.7.6.4 2.5-.7 3.1 2 12 3.5 12 .5 0 .7-2.1.6-4.8-.1-2.6 0-3.4.2-1.7.5 3.1 2 5.6 3.1 5.3.4-.1 2.2.6 4 1.5 3.5 1.9 4.5 1 1.1-1.1-5.3-3.3-5.3-11.4 0-27 1.6-4.5 2.7-8.2 2.4-8.2-.2 0-1.5 2.6-2.9 5.7a260 260 0 0 1-3.3 7.3c-.5.9-1.2 3-1.6 4.8-.3 1.8-1.1 3.2-1.6 3.2-.6 0-.6-.8.1-1.9a92.6 92.6 0 0 1 12.1-26.4c1.6-2 2.5-3.7 1.9-3.7-.6 0-2.3 2.1-3.8 4.6-2.5 4.3-7.2 10.5-5.7 7.6.4-.7.8-2.4 1-3.8.1-1.3 1-3.3 2-4.4 2.2-2.5.9-2.6-1.8-.3-2.3 2-1.6.2 1.1-3 .8-.9 1.1-1.7.7-1.7a57.4 57.4 0 0 0-13 14.1c.4.5-.1 1.2-.9 1.5-.9.3-1.6 1.1-1.6 1.6 0 .6-1.5 2.7-3.3 4.8a41 41 0 0 0-6.3 11c-3.6 9.3-4.3 7.4-1-2.7A85.5 85.5 0 0 1 289 94.4c0-3.6 17-13.5 25.7-14.9 2.4-.4 4.6-1.1 4.9-1.7.4-.7-.4-.8-2.5-.3-3.6.8-3.5 1-1.6-4.4.8-2.2 1.2-4.1.9-4.1-.2 0 .3-1.1 1.1-2.4 1.3-1.9 1.3-2.5.3-2.9-.9-.4-.4-1.4 1.7-3.1 4-3.4 2.3-3.3-2.1.1a64.5 64.5 0 0 0-13.7 18.2c-.9 2.2-3.1 4.2-6.5 6.2l-5.1 2.9 4.1-8.1c3.6-7.1 9.1-14 13.9-17.4l6.4-5.4c4.8-4.1 6.2-5 11.2-6.5 2.5-.8 2.4 0-.1 5.6-.9 2.1-1.6 4.4-1.6 5.2 0 .8-.4 1.8-1 2.1-.5.3-1 1.7-1 3.1 0 1.5-.6 2.4-1.5 2.4-1.1 0-1.5 1.2-1.5 5 0 2.7.5 5 1 5 .6 0 1-1.2 1-2.6 0-2.2.2-2.5 1.5-1.4.8.7 1.5 1.8 1.5 2.5 0 1.1 4.1 4.5 5.4 4.5.2 0-.5-1.7-1.5-3.7-2.4-4.7-1.6-5.4 2.1-1.8 2.1 2 2.7 3.1 1.8 3.6-.7.5-1 1.1-.6 1.4.5.5 6.9-1.8 8.7-3.1.2-.2-1.2-2.1-3.2-4.3a30.4 30.4 0 0 1-6.7-10.6c0-.4 2.3 1.9 5.1 4.9 2.8 3.1 5.5 5.6 5.9 5.6 1.4 0 2-3.1.9-5.1-1-1.9-.9-1.9 1-.9 1.6.8 2.1.8 2.1-.1 0-.6.7-.9 1.5-.5 1.3.5 1.4.2.4-1.5-.6-1.1-.8-2.8-.4-3.7.6-1.5.8-1.5 2.1.2 2.4 3.3 1.7 6.9-2.2 11.5-4.7 5.4-3.8 6.4 1 1.1 4.8-5.3 4.8-9.1.1-17.1-2.9-5-3.2-5.9-1.7-6 3.7-.2 12.9.2 15.7.6 1.7.3.5-.4-2.5-1.5-3.1-1.1-8.2-2-11.5-2-3.3 0-6.7-.5-7.5-1.1-1.1-.8 1.1-.9 8-.5l9.5.5-5.5-2.6c-4.8-2.3-6.7-2.6-14.8-2.5-5.6.1-10.6.8-12.8 1.7-5.3 2.2-3.8-.4 1.8-3.3 7-3.6 18.4-4.1 27.4-1.3a51.5 51.5 0 0 1 23 15.4l3.1 4.6c.2.2.6.2.9-.2 1.8-1.8-7.5-11.8-15.9-17a54.6 54.6 0 0 0-31.5-5.6zm-.1 19.6c3.6 4 5.8 7.3 2.9 4.3l-5-4.7c-1.4-1.3-2-2.3-1.4-2.3.5 0 2.1 1.2 3.5 2.7zm-5.3 3.5c1.7 1.7 1.5 2.4-.6 2.5-1.1.1-1.8-.6-1.9-1.8-.2-2.2.8-2.4 2.5-.7zm-27.9 7c-2.8 3.5-5.9 8-7 10-1 2-2.3 4-2.9 4.3-.6.4-.7 1.1-.4 1.7.4.7.2.8-.4.4-.7-.4-1.8.7-2.8 2.6-1.1 2.2-1.3 3.3-.5 3.6.6.2.8.8.5 1.4-.4.6-.9.6-1.4-.2-.6-.9-1.5-.1-2.9 2.6-3.5 6.6-4.2 7.3-3.5 3.4.4-1.9 1.9-5.9 3.4-8.8 3.8-7.1 2.3-6.6-2.4.8-2.1 3.3-4 6-4.2 6a70 70 0 0 1 4.7-9.8c5.2-10.1 12.3-19.4 13.1-17.2.2.8 2.3-.2 5.8-2.9l5.7-4.1c.2 0-2 2.8-4.8 6.2zm25.1 4c0 1.9-.2 2-1 .8-1.3-1.9-1.3-3 0-3 .6 0 1 1 1 2.2zm-13 .2c0 .3-.4.8-1 1.1-.5.3-1 .1-1-.4 0-.6.5-1.1 1-1.1.6 0 1 .2 1 .4zm23.9 7.5c-.7.2-2.3-.9-3.6-2.5-3.5-4.4-2.7-5.2 1.2-1.4 2.2 2.1 3.1 3.6 2.4 3.9zM311 77.4c0 .3-.4.8-1 1.1-.5.3-1 .1-1-.4 0-.6.5-1.1 1-1.1.6 0 1 .2 1 .4zM278.5 88a27 27 0 0 1-3 5c-.3 0 .6-2.3 2-5 1.4-2.8 2.8-5 3-5 .3 0-.6 2.2-2 5zm12.5-1.6c0 .3-.4.8-1 1.1-.5.3-1 .1-1-.4 0-.6.5-1.1 1-1.1.6 0 1 .2 1 .4zm-25.5 34.1c0 4.6-.4 7.4-1 7.1-1.5-.5-.8-14.6.8-14.6.1 0 .2 3.4.2 7.5zM290 122c0 .5-.5 1-1.1 1-.5 0-.7-.5-.4-1 .3-.6.8-1 1.1-1 .2 0 .4.4.4 1z"/>
  <path d="m288.4 77.2-1.9 2.3 2.3-1.9c2.1-1.8 2.7-2.6 1.9-2.6-.2 0-1.2 1-2.3 2.2zM404.9 42.2c-2.5 2.9-8.4 13.2-7 12.4a46 46 0 0 0 4.6-6.6c2-3.3 4.2-6 4.8-6 .7.1 2.9 2.3 5 4.9 5.2 6.8 5.1 10.6-.4 16.6-5.7 6.2-4.5 7.6 1.4 1.7 3.7-3.8 5-5.9 5.4-9 .6-4.4 0-5.7-6.1-12.2-4.3-4.6-5-4.8-7.7-1.8zM283.8 45.9c-4.3 5-5.1 8.1-3.6 13.9.7 2.9 1.8 5.1 2.3 5 .6-.2.9-1 .8-1.8-1.6-9.8-1.6-9.9 1.1-14 2.9-4.4 5.2-5 9.2-2.4 2 1.4 2.3 1.4 1.9.2-.7-1.8-4.7-3.8-7.5-3.8-1 0-2.9 1.3-4.2 2.9z"/>
  <path d="M288 57.5c-1.7 2.1-.5 3.1 1.5 1.2.8-.9 1.5-1.8 1.5-2.1 0-1.1-1.8-.6-3 .9zM374.4 56.9c.7 1.1 4.6 3.5 4.6 2.8 0-.3-1.2-1.2-2.6-2.2-1.5-.9-2.3-1.2-2-.6zM401.7 57.4c-2.3.8-4 1-4.3.4-.7-1.2-4.4 2-4.4 3.9s.9 1.6 3.1-1c1-1.3 1.8-1.7 1.9-.9 0 1 .5 1 2.2-.2 5.3-3.7 8.3.4 3.1 4.2-1.5 1.1-2.3 2.4-1.9 3.1 1.9 3 8.7-5.7 7.3-9.3-.8-1.9-2-1.9-7-.2zM359 59.4c0 .3.9 2 1.9 3.8 3.5 6 3.5 23.4 0 21.3-.5-.4-.5-1.4.2-2.6.6-1.2.8-2.3.6-2.6-.3-.2-.8.4-1.1 1.5-.5 1.3-1.5 1.9-3.1 1.8-2.9-.1-2.9-.3-1-3.6 2.6-4.6 1.6-4.2-3.9 1.3-4.2 4.2-5.7 5.2-6.7 4.3-1.1-.9-1.1-.8 0 .6s.9 1.7-1.5 2c-2.2.2-3.3 1.4-5.2 5-2 3.9-2.5 6.7-3 15.7-.5 10.6-2 14.4-2.4 5.8-.1-4.1-.1-4.1-.5-.7-.6 4.9-1.8 5.7-2.1 1.3-.2-2.1-.5-3.9-.7-4.2-1-.9-2.4 5.3-2.7 11.9-.2 3.8-.7 7-1.2 7s-.3.7.4 1.5c1 1.2 1 1.5-.1 1.5-1 0-1 .3-.1 1.2 1.7 1.7 1.6 6.2-.1 5.5-.8-.3-1.4.3-1.4 1.5-.2 1.8 0 1.9 1.5.5a11 11 0 0 1 4-2.1c1.7-.6 2.2-.4 2 1.1-.3 3.8.3 5 4.9 8.8 4.6 3.9 4.7 3.9 2.5.8-3.2-4.5-2.7-4.9 1.6-1.5 2.1 1.7 4.3 2.8 4.8 2.4a44 44 0 0 0 4.1-13.9c-.3-.2-1.3 2.6-2.3 6.2-1.7 5.9-3.4 8.5-3.4 5.2 0-.7-.9-3-2-5.1-1-2.2-1.7-4.3-1.4-4.7.3-.5-.2-2.1-1-3.7a54.1 54.1 0 0 1-2.8-27.1c1.2-13.6 3.3-18.7 7.5-18.4 1.5.1 2.6-.1 2.3-.5-.2-.4 1.3-1.6 3.4-2.6 3.4-1.6 4.3-1.7 6.9-.6 2.6 1 2.9 1.5 2 3.1-.6 1.3-.6 1.9.1 1.9.5 0 1-.5 1-1 0-2.5 3.2-.5 9.4 5.9 5.2 5.4 7.7 9.1 11.3 16.8 2.8 6 4.5 11 4.4 12.8-.1 1.9.5 3.7 1.6 4.7 1.7 1.6 1.9 1.6 3-1 2.7-6.6 4.3-13 4.1-17.2-.1-2.5.1-6.3.5-8.5.8-3.7.7-3.9-.7-2.1-1.6 1.9-1.6 1.9-1.6-.2 0-1.1.5-3.2 1.1-4.6a6 6 0 0 0 .4-4.3c-.5-1.3-1.2.1-2.7 5.2-1 3.8-2.8 8.8-3.8 11.1-1.1 2.2-2 5.1-2.1 6.5 0 1.8-.5 1.2-2-2.5-3-7.5-8.5-15-15.1-21.1-4.3-3.9-5.7-5.6-4.6-6 1.9-.7 2.5-9.5.6-9.5-.8 0-.9-.3-.1-1.1 2.1-2.1-1.9-14.9-4.7-14.9-.6 0-1 .2-1 .4zm30.8 53.1c-.1 3-.3 3.2-1.4 1.7a3 3 0 0 1-.3-3.4c1.4-2.6 1.9-2.2 1.7 1.7zm-57.1 18.9c.2 1.9-.1 3.7-.7 4.1-.6.4-1-1.1-1-4.1 0-5.3 1.1-5.3 1.7 0zm4.2 14c.1.5-.6.3-1.4-.4-.8-.7-1.5-2.7-1.4-4.4l.1-3.1 1.3 3.5c.7 1.9 1.4 3.9 1.4 4.4zM267.1 65.3c-3 4.9-2.7 7.8 1.5 12.2 2.8 3 3.8 3.5 4.5 2.4 1.3-2.2 1.1-2.6-2.1-3.9-3.9-1.6-4.9-5.2-2.5-9.7 2.4-4.5 1.3-5.3-1.4-1z"/>
  <path d="M385 65.9c0 .5.7 1.5 1.7 2.2 2.9 2.5 9.4 12 12 17.6 2 4.4 2.6 7.1 2.6 13.2 0 7-.8 10.4-4.8 20.6-.7 1.8-.6 1.8.8.5 2-2 4.5-9.7 5.3-16.6l.7-5.6 1.3 3.1c1.5 3.6.8 13.2-1.1 14.3-.7.4-1.6 2-2 3.5-.3 1.6-2 4.5-3.7 6.6-1.6 2.1-2.8 4.1-2.5 4.4.9.8 6.5-7.6 7.2-10.8.4-1.6 1.1-2.9 1.6-2.9.6 0 .6.8-.1 1.9-.5 1.1-1 2.8-1 3.8 0 3 3.7-3.9 4.4-8.4 1.5-8.8-4-26.9-11.4-37.8-5.3-7.7-11-12.7-11-9.6zM449.3 83.7c-3.5.2-6.3.8-6.3 1.3 0 1.5 9.2 1.1 12-.5 1.4-.8 2.1-1.4 1.5-1.3l-7.2.5zM435.7 86.8c-1.5 1.6-1.7 5.1-1.7 27.8 0 27.4.7 39.7 2.2 38.8.5-.3.6-13.7.2-31.9-.6-28.4-.6-31.6 1-33.9 1.9-3 .7-3.5-1.7-.8zM453.3 96.7c-6.8.3-8.2.7-8.3 2.1-1 12.5-1 19.2-.1 19.2.6 0 1.1-3.7 1.3-9.3l.3-9.2 7.9-.5c5.1-.3 8.1-1 8.4-1.8.2-.6 0-1.1-.5-1-.4.1-4.5.4-9 .5zM230.3 103.5c.2 2.4.7 3 2.7 3.2 2.2.2 2.2.2.5-.6-1.1-.4-2.3-1.9-2.7-3.2-.6-2.1-.7-2.1-.5.6zM245.3 102.7c-1.8.3-3.3.8-3.3 1.3s-1 1.1-2.2 1.3c-1.3.3.7.3 4.4 0 8.2-.5 8.7.1 8 10.2-.3 4.3 0 8 .6 9.1.9 1.5 1.2-.2 1.3-7.6.2-10.5 0-12.2-.9-13.1-1.1-1.1-4.5-1.6-7.9-1.2zM416.5 106.4a13 13 0 0 0-7.5 8.5c-.6 2.3-.5 3.1.4 3.1 1.2 0 2.2-1.5 4.4-7.2.8-2 2.1-2.9 4.6-3.4 5.8-1 6.8-.2 6 5.3-1 7-4.1 16.7-6.3 19.4a9.4 9.4 0 0 0-1.7 5.4c.1 2.8.3 3 3.9 2.9 4.1-.1 4.4.4 2.1 4.8-1 2-1.2 3.4-.6 4 1.3 1.3 4.7-5.1 5.7-10.5.8-3.9-.3-4.8-2.5-2.2-1.3 1.5-4.2 2-5.3.9-.3-.3.7-2.9 2.3-5.8 3.3-5.8 6-15.2 6-20.8 0-5.6-4.7-7.4-11.5-4.4zM356.2 111.5c0 1.6.2 2.2.5 1.2.2-.9.2-2.3 0-3-.3-.6-.5.1-.5 1.8zM324 112.4a28 28 0 0 0-1.1 4.4c0 1.4-.2 1.4-.8-.2-.6-1.5-1.2-.9-3 3.4-5.1 11.9-6.4 19.7-3.6 22 1.4 1.2 1.5.8.9-2.8-.5-3.1 0-6.1 1.6-11.2 1.2-3.9 2.7-7.3 3.1-7.6 1.3-.7 1.1 3-.1 4.2a24 24 0 0 0-1.7 8c-.5 6.1-.3 7.2 1.7 9.6 2.9 3.7 5.8 3.9 3.4.3-1.3-2.1-1.5-4-1-11.3.4-4.8 1.2-11.3 1.7-14.6 1.1-6.3.6-8.5-1.1-4.2zM453 110.9c0 .6.5 1.3 1 1.6.6.3 1 1.9 1 3.6 0 2.5-.4 2.9-2.9 2.9-1.7 0-3.3.5-3.6 1.1-.5.7.9.9 4.2.7 4.8-.3 4.8-.3 5.1-4.1.2-2.1-.2-4.5-.9-5.3-1.3-1.6-3.9-1.9-3.9-.5zM238.1 118.1c-1.4 4-1.4 10.2-.1 11.5.6.6 2.4.8 4.1.6 2.9-.4 2.9-.5.9-1.9-1.5-1.1-2-2.5-2-6.2 0-2.6.5-5.2 1.2-5.9.9-.9.7-1.2-.9-1.2-1.5 0-2.4 1-3.2 3.1zM307.3 117.7a75 75 0 0 0-.6 10.1c0 5.7.4 7.9 1.9 9.9 3 4 5.1 4.2 2.3.2-2.1-3-2.4-4.4-2.4-13.2 0-5.3-.1-9.7-.2-9.7-.2 0-.6 1.2-1 2.7zM357.3 129c0 12.9.1 13.7.8 7.2.5-3.9.5-10.5 0-14.5-.7-6.4-.8-5.6-.8 7.3zM374.5 126.2a66 66 0 0 1-2.6 9.3 27.3 27.3 0 0 0-1.9 6.7c0 1-1.4 3.3-3.1 5.3-3.6 4-2.1 4.9 1.6.9a40 40 0 0 0 7.2-20.1c.7-7.1-.2-8.5-1.2-2.1zM302.1 127.4c-1.4 5.7-1.4 8.3.1 9.2.8.5.9.2.5-.9-.4-1-.2-4 .3-6.9 1.3-6.4.6-7.4-.9-1.4zM449 126.9c5.3 1.1 6 1.8 6 6.6 0 5.1 1.7 10.2 2.9 8.9.5-.5 1.2-3 1.5-5.5.6-4.3.4-4.9-2.4-7.8-2.6-2.5-3.9-3.1-7.3-3l-4.2.1 3.5.7zM366.5 133.8c-.5 5.1-1.5 8.4-3.1 10.8-1.3 1.9-1.9 3.4-1.4 3.4 2 0 4.2-5.1 5.1-12 .6-3.9.8-7.7.6-8.3-.3-.7-.8 2.1-1.2 6.1zM247.8 128.7c.7.3 1.6.2 1.9-.1.4-.3-.2-.6-1.3-.5-1.1 0-1.4.3-.6.6zM444.1 135.6c-.1 9.1.7 14.4 2.1 14.4.6 0 .7-1.1.3-2.8-.4-1.5-1.1-6.5-1.5-11.2l-.7-8.5-.2 8.1zM247.6 134.8c-.3.5.4 1.2 1.6 1.5 2.2.6 2.1.6-.5 2.7-3 2.4-3.5 4-1.2 4 .9 0 1.5 1 1.6 2.2.1 1.7.4 1.4 1.2-1.2.6-1.9 1.8-4 2.6-4.7 1.3-.9 1.4-1.6.5-3-1.2-2-4.9-2.9-5.8-1.5zM354.1 140.1c-.1 3.7.4 6.2 1.5 7.5 1.5 1.9 1.6 1.9.9-.1-.4-1.1-1.1-4.5-1.5-7.5l-.7-5.5-.2 5.6zM239.8 137.1c-1.4.8-1.8 2.4-1.8 7.8 0 7.5.4 8.5 3 7.1 1.5-.8 1.6-1.6.7-6.6-.7-4.1-.6-6.3.2-7.6 1.2-2 .5-2.3-2.1-.7zM260 138.5a31 31 0 0 0-1.6 10.8l-.3 9.2.9-7.3c.8-7.3 2.1-10.2 4.5-10.2.8 0 1.1-.8.8-2-.6-2.4-2.6-2.6-4.3-.5zM451.5 142c.3.5 1.3 1 2.1 1s1.4-.5 1.4-1c0-.6-.9-1-2.1-1-1.1 0-1.7.4-1.4 1zM266.1 147.7c-.1 2.4.4 4.3.9 4.3 1.2 0 1.2-3.7 0-6.5-.7-1.5-.9-1-.9 2.2zM284.5 147c1.7.5 5.6 1.4 8.8 2 3.2.6 8.3 2.5 11.4 4.1 5.9 3.1 8.4 3 4.5-.2a59 59 0 0 0-23-6.8c-4.3.1-4.4.2-1.7.9zM371.2 154c.6 2.3 1.6 4 2.4 4 1.2 0 1.2-.6-.1-3.6l-1.5-4c0-.2-.4-.4-.9-.4s-.4 1.7.1 4zM282.5 155c-.3.5-.1 1 .4 1 .6 0 1.1.5 1.1 1.1 0 .8-1.2 1-3.5.6-2.6-.4-3.5-.2-3.5.9 0 .8.6 1.4 1.3 1.4 1.5 0 5.9 4.5 7.5 7.6a6 6 0 0 0 3.2 2.7c2.4.6 2.4.8.4-3.2-1.6-3.2-1.1-5.9.5-3.2.5.8 1.4 1 2.1.6.9-.6.9-.9-.1-1.6-1.8-1.1-.6-2.1 1.5-1.3 1.9.7 2.2 7.4.4 9.2-1.9 1.9-5.9 1.4-8.5-1-1.3-1.2-2.3-1.7-2.3-1.1 0 1.9 3.5 4.2 8 5.2 5.7 1.3 7 1.3 4.7 0-1.5-.9-1.6-1.2-.2-2.5.8-.9 1.5-2.9 1.5-4.5s.4-2.9.9-2.9c1.1 0 6.1 5.8 6.1 7.1 0 .5.7.9 1.5.9 4.6 0-1.3-7-10.2-12.1-3-1.7-5.2-3.3-4.9-3.6.3-.3 2.9.9 5.8 2.7 9.9 6.1 10.4 6.3 6.4 2.6a45.4 45.4 0 0 0-8.3-5.7c-3.7-1.8-4.7-1.9-5.4-.8-.7 1.1-1.2 1.2-2.9.1-2.4-1.5-2.7-1.5-3.5-.2zM446.2 155.4c-10.7 1.3-11.2 2.6-1.1 2.6 3.8 0 8 .5 9.4 1.2l2.5 1.1v32.4c0 27.2-.2 32.3-1.4 32.3-.8 0-2.2.3-3.1.7-1.6.6-1.6.5-.1-2 1.5-2.1 1.5-3.2.6-6.7-.9-3.3-1.8-4.4-4.5-5.6-3.6-1.5-8.8-1-10.5 1.1-.7.9.3 1.1 4.3.7 6.4-.5 9 1.3 8.5 6.1-.4 4.1-7.1 9.3-13.1 10.2-4.1.6-4.4.9-5.3 4.8l-.9 4.2-5.2.3c-4.8.3-5.3.1-5.3-1.8 0-1.5 1.1-2.6 3.5-3.6 3.6-1.5 4.6-4 2-5-.8-.3-2.8.4-4.5 1.6-3.2 2.3-3.8 4.9-2 9.6 1 2.5 1.4 2.6 6 2.2 6.1-.6 8-2.1 8-6.3 0-3 .3-3.3 3.8-3.8 4.9-.7 6.3-1.1 8.9-2.5 1.2-.7 3-1.2 4-1.2s3.3-.9 5.1-2l3.3-2-.2-32.6c-.1-30-.7-37.8-2.9-37.3l-9.8 1.3zM230.1 156.3c-.9 1.2-.1 1.5 5.1 1.5 6.6.2 6.4-1-.3-2.2-2.5-.4-4-.2-4.8.7zM264.5 157.3c-.4 1.1-.3 2.3.4 3 1.5 1.5 1.9.7 1.1-2.3-.6-2.2-.8-2.3-1.5-.7zM335 160c-1.4.9 5.7 3.9 12 5 2.5.4 8.3 2.2 13 3.9 6.6 2.4 8 2.7 6.3 1.3a125 125 0 0 0-26.4-10.1c-2-.5-4.2-.5-4.9-.1z"/>
  <path d="M278.8 163.7c.7.3 1.6.2 1.9-.1.4-.3-.2-.6-1.3-.5-1.1 0-1.4.3-.6.6zM420.4 170.4c-4.9 2.2-7.7 6.4-7.1 10.9.3 2.4 1.4 4.5 2.6 5.4 2 1.3 2 1.6.5 4.4-.8 1.7-2.4 3.9-3.5 5-3 3-1.4 3.7 1.7.8 2.9-2.7 5.4-7 5.4-9.3 0-.8-1-1.6-2.2-1.8-1.7-.2-2.4-1.1-2.6-3.2-.6-4.6.6-7.5 3.8-9.1 3.5-1.8 10.1-2 11.8-.3 1.5 1.5 2.4.6 1.7-1.5-1.1-2.8-7.1-3.5-12.1-1.3zM343.9 171.8c1.6 1.1.7 1.7-3.6 2.7-1.8.3-3.3 1.1-3.3 1.6 0 .6.9.7 2.1.4 1.9-.6 2.1-.4 1.5 1.9-.4 1.5-.2 3.5.4 4.5.7 1.3.7 2-.1 2.3-.5.2.4 1.4 2.1 2.7 4.2 3.1 4.7 2.1 1.5-2.7-2.6-4-3-8.2-.9-8.9.7-.2 1 .5.7 1.9-.2 1.3.1 3 .7 3.8.9 1.3 1.2 1.2 2.5-.4.8-1.1 1.3-2.8.9-3.8-.4-1.4 0-1.8 2-1.8 2.3 0 2.5.3 2 3.2-.4 1.8-1.3 4.4-2.1 5.6-1.8 3-1.3 3.6 2.8 2.7 1.7-.4 2.7-1 2.2-1.4-.5-.3-.9-2.5-.9-4.8.1-4.9 1.7-5.6 5.9-2.3 2.2 1.8 2.8 1.8 5.6.7l3.1-1.3-5.2-3.5c-4.7-3-6.1-3.4-13.3-3.7-5.1-.2-7.5 0-6.6.6zm13.8 1.8c-.3.3-1.2.4-1.9.1-.8-.3-.5-.6.6-.6 1.1-.1 1.7.2 1.3.5zM239.7 185.7c-.9 18.7-.9 23.9.2 22.7a181 181 0 0 0 1.4-36.4c-.6 0-1.3 5.9-1.6 13.7zM435.3 175.6c-2.4 1-1.3 2 2 2 4.1 0 12 5.3 13.6 9.2 1.8 4.3.1 7.7-4.6 9.2l-5.2 1.6c-1.1.3-1.1.7-.1 1.9 1.1 1.3.7 1.5-2.8 1.5-2.3 0-4.4-.5-4.7-1-.9-1.5-2.5-1.2-2.5.5 0 3.4 9.8 4.7 12.8 1.7 1-.9 3.6-2.9 5.8-4.4 4.6-3 5.7-6 4.2-11.4-.9-3.5-8.7-10.4-11.7-10.4-.9 0-2.5-.2-3.6-.5a6.6 6.6 0 0 0-3.2.1z"/>
  <path d="M358.5 184c-.3.5.1 1 1 1s1.3-.5 1-1c-.3-.6-.8-1-1-1-.2 0-.7.4-1 1zM363 183.4c0 .2.7.7 1.6 1 .8.3 1.2.2.9-.4-.6-1-2.5-1.4-2.5-.6zM431.5 186.1c-.4.6-.8 2.4-.9 4.1-.2 2.2-1.3 4.1-4.2 6.4-2.1 1.9-3.4 3.4-2.7 3.4 1.8 0 7.2-4.9 8.9-8.1 1.7-3.5 3.9-3.8 4.8-.7.6 2.3.7 2.3 2.1.4 1.9-2.5 1.9-3.1-.1-5-1.8-1.8-6.9-2.1-7.9-.5zM426 202.1c-1.4 1-4.9 2.6-7.7 3.5-3.4 1-5.3 2.1-5.3 3.1 0 1.2.7 1.4 3.7.8 3-.5 3.5-.4 2.6.7a40 40 0 0 0-3.3 12.5c.1 1.7.2 1.6 1.6-.2.8-1.1 2-3.9 2.6-6.3 1.2-4.9 1.1-4.8 6-5.7 3.4-.7 3.9-.5 5.7 2.6 1.7 2.7 2.1 3 2.7 1.6.3-1-.1-2.8-1-4.2-1.6-2.4-3.3-2.9-9.6-2.6l-2.5.1 2.4-1.7c5.1-3.7 6.4-5 5.5-5.6-.5-.3-2.1.3-3.4 1.4zM311.5 205.7c.7 3.1 3.5 6.6 3.5 4.5 0-1.6-2.8-7.2-3.6-7.2-.4 0-.3 1.2.1 2.7zM317.4 207.9c.3.5 1.5.7 2.6.4 2.8-.7 2.5-1.3-.6-1.3-1.4 0-2.3.4-2 .9zM302.5 216c-.9 1.4-1.1 1.2 5.2 3.8 6 2.5 15 4.1 14 2.5-.4-.6-2.7-1.3-5.2-1.6-2.6-.2-5.6-1.3-6.8-2.5-2.8-2.5-6.3-3.6-7.2-2.2zM144 219.3a8.1 8.1 0 0 0-3.4 3.2c-.5 1.1-2.6 2.8-4.8 3.9-3.7 1.7-3.9 2-3.6 5.9.4 5.6 3.8 8 12.4 8.5 5.6.4 8.3-.1 16.5-2.8a33 33 0 0 0 10.4-4.8c.6-1.7-3-6-4.1-4.9-.4.4.1 1.4 1.2 2.1 2.6 2 1.5 2.7-9.6 6.4-7.6 2.5-10.5 3-14.5 2.5-6.5-.8-10.5-3.5-10.5-7.2 0-3.4 1.3-4.6 6-5.8 2.3-.6 3.5-1.5 3.5-2.7 0-4.4 6.6-5.6 18-3.5 6.8 1.2 11.3 3.3 13.5 6 1.4 1.8 2 1.8 16 .4a193 193 0 0 0 32.5-5.5c3.2-1.4-.4-1.1-7 .4-3.3.8-11 2-17 2.6-6.1.6-13.1 1.5-15.7 1.9-4.2.7-5.1.5-9.8-2.5a35.4 35.4 0 0 0-10.2-4.3 41.6 41.6 0 0 0-19.8.2zM303 220.8c0 4.1 5.1 7.3 11.4 7.1 2-.1 2.4-.3 1.1-.6-4.7-1-8.1-2.7-10.2-5.2-1.3-1.4-2.3-2-2.3-1.3zM209.1 238.8c-.1 4.7.3 7.1.9 6.7 1.1-.7 1.1-6.5 0-11-.6-2.3-.8-1.2-.9 4.3zM258.1 239.6c0 1.1.3 1.4.6.6.3-.7.2-1.6-.1-1.9-.3-.4-.6.2-.5 1.3zM449.4 249l.5 9.7c.1.2 2.4.3 5.1.3 3.6 0 5.2.4 5.6 1.5 1.2 3 2.1.4 2.3-6 .1-3.8-.3-6.5-.9-6.5-.5 0-1 .7-1 1.5 0 .9-.7 3-1.6 4.6-1.3 2.5-2 3-4.7 2.7l-3.2-.3-.7-7.5c-1.1-10.9-1.8-10.9-1.4 0z"/>
  <path d="M458.8 246.7c.7.3 1.6.2 1.9-.1.4-.3-.2-.6-1.3-.5-1.1 0-1.4.3-.6.6zM451.5 268c-1.6.6-1 .9 2.4 1.1 3.9.4 4.6.8 5.2 3.1.4 1.6.2 3.7-.7 5.3-1.8 3.5-1.8 5 .2 6.6 1.4 1.1 1.8 1 2.7-.6 1.3-2.4.9-13.5-.5-15.3-1.2-1.3-6.2-1.5-9.3-.2zM294 302c-1.3.8-1.3 1 .2 1 .9 0 2-.5 2.3-1 .8-1.3-.5-1.3-2.5 0zM281.7 304.4c2.1 2.8 2.8 2.6 1.8-.3-.3-1.2-1.3-2.1-2.1-2.1-1.2 0-1.2.4.3 2.4zM279.9 308.3c1.6 1.9 4.1 2.3 4.1.5 0-.6-.3-.8-.6-.5-.4.3-1.6.1-2.8-.5-1.9-1-2-1-.7.5zM307.6 312.9c1.1.5 2.8 2.4 3.7 4.3 1.6 3.2 1.6 3.4-.6 5.2l-2.2 1.8 2.5-.3c1.6-.3 2.6-1.1 2.8-2.4.4-2.8-3.9-8.9-6.3-9.2-1.9-.3-1.8-.2.1.6zM211.2 320.6c-1.2 2.5-2 4.9-1.7 5.3.2.5-.4 3.4-1.4 6.4-3.5 10.2-7.2 32.7-5.3 32.7.5 0 1.3-3 1.7-6.6.8-8 4.5-23.2 7.9-33.3 2.8-8.1 3-9.1 1.8-9.1-.4 0-1.8 2.1-3 4.6zM130.1 335.6c0 1.1.3 1.4.6.6.3-.7.2-1.6-.1-1.9-.3-.4-.6.2-.5 1.3zM129.1 339.6c0 1.1.3 1.4.6.6.3-.7.2-1.6-.1-1.9-.3-.4-.6.2-.5 1.3zM201.1 388.6c0 1.1.3 1.4.6.6.3-.7.2-1.6-.1-1.9-.3-.4-.6.2-.5 1.3zM125 464.9c0 .6.4 1.3 1 1.6.6.3.7-.1.4-.9-.7-1.8-1.4-2.1-1.4-.7zM604.8 490.6c1.7 3.2-1.2 7.8-16.5 26.7a66 66 0 0 0-6.3 8.5c.1 1.3 9.8-9.8 17.4-19.8 7.8-10.3 9-13.6 5.9-16.1-1.5-1.3-1.5-1.2-.5.7zM412.7 617.7c-.4.3-.7 3-.7 5.9 0 2.9-.5 5.4-1.1 5.6-1.9.6-7.9 53.4-10.5 92.3-1.4 22.4-2 75.8-.9 81.1 1.3 5.6 2.6 8 4.5 8.1 1.6.1 2-.5 2-3 0-3.6 1.6-2.6 2.2 1.3.6 4.7 2.3 2.5 2.6-3.3.2-4.2 0-5.7-.9-5.5-.8.2-1.6-1.4-2.1-3.7-1-4.3-1.6-44.8-1-60.2.3-8.3.5-9.2 2.3-9 1.3.1 1.9.9 1.9 2.4 0 1.3.4 2.3.9 2.3 1.1 0 1.7-2.4 3.1-13 .6-4.7 1.4-8.7 1.7-9 .3-.3.3 4.4 0 10.5-.4 6-1.1 25.6-1.7 43.5a1107.3 1107.3 0 0 1-2.2 48.3c.5 2.7 3.4 1.6 4.3-1.5.4-1.5 1.4-31 2.3-65.5a4192 4192 0 0 1 2.1-69.3c.6-8.9-1.2-49.1-2.4-52.1-.7-1.7-.9 2.1-.7 12.6.2 8.2.2 13 0 10.5l-1.5-13a104 104 0 0 1-1-12.8c.1-3-.2-4.2-1.2-4.2-.7 0-1.7.3-2 .7zm-1.3 59.8c-.4.8-.8 1.5-1 1.5-.2 0-.4-.7-.4-1.5s.4-1.5 1-1.5c.5 0 .7.7.4 1.5zm-.2 7.5c-.2 1.6-.6 3-.8 3-.2 0-.4-1.4-.4-3 0-1.7.4-3 .8-3 .5 0 .7 1.3.4 3zm-.5 11.2c-.3.8-.6.5-.6-.6-.1-1.1.2-1.7.5-1.3.3.3.4 1.2.1 1.9zM469.9 673c-.8 42.5-.4 133 .6 133 1.3 0 1.9-144.9.6-149.3-.6-2.3-1 2.6-1.2 16.3zM457.9 658.5l-.3 3.7c-.1.6.5 1.3 1.2 1.5.8.3 1.2-.8 1.2-3.6 0-4.4-1.9-5.8-2.1-1.6z"/>
</svg>
