<svg xmlns="http://www.w3.org/2000/svg" version="1.0" viewBox="0 0 699 843">
  <path d="M295 33.7c0 .8-1.3 1.3-2.9 1.3-4.4 0-9.3 2.5-12.8 6.4-1.7 2-3.6 3.6-4.2 3.6-.5 0-1.8 1.6-2.7 3.5-.9 1.9-2 3.5-2.4 3.5-.5 0-1.9 2.1-3.1 4.6-1.3 2.5-3.1 5-4 5.5-2.6 1.4-4.1 7.2-4.1 15.7.1 11.9.3 14 1.5 13.9 4-.1 5.5.6 6.5 2.9.7 1.4 1.7 2.2 2.3 1.9.7-.5.7-1.1-.1-2-1.6-1.9.5-2.8 2.3-1 .9.8 2.2 1.5 3 1.5.8 0 2.2.9 3.2 2s2.7 2.2 3.8 2.6c2.5.8 4.1 2.3 5 4.6.3 1 1.6 1.8 2.7 1.8s2 .4 2 1c0 .5.5 1 1.1 1 .6 0 .9-.7.5-1.5-.3-.8 0-1.5.5-1.5.7 0 .9 1.1.7 2.5-.7 3.3.8 4.2 1.6 1 .9-3.7 3.6-3.2 3.6.7v3.1l2.5-2.3 2.6-2.4.6 2.2c.3 1.2 1.2 2.2 2 2.2.7 0 2.5.7 3.9 1.6 2.3 1.6 2.6 1.6 4.9-.6 2.4-2.3 2.5-2.3 3.2-.2.8 2 .9 2 4.1-.9 3.5-3.1 4.1-4.9 1.6-4.9-.8 0-1.2-.5-.9-1 .3-.6 1.4-1 2.4-1s2.3-1.1 2.9-2.4c.6-1.3 2-2.7 3.1-3.1 1.2-.3 2.1-1 2.1-1.5s1-1 2.2-1.2a5.5 5.5 0 0 0 3.4-2.6c.6-1.3 1.7-2.9 2.3-3.5.6-.6 1.1-2.6 1.1-4.3 0-1.8.5-3.6 1-3.9 1.5-.9 1.2-5.4-.5-7.1A7.5 7.5 0 0 1 342 71c0-1.6-.4-3.1-.9-3.4-.4-.3-1.4-2.7-2.1-5.3l-1.7-6.6c-.3-1.1-1.1-1.6-1.9-1.3-.8.3-1.4 0-1.4-.6s-.9-.3-2 .7c-2 1.8-2 1.7-2-.8 0-3.7-2.1-7.9-3.7-7.3-.7.3-1.3-.1-1.3-.8 0-1.4-5-3.9-8.1-4-.8-.1-2.3-.9-3.3-1.9-1.7-1.6-3.1-2.1-5-1.8-.8.2-1.9-.1-8.1-2.5a7.2 7.2 0 0 0-2.9-.5c-.5.1-1.3-.4-1.7-1.1-.7-1-.9-1-.9-.1zM485 98.6c0 .8.5 1.2 1 .9.6-.3 1-1 1-1.6 0-.5-.4-.9-1-.9-.5 0-1 .7-1 1.6zM490.6 106.5c-.3.8-.1 1.5.4 1.5.6 0 1-.7 1-1.5s-.2-1.5-.4-1.5-.6.7-1 1.5zM484.7 116.7c-1.3 2-3.9 14.2-3.8 17.4 0 2.4-.6 4.2-1.9 5.4-2.2 2-2.8 6.9-.8 6.3 2.4-.8 5-6.9 5.4-12.4.1-3 1-6.9 1.8-8.6.9-1.7 1.6-4.1 1.6-5.4 0-2.3-1.5-4-2.3-2.7zM519.6 118.9c-.4.7-.5 1.5-.2 1.8.9.9 1.9-.4 1.4-1.8-.4-1.1-.6-1.1-1.2 0zM500 122.1c0 1.1.5 1.7 1 1.4.6-.3 1-1.3 1-2.1s-.4-1.4-1-1.4c-.5 0-1 .9-1 2.1zM507 124.9c-.5 1.1-1 2.4-1 3 0 1.7 1.7 1.3 2.4-.7l1.2-3c.9-2-1.4-1.4-2.6.7zM499.8 129c-.3 1.6-.1 3 .4 3 .4 0 .8-1.4.8-3 0-1.7-.2-3-.4-3s-.6 1.3-.8 3zM514.2 129.1c-1.1 1.8-1.1 2.6.3 5.5.9 1.9 1.7 3.4 1.9 3.4 2.4 0 6.6-2.6 6.6-4 0-2.1-2.3-3.3-3.7-1.9-.5.5-1.7.7-2.6.3-1.3-.4-1.4-1-.7-2.4 1.9-3.6.3-4.3-1.8-.9zM128.6 131.7c-.3.7-1.6 1.3-3 1.3-1.3 0-2.6.6-2.9 1.2-.3 1-.9 1-2.6 0-2.3-1.4-4.6-.7-3.5 1 .4.6-.1.8-1.5.3-2.6-.8-5.7 2.5-6.6 7.1-.4 2.2-1.1 3.1-2.3 3-1.5-.1-1.7 1-1.6 9.6 0 5.5-.4 9.8-.9 9.8-2.2 0 1.2 13 5 19.2 1.3 2.1 2.3 4 2.3 4.4 0 .3 2.9 3.4 6.5 6.9 3.6 3.4 6.5 6.7 6.5 7.2 0 1.4 4.1 4.5 7.4 5.4 3.5 1 8.6.3 8.6-1.3 0-.6.9-.8 2-.5 1.1.3 2 .2 2-.3 0-.4 1.8-2.4 3.9-4.5 2.2-2.1 3.7-4.4 3.4-5.1-.3-.7.2-2.8 1.1-4.5 1.2-2.4 1.3-3.5.5-4.5-.9-1.1-.7-1.4.9-1.4 3.5 0 3.3-1.6-.3-3.6-4-2.1-4.3-2.9-1.4-3.7 1.7-.5 1.9-.9.9-2.6-.9-1.7-.8-2.1.6-2.1 1.5 0 1.5-.2 0-2.5-2.1-3.1-2-4.5.2-4.5 1.4 0 1.4-.2.3-.9-.8-.5-1.1-1.6-.7-2.6.3-.9.1-2.6-.5-3.7-.8-1.5-.8-2.2.1-2.8.8-.5 1-1.8.6-3.5-.5-1.9-.2-3.3 1.1-4.7 1.4-1.5 1.5-2.3.5-3.8-.6-1.1-.8-2.2-.3-2.5.5-.3 1.1.1 1.4.7.2.7.6-.8.8-3.5.3-3.1 0-4.6-.6-4.3-.6.2-2.1-.6-3.3-1.9-2.4-2.5-7.6-3.5-13.2-2.5a29 29 0 0 1-7.2 0c-2.6-.5-3.9-.3-4.2.7zM560.8 140.1c-.4 1-.9 5-1.2 9-.6 7.8-.6 7.8 1.4 1.4 1.2-4.2 1.1-13.4-.2-10.4zM518 148.4c-.5 1.3-1.7 2.6-2.7 2.9-1.6.4-1.5.5.3.6a6 6 0 0 1 3.3 1.3c1.1 1.1 1.3 1 .8-.4-.3-1-.2-2 .3-2.3 1.3-.8 1.3-4.5 0-4.5-.6 0-1.5 1.1-2 2.4zM475 148.2c0 1.7 2 4.7 2 3.1 0-.6.3-1.8.6-2.7.4-1.1.1-1.6-1-1.6-.9 0-1.6.6-1.6 1.2zM525.4 149.5c2.1 1.6 3.2 1.3 2.1-.4-.3-.6-1.4-1.1-2.3-1.1-1.5.1-1.5.2.2 1.5zM423.7 151.3c-.3.8-1.9 2.1-3.7 2.9-1.8.9-3.7 2.6-4.4 3.9-.6 1.3-2.1 2.4-3.1 2.5-3.6.2-4 .4-2.5 1.4 1.1.7 1.2 1.2.3 2.1-.9.9-.8 1.7.3 3.4 1.5 2.2 1 5.5-.8 5.5-.5 0-.8.6-.5 1.2.4 1.5-2.9 4.8-4.8 4.8-1.8 0-4 3-4 5.4 0 1.7-.9 2.3-4.9 3.1-6.9 1.5-7.2 3.5-.6 3.5 3 0 4.9.4 4.5 1-.3.5-1.1.8-1.8.6-.7-.1-.9-.1-.4.1 1.6 1 .6 2.3-1.8 2.3-1.5 0-2.4.5-2.3 1.2.2.7-.5 1.2-1.4 1.2-2.4-.2-2.3.5.4 3.3 2.2 2.4 2.2 2.4.3 5.9-1.3 2.4-1.5 3.8-.8 4.5.8.8.5 1.7-1 3.2l-2.1 2.1 2.1.9c2.8 1.2 4.9 5.7 3.1 6.8-.7.5-1.6.9-2 .9-.9 0-4.8 6.4-4.8 7.9 0 .6.7 1.1 1.5 1.1 2 0 1.9.6-.6 3.1-2 2-2 2.2-.3 4 .9 1 2.7 1.9 3.8 1.9 1.9 0 1.8.3-.9 2.5-1.6 1.3-4.2 3-5.7 3.7-2.9 1.3-2.8 2.8.3 2.8 1 0 1.9.4 1.9 1 0 .5-.7 1-1.5 1-1.3 0-2 1.7-1.7 4.1.2 1.6-9.2 1.8-12.1.4-3.8-1.9-5.3-1.9-3.7-.1.6.8 2.3 1.6 3.6 1.8 3.2.4 3.1 2.4-.2 2.1-1.3-.1-2.4.2-2.4.8 0 .5 1.1.9 2.5.9 1.5 0 2.6.6 2.7 1.5l.2 2.7c.1.7-1 1.5-2.4 1.9-2 .6-1.7.7 1.8.8 2.3.1 4.2.5 4.2 1.1 0 1.1-4.3 3.4-8.2 4.4-3.8.9-4.6 4.1-1.6 6.7l2.3 2-2.4-.7c-1.9-.5-2.3-.3-1.8.9.3.9.1 1.8-.6 2.1-.9.5-.9.7.1 1.2 1.7.8 1.5 3.1-.4 4.2-1.1.6-1.3 1.1-.5 1.6s.8 1.3 0 2.7a11 11 0 0 0-.4 5.9c.5 3.2.3 4-1.5 5.3-1.2.9-2 2.1-1.8 2.9.5 1.4-1.4 3.8-3.1 3.8-1.5 0-1.4 1.7 0 2.2.9.3.9 1 0 2.6-.7 1.2-.9 2.7-.6 3.2.3.6-.1.7-.9.4-1.1-.4-1.6 0-1.6 1.4 0 1.1-.7 2.3-1.6 2.6-1 .4-1.4 1.2-1 2.2.5 1.3.1 1.5-1.9 1-2.4-.6-2.5-.5-2.2 3.4.3 4.1-.8 5.1-3.1 2.8-.6-.6-1.5-.9-1.9-.5-.4.4-.1 1.3.5 1.9 1.9 1.9 1.4 2.5-2.3 3.2-1.9.4-3.5 1.1-3.5 1.6 0 1.6-2.7 1.1-3.4-.5-.3-.8-1-1.5-1.5-1.5-.6 0-.8.7-.5 1.5.7 1.6-1.1 2.1-2.1.6-.6-1.1 4.3-6.7 5.6-6.3 1 .2 4.9-3.4 4.9-4.6 0-1.5 3.8-4.4 4.8-3.8.6.3 1.3-.2 1.6-1.1.6-1.5.8-1.5 1.7-.3.7 1.1.8.8.4-1.1-.5-1.8-.2-2.8.8-3.2.8-.3 1.7-2.2 2.1-4.1.4-2 1.3-3.6 2-3.6.9 0 1.3-1.9 1.2-7.1-.1-3.9.3-7.3.7-7.6.5-.3.6-1.2.2-2.1-.3-.8-.1-1.8.5-2.2 1.3-.8-1.6-5-3.6-5-1.1 0-1.4 1.7-1.4 8 0 5-.4 8-1.1 8-.5 0-.7.5-.4 1 .4.6.2 1.6-.3 2.3-1 1.3-2.6 6.7-2.4 7.9.2.9-9.4 10.8-10.5 10.8-1.4 0-8.4 3.8-10.4 5.6-1.8 1.6-1.9 1.6-1.9-.7 0-1.3.9-3 2-3.7 1.1-.7 2-1.8 2-2.6 0-.9.7-1.2 2-.9 1.2.3 2 0 2-.7s.8-.9 2-.5c1.1.4 2 .2 2-.4 0-.6-.4-1.1-.8-1.1-.5 0-.9-1.3-.9-3 0-4.2-1-4.7-3.4-2.1-1.8 1.9-1.9 2.5-.8 3.2.7.4 1 1.1.6 1.6-.5.4-1.2.1-1.7-.7-1.2-2-4.4-.1-4.8 2.8a6.1 6.1 0 0 1-1.6 3.1c-2.3 1.9-.7-3.6 1.8-6.1 1.2-1.3 2.7-3.5 3.4-5.1.6-1.5 1.8-2.7 2.6-2.7 1.7 0 3-5 2.4-9.6-.4-3.8-3.4-4.4-4.9-1-1.2 2.5-4.9 3.7-4.9 1.6 0-.6-.5-1-1.1-1-.6 0-.9.5-.7 1.1.5 1.6-5.8 7.9-7.8 7.9-1.6 0-1.5-.2.1-2 1.8-2 1.7-2-.8-2-1.7 0-3.2.9-4.3 2.5-1.8 2.8-4.4 3.3-4.4 1 0-.8.7-1.5 1.5-1.5s1.5-.4 1.5-.9-1.2-.8-2.7-.6l-4.2.4c-1.1.1-1.1.4 0 1.7 1.1 1.4 1 1.8-.5 2.9-1 .8-1.5 1.8-1.2 2.4.4.5-.2 1.5-1.3 2a5.2 5.2 0 0 0-2.3 3.3c-.2 1.6-1.7 2.9-4.5 4.3-2.4 1.1-4.3 2.2-4.3 2.6 0 .4 1.1 1.4 2.4 2.3 2.1 1.3 5.2 1.8 15.3 2.5.7.1 1 .8.7 1.6-.4 1-1.3 1.3-2.6.9-1.6-.5-1.9-.2-1.6 1.3.2 1.1 1.2 1.8 2.6 1.7 1.2 0 2.2.5 2.2 1.3 0 1.5-3.1 1.8-13 1.4l-8.5-.4a14 14 0 0 1-5.7-2.8c-2-1.6-4.1-2.9-4.7-2.9-1.6 0-11.3-9.8-10.7-10.8.3-.5-.6-2-1.9-3.2-1.4-1.3-2.5-3-2.5-3.8 0-.7-.3-1.2-.7-1-4.3 2.2-9.1 4-11.6 4.3-3.7.5-4.1.9-5.5 6.1-1 3.5-1.7 4.2-4.2 4.6-2.5.4-3 .1-3-1.5 0-1.8-.1-1.8-2.5-.3-1.9 1.3-2.3 1.3-1.9.2.3-.8-.4-2.4-1.7-3.7-1.9-1.9-2.3-2-3.1-.5-.5.9-2.2 1.6-3.9 1.6-2.8 0-2.9-.1-1.5-1.6 1.8-1.7 2.1-2.8.7-1.9-.5.3-1.3 0-1.6-.5-.5-.8-1.4-.5-2.7.6-1.6 1.5-2.1 1.6-2.8.5-.4-.8-.6-2-.4-2.6.3-.7-.4-1.5-1.5-1.8-1.4-.3-1.8-1.1-1.4-2.6.3-1.2.2-2.1-.2-2.1-2.1 0-8.5 2.4-8.5 3.2 0 .5-.5.6-1.1.2-.6-.3-.8-1.5-.5-2.6.7-2.9-2-5.4-4-3.8-.8.7-1.7 1-2.1.7-.7-.8-3.5 4.9-5.6 11.5-1.4 4.1-1.4 4.8-.1 4.8.8 0 1.4.7 1.4 1.5s-.4 1.5-.9 1.5c-1.3 0-1.1 5.4.3 6.2.8.6.7.8-.2.8-.9 0-1 .5-.3 1.8 1 1.9.8 7.5-.4 10.4-.4 1.1-.3 1.8.4 1.8.6 0 1.1.4 1.1 1 0 .5-.7 1-1.6 1-1.3 0-1 .6 1 2.5 1.5 1.4 2.3 2.5 1.7 2.5-.5 0-.8 2.6-.6 6.1.2 5.2 0 6.2-1.6 6.6-2.3.6-1.3 3.3 1.2 3.3 1 0 1.9.4 1.9 1 0 .5-.4 1-1 1-1.9 0-1.1 4.8 1 5.5 1.5.5 1.9 1.2 1.4 3-.5 1.9-.1 2.4 1.8 2.8 2.1.4 2 .4-.4.6-2.1.1-2.8.6-2.8 2.1 0 1.1.5 2 1.1 2 .8 0 .8.4 0 1.4-.9 1.1-.8 1.5.5 2 1.1.4 1.4 1.3 1.1 2.7-.4 1.6 0 2.3 1.4 2.6 1.6.4 1.9 1.1 1.5 2.9-.4 1.3 0 4 .8 5.9.9 2 1.3 4.1 1 4.9-.3.7.2 1.9 1.1 2.6.8.7 1.5 1.9 1.5 2.7 0 .7.7 1.6 1.5 1.9.9.4 1.3 1.3 1 2.4-.3.9.1 2.3 1 3 1 .8 1.2 1.7.6 2.8-.7 1.2-.1 3.2 2 7.1 1.8 3.2 2.7 6.1 2.4 7.2-.5 1.4-.2 1.7.9 1.3.9-.4 1.6-.1 1.6.6s1.1 2.6 2.5 4.2 2.2 3.4 1.9 4c-.4.6 0 1.6.8 2.2.8.6 1.7 1.9 2.1 2.8.3 1 1.4 1.8 2.2 1.8 1.2 0 1.5.6 1 1.9-.3 1.1-.2 2.2.4 2.5.5.3.6 2 .1 4-.9 4.2-1.8 5.6-3.4 5.6-.7 0-1.8 1.6-2.6 3.5-.7 1.9-1.6 3.2-2 3-.3-.2-1.2 1.1-1.9 2.8-.8 1.8-2.2 4.1-3.1 5.2-1 1.1-2.5 4.4-3.5 7.2-.9 2.9-2.4 5.7-3.3 6.2-1.3.8-1.4 1.2-.3 2.5 1.2 1.4 1.1 1.6-.5 1.6s-1.6.2-.4 1c1.1.7.9 1.1-1.3 1.9-1.6.6-2.5 1.6-2.2 2.1.4.6 1.1.7 1.7.4.7-.4.7 0 0 1.3-.6 1-2.2 2.5-3.6 3.3-2.8 1.4-3.2 2.5-1.5 3.5.6.5-.4 2.1-2.7 4.2-2.9 2.6-3.5 3.6-2.5 4.3 1.6.9.6 3-1.5 3-.8 0-1.4.4-1.4 1 0 .5.7 1 1.6 1 1.1 0 1.4.5 1 1.6l-.6 2c0 .2-.7.4-1.5.4-1.8 0-1.9 1.2-.3 2.8 1 1 .8 1.4-.9 1.8-1.9.5-2.1.9-1.2 2.6.6 1.1.8 3.1.5 4.4-.5 1.9-.2 2.4 1.1 2.4 1.4 0 1.2.4-.7 1.5-1.4.8-3.3 1.8-4.2 2.1-2.2.8-2.4 2.4-.3 2.4 1.7 0 1.9 1.2.5 2.6a10 10 0 0 0-1.5 4.3c-.2 1.8-.9 3.9-1.5 4.6-.8.9-.8 2.5-.2 4.7.6 2.3.4 4.1-.5 5.8-.7 1.4-1.3 3.5-1.3 4.7 0 1.3-.4 2.3-1 2.3-.5 0-1 .5-1 1.2 0 .6-.7 1.9-1.6 2.9-1.4 1.6-1.5 2.1-.1 4.8.9 1.7 1.2 3.3.7 3.6-1.3.8-2.2 6.6-2.5 16-.5 14.6-.5 17 .6 17.3.6.3.3 1.4-.6 2.8-1.1 1.7-1.3 3-.6 4.2 1.1 2 .9 12.1-.3 14.1-.5.8-.4 1.6.3 2.1 1.2.7 2.3 5.9 2.3 11.3.1 2.3.4 2.6 2.1 2.1 1.7-.5 1.9-.3 1.4 1.5-.3 1.1-.1 2.4.4 2.7.5.3.9 1.1.8 1.7-.1.7.3 2.4.8 3.8.6 1.4 1 4.2.9 6.1-.1 2 .2 3.5.5 3.2 1.4-.8 4.4 4.3 4.4 7.3 0 2.1.4 3.3 1.3 3.3s1.1.7.7 2c-.4 1.2-.2 2 .5 2 .6 0 .8.5.4 1.1-.3.6-.2 1.4.4 1.8.5.3 1.3 3.6 1.6 7.3.8 9.7 1.7 14.8 2.7 15.4.5.3.9 2.1.9 4 0 2.2.6 3.7 1.5 4 .8.4 1.5 1.2 1.5 1.9s.7 1.8 1.5 2.5 1.5 2.3 1.5 3.5c0 1.3 1.1 4.3 2.5 6.6 1.4 2.4 2.5 5.2 2.5 6.1 0 1 .4 1.8.8 1.8.5 0 1.4 1.6 2.2 3.5 1.1 2.7 1.9 3.5 3.9 3.5a7 7 0 0 1 4.2 1.6c1 .9 3.7 1.7 5.9 1.8 2.2 0 4 .4 4 .7 0 .4 1.8 1 4 1.4 3.1.5 4.6.2 6.9-1.4 3.4-2.5 3.8-2.5 5.7-.7.7.8 1.9 1.6 2.6 1.9.7.2.9.8.5 1.3-.4.4-1.7.3-2.8-.4-1.7-1.1-2.1-.9-2.8 1-1 2.7 0 3.4 2.9 1.8 2.5-1.3 3.9-.5 2.2 1.2-2.6 2.6-1 3 1.6.5 1.6-1.5 4-2.7 5.4-2.7 2 0 3.3-1.1 5.7-4.8 1.7-2.7 3.1-5.2 3.1-5.5a12 12 0 0 1 2.5-3.1c3.4-3.5 3.1-1.8-1 5.3-3.8 6.4-4 7.1-2.5 7.1.6 0 1-.6 1-1.3 0-.7 1.6-3 3.5-5.1 1.9-2.1 3.7-5.3 4.1-7.2.3-1.9 1-3.6 1.4-3.9.6-.4 6.7-12.4 10.3-20.2.5-1.2.7-2.9.3-3.8a32.7 32.7 0 0 1 3.4-13c1.5-2.1 1.8-6.5.4-6.5-1.9 0-1.8-5 .2-6.4 1-.8 1.6-3.2 1.9-7.3.1-3.4.6-6.6.9-7.2.4-.6.9-4.1 1.1-7.8.5-6.4.4-6.7-1.1-4.8-1.6 1.9-1.6 1.8-.9-1.5a59 59 0 0 0 1-6.1c.6-5.6 1.7-9 3.4-9.8.9-.5 2.6-2.6 3.6-4.5 1.1-2 2.6-3.6 3.5-3.6 1.3 0 1.3-.2.1-.9-1.2-.8-1.2-1.2-.2-2.5 1.1-1.3 1.1-1.6-.3-1.6-1.3 0-1.3-.3.4-2 2.5-2.5 3.4-2.5 2.7 0-.6 2.4 2 2.8 2.9.5.4-.9 1.3-1.4 2.2-1.3 2.8.5 7.9-7.5 8.6-13.6.9-7.2 2.9-6.3 2.3 1-.4 4.1-.1 5.4.9 5.4.7 0 1.6-1.2 2-2.8.3-1.5 1.2-4.4 2-6.5.8-2.1 1.2-4.3.9-4.8-.4-.5 0-.9.8-.9.9 0 1.2-.9.9-2.9-.3-2.1.2-3.2 1.7-4.3a15 15 0 0 0 3.7-5.4c.9-2.1 2.7-4.9 4.1-6.2 2.8-2.4 7-3.1 5.7-1-.5.9-.2.9.9-.1 2.3-1.8 2.1-3-.3-2.4-1.1.3-2 .1-2-.5 0-1.9 5.3-9.2 6.7-9.2 1.9 0 1.6 1.3-.7 2.8-1.1.7-2 2.2-2 3.4 0 2 .1 2.1 2 .3 1.1-1 2-2.4 2-3.2 0-.7.5-1.3 1-1.3 1.7 0 1.1 2.6-1 4.5-1.1 1-2 2.3-2 2.9a34 34 0 0 1-2.9 6.8c-1.6 3.1-2.7 6.5-2.4 7.6.3 1.4-.1 2.1-1.6 2.5-2.1.5-3.1 4.7-1.1 4.7.6 0 1-.5 1-1 0-.6.9-2 2-3.2 1.1-1.2 2-2.9 2-3.9 0-2.5 3-9.3 4.6-10.2.8-.4 1.4-1.6 1.4-2.5.1-.9 1.2-3.5 2.5-5.7 3.6-5.9 4-6.8 2.7-7.3-.7-.2-1.2-.8-1.2-1.3 0-1.4 2.8-1.1 3.3.3.5 1.7 3.7-.8 3.7-2.8 0-1.6-1.6-1.9-2.5-.4-.9 1.5-2.5.2-2.5-2.1 0-1-.4-1.9-1-1.9-.5 0-1 .5-1 1.1 0 .5-.5.7-1.1.3-.8-.4-.7-.9.2-1.5 1.1-.6 1.1-1.1.1-2.1-.9-.9-1.2-.9-1.2.1 0 .9-.8 1.1-2.7.7-1.6-.4-2.3-.3-1.7.1.6.4 1.3 1.6 1.7 2.5 1.1 3-1.6 2.1-5.3-1.7-2.5-2.6-3-3.5-1.7-3.5.9 0 1.7-.7 1.7-1.5s-.8-1.5-1.7-1.5c-.9 0-1.4-.3-1-.6.3-.3-.3-1.5-1.4-2.7-1-1.1-1.9-2.4-1.9-2.9 0-1.3 1.7-.9 3 .7 1.8 2.2 2.5 1 2.1-3.6-.3-3.9-.1-4 2.1-3.4 1.3.4 3.1 1.4 4.1 2.3 1.6 1.4 1.7 1.3 1.7-.9 0-1.4-.7-3.5-1.6-4.7-1.5-2.2-4.4-3-4.4-1.2 0 .5-.5 1-1.1 1-.7 0-.9-.9-.6-2.2.4-1.2.1-2.8-.4-3.5-.6-.7-.9-1.8-.6-2.5.2-.7 0-2.1-.5-3.1-.8-1.6-.7-1.7 1.1-.7 1.2.6 2.1.9 2.1.6 0-1.1-3-6-4.2-6.8-1.1-.6-1-1 .2-1.9 1.2-.9 1.1-1-.7-.6-1.5.3-2 .1-1.7-.8.3-.7-.2-2.7-1.1-4.4-1.4-2.8-1.3-3.5.8-3.2.4 0 .7-.6.7-1.4 0-1.4.3-1.4 3 0 3.1 1.6 3.4 1.3 2.1-2-.5-1.1-.4-2.5.1-3.2 1.4-1.7.1-3.3-2.6-3.3-2.5 0-4.6-1.7-4.6-3.8 0-1.1.3-1.2 1.4-.3 1.7 1.4 2.9 0 2-2.3-.3-.9-.1-1.6.5-1.6 1.9 0 1.2-1.7-.9-2.3-1.1-.3-2-1-2-1.7 0-.6.4-.9.9-.5.6.3 1.5-.4 2.1-1.5.6-1.2 1.7-1.9 2.5-1.7.9.4 1.1-.1.8-1.4-.9-3.3 4.1-5.5 8.7-3.9h2.7c1.7-.1 2.1.3 1.7 1.3-.3.8-.1 1.8.5 2.2.6.3 1.1.2 1.1-.3 0-.6 1.6-1 3.5-.9 2.8.1 3.6.6 4.4 2.9 1.1 3.1 2.2 3.7 1.9 1v-3.6c.2-1.6.4-1.6 2.2.7 2.1 2.7 2.7 5.7 1 5.7-.5 0-.6.8-.3 1.7.6 1.5.7 1.5 1.2 0 .6-1.6 1-1.5 4.1.8 1.9 1.4 4.3 3.9 5.3 5.5 1.7 2.6 1.7 3 .3 3-.9 0-1.6.4-1.6 1 0 .5-.5 1-1.1 1-.5 0-.8-.4-.4-1 .6-1-1-4.3-3.7-7.4-1.6-1.7-1.8-1.8-1.8-.3 0 .9.5 1.7 1 1.7.6 0 1 .6 1 1.4 0 .8.6 1.6 1.3 1.9.9.3.9.7 0 1.7-.9.9-.7 2 .8 4.4 2.3 3.7 2.6 7.8.5 7a2 2 0 0 0-2.1.5c-.3.6-1 .9-1.4.6-.5-.2-1.1 1.4-1.4 3.7-.3 2.4-1 4.4-1.4 4.5-.5.2-.7 2.3-.6 4.8.1 2.4-.2 4.7-.7 5a2 2 0 0 0-1 1.6c0 .5 1.1.2 2.5-.7 1.4-.9 3.2-1.3 4.1-1 1.3.5 1.5.1 1.2-1.9-.3-1.3-.2-2.2.3-2 .4.3 1.1-2 1.5-5.1.7-5.8 2.4-8.4 7.7-11.7 1.9-1.3 2.7-1.4 2.7-.5 0 .7.9-.2 2-2 1.1-1.7 2.6-3.2 3.5-3.2.8 0 1.8-1.2 2.1-2.6.4-1.5 1.2-2.3 1.9-2 2 .7 4.2-2.3 7.1-9.5 1.4-3.5 3.8-9.1 5.4-12.4l3.4-7.7c.4-1.4 1-1.6 3.1-.8s2.5.7 2.5-.9c0-1 .6-2.4 1.3-3a33 33 0 0 0 3.8-9.1c1.6-5.4 2.9-8.2 4.1-8.6 1-.3 1.8-1 1.8-1.5s.4-.9 1-.9c1.1 0 .1 3.2-1.4 4.2-.7.5-.3 1.5 1.2 2.8 1.2 1.1 2.2 2.5 2.2 3 0 1.7 2.8 1.1 3.3-.8.2-.9.5-5.1.6-9.2.2-7.2 2.5-15 4.4-15 .5 0 .8 1.5.7 3.2-.4 6-.1 7.3 1.1 6.1.7-.7 1.3-2.2 1.4-3.5.4-5.5 1.8-8.8 3.6-8.8 1.1 0 1.9-.6 1.9-1.3 0-.6.5-.4 1.1.7 1.2 2 .4 21.4-1.1 26.6-.5 1.7-.6 3-.3 3s-.2.9-1.2 2-1.5 2-1 2c1.1 0 4.5-4.1 4.5-5.4 0-.7.3-.7 1.1.1.7.7.6 2.8-.4 7.1-.8 3.4-1.3 8-1.2 10.2.1 2.2-.2 4-.7 4-.5 0-.7.4-.4.8.6 1-1.4 9.4-2.5 10.7-1.1 1.1-1.2 4.5-.1 4.5.9 0 5.2-8.9 5.2-10.8 0-.7.6-1.5 1.3-1.8 1.7-.6 9.2 2.5 8.2 3.4-.7.7-1.2.8-4 1.1-.8 0-1.5.8-1.5 1.7 0 1.1.6 1.5 2 1.1 1.5-.4 2 0 2 1.4 0 1-.5 1.9-1 1.9-1.5 0-7.4 5.9-6.7 6.7.4.3.2 1.1-.3 1.8-.7.8-.2 1.5 1.6 2.4 2.3 1 2.5 1 1.9-.9-.5-1.7-.2-2 2-2 1.8 0 2.8-.7 3.5-2.6.6-1.5 1.9-3.9 3-5.4 2.5-3.5 2.5-4.3 0-3.5-1.5.5-1.8.3-1.4-.8.6-1.8 5.1-1.1 5.8 1 .4.8 0 2.9-.8 4.6-.7 1.8-2.1 6.8-3.1 11.2a35 35 0 0 1-3.2 9.6c-1.6 1.9-1.7 4.3-.1 3.3.6-.4.9-.3.7.2-1.1 2.2-2.8 6-3.3 7.6-.6 1.9-2.9 1.5-5.8-.9-1.1-1-1.8-1.1-2.3-.3-.4.6-.5 1.2-.4 1.3 5.2 2.7 5.4 4.6 1.1 11.1-2.4 3.6-3.3 4.1-6.4 4.1-4 0-6.5 1.6-5.3 3.5.5.8 1.1.8 2.2-.2.9-.7 2.9-1.3 4.4-1.4 2.6-.2 2.8.1 2.2 2.5a6.8 6.8 0 0 1-2.4 3.8 15 15 0 0 0-3 6.5c-.6 2.9-1.5 6-1.9 6.8-4.1 8.5-5.1 13.4-2.7 14.3.6.2 0 .8-1.5 1.2-1.7.4-2.8 1.4-2.8 2.4 0 3.9-9 19.1-11.2 19.1-1.5 0-4.8 3.5-4.8 5.1 0 .9-1 2.4-2.2 3.3-1.6 1.2-1.8 1.6-.5 1.2 3.1-.9 2.2 5.1-1.3 8.5l-3 3-4.2-2.5a56 56 0 0 1-5.8-3.9c-.9-.7-2.6-1.6-3.9-2-1.8-.4-2-.3-1 .9.9 1.1.9 1.8-.3 3.2-.9.9-1.8 3-2.2 4.5-.6 2.6-.5 2.7 1.5 1.7 1.1-.7 2.3-.9 2.7-.6.3.4 1.6-.4 2.9-1.6 1.9-1.7 2.6-1.9 3.6-.9.9 1 .8 1.6-1 3-2.8 2.3-1.7 3.6 1.3 1.6 1.8-1.2 8.4-1.7 8.4-.7l-1.5 3.2c-1.7 3.2-3.2 3.8-4.1 1.6-.6-1.5-7.4-2-7.4-.5 0 1.2 3.5 2.9 5.9 2.9 1.2 0 2.1.6 2.1 1.4 0 1.5-5.5 12.5-7.1 14.1-.5.5-.9 1.4-.9 2 0 .5.5.3 1-.5 1.5-2.3 1.2-.1-1 8.6-2.2 8.9-2.3 9.4-1.2 9.4.4 0 1.6-2.9 2.7-6.5 1.3-4.4 2.2-6 2.6-4.9.4 1.3.8 1.4 1.3.6.4-.7.5-1.6.2-2.1s.1-1.2 1-1.5c1.2-.4 1.5-.2 1 .9-.4 1.1.1 1.5 2 1.5 2.1 0 2.5.4 2.2 2.2-.2 1.5-.9 2.2-2.1 2.2-2-.2-2.2.7-.4 2.5 1 1.1.8 1.1-1.3.1a8.5 8.5 0 0 1-3.1-2.3c-1.1-1.6-2.9.3-2.9 3.1 0 1.5-1.6 8.5-3.5 15.5s-3.5 14.3-3.5 16.2c0 1.9-.6 3.8-1.3 4.2-.8.4-1.7 2.1-2.1 3.7-.6 2.4-.5 2.6.6 1.5.8-.8 2-2.9 2.7-4.7.7-1.7 1.7-3.2 2-3.2 1.1 0 5.1 4 5.1 5 0 1.6-1.7 1.2-2.4-.5-.3-.8-1-1.5-1.6-1.5-.6 0-.9.4-.5 1 .3.5 0 1.8-.6 2.8-1.5 2.5-.3 9.2 1.6 9.2.8 0 1.5-.9 1.5-2s-.7-2-1.5-2c-1.8 0-1.9-1.2-.3-2.8 2.1-2.1 3.5-1.4 3.2 1.5-.3 1.6.6-.5 1.9-4.6 1.2-4.1 2.8-7.6 3.5-7.9 1.6-.5 1.5 2.4-.2 7.9-.8 2.4-1.7 6.3-1.9 8.7-.5 3.9-.4 4.1.9 2.5.7-1 1.4-2.4 1.4-3.2 0-.8 1.6-3 3.6-4.9 2-1.9 4.4-5.4 5.4-7.7 2.4-5.5 3.5-6.1 5.6-3 .9 1.4 2.3 2.4 3 2.1 1.7-.7 1.8.6.2 2.2-.9.9-.6 1.2 1.5 1.2 3.2 0 3.4.9.6 4.4-1.9 2.4-1.8 3.1.4 2.7.4-.1 1 .7 1.4 1.6 1.1 3.3 4.6 6.3 6.5 5.7 1.3-.4 1.6-.1 1.2 1-.3.9.6 2.7 2.3 4.4 1.5 1.5 3.7 4.1 4.9 5.8 2.1 2.9 2.1 2.9 12.5 2.9 8.9-.1 11-.4 14.9-2.4 2.5-1.3 4.9-3 5.5-3.6.5-.7 2.6-1.6 4.6-1.9 2-.4 4.4-1.5 5.4-2.6s2.4-2 3.2-2c.7 0 1.3-.4 1.3-.8s1.6-1.4 3.6-2.1c2.1-.8 3.9-2.2 4.4-3.7a6.4 6.4 0 0 1 2.6-3.1c2.7-1 7.7-6.6 9.9-10.8 1.1-2.2 3-4.9 4.3-6 1.2-1.1 2.2-2.8 2.2-3.8s.8-1.7 2-1.7c1.1 0 2-.7 2-1.5 0-.9.7-1.8 1.5-2.1.9-.4 1.5-1.9 1.5-3.6 0-1.6.4-2.7 1-2.3 1.2.7 5-3 5-5 0-.8.5-1.5 1-1.5.6 0 1-.6 1-1.4 0-.8 1.1-1.6 2.4-2 2-.5 2.4-1.3 2.9-6.8.3-3.4 1-6.4 1.6-6.6.6-.2 1.1-1.7 1.1-3.3 0-1.6.4-2.9.9-2.9 1.3 0 2.4-5.1 1.2-6.3-1.2-1.2-.3-3.7 1.5-3.7.8 0 1.4-.5 1.4-1 0-.6.6-1 1.3-1 .9 0 1.4-1.2 1.5-2.9 0-1.6.8-5 1.6-7.5.9-2.6 1.6-5.4 1.6-6.3 0-2.3 2.3-8.7 3.4-9.5.6-.4.4-1.3-.4-2.2-.7-.9-1-2-.6-2.3.4-.4 1.1-.1 1.7.7.7 1.1.9-.1.9-4-.1-10.8 1-23.4 2.1-24.1.8-.4.9-1.7.4-3.5-1.2-4.3-1.4-11.4-.3-11.4.6 0 .8-.7.5-1.5-.4-.8-.3-1.6.1-1.9.9-.5.7-6.5-.3-9.6-.4-1.3-.3-2.5.3-2.9.8-.4.8-1.9.1-4.6-.6-2.2-1-4.7-1-5.5.3-11.1-.2-13.7-3.3-20.4-1.4-3-2.6-6.2-2.6-7.1 0-.9-.5-2.5-1.1-3.6-1.1-2.1.4-8 2.8-11 .7-.8 1.3-2.7 1.3-4.1 0-1.4.7-3.9 1.5-5.4.8-1.6 1.5-4.7 1.5-7 0-2.2.3-4.4.7-4.8.4-.3.9-1.4 1.1-2.4.5-2.6 1-5.6 1.1-7 .1-.6.7-1.2 1.5-1.2 1.3 0 2.9-7.5 2.7-12.7 0-1.2.4-2.5.9-2.8.6-.3 1-1.7 1-3 0-1.5.7-2.6 1.9-3 1.6-.5 1.9-1.4 1.6-5-.1-2.5.1-4.2.6-4 1 .7 2.3-8 1.4-9.4-.3-.6 0-1.1.8-1.1 1.1 0 1.4-2.2 1.4-10.3.1-5.6.3-12.4.6-15.1.3-2.9-.1-6.5-.9-8.9-.8-2.1-1.1-4.3-.8-4.8.3-.5 0-.9-.5-.9-.6 0-1.1-.7-1.1-1.5 0-.9-.7-1.8-1.6-2.2-1.6-.6-1.6-.7 0-1.8 1.3-1 1.4-1.8.7-3.8a9.2 9.2 0 0 1-.4-4.6c.4-1.5-.2-2.8-1.6-4-2-1.8-2.1-2-.4-2.4 1.1-.3.6-.5-1.2-.6-2.7-.2-2.8-.3-1.2-1.5 1.5-1.2 1.6-1.5.2-2.6-1.2-1-1.3-1.6-.3-2.7.9-1.1.9-1.6-.1-2.3-.9-.5-1.1-1.7-.7-3.4.3-1.4.2-2.6-.3-2.6-1 0-.9-10.5.2-11.6 1-1.1-2.4-6.2-4.5-6.8-1.6-.4-1.8-.8-.9-2.4.8-1.5.8-2.2-.2-2.5-.9-.3-.7-1 .6-2.4 1.6-1.8 1.6-2.1.2-2.6-.8-.4-1.5-1.3-1.5-2.1s-.7-1.9-1.6-2.4c-1.1-.6-1.4-1.4-.8-2.3.4-.7.8-3 .8-5.1.1-3.2-.2-3.7-1.6-3.2-1 .3-1.8.1-1.8-.5s.5-1 1.1-.9c.6.2 1.4-.3 1.6-1.1.4-.9 0-1.1-1.6-.6-2.4.7-2.5 0-1.1-6 .5-2.4.5-4.4 0-5-.6-.7-.5-1.6.3-2.4.9-.9.6-1.1-1.3-.9-1.7.2-2.5-.2-2.6-1.2 0-.8-.4-2.3-.9-3.3-.4-1-.8-3-.9-4.6a8.8 8.8 0 0 0-1.4-4.3 6.2 6.2 0 0 1-1.1-3.4c.4-4-.1-5.4-2.1-5.4-2.6 0-2.6-2.8.1-12.7 1.7-6.4 1.8-8.1.8-10-1.2-2.3-5.9-3.3-5.9-1.3 0 .5.5 1 1.1 1 .6 0 .8.9.3 2.2-.6 2-.5 2.1 1 .9.9-.8 1.9-1.2 2.2-.9.8.8-1.5 6-2.5 5.4-.4-.3-1.3.6-2 2-1.5 3.4-1.4 3.6 1 2.9 1.9-.6 2-.5.8 1.7-.7 1.2-1.2 3.6-1.1 5.3 0 1.6-.2 2.4-.4 1.7-.8-1.8-2.1-1.5-2.7.8-.6 2.2 1.9 8 3.4 8 .5 0 .9-.5.9-1 0-.6-.6-1-1.2-1-.9 0-.8-.3.2-.9.8-.6 1.7-.8 2-.6 1 .6-1.2 10.5-2.3 10.5-.5 0-.7-.9-.4-2.1.3-1.2 0-2.2-.9-2.6-2.2-.8-2.3-.3-1.3 5.6 1 6.6-.5 15.3-2.6 14.5-1.4-.6-3.5 2.4-3.5 5 0 .9.5 1.6 1 1.6.6 0 1-.7 1-1.5s.5-1.5 1.1-1.5c.6 0 .9 1.2.7 2.7-.2 2-.9 2.7-2.8 2.8-1.4.2-3-.2-3.7-.7-.7-.6-1.4-.5-1.8.2-.4.7.2 1.4 1.5 1.7 1.9.5 2.1 1.1 1.6 4.2-.7 4.3-.7 4.3 0 10.2.4 2.9.1 5.6-.7 7-.8 1.7-.9 2.4-.1 2.7 1.1.3 1 4-.4 13-.4 2.7-.9 3.2-2.4 2.7-1.7-.5-1.9-.3-1.1 1.7.4 1.2.5 3.6 0 5.3-.4 1.6-1 9.3-1.4 17-.7 16.2-1.1 18.6-3.1 17.8-1.6-.6-1.9-4.9-.4-5.8 1.6-1 1.2-2.5-.5-1.9-1.6.6-4.5 9.2-4.5 13.2 0 2.1.2 2.2 1.5 1.2.8-.7 1.5-1.9 1.5-2.6 0-.8.4-1.4 1-1.4.5 0 .7.7.4 1.5-.4.8-.1 1.5.5 1.5 2.1 0 .7 7.8-1.9 10.5-1.8 1.9-2.2 3.1-1.7 6 .8 4.6-.9 4.5-2-.2-.4-2-1.4-3.8-2.1-4.1-1.8-.6-1.5 6.8.4 8.9 2.2 2.5 2.7 9 .9 13.2l-1.4 3.5 5.4 3.6c3 1.9 5.9 4.4 6.5 5.5 1 1.9.8 1.9-2.2.9-1.8-.6-4.3-2.2-5.5-3.5-1.2-1.2-2.7-2.3-3.3-2.3-.6 0-1.5-1.1-2.2-2.5-1.2-2.7-2.8-2.4-2.8.6 0 1.2-.7 1.9-1.9 1.9-1.8 0-1.9-.3-.5-5.3.8-2.8 1.6-7.7 1.9-10.7.8-7.9 2.6-17 3.4-16.6.4.3.7-2 .7-5 .1-2.9.6-5.9 1.1-6.6.6-.7 1.3-4.2 1.7-7.8.6-6.1.5-6.4-.9-3.8-.8 1.5-1.5 3.7-1.4 5 0 1.3-.6 5.4-1.5 9.3-.9 3.8-1.6 8-1.6 9.1 0 1.2-.6 2.7-1.4 3.3a9 9 0 0 0-2 4.6c-.4 1.9-.9 3.5-1.1 3.5-2.1 0-7.5-3.7-7.5-5.2 0-1.2-.7-1.8-2.2-1.7-1.3 0-1.7.3-1 .6 1.2.5 1.7 3.3.6 3.3a11 11 0 0 1-3.2-1.9c-2.8-1.9-6.2-2.4-6.2-.9 0 .5 1 1.3 2.3 1.8 1.2.5 1.6.9 1 .9-.7.1-1.3.8-1.3 1.6 0 1.8-1.7 2-2.3.2-.2-.6-.8-.8-1.3-.4-.5.5-.1 1.4.9 2.1 2 1.5 2.3 3.6.4 3.6-.9 0-1.3 1.3-1.1 4.2.2 3.8.4 4.3 2.4 4 1.4-.2 2 0 1.6.7-.4.6-1.3 1.1-2 1.1s-2.1.9-3.1 2c-2.1 2.4-4.1 2.6-4.9.5-.3-.8-1.6-1.5-3-1.5-2.7 0-4.1-1.4-3.1-3 .5-.8 1.1-.8 2 0 1.6 1.3 1.5.3-.4-5.4-.7-2.1-.9-4.1-.5-4.5 1.2-.8 1.8-9.1.7-9.1-1.9.1-3.5 1.9-3 3.4.4.9.2 1.6-.3 1.6-.6 0-.8 1.6-.4 3.8a71 71 0 0 1-.6 13.7c-1.8 15.7-2 16.5-4.2 16.5-1.5 0-1.9.5-1.5 2 .4 1.7 0 2-3.4 2-4.8 0-5.7-1.5-5.4-9.6.3-7.6 2.4-19.4 3.6-19.4.7 0 .6 2.7-.6 10.2-.8 4.9 1 3 2.3-2.5 1.4-6.3 1.5-9.7.2-9.7-1.1 0-6.2-7.2-5.5-7.8.2-.2 1.7.5 3.3 1.7 3.7 2.6 4.2 2.6 4.2.3 0-1 .5-2.3 1.2-3 .9-.9.9-1.2-.1-1.2-1.7 0-.6-8 1.2-9.3.9-.7.9-1 0-1.4-1.4-.5-1.8-3.3-.5-3.3.4 0 1.9 1.3 3.4 3 1.6 1.9 3.6 3 5.2 3 2.6 0 3.5-1.3 1.6-2.5-.5-.3-1-1.4-1-2.5 0-1.3-.5-1.7-1.8-1.3-2.9.7-8.2-4.8-7.5-7.7.4-1.4.1-2.7-.8-3.4-1.8-1.4-1.9-8.2-.2-7.9.7.2 1.6-.9 1.9-2.3.6-2.5-1.5-5.3-4.2-5.4-.7 0-2.4-.6-3.9-1.4l-2.6-1.4 2.3-1.6c2-1.4 2.1-1.8.8-2.7-.8-.5-2.7-1.2-4.2-1.5-3.7-.8-5.7-3.2-3.7-4.5 1.2-.8 1.2-1-.1-1.9-.8-.5-2.3-1-3.2-1-3.4 0-4.9-1.1-3.7-2.6 1-1.2.9-1.3-.5-.8-1.7.7-2.3-1.1-.6-2.1 1.6-1 1.2-2.5-.5-1.9-.8.4-1.5.1-1.5-.5 0-.9-.5-.9-2-.1-1.7.9-2 .8-2.1-1.2-.1-1.3 0-2.8.1-3.3.2-.9.7-3.8.9-5.8.1-.4.5-.7.9-.7s.8 1.6.9 3.6c.1 1.9.4 3.8.8 4.2 1.3 1.4 3.1-3.1 5.2-13.1.7-3.5 2.3-4.5 3.9-2.3 1.3 1.9 1.5.7 2.8-14.9l.5-6-2.3 6.4c-2 5.9-2.3 6.2-3.8 4.7-2.2-2.2-2.3-2.1-3.8 2.4s-1.8 4.7-3.6 2.2c-1.8-2.3-1.8-4.6.1-3.9.8.4 1.7.2 2-.3.4-.6-.1-1-1.1-1-1.3 0-1.5-.6-1-3.1l.6-4c0-.5.6-.9 1.3-.9.9 0 1.1-1.2.9-4.1-.3-2.5-.1-3.9.5-3.6 1.1.7 2.8-2.4 3.7-6.3.4-1.8 1.5-2.8 3.8-3.5 2.2-.7 3.3-1.6 3.2-2.8-.1-.9.2-1.7.7-1.7.5 0 .9-1.9.9-4.3 0-2.3.5-6 1.1-8.2.5-2.2 1.1-4.9 1.2-5.9.3-2.8 2.4-3.1 3.2-.5.5 1.5.9 1.8 1.5.9.7-1.2-1.9-10.2-3.3-11.7-1.2-1.1-.8-2.3.7-2.3.9 0 1.9 2 2.7 5.5.7 3 1.5 5.2 1.9 5 .8-.5.6-9.9-.4-14.5a62 62 0 0 1 4.6-22.7c.6-1.2.7-3 .3-4-.6-1.5-.8-1.5-1.2-.3-1.3 4.2-1.6 4.4-2.5 1-1.3-5.1-1.4-6.9-.3-6.8 1.4.1 2.5-7.5 1.3-8.7-.7-.7-1.2-.6-1.5.2-.3.7-1.2 1.3-2.1 1.3-1.2 0-1.3-.3-.5-.8.7-.4 1.2-3 1.1-6.1 0-3 .4-5.6.9-6 .4-.3.9-2.4.9-4.6.2-6.8.7-8.9 2.3-10.9 1.1-1.3 1.2-1.7.2-1.1-2.2 1.3-2.9-1.3-1.5-5.3.7-2 1.3-4.5 1.4-5.5 0-.9.5-1.7 1-1.7 1.9 0 2.3 3 .6 4.9-2.1 2.3-2.1 4.3.1 3.9 2-.4 3.1-3.6 3.2-9.3 0-3.2-.2-3.6-1-2.3-1.8 3.1-2.7 1.9-2.3-3 .4-5.3.2-5-2.1 3-.9 3.2-2.1 5.8-2.6 5.8s-.9-.5-.9-1.1c0-.5-1.3-2.2-2.8-3.7a14.8 14.8 0 0 1-3.5-4.5c-.4-.9-1.4-1.7-2.3-1.7-.8 0-1.4-.6-1.2-1.2.5-1.3-3.2-4.8-4.9-4.8-.4 0-1.4-.9-2.1-2-.6-1.1-1.8-1.7-2.6-1.4-1 .4-1.3 0-1-1.3.6-2.7-1.2-5.1-2.8-3.5-1.9 1.9-3 1.4-2.3-.9.6-1.9.4-2.1-1.9-1.5-1.9.5-2.6.2-2.6-.8 0-2.6-6.4-3.7-7.3-1.3zm39.3 72.2c0 .8-.4 1.5-1 1.5-.5 0-1-.7-1-1.5s.5-1.5 1-1.5c.6 0 1 .7 1 1.5zm-2.3 21.7c-.3.8-.6.5-.6-.6-.1-1.1.2-1.7.5-1.3.3.3.4 1.2.1 1.9zm-4.4 13c-.8 4.6-1.3 4.8-1.3.5 0-2.1.4-3.7 1-3.7.5 0 .7 1.4.3 3.2zm4.7 4.5c-.1 2.4-.2 2.6-1.1 1-.5-.9-.7-2.2-.4-2.7 1-1.7 1.5-1.1 1.5 1.7zm79 16.3c0 .5-.4 1-1 1a1 1 0 0 1-1-1c0-.6.5-1 1-1 .6 0 1 .4 1 1zm-234 40.2c0 .3-1.3 1.3-3 2.2-2.9 1.4-4.3.5-1.7-1.1.8-.4 1.7-1.7 2.1-2.8.6-1.6.9-1.7 1.6-.5a5 5 0 0 1 1 2.2zm228.2 1.8c-.6 1.1-1.2 2.9-1.2 4s-.4 2-1 2c-.5 0-1-1.1-1-2.4 0-1.4.5-2.8 1-3.1.6-.3 1-1.6 1-2.8 0-1.6.3-1.8 1.2-.9 1 1 1 1.7 0 3.2zm-199.7 0c.3.5.1 1-.4 1-.6 0-1.1-.5-1.1-1 0-.6.2-1 .4-1 .3 0 .8.4 1.1 1zM244 333.9c-1.3 2.4-3 2.8-3 .6 0-2.1 3.4-5.5 3.8-3.8.2.6-.2 2.1-.8 3.2zm7-3c0 .5.3 1.8.6 2.8.4 1.3.3 1.5-.4.4-1.2-1.7-2.7.3-1.6 2.1.5.9.2.9-.9-.1-1.7-1.4-2.3-4.2-1-5.4 1-1 3.3-.8 3.3.2zm4.6 1.8c-1 1-1.9-.5-1-1.8.6-1.1.8-1.1 1.2 0 .2.7.1 1.5-.2 1.8zm59 4.1c-1.8 1.6-1.8 1.6-.6-.6.6-1.3 1.4-2.1 1.8-1.8.3.4-.2 1.4-1.2 2.4zm-4.6 3.8c0 1.6-1.6 1.9-2.5.4-.8-1.3.4-3.2 1.6-2.5.5.4.9 1.3.9 2.1zm124 3.9a22 22 0 0 1-2.6 4.8c-1.6 2.1-1.6 2.1-1-1.2.6-3.2 3.4-7.6 4.3-6.7.2.2-.1 1.6-.7 3.1zm-108.7 2.2c-.4 1-.9 1.1-1.6.4-.5-.5-.7-1.8-.3-2.8.6-1.4.9-1.5 1.6-.4.4.8.6 2.1.3 2.8zm87.4 3.9c-.3.3-1.2.4-1.9.1-.8-.3-.5-.6.6-.6 1.1-.1 1.7.2 1.3.5zm16.9 6.9c-2.2 1.6-7.2 2-8 .6-1-1.5.6-2.1 5.3-2.1 4.3.1 4.5.2 2.7 1.5zM386 371c0 .5-.7.7-1.5.4-.8-.4-1.2-1-.9-1.5.6-1.1 2.4-.2 2.4 1.1zm74 10.4c0 1.8-1.7 2.9-3 2.1-.8-.5-.7-1.1.1-2.1 1.5-1.8 2.9-1.8 2.9 0zm59 39.6c0 .5-.5 1-1.1 1-.5 0-.7-.5-.4-1 .3-.6.8-1 1.1-1 .2 0 .4.4.4 1zm-29.3 7.2c-.3.8-.6.5-.6-.6-.1-1.1.2-1.7.5-1.3.3.3.4 1.2.1 1.9zm13 15c-1.4.7-1.8 2-1.6 4.6.3 5.4 0 7.2-1.1 7.2-1.6 0-1.2-8.8.6-12.2 1.2-2.3 1.8-2.8 2.7-1.9.9.9.8 1.5-.6 2.3zm-49.7-1.3c0 .6-.4 1.3-1 1.6-.5.3-1-.1-1-.9 0-.9.5-1.6 1-1.6.6 0 1 .4 1 .9zm22 .5c0 .8 1.1 1.7 2.5 2 2 .5 2.3 1 1.6 2.4-3.8 7.4-3.7 10.1.1 11.6 3.6 1.3 3.6 3.4.1 3.8-2 .2-2.9.9-3.1 2.6-.4 2.6-2.2 2-2.2-.8 0-1-.5-2.2-1-2.5-.6-.4-.9-.1-.8.7.2.7-.3 1.2-1 1-.7-.1-1.2.3-1.1 1v3.3c-.1 1.6-.3 1.7-1 .6a2 2 0 0 0-2.4-.8c-.9.3-1.8.1-2.1-.6-.3-.7-.2.1.1 1.7.4 1.9.2 2.7-.5 2.2-.6-.3-1.3-.2-1.7.4-.8 1.2.1 1.3 4.3.1 4-1.2 6.8.9 5.2 3.9-1.3 2.5-1.3 3 .5 3 .8 0 1.5.5 1.5 1 0 2-3.1 7.1-3.9 6.5-1.3-.8-1.9-6.4-.7-6.8.7-.2.6-.9-.3-2-1.5-1.9-4.1-2.3-4.1-.7 0 .5.5 1 1.2 1 .6 0 .1 1.1-1.2 2.5-1.9 2-2.1 2.7-1 4 .7.8 1 1.8.7 2.2-.4.3-.2 1.2.5 2 .8 1 .8 1.7 0 2.5-1.4 1.4-11.2-4.9-11.2-7.1 0-2.9 3.1-6.3 5.1-5.8 3.4.9 2-1.1-2-3-4.1-1.9-4.2-2.1-2.4-8.6.7-2.7 2.2-2 2 .9-.3 3.9 2 4.1 2.8.2 1-4.2 4.5-6.9 4.5-3.3 0 .8.4 1.5.9 1.5s1.6.2 2.3.5c1 .4 1.4-.2 1.3-1.9a7 7 0 0 0-.6-3.1c-.4-.3 0-2.2.7-4.3.7-2 1.3-5.1 1.4-6.9 0-1.7.5-3.5 1-3.8.6-.3 1-1.5 1-2.6 0-1 .7-1.9 1.5-1.9s1.5.6 1.5 1.4zm13 4.1c.5 1.3.3 2.8-.6 4-1.7 2.3-2 2-2.9-2.8-.7-3.4-.5-3.9 1-3.5 1 .1 2.1 1.2 2.5 2.3zm-5 4.5c0 .5-.7 1-1.6 1-.8 0-1.2-.5-.9-1 .3-.6 1-1 1.6-1 .5 0 .9.4.9 1zm22.3 4.2c-.3 1.6-.9 2.8-1.4 2.8-.5 0-.6-.7-.4-1.5l1-3.1c.8-2.6 1.4-1.2.8 1.8zm32.9 0c-1.2 1.2-3.5.1-2.7-1.2.3-.5 1.3-.6 2.1-.3 1 .4 1.2.9.6 1.5zm-19 15.6c2.8 1.7 3.6 3.2 1.8 3.2-3.9 0-16-8.6-16-11.3 0-1.4 1.1-.9 5.8 2.4l8.4 5.7zm-37.4-3.5c2.1 2.2 2.1 2.6.8 5.2-.8 1.6-1.3 3.2-1 3.7.3.4 0 .8-.5.8-.6 0-1.1-.5-1.1-1.1 0-.6-.7-.8-1.6-.5-1.3.5-1.5.2-1-1.6.3-1.3.6-3.8.6-5.6 0-3.8.9-4 3.8-.9zm18.4 8.9c-.8.8-.9.4-.5-1.3.4-1.3.8-1.8 1.1-1 .2.7-.1 1.8-.6 2.3zm25.8-.7c-.7.9-1.5 1.3-1.7 1.1-.7-.7.7-2.6 1.9-2.6.6 0 .6.6-.2 1.5zm-44 4.5c0 .5-.4 1-1 1a1 1 0 0 1-1-1c0-.6.5-1 1-1 .6 0 1 .4 1 1zm-2.5 3c.8-1.4 2.5-.3 2.5 1.7 0 1.1-.6 1.4-2.1 1-1.2-.3-2.2 0-2.6.9-.9 2.5-2 1.5-1.5-1.6.3-2.4.7-2.8 1.7-2 .9.8 1.5.8 2 0zm-63.5 2.7c0 .5-.5 1.5-1 2.3-.8 1.2-1 1.1-1-.8 0-1.2.5-2.2 1-2.2.6 0 1 .3 1 .7zm97.7 7.3c1.3 0 2.3.5 2.3 1 0 2.6-12.3-2.6-12.8-5.4-.4-1.6.3-1.4 3.9 1.2 2.4 1.8 5.3 3.2 6.6 3.2zm-56.5-4.2c.6 1.5 7.8 5.1 8.3 4.1.4-.5 1.5-.9 2.5-.9s2.1-.8 2.4-1.8c.3-.9.2.8-.1 3.8-.8 8.4-3.9 13.2-6 9.6-.4-.7-2.5-1.9-4.5-2.5-4.3-1.4-4.5-1.7-5.2-5.5-.3-1.6-.7-3.1-1-3.4-.7-.7 1.3-4.2 2.4-4.2.4 0 1 .4 1.2.8zM481 490c0 .5-.4 1-1 1a1 1 0 0 1-1-1c0-.6.5-1 1-1 .6 0 1 .4 1 1zm13.4 9.3c-.4 1.2-1.2 3-1.9 4-1 1.5-1.2.8-1.1-4 .1-5.6.2-5.7 1.9-4 1.2 1.2 1.6 2.5 1.1 4zm-90.4-3.6c-.1 1.2-2.9 4.7-3.4 4.2-.7-.7 1.3-4.9 2.4-4.9.5 0 1 .3 1 .7zm-31.7 5c.3 1.6.9 3.7 1.3 4.8.7 2 .7 2-1.4.1a6.8 6.8 0 0 1-2.2-4.8c0-3.6 1.6-3.7 2.3-.1zm5.2 4.8c2.8 6.4 3.5 9.9 2.5 10.9-.7.7-1 .3-1-1.3 0-1.3-.6-3.5-1.4-4.9-2.1-3.9-3.5-8.9-2.8-9.7.4-.3.8 0 1.1.7l1.6 4.3zm99.6.5c-1.4.4-1.8.9-1.2 1.9.5.7 1.4 1 2 .7 1.3-.8 1.4-.4.5 1.8-.8 2-2.4 2.1-2.4.1 0-.8-.7-1.5-1.6-1.5-1.2 0-1.5.6-1 2.6.5 1.9.3 2.5-.6 2.1-1.8-.6-1.2-7.9.8-9.4 1.3-.9 2.1-.9 3.5 0 1.9 1.2 1.9 1.2 0 1.7zm3.6.2c-.3.7-.5.2-.5-1.2s.2-1.9.5-1.3c.2.7.2 1.9 0 2.5zm-80.7 4.1c-1.9 5.1-3.3 7.7-4 7.7-.4 0 .4-3.3 1.9-7.3 1.5-4.1 2.7-6.4 2.9-5.4.2 1-.2 3.3-.8 5zm87-1.2c0 .5-.4.9-1 .9-.5 0-1-.7-1-1.6 0-.8.5-1.2 1-.9.6.3 1 1 1 1.6zm-154.4 1.4c2 1.9 2.5 2.8 1.6 3.7-1.3 1.3-3.6-.6-4.4-4-.8-2.8-.5-2.8 2.8.3zm62.1.7c-.3.7-.5.2-.5-1.2s.2-1.9.5-1.3c.2.7.2 1.9 0 2.5zm106.9-.7 2.9 1.6-2.9-.3c-1.6-.2-3.1-.9-3.4-1.6-.5-1.6 0-1.5 3.4.3zm-7.6 1.9c0 .3-.4.8-1 1.1-.5.3-1 .1-1-.4 0-.6.5-1.1 1-1.1.6 0 1 .2 1 .4zm-105 2.5c0 .5 1.1.8 2.4.7 1.7-.2 2.3.1 1.9 1.1-.3.8-1.2 1.2-1.9.9-.8-.3-1.4-.1-1.4.5s-.4.8-.8.5c-.5-.3-1.5 1-2.2 2.9-.8 1.9-2 3.5-2.7 3.5-1.9 0-1.6-2.4.7-5.2 1-1.4 1.7-2.8 1.4-3.1-.8-.7.5-2.7 1.7-2.7.5 0 .9.4.9.9zm89 2.6c.5 1.4 1.4 2.5 2 2.5 1.5 0 1.2 4.8-.4 5.7-.8.4-1.5 1-1.5 1.3l-.6 2.3a9 9 0 0 0-.2 4.4c.7 3.6-1.1 7.2-4 7.9-2.3.6-3.3 3.9-1.3 4.6.6.2.3 1.5-.6 3.2-.9 1.8-1.2 4.1-.9 5.8.5 2.1.1 3.3-1.7 5.1-1.3 1.3-2.2 2.9-2 3.5.4 1.3-4.5 3.9-5.4 2.9-.4-.3-.3-1.4.1-2.4.8-1.7.8-1.7 1.2 0 .3.9.9 1.5 1.4 1.2 1.5-1 1-2.3-1.1-3-1.1-.4-1.8-1.1-1.5-1.6.3-.5-.1-.6-.9-.3-2 .8-2-.5-.1-3 1.2-1.5 1.7-1.7 2.9-.7.8.7 2.5 1.1 3.8.8 2.1-.3 2-.5-.9-1.6-4-1.6-4.4-4.1-.7-4.1 2.2 0 2.4-.3 1.5-1.4-.7-.8-.8-1.7-.3-2 .6-.4.6-2.2 0-4.9-.6-3.1-.5-5.8.6-9.9.8-3.1 1.2-6.7.9-8-.3-1.7-.2-1.9.5-.9.8 1.1 1.7.6 4.7-2.3 2.8-2.8 3.4-4.1 2.6-4.9-1.4-1.4-1.4-2.7-.1-2.7.6 0 1.5 1.1 2 2.5zm-7.9 3.6c-.5 1.3-1 1.9-1 1.2-.1-1.5 1-4.5 1.5-4 .3.2 0 1.5-.5 2.8zm-138.6-.1c.3.5.1 1-.4 1-.6 0-1.1-.5-1.1-1 0-.6.2-1 .4-1 .3 0 .8.4 1.1 1zm61.5-.6c0 1.1-1.9 1.5-2.5.6-.3-.5.1-1 .9-1 .9 0 1.6.2 1.6.4zm-59.7 4.6c.3 1.1.2 1.8-.1 1.7l-2.5-1c-1-.4-1.5-1.1-1.2-1.7 1-1.7 3.2-1.1 3.8 1zm47.1 1.2c-.5.7 0 .9 1.4.6 1.8-.5 1.9-.4.9 1.3-.7 1.1-1.6 1.8-2.2 1.6-1.4-.5-1.9-4.7-.5-4.7.6 0 .8.5.4 1.2zm86.1 2.8c.3.5.1 1-.4 1-.6 0-1.1-.5-1.1-1 0-.6.2-1 .4-1 .3 0 .8.4 1.1 1zm20.5 0c0 .5-.4 1-1 1a1 1 0 0 1-1-1c0-.6.5-1 1-1 .6 0 1 .4 1 1zm68 4c0 .5-.5 1-1.1 1-.5 0-.7-.5-.4-1 .3-.6.8-1 1.1-1 .2 0 .4.4.4 1zm-92.3 9.2c-.3.8-.6.5-.6-.6-.1-1.1.2-1.7.5-1.3.3.3.4 1.2.1 1.9zm20.6 3c-.9 2.9-2.2 6-2.9 6.9-.8.8-1.4 2-1.4 2.5 0 1.4-4.9 7.1-5 5.7 0-.6.5-1.5 1.1-1.8.5-.4.8-1.9.4-3.3-.5-2.8 2.5-9.2 4.5-9.2.5 0 1-.9 1-2 0-1.4 2-3.6 3.6-4l-1.3 5.2zm-4.3-3.8c0 .3-.4.8-1 1.1-.5.3-1 .1-1-.4 0-.6.5-1.1 1-1.1.6 0 1 .2 1 .4zM373 544c-1.3 2.3-2.6 2.6-3.3.6-.7-1.8.1-2.6 2.5-2.6 1.6 0 1.7.3.8 2zm88.4 1.9c.3.5-.1 1.1-.9 1.4-.9.4-1.2.1-.8-.9.6-1.6 1-1.7 1.7-.5zm-5 7.3c-1.9 8.1-2.8 8.8-2 1.4.7-6.2 1.2-7.6 2.6-7.6.4 0 .2 2.8-.6 6.2zm-86.7-3c-.3.8-.6.5-.6-.6-.1-1.1.2-1.7.5-1.3.3.3.4 1.2.1 1.9zm103.7 3.9c-.3.5-1 .7-1.5.3-.5-.3-.7-1-.3-1.5.3-.5 1-.7 1.5-.3.5.3.7 1 .3 1.5zm-264.2 4.1c-.7.7-1.2.8-1.2.2 0-1.4 1.2-2.6 1.9-1.9.2.3-.1 1.1-.7 1.7zm264.6 6.6c.3.9-.2 1.3-1.4 1-.9-.1-1.9-.9-2.2-1.6-.3-.9.2-1.3 1.4-1 .9.1 1.9.9 2.2 1.6zm-21.5 7.4c1.2-1 1.6-.8 2.1 1 .8 3.2.7 6.6-.2 5.2-.4-.7-1.8-1.4-3.1-1.5-2-.3-2.6.2-3.7 3.1-1.5 4.1-1.8 7.8-.5 6.4.5-.5 1.4-2.6 2.1-4.8 1.2-3.8 1.3-3.8 3.2-1.9 2.1 2.1 1.5 5.8-.8 4.9-.7-.3-1.6-.1-1.9.4-.4.6.3 1 1.5 1 1.8 0 1.9.3.9 2.2-1.2 2.2-1.2 2.2-2 .3-.7-1.9-.8-1.9-.8.2-.1 1.6-.6 2-2.1 1.6-1.1-.3-2-1-2-1.6 0-.6-.2-.8-.5-.5-.3.3-.1 1.7.5 3.2.9 2.5.8 2.6-1.1 1.6-1.4-.8-1.8-1.7-1.4-2.8.4-.9 1.1-4.1 1.6-7 1.1-5.6 5-12.6 6.1-10.9.4.7 1.1.7 2.1-.1zm6.7-.2c0 .5-.5 1-1.1 1-.5 0-.7-.5-.4-1 .3-.6.8-1 1.1-1 .2 0 .4.4.4 1zm8 0c0 .5-.4 1-1 1a1 1 0 0 1-1-1c0-.6.5-1 1-1 .6 0 1 .4 1 1zm-132.1 9c.6 2.2 2 4.4 3.1 5 1.5.8 1.9 1.8 1.6 4.3l-.5 4.1c-.1.5-1 .1-2-.8-1.8-1.7-1.9-1.6-3.1 1.8-1.3 4-3 4.8-3 1.3 0-4 1.2-6.8 2.6-6.3 2.1.8 1.8-4.6-.4-7-2.8-2.9-3.4-6.4-1.3-6.4 1.2 0 2.2 1.3 3 4zm123.1-3c0 .5-.4 1-1 1a1 1 0 0 1-1-1c0-.6.5-1 1-1 .6 0 1 .4 1 1zm2 3c0 .5-.5 1-1.1 1-.5 0-.7-.5-.4-1 .3-.6.8-1 1.1-1 .2 0 .4.4.4 1zm3.5 6.9c-1.3 1.4-1.5 1.2-1.5-1.5 0-3.9 1.2-5.1 2.2-2.3.6 1.6.4 2.7-.7 3.8zm-23.5 3.3c0 1.6-.3 1.9-1.1 1.1-.6-.6-.8-1.6-.5-2.2 1.1-1.7 1.6-1.3 1.6 1.1zm20-.2c0 .5-.9 1-2 1s-2-.5-2-1c0-.6.9-1 2-1s2 .4 2 1zm-112 4c0 .5-.4 1-1 1a1 1 0 0 1-1-1c0-.6.5-1 1-1 .6 0 1 .4 1 1zm115-.5c0 1.2-3.2 6.7-3.6 6.3-.9-1 .9-6.8 2.2-6.8.8 0 1.4.2 1.4.5zm-23.2 10.7c-1 2.1-2.8 3.3-2.8 1.8 0-.5.6-2.9 1.3-5.1 1.2-4 1.2-4 1.8-1.2.3 1.5.2 3.6-.3 4.5zm81.2-3.6c0 .8-.5 1.2-1 .9-.6-.4-.8-1.1-.5-1.6.9-1.4 1.5-1.1 1.5.7zm-186.3 2.6c-.3.7-.5.2-.5-1.2s.2-1.9.5-1.3c.2.7.2 1.9 0 2.5zM452 603c.6 1.1.8 2 .6 2-.3 0-1-.9-1.6-2-.6-1.1-.8-2-.6-2 .3 0 1 .9 1.6 2zm-9 3c0 .5-.4 1-1 1a1 1 0 0 1-1-1c0-.6.5-1 1-1 .6 0 1 .4 1 1zm-8.3 8.2c-.3.7-.5.2-.5-1.2s.2-1.9.5-1.3c.2.7.2 1.9 0 2.5zm19.7 1c-.4 1.3-1.7 3.3-3 4.5-1.3 1.2-2.4 3-2.4 4s-.7 2.7-1.5 3.7c-1.3 1.8-1.5 1.8-2.1.2-.4-1-.2-2.2.5-2.9.6-.6 1.1-1.9 1.1-2.9 0-1.8 5.8-8.7 7.3-8.8.5 0 .5 1 .1 2.2zm-7.9 1.6c-.8.8-2.5-1-1.9-2 .4-.6.9-.5 1.5.3.4.7.6 1.5.4 1.7zm-6-.8c-.3.5-1.2 1-1.8 1-.7 0-.6-.4.3-1 1.9-1.2 2.3-1.2 1.5 0zm-7.7 2.8c.2.7-.3 1.2-1.2 1.2-.9 0-1.6-.7-1.6-1.6 0-1.7 2.2-1.4 2.8.4zm1.7 4.3c-.4 1.1-.2 1.9.4 1.9.6 0 1.1-.5 1.1-1.1 0-.5.5-.7 1-.4 1.5.9.2 2.5-2.1 2.5-1 0-1.9.4-1.9 1 0 .5-.7 1-1.5 1s-1.5.7-1.5 1.5-.8 1.5-1.7 1.5c-1 0-2.5.5-3.3 1-1.3.9-1.3 1.2.3 2.1 2 1.2 2.3 4.9.3 4.9-.7 0-1.9 2-2.7 4.4l-1.4 4.5-3.3-2.1c-3.1-1.9-4.2-3.8-2.2-3.8.6 0 1-.6 1-1.3 0-.8 1.1-2.7 2.5-4.3 1.3-1.5 2.7-4.1 3.1-5.7.3-1.6 1.2-3.1 1.9-3.3.8-.3 1.8-1.9 2.4-3.6.6-1.6 1.5-2.7 2.1-2.3.5.3 1.8.2 2.7-.4 2.3-1.2 3.5-.4 2.8 2zm-114.5-.2c0 1.5-4.6 6.1-5.3 5.4-1.4-1.4-.6-3.1 1.8-3.7 1.4-.4 2.5-1.1 2.5-1.6 0-.6.2-1 .5-1s.5.4.5.9zm100 2.1c0 .5-.2 1-.4 1-.3 0-.8-.5-1.1-1-.3-.6-.1-1 .4-1 .6 0 1.1.4 1.1 1zm39.6 10.1c2.4 1.2 4.6 2.9 4.9 4 .4 1 1.1 1.9 1.6 1.9s.9.7.9 1.6c0 1.2-1.3.6-4.9-2-2.7-2-5.4-3.6-6-3.6-1.7 0-6.1-3.1-6.1-4.2 0-1.3 3.9-.3 9.6 2.3zM305 639.5c0 .8-.4 1.5-1 1.5-.5 0-1-.7-1-1.5s.5-1.5 1-1.5c.6 0 1 .7 1 1.5zm112.5 8.5c1 1.1 2.6 2 3.7 2 1 0 1.8.7 1.8 1.5 0 1.8-1.7 2-2.2.4-.3-.9-1-.9-2.6 0-2.5 1.3-3 5.1-.7 5.1.8 0 2.1 1.3 3 3 .9 1.6 1.1 3 .6 3-.5 0-1.1-.7-1.5-1.5-1-2.8-2.6-1.6-1.9 1.5.8 4-2.3 4.2-3.2.2a15 15 0 0 0-3.1-5.6c-2-2.1-2.4-3.3-1.9-5.4.6-2.2.9-2.4 1.4-1 .4 1.2 1 1.5 2 .8 1.1-.6 1.2-1.2.3-2.2-.9-1.1-.9-1.7 0-2.6 1.6-1.6 2.2-1.5 4.3.8zm23.6 4.1c2.5.8 3.6 1.6 3.2 2.5-.4 1.1-2.3 1.3-8.2 1l-8.3-.5c-1.6-.2-.7-3 1-3.4 3.3-.9 8.5-.7 12.3.4zM291 661c0 .5-.2 1-.4 1-.3 0-.8-.5-1.1-1-.3-.6-.1-1 .4-1 .6 0 1.1.4 1.1 1zm119.8 2.2c1.5 1.5 1.6 3.1 0 2.2-.8-.5-.9-.2-.5 1 .4 1 .7 2.2.7 2.7s.7.9 1.5.9 1.5.4 1.5 1c0 2.1-3 .8-4.5-1.9-.8-1.6-2-3.1-2.7-3.3-.9-.3-.9-.8.2-2.1 1.8-2 2.3-2 3.8-.5zm25.7 2.8c1.7.7 1.4.9-1.3.9-2 .1-3.1-.3-2.7-.9.7-1.2 1.3-1.2 4 0zm-20 2c.3.5.2 1-.4 1-.5 0-1.3-.5-1.6-1-.3-.6-.2-1 .4-1a2 2 0 0 1 1.6 1zm13.3 7.2c-.5 1.4-13.6 4.1-15.8 3.2-1.2-.4-1.1-.7.5-1.6 4.5-2.6 16-3.8 15.3-1.6zm-22.6 9c.6 4-.4 8-1.7 7.4-.9-.3-1.2.6-1.1 3 .1 2.5-.3 3.6-1.6 4-1 .3-2 2-2.4 4-.3 1.9-1 3.7-1.5 4-.5.3-.6 1.6-.3 3 .4 1.4.2 2.4-.5 2.4-2.3 0-2.4-5.2 0-9.8 1.2-2.6 2.4-6 2.6-7.7.2-1.6.8-3.2 1.4-3.3.6-.3.6-.8 0-1.5-1.3-1.6 1.3-7.7 3.3-7.7.8 0 1.6 1 1.8 2.2zm15.8 8.2c-1.6 1.4-8.1 3.9-8.7 3.2-.2-.2-.1-1 .3-1.9.6-1.8 2.4-2.4 6.9-2.6 2.5-.1 2.7.1 1.5 1.3zm-156.2 7.9c.7.6 3.5 2 6.2 3.3 4.7 2.2 6.6 4.4 3.8 4.4-3.3 0-16.1-7.7-15.3-9.1.6-.9 3.2-.2 5.3 1.4zm137.1 2.4c0 .5-.7 2.4-1.4 4.3l-1.3 3.5-.1-4.3c-.1-3.1.3-4.2 1.4-4.2.8 0 1.5.3 1.4.7zm-142.6 18.6c.8-.8 5.7 3.6 5.7 5.1 0 .5 1 2 2.2 3.3 3.1 3.3 1.4 4-2.9 1.1-6.4-4.3-10.6-8.6-9.9-10.4.6-1.6.8-1.5 2.5 0 .9.9 2.1 1.3 2.4.9zm19.4.9c-.3.7-.5.2-.5-1.2s.2-1.9.5-1.3c.2.7.2 1.9 0 2.5zM264.1 743c4 1.7 4 4.3 0 2.9-3.7-1.3-9.1-6.6-9.1-9 0-.6 1.4.2 3.1 1.9 1.7 1.7 4.4 3.6 6 4.2zm-3.2 10.7c2.2 2.7 2.7 3.9 1.8 4.5-1.3.9-6.7-4.7-6.7-6.9 0-2.3 1.8-1.4 4.9 2.4zM245 767.2c2.1 2.2 2.5 4 1.3 5.1-.9.9-6.3-4.3-6.3-6 0-2 2.7-1.5 5 .9z"/>
  <path d="M457.7 492.7c-1.2 1.1-.8 2.3.8 2.3.8 0 1.5-.7 1.5-1.5 0-1.6-1.2-2-2.3-.8zM466 497.6c0 2.2.2 2.5 1.5 1.4.8-.7 1.5-1.9 1.5-2.6 0-.8-.7-1.4-1.5-1.4-1 0-1.5 1-1.5 2.6zM473.7 524.1c-2.1 2.4-2.2 3.6-.2 3.6.8 0 1.2-.4.9-.9-.3-.4.2-.8 1-.8.9 0 1.6-.6 1.6-1.4 0-2.4-1.5-2.6-3.3-.5zM472.3 530.7c-1.8.6-1.6 3.3.1 3.3 1.9 0 3.1-1.9 2-3-.5-.4-1.5-.5-2.1-.3zM451 582c0 .5.5 1 1 1 .6 0 1-.5 1-1 0-.6-.4-1-1-1a1 1 0 0 0-1 1zM405.1 687.6c0 1.1.3 1.4.6.6.3-.7.2-1.6-.1-1.9-.3-.4-.6.2-.5 1.3zM483 150.7l-1.5 8.8a97.4 97.4 0 0 0-2.9 23c1.1 2.8 2.4 1.5 2.4-2.4 0-2.1.7-7.4 1.4-11.7 1.4-7.5 2-18.4 1-18.4-.2 0-.4.3-.4.7zM497 152.4c0 1.3-.3 3.9-.6 5.7-.5 2.3-.3 3.1.3 2.4 1.3-1.3 2.3-10.5 1.2-10.5-.5 0-.9 1.1-.9 2.4zM473.8 158.1c-1 1.7-1.8 4.2-1.8 5.7 0 2.3.2 2.4 1.4 1.2 1.2-1.3 3.3-10 2.4-10-.1 0-1.1 1.4-2 3.1zM543.5 173.2c-.4 2.9-1.7 10-3 15.8-3 13.3-4.8 27.1-5.1 38a175 175 0 0 1-1.3 16.5c-1.2 8.6-1.2 15.7-.1 15 .4-.3 1-3.9 1.4-8.2.4-4.3 1.2-9.8 1.7-12.3a77 77 0 0 0 1.8-18.8c0-3.4.9-10.6 2-16 1.9-9.5 2.4-13.5 3.7-28 .7-8.3-.1-9.8-1.1-2zM470.1 171.6c0 1.1.3 1.4.6.6.3-.7.2-1.6-.1-1.9-.3-.4-.6.2-.5 1.3zM501.2 174.5c-1.4 4.8-1.6 11.9-.3 11 1.1-.6 2.5-10.4 1.9-13.1-.3-1.3-.8-.7-1.6 2.1zM555 177.1c0 .5.5.7 1 .4.6-.3 1-.8 1-1.1 0-.2-.4-.4-1-.4-.5 0-1 .5-1 1.1zM506 179.4c-.5 1.3-1.2 5.2-1.6 8.5-.4 3.4-1.2 6.5-1.8 6.9-3.8 2.5-10.6 23.3-11.3 34.7-.5 8.6-.4 8.9 1.2 6.7 1.5-2.1 2-5.2 2.9-17.2a19 19 0 0 1 4.2-11c.7-.8 1.5-3 1.9-4.7.7-3.7 2.5-5.4 2.5-2.5 0 3.2 1.3 3.4 3.2.5 1.4-2.3 1.8-4.8 1.8-13.6 0-10.6-1-13.4-3-8.3zM551 187.3c0 2.6.4 4.7.9 4.7.8 0 .3-7.9-.5-8.9-.2-.2-.4 1.7-.4 4.2zM469.5 188.2c-.4 1.8-1.5 5.1-2.5 7.3s-2 5.7-2.3 7.7c-.5 3.6-.5 3.7 1.2 2 2.7-2.6 4.1-5.7 4.1-9.4 0-1.8.3-4.3.6-5.6.5-1.8.9-2 2.1-1 1.3 1 1.4.8 1.1-1.2-.5-3.9-3.5-3.7-4.3.2zM390.4 192.9c.3.5 1.5.7 2.6.4 2.8-.7 2.5-1.3-.6-1.3-1.4 0-2.3.4-2 .9zM292 196.5c-.6.8-2.7 1.9-4.6 2.5-1.9.6-3.4 1.5-3.4 2s-1.3 2.9-3 5.3c-2.3 3.5-3 5.6-3 9.5 0 2.8.4 5.3.9 5.6.5.3 1.2 2.2 1.5 4.1.4 2 1.4 3.9 2.2 4.2.8.3 1.3 1.2 1 1.9-.3.7 0 1.6.6 2 .6.4.8 2.4.4 5-.3 2.4-.1 4.6.4 4.9 1.8 1.1 1 2.6-.9 2-1.3-.4-2.3 0-3 1.2-.9 1.5-1 1.5-1.1.2 0-.8-2.1-3.5-4.7-5.8-6-5.4-6.4-5.6-5.6-3.4a6 6 0 0 0 2 2.6c.7.5 1.1 1.2.8 1.8-.7 1.1 1.2 3.2 3.8 4.2 2 .8 2.3 4.7.3 4.7-.8 0-1.7-.6-1.9-1.3-.3-.6-.6-.2-.6 1-.1 2.6-.1 2.6-3.5 1.3-2.7-1-3.2-.5-1.7 1.9.5.7 1.4 1 2 .6.7-.4 1.8-.1 2.6.5 1.2 1 1.5.9 1.5-.6 0-1.6.2-1.7 1.5-.3 1.8 1.7 1 4.9-1.1 4.9-.8 0-1.4.4-1.4 1 0 2.3-2.9.8-3.2-1.8-.4-2.4-.5-2.5-1.2-.7-.4 1.1-1.2 3-1.8 4.1-1.2 2.5.8 6.5 2.9 5.7.7-.3 1.3.2 1.3 1.1 0 .9.5 1.6 1.1 1.6.6 0 .9.9.6 2-.3 1.1-.1 2 .4 2s.9-.7.9-1.5.7-1.5 1.6-1.5c1.2 0 1.5.6 1 2.6-.6 2.2-.4 2.5 1.3 1.9 2.3-.7 3.9 1.3 1.7 2.1-2.5.9-1.9 3 .8 2.9 3.6 0 3.9-.8 2-5.4-1.8-4.4-1.3-7.4 1-6.5 2 .8 2.9-1.2 1.6-3.6-.6-1.1-.7-2.6-.3-3.3.4-.6.6-2.2.5-3.4-.2-1.1.2-2.4.7-2.8.6-.3 1.1-1.1 1.1-1.6 0-.6-.5-.7-1-.4-1.4.9-4.3-2.2-3.4-3.6.4-.8.9-.7 1.5.2.7 1.2.9 1.1.9-.1 0-.8.8-2.5 1.8-3.8 1.5-1.9 2.9-2.4 8.3-2.7 4.4-.2 7.5.1 9.3 1 2.3 1.2 24.4 3.9 30.1 3.7 6.8-.3 11-5.4 12.8-15.6 1-5.8.9-7-.6-9.5-.9-1.6-1.7-3.6-1.7-4.5 0-.9-.7-1.6-1.5-1.6s-1.5-.8-1.5-1.8c0-2.4-1.9-4.2-3.6-3.5-1 .4-1.4-.3-1.4-2.1s-.5-2.6-1.7-2.6c-1.3 0-1.4-.3-.5-1.2.7-.7 1.2-1.9 1.1-2.8 0-1-.2-1.1-.6-.3-.7 1.8-2.3 1.6-2.3-.2 0-1.3-.4-1.4-2-.5-2 1.1-8.7.3-18-2.1l-4.2-.9c-.5 0-1.7-.9-2.8-2-1.2-1.2-2.5-1.8-3.1-1.5a11 11 0 0 1-8.2.6c-1.9-.7-2.8-.6-3.7.4zm26 6.9c0 .3-.4.8-1 1.1-.5.3-1 .1-1-.4 0-.6.5-1.1 1-1.1.6 0 1 .2 1 .4zm-10 16.1c2.1 2.5-.1 3.8-3.8 2.2-2.5-1-2.9-1.6-2-2.5a3.9 3.9 0 0 1 5.8.3zm2 11.5c0 .5-.5 1-1.1 1-.5 0-.7-.5-.4-1 .3-.6.8-1 1.1-1 .2 0 .4.4.4 1zm-35.4 34.5c1.7 1.6 1.4 1.8-1 .9-.9-.3-1.6-1-1.6-1.5 0-1.3.9-1.1 2.6.6zM477.1 200.7a30 30 0 0 0-1.1 6.8c0 1.6-.9 5.4-1.9 8.3-1.4 4.1-1.5 5.4-.5 6.3 1.3 1.1 1.3 1 3.3-6.6a78.1 78.1 0 0 0 1.6-18.5c-.2 0-.9 1.7-1.4 3.7zM150.2 203.2c.5 1.4 4.8 2 4.8.8 0-.8-2.5-2-4.2-2-.5 0-.8.6-.6 1.2zM483.2 204.5c-1.4 3-1.6 8.5-.3 8.5.8 0 2.4-10 1.7-10.7-.1-.2-.8.8-1.4 2.2zM554 207.7c0 1.8.5 3.3 1 3.3 1.3 0 1.3-3 0-5-.7-1.1-1-.7-1 1.7zM467.5 209.9c.4 1.3 0 2.3-1.2 2.9-1.3.8-1.5 1.3-.5 2.4.7.9 1 3.6.7 7.2-.4 4.3-.1 5.6.8 5.3.7-.2 1.4-3.3 1.7-8.4.6-9 .3-11.3-1.1-11.3-.6 0-.8.9-.4 1.9zM492 209.4c-.6.9-1 2.1-.8 2.8.3.8.9.4 1.7-1 1.5-2.8.9-3.9-.9-1.8zM519.6 208.8c-.2.4-.1 1.4.5 2.2.7 1.2.9 1 .9-.8 0-2.3-.5-2.8-1.4-1.4zM463.5 211c.3.5.8 1 1.1 1 .2 0 .4-.5.4-1 0-.6-.5-1-1.1-1-.5 0-.7.4-.4 1zM511.1 214.6c0 1.1.3 1.4.6.6.3-.7.2-1.6-.1-1.9-.3-.4-.6.2-.5 1.3zM478.6 220.7c-.7 3.7-1.5 9.7-2.1 15.8a150.6 150.6 0 0 1-3.7 26.9c-1.1 1.3-1 5.6.1 5.6.5 0 1.3 1.2 1.8 2.7.8 2.2 1.1 2.4 1.6 1 .3-.9 0-2.2-.7-3-1.1-1-1.1-2.7-.1-9.2.7-4.4 1.1-8.4.8-8.8a42.8 42.8 0 0 0 2.2-12.5 50 50 0 0 1 2.2-12.9c1.4-3.6 1.1-8.3-.6-8.3-.5 0-1.2 1.2-1.5 2.7zM514.7 224.2c-.3 2.4-.4 7.8-.1 12 .3 5.5 0 8.8-1 11.3-.8 1.9-1.1 3.5-.7 3.5.9 0 2.6-3.9 3.6-8.5.9-4.2.7-20.7-.4-21.8-.4-.4-1.1 1.1-1.4 3.5zM506.6 222.7c-.9.9-.7 3.3.3 3.3 1.2 0 2.2-2.8 1.2-3.4-.5-.3-1.1-.3-1.5.1zM471.6 225.9c-1.4 1.5-1.5 2.4-.7 3.9.6 1.1.9 2.1.8 2.3-.1.2.4-.2 1.1-1 1-1.3 1.8-7.1.9-7.1a9 9 0 0 0-2.1 1.9z"/>
  <path d="M277 226.9c0 .5.7 1.2 1.6 1.5 1.4.5 1.5.4.4-.9-1.4-1.7-2-1.9-2-.6zM499.1 233.6a9.6 9.6 0 0 0-2.1 5c0 1.3-.6 2.4-1.3 2.4-.9 0-1.3 1.6-1.4 5.2-.1 4.9 0 5 1.3 2.7.7-1.3 1.3-3.6 1.4-5.1 0-1.5.9-3.3 2-4.1 1.8-1.2 4-5.6 4-7.8 0-1.7-1.8-.9-3.9 1.7zM270 234c-1.2.8-1.2 1 .5 1 1.1 0 2.9 1 4 2.2 2.6 2.9 6.5 5.2 6.5 3.8 0-.5.7-1 1.5-1 .9 0 1.5-.9 1.5-2.1 0-1.4-.5-1.9-1.5-1.6-.8.4-1.7.2-2.1-.4-.3-.6-1.2-.8-2-.5-.7.3-1.6.1-1.9-.5-.4-.5-1-.7-1.5-.4-.5.3-1.1.1-1.5-.5-.8-1.2-1.6-1.2-3.5 0zM368.5 234.5l-3 1.4 3.5-.6a18 18 0 0 0 5-1.4c2.6-1.5-2.2-1-5.5.6zM220 242c0 .6-1.1 2.2-2.5 3.6-2.6 2.6-3.2 5-1.5 5.6.6.2-.1 1.9-1.5 3.8-1.4 1.8-2.5 4-2.5 4.7 0 .7-.9 2.9-2 4.8-1.1 2-1.8 4-1.6 4.4.3.4-.4 1.8-1.6 3.1-1.5 1.6-1.8 2.5-1 2.8.7.2 1.2 1 1.2 1.8s.9 1.4 2 1.4c1.2 0 2 .7 2 1.6 0 2 2.4 4.4 4.4 4.4.9 0 1.6.6 1.6 1.4 0 .7.6 1.9 1.4 2.6.8.6 1.2 1.8.9 2.6-.3 1 .4 1.6 2.6 2 1.7.4 3.1 1.3 3.1 2 0 .8 1.3 1.7 3 2 1.6.4 3.5 1.3 4.1 2 .6.8 1.8 1.4 2.5 1.4.8 0 4.3 1.5 7.7 3.3 5 2.6 6.8 3.1 8.5 2.4 2-.9 2.2-1.8 2.2-10.1 0-9.1 1.1-16.4 2.7-17.5.4-.3 1.3-2 1.9-3.7 1.2-3.5.2-6.4-2.1-6.4-.9 0-1.5-1-1.5-2.4s-.5-2.8-1-3.1c-.6-.4-.8-1-.5-1.5.7-1.1-1.6-5-3-5-.5 0-2.7-1.5-4.7-3.4s-5.3-3.9-7.2-4.6c-2-.6-3.9-1.8-4.4-2.6-.4-.8-3.4-2.1-6.5-2.9-6.9-1.8-6.7-1.8-6.7-.5zm22.5 18.4c1.7 1.2 1.7 1.3-.7 1.9-1.5.4-4 .4-5.7.1-2.5-.5-2.9-.9-2-2 1.5-1.8 6-1.8 8.4 0zm-9 10.6c.3.5.1 1-.4 1-.6 0-1.1-.5-1.1-1 0-.6.2-1 .4-1 .3 0 .8.4 1.1 1zM530 246.3c0 3-.7 7.6-1.6 10.3A80.5 80.5 0 0 0 524 284c-.4 5.2-.4 12 0 15 .7 5.2.7 5.3 1 1.5l.5-11c.1-3.9.4-7.1.5-7.3l.4-1c.1-.4.4-1.2.8-1.7.3-.6.9-3.6 1.3-6.8.4-3.1 1.1-6 1.6-6.3.5-.3.9-1.1.9-1.7 0-.7-.4-.6-1.1.3-.8 1.1-.9.8-.5-1.5 1-5.2 1.9-22.5 1.3-22.5-.4 0-.7 2.4-.7 5.3zM270 246.4c0 .9.5 1.6 1 1.6.6 0 1-.4 1-.9 0-.6-.4-1.3-1-1.6-.5-.3-1 .1-1 .9zM362.7 246.3c-.2.7.4 2.3 1.4 3.6 1.7 2.1 2.1 2.2 5.4 1 1.9-.7 3.5-1.8 3.5-2.5a2 2 0 0 1 1.3-1.7c.6-.3-.3-.6-2.1-.6-2-.1-3.1.3-2.7.9.3.5-.4 1-1.5 1-1.6 0-2-.5-1.6-1.5.3-1-.1-1.5-1.3-1.5-1 0-2.1.6-2.4 1.3zM290.5 247c-.8 1.3.5 1.3 2.5 0 1.3-.8 1.3-1-.2-1-.9 0-2 .4-2.3 1zM464.1 249.4c-1.1 4.3-.3 10.8 1.3 10.3.6-.2 1.2-1.2 1.3-2.3l.4-5.6c.4-5.4-1.6-7.1-3-2.4zM255 249c0 .5.5 1 1.1 1 .5 0 .7-.5.4-1-.3-.6-.8-1-1.1-1-.2 0-.4.4-.4 1zM293.7 248.7c-.4.3-.7 1.1-.7 1.7 0 .6.5.5 1.2-.2.6-.6.9-1.4.7-1.7-.3-.3-.9-.2-1.2.2zM550.8 248.6c-.4.5-1 3.5-1.4 6.5-.4 3-1.3 6.7-2.1 8.2a8.6 8.6 0 0 0-1 4.5c.4 2 1.5-.2 4.2-8.8 1.6-5.2 1.8-12.8.3-10.4zM502.7 249.7c-1.1 1-.8 6.1.3 6.8.6.4 1-1 1-3.4 0-4.2-.2-4.6-1.3-3.4zM264 251.5c0 .8.4 1.5 1 1.5.5 0 .7-.7.4-1.5-.4-.8-.8-1.5-1-1.5-.2 0-.4.7-.4 1.5zM372.8 251.7c.7.3 1.6.2 1.9-.1.4-.3-.2-.6-1.3-.5-1.1 0-1.4.3-.6.6zM498.1 259.3c-1.3 3.5-1.4 5.4-.2 6.2 1.1.6 2.6-5.7 1.8-7.7-.3-.8-.9-.2-1.6 1.5zM511 257.9c0 .5.5 1.3 1.1 1.7.8.4.7.9-.2 1.6-1.1.7-.9.8.4.4s2 0 2.4 1.3c.3 1.2 1.4 1.8 2.9 1.8 2.9 0 2.9.1.4-3.9-1.8-3-7-5.2-7-2.9zM259.4 259.7c-.8 1.3-.7 3.1.4 6.8 1.8 6.4 2.5 7.1 5.3 5.1 1.3-.9 1.7-1.6 1-1.6-1.1 0-1.1-.3-.1-1.5 1.1-1.3.9-1.5-1.3-1.5-3.4 0-4.8-2.1-4.1-5.9.7-3.5.4-3.9-1.2-1.4z"/>
  <path d="M254 261.7c0 .4.5 1.5 1 2.3.8 1.3 1 1.3 1-.2 0-.9-.4-2-1-2.3-.5-.3-1-.3-1 .2zM509 264.9c0 .5.7 1.1 1.5 1.5.8.3 1.5 1.2 1.5 2.1 0 .8.7 1.5 1.5 1.5s1.5.5 1.5 1.1c0 .7-1 .9-2.6.5-1.7-.5-2.3-.3-1.9.4.4.6.2 1.7-.4 2.4-.8 1-.8 2.2-.1 4.1 1.3 3.5-.9 7.4-4.3 7.6-1.5.1-1 .4 1.3.9 2.2.5 3.7.5 4.1-.2.3-.5 1.5-.9 2.5-.8 1.1.1 2.4.2 3 .1 1.8-.2 4.6-5.1 4-6.8-.5-1.3-.9-1.2-2.6.7-1 1.2-2.1 2.7-2.3 3.3-.2.6-.9.7-1.6.3-.9-.6-.6-1.4 1.1-3.2 5.4-5.5 6-6.6 4.9-7.7-.8-.8-1.8-.2-3.7 2.1-2.8 3.4-4.4 4.1-4.4 1.9 0-.7 1-1.7 2.2-2.2 2.7-1.2 6.2-7.2 4.7-8.1-.5-.3-1.6 0-2.4.6-1.1.9-1.9.7-3.6-.9-2.4-2.2-3.9-2.7-3.9-1.2zM495.5 270c-.4 1.6-1 3-1.4 3-1.6 0-4.1 6.2-4.1 10.4 0 4.7 1.6 6.3 2.4 2.3a69 69 0 0 1 4-15c.9-2 1.2-3.7.7-3.7s-1.2 1.3-1.6 3zM269.6 270.9c-.4.7-.5 1.5-.2 1.8.9.9 1.9-.4 1.4-1.8-.4-1.1-.6-1.1-1.2 0zM362.6 270.9c-.3.5.6.8 2 .8 1.9 0 2.2-.2 1.3-.8-1.8-1.1-2.6-1.1-3.3 0zM479.5 271c.3.5.8 1 1.1 1 .2 0 .4-.5.4-1 0-.6-.5-1-1.1-1-.5 0-.7.4-.4 1zM472.3 273.7c-.4.9-.1 1.9.5 2.1 1.5.5 1.6 5.8.2 6.7-1.2.8-1.3 7.5-.1 7.5s2.3-3.4 3.1-9.5c.5-4 .3-5.2-1.2-6.7-1.7-1.7-1.9-1.7-2.5-.1z"/>
  <path d="M504 279.5c0 1.4.5 2.5 1 2.5.6 0 1-1.1 1-2.5s-.4-2.5-1-2.5c-.5 0-1 1.1-1 2.5zM286.2 282.7c.2 1 1.1 1.9 2.1 2.1 2.4.5 2.1-1.5-.4-2.8-1.8-1-2-.9-1.7.7zM282.5 285c.3.5.8 1 1.1 1 .2 0 .4-.5.4-1 0-.6-.5-1-1.1-1-.5 0-.7.4-.4 1zM288.2 288.2c.3.7 1.3 1.5 2.4 1.7 1.6.3 1.7.1.5-1.3-1.6-1.9-3.4-2.1-2.9-.4zM292.5 292c.3.5 1.5 1 2.6 1 1 0 1.9-.5 1.9-1 0-.6-1.2-1-2.6-1-1.4 0-2.3.4-1.9 1zM455.6 292.5c.4.8 1 1.2 1.5.9 1.4-.8 1-2.4-.6-2.4-.9 0-1.2.6-.9 1.5zM500.5 292c.3.5.8 1 1.1 1 .2 0 .4-.5.4-1 0-.6-.5-1-1.1-1-.5 0-.7.4-.4 1zM516.6 295.1c-.3 1.3-.8 7.3-1.1 13.3-.4 6-1.1 12-1.7 13.5a52 52 0 0 0-3.1 19.2c.4 3.4.1 5.3-1.2 7.3-1.4 2-1.5 3.2-.8 4.9 1.1 2.4 1 4.3-.5 15.7-.5 4.1-.6 7.9-.1 8.4.9 1.1 1.6-1.6 2.4-10.4.6-6.4 3.7-18.8 5.6-22.2 1.2-2.4 1.2-2.8-.6-2.8-2 0-1.9-1.7.3-3 1.2-.8 1.3-1.3.5-1.6-1.8-.8-1.8-10.4 0-10.4.8 0 1.3-1.4 1.4-3.8l.2-16.6c.2-12.4-.3-16.4-1.3-11.5zM291 295c0 .5.6 1 1.4 1 .8 0 2.3.3 3.3.6s.7-.2-.7-1c-3-1.8-4-2-4-.6zM335.5 303.2c0 4.6-.4 9.1-.9 10-1.2 2.5 2 3.6 4.2 1.5 2.3-2.4 2.8-16 .6-18.1-3.2-3.3-4-1.9-3.9 6.6zM459.2 296.3c-.6.7-1.3 4.1-1.7 7.6a37 37 0 0 1-1.1 7.3c-.3.5-.2 2.3.1 4l.7 3.2 1.5-2.8c1-1.8 1.2-4.1.8-6.6-.6-3.7.7-9.9 2.8-12.8 1.3-1.7-1.7-1.6-3.1.1zM293.5 299c.3.5.8 1 1.1 1 .2 0 .4-.5.4-1 0-.6-.5-1-1.1-1-.5 0-.7.4-.4 1zM472.7 302.6c-1 1-.9 5.4.2 5.4.5 0 1.1-.6 1.4-1.3.6-1.6-.7-5-1.6-4.1zM495.5 303.1c-.4.6-.5 1.2-.2 1.5.2.3.7-.2 1-1.1.7-1.7.1-2-.8-.4zM446.7 306.4c-2 1.6-2.3 3.6-.3 3.6.7 0 1.6-1 1.9-2.2.8-2.8.6-2.9-1.6-1.4zM530.1 306.6c0 1.1.3 1.4.6.6.3-.7.2-1.6-.1-1.9-.3-.4-.6.2-.5 1.3zM298 308c-1.3.8-1.2 1 .3 1 .9 0 1.7-.5 1.7-1 0-1.2-.1-1.2-2 0zM484.2 308.9c.4 1.3 1.8 1.6 1.9.4 0-.4-.5-.9-1.1-1.2-.7-.2-1.1.2-.8.8zM496.8 314.7c-.2 2-.8 2.7-2 2.5-1-.2-1.8.2-1.8.8 0 .5.5 1 1 1 .6 0 1 .7 1 1.6 0 .8.4 1.3.9 1 1.1-.7 2.6-8.5 1.8-9.3-.3-.2-.7.8-.9 2.4zM295 314.5c0 .9.6 1.2 1.5.9.8-.4 1.2-1 .9-1.5-.8-1.4-2.4-1-2.4.6zM471.3 317.6c.2 2.9.6 4 1.5 3.7 1.4-.6 1.5-1.5.3-2.9a7.8 7.8 0 0 1-1.4-2.9c-.3-1.1-.4-.1-.4 2.1zM217.3 316.7c-1.4.5-1.8 3.3-.5 3.3.4 0 1.3-.9 2-2 1.2-2 .8-2.3-1.5-1.3zM524.5 328c.3.5 1 1 1.6 1 .5 0 .9-.5.9-1 0-.6-.7-1-1.6-1-.8 0-1.2.4-.9 1zM279.5 330.7c.8 1.8 2.4 3.7 3.5 4.3 1.7.9 2 .8 2-1 0-1.2-.7-2-1.6-2-.9 0-2.5-1-3.5-2.3l-2-2.2 1.6 3.2zM469.7 328.6c-.4.4-.7 1.9-.6 3.3v2.6l1-2.4c1-2.6.8-4.7-.4-3.5zM498 329c0 .7-.7 1-1.5.6-1.2-.4-1.5.4-1.5 4.2l.1 4.7 1.5-3.4c.8-1.9 1.9-4 2.5-4.7.7-.8.7-1.4-.1-1.9-.5-.3-1-.1-1 .5zM523.1 330.6c0 1.1.3 1.4.6.6.3-.7.2-1.6-.1-1.9-.3-.4-.6.2-.5 1.3zM458.5 331c.3.5.8 1 1.1 1 .2 0 .4-.5.4-1 0-.6-.5-1-1.1-1-.5 0-.7.4-.4 1z"/>
  <path d="M516.7 331.6c-.4.4-.7 1.4-.7 2.3 0 1.1.3 1.2 1.1.4.6-.6 1-1.6.7-2.3-.2-.6-.7-.8-1.1-.4zM286 336c0 .5.5 1 1 1 .6 0 1-.5 1-1 0-.6-.4-1-1-1a1 1 0 0 0-1 1zM469.2 337.5a11 11 0 0 1-1.6 5c-2.6 3.8-3 11.5-.6 11.5 1.3 0 3.2-10.4 2.7-15.2-.2-3-.4-3.4-.5-1.3zM524.1 337c1.4 3.1 1.9 3.6 1.9 2.4 0-.6-.7-1.9-1.6-3-1.4-1.8-1.4-1.8-.3.6zM290 336.9c0 1.2 3.9 2.5 4.8 1.6.7-.7-1.7-2.5-3.5-2.5-.7 0-1.3.4-1.3.9zM451 341.4c0 1.3.6 2.6 1.3 2.9 1 .4 1 .7 0 1.8-.7.7-1.3 2-1.3 2.8 0 1.2.6.9 1.9-.8 1.5-2 1.6-3 .8-5.7-1.2-4-2.7-4.5-2.7-1zM493.3 343.3c-.6 1.3-.8 3-.3 3.6.9 1.5 1.5.7 2.4-3.2.8-3.3-.7-3.6-2.1-.4zM444.9 347.8c-.6 2.1-.9 4.9-.7 6.2.3 2.5.4 2.5 1.5.4.7-1.2 1.5-4 1.9-6.3.8-5.3-1.1-5.5-2.7-.3zM492 350.6c0 .8.5 1.2 1 .9.6-.4.8-1.1.5-1.6-.9-1.4-1.5-1.1-1.5.7zM463.2 363.7l-1.5 9.7c-.1 1 .3 2.1.9 2.3.8.2 1.4-2 1.9-6.4.4-3.7 1.1-7.3 1.5-7.8.5-.6.3-2.1-.4-3.3-1.2-2.2-1.4-1.7-2.4 5.5zM451.8 361.7c.7.3 1.6.2 1.9-.1.4-.3-.2-.6-1.3-.5-1.1 0-1.4.3-.6.6zM512 364.5c0 .8.5 1.5 1 1.5.6 0 1-.7 1-1.5s-.4-1.5-1-1.5c-.5 0-1 .7-1 1.5zM479 365.4c0 1.7 1.4 2.9 2.3 2 .8-.8-.3-3.4-1.4-3.4-.5 0-.9.6-.9 1.4zM506.5 380.3c-.4 1-.5 2.1-.1 2.4 1 1 1.8-.4 1.3-2.4-.4-1.7-.4-1.7-1.2 0zM497.4 385.7c-.3 1-1 2.6-1.5 3.5-.5 1.1-.5 1.8 0 1.8s1.2-.7 1.5-1.5a2 2 0 0 1 2.3-1.3c1.2.2 1.8-.3 1.8-1.7 0-2.6-3.3-3.2-4.1-.8zM468.5 401c.3.5.8 1 1.1 1 .2 0 .4-.5.4-1 0-.6-.5-1-1.1-1-.5 0-.7.4-.4 1zM513.1 409.6c0 1.1.3 1.4.6.6.3-.7.2-1.6-.1-1.9-.3-.4-.6.2-.5 1.3zM482 416.1c-4 3.2-2.8 3.8 2.4 1.1 3.8-1.8 4.4-2.7 2.3-3.5-.7-.3-2.8.8-4.7 2.4zM500 419.5c0 .8.9 1.9 2 2.5 1.5.8 2 .8 2-.2 0-.7-.9-1.9-2-2.6-1.7-1-2-1-2 .3zM479 423c0 .5.5 1 1 1 .6 0 1-.5 1-1 0-.6-.4-1-1-1a1 1 0 0 0-1 1zM458 450.5c0 .8.5 1.5 1 1.5.6 0 1-.7 1-1.5s-.4-1.5-1-1.5c-.5 0-1 .7-1 1.5zM432 480.2c-1.2 7.5-.3 13.5 1.4 9.2 1-2.5.7-9.4-.4-9.4l-1 .2zM424.8 484.5c-.4 1.6-.1 2.5.8 2.5 1.7 0 2.5-1.5 1.8-3.4-.9-2.4-2.1-1.9-2.6.9zM441.3 500.2a92.8 92.8 0 0 0-6.4 13.8c-1.2 3-2.6 5.9-3.1 6.5-.4.5-.8 2.2-.8 3.7s-.4 2.8-1 2.8c-1.1 0-2.9 6.2-3.1 10.5-.1 1.7-.3 2.2-.6 1.2-.2-.9-.8-1.7-1.2-1.7-1.2 0-2.7 4.3-2.3 6.8.4 2.6 2.2 2 2.2-.9 0-1 .5-1.9 1.1-1.9.7 0 .9 1 .4 2.7-.4 1.6-.8 3.4-.8 4.1 0 .9-.4.9-1.1.2-1.7-1.7-4.2-1.2-8.5 1.7-4.6 3-4.9 3.7-2.3 5.2 2.2 1.2 2.2 8.4-.1 12.6-3 5.6-3.8 7.8-4.8 13.9l-1.6 9.5c-.9 5.5 1.4 2.8 2.6-3.1.6-2.8 1.8-5.6 2.6-6.2 1.5-1.2 7.3-22.7 7.7-29 .2-2.2.9-4.1 1.6-4.4.7-.2 1.1.4 1 1.5-.3 3.5.4 9.8.9 7.8.3-1.1.9-2.4 1.4-2.9a5 5 0 0 0 .9-2.8c0-1 .7-1.8 1.6-1.8 1.4 0 1.6.7 1.1 4.2a11 11 0 0 0 .8 6.8c.8 1.4 1.4 3.3 1.5 4.2 0 1 .8 2.6 1.8 3.6 1.8 1.8 1.9 1.7 2.9-.5.9-1.9.9-2.5-.3-3-.8-.3-1.4-1.1-1.4-1.8s-.7-1.5-1.5-1.9c-1.7-.6-2-3.2-.4-4.1.6-.4 1.7.1 2.4 1.1 1.4 1.8 1.4 1.8 1.5-.5 0-2.2.3-2.3 3.8-1.7 3.8.6 3.9.5 3.7-2.6-.1-2.3.5-3.9 2.4-5.6l2.6-2.5-2.7.7c-1.6.4-3 .1-3.4-.6-.5-.8-.2-.9.9-.5s1.7.1 1.7-.8c0-.8-.9-1.5-2-1.5-1.5 0-2 .7-2 2.7 0 1.8-.3 2.4-1 1.7-1.4-1.4-2.4-7.4-1.2-7.4.5 0 .9-2 .8-4.6-.2-5.2.3-5.8 4.6-4.9 2.3.5 2.7.9 1.7 1.6-1.2.8-1.2 1 .1 1.8 2.2 1.5.5 2.4-2 1.1-3.9-2.1-3.2-.4 1 2.4 4 2.6 8 3.4 8 1.6 0-.6-.7-1-1.5-1s-1.5-.5-1.5-1c0-.6.6-1 1.3-1 .9 0 1.2-1 .9-3.1-.4-2.4-.9-3-2.3-2.6-2.1.6-3.5-.8-1.9-1.8.8-.5.7-1.1-.1-2.1-.6-.8-.8-1.4-.5-1.4.4 0 .2-.9-.4-2-.6-1.1-1.5-2-2-2-1.4 0-1.2 3.8.2 4.2 1.7.6 0 2.8-2.2 2.8-1 0-2.2.5-2.5 1-.4.6-1.1.8-1.6.5-.5-.4-1.2.1-1.5.9-.3.9-1 1.6-1.5 1.6-1.4 0-1-2.2.8-4.2 1.5-1.7 1.5-1.8-.1-1.8-2 0-1.3-3.6 1.6-8.8 1-1.8 1.8-4.5 1.8-6 0-1.6.4-3.2.9-3.8.8-.9 2.3-8.4 1.7-8.4-.2 0-.8.6-1.3 1.2zm-2.8 34.5c-.3 1.6-1.3 3.2-2.1 3.6-.8.4-1.4 1.8-1.5 3 0 1.2-.3 1.6-.6.9-.2-.6-1.1-1.2-1.9-1.2-1 0-1.4 1.2-1.4 4 0 2.9-.4 4-1.5 4-1.9 0-1.9-3.6 0-7.4a13 13 0 0 0 1.5-4.1c0-1.7 3.7-4.8 4.9-4.1.5.4 1.2.2 1.6-.4 1.2-1.9 1.7-1 1 1.7zm.5 15.1c1.9.9 2.6 5.2.8 5.1-1.9-.1-7.1-3.3-7.6-4.7-.4-1.3 4.2-1.6 6.8-.4zM429.1 503.6c0 1.1.3 1.4.6.6.3-.7.2-1.6-.1-1.9-.3-.4-.6.2-.5 1.3zM412.1 506.4c-.7.8-1.4 3.1-1.7 5.3-.5 4.1-.6 4.2 3.2-4 1.3-2.9.4-3.7-1.5-1.3zM425.3 505.7c-.7.2-1.3.9-1.3 1.5 0 1.2 4.1.6 4.1-.7.1-1.2-1.1-1.5-2.8-.8zM348 506.9c0 .6-1.1 1.1-2.5 1.1-1.6 0-2.5.6-2.5 1.5 0 .8.5 1.5 1 1.5.6 0 1 .7 1 1.5 0 2.1 1.2 1.9 3.3-.5 1.9-2.3 2.2-4.6.7-5.5-.5-.3-1-.1-1 .4zM405.5 508c.3.5.8 1 1.1 1 .2 0 .4-.5.4-1 0-.6-.5-1-1.1-1-.5 0-.7.4-.4 1zM362.6 513.6c-.4 1-.1 2.1.6 2.5 1.6 1.1 2.2-.5 1-2.7-.8-1.5-1-1.5-1.6.2zM449.1 515.6c0 1.1.3 1.4.6.6.3-.7.2-1.6-.1-1.9-.3-.4-.6.2-.5 1.3zM360 518.9c0 .6.5 1.3 1 1.6.6.3 1-.1 1-.9 0-.9-.4-1.6-1-1.6-.5 0-1 .4-1 .9zM361.6 523.5c.4.8.8 1.5 1 1.5.2 0 .4-.7.4-1.5s-.4-1.5-1-1.5c-.5 0-.7.7-.4 1.5zM409.6 525.6c-.4 1-.1 1.4.6 1.2 1.5-.5 2.3-2.8 1-2.8-.5 0-1.3.7-1.6 1.6zM349.6 528.7c.8 4.8 2 6.1 2.9 3.4.7-2.2 2.5-2.9 2.5-1 0 1.4 5 6.2 5.7 5.5.6-.6-9.8-11.6-11-11.6-.4 0-.5 1.7-.1 3.7zM453.2 526.9c.2.7.7 1.2 1.1 1.2 1.2-.1.9-1.5-.3-2-.7-.2-1.1.2-.8.8zM364 529c0 .5.5 1 1.1 1 .5 0 .7-.5.4-1-.3-.6-.8-1-1.1-1-.2 0-.4.4-.4 1zM363 533c0 .6.7 1.9 1.6 2.7 1.4 1.5 1.6 1.4 1.2-.7-.3-2.4-2.8-4.1-2.8-2z"/>
  <path d="m351.5 536.5-.9 2.8c-.2.8 0 2 .5 2.8.9 1.5.9 1.4 1.2-3.9.2-3.5-.1-4.1-.8-1.7zM342.4 537.6c.3.9.6 2 .6 2.5s.7.9 1.5.9c1.8 0 1.8-.5.5-3.1-1.3-2.3-3.5-2.6-2.6-.3zM455.2 538c0 1.4.2 1.9.5 1.2.2-.6.2-1.8 0-2.5-.3-.6-.5-.1-.5 1.3zM442 540.5c0 .8.5 1.5 1 1.5.6 0 1-.7 1-1.5s-.4-1.5-1-1.5c-.5 0-1 .7-1 1.5zM377.6 541.5c-.9 2.4-.7 4.5.3 4.5.5 0 1.3-.9 1.6-2.1.8-2.6-.9-4.8-1.9-2.4zM396.4 542.7a204 204 0 0 1-8 20.1c-1 2.4-2.5 4.7-3.4 5.2-.9.5-2.2 2.8-2.9 5-1.2 4.2-.7 6.6.8 4.1.5-.7 1.9-1.8 3.1-2.4 1.8-.9 2.6-2.6 3.6-7.3.6-3.3 2.4-7.7 3.8-9.8 1.4-2.2 2.6-4.6 2.6-5.4 0-.9.6-2.3 1.4-3.1.7-.9 1.8-3.1 2.4-4.9 1-2.9.9-3.2-.9-3.2-1.1 0-2.2.8-2.5 1.7zM405.8 541.7c.7.3 1.6.2 1.9-.1.4-.3-.2-.6-1.3-.5-1.1 0-1.4.3-.6.6zM343 543c1.9 1.3 3 1.3 3 0 0-.6-1-1-2.2-1-1.9 0-2 .2-.8 1zM349.5 545c-.4.6-.1 1.8.6 2.6 1.4 1.7 3.1 0 2.2-2.3-.6-1.6-1.9-1.7-2.8-.3zM363 545c0 .5.5 1 1 1 .6 0 1-.5 1-1 0-.6-.4-1-1-1a1 1 0 0 0-1 1zM380.6 549.9c-.4.7-.5 1.5-.2 1.8.9.9 1.9-.4 1.4-1.8-.4-1.1-.6-1.1-1.2 0zM341 552.1c0 2.4 2.6 5.4 3.4 4.1.4-.7-.2-2.2-1.3-3.4-1.6-1.6-2.1-1.8-2.1-.7zM367.4 557.6a52 52 0 0 1-1.1 2.6c-.2.5 0 .8.6.8 1.1 0 2.6-3.9 1.7-4.7-.3-.3-.9.3-1.2 1.3zM384 558.6c0 .8.5 1.2 1 .9.6-.3 1-1 1-1.6 0-.5-.4-.9-1-.9-.5 0-1 .7-1 1.6zM395.2 559.5c-1.6 3.6-1.5 7.5.2 7.5.9 0 1.6-1.5 1.8-4.3.6-5.1-.4-6.7-2-3.2zM406 559.6c0 .8.5 1.2 1 .9.6-.3 1-1 1-1.6 0-.5-.4-.9-1-.9-.5 0-1 .7-1 1.6zM378.2 560.2c-1.4 1.4-1.6 2.8-.3 2.8.9 0 2.4-3 1.8-3.6-.2-.2-.9.2-1.5.8zM359.1 562.7c-.1 1.2-1.2 3-2.6 4-1.3 1-2.6 2.7-2.8 3.8a11 11 0 0 1-1.5 4c-1 1.7-1.3 1.8-2.1.5-.8-1.2-1-1-.8.8.1 1.3.9 3 1.9 3.9 1.6 1.5 1.9 1.3 3.8-2.8 1.1-2.4 2.9-5.6 4.1-7.1 1.9-2.3 2.1-3.2 1.2-6-.8-2.5-1.1-2.8-1.2-1.1zM369.2 575.2c-.7.7-1.2 1.9-1.2 2.7 0 1.1.5.9 2-.7 1.1-1.2 2-2.4 2-2.7 0-.9-1.6-.5-2.8.7zM389.4 575.8c-1.2 1-2.4 3.6-2.8 6.1-.4 2.4-1.6 5.5-2.6 6.9-2.8 3.5-2.5 5.1.8 4.9 2.4-.2 2.7.1 2.5 2.5-.1 1.6.2 2.8.6 2.8 1.4 0 3.9-3.4 4.6-6.3.8-3.2-1-3.8-2-.6-.5 1.5-1 1.8-1.8 1-1.3-1.3 1-6.1 3-6.1 1.7 0 1.7-2.7.1-3.3-.9-.3-.8-.9.5-1.8a4 4 0 0 0 1.3-3.9l-.5-3.3c-.1-1.1-1.4-.8-3.7 1.1zM362 577.7c0 1.6-.5 3.4-1.2 4.1-1.3 1.3 0 1.6 1.9.4 1.6-1 2.1-6.4.6-6.9-.9-.3-1.3.5-1.3 2.4zM342.5 578c.3.5 1.1 1 1.6 1 .6 0 .7-.5.4-1a2 2 0 0 0-1.6-1c-.6 0-.7.4-.4 1zM422.7 584.7c-.4.3-.7 1.1-.7 1.7 0 .6.5.5 1.2-.2.6-.6.9-1.4.7-1.7-.3-.3-.9-.2-1.2.2zM431.6 592.9c-.3.5 0 1.4.8 2 1.1.9 1.5.8 2-.5l.6-2c0-.8-2.9-.4-3.4.5zM365 595.9c-.7 1.5-.7 2.1 0 2.1 1.2 0 2.5-2.8 1.7-3.6-.3-.3-1 .4-1.7 1.5z"/>
  <path d="M384.5 595.1c-1.1 1.7.1 2.1 1.5.4.8-.9.8-1.5.2-1.5-.6 0-1.4.5-1.7 1.1zM425.2 598c-1.4 2.3-1.6 4-.3 4 .5 0 1.4-1.4 2-3 1.1-3.4.2-4-1.7-1zM373.6 598.7c-1.1 1.1-.6 2.3.8 2.3.8 0 1.7-.4 2-.9.7-1-1.9-2.3-2.8-1.4zM382 599.3c-1.6 1.3-2.1 2.8-2.4 6.9a7.3 7.3 0 0 1-1.4 4c-1.6 1.6-1.5 8.8.2 11.1 1.2 1.6 1.5 1.2 3.2-3.5.9-2.9 1.6-7.4 1.5-10.1-.2-4.1 0-4.7 1.8-4.7 1.2 0 2.1.7 2.1 1.5s.5 1.5 1 1.5c.6 0 1-.6 1-1.4 0-1.6-2.1-2.6-5.3-2.6-1.6 0-1.9-.3-.8-.9.7-.5 1.2-1.3 1-1.9-.3-.7-.9-.7-1.9.1zM408.7 602.7c-.4.3-.7 1.1-.7 1.7 0 .6.5.5 1.2-.2.6-.6.9-1.4.7-1.7-.3-.3-.9-.2-1.2.2zM426.6 604.7c-.9 1.8-1.2 3.3-.7 3.3 1.3 0 3.3-3.8 2.8-5.3-.2-.7-1.1.3-2.1 2zM411 605c0 .6 1.5 3.2 3.3 6 3.6 5.4 6.2 6.3 9 2.9 1.8-2 1.8-2.1 0-1.5-1.2.4-2.3-.1-3.2-1.6-1.1-1.8-1.1-2.3.2-3.3 1.4-1 1.3-1.2-.3-2.3-1.2-.7-2.1-.8-2.5-.2-.3.6-.1 1 .5 1s.8.4.5 1c-1.1 1.7-3.7 1.1-4.2-1-.5-2-3.3-2.9-3.3-1zM408 608.2c0 1 .4 1.8.9 1.8s1.1.9 1.3 2c.2 1.2.7 1.7 1.5 1.2.9-.6.6-1.6-1.2-3.7-1.9-2.3-2.4-2.6-2.5-1.3zM335.5 611.1c-1 3-.2 3.2 1.2.3.6-1.3.7-2.4.3-2.4-.5 0-1.2.9-1.5 2.1zM401.1 610.4c-.7.8-.9 2.1-.5 2.7.5.9 1 .5 1.6-1.1 1-2.8.5-3.6-1.1-1.6zM396.5 612c-.3.5-.1 1 .4 1 .6 0 1.1-.5 1.1-1 0-.6-.2-1-.4-1-.3 0-.8.4-1.1 1zM405.5 614c.3.5.8 1 1.1 1 .2 0 .4-.5.4-1 0-.6-.5-1-1.1-1-.5 0-.7.4-.4 1zM349.5 615.1c-1.1 1.7.1 2.1 1.5.4.8-.9.8-1.5.2-1.5-.6 0-1.4.5-1.7 1.1zM414 614.9c0 .5.5 1.3 1 1.6.6.3 1 .2 1-.4a2 2 0 0 0-1-1.6c-.5-.3-1-.2-1 .4zM408 616.4c-.6.9-1 2.1-.8 2.8.3.8.9.4 1.7-1 1.5-2.8.9-3.9-.9-1.8zM405.6 623.5c-.6 1.8 0 3.5 1.3 3.5.9 0 .8-3.6-.1-4.5-.3-.3-.8.1-1.2 1zM410 625c0 1.1.2 2 .4 2s.6-.9.9-2c.3-1.1.1-2-.4-2s-.9.9-.9 2zM342.1 629.7c-1.6 3.4-.8 4 1.3.9.8-1.4 1.2-2.7.7-3-.4-.3-1.3.6-2 2.1zM331.3 630.7c-1.8.7-1.6 3.3.2 3.3.8 0 1.5-.9 1.5-2s-.1-2-.2-1.9l-1.5.6zM389 644c0 1.3 3.7 5 5 5 1.4 0 1.2-2.6-.2-3.7-2.1-1.6-4.8-2.3-4.8-1.3zM343.8 645.1c-2 .8-2.7 1.7-2.5 3.2.2 1.7-.3 2.2-2.3 2.2-2 0-2.5.5-2.5 2.5 0 1.4-.4 3.1-.8 3.7-.5.9-.3 1.3.7 1.3.9 0 1.6.7 1.6 1.6 0 1-.6 1.4-1.4 1.1-1.9-.7-2.6 2.5-2.8 12.6 0 4.3-.6 8-1.1 8.4-1.9 1.1-3.7-3-3.8-8.6l-.2-5.6-.6 4.5c-.4 2.5-1 5-1.4 5.7-.4.6-.3 1.4.3 1.8.5.3 1 1.6 1 2.9 0 5.1 5.2 10.6 7.1 7.4.4-.6 1.2-.7 1.9-.3.8.5.5 1.4-1.1 3.1-2.5 2.7-3.9 3.1-3.9 1 0-1.3-2-2.6-4.2-2.6-1 0-.8 1.9.8 9.7.4 2 .2 3.3-.4 3.3-1.6 0-2.3 3-1.1 5.1.6 1.1 2 2.5 3.2 3 2.2.9 2.2.9-.1.5-2.3-.4-2.4-.3-1.7 3.2.4 2 1.1 4.3 1.7 4.9.8 1 .5 1.3-1.2 1.3-1.3 0-2 .5-1.7 1.2.2.7 1.9 1.3 3.7 1.3 3.3 0 3.4-.2 5.4-6.5 1.2-3.6 2.9-7.3 4-8.3 1.6-1.7 2.1-1.7 4.2-.6 2 1 3.2 1 5.8.1 4.3-1.6 4.5-1.5 3.9.7-.3 1 0 2.2.6 2.5.9.6 1.7-3.6 1.2-6.7-.2-1.1 2.4-.8 3.7.5.9.9 1.2.9 1.2 0 0-.6.7-.9 1.5-.6 1.2.5 1.1 1.3-.8 5-1.2 2.4-3 4.6-3.9 4.9-1 .4-1.8 1.3-1.8 2.1s-.6 1.4-1.3 1.4c-1.7 0-5 4.5-6.5 8.7-1.5 4.5.4 3.4 4.7-2.5 1.8-2.6 3.1-3.9 2.7-3-.3 1-.1 1.8.5 1.8 1.1 0 6.9-8.8 6.9-10.6 0-1.5 2.7-2.6 3.4-1.3.2.5.3.4.2-.3-.2-.7.3-2.7 1.1-4.5 1.7-4.1 1.7-4.2-.4-3.8-1 .1-1.2 0-.5-.2.6-.3 1.2-.9 1.2-1.4 0-.5.6-.8 1.3-.7.7.2 1.1-.6 1-1.7-.1-1 1.4-3.6 3.2-5.6 3.1-3.5 5.5-9.2 5.5-12.9-.1-1.1-.4-.9-1.2.5-2.4 4.3-4.8 4.1-4.8-.5 0-1.6-.7-3.5-1.5-4.4-1.8-1.7-2-4.6-.4-4.6.7 0 .9-1 .5-2.8l-1-4.4c-.4-3.1-1.6-3.2-1.6-.1 0 3.6-2.1 5.7-8 7.7-5.6 2-10.9 2-13.4.1a7.7 7.7 0 0 0-3.6-1.5c-1.6 0-6-3.9-6-5.4 0-1.4 2.5-3.3 5.3-4 1.7-.4 2.7-1.3 2.7-2.5 0-1.4.5-1.8 2-1.4 2.4.6 2.6-.5.5-2.1-1.4-1-1.3-1.4.2-3.6l1.8-2.5.5 2.9c.3 1.6 1.1 3.1 1.8 3.4 1.1.3 1.3-.9 1-5.4l-.3-5.9-3.5-.2c-1.9-.1-4.7.3-6.2.8zm0 8.6c.6 1.9-2.5 1.6-3.2-.3-.4-1.1-.1-1.4 1.1-1.2.9.2 1.8.9 2.1 1.5zm-3.8 20.9c0 .8-.5 1.2-1 .9-.6-.4-.8-1.1-.5-1.6.9-1.4 1.5-1.1 1.5.7zm3.5 3.2c-.3.3-1.1 0-1.8-.7-.9-1-.8-1.1.6-.5 1 .3 1.5.9 1.2 1.2zm-5.5 6.3c0 .5-.4.9-1 .9-.5 0-1-.7-1-1.6 0-.8.5-1.2 1-.9.6.3 1 1 1 1.6zm-5.6 1.5c.4 1.2.2 1.2-1.4.4-1.1-.6-2-1.5-2-2 0-1.4 2.8-.1 3.4 1.6zm14.6 11.5c0 1.4-1.6 1.1-2.9-.5-1-1.2-.8-1.3.8-.9 1.2.3 2.1.9 2.1 1.4zm-9-.1c0 .5-.4 1-1 1a1 1 0 0 1-1-1c0-.6.5-1 1-1 .6 0 1 .4 1 1zm23.7 1c.2 2.4.5 2.3-3.8.8l-3.4-1.3 3.5-.6a16 16 0 0 0 3.5-.8l.2 1.9zm-21.4.5c-.3.9-.8 1.4-1 1.1-.3-.3-.2-.9.2-1.5.9-1.6 1.5-1.3.8.4z"/>
  <path d="M356.1 647.3c-.7 1-.5 1.8.9 3 1.9 1.6 2 1.6 2-.8 0-2.9-1.4-4-2.9-2.2zM357.7 655.7c-.9.2-1.5.9-1.2 1.4.4.5-.6.9-2 .9-1.7 0-2.5.5-2.3 1.2.7 2 12.9 3.1 14.7 1.4 1.1-1.2 1-1.7-.8-3.5-2-2-4.5-2.4-8.4-1.4zM323 660c0 .5.4 1 .9 1 .6 0 1.3-.5 1.6-1 .3-.6-.1-1-.9-1-.9 0-1.6.4-1.6 1zM329.2 660.7c-1.8 3.2-1.5 5.1.4 2.5.8-1.2 1.4-2.8 1.1-3.5-.2-.7-.8-.3-1.5 1zM313.5 664.5c-.8 2.1-1.3 4-1.1 4.3.3.2 1.2-1.3 2.1-3.3.8-2.1 1.3-4 1.1-4.3-.3-.2-1.2 1.3-2.1 3.3zM349.2 663c-.7 1.1-1.2 3.2-1.2 4.7.1 2.4.3 2.2 1.6-1.5 1.7-4.8 1.5-6.2-.4-3.2zM319.2 665.5c-1.3 1.8-2.1 3.9-1.7 4.4 1 1.7 2.5 1.3 2.5-.7 0-.9.7-2.9 1.4-4.5 2.1-3.8.6-3.4-2.2.8zM294.1 667.5c-2.4 4.1-2.5 4.5-1 4.5 1.1 0 4.3-6.9 3.6-7.7-.3-.2-1.4 1.2-2.6 3.2zM341.2 665.7c.2.9.8 1.8 1.5 2 .7.3.9-.3.6-1.6-.6-2.5-2.6-2.8-2.1-.4zM390.8 669.6c-.5.4-.8 1.9-.8 3.3.1 2.3.2 2.4 1.1.8 1.1-1.9.9-5.3-.3-4.1zM323 672.1c0 .5.5.7 1 .4.6-.3 1-.8 1-1.1 0-.2-.4-.4-1-.4-.5 0-1 .5-1 1.1zM316.6 674.6c-.4.9-.4 1.9-.1 2.2.2.3.7-.3 1.1-1.2.4-.9.4-1.9.1-2.2-.2-.3-.7.3-1.1 1.2zM377.5 678c.3.5.8 1 1.1 1 .2 0 .4-.5.4-1 0-.6-.5-1-1.1-1-.5 0-.7.4-.4 1zM384 678.4c0 .9.5 1.6 1 1.6.6 0 1-.4 1-.9 0-.6-.4-1.3-1-1.6-.5-.3-1 .1-1 .9zM389.2 679.5c0 1.6.2 2.2.5 1.2.2-.9.2-2.3 0-3-.3-.6-.5.1-.5 1.8zM293.1 679.6c0 1.1.3 1.4.6.6.3-.7.2-1.6-.1-1.9-.3-.4-.6.2-.5 1.3zM384 683.5c0 .8.5 1.5 1 1.5.6 0 1-.7 1-1.5s-.4-1.5-1-1.5c-.5 0-1 .7-1 1.5zM289 686.1c0 .5.5.7 1 .4.6-.3 1-.8 1-1.1 0-.2-.4-.4-1-.4-.5 0-1 .5-1 1.1zM297 693c0 1.9.3 2.1 1.2 1.2.9-.9.9-1.5 0-2.4-.9-.9-1.2-.7-1.2 1.2zM304.2 696.8c-1.2 2.3-1.7 4.2-1.2 4.2 1.2 0 4.2-5.8 3.8-7.2-.3-.7-1.4.7-2.6 3zM308.5 696.1c-.4.6-.5 1.3-.2 1.6.7.7 2.7-.6 2.7-1.8 0-1.2-1.7-1.2-2.5.2zM320 695.7c0 .4.5 1.5 1 2.3.8 1.3 1 1.3 1-.2 0-.9-.4-2-1-2.3-.5-.3-1-.3-1 .2zM323.5 703.1c-1 1.5.1 2.3 2 1.5.9-.3 1.3-1 1-1.6-.8-1.3-2.2-1.3-3 .1zM309.5 706c-.3.5-.4 1 0 1 .3 0 .1.9-.5 2-.7 1.3-.7 2-.1 2 1.1 0 3.1-3.2 3.1-4.9 0-1.4-1.7-1.4-2.5-.1zM377 709.9c-1.5 2.9-1.3 6.1.4 5.5.7-.3 2 .2 2.9 1 .8.8 1.7 1.2 2 .9.4-.3-.5-1.4-1.8-2.5-2-1.5-2.3-2.3-1.5-3.8 1.3-2.3 1.3-3 0-3-.5 0-1.4.9-2 1.9zM389.1 710.6c0 1.1.3 1.4.6.6.3-.7.2-1.6-.1-1.9-.3-.4-.6.2-.5 1.3zM345 712.9c0 .5.5 1.3 1 1.6.6.3 1 .2 1-.4a2 2 0 0 0-1-1.6c-.5-.3-1-.2-1 .4zM384 715c0 .5.5 1 1 1 .6 0 1-.5 1-1 0-.6-.4-1-1-1a1 1 0 0 0-1 1zM313 717.4c0 .8.5 1.8 1 2.1.6.3 1-.1 1-.9s-.4-1.8-1-2.1c-.5-.3-1 .1-1 .9zM386 719.1c0 .6-1.1 2.5-2.4 4.2a18.2 18.2 0 0 0-2.9 8.2c-.6 5.4-.9 5.7 3.9-5 3.1-7.1 3.5-8.5 2.4-8.5-.6 0-1 .5-1 1.1zM283.5 728.2l-1.6 3.3 2.1-2.4c1.1-1.3 2-2.7 2-3.2 0-1.8-1-.8-2.5 2.3zM330 726.9c0 .6 1 2.1 2.3 3.5 1.6 2 2.6 2.3 3.7 1.6 1.3-.8 1.2-1-.3-1-1 0-2.2-1.1-2.7-2.5-.9-2.4-3-3.5-3-1.6zM388.7 727.5c-.4.8-.2 1.7.3 2 .6.4 1-.3 1-1.4 0-2.5-.6-2.7-1.3-.6zM316 730c0 1.1.5 2 1 2 .6 0 1-.9 1-2s-.4-2-1-2c-.5 0-1 .9-1 2zM364.1 731.3c-1.6 2-2.6 7.7-1.3 7.7 1.1 0 2.2-2.3 2.9-6.3.5-3 .1-3.4-1.6-1.4zM280 733.5c0 .8.2 1.5.4 1.5s.6-.7 1-1.5c.3-.8.1-1.5-.4-1.5-.6 0-1 .7-1 1.5zM384.5 735.7c-2.2 3-5.1 8.2-8.4 15.3a43.6 43.6 0 0 1-3.1 6c-1.7 2.6-6 11.3-6 12.3a68.2 68.2 0 0 0 14-23.1c0-.7.5-1.2 1-1.2 1.4 0 1.2 2-.5 5.4a13 13 0 0 0-1.5 4.5c0 1.7 2-1.2 6.4-9.5 2.3-4.3 2.6-4.6 2.6-2.2a62.9 62.9 0 0 1-4.5 19.8l-.6 2.5 2-2.4a7.9 7.9 0 0 0 2.1-4.2c0-1 .5-1.9 1.1-1.9.5 0 .9-.8.8-1.8-.2-.9.2-2.6.8-3.7.5-1.1 1.5-4.2 2.2-6.9 1-4 .9-5-.3-6-.8-.6-1.6-2-1.8-3.1-.5-3-4-2.9-6.3.2zM356.7 735.8c-1 1-1.7 2.4-1.7 3.2 0 .7 1 .1 2.1-1.4 2.4-3.1 2.1-4.5-.4-1.8zM377.5 739c-.3.5-.2 1 .4 1 .5 0 1.3-.5 1.6-1 .3-.6.2-1-.4-1a2 2 0 0 0-1.6 1zM309.3 740.1c-2.9 1.1-2.9 2.5-.1 3.2 2.5.7 3.8.1 3.8-1.8 0-2-1.2-2.4-3.7-1.4zM357 745c0 .5.5 1 1 1 .6 0 1-.5 1-1 0-.6-.4-1-1-1a1 1 0 0 0-1 1zM309.2 748c0 1.4.2 1.9.5 1.2.2-.6.2-1.8 0-2.5-.3-.6-.5-.1-.5 1.3zM359.5 750c-.4 1.2-.5 2.4-.2 2.7.3.2.8-.5 1.2-1.7.4-1.2.5-2.4.2-2.7-.3-.2-.8.5-1.2 1.7zM337.3 753c-2.8 3.4-2.8 3.5-.4 3.7 1.1.1 2.3-.9 3-2.3 2.3-5.1.8-5.9-2.6-1.4zM354 752c0 .5.5 1 1 1 .6 0 1-.5 1-1 0-.6-.4-1-1-1a1 1 0 0 0-1 1z"/>
  <path d="M378.1 757.9c-.7.5-1.1 1.7-.9 2.7.4 1.7.5 1.7 1.7-.4 1.4-2.7 1.2-3.5-.8-2.3zM332.3 761.7c-1.3.2-2.3 1.1-2.3 1.9 0 2 1.4 1.8 3.5-.6 1-1.1 1.6-1.9 1.4-1.9l-2.6.6z"/>
</svg>
