<svg xmlns="http://www.w3.org/2000/svg" version="1.0" viewBox="0 0 480 931">
  <path d="m220 .3.9 3.5c.6 2.1.6 3.2-.1 3.2-.5 0-1.2-.8-1.5-1.8-.2-1-1.8-2.3-3.4-2.9-3.4-1.3-3.6-1-.9 1.7 2.1 2.1 2.7 5 1 5-.6 0-1.5-1-2-2.3-.7-1.7-.9-1.8-.9-.5-.1 2-1.6 2.4-2.6.8-1-1.6-2.6 0-2 2 .7 2.2-2.3 3.7-3.1 1.5-.4-.8-1-1.5-1.5-1.5-1.5 0-1 3.7.6 5 .8.7 1.5 1.8 1.5 2.5a2 2 0 0 0 1.3 1.8c.6.3-.4.3-2.3 0s-5.1-1.4-7-2.5l-3.5-2 3.1 3c1.6 1.7 4.2 3.4 5.7 3.7 3.8 1 2.5 2.3-3 3.1-2.6.4-5.4 1.4-6.2 2.2-1.3 1.3-1.6 1.2-2.2-.4-.3-1.1-.3-2.7.2-3.6.5-.9.9-2.3.8-3 0-.7-.5-.1-1.1 1.4-.5 1.6-1.6 2.8-2.3 2.8-1.5 0-2.8-2.7-1.9-4.1.3-.5-.3-.9-1.2-.9-1.6 0-1.5-.2.2-2.2l1.9-2.2-2.5 1.6c-1.4.9-2.4 2.3-2.2 3.1.1.9-.3 1.9-.9 2.3-.9.5-1 .2-.6-1 .6-1.4.3-1.6-1.3-1.1-3 1-2.4-1 1.6-5.5 2-2.2 3-3.8 2.1-3.4-.9.3-2.3 1.7-3.2 3-2.5 3.8-3.5 2.9-3.6-3.4l-.2-5.7-.6 4.7c-.9 6.5-1.7 6.8-4 1.7-1.6-3.6-2-3.9-2-1.9 0 1.4.6 3.6 1.4 5 2.6 4.6 1.5 5.6-1.9 1.7-3.7-4-4.6-4.5-4.6-2.3 0 2.1-2.1 3.1-3.1 1.5-.6-1-1-.9-1.5.6-1.2 3.2-2.8 3.6-4.6 1.2-2.2-2.7-2.3-.6-.3 3.3 1.4 2.7.5 4.4-1 2-.3-.6-1.9-1-3.4-1s-3.1-.3-3.7-.8c-.5-.4.6.8 2.6 2.5 1.9 1.8 3.1 3.3 2.6 3.3s-.3.7.4 1.5c1.4 1.7.5 3.5-1.9 3.5-2.5 0-3.2-1-2.1-2.9.5-1 .5-2.3 0-3.1-.6-.9-1.2-.1-2 2.8-1.1 4.2-2.4 5.4-3.3 2.9-.2-.6 0-2 .5-2.9.7-1.4.5-1.6-.8-1.1s-1.5.2-1-1.8c.6-2 .5-2.1-.4-.7-.6 1-1.8 1.8-2.5 1.8-.8 0-1.5.8-1.5 1.7 0 1.2-.3 1.4-1.1.6-.8-.8-.8-1.7 0-3.1.8-1.5.7-2.1-.4-2.5-.7-.3-1.6-.1-1.9.6-.2.7-.5.4-.5-.6-.1-1.4-.5-1.6-2-.7-3.4 1.8-3.7 1-.6-1.6l3-2.5-2.9 1.1c-2.7 1-2.8.9-2.2-1.6.5-1.8.3-2.4-.5-1.9s-.9 0-.5-1.6c.6-2.1.5-2.1-.9.4-1.7 2.9-3.5 2.8-3.6-.1 0-1.2-.3-1.1-.9.5-.5 1.3-1.3 2.3-1.8 2.3s-1.7-1-2.5-2.3l-1.6-2.2v2.7c-.1 3.4-1.4 3.6-3 .5-.9-1.7-1-1.8-.6-.2 1.5 4.7 1.7 7.5.7 7.5-.6 0-1.4-.5-1.7-1-.3-.6-1.4-1-2.3-1-1.6.1-1.6.1.1 1.1 2.1 1.2 2.3 4.1.3 3.3-.8-.3-2-1.8-2.6-3.2-.8-2.1-.9-2.2-.6-.5.2 1.3 0 2.3-.5 2.3-.4 0-.6.7-.2 1.6.4 1.2 0 1.5-1.8 1.2-1.7-.2-2.3.1-2 1.2.2.8.4 2.5.4 3.7-.1 1.3.4 2.3.9 2.3s.8.6.5 1.2c-.2.7.5 1.8 1.7 2.5s1.5 1.2.8 1.3c-1 0-1 .4 0 2 1.1 1.7 1 2.2-.1 2.9-.9.6-1 1.1-.2 1.5.6.4 1.1 2.4 1.1 4.4v3.7l-3.5-5.4c-4-6-4.2-6.6-1.9-5.7 1.4.5 1.5.4.4-.9-1.6-1.9-6.7-2.1-5.3-.3a10 10 0 0 1 1.6 3.6c.5 2 .2 2.2-1.6 1.7-1.2-.3-.6.2 1.3 1.2 4.1 2.1 5.5 5.5 1.8 4.6-2.3-.5-2.3-.5-.3 1 2.6 2 1.3 3.2-1.7 1.6-1.2-.7-2.7-1.3-3.3-1.4-1.9 0-6.4-3.7-6-4.8l.9-4.7c.4-2.5.3-3.1-.4-2-.5.8-1 2.8-1 4.3 0 4.3-2.3 2.8-3.7-2.4l-1.1-4.4-.1 5.2c-.1 4.5-.3 5.2-1.8 4.7-1.4-.4-1.3-.3.2.7 5.4 3.4 6.4 8.5 1.2 6.2-1.3-.6-2.9-.8-3.6-.4-.8.6-.2 1.2 1.8 2.1 2.5 1 3.4 1 4.6 0 1.3-1 1.5-.9 1.5.9 0 2.4-4.5 4-6.3 2.2a4 4 0 0 0-2.4-1.1c-2.3 0-1.4 1.9 1.7 3.5 1.7.9 2.8 2 2.5 2.5-.4.6 2.2.8 6.4.7 6-.3 6.9-.1 5.9 1.1-1 1.1-.8 1.3.8 1 1.5-.2 1.9.3 1.9 2.4-.1 1.9.4 2.6 1.6 2.5 1-.1 1.5-.5 1.2-1.1-.4-.6.1-.6 1.3-.1 1 .5 3.2.8 4.8.7 3.5-.2 6.5 2.2 6.1 4.6l-.4 2.2c-.1.3-.5-.1-1-.9-1.6-2.5-3.4-.1-2.7 3.9.5 3 .2 4.1-1.8 5.9a24.8 24.8 0 0 0-4.5 7.1c-2.2 5-5.1 6.8-9.3 5.4-1.6-.5-2-.3-1.5.9.7 1.9-3.4 3.9-5.4 2.6-.8-.5-2.3-.9-3.4-.9-1.7 0-2.1.7-2.3 3.7-.2 2.5-1 4.2-2.5 5.2a43 43 0 0 0-4.9 4.3c-2.8 3-5.5 3.6-6.4 1.4-.6-1.6-3.6-1.5-4.2.2-.2.6.2 2 .8 3.2.9 1.6 1.5 1.8 3 1 2.4-1.3 3.3-1.3 2.5 0-.3.5-.1 1 .4 1 .6 0 1.1-.5 1.1-1 0-.6.9-1 2.1-1 1.1 0 2.3-.8 2.6-1.8.5-2 10-6.5 10.8-5.2 1.1 1.8 3.4-.2 3.7-3.2.2-2.5 1-3.3 4.3-4.5 2.2-.8 4.6-1.4 5.3-1.3 5.5.4 5.4.3 4.7 3.5-2.6 12.2-1.3 17.9 5.5 23.4 2.7 2.1 4.1 4.2 4.6 6.6.3 1.9 1 3.5 1.5 3.5s.9.9.9 2c0 1.2 2 4.1 4.4 6.6 3.1 3.1 4.7 5.7 5.1 8.2.3 1.9.3 3.3-.1 3-1.3-1.4-3.2 1.7-2.2 3.5 1.5 2.9-.2 3.5-2.2.7-5.1-6.9-4.9-6.8-5-4.2 0 1.3.4 2.1.9 1.8 1-.6 2.5 2.4 1.6 3.2-.3.3-.5 0-.5-.6 0-1.1-3.4-1.2-4.5-.1-.3.3 1 1.9 2.7 3.5 3.2 2.8 3.2 2.9 1.1 3.2-3.1.4-2.9 2.2.1 2.2 1.4 0 2.8.4 3.1 1 .3.5-.1 1-.9 1-.9 0-1.6.4-1.6.8 0 .8.7 1 4.8 1.3.9.1 2.5.9 3.5 1.7 1.5 1.4 1.7 1.3 1.7-.1 0-2.4 4.7-.1 5.4 2.6.7 2.7 0 3.3-1.9 1.7-.9-.7-1.8-1-2.1-.7-.3.3.7 1.2 2.3 2.1 3.9 2 13.6 11.4 15.3 15 1.3 2.5 1.3 2.9-.3 4.1-3.2 2.3-4 7.9-2.1 13.8.9 2.9 2.5 6.4 3.6 7.9 2.1 3.1 1.7 4.8-1.3 4.8-1 0-1.9.7-1.9 1.5 0 .9.9 1.5 2.3 1.5 1.6 0 2.6.9 3.4 2.9.7 1.9 3 4.2 6.2 6.1 3.7 2.3 5.1 3.8 5.1 5.4 0 5.9 3.9 11 7 9.1.6-.3 2.9-.6 5.3-.7 2.3 0 4.7-.4 5.2-.8 2.2-1.7 8.8-2.9 10.6-1.9 1 .5 4.7 1.1 8.1 1.3 3.5.2 8.3 1.1 10.7 2 2.6 1 5.6 1.4 7.2 1.1 3.6-.8 4.3-.5 4.7 2 .4 2.8-2.6 10.2-4.4 10.9-.8.3-1.3 1-.9 1.5.3.5-.4 1.6-1.5 2.4-1.1.7-1.7 1.7-1.2 2.2.4.4 0 .6-.8.3-.9-.3-3.2 1.3-5.6 3.7a29.3 29.3 0 0 1-7.3 5.4c-1.7.8-3.1 1.8-3.1 2.4 0 .6-.3.7-.6.4-1.1-1.1-6.6 3.4-6 4.9.3.8-.1 1.4-1 1.4-1.1 0-1.3.6-.9 1.9.4 1.4 0 2.1-1.5 2.6-1.1.3-2.1 1.2-2.1 1.8-.2 2.2-.5 3.2-1.8 6.2-.7 1.6-1.4 3.4-1.5 4-.1.5-1.8 2.6-3.8 4.6-2 2.1-3.7 4.2-3.9 4.8-.2.6-2 1.3-3.9 1.5l-4.5.6c-.5.1-.1.5 1 1 1.8.8 1.8.9-.6.9-1.4.1-2.9-.3-3.5-.9-1.2-1.2-8.4.6-8.4 2 0 .6-.7 1-1.4 1-2.1 0-6.9 4.7-6.4 6.2.3.7-.9 1.9-2.6 2.8-1.7.8-3.7 2.8-4.6 4.5-.8 1.6-2 3.5-2.7 4.2a10 10 0 0 0-1.8 3.4c-.6 1.7-1.2 1.9-3.3 1.4l-4.6-1.1a8 8 0 0 1-3.1-1.4c-.7-.6-1.7-1-2.1-.9-3.4.6-5.2-.4-6.7-3.7-1-1.9-1.5-3.9-1.3-4.2.2-.4-.2-3.4-1-6.7-1.6-7.1-1.8-13.1-.4-14 1.7-1.1 1.1-6.4-1.1-8.6-2.1-2.1-4.9-1.9-7.9.6-1.8 1.5-6 .3-6-1.8 0-.8-2-3.6-4.5-6.3a57 57 0 0 1-6.7-9.4 51.3 51.3 0 0 0-3.3-6c-2.6-3.3-4.3-11.1-3.3-14.2.9-2.6.7-3.3-1.6-5.7a12.5 12.5 0 0 1-2.6-3.5c0-1.1-2.2-3.1-4.3-3.9-.9-.4-2-1.5-2.4-2.4-1-2.6-3.2-4.1-9-5.8-10.4-3.1-20-1.6-25.5 3.9a55.1 55.1 0 0 1-9.2 6.6c-4.2 2.4-6.2 4.3-6.4 5.8-.2 1.2-.8 2.2-1.3 2.2s-.9.9-.9 1.9c0 1.1-.4 2.2-1 2.6-.5.3-.7 1.2-.4 2 .3.8.2 2-.2 2.7-.5.7-.9 1.6-1 2a35.7 35.7 0 0 0-1.8 11.8c-.5 11.3-.3 10.9-2.7 8-1.1-1.4-1.8-1.9-1.4-1.3 1.1 2.2-1.9 1.4-3.3-.8-.7-1.2-1.6-1.9-1.8-1.6-.3.3.2 1.7 1.1 3.1 1 1.4 1.3 2.6.7 2.6-.6 0-1.3-.4-1.7-1-.3-.5-1.2-.7-1.9-.4-1 .4-1.3 5.5-1.5 23.5-.1 19.6.1 23 1.4 23.5.8.4 1.5 1 1.5 1.5 0 .4-.7.6-1.5.3-.9-.4-1.5 0-1.5.9 0 1 .7 1.4 2.3 1.1l2.2-.5-2.2 1.2c-2 1.1-2.3 2-2.3 7.9 0 5.5.3 6.9 1.8 7.5 1.6.6 1.6.7 0 1.6-1.5.8-1.8 2.5-1.8 10.8 0 6.7.4 10.3 1.4 11.6.8 1.1 1.2 2.5.9 3.2-.3.7.3 1.6 1.2 2 1.7.6 1.7.7 0 1.9-1.7 1.3-1.7 1.4.1 2l2.8 1.2c.7.4.3-1.7-1.1-5.6-.3-.6.2-1.2 1-1.2 1.7 0 3.1 2.6 2.8 5.5-.2 1.6 0 1.7.8.5s1.2-.9 2 1.3c.6 1.6 1.1 3.4 1.1 4.1 0 .8.7 1.9 1.5 2.6a3 3 0 0 1 .9 3.3c-.3 1.1-.2 2.2.3 2.6a34 34 0 0 1 4.3 14c0 2.1-.5 3.1-1.5 3.1-.8 0-1.5.7-1.5 1.6 0 1.2.6 1.5 2.3 1 1.9-.4 2.8.2 4.8 3.5l3.4 5.5c1.3 1.9 6.1 2.5 7.4 1 1-1.2.7-7.8-.5-13.4-1-4.7-2.8-4.1-2 .7.7 4.5-.4 5.9-2.6 3.3-2.4-2.8-2.8-6.2-1.1-10.4 1.2-3 2.2-4 4.5-4.5a5.4 5.4 0 0 0 4-2.9c1.1-2.4 1.9-2.8 5-2.5.9.1 1.9-.3 2.3-.9.3-.5-.2-1-1.3-1-2.3 0-3.4-2.1-2.1-4.1.7-1.2 1.3-1.1 3.9.3 1.7 1 3.2 1.3 3.5.7 1.5-2.2 3.4-.7 4 3.3.4 2.4 1.1 5 1.6 5.9.6 1.2-.5 3.2-4.5 7.8a46 46 0 0 0-7.2 10.9c-.9 2.6-2.8 5.5-4.1 6.5-1.3 1-2.3 2.5-2.3 3.3 0 .8-.7 1.7-1.7 2.1-1.4.5-1.2.8.7 1.5 1.3.5 1.9 1.2 1.4 1.6-1.7 1.4-8.5 3.4-9.2 2.7-.4-.4-.2-1 .4-1.2.6-.2 1.9-1 3-1.7 1.6-1.3 1.7-1.5.2-3-2.3-2.2-5.5-2-6.8.4-.6 1.1-.8 2-.4 2s-.2 1-1.3 2.2a30 30 0 0 0-6.8 17.9c-.8 8.6-1.2 9.5-4 10-2.4.5-4.8 4.9-3.4 6.5.5.6 2 .9 3.3.7 2.1-.4 2.4 0 3.1 3.9.4 2.3.7 5.9.7 7.8-.1 3.1.6 6.7 3.9 19.3.6 2.3 2.9 5.8 5.9 8.9 3.9 4 5.6 6.9 8 13.7 1.7 4.7 4 10.1 5.1 12l2 3.4-2.1 1.4c-2.6 1.8-1.7 3.3 2.1 3.3 2.6 0 5.2 1.2 9.4 4.2 1.4 1 11.6 9.6 14.2 12 1.3 1.1 2.8 3.9 3.4 6.1 2.4 9 5.1 15.1 7.5 17.2a30.6 30.6 0 0 0 12.5 6.5c1 0 1.9.4 1.9.8s1.2 1.3 2.7 2a72 72 0 0 1 7.3 3.7c4.7 2.5 7.6 3.2 6.5 1.5-.7-1.1 2.7-1.2 6.5-.1 1.4.4 3.5.3 4.7-.2 1.5-.7 2.7-.6 3.5.1a29 29 0 0 0 8.1 1.7c3.7.4 6.7 1.2 6.7 1.7 0 .6 1.2.2 2.7-.7 3.3-2.2 7.8-3.4 16.3-4.5 5.8-.8 7.1-.6 11.9 1.6a29 29 0 0 0 7.2 2.4c1 0 2.1.5 2.4 1.1.4.5 1.2.8 1.8.6.7-.2 2.8.1 4.7.8a67.7 67.7 0 0 0 23 3.9c8.9.4 11.1.1 14.6-1.5 3-1.4 4.3-2.7 4.7-4.7a7 7 0 0 1 3.1-4.2c2.4-1.2 2.4-1.4.8-2.6-1-.8-1.2-1.3-.4-1.4 2.1 0 1.3-2.7-1-3.4-1.9-.5-2.1-.8-.8-1.6s1.1-1.1-.7-1.6c-1.3-.4-2.3-1.2-2.3-1.8 0-.7-1.1-1.9-2.5-2.6-1.4-.8-2.3-2-2.1-2.7.3-.7-.2-1.9-1-2.8-.9-.8-1.1-1.5-.5-1.5.5 0 1.5.8 2 1.8 1 1.6 1.2 1.6 2.5-.1 1.4-1.8 3.2-2.4 2.1-.7-.3.6.3 1 1.5 1 1.9 0 2-.1.6-1.6-2.2-2.1-2-2.4 1-2.4 2.1 0 2.5.4 2.1 1.9-.3 1.3 0 1.8.8 1.5.6-.3 1.8.2 2.5 1.1 1.7 2 4.4 2 3.6-.1-.4-1.1-.2-1.5.8-1.1.8.3 1.6.1 1.9-.6.2-.8 1.1-.6 3 .6a13 13 0 0 0 7 1.5c4.6-.2 8.9 1.9 6.6 3.2-.8.6-.8.9 0 1.4.6.4 1.1.2 1.1-.3 0-1.6 5.3-1.3 7.6.4 1.3 1 1.5 1.4.5 1.5-.8 0-1.1.3-.8.6.4.4 1.4.1 2.3-.7 1.9-1.5 7.6-2 6.7-.5-.3.5.8.7 2.6.4 1.7-.2 3.1-.1 3.1.2 0 1.7 12.9 13.9 13.3 12.8.3-.7.6-.4.6.7.2 2.8 6.1 9 8.9 9.2 1.2.1 2-.2 1.7-.8-.4-.5-1.2-.9-2-.9-.9 0-1.3-1-1.2-2.8.2-2.1-.3-2.7-1.8-2.8l-3.4-.3c-.7-.1-1.1-.7-.8-1.6.4-.8.2-1.7-.4-2-.5-.4-.7-1-.4-1.5.9-1.5-.7-4-2.7-4-1 0-1.7-.4-1.4-.9.3-.5-1.2-2.6-3.3-4.7-3.2-3.1-3.8-4.1-3-5.6.6-1 .7-2.3.4-2.8-1-1.7-5.5-1.1-7.8 1-1.2 1.2-2.8 1.8-3.7 1.4a27 27 0 0 0-5-1c-6-.9-8-1.4-8-2.2 0-.4 1.2-.9 2.7-1 5.1-.4 3.6-1.2-2.4-1.2-6.5 0-13.5-2.3-13.2-4.3.1-.7-.3-2.5-1-4.1a13 13 0 0 1-1-5c.2-3.6-.1-4.7-1.1-4.1-.6.3-1 1.8-1 3.3 0 4.4-1.3 5.5-5.2 4.8a49.2 49.2 0 0 1-15-6.7c-3.5-2.5-5.7-2.4-2.7.1l2.4 1.9-2.2.1a18 18 0 0 0-3 .2l-6.6.9c-5 .6-6.2 1.2-9.8 4.9-4.3 4.4-6.6 4.8-6.1 1 .4-3.9 4.9-8.7 9.4-10.3l4.3-1.5-3.3-.1c-3.5-.1-4.4.6-11.9 9.6-4.3 5.2-8 6.5-11.2 4l-3.1-2.2c-.9-.5-3.6-2.5-6-4.2-2.3-1.8-4.6-3-5.1-2.7-1.3.8-7.9-2.7-7.9-4.2 0-2.2-3.1-3.2-11.6-4-4.3-.4-9-1.2-10.3-1.9l-2.4-1.2 2.4-2.2c2.2-2 2.2-2.4 1-6.9-.7-2.5-1.9-5.5-2.8-6.4-1.3-1.5-1.4-2.3-.5-4.4 1.7-3.5 1.5-5.4-.8-9.9-1.3-2.6-2-5.9-2-9.7 0-5.6-.1-5.9-4-8.6-2.6-1.8-3.7-3.3-3.4-4.3.5-1.9-1.5-6.9-2.8-6.9-.5 0-1.3 1.1-1.8 2.5-1.4 3.6-5.1 3.3-7.4-.6a14.6 14.6 0 0 0-6.1-4.9 19 19 0 0 1-6.2-4.4c-1.2-1.4-2.6-2.6-3.3-2.6-.7 0-3-1.8-5.2-4-2.7-2.7-4.9-4-6.8-4-3 0-6-2.7-6-5.4 0-1.4-.5-1.7-2.2-1.3-2.5.7-8.8-2.7-8.8-4.8 0-1.5-2.3-2.4-6.8-2.9-2-.3-2.6-.8-2.4-2.2.2-1.1.8-2.1 1.3-2.2.5-.2.9-1.1.9-2 0-1.1.3-1.3 1.1-.5 1.6 1.6 6-.7 5.3-3-.4-1.2 0-1.7 1.4-1.7a3 3 0 0 0 2.6-1.5c.3-.8 1.5-1.5 2.6-1.5 2.3 0 2.6-1 .7-2.9-1-1-.7-1.1 1.6-.7 2.2.4 2.7.1 2.7-1.5 0-1.1.7-1.9 1.6-1.9 1.1 0 1.4-.6.8-2.3-.6-2.1-.6-2.1 1.3-.4 1.1.9 2.2 1.4 2.6 1.1.3-.3 1.6.1 2.9 1 3.4 2.4 6.3 1.9 10.2-1.8 4-3.7 4.5-6.6 1.8-9.9-2.2-2.9-4-2.8-8.1.1l-3.3 2.5.7-2.4c.4-1.3 1.2-2.7 1.7-3 .4-.3 1-2 1.3-3.8.3-2.8.1-3.2-2.5-3.8-2.9-.5-2.9-.6-1.5-3.4.8-1.5 1.5-3.5 1.5-4.4 0-1.3.2-1.3 1.4-.3.7.7 1.1 1.9.9 2.6-1 2.5 2.5 6.1 6.4 6.4 2.5.2 3.8.8 3.9 1.8.2 3.6.5 4 3.2 4 4.6 0 6.8-1 8.5-4 .9-1.5 1.7-3.2 1.7-3.8 0-1.4-4.3-2.3-5.4-1.2-.6.6-2.1 1-3.4 1h-2.4l2-3.3c1.1-1.7 1.8-3.7 1.6-4.2-.3-.8 3.1-1.2 5.4-.6.2.1-.4.8-1.2 1.7-.9.8-1.4 2-1.1 2.5 1.1 1.7 4.3.9 4.8-1.1.4-1.7 1.3-2 5.2-1.8 2.8.1 4.9.7 5.4 1.6 1 1.8 6 .8 9.5-1.9 3.1-2.4 4.6-1.8 4.7 1.9.1 1.9.4 1.5 1-1.6 1.1-5.8 1.5-6.2 5.7-6.2 4-.1 8.1-2.8 10.1-6.8 1.5-2.8.8-5.2-1.4-5.2s-1.9-.7 1.9-4.6c1.9-1.9 3.7-4.7 4.1-6.2.3-1.4 2-4.1 3.6-5.9 3.2-3.8 3.7-7.7 1.3-10.4-2-2.2-2.1-8.2-.3-16.1 1.2-5.2 1.5-5.7 5.2-6.9 2.1-.7 6.9-3 10.5-5.2 4.8-2.7 7.4-3.7 9.3-3.3 1.5.3 3.5-.2 4.9-1.1 2-1.4 2.2-2.2 1.7-7.3-.4-4.6-.1-6.4 1.4-8.6 1-1.6 2.4-4.5 3.1-6.4 1.9-5.9 5.8-9.8 17.6-17.6 12.9-8.6 18.2-13 18.2-15.1 0-.8 1.1-2.9 2.5-4.7 1.4-1.8 2.5-4.3 2.5-5.6a120 120 0 0 1 3.1-21.3c.5-1 .7-2.2.4-2.7-.4-.6-.2-1 .4-1 1.2 0 4.7-7.5 5.4-11.5a33 33 0 0 0-3.3-16.6 12.2 12.2 0 0 1-1.4-6.6c.7-2.8-2.8-7.3-5.7-7.3-2.2 0-8.7 2.8-12.1 5.2-3.5 2.4-5.9 1.3-8.3-3.9-1-2.1-2.3-4.4-2.9-5.2-2.3-2.9-3.4-7.9-2.2-10.3 1.4-2.9.9-6.8-1-6.8-.8 0-1.4-.5-1.4-1.2 0-3.2-3.4 2.5-3.4 5.8-.1 4.9-2.4 6.4-6 4-2.7-1.7-3.7-3.5-5-8.9-.5-2-.3-2.7.9-2.7.8 0 1.5-.5 1.5-1.1 0-.6.9-2.2 2-3.6 1.1-1.5 2-4.1 2-6.1 0-2.8.8-4.2 4.3-7.4 2.3-2.3 4.1-4.7 3.9-5.4-.2-.8.2-1.4.8-1.4.7 0 .8-.6.2-1.6-1.3-2.3 2.7-10.4 5.1-10.4.9 0 1.7.4 1.7 1 0 .5.5 1 1 1 .6 0 1-.7 1-1.5 0-.9 1.1-2 2.5-2.7 1.9-.9 2.2-1.4 1.4-2.9-.7-1.5-.6-1.7.6-1.3.8.4 1.5 1 1.5 1.4 0 .9 2.5.3 8.8-2 2.6-1 3.3-1.7 2.8-3.3-.5-2 1.6-5.1 2.8-4 .3.4.6.2.6-.4 0-1.1-2.2-2.3-4.1-2.3-.5 0-1.8.9-2.9 2-1.1 1.1-2 1.5-2 1 0-.6-.8-.5-1.9.2-1.1.7-1.8 1.5-1.5 1.9.2.4-.5.5-1.6.2-2.9-.8-3.2-1.7-1.8-6.2 1.2-4 3.5-5.5 6.4-4.4.8.3 1.4 1.1 1.4 1.8 0 1.7 12.8 2 14.6.4 1.7-1.4 8.1-.1 8.1 1.7 0 1.1-.3 1.1-1.4.2-1-.8-1.7-.8-2.1-.1-.4.5-2.4 1.3-4.4 1.6-5.9.9-8.7 3.5-8.2 7.6.6 4.4.9 4.7 3.9 3.1 2.2-1.2 2.7-1.1 4.5.5 1.1 1 1.7 2.1 1.4 2.6-.2.4 1.6.1 4.1-.8 2.9-.9 5-2.4 5.5-3.7 1.1-2.8 4.8-6.6 6.4-6.6.8 0 2-.7 2.7-1.6 1.2-1.4.9-1.6-2.6-1.4-4.4.3-8.5-.7-8.5-2.1 0-1.4 6.9-2.8 9.8-1.9 6.3 1.9 8.3 3.4 7.9 5.8-.6 2.9 2.1 4.2 3.8 1.9 1.6-2.2 2.2-2.1 2.8.3.3 1.1 1.3 2.3 2.4 2.6 1 .3 3.4 1.3 5.3 2.3 3.1 1.5 3.5 2.1 3.4 5.7 0 2.2-.4 4.6-.8 5.2-.9 1.5.2 5.2 1.5 5.2.5 0 1.2-1.4 1.6-3.1.4-2.4 1-2.9 2.4-2.6 1.1.3 2.1.1 2.4-.4.8-1.1 4.5 1.2 4.5 2.8 0 .7.6 1.6 1.3 2 .8.4 2.7 2.8 4.2 5.3 1.6 2.5 3.6 5.2 4.6 6 2.1 1.9 3.9 7.2 3.3 10.2-.2 1.3-.2 1.7.2 1 .9-2 3-1.4 4.4 1.3.7 1.4 1.7 2.5 2.2 2.5.4 0 .8.6.8 1.4 0 2.7 2.5 3.8 5.6 2.4 4.2-1.9 5.1-3.5 5.7-10.2.5-6.6 3.3-13.6 5.4-13.6.7 0 1.3-.5 1.3-1 0-.6-.7-1-1.5-1-1.2 0-1.5-.7-1-3.3.5-2.6.2-3.7-1.9-5.6l-2.6-2.4v5.9c0 6.2-2.7 12.4-5.3 12.4-2.2 0-4.7-3.4-5.3-7.1-.5-3.1-.1-3.8 3.8-7.4 2.4-2.2 5.6-4.6 7-5.4 2.7-1.4 5.2-5.6 4.3-7.2-.4-.5.1-.9.9-.9s3.4-2.2 5.8-5c2.4-2.7 5.1-5 6.1-5 1.4 0 1.6-.4.8-1.8-.6-1-.8-2.8-.5-3.9.3-1.1-.1-2.5-1-3.3-1.5-1.1-1.6-.8-1.5 3.2.1 2.5-.1 5-.5 5.6-.9 1.5-7.6 1.6-7.6.2 0-2.6-1.9-.6-2.5 2.7-.4 2.3-2 5-4.1 7.1a15 15 0 0 0-3.4 4.1c0 .5-1.1 1.6-2.5 2.5-1.4.9-2.5 2.3-2.5 3.1 0 1.6-3.2 3.2-8.1 4.2-3.5.7-10.1-6-9.3-9.4.5-1.7.2-2.3-.9-2.3-.9 0-1.9.4-2.2 1-1 1.6-2.3 1.2-5-1.7-3-3.4-3.2-5.6-.4-7.4 1.8-1.3 1.9-1.7.9-4.1-1.3-2.8-4-2.8-4 .1-.1 1.4-.2 1.4-1.1-.2a34 34 0 0 0-8.5-5.3c-7.9-3.7-10-6.4-9.1-11.2.2-1.2.1-2.5-.3-2.7-1.1-.7-2.1 2.2-1.4 3.9.8 2.2-1.4 2.9-4.8 1.5-2.7-1.1-3.2-1-4.4.5-.9 1.4-2 1.7-3.9 1.2-1.6-.4-3.3-.2-4.1.5-1 .8-1.8.9-2.5.2-.8-.8-.7-1.3 0-1.7.6-.4 1.1-2 1.1-3.5 0-3.7 3.5-8.1 6.4-8.1 1.3 0 3.6-1.2 5.1-2.6 1.5-1.4 3.3-2.3 4-2 .7.2 1.5-.4 1.8-1.5.5-1.9 2.7-2.7 2.7-.9 0 .5 1.3 1 2.9 1 1.7 0 3.3.5 3.7 1.2.5.7.3.8-.6.3-1-.6-1.2-.3-.8 1.3.4 1.2.2 2.5-.4 2.8-.5.3-1.2-.3-1.5-1.5-.9-3.6-4.9-2.3-7.7 2.6-1 1.8 3.4 3.9 4.5 2.2.7-1.1 1-.9 1.5.9s.9 2 2 1.1c.9-.8 1.4-.8 1.4-.1a2 2 0 0 1-1 1.7c-.5.3-1.4 1.4-1.9 2.3-.7 1.4-.5 1.8 1 1.9 1 .1 1.9-.5 1.9-1.3s1-1.4 2.5-1.4c1.6 0 2.5-.6 2.5-1.5 0-.8-.8-1.5-1.7-1.5-1.2 0-1.4-.3-.7-1s2.1-.5 4.4.7l3.4 1.7-2.7.9c-1.5.5-2.7 1.5-2.7 2.3 0 .7-1.1 2.1-2.5 3-1.4.9-2.5 2-2.5 2.4 0 1.4 3.1 2 7.1 1.4 3.2-.5 3.7-.9 2.8-2-.9-1.1-.8-1.4.2-1.4s1-.3.1-1.2c-.8-.8-1.6-.5-3.1 1.3-1 1.3-2.2 2.1-2.5 1.8-.4-.4.6-2 2-3.7 2.1-2.4 3.1-2.9 4.5-2.1 2.1 1.1 4.5.3 5.3-1.7.3-.8 1.2-1.4 2.1-1.4.8 0 1.5-.7 1.5-1.6 0-1.1-.8-1.5-3-1.2-1.8.2-3.4-.3-3.9-1.1-.6-.9-1.8-1.1-3.5-.7-1.5.4-2.6.2-2.6-.4 0-.5.8-1 1.8-1s2.7-.7 3.9-1.5c1.4-1 2.4-1.2 2.8-.5.3.5-.1 1-.9 1-.9 0-1.6.4-1.6 1 0 .5.6 1 1.4 1 2.1 0 6.7-2.6 5.9-3.3-.3-.4.1-.7 1-.7s1.7.4 1.7 1 .9.6 2.6 0c3.7-1.4 4.6-1.2 3.3.8-.7 1-2.6 2.4-4.3 3.1-2.5.9-2.8 1.3-1.6 2.1 1 .6 1.6.6 1.8-.1.6-1.6 7.4-4.1 8.5-3 .5.5.4 1.1-.2 1.5-1.8 1.1-1.2 2.5.8 1.9 1.1-.3 2.7.4 3.9 1.7l2.1 2.2 2.2-2.1a8.8 8.8 0 0 1 6.2-2.1h3.9l-.7 3.7c-.9 5.2-1.2 5.4-5.1 4.7-3.8-.7-4.1-.3-1.8 3.1 1.9 2.9 3.4 3.2 3.4.9 0-1.4.2-1.4 1.6-.3 1.4 1.1 2.1.8 5-2.3 3.5-3.9 6-4.1 9.8-.9 1.8 1.5 1.9 1.5 1.3-.2-.5-1.2-.1-1.7 1.3-1.7 1.6 0 2-.7 2-3.1 0-1.9.4-2.8 1.1-2.3.6.3.9 1.9.6 3.4-.5 2.5-.3 2.7 2.3 2.6 2.1-.1 2.6-.4 1.8-1.4-.7-.8-.7-1.2 0-1.2.8 0 2.2 2.2 2.2 3.6 0 .2-1 .4-2.3.4-1.2 0-2.8 1-3.6 2.2-1.4 2.2-1.3 2.2 1.2.5 2.4-1.5 2.7-1.5 4.7.1 3 2.4 10 1.8 10-.9 0-1.7-.5-1.8-4-1.3-3.2.5-4 .3-4-.9 0-2 1.6-2.5 6.5-2.1 4.7.4 8.7-1.8 6.7-3.8-1-1-1.9-.8-4.1.5-3.5 2-4.1 2.1-4.1.4 0-.7.9-1.8 2-2.5 2.7-1.7 2.5-3.2-.5-3.2-1.4 0-2.5-.5-2.5-1 0-1.8-3.9 1.3-4.3 3.5-.2 1.1-.7-.4-1.2-3.3-.4-2.8-1.2-5.2-1.7-5.2-.6 0-.8.9-.5 2.1.3 1.3-.2 2.8-1.3 3.9-2.2 2.2-3.9.8-2-1.5.9-1.1.7-2.1-1-4.5-2.2-3.1-2-5 .6-5 .8 0 1.4-.7 1.4-1.6 0-1.1.6-1.5 2-1.1 1.1.3 2.3 0 2.7-.5.6-1.1-3.3-.8-9.7.7-1.4.3-1.9.3-1.2-.1.6-.3 1.2-1.2 1.2-2.1 0-.9.6-1.2 1.9-.8 2.3.7 4.5-1.8 3.7-4.3-.5-1.4-.1-2.1 1.5-2.5 1.3-.4 1.9-1.2 1.7-2.4-.4-1.9-1-2-7-1-2.1.3-3.8.2-3.8-.4 0-.5.6-.9 1.4-.9.9 0 1.5-1.4 1.8-3.8.2-3.1 0-3.8-1.4-3.8-1 0-1.8.4-1.8.8s-.7.8-1.6.8c-1.3 0-1.4-.3-.5-1.3.6-.8.8-1.7.4-2-1.2-1.3-3.1-.7-5.4 1.8-4.1 4.3-5.1 2.8-2.3-3.2 2.4-5 .4-6.4-2.7-1.8-3 4.3-3.9 4.4-4 .2l-.2-3.2-.6 3.3-.6 3.4-2.9-2.3-2.9-2.3 1.8 2.7c1.7 2.6 1.7 2.7-.1 2a6.7 6.7 0 0 1-3-2.2c-1.6-2.1-4.8-.6-4.1 1.9.3 1.1.2 2-.3 2-1.1 0-2.6-2.1-3.8-5.5l-1-3-.2 3c-.1 1.6-.2 3.3-.1 3.7.2 1.7-1.9.7-2.9-1.3-.7-1.1-1.4-1.8-1.7-1.5-.3.3.2 1.7 1.1 3.1 1.8 2.7 1.5 3-1.6 1.4-3.1-1.7-3.2-.4-.1 2.5l2.8 2.6h-3c-2.7 0-2.7.1-1 1.4 2.7 1.9 1.3 4.8-2 4-2.9-.7-3.2.2-.9 2.7 1.4 1.6 1.3 1.9-1.3 4.3-1.8 1.7-3.5 2.5-4.8 2.1-1.1-.2-2.7-.5-3.5-.5-1 0-1.1-.3-.4-.8 1.3-.9 6.4-8.4 6.4-9.4 0-2-3.1-.5-4.5 2.2-.9 1.6-2 3-2.6 3-.6 0-.6-.6.1-1.9 1.5-2.9 1.2-3.3-1.1-2-2 1-2.1.9-1.7-2 .7-4.8-1.5-3.8-4 1.9-1.2 2.8-2.8 5-3.7 5-2 0-1.9-2.7.1-3.8 1.1-.6 1.4-1.4.8-2.3-.5-.8-.7-2.4-.5-3.7.4-3.3-.7-2.7-2.3 1.3-1.8 4.2-5.3 4.8-7.5 1.3-1.2-2-1.2-2.3.4-3.3 3.5-2 7-5.3 6.3-6-.3-.4-2.7.5-5.2 2s-4.6 2.4-4.6 2.1c0-.4.9-2.5 2.1-4.7 2.8-5.7 1.9-6.9-1.5-2-3.4 4.8-4.3 5.1-5.2 1.3-.4-1.5-1.1-3.3-1.7-4-.8-1-.6-2.2.7-4.3 1.8-3 1.2-4.1-.8-1.4a5 5 0 0 1-3.3 1.8c-1.5.1-2.4 1.2-3.2 3.9-1.3 4.2-4.1 5.2-4.1 1.4 0-1.3-1.1-4-2.5-6-1.4-2.1-2.3-4.2-2-4.7.4-.5.1-.9-.5-.9-.7 0-1.4.9-1.7 2-.3 1.2-1 1.9-1.6 1.7-.6-.2-2.5 1.5-4.2 3.7-3.3 4.4-5 5.1-5 2.2 0-1.4-1-2.2-3.2-2.8-3.2-.8-4.4-3-2.3-4.3.5-.3.7-1.1.5-1.8-.8-2.2 1.1-4 3.4-3.2 1.5.4 1.9 1.1 1.3 1.8-.5.7-.6 2.3-.2 3.7l.6 2.5 1.2-2.2c.8-1.4 2-2.2 3.4-2 1.6.1 2.3-.5 2.9-2.6.6-2.3.5-2.8-.7-2.3-2.2.8-1.7-.4 1.2-2.6 3.1-2.5 2.5-3.5-.9-1.3-1.9 1.2-2.7 1.3-3.3.4-.9-1.5 2.5-4.2 4.3-3.5.7.3 1.3.1 1.3-.5 0-.5-1.2-.8-2.6-.7-1.5.2-2.9-.3-3.1-1-.4-1.1 2.6-1.7 7.5-1.5.9.1.8-.5-.4-1.8-.9-1.1-1.5-2.1-1.3-2.4.5-.4 5.8.7 9.4 2 1.4.5 1.1-.2-1.2-2.3-3.4-3.3-3.3-4.5.3-3.6 1.8.5 2.4.2 2.4-.9 0-.9 1.1-1.7 2.8-2l2.7-.4-2.7-.2c-3.8-.2-3.5-1.3 1-3.3l3.7-1.8-3.2.5c-4.1.6-4.6-.4-2.3-4.2l1.8-3.1-3.9.5c-4.1.6-5.3-.8-2.1-2.6 1.4-.8 1-1-2-1.1-5.2 0-4.9-2.1.4-4.9 4-2 3-2.3-2.7-.6-6.1 1.9-7.1 1.9-5.5-.1 1.1-1.3 1-1.6-.8-2.1-1.5-.3-2.4-1.8-3.1-4.7L247-.5l.5 4.7c.3 3.5.1 4.7-1.1 5.2-2.3.9-2.3.9-2.6-3.4-.4-5-1.7-5.4-4.3-1.3-2.5 4.1-3.3 4.1-5 0l-1.3-3.2-1.1 2.7c-.6 1.6-1.7 2.8-2.5 2.8-1.6 0-2.9-3.7-1.5-4.6.5-.3.9-1.1.9-1.7 0-.7-1.1.1-2.4 1.8l-2.4 3-1.1-2.8c-.6-1.5-1.5-2.7-2.1-2.7-.5 0-1 .1-1 .3zM235.3 9c.3 1.2 0 2-.8 2-1.4 0-2.7-2.5-1.8-3.4 1.1-1.1 2.1-.6 2.6 1.4zm7.7-1.3c0 1.4-1.9 3.8-2.5 3.2-.8-.8.5-3.9 1.6-3.9.5 0 .9.3.9.7zM120.2 20.2c-1 2.2-1.1 2.1-1.1-1.2-.1-2.6.2-3.1 1.1-2.2.8.8.8 1.7 0 3.4zM259 18.4c0 1.6-1.8 3.1-2.7 2.2-.8-.8.5-3.6 1.7-3.6.5 0 1 .6 1 1.4zm-6 1.1c0 .8-.4 1.5-1 1.5-.5 0-1-.7-1-1.5s.5-1.5 1-1.5c.6 0 1 .7 1 1.5zm10.8 3.7c-.6 1.7-3.6 3.4-4.5 2.4-.4-.4.1-1.4 1.1-2.2 2.4-1.7 3.9-1.8 3.4-.2zm-78.8.7c0 1.2-2 2.5-2.7 1.8-.7-.7.6-2.7 1.8-2.7.5 0 .9.4.9.9zm21 2.1c0 .5-.8 1-1.7 1-1 0-3.1.9-4.8 2-1.6 1.1-4.3 2-6 2l-3-.1 3.3-2.9c2.6-2.4 4.1-3 7.7-3 2.5 0 4.5.4 4.5 1zm-93.2 1.9c.3.8-.1 1.2-.9.9-.7-.2-1.5-1-1.7-1.7-.3-.8.1-1.2.9-.9.7.2 1.5 1 1.7 1.7zM135 27c0 .5-.4 1-1 1a1 1 0 0 1-1-1c0-.6.5-1 1-1 .6 0 1 .4 1 1zm77 0c0 .5-1.2 1-2.7 1-2.2 0-2.5-.2-1.3-1 2-1.3 4-1.3 4 0zm4 1.4c0 1.1-1.9 1.5-2.5.6-.3-.5.1-1 .9-1 .9 0 1.6.2 1.6.4zm-8.6 1.5c.6 1-3.3 2.3-4.6 1.5a2 2 0 0 1-.8-1.5c0-1.2 4.7-1.2 5.4 0zM158 31c0 .5-.7 1-1.5 1s-1.5-.5-1.5-1c0-.6.7-1 1.5-1s1.5.4 1.5 1zm-49 1c0 .5-.4 1-1 1a1 1 0 0 1-1-1c0-.6.5-1 1-1 .6 0 1 .4 1 1zm92.2.5c0 .5-.5 1.1-1.1 1.3-.6.2-1.1-.4-1.1-1.3s.5-1.5 1.1-1.3c.6.2 1.1.8 1.1 1.3zm7.7.4c1.4.9.9 4.1-.7 4.1-1.5 0-3.4-2.8-2.7-4 .8-1.2 1.6-1.3 3.4-.1zM113 34c0 .5-.2 1-.4 1-.3 0-.8-.5-1.1-1-.3-.6-.1-1 .4-1 .6 0 1.1.4 1.1 1zm40 0c0 .5-.9 1-1.9 1-1.1 0-2.3-.5-2.6-1-.4-.6.5-1 1.9-1s2.6.4 2.6 1zm40-.6c0 .3-.4.8-1 1.1-.5.3-1 .1-1-.4 0-.6.5-1.1 1-1.1.6 0 1 .2 1 .4zm22 .6c0 .5-.5 1-1.1 1-.5 0-.7-.5-.4-1 .3-.6.8-1 1.1-1 .2 0 .4.4.4 1zm-56.2 2.2c-.5 1.6-4.8 2.4-4.8 1 0-1.1 1.7-2 3.8-2.1.8-.1 1.2.5 1 1.1zm61.9.4c-.3.3-1.2.4-1.9.1-.8-.3-.5-.6.6-.6 1.1-.1 1.7.2 1.3.5zm10.8.4c.9 1.4-1.9 4-4.2 4-1.7-.1-1.7-.2.1-1.5 1.1-.8 1.6-1.5 1.2-1.5-.4 0-.4-.5-.1-1 .8-1.3 2.2-1.3 3 0zm-31.5.4c0 .3-.4.8-1 1.1-.5.3-1 .1-1-.4 0-.6.5-1.1 1-1.1.6 0 1 .2 1 .4zm50.5 1.6c.3.5.1 1-.4 1-.6 0-1.1-.5-1.1-1 0-.6.2-1 .4-1 .3 0 .8.4 1.1 1zM139 40c0 .5-.7 1-1.5 1s-1.5-.5-1.5-1c0-.6.7-1 1.5-1s1.5.4 1.5 1zm84 0c0 .5-.4 1-1 1a1 1 0 0 1-1-1c0-.6.5-1 1-1 .6 0 1 .4 1 1zm-64.8 2.2c-.5.5-2.2.6-3.8.2-2.5-.6-2.6-.8-.9-1.4 2.6-.9 5.9 0 4.7 1.2zm59.3-1.6c1.3.5 1.4.8.3 1.5-2 1.3-3.8 1.1-3.8-.6 0-1.6.9-1.9 3.5-.9zm-83.9 2.5c.5-.1.9.3.9.9 0 .5-.3 1-.7 1H132c-.5 0-1-1-1-2.3 0-1.6.3-1.8.9-.9.4.8 1.2 1.3 1.7 1.3zm71.7-.7c.6 1.6-.2 2.8-1.4 2-1.2-.7-1.1-3.4 0-3.4.5 0 1.1.6 1.4 1.4zm35.2.6c.3.5-.1 1-.9 1-.9 0-1.6.5-1.6 1.2 0 .6-.2.9-.5.6-.7-.7.5-3.8 1.5-3.8.5 0 1.2.4 1.5 1zm-88.2 1.6c.6.6-1.6 3.4-2.6 3.4-.3 0-.3-.9 0-2 .5-2 1.5-2.5 2.6-1.4zm-38.7 5.6c-.7.5-.5.8.7.8.9 0 1.7.4 1.7 1 0 .5-.6 1-1.4 1-1.4 0-2.6-2.1-2.6-4.6 0-1.2.2-1.2 1.4-.2 1 .9 1.1 1.5.2 2zM138 48c0 .5-.2 1-.4 1-.3 0-.8-.5-1.1-1-.3-.6-.1-1 .4-1 .6 0 1.1.4 1.1 1zm92 .5c0 .8-.7 1.5-1.5 1.5-1.6 0-2-1.2-.8-2.3 1.1-1.2 2.3-.8 2.3.8zM187.5 50c-.3.5-1.7 1-3.1 1-1.4 0-2.2-.4-1.9-1 .3-.6 1.7-1 3.1-1 1.4 0 2.2.4 1.9 1zm36.3 1.6c.6.2 1.2.8 1.2 1.4 0 1.7-3.6 1.1-6.1-1l-2.4-2 3 .6c1.7.3 3.6.7 4.3 1zm-32.6.6c-.9.9-1.5.9-2.4 0-.9-.9-.7-1.2 1.2-1.2s2.1.3 1.2 1.2zM126 53c0 .5-.4 1-1 1a1 1 0 0 1-1-1c0-.6.5-1 1-1 .6 0 1 .4 1 1zm83 1c0 .5-.5 1-1.1 1-.5 0-.7-.5-.4-1 .3-.6.8-1 1.1-1 .2 0 .4.4.4 1zm-24.5 1.9c-.8 1.3-5.5 1.5-5.5.2 0-.5 1.2-1.1 2.8-1.3 3.2-.4 3.6-.3 2.7 1.1zm45.2 2.2c-.5.4-.6 1.2-.3 1.8.9 1.4-.9 1.4-3.6 0-2-1.1-2-1.2.8-3.4 2.6-2.1 3-2.1 3.5-.7.4 1 .2 2-.4 2.3zm-103.4-1.6c.1.5-.6 1.1-1.5 1.3-1.1.2-1.8-.3-1.8-1.3 0-1.7 3-1.8 3.3 0zm71.7-.4c0 .5-.6 1-1.2 1-4.6.5-6.2.3-6.5-.8-.3-.8.9-1.2 3.6-1.1 2.3 0 4.1.4 4.1.9zm10.1-.1c.5 0 .9.4.9 1 0 .5-1.1 1-2.5 1-1.6 0-2.5-.6-2.5-1.6 0-1.1.5-1.4 1.6-1 .9.3 2 .6 2.5.6zm-103.7 1.5c.8.8 2.3 1.5 3.3 1.6 1.6 0 1.6.1-.2.8-1.1.5-2.1.4-2.3 0-.2-.5-1.2-.9-2.2-.9-2 0-3.3-1.3-2.3-2.4 1-1 2-.7 3.7.9zM222 57c0 .5-.4 1-.9 1-.6 0-1.3-.5-1.6-1-.3-.6.1-1 .9-1 .9 0 1.6.4 1.6 1zm-32.2 1.7c.2.8-.5 1.3-1.7 1.3-2.1 0-3.5-1.3-2.4-2.4 1-1 3.6-.3 4.1 1.1zM94 59c0 .5-.2 1-.4 1-.3 0-.8-.5-1.1-1-.3-.6-.1-1 .4-1 .6 0 1.1.4 1.1 1zm5.8.6c1.2.8 2 2 1.7 2.5-.9 1.4-2.5 1.1-2.5-.6 0-.7-.8-1.9-1.7-2.4-1-.6-1.3-1.1-.8-1.1a8 8 0 0 1 3.3 1.6zM227 62c0 .5-.2 1-.4 1-.3 0-.8-.5-1.1-1-.3-.6-.1-1 .4-1 .6 0 1.1.4 1.1 1zM94 63c0 .5-.4 1-1 1a1 1 0 0 1-1-1c0-.6.5-1 1-1 .6 0 1 .4 1 1zm162 1.1c0 .5-.4.9-1 .9-.5 0-1-.7-1-1.6 0-.8.5-1.2 1-.9.6.3 1 1 1 1.6zm-150.5.3c1.2 1.2 1.1 1.5-1.1 2-3.5.9-5.2-.3-2.9-2.1 2.3-1.6 2.3-1.6 4 .1zm23.3 1.1c0 2.5-2.3 4.5-5 4.5-1 0-1.3-1-1-3.5.4-3.1.8-3.5 3.2-3.5 2.3 0 2.8.4 2.8 2.5zm54.2.6c0 1.1-.4 1.8-1 1.4-.5-.3-.7-1.2-.3-2 .7-2.1 1.3-1.9 1.3.6zm54.5.5c0 1-.8 2-1.7 2.2-1.8.3-2.6-2.7-1.1-4.2 1.2-1.1 2.8 0 2.8 2zm-58 1.4c-.3.5-1.1 1-1.6 1-.6 0-.7-.5-.4-1a2 2 0 0 1 1.6-1c.6 0 .7.4.4 1zm39.2-.4c-.3.3-1.2.4-1.9.1-.8-.3-.5-.6.6-.6 1.1-.1 1.7.2 1.3.5zM199.5 69c.3.5.2 1-.4 1-.5 0-1.3-.5-1.6-1-.3-.6-.2-1 .4-1a2 2 0 0 1 1.6 1zm30.3.1c-.2.6-.8 1-1.3 1s-1.1-.4-1.3-1c-.2-.6.4-1.1 1.3-1.1s1.5.5 1.3 1.1zm-90.2 3.6c-1 1-1.9-.5-1-1.8.6-1.1.8-1.1 1.2 0 .2.7.1 1.5-.2 1.8zM225 71c0 .5-1.1 1-2.5 1s-2.5-.5-2.5-1c0-.6 1.1-1 2.5-1s2.5.4 2.5 1zm15-.6c0 .3-.4.8-1 1.1-.5.3-1 .1-1-.4 0-.6.5-1.1 1-1.1.6 0 1 .2 1 .4zm-38 2.7c1 .6 0 .9-3 .9-3.9.1-4.2.3-2.3 1.2 3 1.5 3.6 3.5 1.7 6.4-1.4 2-1.9 2.2-3.1 1.2-1.2-1-1.8-.9-2.8.5-1.2 1.6-1.4 1.6-3.3-1-1.8-2.4-2.6-2.7-8.1-2.7-3.7 0-6-.5-5.8-1.1.2-.5 1.5-.9 2.9-.7 1.4.1 3.8-.4 5.3-1.2 1.5-.8 3.4-1.2 4.3-.9 1 .4 1.3.2.8-.5-.7-1.2.5-1.6 3.3-1.3.7.2 1-.2.7-.8-1.3-2 5.7-2 9.4 0zm33.5-.1c-.3.5-1.1 1-1.6 1-.6 0-.7-.5-.4-1a2 2 0 0 1 1.6-1c.6 0 .7.4.4 1zM207 74.1c0 .6 1.6.9 3.8.8 2.5-.2 3.6.1 3.5.9-.4 1.6.7 1.5 2.8-.4 1.1-1 1.9-1.2 2.4-.5.3.6-.1 1.4-.9 1.7-2.2.8-2 2.4.3 2.4 2.1 0 3.6 2.6 2.1 3.5-.6.4-1 .1-1-.4 0-.6-1.8-1.1-4-1.1s-4 .4-4 1c0 .5-.7 1-1.5 1s-1.5-.4-1.5-1-.9-.6-2.6.1c-2.8 1-6.4.4-6.4-1.2 0-.5.7-.9 1.6-.9.8 0 1.2-.5.9-1-.3-.6.1-1 .9-1 1 0 1.6-.9 1.6-2.5 0-1.4.5-2.5 1-2.5.6 0 1 .5 1 1.1zm62.5-.1c-.3.5-1.1 1-1.6 1-.6 0-.7-.5-.4-1a2 2 0 0 1 1.6-1c.6 0 .7.4.4 1zM134 76c0 .5 1.3.7 3 .4 2.6-.6 3-.3 3.6 2.2a13 13 0 0 0 1.7 4.2c1.3 1.6.3 2.7-1.5 1.6a5 5 0 0 0-3-.6c-1 .2-1.8-.3-1.8-1.1s-1.3-2.5-2.9-3.8c-2.1-1.6-2.6-2.6-1.8-3.1 1.7-1.1 2.7-1 2.7.2zm116 .6c0 .8-.4 1.2-1 .9-.5-.3-1-1-1-1.6 0-.5.5-.9 1-.9.6 0 1 .7 1 1.6zM129 77c0 .5-.4 1-1 1a1 1 0 0 1-1-1c0-.6.5-1 1-1 .6 0 1 .4 1 1zm45 .4c0 1.1-1.9 1.5-2.5.6-.3-.5.1-1 .9-1 .9 0 1.6.2 1.6.4zm60 .6c0 .5-.2 1-.4 1-.3 0-.8-.5-1.1-1-.3-.6-.1-1 .4-1 .6 0 1.1.4 1.1 1zm-84.5 2.1c1.2 1.9-.5 2.3-2.2.6-1.6-1.6-1.6-1.7-.1-1.7.9 0 2 .5 2.3 1.1zm-25.6 3.7c1.4 2.8 1.9 5.5 1.7 11.2-.2 8.4-1.2 9.4-5.7 6.1a10.5 10.5 0 0 0-4.7-2.1c-1.8 0-4.2-1.8-4.2-3.2 0-.4.5-.8 1.2-.8 1.6 0 5.8-4 5.8-5.6 0-.7-.5-1.4-1.2-1.6-.7-.3-.1-1.8 1.8-4.1l3.1-3.7a20 20 0 0 1 2.2 3.8zM269.5 81c.3.5-.1 1-1 1s-1.3-.5-1-1c.3-.6.8-1 1-1 .2 0 .7.4 1 1zM156 82c0 1.3-1.1 1.3-3 0-1.2-.8-1.1-1 .8-1 1.2 0 2.2.4 2.2 1zm19.4 1.5c-.7 1.7-2 2-2.8.6-.7-1 .3-2.1 2-2.1.8 0 1.1.6.8 1.5zm144.6.6c0 .6-.4.7-1 .4-.5-.3-1-1.1-1-1.6 0-.6.5-.7 1-.4a2 2 0 0 1 1 1.6zm-95.4.6c-.4.9-.1 2 .6 2.5.7.4.9.8.3.8a6 6 0 0 1-2.4-.9c-1.5-1-.8-4.1 1-4.1.6 0 .8.7.5 1.7zM280 84c0 .5-.5 1-1.1 1-.5 0-.7-.5-.4-1 .3-.6.8-1 1.1-1 .2 0 .4.4.4 1zm53-.6c0 .3-.4.8-1 1.1-.5.3-1 .1-1-.4 0-.6.5-1.1 1-1.1.6 0 1 .2 1 .4zM149 85c0 .5-.2 1-.4 1-.3 0-.8-.5-1.1-1-.3-.6-.1-1 .4-1 .6 0 1.1.4 1.1 1zm-12.7 2c-.3 1.1-.1 2 .5 2 .5 0 .9-.7.8-1.6-.2-2.3 1.9-2.8 3.7-.9.9.8 2 1.5 2.6 1.5.6 0 1.1.4 1.1 1 0 1.5-1.7 1.2-3.5-.7-1.6-1.6-1.8-1.6-2.7 0-1.4 2.6-3.8 2.1-3.8-.8 0-1.4.4-2.5.9-2.5s.7.9.4 2zm29.5 1.5c-.3.3-2.8.8-5.5 1.2-7 .8-7.9-1.3-1.1-2.4 4.8-.9 8.1-.2 6.6 1.2zm75.2-1.6c0 .5-.6 1.4-1.4 2-1 .9-1.5.8-1.9-.3-.3-.8-.3-1.7 0-2 .9-.9 3.3-.7 3.3.3zm7.4 0c.3.5-.1 1.2-1 1.5-2 .8-2.9.1-1.9-1.3.8-1.3 2.2-1.4 2.9-.2zm18.6.6c.5-.3 1.1-.1 1.5.5.4.6-1 .8-3.7.6-5.6-.5-5.5-.5-3.9-1.5.9-.6 2.2-.6 3.3 0 1 .6 2.3.7 2.8.4zm20 0c-.7.8-1.6 1.2-2.1.9-1.3-.8-.1-2.4 1.8-2.4 1.3 0 1.3.3.3 1.5zm71.5-.5c.4.6-.7 1-2.5 1s-2.9-.4-2.5-1c.3-.6 1.5-1 2.5-1s2.2.4 2.5 1zM283 88.5c1 1.2.9 1.6-.5 2.1-1.6.6-3.4-.9-3.5-2.9 0-1.3 2.7-.8 4 .8zm-75.5 2.2c0 1.2.3 2.5.8 2.9.8.8 1.1-.9.7-4.1-.2-1.6 0-1.7 1.3-.6 1.2.9 2.1 1 3.6.2 1.4-.8 2.2-.8 2.7.1.4.7.3.8-.4.4-1.6-1-1.5.7.1 2.3 1 1 .8 1.4-.8 2.3-1.9 1.1-1.9 1.1 0 2 1.4.5 1 .6-1.2.2-2.1-.3-3.3-.1-3.3.5s.9 1.1 1.9 1.1c1.1 0 2.1.4 2.3.9.2.5 2.5.5 5.3.1 5.9-.9 7.7-.2 4.4 1.6-2.3 1.3-2.3 1.3 1.2 1.4 2.8 0 3.8.5 4.2 2 .3 1.1 1.2 2 2.1 2 .9 0 1.6.7 1.6 1.5s.7 1.5 1.5 1.5 1.5.4 1.5 1c0 .5-.6 1-1.3 1a17 17 0 0 0-5.5 4c-4.2 4.1-7.2 5.1-7.2 2.5 0-.8-.4-1.5-1-1.5-.5 0-1 .4-1 .9 0 1.8-3.5 1.7-5.2-.3-1-1-1.8-2.3-1.8-2.7 0-.5-1-1.7-2.2-2.8-1.8-1.8-2-2.4-1-4.6 1.1-2.4 1-2.5-1.8-2.5-2.3 0-3.1-.5-3.6-2.5-.3-1.4-.9-2.5-1.3-2.5s-1.3-1.1-1.9-2.4a5 5 0 0 0-3.3-2.8c-4.1-.6-3.2-2.6 1.8-4.1 5.8-1.8 6.8-1.6 6.8 1zm52.5-.5c0 .5-1 .6-2.2.3-3.6-1.1-4.1-2.2-.8-1.7 1.6.2 3 .9 3 1.4zm62.6-1c.3.4-.5 1.2-1.8 1.7-1.9.8-1.5 1 2.7 1.2 4.4.1 4.6.2 2 .9-4.6 1.2-7.5 1.1-7.5-.2 0-.6-.7-2-1.6-2.9-1.6-1.8-1.5-1.8 2-1.7 2 .1 3.9.5 4.2 1zM273 90c0 .5-.4 1-.9 1-.6 0-1.3-.5-1.6-1-.3-.6.1-1 .9-1 .9 0 1.6.4 1.6 1zm21.8 1.3c.2 1-.4 2-1.3 2.3-2.1.9-2.8 0-2-2.6.8-2.4 2.8-2.2 3.3.3zM166 90.8c0 .8-4.3 5.1-6.6 6.4-.7.5-1.1-.4-1.1-2.2 0-2.5.5-3 2.3-3 1.3 0 2.6-.5 2.9-1 .7-1.2 2.5-1.3 2.5-.2zm88.9.8c1.8.9 4.2 1.3 5.5 1 1.7-.4 2.6 0 3.4 1.7 1.7 3.6 2.1 5.3 1.4 6.3-1.3 1.7-5.3 3.5-6.4 2.8-.7-.4-.1-1.2 1.6-2.1 2.4-1.3 3.7-5.3 1.7-5.3-1.3 0-4.1 2.9-4.1 4.2 0 .5-.7.8-1.5.4-.8-.3-1.5-.1-1.5.4 0 .6.4 1 .9 1 2 0 2.3 4.3.6 8.1-1 2.1-2.2 3.9-2.7 3.9-.4 0-.8 1.3-.8 2.9v3l-5.2-1.9c-5.5-1.9-8.5-4.7-6.8-6.4.6-.6 1.5-.4 2.5.4 1.8 1.5 3 .7 2.2-1.4-.4-1-1.3-1.3-2.3-.9-.9.3-2 0-2.5-.8-1.3-2.1-1.1-3.3.4-2.1 1 .8 1.6.6 2.6-.9.9-1.6 1.9-1.9 3.9-1.5l2.7.6-2.4-1.4c-2.3-1.3-2.3-1.4-.5-2.4 1.2-.7 1.5-1.5.9-1.9-1.9-1.5-1.5-3.3 1-4.5 3.6-1.6 3.1-2.5-1.2-2-5.4.6-3.1-1.5 2.8-2.7.3 0 2 .6 3.8 1.5zm-33.2 0c-.3.3-1.2.4-1.9.1-.8-.3-.5-.6.6-.6 1.1-.1 1.7.2 1.3.5zm20.3-.2c0 .3-.4.8-1 1.1-.5.3-1 .1-1-.4 0-.6.5-1.1 1-1.1.6 0 1 .2 1 .4zm42 2.6c0 .5-.7 1-1.6 1-.8 0-1.2-.5-.9-1 .3-.6 1-1 1.6-1 .5 0 .9.4.9 1zm-10 2c2.2 1.1 4.7 2 5.7 2 1.7.1 1.7.1.1 1.1-1.2.7-2.4.6-3.9-.2-1.6-.8-2-.8-1.4.1.8 1.2-2.5 4.1-3.7 3.4-1.6-1-.8-4.4 1-4.5 1.3 0 1.2-.2-.5-.9-1.3-.5-2.3-1.4-2.3-2 0-1.4.5-1.3 5 1zm37.3 1.8c-1.9.3-2.4.8-2 2.3.3 1.2 0 1.9-.9 1.9-.8 0-1.3-.6-1.1-1.2.4-2-4.5-2.2-6-.2-1.7 2.4-2.8 1.1-1.2-1.4.7-1.1 3.5-2.6 6.3-3.4 4.5-1.2 5.2-1.2 6.3.2 1 1.2.7 1.6-1.4 1.8zM327 95c0 .5-.4 1-.9 1s-1.6.3-2.5.6c-.9.3-1.6.1-1.6-.4 0-.9 1.6-1.7 4.3-2.1.4 0 .7.3.7.9zm4.5 1.7a7.8 7.8 0 0 1-2.7 1.3c-1.4 0-.8-1.9.9-2.9 2.5-1.3 4-.1 1.8 1.6zm-38.5.8c0 .9-.9 1.5-2.5 1.5-2.4 0-3.2-1-1.8-2.3 1.2-1.3 4.3-.7 4.3.8zm54 1.6c0 .4-.7.6-1.5.3-.8-.4-1.5-1-1.5-1.5 0-.4.7-.6 1.5-.3.8.4 1.5 1 1.5 1.5zm7.2 1.1c-.7.7-1.2.8-1.2.2 0-1.4 1.2-2.6 1.9-1.9.2.3-.1 1.1-.7 1.7zm-34.5.4c-.3.3-1.2.4-1.9.1-.8-.3-.5-.6.6-.6 1.1-.1 1.7.2 1.3.5zM314 102c0 .5-.7 1-1.5 1s-1.5-.5-1.5-1c0-.6.7-1 1.5-1s1.5.4 1.5 1zm-74.3 2.4c-.5 1.5-2.9 1.8-4.7.6-1.2-.8-1.3-1.1-.1-1.9 1.7-1.1 5.3-.2 4.8 1.3zm-56.9.4c.2.7 0 1.2-.5 1-1.7-.4-5.3 1.4-5.3 2.8 0 1.9 1 1.7 4-.6 4.6-3.6 14.3-1.8 12.7 2.4-.4.9-.1 2.7.5 4.1.8 1.8.8 2.8-.1 3.9-1.5 1.8-.6 3.7 1.3 3 .9-.4 1.6.5 2.1 2.5.3 1.7 1.7 4.1 3.1 5.3 1.3 1.3 2.4 2.8 2.4 3.5 0 .6.4 1.4.9 1.7 1.4.9 4.1-.4 4.1-1.9 0-1 4.2-2.2 9.8-2.7.6-.1 1.2-.7 1.2-1.5 0-.7.7-1.3 1.6-1.3 1 0 1.4.6 1.1 1.5-.8 2 .7 2.7 3.7 1.5 1.4-.5 2.8-.5 3.1-.1.3.5-.1 1.1-.8 1.4-.7.2-1.2 2.1-1.1 4.3.1 4.5-1.5 6.1-6.7 6.7a25 25 0 0 0-7.7 2.6c-3.6 1.8-4.1 2.5-3.7 4.6l1 5c.7 3.2-.4 7.5-1.9 7.5-1.5.1-6.8 4.9-9.3 8.5a16 16 0 0 1-4.7 4.4c-2.3 1.3-2.8 1.2-4.4-.2-1-1-2.2-1.4-2.5-1-.4.3-.7.1-.7-.6s-.7-1.9-1.6-2.8c-.8-.9-1.3-2.2-1-3 .3-.8.1-1.1-.5-.8-.5.4-1.6.1-2.4-.5-1.9-1.6-2-6-.1-6 .9 0 1.2-.7.9-1.8-.2-1 .1-3 .6-4.5.9-2.3 1.6-2.7 3.4-2.3 1.9.5 1.9.5-.3-.6-3.4-1.6-3.3-1.5-2.5-2.8.5-.8 1-.8 2.1.1 1 .8 1.7.7 2.8-.4 1.4-1.3 1.3-1.6-.7-2.1-1.2-.3-3.2-.6-4.4-.6-3.8 0-3-3.8 1-4.8l3.2-.8-2.7-.7c-3.4-.9-4-4.7-.7-4.7 1.2 0 1.7-.4 1.3-1.1-.3-.6-1.4-.9-2.4-.6-2.2.6-3.3-1.6-1.7-3.2 1.5-1.5 6-1.5 5.1.1-.4.7-.3.8.5.4.6-.4.9-1.1.6-1.6-.3-.4.1-1.1.7-1.3.7-.3-.6-.6-2.9-.6-2.4-.1-4.3-.4-4.3-.9 0-1.5 1.6-2.9 3.8-3.6 1.2-.4 2-1.2 1.7-1.7-.6-.8-1.3-.6-6.3 2-1.3.6-2.7.9-3.2.6-1.7-1.1-1.1-3.5.9-3.5 2.4 0 3.6-1.6 2-2.6-.6-.3-1.5-.1-1.9.6-1.4 2.2-3.1 0-2.7-3.6.2-1.9.7-3.7 1-4.1 1.2-1.1.8-2.5-.5-1.7-.8.5-.9.2-.5-1 .4-1 .7-2.2.7-2.7 0-1.5 7.3-.6 7.8.9zm113.6-.3c-.6 1.6-3.4 2.1-3.4.7 0-1.3 1.1-2.2 2.6-2.2.8 0 1.1.6.8 1.5zm51.1-.5c.3.5-.1 1-.9 1-.9 0-1.6.5-1.6 1.2 0 .6-.2.9-.5.6-.7-.7.5-3.8 1.5-3.8.5 0 1.2.4 1.5 1zM168 107.1c0 .6-.7 1.7-1.5 2.5a6 6 0 0 0-1.5 3.5c0 1-.7 1.9-1.5 1.9s-1.5-.9-1.5-1.9a6 6 0 0 1 1.5-3.5c.8-.8 1.5-1.9 1.5-2.5 0-.6.7-1.1 1.5-1.1s1.5.5 1.5 1.1zm-47 3.9c0 .8.3 2.5.6 3.7.5 1.7.2 2.3-1 2.3-.9 0-1.6.5-1.6 1.1 0 .6.7.9 1.5.5 1.1-.4 1.5.2 1.5 2.3 0 4.5-2.1 5.5-6.1 2.8-3-2-3.4-2.9-3.7-7.1-.2-3.1.2-5.6 1.2-7.1 1.4-2.1 1.9-2.2 4.6-1.2 1.6.6 3 1.8 3 2.7zm211.7-1.4c.2.6-.8 1.4-2.2 1.6-2 .4-2.5.1-2.5-1.4 0-1.4.6-1.9 2.2-1.6 1.2.2 2.3.8 2.5 1.4zm15.8.2a3 3 0 0 0 .5 2.7c1.5 1.8-1.3 3.8-4 3-1.6-.5-2-1.2-1.6-2.8.3-1.2.6-2.7.6-3.3 0-.6 1.2-1.2 2.6-1.2 1.8 0 2.4.5 1.9 1.6zm6-.5c2.4 1.8 1.1 4.1-1.6 2.7-1-.6-1.9-1.7-1.9-2.5 0-1.9 1.1-1.9 3.5-.2zm-182 .7c-.3.5-1.2 1-1.8 1-.7 0-.6-.4.3-1 1.9-1.2 2.3-1.2 1.5 0zm192.8 2.5c.4.8.2 1.7-.3 2-.6.4-1-.3-1-1.4 0-2.5.6-2.7 1.3-.6zm-60.3.5c0 .5-.7 1-1.5 1s-1.5-.5-1.5-1c0-.6.7-1 1.5-1s1.5.4 1.5 1zm-132.2 2.3c.3 1.6.1 1.7-1.7.5-2.5-1.6-2.7-3.1-.4-2.6 1 .2 1.9 1.1 2.1 2.1zm-7.3 2.4c.3 1 .1 1.9-.4 2.1-.6.2-.8.8-.5 1.3.8 1.3-1.5 3.9-3.4 3.9-1.2 0-1.3-.3-.4-1.2 1.6-1.6 1.5-2.8-.2-2.8-1 0-1.6-3.1-.7-4.8.5-1 5 .2 5.6 1.5zm-11.7 3.1c.4 2.5-1.3 3-2.2.6-.9-2.5-.7-3.6.7-3.2.6.3 1.3 1.4 1.5 2.6zm-8.3.2c.7 1.2-2.3 4.6-3.2 3.6-.3-.3-1.3.9-2.3 2.6-1.6 3-1.6 3.2.2 5 1 1 1.8 2.2 1.8 2.8 0 1.5-1.7 1.2-2.4-.5-.3-.8-1.5-1.5-2.6-1.5-2.4 0-2.6-2.2-.5-4.4.8-.8 1.5-2.5 1.5-3.8 0-1.3.5-2.9 1.2-3.6 1.5-1.5 5.4-1.6 6.3-.2zm2.7 4.3a9.8 9.8 0 0 1-1.7 3.4c-1.7 1.6-5.5.5-4.8-1.3.3-.9 1.3-1.2 2.4-.9 1.4.5 2 0 2.5-1.9.3-1.4 1-2.4 1.4-2.1.5.3.5 1.5.2 2.8zm20.2-2.7c2.5.9 1.9 2.4-.9 2.4-2.4 0-3.2-1-1.8-2.3.8-.8.8-.8 2.7-.1zm10.6 1.9c0 .8-.9 1.5-1.9 1.5-2.1 0-2.2 2.3-.2 7.2 1.3 3.5.9 3.5-3.4.1l-3.4-2.7 2.1-2.3c1.2-1.3 1.7-2.3 1.2-2.3-.7-.1 3.5-2.3 5.4-2.9.1-.1.2.6.2 1.4zm-12.2 3.3c.5 1.7-2.5 1.5-3.1-.2-.4-.9 0-1.3 1.1-1.2.9.2 1.8.8 2 1.4zm96.5.2c.3 1.1.1 2-.4 2s-.9-.9-.9-2 .2-2 .4-2 .6.9.9 2zm-100.8 3c-.3.5-1.3 1-2.1 1s-1.4-.5-1.4-1c0-.6.9-1 2.1-1 1.1 0 1.7.4 1.4 1zm-13 1c1.4.5 2.4 1.4 2.1 1.9-.4.5.4.7 1.6.4 2.3-.5 2.3-.5.3 1-1.1.9-2.4 1.7-3 1.7-.5 0-2.1.9-3.5 2-2.5 1.9-6 2.7-6 1.2 0-.4 1.4-1.6 3-2.7 2.4-1.5 2.9-2.5 2.5-4.3-.6-2.5-.6-2.6 3-1.2zm-9.5 5.6c0 .8-.5 1.4-1.1 1.4-.8 0-.7.6.2 1.7 1.2 1.6 1.2 1.7-.2.5-1.3-1-1.8-4.1-1-6 .3-.9 2.1 1.1 2.1 2.4zm-4.6.5c-.8 1.4-2.4 1-2.4-.6 0-.9.6-1.2 1.5-.9.8.4 1.2 1 .9 1.5zm44.1.9c.3.5-.1 1-.9 1-.9 0-1.6-.5-1.6-1 0-.6.4-1 .9-1 .6 0 1.3.4 1.6 1zm59 2c.3.5.1 1-.4 1-.6 0-1.1-.5-1.1-1 0-.6.2-1 .4-1 .3 0 .8.4 1.1 1zm-94 29c-.3.5-1 1-1.6 1-.5 0-.9-.5-.9-1 0-.6.7-1 1.6-1 .8 0 1.2.4.9 1zm13.6 4.3c-1.3 1.3-3.1-.1-3.1-2.5 0-2.1.1-2.1 2-.3 1.3 1.2 1.7 2.2 1.1 2.8zm-.1 4.8c0 .4-.7.6-1.5.3-.8-.4-1.5-1-1.5-1.5 0-.4.7-.6 1.5-.3.8.4 1.5 1 1.5 1.5zm-9.5-.1c.3.5.2 1-.4 1-.5 0-1.3-.5-1.6-1-.3-.6-.2-1 .4-1a2 2 0 0 1 1.6 1zm.3 2.5c1.2 1.1 1.7 7.3.9 9.7-1.3 3.9-3.8 3.5-8.1-1.2-4.2-4.7-4.4-6.2-1.3-8.4 1.9-1.4 7.1-1.5 8.5-.1zm22.2 4.2c0 .7.5 1.3 1 1.3.6 0 1 .8 1 1.8s.3 2.2.7 2.6c.4.4.8 1.7.8 2.9.1 3.7 5.2 12.3 9.2 15.6l3.8 3.1h-3.8c-2 0-3.7-.5-3.7-1.1 0-1.7-2.2-.5-3 1.7-1 2.7 1.4 8.4 3.6 8.4 1.3 0 1.5-.6 1.1-2.9-.6-2.8.7-5.1 2.8-5.1.6 0 1.6 1.7 2.1 3.7.7 2.9 1.6 4 3.9 4.8 2.1.7 3.1 1.8 3.3 3.5.4 3.1 5.4 8 10.8 10.8 4.9 2.5 5.9 4.4 4.2 8-1.6 3.2-5.7 4.4-10.6 2.9-4.2-1.2-6-1.1-11.7.8-2.2.7-5.9 1.6-8.2 2-3.6.6-4.2.4-4.8-1.5a30 30 0 0 0-7.1-7.1c-5-4-6.4-5.7-6.4-7.8 0-1.4-1.6-5-3.5-8a37.2 37.2 0 0 1-4.1-7.7c-.5-2.1-.3-2.4 2-2.4 2.2 0 2.8-.6 3.3-3.1.3-1.7 1.2-3.3 1.9-3.6 2-.7 1.7-2-.5-2.6-4.4-1.1-4.3-15 .1-18.7 2.8-2.4 3.7-2.4 5.8-.5 1 .9 2.5 1.3 3.4.9 1.5-.6 1.4-1-.8-3.9-1.4-1.8-2.2-3.5-1.9-3.9.9-.8 5.3 3.4 5.3 5.1zm-13.6-3.2c.3.9 0 1.5-.9 1.5s-1.2-.6-.9-1.5c.4-.8.7-1.5.9-1.5.2 0 .5.7.9 1.5zm9.6 3.5c0 .5-.2 1-.4 1-.3 0-.8-.5-1.1-1-.3-.6-.1-1 .4-1 .6 0 1.1.4 1.1 1zm-15.3 36.2c-.3.8-.6.5-.6-.6-.1-1.1.2-1.7.5-1.3.3.3.4 1.2.1 1.9zM4.5 306.9c.3.5.1 1.2-.5 1.6-.5.3-1-.1-1-.9 0-1.8.6-2.1 1.5-.7zm11.5.1c0 .5-.2 1-.4 1-.3 0-.8-.5-1.1-1-.3-.6-.1-1 .4-1 .6 0 1.1.4 1.1 1zm46.5 25.5c3 2.9 3 3.1.4 3.8-1.5.4-1.9.2-1.5-.9.6-1.7.1-1.8-2.6-.3-2.6 1.4-3.5.4-1.4-1.6.9-.9 1.4-2.1 1.1-2.6-1.2-1.9 1.7-.8 4 1.6zm-59 2.5c.3.5.1 1-.4 1-.6 0-1.1-.5-1.1-1 0-.6.2-1 .4-1 .3 0 .8.4 1.1 1zm55.9 3.5c-.4.8-1.1 1.5-1.6 1.5-.6 0-.5-.6.2-1.5.7-.8 1.4-1.5 1.6-1.5.2 0 .1.7-.2 1.5zm12.7.4c2.1 1.9 2.1 1.9.1 3.9-1.9 1.9-1.9 2-.2 2.5 1.3.3 1.7.1 1.3-1-1.3-3.5 2.2-.4 4.4 3.7a31 31 0 0 0 3.1 5c1.6 1 2.1 3.9.9 4.8-.7.6-3.8 1.2-7 1.5-3.1.4-6.3.9-7 1.3-.7.5-.6.1.2-1 .8-1 2.3-1.5 3.3-1.3 1 .3 1.6.2 1.4-.2-.3-.4.4-1.5 1.5-2.5 2.5-2.1 1.9-3.2-1-1.6-2.1 1.1-4.1.7-4.1-.8 0-.4 1.4-1.3 3.1-1.9 1.7-.7 2.8-1.6 2.5-2.2-.9-1.4-4.6-.9-4.6.7 0 .7-.6 1.2-1.2.9-1.4-.4-1.4-1.6-.4-7.3.7-3.4.6-3.5-1.4-2.4-1.2.6-2.4.9-2.7.6-.8-.8.7-2.6 2.3-2.6.8 0 1.4-.5 1.4-1 0-1.6 1.9-1.2 4.1.9zM10.5 346c-.3.5-1.1 1-1.6 1-.6 0-.7-.5-.4-1a2 2 0 0 1 1.6-1c.6 0 .7.4.4 1zm43.5 1.6c0 .8-.5 1.2-1 .9-.6-.4-.8-1.1-.5-1.6.9-1.4 1.5-1.1 1.5.7zm9.6-.5c.3.6-.1 1.8-1 2.7-1.5 1.5-1.6 1.5-1.6-.1 0-.9.6-1.7 1.3-1.8.6 0 .3-.4-.8-.9-1.6-.7-1.7-.9-.3-.9.9-.1 2 .4 2.4 1zm85.4-.1c0 .5-.8 1-1.7 1-1.5 0-1.6-.2-.3-1 1.9-1.2 2-1.2 2 0zm-135.5 1c-.3.5-1.1 1-1.6 1-.6 0-.7-.5-.4-1a2 2 0 0 1 1.6-1c.6 0 .7.4.4 1zm1 4c.3.5.1 1-.4 1-.6 0-1.1-.5-1.1-1 0-.6.2-1 .4-1 .3 0 .8.4 1.1 1zm47.5 4c.8.5 1.1 1.2.8 1.6-1 .9-3.8-.3-3.8-1.6 0-1.2 1-1.3 3 0zm2.9 4.1c-.7 1.4-1.4 1.8-2.1 1.1-1.3-1.3-.2-3.2 1.8-3.2 1.2 0 1.3.4.3 2.1zM7.7 370.6c-.3.3-1.2.4-1.9.1-.8-.3-.5-.6.6-.6 1.1-.1 1.7.2 1.3.5zm145.4 9.9c-1.2 6.6-4.2 13.5-5.8 13.5-1.3 0-1.7 1.2-1.4 4 .1 1.1 0 1.2-.7.3-.6-.9-1.2-.8-2.5.7-1.9 2.3-2.1 4.3-.7 7.1 2.2 4-3.9 9.3-14 12.2-4.5 1.3-5.5 1.4-6.7.2-1.2-1.2-6.7-1.2-8.2.1-.2.2-2.1-.6-4.3-1.7a14 14 0 0 0-5.1-1.8 12 12 0 0 1-4.1-.6c-2-.5-3.7-.3-5.6.9-3.5 2-4.4 2-3.6-.1.4-.9.1-2-.6-2.4-.8-.5-.4-1.1 1.5-1.8 1.8-.7 2.5-1.5 2.1-2.6-.3-.8-.1-1.5.5-1.5s1.1.8 1.1 1.7c0 1.5.2 1.5 1.3-.2 2.5-3.7 2.6-5.2.1-8.8a15 15 0 0 1-2.3-4.4 6 6 0 0 0 0-1.9c-.1-1.4-6.4-8.1-10.5-11.2l-2.9-2.2 3.2-.6c1.7-.4 3.1-1 3.1-1.4 0-.5 1.5-1.1 3.3-1.5 1.7-.4 4.7-1.4 6.5-2.2 2.6-1.2 3.5-1.3 4.7-.3 1.6 1.3 2.1 3.5.6 2.6-.5-.3-1.1 0-1.4.7-.4 1.1 5.2 5.6 6.1 4.9.9-.8 2 0 1.6 1.2-.3.8.3 1.6 1.6 1.9 1.1.3 2.5 1.8 3.1 3.4 1.3 3.6 7.3 8.3 9.9 7.6 1-.3 2.6-1.6 3.5-2.9.8-1.3 2.8-3.6 4.4-5.1 2.9-2.9 3.5-3.3 13.8-10.9 3.5-2.5 6.6-5 7-5.6 1.4-2.3 2.3 3.6 1.4 8.7zm-142.9-7.3c-.9.9-1.5.9-2.4 0-.9-.9-.7-1.2 1.2-1.2s2.1.3 1.2 1.2zm11.3-.2c.3.5.2 1-.4 1-.5 0-1.3-.5-1.6-1-.3-.6-.2-1 .4-1a2 2 0 0 1 1.6 1zm-9.5 2.9c0 .6-.9.9-1.9.8-1.1 0-1.7-.5-1.5-.9.7-1.1 3.4-1 3.4.1zm-.5 3.1c.3.5-.3 1-1.5 1-1.4 0-1.9.4-1.4 1.2.4.7.3.9-.1.5-.5-.4-1-1.4-1.1-2.2-.3-1.7 3.1-2.1 4.1-.5zm1.3 5.8c.2.7-.3 1.2-1.2 1.2-.9 0-1.6-.7-1.6-1.6 0-1.7 2.2-1.4 2.8.4zm9.6 1.5c-.1.9.7 1.9 1.7 2.2 2.1.7 2.3 1.3.9 3.5-.8 1.3-1 1.3-1-.2 0-.9-.6-2.1-1.4-2.5-1.9-1.1-3.3-5.7-1.5-5.1.8.3 1.3 1.2 1.3 2.1zm-16.8 2.4c-1 1-1.9-.5-1-1.8.6-1.1.8-1.1 1.2 0 .2.7.1 1.5-.2 1.8zm7.4 1.4c0 .5-.4.9-1 .9-.5 0-1-.7-1-1.6 0-.8.5-1.2 1-.9.6.3 1 1 1 1.6zm18.5 2.3c2.3 2.3 2.5 6.6.4 6.6-.5 0-.9.4-.9 1 0 .5.7 1 1.5 1 1.7 0 1.9.9.7 2.8-1.5 2.3-7.1-1.2-7.2-4.6 0-1 .5-1 2-.2 1.7.9 2 .8 2-1.4 0-1.3-.6-2.6-1.4-2.9-1.5-.6-1.8-4.7-.3-4.7a10 10 0 0 1 3.2 2.4zM18 393c0 .5-.4 1-1 1a1 1 0 0 1-1-1c0-.6.5-1 1-1 .6 0 1 .4 1 1zm22 3c.6 1.1.8 2.5.5 3-.3.5.9 1 2.7 1.2 1.8.2 3.3.7 3.3 1.3 0 .5.4 1.6.8 2.2.6.9.1 1.3-1.7 1.3-1.4 0-2.9-.7-3.4-1.6-.8-1.4-1-1.4-2.4-.1-1.3 1.4-1.7 1.2-3.1-1.9-.9-1.9-1.2-3.4-.7-3.4.6 0 1 .4 1 1 0 2 1.6 1 1.7-1.1.1-1.4-.3-1.9-1.3-1.5-.8.3-1.4-.1-1.4-.9 0-2.2 2.8-1.8 4 .5zm-2 13.7c0 .6-.4 1.5-1 1.8-.5.3-1 1.5-1 2.6 0 2-1.6 2.6-2.2.8-.2-.6-1.6.7-3.1 3-1.5 2.2-3.4 4.1-4.1 4.1-2.1 0-5.1-9.7-3.6-11.5 2-2.4 15-3.1 15-.8zM89 420c0 .5-.4 1-1 1a1 1 0 0 1-1-1c0-.6.5-1 1-1 .6 0 1 .4 1 1zm-27.8 62.7c3.6 3.4 3.6 5.3.1 5.3-2 0-2.4.3-1.4.9.7.5 2.5.4 4.2-.2 2.5-1 3.2-.8 6 1.8 4 3.9 6.2 8.1 5.4 10.5-.4 1.2-.2 2 .4 2 .6 0 1.1-.7 1.1-1.5 0-1.4.3-1.3 2.5.1 1.4.9 3.8 1.7 5.4 1.9 2.8.2 5 1.6 12.5 7.7 1.9 1.6 4.4 2.8 5.6 2.8 1.3 0 3.7 1.6 5.7 3.7 1.8 2.1 4.8 4.3 6.6 4.9 2.5.8 3.3 1.8 3.9 4.8a22 22 0 0 0 2.3 5.9c1.9 2.8 1.9 6.3 0 7.1-1.7.6-1.9 4.6-.6 9.3.6 2.2.6 3.7-.3 4.8-1.1 1.6-1.5 1.6-5.7-.3-4.2-1.9-6.6-4.7-7.3-8.2-.2-.8-.6-2.3-1.1-3.3-.5-1.2-.2-2.2 1-3.1 1.3-.9 1.6-2 1.1-3.9-.6-2.7-2.9-3.6-4.1-1.6-.4.6-4.5-3-9.7-8.5A45 45 0 0 0 84 516c-1 0-2-.4-2.2-.9-.5-1.4-7.8-2.5-7.8-1.2 0 .6 1.2 1.1 2.8 1.2l2.7.1-2.5.7c-1.4.4-2.8.3-3.1-.2-.9-1.4-1.9-1-4 1.4-1 1.2-1.9 1.8-1.9 1.3 0-1.3 4.9-6.4 6.1-6.4.6 0-.3-1.2-2-2.6-1.7-1.4-3.5-2.3-4-2-.5.3-.8-.2-.7-1.2 0-.9-.5-1.6-1.2-1.4-.8.1-1.1-.1-.8-.6.2-.4-1.3-3-3.5-5.7a20.3 20.3 0 0 1-3.9-7c0-1.1-.4-2.7-1-3.5-.5-.9-.5-1.9.1-2.7.6-.6.8-2.1.4-3.3-.9-2.7.3-2.5 3.7.7zM82 526c0 .5-.5 1-1.1 1-.5 0-.7-.5-.4-1 .3-.6.8-1 1.1-1 .2 0 .4.4.4 1zm26 24.4c0 .5-.7.3-1.5-.4s-1.5-2-1.5-2.8c0-1.3.3-1.2 1.5.4a7 7 0 0 1 1.5 2.8zm30.3 36c7 3.2 8.5 4.1 6.9 4.7-2.6 1-10.2-.1-9.9-1.4.4-1.9-3.3-1.9-7.1-.1-7.1 3.4-27.1 4.8-29.8 2.1-.3-.3 1.2-1.1 3.5-1.7 2.2-.6 4.3-1.5 4.6-2 .4-.6.9-.8 1.3-.6.4.2 3 0 5.7-.5a94 94 0 0 1 6.6-1.2c.9-.2 2.3-1 3.1-1.8 2.3-2.3 5.5-1.8 15.1 2.5zM225 590c0 .5-.5 1-1.1 1-.5 0-.7-.5-.4-1 .3-.6.8-1 1.1-1 .2 0 .4.4.4 1zm-58.6 2.4a53.5 53.5 0 0 1 13.2 12.3c-.7.8-4.6-.7-4.6-1.8 0-.5-.4-.9-1-.9-.5 0-2.2-1.2-3.8-2.8-1.5-1.5-4-3.6-5.5-4.6-1.4-1.1-2.4-2.3-2.1-2.8.7-1 .7-1 3.8.6zM247 596c0 .5-.7 1-1.6 1-.8 0-1.2-.5-.9-1 .3-.6 1-1 1.6-1 .5 0 .9.4.9 1z"/>
  <path d="M136.6 78.5c.4.8.8 1.5 1 1.5.2 0 .4-.7.4-1.5s-.4-1.5-1-1.5c-.5 0-.7.7-.4 1.5zM216 102.7c0 .5.7 1.7 1.5 2.7 1.3 1.7 1.5 1.7 1.5.3 0-.9.8-2.1 1.8-2.6 1.4-.9 1.1-1-1.5-1.1-1.8 0-3.3.3-3.3.7zM219.8 108.7c.6.2 1.8.2 2.5 0 .6-.3.1-.5-1.3-.5-1.4 0-1.9.2-1.2.5zM228 109.1c-.8.4-2.4 1.1-3.5 1.4-2 .7-1.9.7.2 1.7 2.7 1.3 7.3.3 7.3-1.6 0-1.8-2.1-2.6-4-1.5zM218.6 111.5c-.3.9.1 1.8 1 2.2 1.9.7 2.8-.2 2.1-2.2-.8-1.9-2.3-1.9-3.1 0zM250 97c-2.7 1.7-.1 2.3 3.2.7 3.1-1.6 3.1-1.7.8-1.7-1.4 0-3.2.4-4 1zM181 112.1c0 .5.5.7 1 .4.6-.3 1-.8 1-1.1 0-.2-.4-.4-1-.4-.5 0-1 .5-1 1.1zM213.4 134.6c.9.8 2 1.2 2.6.9 1.5-.9.2-2.5-2.1-2.5-1.9 0-1.9.1-.5 1.6zM207 138.1c0 2 3.7 4.2 4.6 2.8.3-.6.1-1.6-.5-2.2-.6-.6-1.1-.7-1.1-.3 0 .5-.7.3-1.5-.4-1.2-1-1.5-1-1.5.1zM217.6 138.8c-.3.6-.1 1.4.5 1.7 1.5 1 2.5-.3 1.2-1.6-.7-.7-1.3-.7-1.7-.1zM204 153.6c0 .9.5 1.4 1.2 1.2 1.8-.6 2.1-2.8.4-2.8-.9 0-1.6.7-1.6 1.6zM183 156.2c0 1.6.2 2.8.4 2.8s1.8-1.3 3.7-2.9l3.4-3-3.8.2c-3.3.2-3.7.5-3.7 2.9zM186 159.4c0 .7.8 2 1.7 2.7 1.2 1 1.5 1.1.9.1-.4-.7-.2-1.9.4-2.7 1-1.2.9-1.5-.9-1.5-1.1 0-2.1.6-2.1 1.4zM180.5 163c-.3.5.3 1 1.4 1 1.2 0 2.1-.5 2.1-1 0-.6-.6-1-1.4-1-.8 0-1.8.4-2.1 1zM77.8 355.7c.6.2 1.8.2 2.5 0 .6-.3.1-.5-1.3-.5-1.4 0-1.9.2-1.2.5zM141.5 392c-.7 1.2 1.2 4 2.7 4 1.3 0 .6-4.3-.9-4.7-.6-.2-1.4.1-1.8.7zM28.6 409.8c-.2.4-.1 1.4.5 2.2.7 1.2.9 1 .9-.8 0-2.3-.5-2.8-1.4-1.4zM33.5 411.1c-.4.6-.5 1.2-.2 1.5.2.3.7-.2 1-1.1.7-1.7.1-2-.8-.4zM254.5 5c-.3.6.1.7.9.4 1.8-.7 2.1-1.4.7-1.4-.6 0-1.3.4-1.6 1zM97.8 35.7c.6.2 1.8.2 2.5 0 .6-.3.1-.5-1.3-.5-1.4 0-1.9.2-1.2.5zM93.5 45c-.6.9 1.1 5 2.1 5 .2 0 .3-1.4.2-3-.2-3-1.2-3.8-2.3-2zM77.3 47.7c.9.2 2.3.2 3 0 .6-.3-.1-.5-1.8-.5-1.6 0-2.2.2-1.2.5zM79 51.4c0 .2.7.6 1.5 1 .8.3 1.5.1 1.5-.4 0-.6-.7-1-1.5-1s-1.5.2-1.5.4zM253.8 53.7c.7.3 1.6.2 1.9-.1.4-.3-.2-.6-1.3-.5-1.1 0-1.4.3-.6.6zM260.7 56c-.7 2.7-.1 3.9 1.2 2.4.5-.5.5-1.8.2-2.8-.7-1.8-.8-1.8-1.4.4zM267 57.5c0 .9-.7 1.8-1.5 2.1-.8.4-1.2 1-.9 1.5 1 1.7 2.2.9 3.3-2.1.6-1.8.6-3 0-3-.5 0-.9.7-.9 1.5zM275.9 66.1l-2.4 2 2.8-1.7a10 10 0 0 0 2.7-2c0-.8-.8-.4-3.1 1.7zM310 81.1c0 .5.5.7 1 .4.6-.3 1-.8 1-1.1 0-.2-.4-.4-1-.4-.5 0-1 .5-1 1.1zM47.3 91c.3 1.9.3 2.9 0 2.2-.7-1.7-3.3-1.5-3.3.3 0 .8.4 1.5.9 1.5.6 0 .9.9.8 1.9-.1 2.2-1.7 1.8-1.7-.5 0-1.9-1.9-1.8-2.6.1-1.1 2.8-2.3 1.5-2.6-2.8-.3-4.2-2-5-2.6-1.2-.1 1.1-.7 2.2-1.2 2.3-.6.2-.8.8-.5 1.2.3.5 0 1.2-.6 1.5-.6.5-1 0-.9-1.1.4-3.3 0-4.2-1.7-4.9-1.5-.5-1.6-.4-.5.6.6.7 1.2 1.6 1.2 2.1 0 .4-.6.5-1.2.3-.7-.3-1.9-.1-2.7.4-1.2.8-1.2 1.3.2 3.5 2.8 4.2 1.9 5.3-1.3 1.6-2.1-2.5-2.9-3-3-1.8 0 .9.4 2 1 2.3 1.5.9 1.2 2.5-.4 1.9-.8-.3-1.7-.1-2.1.5-.3.6.1 1.4 1.1 1.8.9.3 3.3 2.2 5.3 4.1 3.2 3.2 3.3 3.4 1.1 2.8-1.4-.4-4-1.4-5.8-2.3-1.9-.8-3.6-1.2-3.9-1-.2.3.6.8 1.9 1.2 1.3.4 3.3 1.6 4.6 2.6l2.3 1.8L27 116c-2.2 2.2-2.2 2.2-.1 1.5 1.4-.4 2.1-.2 2.1.6s.5.7 1.8-.3c.9-.8 2.5-1.5 3.6-1.5 1.5 0 1.7.6 1.2 3.6-.5 3.3-.4 3.5.9 1.7a7.7 7.7 0 0 0 1.5-3.3c0-1.1.5-1.1 2.1-.3 2.6 1.5 2.9 1.1 1.2-2-.7-1.4-1.3-1.9-1.3-1.1 0 1.1-.3 1.1-1.5.1-2.3-1.9-1.8-2.7 1.5-2.7 1.7 0 3 .4 3 .9 0 .4.7.8 1.5.8s1.5.7 1.5 1.5.4 1.5 1 1.5c.5 0 .7.7.4 1.5-.4 1 0 1.5 1.1 1.5.9 0 1.6-.7 1.4-1.8-.4-4.4.2-8.2 1.4-8.2.6.1 2.2.9 3.5 2l2.3 1.9-3.6 3.5c-3.6 3.6-4.6 6.6-2.1 6.6 1.8 0 3.9-2.7 3.1-4-.3-.6.3-1 1.7-1 3.4 0 6.8-1.1 6.8-2.2 0-1-4-7-5.5-8-.6-.5-.3-.8.6-.8 2.3 0 7-2.6 6.2-3.4-.4-.3.2-1.2 1.2-2 1.8-1.3 1.8-1.4-.3-2.5-1.3-.7-2.8-.9-3.4-.5-.7.5-.9 0-.6-1.4.6-2.2-.6-3-1.7-1.2s-2.7 1-2.2-1c.4-1.7.2-2-1.4-1.5-1.4.5-1.9.2-1.9-1.2a8 8 0 0 0-1.5-3.9c-1.5-1.8-1.6-1.7-1 1.6.4 2.6.3 3-.4 1.5-.5-1.2-1.7-2.7-2.7-3.5-1.6-1.4-1.7-1.3-1.1 2zm2.7 4c0 .5-.5 1-1.1 1-.5 0-.7-.5-.4-1 .3-.6.8-1 1.1-1 .2 0 .4.4.4 1zm-15 7.5c1 1.2 1 1.5-.4 1.5-.9 0-1.6-.7-1.6-1.5s.2-1.5.4-1.5.9.7 1.6 1.5zm23.3 3c-.3.9-.8 1.4-1 1.1-.3-.3-.2-.9.2-1.5.9-1.6 1.5-1.3.8.4zM363 92c0 .5.5 1 1 1 .6 0 1-.5 1-1 0-.6-.4-1-1-1a1 1 0 0 0-1 1zM365.5 98c-1.7.7-1.4.9 1.3.9 2 .1 3.1-.3 2.7-.9-.7-1.2-1.3-1.2-4 0zM374.6 103.5c-1.6 2.4-1.5 2.5.3 2.5 1 0 2.2-.7 2.5-1.6 1.6-4-.3-4.7-2.8-.9z"/>
  <path d="M20.8 113.7c.6.2 1.8.2 2.5 0 .6-.3.1-.5-1.3-.5-1.4 0-1.9.2-1.2.5zM346.7 125.5c-1.3.9-1.5 1.5-.7 2 .7.4 1.9.1 2.7-.8 1.9-1.9.3-2.9-2-1.2zM249.4 152.7c-.2 2.2-.1 2.3 1.2.6 1.7-2.3 1.7-3 .2-3-.7 0-1.4 1.1-1.4 2.4zM268.6 152.5c-.3.8-1.2 1.5-2.1 1.5-.8 0-1.5.9-1.5 2 0 1.3.6 2 1.8 1.9 1 0 1.2-.3.5-.6-1.9-.7-1.6-2 .7-2.6 1.1-.3 2-1.2 2-2.1 0-2-.6-2.1-1.4-.1zM220.5 180c-.3.5-.2 1 .4 1 .5 0 1.3-.5 1.6-1 .3-.6.2-1-.4-1a2 2 0 0 0-1.6 1zM216 182.4c0 .2.7.7 1.6 1 .8.3 1.2.2.9-.4-.6-1-2.5-1.4-2.5-.6zM215.5 190c.3.5.8 1 1.1 1 .2 0 .4-.5.4-1 0-.6-.5-1-1.1-1-.5 0-.7.4-.4 1zM192 283.6c-1.1 1.3-.9 1.9 1.2 4.1l2.6 2.6 1.2-2.3c.9-1.8.9-2.5-.6-4.1-2.1-2.3-2.8-2.4-4.4-.3zM4.3 406.6c-.8 2.1 2.3 5.2 3.8 3.7.8-.8.8-1.7 0-3.2-1.4-2.5-2.9-2.7-3.8-.5zM32.8 449.7c.7.3 1.6.2 1.9-.1.4-.3-.2-.6-1.3-.5-1.1 0-1.4.3-.6.6zM99 495.6c0 .8.5 1.2 1 .9.6-.3 1-1 1-1.6 0-.5-.4-.9-1-.9-.5 0-1 .7-1 1.6zM162 575.4c0 .2.8 1 1.8 1.7 1.5 1.3 1.6 1.2.3-.4s-2.1-2.1-2.1-1.3zM268 595.4c0 .2.7.7 1.6 1 .8.3 1.2.2.9-.4-.6-1-2.5-1.4-2.5-.6zM237.9 599.3c.7 1 1.9 1.7 2.5 1.7.6 0 2.2.6 3.6 1.3a72 72 0 0 0 4.4 2c1.6.6 1.7.5.6-.7-.6-.9-1.5-1.5-1.8-1.4-.7.2-5.3-1.7-8.7-3.5-1.8-.9-1.9-.8-.6.6zM251 605.4c0 .2.7.7 1.6 1 .8.3 1.2.2.9-.4-.6-1-2.5-1.4-2.5-.6zM235 608.6c0 .3.5 1.4 1.1 2.5.8 1.6 1.4 1.8 2.4.9s1.7-.4 3.2 2c1.2 2.1 2.4 3 3.8 2.8 1.1-.1 2.6.1 3.3.6.7.4 1.6.5 2 .1.4-.4.1-1-.6-1.2a23 23 0 0 1-4.1-2.9 11.4 11.4 0 0 0-3.9-2.4c-.6 0-1.2-.4-1.4-.9-.3-1-5.8-2.4-5.8-1.5zM253.2 621.6c-1.4 1.6-.5 1.8 1.7.5.7-.5.9-1.1.5-1.4-.5-.3-1.5.1-2.2.9zM258.7 627.1c.7.7 1.5 1 1.8.7.3-.3-.2-.9-1.2-1.2-1.4-.6-1.5-.5-.6.5zM299.2 629.6c-1.1 1.2-.9 1.6 1.8 2.7 1.6.8 2.7 1.6 2.4 2-.4.4.1.9 1 1.3.9.3 2.8 2.5 4.1 4.9 1.4 2.3 3.7 4.7 5.1 5.4 2.1.9 2.4 1.4 1.4 2.6-.9 1.1-.4 2.1 2.4 4.9 2 1.9 3.6 3.9 3.6 4.6 0 1.2-8-5-8-6.2 0-1.4-8.2-3-9.3-1.9-1.8 1.8-4.3 1.3-7.6-1.5-1.7-1.4-3.6-2.2-4.2-1.8-.8.5-.9.3-.4-.6.6-1 .2-1.1-1.7-.7-2.1.6-2.7.3-3.1-1.5-.5-1.9-.8-2-2.3-.8-1.4 1.2-1.8 1.2-3-.5-.8-1-1.4-2.3-1.4-2.7 0-.4-.8-.3-1.9.3-1.2.8-2.7.9-4.7.2-4.3-1.4-6.3-.6-6 2.3.2 1.4.9 3.3 1.8 4.3 3 3.6 2.8 3.8-3 3.3-7.3-.6-7.6-.5-14.7.6-3.2.5-6.1 1.4-6.3 2-.2.7-1.5.6-4.2-.3-2.1-.7-5.9-1.6-8.5-1.9-2.7-.3-5.7-1.3-6.9-2.5a9 9 0 0 0-7.4-2.2c-1.4.1 3.2 7.4 6.5 10.2 3 2.6 7.3 7.8 7.3 8.9 0 .5.5 1 1 1 .6 0 1 .7 1 1.5 0 .9.6 1.8 1.4 2.1.9.3 1.3 1.9 1.1 4.7-.4 6.6 4.9 13.1 9.8 12.1 5.5-1.1 12.2 10.2 8.4 14.4-.8.9-1.8 3.4-2.2 5.4-.5 2.7-1.2 3.8-2.5 3.8-1.8 0-4 4.4-4 7.9 0 2.8 4.3 7.3 6.3 6.6.9-.4 1.8-1.3 1.8-2.1l.4-2.4.4-3c.1-1.7.5-1.8 2.6-1 2 .7 2.8.5 4.2-.9 3-3.2 6.4-3.4 9.8-.6l3 2.5h-4c-2.6.1-4.9.8-6.8 2.4-2.6 2.1-2.7 2.5-1.8 6.5.9 4 3.3 7 5.7 7.1 2.3 0 4.6-3.8 4-6.7-.6-2.4-.2-3 2.4-4.1 2.5-1.1 2.9-1.8 2.4-3.8-.3-1.3-.3-2.4 0-2.4s3.5 2 7 4.4c3.6 2.4 7.9 4.7 9.6 5.1 2.9.6 3.1 1 2.6 3.8-.6 3.8.8 15.9 1.6 13.7l1.3-3.5c.7-1.9.7-1.9 1.8-.1.7 1 2.2 3.1 3.5 4.6a29.4 29.4 0 0 1 5.2 13.5c0 2.5 4.3 7.7 7.8 9.5 1.3.6 3.7 1.2 5.3 1.2 2 .1 2.8.5 2.5 1.4-.3.7-.1 1.6.3 1.9.5.3 1.4-1 2-2.7.8-2.2.8-3.4.1-3.6-.5-.2-1-1.1-.9-2 0-1.1.2-1.2.6-.5.2.7 1.3 1.3 2.3 1.3 2.3 0 3 2.8 1.9 8.4-.6 3.2-.4 5.9.6 9.2 1.3 4.5 1.3 4.6-.9 4-1.3-.3-3.2.2-4.7 1.2-1.3.9-4 1.7-5.9 1.7-2.9 0-3.6.4-3.8 2.3-.2 1.3.2 2.9.8 3.7.9 1 .4 1.5-2.3 2.4-4.5 1.5-7 .6-5.6-2.1.7-1.4.7-2.3-.1-3.3-1-1.2-1.5-1.1-3.3.6l-2.2 2 3.2 2.9c1.7 1.5 2.9 3.1 2.6 3.4-.4.3.2.6 1.3.6 1.5 0 1.3.3-.9 1.5-1.5.8-3.4 1.1-4.3.8-1-.4-1.7.2-2.1 1.6-.3 1.2-1.3 2.1-2.3 2.1-2.5 0-3.3 3-2.5 9.4.6 4.3.4 5.4-.9 5.9-1.8.7-5.6 8.4-6 12-.2 1.3-.6 2.9-1 3.5a52.4 52.4 0 0 0 2.3 18c.5.1.6 1.4.3 2.9-.3 1.7-.1 2.4.6 1.9.6-.3 1.3-.2 1.6.3.4.5.2 1.2-.4 1.6-.6.4-.5 1.3.3 2.6 1 1.6.9 2.1-.3 2.9-1.2.8-1.1 1 .8 1 2.5 0 3 1.5.6 2.4-.8.3-1.4 1.4-1.2 2.3.2 1-.4 2.7-1.4 3.7-3.3 3.6-2 7.3 2.7 7.8 2.3.2 3.2-.2 4-2 .7-1.7 1.6-2.1 3.2-1.7 1.2.3 2.5.1 2.8-.5.9-1.5 2.5-1.2 2.5.5a3 3 0 0 0 1.3 2.2c.6.4 1.7 1.7 2.3 2.8a9 9 0 0 0 3.5 3.2c1.8 1 2 1.3.7 1.3-1.1 0-1.8.8-1.8 2 0 2.2 1.6 2.7 2.3.7.3-.6.3.4 0 2.3-.5 3.4 2.5 11.1 4.8 12.6.5.3.9 1 .9 1.6 0 .7-.6.6-1.5-.2s-1.5-.8-1.5-.2c0 .6.9 1.4 2 1.7 2.4.8 3.5 2.8 4.3 7.5.3 1.9 1.7 5.4 3.2 7.7l2.7 4.1 17.4.1c10.5.1 17.5-.3 17.9-.9.3-.5 0-.7-.8-.4-.8.3-2-.2-2.7-1.1-.7-.8-1.9-1.5-2.7-1.5-.7 0-2.3-2.1-3.5-4.8-1.4-3.1-2.3-4.1-2.5-3-.5 2.1-3.5 3.1-7.1 2.3-2.3-.5-2.9-1.3-3.8-5.1-1.4-5.8 0-8.3 3.7-6.5 2.1 1.1 2.2 1 .7-.2-1.2-.9-1.4-1.7-.7-2.4 1.4-1.4-3.8-6.3-6.7-6.3-1.2 0-3.8-1.6-5.7-3.5-1.9-1.9-4-3.5-4.6-3.5-2.1 0-5.1-3.3-4.1-4.5.7-.8.2-1.9-1.5-3.3-1.4-1.2-2.5-2.6-2.5-3 0-.5-2.1-.9-4.7-1-6.6-.4-8.1-.9-8.9-3.5-.3-1.2-1.2-2.9-1.9-3.7-1.5-1.8-1.3-.5-2.1-19.7-.6-14.8-.6-15.3 1.3-15.3 1.1 0 2.8-.9 3.8-2 2.3-2.5 3.2-2.5 4-.1.3 1.1 1.2 1.8 1.9 1.5.7-.3 1.6.2 2 1.2.5 1.3.9 1.4 2 .5 1.2-1 1.5-.6 2.1 1.8.6 3 2 4.5 4 4.6.6 0 1.2.4 1.4 1 .2.5 1 1.4 1.8 2 1.3 1 2.1 9 1 10.2-.4.3.1 1.1 1 1.8 1.5 1.1 2.4 9.5 2.5 23.5 0 2.5 2.2 4.9 4.6 5 .7 0 1-.4.7-1-1.1-1.7-1.4-7-.4-7 .5 0 .9.9.9 2s.5 2 1 2c1.2 0 1.3-.6.1-2.8-1.8-3.6-2.1-6.9-.6-6.9.8 0 1.5.7 1.6 1.6 0 1 .2 1.2.6.3.7-1.7 2.3-1.5 2.3.3 0 .8-.4 1.5-1 1.5-.5 0-1 .5-1 1.1 0 .6.7.8 1.6.5 1.3-.5 1.4-.1.9 2.5-1 4.4 2.5 7.6 8.8 7.8 1.7.1 1.7.2.2 1.7-1.2 1.3-1.9 1.4-3 .4-.8-.7-2.3-.9-3.2-.5-1.5.6-1.4.9 1.2 2.3 1.7.9 4 1.5 5.3 1.3 1.6-.2 2.2.3 2.2 1.8 0 1.2.6 2.1 1.5 2.1.8 0 1.5.9 1.5 2s.6 2 1.4 2c2.1 0 7 6.1 5.6 7-1.5 1 3.9 3.3 7.5 3.2 2.2 0 2.4.1.8.5-1.3.2-2.3.8-2.3 1.2 0 1.3 2.3 2.7 4 2.5l2.8-.3c.6 0 1.2-.8 1.2-1.6s.8-1.6 1.8-1.6l3.2-.4 3.8-.4c3.1-.2 2.9-4.4-.3-8.3a10 10 0 0 1-2.5-6.3c0-4.9-4.1-11.6-8.6-14.2-4.2-2.5-4.1-2.9.3-1.3 2.6 1 2.7.9.8-.5-1.7-1.4-1.8-1.7-.5-2.5.8-.5 2.1-1 2.8-1 2.2 0 7.2 4.3 7.2 6.2 0 1.1 2.5 4.2 5.6 7.1 5.9 5.5 12.7 15.9 12.2 18.6-.2 1-1.6 1.7-3.7 1.8-3.4.3-6.1 1.8-6.1 3.4 0 .5.7.9 1.5.9 1.8 0 2 2 .3 2.1-.7 0-.2.5 1.2 1.1 1.4.6 2 1.2 1.4 1.5-2.2.8-.3 3.9 3 5.1 1.8.7 8.5 1.2 14.9 1.2H431v-2.6c0-2.5-1.6-6.5-3.1-7.4-3.7-2.5-8.9-7.7-8.9-8.9-.1-2.4-3.6-6.1-6.2-6.6-3.4-.6-7.5-5.7-9.1-11.2a85.5 85.5 0 0 1 2.2-34.4c1.2-2.3 1.7-5 1.5-7.7-.3-3.5 0-4.2 1.9-4.8 4.5-1.4 7.9-7.3 5.7-9.9-.7-.9-3-1.5-5.2-1.5-4.5 0-5.1-1-5.2-8.2-.1-2.6-.4-4.8-.7-4.8-.9 0-2-5.8-2-10 .1-3.6-.4-5.1-4.5-13a33 33 0 0 1-2.9-10 34 34 0 0 0-2.5-9.3c-1.1-2-1.7-3.7-1.3-3.7.4 0 .2-.5-.5-1.2s-1.2-2-1.2-3c0-1.1-.9-3.1-2-4.6-2.6-3.6-3.9-9.5-1.8-8.7.8.3 1.9 0 2.5-.7 1.5-1.9 2.1-6.4 1.2-8-1.3-2-4.5.4-4.1 3.1.4 2.3-2.6 3.1-3.2.8-3.3-10.9-4-12.5-7.4-15.6-2.1-1.9-2.9-3.1-1.8-2.7 1.5.5 1.7.2 1.2-1.8l-1.2-4c-.3-.9 0-1.8.7-2 5.1-1.5 5.3-1.6 3.9-2.9-1-.9-1.4-.9-1.7.1-.4 1-.8 1-1.9.1-1-.8-1.4-.8-1.4 0 0 .6-.5 1.1-1.2 1.1-.9 0-.9-.3 0-1.2.7-.7 1.2-2 1.2-3 0-1.1 1-2 2.8-2.4 4.4-1.1 4.6-1.5 1.5-3.5-1.5-1-2.2-1.9-1.5-1.9 1.1 0 1.1-.2 0-1.3-2-2.1-4.8-6-6.1-8.7a6.6 6.6 0 0 0-3.6-3c-2.5-.6-10.1-7.8-10.1-9.6 0-.6-2.7-5.1-6-10s-6-9.2-6-9.6c0-3-19-25.5-24-28.5-1.7-.9-3.2-2.4-3.5-3.3-.9-2.9-11.1-13-13.1-13-1 .1-2.5.7-3.2 1.6zm1.8 24.9c0 .8-.4 1.5-.9 1.5-1.3 0-2.2-1.6-1.4-2.4 1.1-1.1 2.3-.6 2.3.9zm16.4 3.1c.9.8 1.4 2 1.1 2.5-.9 1.4-2.5 1.1-2.5-.6 0-.9-.6-1.2-1.5-.9-1.5.6-2.1-.7-.8-1.9 1-1.1 2-.8 3.7.9zm-48.3.4c.5 0 .9.4.9 1 0 1.5-6.1 4.3-7.1 3.3-1.3-1.3 2-5.5 3.8-4.9.8.3 1.9.6 2.4.6zm-12.1 4c0 .5-.4 1-1 1a1 1 0 0 1-1-1c0-.6.5-1 1-1 .6 0 1 .4 1 1zm12 4.5c1.7.9 3 2 3 2.5 0 1.3-.1 1.3-3.8-.6-1.8-.8-3.2-2-3.2-2.5 0-1.2.6-1.1 4 .6zm11.6 1.7c.3 1 1.1 1.5 2 1.1.7-.3 1.4 0 1.4.6 0 1.2-4 3.1-6.4 3.1-1.5 0-3.9-4.7-3.1-6.1 1-1.5 5.5-.6 6.1 1.3zm8 6.8c3.3 1.3 8.7 5.7 7.7 6.3-1.1.6-13.3-5.2-13.3-6.3 0-1.3 2.2-1.3 5.6 0zm20.4 3.7c1.1 1 2 2.4 2 3.1 0 .7.8 1.2 1.8 1 1.9-.4 5.7 5.6 4.7 7.2-.4.6-.2 1 .4 1 .6 0 .8.7.4 1.6-.8 2.1-6.7 1.3-9.6-1.4a26 26 0 0 0-4.3-3c-2.2-1.2-4-5.2-2.3-5.2.6 0 2.7 1.8 4.9 4.1 2.4 2.6 4.5 3.9 5.7 3.7 2.9-.6 1.6-3.9-3.3-8.2-4.3-3.7-5.4-5.6-3.4-5.6.5 0 1.9.8 3 1.7zm-7.7 27.3c2 2.4 2.1 3 .5 3-1.4 0-4.8-3-4.8-4.2 0-1.5 2.5-.8 4.3 1.2zm-2.9 2.1c1.6 1.2 3.5 1.9 4.6 1.6 2.2-.6 3.3.6 3.6 3.8l.6 3.4c.1.7-.3 1.6-.9 1.8-1.8.7-7.6-5.4-6.9-7.2.3-.9-.1-1.5-1-1.5-.8 0-1.7.7-2 1.5-.9 2.3-2.4.7-2.4-2.6 0-3.5.8-3.6 4.4-.8zm21.1 3.9c1 .9 1.1 1.8.3 4.1-.5 1.6-1.4 2.9-2 2.9-1.6 0-6.8-5.7-6.8-7.6 0-1.4.6-1.6 3.6-1.1 2 .3 4.2 1.1 4.9 1.7zm52.1 7.8c-.4.3-1.4-.2-2.4-1.2-1.6-1.8-1.6-1.8.6-.6 1.3.6 2.1 1.4 1.8 1.8zm-53.6 4.7c3.1 1.6 3.9 3.1 3.2 5.7-1 4.1-8.2.2-8.2-4.3 0-3.3.9-3.5 5-1.4zm14.9-.5c1.7 0 9.2 6.7 11.7 10.4 1.8 2.6 2.4 4.5 2 6.2-.6 2.4-3 3.2-4.1 1.4-.3-.6-1.4-1-2.4-1-1.7 0-7.9-7.8-11-13.8-1.4-2.6-.6-4.6 1.6-3.8.8.3 1.8.6 2.2.6zm-30.9 5c.8.5 1.1 1.2.8 1.6-1 .9-3.8-.3-3.8-1.6 0-1.2 1-1.3 3 0zm70 4.4c0 .3-.4.8-1 1.1-.5.3-1 .1-1-.4 0-.6.5-1.1 1-1.1.6 0 1 .2 1 .4zm-16.6 7.2c1.6.6 2.2 3.5.9 4.7-1 1.1-3.3-1.3-3.3-3.4 0-2.1.1-2.2 2.4-1.3zm-36.8 12.5c1.9 1.1 3.4 2.7 3.4 3.4 0 1.7-4.3 3.2-4.8 1.6-.2-.6-1-1.1-1.7-1.1-1.4 0-3.5-2.9-3.5-4.9 0-1.7 3-1.3 6.6 1zm18.5 20c1.6 1.6 1.9 3 1.7 7.1-.2 2.8-.8 5.3-1.4 5.5-1.7.5-5.7-9.5-5-12.3.8-2.9 2-3 4.7-.3zm14.2 3.6c.9 2.5 1.5 4.9 1.1 5.2-1.1 1.1-4.4-4.1-4.4-7 0-4.3 1.3-3.5 3.3 1.8zm-3.5 14.2c1.5 4.8 1.5 4.7-.4 6.5-2.9 2.9-4.4 2-4.4-2.8 0-8.3 2.8-10.5 4.8-3.7zm-14.4 1.4c1.5 2.1 1.8 3.2 1 4.5-.6.9-.7 2.8-.3 4.2.4 1.4.7 3.6.8 4.9.1 2.3 0 2.3-1.8.7-1.3-1.2-2.1-3.8-2.6-8.2-.3-3.5-1.1-6.4-1.6-6.4s-.9-.7-.9-1.6c0-2.3 3-1.3 5.4 1.9zm31.9-.4c1.5 1.6 2.7 3.8 2.7 4.8a5 5 0 0 0 1.2 3.1c.8.8.9 1.5.2 2.2-1.3 1.3-5.8-.2-7-2.2-1-1.5-1.4-10.8-.5-10.8.3 0 1.8 1.3 3.4 2.9zM322 803c.5 0 1.2 1.1 1.6 2.5.4 1.7 1.3 2.5 2.8 2.6 1.8 0 1.8.1.4.7-1.6.7-1.6 1-.3 3.6 1.8 3.4 1.9 5.3.4 5.8-.8.3-.7 1.4.5 3.5 1.4 2.9 1.4 3.3 0 4.7-1.7 1.8-7.9 2.1-9.7.6l-2.9-2.3a7.2 7.2 0 0 1-2-4.2c-.2-1.7-.7-3.4-1.3-3.8-.6-.6-.6-1 .3-1.4.7-.3 1.2-2.5 1.2-5.9 0-3 .5-5.4 1-5.4.6 0 1-.4 1-1 0-.5.8-1.9 1.7-3 1.7-2 1.8-2 3.1.5.7 1.4 1.7 2.5 2.2 2.5zm25.7.7c.6 1.6 1.3 5.2 1.7 8.1.5 4.7.3 5.1-1.2 4.3-3.1-1.7-4.5-5.6-3.8-10.5.8-5.3 1.6-5.7 3.3-1.9zm23.9 5.3 4.2 4.8-.3-3.2c-.3-3.5 1.9-6.6 4.6-6.6 1.9 0 4.3 3.3 3.2 4.3-.9 1 2.3 3.6 3.4 2.9.6-.4 1.3-1.8 1.5-3.2l.3-2.5 1.6 3c.8 1.6 2.1 2.9 2.8 2.7.7-.1 1 .2.6.8-.3.5-.1 2.7.4 4.7.6 2.1 1.6 6.6 2.3 10 .7 3.8 1.7 6.3 2.5 6.3.7 0 1.3.4 1.3 1 0 .5-.7 1-1.5 1s-1.5.7-1.5 1.5-.5 1.5-1.1 1.5c-.6 0-.8.7-.5 1.6.4 1.1.2 1.5-.8 1.1-1.9-.7-6.6 2.9-6.6 5.1-.1.9-.7 2.8-1.4 4-1.2 2.3-1.4 2.1-4.9-4.9-2-4-3.7-7.9-3.7-8.6 0-2.9-4.2 3.5-6 8.9-.4 1.5-.7 1.5-3-.4s-2.4-2.1-.7-3.3c1-.7 2.1-2.9 2.4-4.9.3-2 1.1-3.6 1.8-3.6 2.2 0 2.5-3.9.4-4.5-2.4-.8-2.4-2.1-.1-3.4 1.6-1 1.6-1-.1-1.1-1 0-2.2-1.2-2.7-2.6-.6-1.4-1.8-2.8-2.8-3.1-1.1-.2-2.6-2.4-3.6-5.3-1.5-4-1.5-5.1-.4-6.9 1.9-3.1 3.9-2.5 8.4 2.9zm-18.9 6.7c-.4.3.3 1.7 1.5 3s1.6 2.3 1 2.3c-.7 0-1.2.5-1.2 1.1 0 .5.5.7 1 .4.6-.3 1-.1 1 .4 0 1.4-1.7 1.4-2.6 0-.4-.8-1.3-.4-2.4 1.2-1.6 2-2 2.1-3.4 1-.9-.7-1.6-2-1.6-2.8 0-1.5 4.9-7 6.4-7.2.5-.1.6.2.3.6zm10.3 1.7c0 .3-.4.8-1 1.1-.5.3-1 .1-1-.4 0-.6.5-1.1 1-1.1.6 0 1 .2 1 .4zm-25 1.5c0 1.2-2 2.5-2.7 1.8-.7-.7.6-2.7 1.8-2.7.5 0 .9.4.9.9zm22 4c-.6 1.2-1.5 2.1-2.1 2.1-1 0-.5-1.3 1.4-3.8 1.5-1.9 2-.7.7 1.7zm-4.5 10.6c2.5 2.4 3.3 5.5 1.6 5.5-.9 0-7.1-6.6-7.1-7.5 0-1.4 3.4-.2 5.5 2zm13.9.1c.4 1.5.5 2.9.2 3.1-.9.9-3.7-.7-3.1-1.7.3-.6-.1-1.3-.9-1.6-2-.8-1.1-2.4 1.4-2.4 1.1 0 2 1 2.4 2.6zm12.5 18c-.2 2.5-.6 4.7-1.1 5-.4.3-.8 2.1-.8 4 0 3.9-2.1 4.6-5.2 1.7-2.4-2.2-2.3-3.2.8-4.3 1.8-.7 2.4-1.5 2-2.8-.8-2.4 2.1-9.5 3.5-8.7.5.4.9 2.7.8 5.1zm-13.8.6c2.6 3.2 2.5 5.1-.3 4.2-3.8-1.1-4.9-2.4-3.7-4.5 1.3-2.4 1.7-2.4 4 .3zm-73.1.2c0 .3-.4.8-1 1.1-.5.3-1 .1-1-.4 0-.6.5-1.1 1-1.1.6 0 1 .2 1 .4zm54.7 7.8c-.3.8-.6.5-.6-.6-.1-1.1.2-1.7.5-1.3.3.3.4 1.2.1 1.9zm-1.3 6.2c.3 1.3.2 3.5-.3 4.8-.6 1.3-1 1.7-1 .9-.1-.8-.8-1.9-1.6-2.5-.9-.7-1.2-1.9-.9-3.4.8-2.9 3-2.8 3.8.2zm-7.4 8.2c0 .8-.4 1.2-1 .9-.5-.3-1-1.3-1-2.1s.5-1.2 1-.9c.6.3 1 1.3 1 2.1zm17.9 1.3c.9 2 1 4.4.3 8-1.1 5.8-.1 7.3 2.9 4.5 2.1-1.9 3.5-1.4 2.6 1.1a3 3 0 0 1-2.6 1.5 3 3 0 0 0-2.5 1.5c-.5 1.3-1 1.3-3.8-.3-1.7-1-3.4-2.4-3.6-3.1-.3-.8 0-1.1.7-.7.7.5 1.1-.3 1.1-2.3 0-1.6.6-3.1 1.3-3.4 1-.4 1-.7 0-1.8a5 5 0 0 1-1.3-3.1c0-1.8 1.9-4.7 3.1-4.8.4 0 1.2 1.3 1.8 2.9zm-59.9.1c0 .5-.2 1-.4 1-.3 0-.8-.5-1.1-1-.3-.6-.1-1 .4-1 .6 0 1.1.4 1.1 1zm6.5 3c.3.6-.5 1.1-1.9 1.1l-3.8.3c-.6.1-1.3-.5-1.5-1.2-.6-1.5 6.3-1.7 7.2-.2zm74.5 1c0 .5-.4 1-1 1a1 1 0 0 1-1-1c0-.6.5-1 1-1 .6 0 1 .4 1 1zm-2.3 9.8c2.4 1.3 5.3 5.5 5.3 7.7 0 3-3.6 1.5-5.6-2.3a13 13 0 0 0-5.2-5.2c-1.8-.9-3-1.9-2.7-2.2.7-.7 5.2.4 8.2 2zm-54.7 1.7c0 .8-.4 1.5-1 1.5-.5 0-1-.7-1-1.5s.5-1.5 1-1.5c.6 0 1 .7 1 1.5zM163.5 642.9a4.8 4.8 0 0 0-1.1 4.4c.4 1.7 0 3-1.4 4.2-1.1 1-2 2.6-2 3.5 0 .9-.5 2.1-1.1 2.7-1.8 1.8-.2 4.5 2.3 4.1 2.5-.3 5.8-3.8 5.8-6 0-.8 1.3-2.9 3-4.8 3.3-3.9 3.5-4.8 1.7-7.1-2.1-2.7-5.2-3.1-7.2-1zM140 645.9c0 3.1 1.1 5.1 2.7 5.1 1 0 1.3-.6.9-1.6-.4-.9-.1-2.3.5-3 1-1.2.9-1.3-.5-.8-.9.3-1.6.1-1.6-.5s-.4-1.1-1-1.1c-.5 0-1 .9-1 1.9zM200.7 649.8a6 6 0 0 0-1.7 3.4c0 .9-.6 1.8-1.2 2.1-.9.3-.8 1 .6 2.6 2.4 2.6 4 2.8 2.6.2-2-3.8-1-4.3 2.5-1.2 4.3 3.7 4.5 3.7 7.8.8 3.1-2.6 3.4-5.2 1.1-7.8-1.3-1.4-2-1.6-3.5-.6-1.4.9-2.1.9-3.1-.1-1.7-1.7-3.2-1.5-5.1.6z"/>
  <path d="M274.8 728.5c.2 1.4.8 2.5 1.2 2.5 1 0 .1-3.8-1-4.5-.4-.2-.5.7-.2 2zM277.7 735.7c-.4.7-.3 1.4.2 1.8.6.3 2 2.6 3.2 5 2 4.1 5.9 8.8 5.9 7.2 0-.4-.7-2.8-1.6-5.4-1.5-4.4-3.2-6.5-5.1-6.3-.4.1-1-.6-1.3-1.6-.4-1.2-.9-1.4-1.3-.7zM278.7 751.5c-.5 1.1 0 1.5 1.6 1.5 1.2 0 1.8-.4 1.2-.8l-1.6-1.5c-.4-.4-.9-.1-1.2.8zM294.5 755.4c.1 2.4.6 5 1.1 5.7.5.8.9 1.7 1 2.1l.4 1.3.4 1.6c.2 1.8 6.2 2.1 7.6.4 1-1.2 1-1.5-.3-1.5-1.6 0-3.1-2.6-1.9-3.3.4-.2.2-.2-.5-.1-1.3.3-2.6-1.2-3-3.6-.1-.8-.9-2-1.7-2.6a3.9 3.9 0 0 1-1.6-2.8c0-.9-.4-1.6-.9-1.6s-.8 2-.6 4.4zm6.5 9.6c0 .5-.2 1-.4 1-.3 0-.8-.5-1.1-1-.3-.6-.1-1 .4-1 .6 0 1.1.4 1.1 1zM281.8 758.7c1.2 2.3 7.3 7 7.1 5.6a19 19 0 0 0-4.1-4.3c-3.1-2.6-3.8-3-3-1.3zM314.5 787c.3.5.8 1 1.1 1 .2 0 .4-.5.4-1 0-.6-.5-1-1.1-1-.5 0-.7.4-.4 1zM321.2 851c0 1.4.2 1.9.5 1.2.2-.6.2-1.8 0-2.5-.3-.6-.5-.1-.5 1.3zM341.4 897.9c1 1.6 4.5 1.9 5 .5.4-1-.3-1.4-2.5-1.4-1.7 0-2.8.4-2.5.9zM396.8 912.7c-2.3 2.8-3 4.3-1.9 4.3 1.2 0 4.6-4.8 3.9-5.5-.3-.3-1.2.3-2 1.2zM351 912.4c0 .2.8 1 1.8 1.7 1.5 1.3 1.6 1.2.3-.4s-2.1-2.1-2.1-1.3z"/>
</svg>
